<?xml version="1.0" encoding="utf-8"?>
<!-- Generator: Adobe Illustrator 24.0.2, SVG Export Plug-In . SVG Version: 6.00 Build 0)  -->
<svg version="1.1" id="Layer_1" xmlns="http://www.w3.org/2000/svg" xmlns:xlink="http://www.w3.org/1999/xlink" x="0px" y="0px"
	 viewBox="0 0 3970 244" style="enable-background:new 0 0 3970 244;" xml:space="preserve">
<style type="text/css">
	.st0{fill:url(#SVGID_1_);}
	.st1{fill:url(#SVGID_2_);}
	.st2{fill:#38182D;}
	.st3{fill:#210D1B;}
	.st4{fill:#512743;}
	.st5{fill:#44213A;}
	.st6{fill:url(#SVGID_3_);}
	.st7{fill:url(#SVGID_4_);}
	.st8{fill:url(#SVGID_5_);}
	.st9{fill:url(#SVGID_6_);}
	.st10{fill:#230E1E;}
	.st11{fill:url(#SVGID_7_);}
	.st12{fill:#562A4A;}
	.st13{fill:#49243E;}
	.st14{fill:#2D1228;}
	.st15{fill:#381633;}
</style>
<linearGradient id="SVGID_1_" gradientUnits="userSpaceOnUse" x1="1600.3" y1="266.1" x2="1600.3" y2="491.8" gradientTransform="matrix(1 0 0 -1 0 490)">
	<stop  offset="0" style="stop-color:#5C2C4A"/>
	<stop  offset="0.4012" style="stop-color:#3D1C31"/>
	<stop  offset="0.7612" style="stop-color:#281121"/>
	<stop  offset="1" style="stop-color:#210D1B"/>
</linearGradient>
<path class="st0" d="M391.3,24.1C454,44,465.6,47.9,541,56.2c15.1,1.7,33.5,7.1,21.9,10.8c11.7,1.5,176.1,22.1,226.5,31.7
	c88.8,17,86.8,21.1,90.9,30.7c49.1,3.4,164.9,14,198.9,17.7c28,3,48.7,7.5,59,11.7c10.3,4.3,7.8,12-8,13.5
	c62.9,10.7,112.7,29.5,136.4,51.5c5.2-5.5,10.4-11,19.1-16c62.6-35.9,303.6-89.6,369.6-67.8c153.4-64.5,245.1-83.3,293.3-93
	c20.4-4.1,42.9-8.4,66.7-7.5c36.2,1.4,99,20.9,99,20.9s27.7-7.6,41.2-9.3c104.4-13.9,192.8-52.5,835.8-52c0.6,0.2-2766.4-1-2782-1
	C209.3-1.8,313.3-0.8,391.3,24.1z"/>
<g>
	
		<linearGradient id="SVGID_2_" gradientUnits="userSpaceOnUse" x1="1914.9392" y1="455.1841" x2="2114.0159" y2="455.1841" gradientTransform="matrix(1 0 0 -1 0 490)">
		<stop  offset="0" style="stop-color:#210D1B"/>
		<stop  offset="0.2685" style="stop-color:#271020"/>
		<stop  offset="0.6344" style="stop-color:#391A2F"/>
		<stop  offset="1" style="stop-color:#512743"/>
	</linearGradient>
	<path class="st1" d="M1915.2,18.2c2.2-0.7,4.4-1.2,6.7-1.7c2.3-0.5,4.5-0.9,6.8-1.2c4.6-0.7,9.1-1.2,13.6-1.6c9-0.8,18-1,26.8-0.9
		c4.4,0.1,8.7,0.2,13,0.4c1.1,0.1,2.1,0.1,3.2,0.2c1,0.1,2.1,0.1,3.1,0.2l6,0.4c2.8,0.2,5.5,0.4,8.1,0.7c2.6,0.3,5.1,0.7,7.6,1
		c4.9,0.8,9.5,1.7,13.9,2.8c8.8,2.1,16.8,4.6,24.3,7.4c1.9,0.7,3.7,1.4,5.5,2.1s3.6,1.5,5.3,2.2c3.5,1.5,6.8,3,10.1,4.7
		c6.5,3.2,12.5,6.6,18,10.2c5.5,3.7,10.5,7.4,14.7,11.6c-4.2-1-8.1-2-12.1-3c-3.9-1.1-7.8-2.1-11.7-3.1c-7.7-2.1-15.2-4.2-22.7-6.1
		c-3.8-1-7.5-2-11.2-2.9c-3.7-1-7.4-1.9-11.1-2.7c-7.4-1.8-14.7-3.3-21.9-4.7c-7.2-1.3-14.2-2.2-20.4-2.5l-0.6-0.1l-1-0.1l-1.9-0.1
		l-3.4-0.3c-2.2-0.2-4.4-0.4-6.6-0.6c-4.3-0.4-8.5-0.9-12.7-1.5c-8.4-1.1-16.6-2.5-24.8-4.4c-4.1-0.9-8.1-1.9-12.2-2.9
		C1923.5,20.8,1919.4,19.6,1915.2,18.2z"/>
</g>
<g>
	<path class="st2" d="M2385.7,12.3c-13.5,3.7-27.5,6.7-42.7,8.6c-7.6,1-15.4,1.5-22.8,1.9c-3.7,0.3-7.4,0.4-11,0.7
		c-3.6,0.3-7.1,0.6-10.5,1c-3.4,0.4-6.8,1-10.2,1.6c-3.4,0.6-6.9,1.3-10.4,2c-7.1,1.4-14.4,2.7-21.7,3.8c-14.7,2.2-29.7,3.8-45,4.3
		c14.1-3,28-5.8,41.8-8.8c3.4-0.8,6.9-1.5,10.3-2.3l10.2-2.3c3.4-0.8,7-1.6,10.6-2.3c3.7-0.7,7.5-1.3,11.4-1.8
		c3.9-0.5,7.9-0.8,11.8-1.1c3.9-0.2,7.7-0.4,11.5-0.5l11.2-0.4c3.7-0.2,7.3-0.3,10.9-0.5c7.3-0.5,14.6-1.1,22-1.8
		C2370.7,13.8,2378.2,13,2385.7,12.3z"/>
</g>
<g>
	<path class="st2" d="M2284.6,14.2c-0.7,1-2.2,1.9-3.9,2.6c-1.7,0.7-3.7,1.3-5.7,1.8c-4.1,1-8.4,1.5-12.7,1.8
		c-4.3,0.4-8.6,0.6-12.7,0.8c-4.1,0.3-8.3,0.5-12.4,0.8c-8.2,0.6-16.4,1.3-24.5,2.2c-8,0.9-15.8,1.9-22.3,3.7
		c-3.1,0.9-6,1.9-7.7,3.1c-0.9,0.6-1.4,1.2-1.6,1.7c-0.1,0.1-0.1,0.3-0.1,0.4c0,0.1,0,0.2,0,0.4c0,0.1,0,0.2,0.1,0.5
		s0.3,0.6,0.4,1.1c0.1,0.5,0.2,1.3-0.3,2s-1.3,1.4-2.1,1.8c-0.8,0.5-1.7,0.8-2.4,1c-0.8,0.3-1.5,0.4-2.1,0.6
		c-1.3,0.3-2.6,0.5-3.7,0.6c-1.2,0.2-2.3,0.3-3.3,0.4c-4.1,0.4-8.3,0.9-12.4,1.3c-16.6,1.6-33.3,3-50.2,4.1l-0.2-0.9
		c2.2,0.2,4.4,0.3,6.6,0.5c-2.2,0.2-4.4,0.3-6.6,0.5l-8,0.6l7.8-1.5c15.9-3,32.1-5.6,48.3-8c4.1-0.6,8.1-1.2,12.2-1.8
		c1.1-0.2,2-0.3,2.8-0.4c0.9-0.2,1.6-0.3,2.2-0.5c0.3-0.1,0.5-0.2,0.7-0.2c0.2-0.1,0.2-0.1,0.1-0.1c-0.1,0.1-0.4,0.2-0.5,0.5
		c-0.2,0.3-0.1,0.5-0.1,0.4l-0.2-0.5c-0.2-0.3-0.3-0.7-0.5-1.1c-0.2-0.4-0.1-0.9-0.2-1.3c0.1-0.4,0.1-0.9,0.2-1.2
		c0.5-1.6,1.9-3,3.5-4.2c1.6-1.2,3.5-2.1,5.5-2.9c2-0.8,4.1-1.5,6.2-2.1c4.2-1.1,8.6-1.9,12.9-2.5c4.3-0.6,8.7-1.1,13-1.4
		c8.5-0.7,17.1-1.1,25.7-1.2c4.3-0.1,8.6-0.1,12.9,0c4.3,0.1,8.5,0.2,12.6,0.2s8.2-0.1,12.1-0.5c2-0.2,3.9-0.5,5.8-1
		C2281.6,15.7,2283.3,15.1,2284.6,14.2z"/>
</g>
<g>
	<path class="st2" d="M1907.2,25.7c6.9-1.2,14.1-1.9,21.5-2.2c7.3-0.3,14.7-0.3,22-0.1c14.7,0.6,29.1,2.1,43.1,3.9l5.3,0.7l2.7,0.4
		c1,0.2,2,0.3,3.1,0.6c0.6,0.2,1.2,0.3,1.8,0.6c0.7,0.3,1.4,0.6,2,1.1s0.9,1.2,0.9,1.6c0,0.5-0.1,0.8-0.1,1c0,0.2,0,0.3,0,0.3l0,0
		c0,0,0,0,0,0.1c0.1,0.1,0.3,0.3,0.7,0.5c0.9,0.4,2.2,0.8,3.7,1.2c1.5,0.4,3,0.7,4.7,1.1l10,2c6.7,1.3,13.4,2.7,20.1,4
		c3.4,0.7,6.7,1.4,10.1,1.8c1.7,0.3,3.4,0.4,5.2,0.5c1.8,0.1,3.5,0,5.3-0.3c-1.5,0.5-3.4,0.8-5.2,0.9c-1.9,0.1-3.7,0.1-5.6,0.1
		c-3.7-0.2-7.3-0.6-10.9-1c-7.1-0.9-14.1-1.8-21.1-2.9c-3.5-0.6-6.9-1.1-10.4-1.7c-1.7-0.3-3.5-0.6-5.3-1s-3.7-0.9-5.6-1.7
		c-0.9-0.4-1.9-0.9-2.7-1.6c-0.2-0.2-0.3-0.4-0.5-0.6c-0.2-0.2-0.2-0.4-0.3-0.7c-0.2-0.5-0.1-0.9-0.1-1.1c0-0.3,0.1-0.4,0-0.4
		c0,0,0,0.2,0.2,0.3c0.3,0.3,0.1,0.1-0.4,0c-1-0.2-2.8-0.5-4.6-0.7l-5.2-0.7c-13.9-1.8-27.8-3.5-41.9-4.7
		C1935.9,25.4,1921.7,24.9,1907.2,25.7z"/>
</g>
<g>
	<path class="st2" d="M2112.7,22.3c0.3-0.2,0.8-0.2,1.3-0.2c0.3,0.1,0.5,0.1,0.8,0.2c0.1,0.1,0.3,0.2,0.3,0.4s-0.1,0.3-0.2,0.4
		l0.1-0.1c-0.7,1.7-1.5,3.3-2.5,4.9c-0.9,1.6-1.9,3.1-2.9,4.6c-1,1.5-2,3-3.1,4.6c-0.1,0.2-0.3,0.4-0.4,0.6
		c-0.2,0.3-0.4,0.6-0.7,0.9c-0.6,0.5-1.3,1-2.2,1.4c-0.9,0.4-2.1,0.7-3.3,0.8s-2.5,0-3.4-0.3l-3.3-0.8l2.7-0.5
		c1.3-0.2,2.6-0.4,4-0.6c-0.7,0.6-1.4,1.2-2.3,1.8l-0.6-1.3c1.3-0.2,1.8-0.5,2.2-1c0.2-0.2,0.3-0.5,0.4-0.8c0-0.1,0-0.3,0-0.4
		c0-0.2,0.1-0.5,0.1-0.7c0.4-1.7,1.2-3.4,2.4-5.1c1.2-1.6,2.7-3.2,4.6-4.7c1.9-1.5,4.1-2.8,6.8-4l0.1-0.1c0,0.1,0,0.1,0,0.2
		s0.1,0.1,0.1,0.1c0.1,0,0-0.1,0-0.2C2113.4,22.4,2113.1,22.3,2112.7,22.3z"/>
</g>
<g>
	<path class="st2" d="M1967.3,41.5c-3.8-0.3-7.3-0.1-10.8,0.3c-3.4,0.4-6.6,1-9.7,1.8s-6.1,1.7-9.2,2.6c-1.6,0.5-3.2,1-4.8,1.4
		l-4.9,1.4c-6.5,1.8-13.2,3.4-20,4.9c-6.9,1.5-13.8,2.8-21.2,3.8c5.6-2.6,11.7-4.8,17.9-6.9c6.2-2.1,12.6-4,19.1-5.8l4.9-1.3
		c1.7-0.4,3.3-0.9,5-1.3c3.3-0.8,6.9-1.7,10.8-2.2c3.8-0.6,7.9-0.8,11.9-0.7c2,0.1,4,0.3,5.8,0.6C1964,40.5,1965.8,40.9,1967.3,41.5
		z"/>
</g>
<g>
	<path class="st3" d="M394.5,24.3c12.6,3.1,24.9,6.5,37.3,9.7c12.4,3.2,24.9,6.2,37.8,8.9c6.4,1.4,12.9,2.6,19.4,3.8
		c3.3,0.6,6.5,1.2,9.8,1.8l4.9,0.9c1.6,0.3,3.3,0.6,4.9,0.9c13.2,2.2,26.6,4.4,39.8,6.6c-13.8-1.3-27.5-2.8-41-4.8
		c-6.8-1-13.5-2-20.1-3.1c-3.3-0.6-6.6-1.2-9.9-1.8s-6.6-1.3-9.8-1.9c-6.5-1.4-12.9-2.8-19.2-4.4c-6.3-1.6-12.5-3.3-18.5-5.1
		C417.7,32.2,406,28.3,394.5,24.3z"/>
</g>
<g>
	<path class="st4" d="M2328.2,25.4c-1.2,0-2.4,0.1-3.6,0.1c-1.2,0-2.4,0.1-3.5,0.1c-1.2,0-2.3,0.1-3.5,0.2s-2.3,0.2-3.5,0.3
		c-4.6,0.4-9.2,0.8-13.7,1.4c-9,1.2-17.8,2.8-26.6,4.4l-6.6,1.3c-2.2,0.4-4.5,0.8-6.7,1.2c-4.5,0.8-9,1.6-13.4,2.3l-13.5,2.2
		l-13.5,2.2c-18,2.9-36,5.7-53.9,8.6c-8.9,1.5-17.9,2.9-26.7,4.6c-4.4,0.8-8.7,1.7-13,2.7c-2.1,0.5-4.2,1-6.2,1.6
		c-2,0.6-4,1.3-5.6,2.1c1.1-1.1,2.8-2,4.6-2.8c1.8-0.8,3.7-1.6,5.7-2.3c3.9-1.4,8.1-2.6,12.3-3.9c8.4-2.3,17.1-4.4,25.9-6.2
		c17.6-3.8,35.5-6.9,53.6-9.8l13.6-2.1c4.5-0.7,9.1-1.4,13.6-2l13.6-2l6.8-1l6.9-1c9.2-1.3,18.6-2.4,28.2-2.9
		c4.8-0.3,9.7-0.4,14.5-0.3c1.2,0,2.4,0.1,3.6,0.1c1.2,0.1,2.4,0.1,3.6,0.2c1.2,0.1,2.4,0.2,3.5,0.3
		C2325.8,25.2,2327,25.3,2328.2,25.4z"/>
</g>
<g>
	<path class="st4" d="M2233.8,22.7c-7.7,1.4-15.6,2.5-23.5,3.3c-2,0.2-4,0.5-5.8,0.7c-1.8,0.3-3.4,0.5-4.7,0.9
		c-1.3,0.4-2.4,0.9-3.4,1.5s-2,1.4-2.9,2.2c-1.9,1.7-3.7,3.7-7,5.5c-0.8,0.5-1.8,0.9-2.7,1.3c-1,0.4-2.1,0.7-3.1,1
		c-2.1,0.5-4.2,0.9-6.1,1.2c-7.8,1.2-15.6,2.2-23.7,2.8c7-2.2,14.2-4.1,21.5-5.8c1.8-0.4,3.5-0.9,5-1.3c1.5-0.5,2.5-1,3.6-1.6
		c2.1-1.3,3.6-3,5.7-4.9c1.1-0.9,2.2-1.9,3.8-2.8s3.7-1.8,6-2.3c2.3-0.6,4.6-0.8,6.8-1s4.2-0.2,6.2-0.3
		C2217.5,22.6,2225.6,22.4,2233.8,22.7z"/>
</g>
<g>
	<path class="st5" d="M1933.5,23.5c10.4-0.4,20.9-0.2,31.3,0.4c10.4,0.5,20.7,1.5,30.9,2.7c2.5,0.3,5.1,0.7,7.6,1
		c2.5,0.4,5.2,0.8,7.8,1.6c1.3,0.4,2.5,1,3.5,1.6s1.6,1.3,2.1,1.9c0.6,0.6,1,1,1.8,1.4c0.7,0.4,1.6,0.8,2.6,1.1
		c2,0.7,4.3,1.2,6.6,1.8l6.9,1.8c4.6,1.3,9.2,2.5,13.7,3.9c-5-0.8-9.8-1.8-14.7-2.7l-7.3-1.5c-2.4-0.5-4.8-1-7.3-1.6
		c-1.2-0.4-2.5-0.8-3.6-1.3c-1.1-0.5-2-1.2-2.7-1.8c-0.7-0.6-1.2-1.1-1.8-1.5c-0.6-0.4-1.4-0.7-2.3-1c-1.9-0.6-4.2-0.9-6.7-1.2
		c-2.5-0.4-5-0.7-7.5-1c-10-1.3-20.1-2.3-30.2-3.2C1954,24.9,1943.8,24.2,1933.5,23.5z"/>
</g>
<g>
	
		<linearGradient id="SVGID_3_" gradientUnits="userSpaceOnUse" x1="296.8892" y1="379.381" x2="1300.4961" y2="379.381" gradientTransform="matrix(1 0 0 -1 0 490)">
		<stop  offset="0" style="stop-color:#210D1B"/>
		<stop  offset="0.3745" style="stop-color:#301527"/>
		<stop  offset="1" style="stop-color:#512743"/>
	</linearGradient>
	<path class="st6" d="M304.6-1.1c23.3,0.3,46.6,1.8,69.6,4.3c23,2.5,45.8,5.9,68.1,10.3c5.5,1.1,11.1,2.2,16.5,3.4l15.8,3.4
		c5.2,1.1,10.2,2.2,15.2,3.1s9.8,1.8,14.6,2.6c4.8,0.8,9.4,1.3,14,1.8c4.5,0.5,9.4,0.8,14.7,1.1c5.3,0.3,10.9,0.6,16.9,1
		s12.4,0.8,19.2,1.6c6.8,0.7,13.9,1.7,21.2,3.2l2.7,0.6l2.7,0.6c1.8,0.4,3.5,0.9,5.1,1.3c3.3,0.9,6.3,1.7,9.1,2.6
		c5.7,1.7,10.5,3.2,14.7,4.5c1,0.3,2.1,0.6,3,0.9c1,0.3,2,0.5,3,0.8s2,0.5,3,0.7l3,0.7c8.3,1.8,17.2,3.2,26.9,4.4
		c4.8,0.6,9.8,1.1,14.8,1.6c5.1,0.5,10.3,1,15.6,1.4l33.4,2.5c11.5,0.9,23.2,1.9,35,3c11.9,1.2,23.9,2.5,36.1,4.2
		c12.1,1.7,24.4,3.8,36.6,6.3c3.1,0.6,6.1,1.3,9.1,2l4.5,1.1l4.5,1.1l4.5,1.2c1.5,0.4,3,0.8,4.4,1.2c3,0.8,5.9,1.7,8.8,2.5
		c11.3,3.5,21,7,29.6,9.9c4.3,1.5,8.4,2.8,12.2,3.9c1.9,0.6,3.9,1.1,5.8,1.6l3,0.7l1.5,0.4l1.5,0.4c4.1,1,8.4,1.8,12.8,2.5l3.4,0.6
		c1.1,0.2,2.3,0.4,3.4,0.5c2.3,0.4,4.7,0.7,7,1c9.5,1.3,19.6,2.3,30.1,3.1c2.6,0.2,5.3,0.4,8,0.6l8.1,0.6c5.4,0.4,11,0.8,16.6,1.1
		c22.5,1.5,46.5,2.9,70.9,6l4.6,0.6l4.6,0.7l2.3,0.3l2.4,0.4c1.6,0.3,3.1,0.5,4.7,0.8c6.3,1,12.5,2.2,18.8,3.7
		c6.2,1.4,12.3,3,18.3,4.9l4.5,1.4c1.5,0.5,2.9,1.1,4.4,1.6c1.5,0.5,2.9,1.1,4.3,1.7c1.4,0.6,2.8,1.1,4.2,1.8
		c5.6,2.4,10.7,5.3,15.2,8.4l1.7,1.2l0.8,0.6l0.8,0.6l3,2.5c1.8,1.7,3.6,3.5,4.8,5.2c1.3,1.7,2.3,3.3,3.2,4.8l2.3,3.9
		c0.7,1.2,1.4,2.2,2,3c0.6,0.9,1.4,1.6,2.4,2.5c2,1.7,5,3.5,8.6,5.4c3.6,1.9,7.8,3.8,12.2,5.9c2.2,1,4.5,2.2,6.6,3.3
		c2.2,1.1,4.3,2.3,6.4,3.5c4,2.4,7.8,4.9,11.3,7.5c13.7,10.4,22.3,22.1,24.6,33.9c-10.4-10.5-24.3-19.7-40.6-26.8l-3.1-1.3
		c-1-0.5-2.1-0.9-3.2-1.3c-1-0.4-2.1-0.8-3.2-1.2l-3.2-1.2c-2.2-0.8-4.4-1.5-6.6-2.2c-2.2-0.7-4.4-1.4-6.9-2.1
		c-4.8-1.4-9.9-2.8-15.3-4.6c-5.4-1.7-11-3.9-16.3-6.6c-2.6-1.4-5.2-2.9-7.5-4.6c-2.2-1.6-4-3.2-5.7-4.7c-1.6-1.5-3-2.9-4.3-4.1
		s-2.5-2.3-3.6-3.2c-0.6-0.5-1.1-0.9-1.7-1.2s-1.2-0.8-1.7-1.2c-0.7-0.4-1.3-0.7-1.9-1.1l-0.5-0.3l-0.5-0.3l-1.1-0.5l-1-0.5
		l-1.2-0.5l-1.1-0.5c-0.4-0.2-0.7-0.3-1.2-0.5l-2.4-0.9l-2.6-0.8c-3.6-1.1-7.4-2.1-11.5-2.9s-8.4-1.6-13-2.2
		c-4.5-0.6-9.2-1.2-14-1.6c-4.7-0.4-9.8-0.8-15-1.1c-20.6-1.2-42.4-1.5-65.5-1.9c-11.6-0.3-23.4-0.5-35.6-1.1
		c-6.1-0.3-12.3-0.6-18.6-1c-6.3-0.5-12.6-1-19-1.6c-12.8-1.3-25.9-3.1-38.9-5.7l-2.4-0.5l-2.4-0.5c-1.6-0.4-3.2-0.7-4.8-1.1
		c-3.2-0.8-6.4-1.5-9.5-2.4c-6.2-1.7-11.9-3.4-17.2-5.1s-10.2-3.3-14.9-4.9c-4.6-1.5-9-2.9-13.1-4.2c-2-0.6-4.1-1.2-6.2-1.7
		c-1-0.3-2-0.6-3.1-0.9l-3.2-0.8l-3.2-0.8l-3.3-0.8l-3.3-0.8c-1.1-0.3-2.3-0.5-3.4-0.7c-9-1.9-18.5-3.5-28.4-5
		c-9.9-1.5-20.2-2.7-30.7-4c-10.5-1.2-21.4-2.3-32.5-3.4l-16.8-1.7c-5.7-0.6-11.5-1.2-17.4-1.8c-5.9-0.7-11.9-1.4-18-2.2
		c-6.1-0.8-12.2-1.7-18.4-2.7c-12.4-2-25-4.6-37.3-8c-3.1-0.9-6.1-1.7-9.1-2.7c-1.5-0.5-3-1-4.5-1.4c-1.5-0.5-2.9-1-4.2-1.5
		c-5.4-1.9-9.9-3.8-13.9-5.2c-2-0.8-3.8-1.4-5.5-2c-0.8-0.3-1.7-0.6-2.4-0.8l-1.2-0.4l-1.2-0.4c-3.2-0.9-6.9-1.8-11.2-2.5
		s-9.1-1.5-14.3-2.1l-16.8-2.1c-6-0.8-12.3-1.7-18.7-2.8c-6.5-1.2-12.6-2.5-18.4-4c-5.8-1.5-11.4-3-16.7-4.7
		c-5.3-1.6-10.4-3.2-15.2-4.9c-4.9-1.7-9.6-3.3-14.3-4.9c-4.6-1.6-9.2-3.1-13.9-4.7c-18.6-6.1-38.1-11.8-58.3-17
		C347.1,8,326.1,3.4,304.6-1.1z"/>
</g>
<g>
	
		<linearGradient id="SVGID_4_" gradientUnits="userSpaceOnUse" x1="1543.0283" y1="266.3667" x2="1543.0283" y2="503.03" gradientTransform="matrix(1 0 0 -1 0 490)">
		<stop  offset="0" style="stop-color:#512743"/>
		<stop  offset="0.116" style="stop-color:#47223B"/>
		<stop  offset="0.42" style="stop-color:#321629"/>
		<stop  offset="0.7177" style="stop-color:#250F1F"/>
		<stop  offset="1" style="stop-color:#210D1B"/>
	</linearGradient>
	<path class="st7" d="M1824.8,13.5c-14.6,4.3-29.4,7.9-44.2,11.4c-14.9,3.4-29.8,6.6-44.8,9.6c-15,3-30.1,5.7-45.2,8.4
		c-7.5,1.3-15.2,2.6-22.5,3.8s-14.2,2.4-20.8,3.7c-13,2.5-24.2,5.2-32.4,8.2c-4.2,1.5-7.5,3-10.4,4.6c-0.7,0.4-1.5,0.8-2.2,1.3
		c-0.4,0.2-0.8,0.4-1.1,0.7l-1.2,0.7c-0.4,0.3-0.8,0.5-1.2,0.8l-1.2,0.8l-2.5,1.7c-3.4,2.4-6.9,5.1-10.8,8.1l-6.1,4.8l-3.3,2.5
		l-3.5,2.6c-4.8,3.6-10.1,7.4-16.5,11.4c-1.7,1-3.3,2-5.1,3l-2.7,1.5l-2.9,1.5l-1.4,0.8l-1.6,0.8l-3.1,1.5l-3.3,1.5l-1.7,0.8
		l-1.8,0.8l-3.6,1.5l-3.9,1.4l-1.9,0.7l-2,0.7l-4.1,1.3c-1.4,0.4-2.9,0.9-4.4,1.3l-2.2,0.6c-0.7,0.2-1.5,0.4-2.3,0.6l-4.6,1.1
		c-1.6,0.4-3.2,0.7-4.7,1c-3.2,0.7-6.5,1.2-9.7,1.7c-1.6,0.3-3.3,0.5-5,0.7l-2.5,0.3c-0.8,0.1-1.6,0.2-2.4,0.3
		c-6.5,0.7-12.5,1.1-18.1,1.3l-4.1,0.2l-3.8,0.1c-1.3,0.1-2.5,0.1-3.7,0.1s-2.4,0-3.5,0c-4.5,0-8.4,0-12-0.1c-3.5,0-6.5-0.1-9.1-0.1
		h-1.8h-0.9h-0.7c-0.5,0-1,0-1.5,0c-0.4,0-0.8,0.1-1.2,0.1c-1.6,0.1-3.2,0.2-4.8,0.3c-1.6,0.2-3.3,0.4-5.1,0.7
		c-1.8,0.3-3.6,0.7-5.6,1.2s-4,1.1-6.1,1.7c-8.4,2.6-17.4,6.7-26.3,11.7c-4.4,2.5-8.9,5.2-13.3,8c-1.1,0.7-2.2,1.4-3.3,2.1
		c-1.1,0.7-2.2,1.5-3.4,2.3l-3.4,2.3l-3.4,2.3c-9,6.2-17.8,12.5-26.6,19c-8.8,6.4-17.5,13.1-26.3,19.8s-17.5,13.7-27,20.8
		c-2-8.5-2.1-16.9-1.2-25.4s3.1-16.9,6.2-25.2c3.1-8.4,7.3-16.6,12.4-24.7c1.3-2,2.6-4.1,4-6.1c0.7-1,1.4-2,2.1-3
		c0.8-1,1.5-2.1,2.3-3.1c3.3-4.2,6.9-8.3,11.3-12.5c8.6-8.3,19.6-16.7,35.3-24.5c4-1.9,8.2-3.8,12.7-5.6c4.6-1.8,9.5-3.4,14.7-5
		c5.2-1.5,10.8-2.9,16.6-4.1c5.8-1.2,11.8-2.2,18-2.9s11.9-1.2,17.3-1.6c5.3-0.4,10.1-0.6,14.6-0.7l11.6-0.4l2.4-0.1
		c0.8-0.1,1.6-0.1,2.3-0.1l2.1-0.1l1.8-0.2c2.3-0.2,4.2-0.4,5.3-0.6l0.5-0.1l0.4-0.1c0.2-0.1,0.5-0.1,0.7-0.1
		c0.4-0.2,0.9-0.2,1.4-0.3c0.9-0.2,1.9-0.5,2.9-0.8c0.3-0.1,0.5-0.2,0.8-0.3l0.4-0.2l0.4-0.2c0.3-0.1,0.6-0.2,0.9-0.4
		c0.3-0.2,0.7-0.3,1-0.4l0.5-0.2l0.5-0.3l1.1-0.5l1.2-0.6l0.6-0.3l0.6-0.3l1.2-0.6l1.3-0.7c0.9-0.5,1.8-1,2.7-1.5
		c3.7-2.1,7.7-4.8,12.1-7.7c4.4-2.9,9.1-6.2,14.4-9.6s11.2-7.1,18.1-10.8c6.8-3.7,14.9-7.5,24.2-11c9.4-3.5,19.4-6.3,29.3-8.5
		c1.2-0.3,2.5-0.6,3.7-0.8l3.7-0.7l3.7-0.7l3.7-0.6l3.7-0.6c1.2-0.2,2.4-0.4,3.6-0.5c2.4-0.4,4.8-0.7,7.2-0.9
		c4.8-0.6,9.4-1,14.1-1.4c2.3-0.2,4.6-0.4,6.9-0.5L1629,9c8.9-0.5,17.4-0.7,25.7-0.9c8.3-0.1,16.1-0.2,24.2-0.2
		c16,0,32,0.1,48.1,0.5c16.1,0.4,32.3,0.9,48.5,1.6C1791.9,10.9,1808.2,11.8,1824.8,13.5z"/>
</g>
<g>
	
		<linearGradient id="SVGID_5_" gradientUnits="userSpaceOnUse" x1="1117.2964" y1="266.2014" x2="1117.2964" y2="486.0298" gradientTransform="matrix(1 0 0 -1 0 490)">
		<stop  offset="0" style="stop-color:#512743"/>
		<stop  offset="0.8756" style="stop-color:#271020"/>
		<stop  offset="1" style="stop-color:#210D1B"/>
	</linearGradient>
	<path class="st8" d="M962.3,11.7c-0.2,3.2,1.4,6,4.1,8.3c2.6,2.3,6.1,4.2,10,5.9s8.1,3.1,12.5,4.5c2.2,0.7,4.5,1.3,6.7,1.8
		c2.3,0.6,4.5,1,7.1,1.6c20.1,4.6,40.9,7.9,62.6,11.4l16.4,2.6c5.5,0.9,11.1,1.8,16.7,2.8c11.3,1.9,22.7,4,34.3,6.4
		c11.6,2.4,23.3,5.1,34.9,8.4c2.9,0.8,5.8,1.6,8.7,2.5c2.9,0.9,5.7,1.8,8.6,2.7c5.7,1.9,11.3,4,16.8,6.1c5.5,2.2,10.8,4.6,15.9,7.1
		c2.5,1.3,5,2.6,7.5,4c2.5,1.4,4.9,2.8,7.2,4.2c4.6,2.9,8.7,5.9,12.5,8.9c3.7,3,7.2,6.1,10.3,9.3c12.2,12.6,19,25.7,22.7,38.5
		c3.6,12.9,3.9,25.6,2,38.1c-1,6.2-2.6,12.5-4.8,18.6c-1.1,3.1-2.3,6.1-3.8,9.2c-1.4,3-3,6-4.9,9.1c-1.9-3-3.6-6-5.3-9
		c-1.7-2.9-3.3-5.9-5-8.8c-3.3-5.9-6.5-11.7-9.8-17.3c-6.7-11.4-13.7-22.4-22-32.8c-8.2-10.4-17.6-20.1-28.8-28.4
		c-2.8-2.1-5.7-4.1-8.7-5.9c-3-1.9-6.1-3.7-9.3-5.3c-1.6-0.8-3.2-1.6-4.8-2.4c-1.6-0.8-3.4-1.5-5.3-2.3c-3.6-1.6-7.4-3-11.4-4.5
		c-15.7-5.7-34.1-10.8-54.1-15.9c-9.9-2.6-20.3-5.2-30.8-8c-5.3-1.4-10.6-2.8-15.9-4.3c-2.7-0.8-5.3-1.5-8-2.3l-4-1.2l-4-1.2
		c-10.7-3.2-21.4-6.8-31.7-10.8s-20.1-8.5-29-13.4l-3.4-1.9c-1.2-0.7-2.3-1.4-3.4-2.1c-2.2-1.4-4.2-2.9-6.1-4.4
		c-3.8-3-6.9-6.3-9.1-9.8c-2.2-3.4-3.3-7.2-2.5-10.8c0.4-1.8,1.3-3.6,2.7-5.2c0.7-0.8,1.6-1.5,2.5-2.2c0.5-0.4,1-0.7,1.5-1
		C961.2,12.2,961.8,11.9,962.3,11.7z"/>
</g>
<g>
	
		<linearGradient id="SVGID_6_" gradientUnits="userSpaceOnUse" x1="1776.5001" y1="341.5503" x2="1776.5001" y2="482.95" gradientTransform="matrix(1 0 0 -1 0 490)">
		<stop  offset="0" style="stop-color:#512743"/>
		<stop  offset="4.050320e-02" style="stop-color:#4F2641"/>
		<stop  offset="0.6606" style="stop-color:#2E1425"/>
		<stop  offset="1" style="stop-color:#210D1B"/>
	</linearGradient>
	<path class="st9" d="M1893.8,25.5c-1.4,2.1-3.1,4-4.8,5.8c-0.8,0.9-1.7,1.8-2.6,2.6s-1.8,1.7-2.7,2.5c-3.5,3.4-7.3,6.4-11.2,9.3
		c-1.9,1.5-3.8,2.9-5.8,4.3c-2,1.4-4,2.7-6,4s-4,2.6-6.1,3.9c-1,0.6-2.1,1.2-3.1,1.8l-3.1,1.8c-4.2,2.4-8.7,4.6-13.4,6.6
		c-2.4,1-4.9,2-7.4,2.8c-2.6,0.9-5.2,1.8-7.9,2.7l-4.1,1.3c-1.4,0.4-2.8,0.8-4.1,1.3l-8.2,2.6c-5.5,1.7-10.7,3.7-15.8,5.8l-3.8,1.5
		c-1.3,0.5-2.5,1.1-3.7,1.6l-7.5,3.2l-3.8,1.6l-3.7,1.6l-7.5,3.3l-3.8,1.6l-3.8,1.7l-7.6,3.3c-5.1,2.2-10.1,4.5-15.2,6.7l-30.6,13.5
		c-10.3,4.5-20.6,9.1-31.3,13.5l-6-2.4c5.9-6.3,12.1-12.5,18.6-18.6c3.2-3.1,6.5-6.1,9.8-9.2s6.7-6.1,10.1-9.1
		c6.9-6,14-12,21.6-17.9s15.7-11.7,24.2-17.3c4.3-2.8,8.3-5.8,12.5-8.8l6.2-4.5c2.1-1.5,4.3-2.9,6.6-4.4c2.3-1.4,4.6-2.9,7-4.2
		c2.5-1.3,5.1-2.6,7.8-3.8c5.4-2.4,11.5-4.5,17.8-6.3l4.8-1.4c1.7-0.4,3.3-0.8,5-1.2c3.3-0.8,6.7-1.5,10.1-2.2l2.6-0.5
		c0.9-0.2,1.8-0.3,2.6-0.5c1.7-0.3,3.5-0.6,5.3-0.9c3.6-0.6,7.2-1.1,10.8-1.5c3.7-0.5,7.4-0.8,11.2-1c3.8-0.3,7.6-0.5,11.5-0.6
		s7.9-0.1,12,0s8.2,0.3,12.5,0.7L1893.8,25.5z"/>
</g>
<g>
	<path class="st2" d="M463.9,12.7c20.3,3.9,40.8,7,61.7,9.1c2.6,0.3,5.2,0.5,7.8,0.8c2.6,0.2,5.2,0.5,7.8,0.7
		c5.2,0.4,10.4,0.8,15.7,1.1c5.3,0.3,10.7,0.6,16.3,1s11.3,1,17.1,1.9c2.9,0.5,5.8,1.1,8.6,1.7c2.9,0.7,5.6,1.5,8.1,2.3
		c5.1,1.7,9.4,3.5,13.6,5.2c2.1,0.8,4.1,1.6,6,2.3c2,0.7,3.9,1.3,5.9,1.8c4,1.1,8.3,2,12.8,2.7c9.1,1.4,19,2.1,29.3,2.4
		c5.2,0.2,10.4,0.4,15.8,0.5c5.4,0.1,10.9,0.3,16.4,0.5c44.1,1.6,87.7,6.9,128.3,15.5c20.3,4.3,39.9,9.4,58.4,15.4
		c4.6,1.5,9.2,3,13.7,4.6c4.4,1.6,8.9,3.2,13.2,4.9c4.3,1.7,8.5,3.4,12.7,5.2c4.1,1.8,8.2,3.7,12.1,5.5c-4.8-1.3-9.4-2.7-14.1-4.1
		l-14.2-3.9L902.6,86c-4.8-1.2-9.7-2.3-14.5-3.5c-19.4-4.5-39.2-8.5-59.3-11.8C788.6,64,747,59.8,705.1,58.2
		c-10.4-0.5-21.2-0.6-32.4-1.1c-5.6-0.3-11.2-0.6-17-1.2c-5.7-0.5-11.5-1.2-17.2-2.2c-5.7-1-11.4-2.3-16.7-4
		c-1.3-0.4-2.7-0.8-3.9-1.3c-1.3-0.5-2.5-0.9-3.7-1.4c-2.4-0.9-4.5-1.9-6.6-2.8c-4.2-1.9-8-3.6-11.7-5.1c-1.9-0.8-3.7-1.4-5.7-1.9
		c-1.9-0.6-4-1.1-6.2-1.5c-4.4-0.9-9.1-1.6-14.1-2.2c-5-0.6-10.3-1.1-15.6-1.7c-10.8-1.2-21.4-2.7-31.8-4.6
		c-5.2-0.9-10.3-1.9-15.4-3c-5-1.1-10.1-2.2-15-3.4C482.4,18.6,472.9,15.8,463.9,12.7z"/>
</g>
<g>
	<path class="st10" d="M1293.6,24.7c4.1,2.3,7.7,4.7,11,7.2c3.3,2.5,6.3,5.1,9.1,7.9c2.7,2.7,5.2,5.5,7.4,8.3
		c1.1,1.4,2.1,2.8,3.1,4.3l0.7,1.1c0.2,0.4,0.5,0.7,0.7,1.1c0.5,0.8,1,1.8,1.3,2.9c0.3,1.2,0.5,2.5,0,4.1c-0.4,1.5-1.5,3.2-3,4.6
		c-1.5,1.4-3.3,2.5-5.2,3.5c-1.9,1-3.8,1.7-5.6,2.4c-1.8,0.7-3.8,1.2-5.5,1.6c-0.9,0.2-1.7,0.5-2.6,0.7l-2.6,0.6
		c-3.5,0.7-7.1,1.3-10.7,1.7c-7.1,0.8-14.1,1-20.7,1c-3.3,0-6.5-0.1-9.6-0.3s-6.2-0.3-9.1-0.5c-23.8-1.6-46.7-4.9-68.4-9.4
		c-10.8-2.2-21.4-4.8-31.6-7.7c-5.1-1.4-10.2-2.9-15.2-4.6s-9.9-3.3-14.7-5.2c6.1-0.1,12,0.1,17.8,0.3c5.9,0.2,11.7,0.5,17.4,0.8
		c11.5,0.7,22.8,1.5,33.9,2.4c22.3,1.8,44,3.7,65.5,5.2c10.8,0.8,20.5,1.3,28.8,0.9l1.5-0.1l1.5-0.1c0.5-0.1,1-0.1,1.5-0.2
		c0.5-0.1,1-0.1,1.4-0.2l1.4-0.2c0.4-0.1,0.9-0.2,1.4-0.2c0.9-0.1,1.5-0.3,2.1-0.4s1-0.2,1.3-0.2c0.3-0.1,0.3,0,0.3,0.2
		c0,0.2-0.1,0.4,0.1,0.6c0.1,0.1,0.4,0,0.5-0.3c0.1-0.3,0.2-0.8,0.1-1.4c0-0.3-0.1-0.7-0.1-1l-0.1-1.1l-0.5-4.2
		c-0.4-2.8-0.8-5.6-1.3-8.5c-0.5-2.8-1-5.7-1.6-8.7C1294.6,30.6,1294,27.7,1293.6,24.7z"/>
</g>
<g>
	<path class="st4" d="M1589.3,135.6c-3.8,0.5-7.6,0.8-11.4,1.2c-3.8,0.4-7.6,0.8-11.4,1.3c-7.6,0.8-15.1,1.8-22.6,2.7
		c-15,1.9-29.9,4.1-44.6,6.4c-29.4,4.8-58.1,10.3-85.9,16.9c-27.8,6.6-54.8,14-80.1,22.8l-4.7,1.7c-1.6,0.6-3.1,1.1-4.7,1.7
		c-1.5,0.6-3.1,1.1-4.6,1.7l-4.6,1.8c-3.1,1.2-6,2.4-9,3.7c-1.5,0.6-2.9,1.3-4.4,1.9c-1.4,0.7-2.9,1.3-4.3,1.9l-4.2,2
		c-1.4,0.7-2.7,1.4-4.1,2.1l-2,1l-1.9,1.1l-1.9,1.1l-1,0.6c-0.3,0.2-0.6,0.4-0.9,0.6c-1.2,0.8-2.4,1.5-3.6,2.3l-3.3,2.4
		c-1,0.8-2,1.7-3.1,2.5c-0.5,0.4-0.9,0.9-1.3,1.3l-1.3,1.3c0.5-1,1-1.9,1.7-2.8s1.4-1.9,2.2-2.8l2.7-2.7c1-0.9,2-1.7,3-2.6
		c0.3-0.2,0.5-0.5,0.8-0.7l0.8-0.6l1.7-1.3l1.7-1.3l1.8-1.2c1.2-0.8,2.4-1.6,3.7-2.4l3.8-2.3c1.3-0.8,2.6-1.5,4-2.2
		c1.4-0.7,2.7-1.5,4.1-2.2c2.8-1.4,5.6-2.8,8.5-4.2l4.4-2c1.5-0.7,3-1.3,4.5-2c1.5-0.7,3-1.3,4.5-1.9l4.6-1.9
		c24.8-9.9,52.2-18,80.7-24.8c28.5-6.7,58.4-12,88.9-15.8c15.3-1.9,30.7-3.3,46.2-4.5c7.8-0.5,15.5-1,23.4-1.2
		c3.9-0.2,7.8-0.3,11.7-0.4C1581.5,135.7,1585.4,135.6,1589.3,135.6z"/>
</g>
<g>
	<path class="st10" d="M1750.5,32.8c-24.4,2.9-48.9,5.6-72.3,9.7c-11.7,2.1-23.1,4.5-33.9,7.5c-10.8,2.9-21.1,6.4-30.2,10.5
		c-4.6,2-8.9,4.2-12.9,6.5c-4,2.3-7.5,4.9-11,7.5c-3.5,2.6-6.7,5.3-9.9,8c-3.2,2.7-6.4,5.4-9.7,8.2c-3.3,2.7-6.7,5.4-10.6,8
		c-3.8,2.6-7.9,5-12.4,7.3s-9.4,4.4-14.7,6.1c-5.3,1.7-11.1,3.1-17.1,4c11.5-2.5,21.3-6.5,29.3-11.3c4.1-2.3,7.7-4.9,11.1-7.5
		c3.4-2.6,6.6-5.3,9.6-8.1l9.1-8.3c3.1-2.8,6.2-5.5,9.7-8.3c3.4-2.7,7.2-5.3,11.3-7.8c4.1-2.5,8.7-4.8,13.5-6.9
		c9.7-4.3,20.4-7.9,31.7-10.8c11.4-2.9,23.2-5.3,35.3-7.1C1700.8,36.2,1725.6,34.3,1750.5,32.8z"/>
</g>
<g>
	
		<linearGradient id="SVGID_7_" gradientUnits="userSpaceOnUse" x1="800.2272" y1="361.4435" x2="1270.6487" y2="361.4435" gradientTransform="matrix(1 0 0 -1 0 490)">
		<stop  offset="0" style="stop-color:#210D1B"/>
		<stop  offset="0.2823" style="stop-color:#250F1F"/>
		<stop  offset="0.58" style="stop-color:#321629"/>
		<stop  offset="0.884" style="stop-color:#47223B"/>
		<stop  offset="1" style="stop-color:#512743"/>
	</linearGradient>
	<path class="st11" d="M802.9,64.3c11.4-0.2,23.1,0.7,34.4,2.1c11.3,1.4,22.3,3.5,32.9,5.7c21.3,4.5,41.4,9.7,61.3,13.6
		c5,1,9.9,1.8,14.9,2.6s9.9,1.4,14.8,1.9c4.9,0.5,10,0.9,15.2,1.2c2.6,0.2,5.2,0.3,7.9,0.4c2.6,0.2,5.3,0.2,8,0.3
		c10.8,0.4,22,0.6,33.7,1c11.6,0.5,23.8,1.2,35.9,2.6c24.1,2.8,46.8,7.8,67.2,14.3c20.4,6.5,38.7,14.4,54.6,23.2
		c15.9,8.8,29.6,18.4,41.3,28.4c5.8,5,11.3,10.1,16.3,15.4s9.6,10.5,13.6,16c-7.6-4.4-14.9-8.8-22.3-13.1s-14.7-8.6-22.3-12.8
		c-15-8.3-30.5-16.2-47-23.3c-16.4-7.1-33.8-13.3-52.2-18.5c-18.4-5.1-37.7-9.1-57.6-11.4l-7.5-0.8c-2.5-0.2-5-0.5-7.6-0.7
		c-5.1-0.4-10.4-0.7-15.8-1c-10.8-0.6-22.1-1-33.7-1.7c-11.6-0.7-23.6-1.7-35.6-3.5c-6-0.9-11.8-2-17.5-3.1
		c-5.6-1.2-11.1-2.5-16.3-4C877.3,87.6,846.5,71.7,802.9,64.3z"/>
</g>
<g>
	<path class="st10" d="M962.9,32.2c-0.1,0.9,0,1.8,0.3,2.6s0.9,1.7,1.6,2.5c1.4,1.6,3.4,3,5.7,4.3c4.5,2.6,10,4.8,15.5,6.9
		c11,4.3,22.6,8,34.7,11.4s24.4,6.5,36.9,9.5c12.5,3,25.1,6,37.6,9.1c12.5,3.2,24.8,6.5,36.6,10.4c5.9,2,11.6,4.1,17.1,6.3
		c1.4,0.6,2.7,1.1,4.1,1.7c1.4,0.6,2.7,1.2,4,1.8c2.6,1.2,5.1,2.5,7.6,3.8c4.9,2.6,9.4,5.4,13.5,8.3c4.1,2.9,7.8,6,11,9.1
		c6.4,6.3,11,13.1,13.9,20c-4.4-6.7-9.8-13.2-16.9-19.2c-3.5-3-7.4-5.9-11.6-8.6c-4.3-2.7-8.8-5.3-13.7-7.7
		c-9.9-4.8-20.7-9-32.4-12.7c-11.6-3.8-23.7-7-36.1-10.1c-12.3-3.1-24.9-6.1-37.4-9.3c-12.4-3.1-24.9-6.4-36.8-10.1
		c-12-3.7-23.4-7.8-34-12.5c-5.2-2.3-10.5-4.7-14.8-7.6c-2.1-1.4-4-3-5.2-4.7C962.7,35.7,962.3,33.9,962.9,32.2z"/>
</g>
<g>
	<path class="st12" d="M1170.2,177.4c11.4,0.5,22.3,2.2,32.5,4.7s19.8,5.8,28.3,9.6c8.5,3.9,16,8.3,22,13.2
		c6,4.9,10.7,10.2,12.8,15.9c-7.7-4.2-14.7-8.4-22.1-12.2c-7.3-3.9-14.8-7.6-22.6-11.2c-7.8-3.5-15.9-6.9-24.4-10.2
		C1188.2,183.9,1179.4,180.9,1170.2,177.4z"/>
</g>
<g>
	<path class="st13" d="M1547.2,95.6c-0.8,0.9-1.6,1.8-2.5,2.6l-1.5,1.3l-0.7,0.6c-0.3,0.2-0.5,0.4-0.8,0.6c-1.1,0.8-2.2,1.6-3.5,2.3
		l-1.9,1.1c-0.6,0.4-1.3,0.7-2,1.1c-5.4,2.9-11.6,5.3-18.2,7.4c-13.3,4.2-28.2,6.9-43,9c-7.4,1.1-14.8,2-22.1,2.9
		c-7.3,1-14.5,1.9-21.5,3.1c-1.8,0.3-3.5,0.6-5.2,0.9c-1.7,0.3-3.4,0.6-5.1,1s-3.4,0.7-5,1.1c-1.6,0.4-3.3,0.7-4.9,1.1
		c-3.2,0.8-6.4,1.6-9.5,2.5c-3.1,1-6.1,1.9-9,3c-5.9,2.1-11.6,4.5-17.1,6.9c-5.5,2.5-10.8,5.1-16.1,7.8c-5.3,2.7-10.4,5.4-15.6,8.2
		c-5,2.8-10.1,5.6-15,8.5c-19.6,11.5-37.3,23.9-53.8,36.9c11.2-14.3,26.8-27.9,45.2-40.4c9.2-6.2,19.1-12.2,29.6-17.9
		c5.2-2.8,10.7-5.6,16.4-8.3c5.7-2.7,11.8-5.2,18.3-7.6c3.2-1.2,6.6-2.2,10-3.3c3.5-1,7-2,10.7-2.8c7.3-1.7,14.8-3,22.3-4.1
		c15-2.2,30.1-3.4,44.8-5c3.7-0.4,7.3-0.8,10.9-1.2c1.8-0.2,3.6-0.5,5.4-0.7l2.7-0.4l2.7-0.4c7.1-1.1,14-2.3,20.7-3.9
		c6.7-1.6,13-3.5,18.9-5.8c0.7-0.3,1.5-0.6,2.2-0.9l2.1-1c1.4-0.6,2.7-1.3,4-2c0.3-0.2,0.7-0.4,1-0.5l0.9-0.6l1.8-1.1
		c0.6-0.4,1.1-0.8,1.7-1.2L1547.2,95.6z"/>
</g>
<g>
	<path class="st4" d="M1769.2,92.1c-9.3,3.8-18.7,7.2-27.9,10.8c-9.2,3.5-18.4,7.1-27.4,10.7c-9,3.7-18,7.4-26.9,11.1l-13.4,5.7
		l-6.8,2.8c-1.1,0.5-2.3,1-3.5,1.4l-0.4,0.2c-0.1,0.1-0.2,0.1-0.3,0.2c-0.2,0.1-0.4,0.3-0.5,0.4s-0.2,0.3-0.2,0.5
		c0,0.2,0.2,0.3,0.6,0.3c-0.2,0.1-0.4,0.1-0.6,0.1c-0.2-0.1-0.4-0.2-0.5-0.3c-0.2-0.2-0.2-0.4-0.2-0.6s0.1-0.4,0.2-0.7
		c0.1-0.1,0.2-0.2,0.3-0.3l0.3-0.3c0.8-0.7,1.6-1.3,2.4-1.9c1.6-1.3,3.4-2.5,5.1-3.7c1.8-1.2,3.6-2.4,5.5-3.5s3.8-2.3,5.8-3.4
		c8-4.5,16.7-8.6,26-12.3c9.3-3.8,19.2-7.1,29.5-10C1747,96.4,1757.8,93.9,1769.2,92.1z"/>
</g>
<g>
	<path class="st12" d="M897.8,130.8c10.7,0.6,21.3,1.2,31.9,1.6c10.6,0.5,21.2,0.8,31.8,1.2c21.2,0.7,42.4,1.4,63.8,2.5l8,0.5l8,0.5
		c2.7,0.2,5.3,0.4,8,0.6s5.3,0.4,8,0.7c5.3,0.5,10.6,1,15.9,1.5c2.7,0.3,5.3,0.6,8,0.9c2.6,0.4,5.3,0.7,7.9,1.1
		c10.5,1.6,21,3.6,30.5,6.7c9.4,3,17.5,7.2,22.3,12.2c-3.8-2-7.8-3.7-12.1-5.2c-4.3-1.5-8.9-2.7-13.6-3.7c-9.5-2-19.5-3.2-29.7-4.2
		c-2.5-0.3-5.1-0.5-7.7-0.7c-2.6-0.2-5.2-0.4-7.8-0.6l-7.8-0.5l-7.9-0.5c-2.6-0.2-5.2-0.3-7.9-0.5c-2.6-0.2-5.2-0.3-7.9-0.5
		l-7.9-0.5l-7.9-0.4c-21.1-1.2-42.4-2.3-63.6-4.2c-10.6-1-21.2-2-31.6-3.4C918,134.6,907.7,132.9,897.8,130.8z"/>
</g>
<g>
	<path class="st12" d="M428.8,35.8c12.8,2,25.4,4.3,37.9,6.5c12.5,2.2,25,4.5,37.5,6.6C510.5,50,516.7,51,523,52
		c3.2,0.5,6.3,1,9.5,1.5c3.2,0.5,6.4,1,9.6,1.5c3.2,0.6,6.4,1.1,9.5,1.8c3.2,0.7,6.3,1.3,9.3,2.2c1.5,0.5,3,0.9,4.5,1.5
		c1.4,0.6,2.9,1.2,3.9,2.2c0.5,0.5,0.8,1.2,0.5,1.8c-0.2,0.6-0.8,1.1-1.5,1.5c-1.4,0.8-2.9,1.2-4.5,1.6l-1.1-1
		c1.3-0.5,2.5-1,3.3-1.6c0.4-0.3,0.5-0.6,0.5-0.8c0-0.3-0.2-0.5-0.5-0.7c-0.6-0.5-1.8-0.9-3.1-1.3c-1.3-0.4-2.7-0.7-4.2-1.1
		c-5.9-1.2-12.3-2.1-18.6-2.9c-6.4-0.9-12.9-1.6-19.4-2.5c-6.5-0.9-12.9-1.9-19.2-3c-12.7-2.2-25.1-4.8-37.3-7.6
		C452.2,42.4,440.3,39.3,428.8,35.8z"/>
</g>
<g>
	<path class="st10" d="M1293.6,22.1c-1.7,2-2.4,4.2-2.2,6.3c0.2,2.1,1.1,4.3,2.4,6.3c2.6,4.1,6.2,8,9,12.2c1.4,2.1,2.5,4.3,3.1,6.5
		c0.2,1.2,0.2,2.3,0,3.5c-0.3,1.2-0.9,2.4-2.1,3.5s-2.9,2.1-5,2.8c-2.1,0.7-4.4,1.1-6.6,1.4c-2.2,0.3-4.4,0.5-6.6,0.6
		c-1.1,0.1-2.2,0.1-3.3,0.2l-1.7,0.1l-1.7,0.1c-2.2,0.1-4.4,0.1-6.6,0.1c-2.2-0.1-4.4-0.1-6.6-0.2c-4.4-0.2-8.7-0.6-13-1.1
		c-8.6-1-16.8-2.3-24.9-3.9c-16.2-3-31.8-6.6-48-8.8c-4-0.6-8.1-1.1-12.2-1.4l-3.1-0.3l-3.1-0.2c-2.1-0.2-4.1-0.2-6.2-0.3
		c-8.3-0.3-16.8-0.1-25.3,0.2c-4.3,0.1-8.6,0.2-12.9,0.2c-2.2,0-4.3-0.1-6.5-0.1l-3.3-0.1l-3.3-0.1c-2.2-0.1-4.3-0.1-6.5-0.2
		l-6.5-0.4c-1.1-0.1-2.2-0.2-3.2-0.2l-3.2-0.3c-2.1-0.2-4.3-0.3-6.4-0.6c-34.1-3.1-66.6-10.6-92.9-21.7c28.1,9.9,60.4,16.4,93.8,19
		c8.4,0.6,16.8,1.1,25.2,1.2l3.2,0.1h3.2c2.1,0,4.2,0,6.3,0c4.2-0.1,8.5-0.2,12.7-0.3c8.5-0.3,17.2-0.5,26-0.3
		c4.4,0.1,8.8,0.4,13.1,0.8c4.3,0.4,8.6,0.9,12.8,1.5c16.8,2.4,32.6,6,48.4,9.1c7.9,1.5,15.9,2.9,24,4c4.1,0.5,8.2,0.9,12.3,1.2
		c2.1,0.2,4.1,0.2,6.2,0.3c2.1,0.1,4.1,0.1,6.2,0.1h1.5l1.5-0.1c1-0.1,2.1-0.1,3.1-0.1c2-0.2,4.1-0.3,6-0.5s3.7-0.5,5.2-1
		c1.5-0.5,2.7-1.1,3.7-1.9c1.8-1.6,2.4-3.7,2.1-5.7s-1.2-4.1-2.3-6.2c-2.2-4.1-5.6-8.2-7.6-12.4c-1-2.1-1.7-4.3-1.6-6.5
		C1290.5,26.2,1291.6,24.1,1293.6,22.1z"/>
</g>
<g>
	<path class="st10" d="M1798.1,27.5c-15.2,1.5-30.2,3.6-44.7,6.2c-3.6,0.7-7.2,1.4-10.8,2.1l-10.6,2.3l-10.4,2.5l-10.2,2.7l-10,2.9
		l-9.7,3.1l-9.5,3.3l-9.2,3.5c-12.1,4.8-23.5,10-33.9,15.7l-3.9-2.8c8.6-1.9,17.3-3.8,26-5.6l26-5.6c8.7-1.9,17.4-3.7,26.1-5.5
		c8.7-1.8,17.4-3.7,26.1-5.5l2.5,2.6c-7.9,2.1-15.4,4.5-22.6,7.1c-7.2,2.6-14,5.6-20.4,8.8c-6.4,3.1-12.3,6.6-17.8,10.2l-4,2.7
		l-3.8,2.8l-3.6,2.9l-3.4,2.9l2.9-3.1l3.2-3l3.4-3l3.7-2.9c5-3.8,10.7-7.5,16.9-10.8c6.2-3.4,12.9-6.5,20-9.4
		c7.2-2.9,14.8-5.5,22.8-7.8l2.5,2.6c-8.6,2-17.2,3.9-25.9,5.7c-8.6,1.9-17.2,3.9-25.9,5.7l-25.9,5.6c-8.6,1.9-17.3,3.8-26,5.6
		l-15,3.2l11.1-6c10.8-5.8,22.5-11.2,35.1-15.9l9.6-3.4l9.8-3.2l10.1-3l10.4-2.8l10.6-2.6l10.8-2.3l11-2.1c3.7-0.6,7.4-1.2,11.1-1.8
		C1767.4,29.9,1782.7,28.3,1798.1,27.5z"/>
</g>
<g>
	<path class="st10" d="M514,16.2c16.1,0.4,32.2,1.1,48.3,2c16.1,0.9,32.1,2.1,48,3.5c15.9,1.4,31.8,3.1,47.5,5
		c15.7,1.9,31.3,4.1,46.8,6.5l21.2,3.2h-22.2c-4.5,0-9,0.1-13.5,0.1c-4.5,0.1-8.9,0.3-13.2,0.6c-4.3,0.4-8.6,0.8-12.6,1.6
		c-4,0.7-7.8,1.7-11.3,2.9l-1.8-3.2l17.6,0.7l17.5,0.9l17.5,1l17.5,1.2l17.4,1.4l17.3,1.6l17.3,1.7l17.2,1.9l17.1,2.1l17,2.2
		l16.9,2.4l16.8,2.6c22.3,3.7,44.4,7.7,66,12.3c-22.2-3.9-44.5-7.4-67-10.5l-16.9-2.3l-17-2.1l-17-2l-17.1-1.9l-17.2-1.7l-17.2-1.6
		l-17.3-1.4l-17.3-1.3L703,44.4l-17.4-1l-17.4-0.8L650.8,42l-9.6-0.4l7.8-2.8c4-1.4,8.4-2.5,13-3.3c4.6-0.8,9.2-1.4,13.9-1.7
		c9.4-0.7,18.7-0.7,27.8-0.6l-1,3.2c-15.3-2.5-30.8-4.7-46.3-6.8s-31.2-3.9-46.9-5.6c-15.7-1.7-31.6-3.1-47.5-4.5
		C546,18.2,530,17.1,514,16.2z"/>
</g>
<g>
	<path class="st10" d="M1107,86.7c14.4,2.6,28.4,6.1,40.6,11.2c3.1,1.2,6,2.6,8.7,4c2.7,1.5,5.3,3,7.6,4.6c2.3,1.6,4.4,3.3,6.3,5.1
		s3.6,3.5,5.2,5.3c6.4,7.2,10.8,14.6,17.1,21.5c1.6,1.7,3.3,3.4,5.1,5.1c1.8,1.7,3.8,3.3,6,4.8s4.6,3,7.2,4.4
		c2.7,1.4,5.5,2.6,8.6,3.8c-3.5-0.8-6.8-1.8-9.9-3c-3.1-1.2-5.9-2.6-8.6-4c-5.3-2.9-9.7-6.2-13.4-9.7c-1-0.9-1.8-1.7-2.7-2.6
		c-0.8-0.9-1.7-1.8-2.5-2.7c-1.6-1.8-3.1-3.6-4.6-5.4c-2.9-3.6-5.7-7.1-8.8-10.6c-3.1-3.4-6.5-6.8-10.6-9.9c-2-1.6-4.3-3-6.7-4.5
		c-1.3-0.7-2.5-1.4-3.8-2.1c-1.3-0.7-2.6-1.3-4-2C1133.1,94.8,1120.1,90.7,1107,86.7z"/>
</g>
<g>
	<path class="st14" d="M1370.8,147.5c-7.1,3.3-13.6,6.8-19.9,10.4c-1.5,0.9-3.1,1.8-4.6,2.8c-1.5,0.9-3,1.9-4.5,2.8
		c-2.9,1.9-5.8,3.8-8.6,5.7c-5.7,3.9-11.1,7.8-16.4,11.8c-5.4,4-10.5,8.1-16.4,12l-5.1-2.1c3.5-1.9,7.3-3.7,11.5-5.2
		c4.2-1.5,8.6-2.8,13.1-4c4.5-1.2,8.9-2.2,13.2-3.4c4.3-1.2,8.5-2.5,12.7-3.9c-3.4,1.8-7.2,3.5-11.3,5c-2,0.8-4.1,1.5-6.1,2.2
		l-6.2,2.1c-2,0.7-4.1,1.4-6.1,2.1s-3.9,1.5-5.7,2.2c-1.8,0.8-3.6,1.6-5.3,2.4c-0.8,0.5-1.7,0.9-2.5,1.3l-2.4,1.4l-5.1-2.1
		c2.6-1.9,5.3-4,7.9-6c2.6-2,5.3-4.1,8-6.1c5.4-4,11.2-8,17.3-11.8c3-1.9,6.2-3.8,9.5-5.6c1.6-0.9,3.3-1.8,5-2.7
		c1.7-0.9,3.4-1.7,5.2-2.6C1355,153.1,1362.6,150,1370.8,147.5z"/>
</g>
<g>
	<path class="st15" d="M1149.8,169.4c6.2,0.7,12.3,1.6,18.3,2.5l4.5,0.7l4.5,0.8c3,0.5,6,1.1,8.9,1.6c5.9,1.2,11.8,2.3,17.6,3.6
		l4.3,1l4.3,1l4.3,1l4.3,1.1l-4.1,2.6c-3.8-2.2-7.6-4.4-11.4-6.6l-17.9-10.4l22.5,7.8c6.4,2.2,12.5,4.7,18.1,7.5s10.8,5.7,15.4,8.8
		c4.7,3.1,8.7,6.5,12.3,9.9c3.5,3.5,6.4,7.1,8.5,10.8c-3.5-3.4-7.3-6.8-11.5-9.9c-4.1-3.2-8.7-6.2-13.6-9.1
		c-4.9-2.8-10.1-5.6-15.7-8.1c-5.5-2.5-11.4-4.9-17.5-7l4.6-2.6c3.8,2.2,7.5,4.4,11.2,6.7l11,6.6l-15.1-4l-8.3-2.2l-8.4-2.1
		c-5.6-1.4-11.2-2.8-16.9-4.2l-8.5-2l-8.6-2L1149.8,169.4z"/>
</g>
<g>
	<path class="st4" d="M910.8,91.6c10.9,5,23.9,8.6,37.6,11.1c6.8,1.3,13.8,2.2,20.9,3c7.1,0.8,14.2,1.4,21.5,1.9
		c7.2,0.5,14.5,0.9,21.8,1.2c7.3,0.4,14.6,0.6,21.9,1s14.7,0.8,22,1.3s14.6,1.2,21.9,2.1l-1.6,2.9c-3.8-0.6-7.9-1-11.7-0.9
		c-1.9,0.1-3.6,0.3-5,0.7c-1.3,0.4-2.2,0.9-2.7,1.7l-2.1-1.8c10.5,1.4,20.8,2.9,31,4.8c10.2,1.8,20.2,3.9,30,6.2
		c9.8,2.3,19.3,4.9,28.6,7.7c9.3,2.8,18.3,5.8,26.9,9c-9.2-2.8-18.5-5.5-28-8c-9.5-2.4-19.2-4.8-29.1-6.8c-9.8-2.1-19.8-4-30-5.6
		c-10.1-1.7-20.4-3.1-30.7-4.4l-3.2-0.4l1.1-1.5c0.3-0.4,0.5-0.7,0.8-1c0.4-0.3,0.7-0.7,1.2-0.9c0.9-0.6,2.1-1.1,3.3-1.4
		c2.4-0.7,5-1,7.4-1.1s4.8,0,7.1,0.2c2.3,0.2,4.6,0.4,6.8,0.8l-1.6,2.9c-7-0.8-14.2-1.5-21.4-2c-7.2-0.6-14.4-1-21.7-1.3l-21.9-1.2
		c-7.3-0.4-14.6-0.9-21.9-1.5c-7.3-0.6-14.6-1.4-21.7-2.3c-7.2-1-14.2-2.1-21.1-3.6c-6.8-1.5-13.4-3.2-19.6-5.3l-4.5-1.6l-4.3-1.7
		l-4.1-1.9L910.8,91.6z"/>
</g>
<g>
	<path class="st4" d="M1117.2,53.4c14.8,2.3,29.2,5.2,43.2,8.5c14,3.4,27.6,7.2,40.6,11.5l9.7,3.3l9.4,3.4l9.2,3.7l9,3.8
		c11.8,5.1,22.9,10.7,33.3,16.6l12,6.8l-15.7-4.5l-12.7-3.7l-12.7-3.7l-25.4-7.4l3-2.4c10.5,3.7,18.9,8.7,25.6,14
		c6.6,5.4,11.6,11.3,15.5,17.2c3.9,6,7,12,10,18c3.1,6,6.2,12.1,10.4,17.9c-5.1-5.7-9-11.7-12.7-17.6c-3.7-5.9-7.2-11.9-11.5-17.7
		c-4.3-5.8-9.4-11.4-16.1-16.5c-6.6-5.1-14.7-9.7-24.5-13.1l3-2.4l25.5,7.3l12.8,3.7l12.7,3.7l-3.7,2.3c-10.1-5.8-21-11.3-32.5-16.5
		l-8.7-3.8l-9-3.7l-9.2-3.5l-9.4-3.4c-12.6-4.4-25.8-8.5-39.4-12.2C1145.6,59.5,1131.6,56.3,1117.2,53.4z"/>
</g>
<g>
	<path class="st4" d="M1583.3,70.7c-9.5,9-16.2,18.5-26,27.6c-4.9,4.5-10.7,8.9-17.8,12.8l-2.8,1.4c-0.9,0.5-1.9,0.9-2.9,1.4
		c-2,0.9-4,1.7-6.1,2.5c-4.2,1.6-8.6,2.9-13.2,4.2c-4.6,1.2-9.3,2.3-14.1,3.2c-4.8,0.9-9.7,1.7-14.5,2.4c-9.7,1.4-19.5,2.6-29,4
		c-9.5,1.4-18.9,2.9-27.6,5.2c-8.8,2.2-16.8,5.2-23.3,9.1c5.1-4.4,12.8-8.1,21.4-10.8c4.3-1.4,8.8-2.6,13.5-3.7
		c4.6-1.1,9.4-2,14.2-2.8c9.6-1.7,19.3-3,28.7-4.6c9.4-1.5,18.6-3.2,27.1-5.6c8.6-2.3,16.5-5.1,23.2-8.5c6.8-3.4,12.5-7.5,17.8-11.7
		c5.2-4.3,10.1-8.7,15-13.1C1571.9,79.2,1577.1,74.8,1583.3,70.7z"/>
</g>
<g>
	<path class="st4" d="M721.7,59.7c18.8-0.2,37.6,0.2,56.3,1.4c18.7,1.3,37.5,3.6,54.9,7.8c4.3,1.1,8.6,2.2,12.7,3.5
		c2.1,0.7,4,1.3,6,2c1.9,0.7,3.9,1.4,5.8,2.2c1.9,0.8,3.7,1.6,5.5,2.4c1.7,0.9,3.5,1.7,5.1,2.6c1.7,0.9,3.2,1.8,4.8,2.7
		c1.5,0.9,3.1,1.8,4.6,2.7c3,1.8,5.9,3.7,8.9,5.5c3,1.8,6,3.5,9.3,5.2c3.3,1.6,6.8,3.1,10.7,4.4c3.9,1.3,8.1,2.2,12.6,2.9
		c-2.3-0.2-4.7-0.3-7-0.7l-1.7-0.3l-1.7-0.3l-1.7-0.3l-0.8-0.2l-0.8-0.2c-1.1-0.3-2.2-0.5-3.2-0.8l-3.1-1c-1.1-0.3-2-0.7-3-1
		l-1.5-0.5l-1.4-0.6c-7.5-3-14-6.6-20.4-10c-6.4-3.4-12.7-6.7-20-9.5c-1.8-0.7-3.7-1.4-5.5-2c-1.9-0.6-3.8-1.3-5.7-1.8
		c-1.9-0.6-3.9-1.2-5.9-1.7c-2-0.5-4-1.1-6.1-1.6c-16.5-4-34.3-6.4-52.5-8.3C758.8,62.4,740.2,61.2,721.7,59.7z"/>
</g>
<g>
	<path class="st4" d="M1990.7,14.2l5.4,0.5l5.4,0.6l5.3,0.7l5.3,0.8c7,1.2,13.8,2.6,20.4,4.4c6.5,1.7,12.9,3.7,18.8,5.9
		c6,2.2,11.6,4.7,16.8,7.3l7.2,3.7l-8.9-2.5c-4.4-1.2-8.8-2.5-13.1-3.8l1.6-1.1c3.3,1.5,6.7,3,10,4.6c3.3,1.6,6.6,3.1,9.9,4.7
		c3.3,1.6,6.6,3.1,9.8,4.7c3.3,1.6,6.5,3.1,9.7,4.8c-3.5-1.4-7-2.9-10.4-4.4c-3.5-1.5-6.9-2.9-10.4-4.4c-3.4-1.5-6.9-2.9-10.3-4.5
		c-3.4-1.5-6.8-3-10.2-4.5l-9.2-4.1l10.8,2.9c4.4,1.2,8.8,2.4,13.2,3.7l-1.7,1.2c-5.2-2.6-10.6-5-16.4-7.2c-5.8-2.2-11.9-4.2-18.3-6
		c-6.3-1.8-12.9-3.3-19.7-4.7l-5.1-1l-5.2-0.9l-5.3-0.8L1990.7,14.2z"/>
</g>
</svg>
