<?xml version="1.0" encoding="utf-8"?>
<!-- Generator: Adobe Illustrator 24.0.2, SVG Export Plug-In . SVG Version: 6.00 Build 0)  -->
<svg version="1.1" id="Layer_1" xmlns="http://www.w3.org/2000/svg" xmlns:xlink="http://www.w3.org/1999/xlink" x="0px" y="0px"
	 viewBox="0 0 3969 2016" style="enable-background:new 0 0 3969 2016;" xml:space="preserve">
<style type="text/css">
	.st0{fill:#423C66;}
	.st1{fill:url(#SVGID_1_);}
	.st2{fill:#687831;}
	.st3{fill:#97B13D;}
	.st4{fill:#BDD657;}
	.st5{fill:#996A4A;}
	.st6{fill:#697B33;}
	.st7{fill:#98B23E;}
	.st8{fill:#805E45;}
	.st9{fill:#F2F22F;}
	.st10{fill:#EDD815;}
	.st11{fill:#562B0E;}
	.st12{fill:url(#SVGID_2_);}
	.st13{fill:url(#SVGID_3_);}
	.st14{fill:url(#SVGID_4_);}
	.st15{fill:url(#SVGID_5_);}
	.st16{fill:url(#SVGID_6_);}
	.st17{fill:url(#SVGID_7_);}
	.st18{fill:url(#SVGID_8_);}
	.st19{fill:url(#SVGID_9_);}
	.st20{fill:url(#SVGID_10_);}
	.st21{fill:url(#SVGID_11_);}
	.st22{fill:url(#SVGID_12_);}
	.st23{fill:url(#SVGID_13_);}
	.st24{fill:url(#SVGID_14_);}
	.st25{fill:#171516;}
	.st26{fill:url(#SVGID_15_);}
	.st27{fill:url(#SVGID_16_);}
	.st28{fill:url(#SVGID_17_);}
	.st29{fill:url(#SVGID_18_);}
	.st30{fill:url(#SVGID_19_);}
	.st31{fill:url(#SVGID_20_);}
	.st32{fill:url(#SVGID_21_);}
	.st33{fill:url(#SVGID_22_);}
	.st34{fill:url(#SVGID_23_);}
	.st35{fill:url(#SVGID_24_);}
	.st36{fill:url(#SVGID_25_);}
	.st37{fill:url(#SVGID_26_);}
	.st38{fill:url(#SVGID_27_);}
	.st39{fill:url(#SVGID_28_);}
	.st40{fill:url(#SVGID_29_);}
	.st41{fill:url(#SVGID_30_);}
	.st42{fill:url(#SVGID_31_);}
	.st43{fill:url(#SVGID_32_);}
	.st44{fill:#F6DC85;}
	.st45{fill:url(#SVGID_33_);}
	.st46{fill:#EC5617;}
	.st47{fill:url(#SVGID_34_);}
	.st48{fill:url(#SVGID_35_);}
	.st49{fill:url(#SVGID_36_);}
	.st50{fill:url(#SVGID_37_);}
	.st51{fill:url(#SVGID_38_);}
	.st52{fill:#363254;}
	.st53{fill:url(#SVGID_39_);}
	.st54{fill:#322E4E;}
	.st55{fill:url(#SVGID_40_);}
	.st56{fill:#2E2B48;}
	.st57{fill:#2A2742;}
</style>
<g>
	<polygon class="st0" points="1102.5,1721.6 1089.5,1420.6 1105.5,1582.6 1147.5,1456.6 1114.5,1594.6 1129.5,1719.6 	"/>
	<polygon class="st0" points="1164.5,1719.6 1158.5,1561.6 1147.5,1477.6 1166.5,1556.6 1186.5,1546.6 1200.5,1487.6 1193.5,1543.6 
		1239.5,1523.6 1168.5,1566.6 1191.5,1716.6 	"/>
	<path class="st0" d="M1272.8,1466.1c11.6-7.1,19.2-19.1,19.2-32.6c0-15.1-9.5-28.3-23.4-34.9c7.2-8.5,11.4-18.9,11.4-30.1
		c0-29-28.2-52.5-63-52.5c-14.3,0-27.4,4-38,10.6c-8-35.8-31.2-61.6-58.5-61.6c-28.6,0-52.6,28.2-59.5,66.4c-2.3-0.3-4.6-0.4-7-0.4
		c-25.4,0-46,16.6-46,37c0,8.4,3.5,16.1,9.3,22.4c-21.6,6.7-37.3,26.8-37.3,50.6c0,28,21.7,50.9,49.3,52.9c-0.2,1.4-0.3,2.7-0.3,4.1
		c0,17.1,13.9,31,31,31c12.5,0,23.3-7.4,28.2-18.1c21.5-0.9,40.3-12.5,51.1-29.6c8.7,30,27.3,50.7,48.8,50.7
		c13.5,0,25.8-8.1,35.2-21.6c4,16.5,17.1,28.6,32.8,28.6c18.8,0,34-17.5,34-39C1290,1485.5,1283.1,1472.8,1272.8,1466.1z"/>
</g>
<g>
	<polygon class="st0" points="1596.6,1762.6 1568.4,1480.6 1546.4,1753.6 	"/>
	<polygon class="st0" points="1499.9,1754.6 1511.5,1510.6 1472.3,1746.6 	"/>
	<polygon class="st0" points="1431.8,1673.6 1419.5,1516.6 1418.6,1622.6 1390.3,1559.7 1390.3,1569.8 1413.3,1638.6 1420.4,1681.6 
		1403.7,1732.6 1452.1,1730.6 1472.4,1531.6 	"/>
	<polygon class="st0" points="1577.5,1621.6 1640.5,1538.6 1575.5,1602.6 	"/>
	<polygon class="st0" points="1561.5,1621.6 1484.5,1530.6 1532.5,1576.6 1543.5,1553.6 1539.5,1580.6 1564.5,1602.6 	"/>
	<circle class="st0" cx="1553" cy="1411" r="69"/>
	<path class="st0" d="M1686.6,1503.8c8.4-11.8,13.4-26.2,13.4-41.8c0-26.7-14.6-50.1-36.2-62.5c1.5-5.6,2.2-11.5,2.2-17.5
		c0-38.1-30.9-69-69-69c-8.8,0-17.2,1.7-25,4.7c-7.3-30.2-34.6-52.7-67-52.7c-29.5,0-54.6,18.5-64.5,44.4c-6.8-2.2-14-3.4-21.5-3.4
		c-38.1,0-69,30.9-69,69c0,8.8,1.7,17.3,4.7,25.1c-38.7,8.6-67.7,43.1-67.7,84.4c0,47.8,38.7,86.5,86.5,86.5
		c19.6,0,37.7-6.5,52.2-17.5c9.8,14.2,26.2,23.5,44.8,23.5c19,0,35.6-9.7,45.4-24.4c7.1,3.4,15.1,5.4,23.6,5.4
		c23.1,0,42.8-14.4,50.8-34.7c3,1.9,6.2,3.5,9.5,4.9c-1.8,5.4-2.8,11.2-2.8,17.2c0,30.1,24.4,54.5,54.5,54.5s54.5-24.4,54.5-54.5
		C1706,1528.8,1698.5,1513.8,1686.6,1503.8z"/>
</g>
<linearGradient id="SVGID_1_" gradientUnits="userSpaceOnUse" x1="1603.5" y1="2016" x2="1603.5" y2="1685.184">
	<stop  offset="0.2961" style="stop-color:#2A2742"/>
	<stop  offset="0.481" style="stop-color:#2E2A48"/>
	<stop  offset="0.5922" style="stop-color:#322E4E"/>
	<stop  offset="0.8128" style="stop-color:#363254"/>
	<stop  offset="1" style="stop-color:#413B65"/>
</linearGradient>
<path class="st1" d="M928,1785c148.1-85.2,400.6-169.1,699-10c64.1,34.2,275.2,75.9,400,130c60,26,212,88,327,61
	c156.5-36.7,179-17,311,20c88.5,24.8,325,30,325,30H217c0,0,208-33.5,329-105C666.1,1840.1,835.8,1838,928,1785z"/>
<g>
	<g>
		<path class="st2" d="M1375.8,1561.1c0.3-0.1,0.6-0.2,0.9-0.2c-1.3-0.6-2.3-1.7-2.8-3.2c-0.9-2.8,0.7-5.8,3.5-6.6
			c2.8-0.9,5.8,0.7,6.6,3.5c0.1,0.4,0.2,0.7,0.2,1.1c0.6-0.8,1.5-1.4,2.5-1.7c2.8-0.9,5.8,0.7,6.6,3.5c0.1,0.3,0.2,0.6,0.2,1
			c0.6-2.1,2.3-3.8,4.5-4.5c3.6-1.1,7.4,0.9,8.5,4.5c0.7,2.4,0.1,4.9-1.5,6.6c1.3,0.8,2.4,2.1,2.9,3.8c1.1,3.6-0.9,7.4-4.5,8.5
			c-1.1,0.3-2.3,0.4-3.3,0.2c-0.5,2.3-2.2,4.2-4.6,4.9c-3.6,1.1-7.4-0.9-8.5-4.5c0-0.1,0-0.2-0.1-0.3c-0.1,0-0.2,0.1-0.2,0.1
			c-2.8,0.9-5.8-0.7-6.6-3.5c-0.4-1.3-0.3-2.6,0.3-3.8c-0.4,0.3-0.9,0.5-1.5,0.7c-2.8,0.9-5.8-0.7-6.6-3.5
			C1371.4,1565,1373,1562,1375.8,1561.1z"/>
		<path class="st3" d="M1376.7,1560.9c-1.3-0.6-2.3-1.7-2.8-3.2c-0.9-2.8,0.7-5.8,3.5-6.6c2.8-0.9,5.8,0.7,6.6,3.5
			c0.1,0.4,0.2,0.7,0.2,1.1c0.6-0.8,1.5-1.4,2.5-1.7c2.8-0.9,5.8,0.7,6.6,3.5c0.1,0.3,0.2,0.6,0.2,1c0.6-2.1,2.3-3.8,4.5-4.5
			c3.6-1.1,7.4,0.9,8.5,4.5c0.1,0.3,0.2,0.7,0.2,1c-0.9,2.7-3.6,5-6.2,4.5c1.2,2.3-0.1,4.8-3.6,5.3c-1.2,4.6-7.1,2.7-7.2,0.6
			c-1.8,1.1-3.4,1-5.6,0.7s-5.3-5.2-4.5-7.6c-1.2,0.2-2.6-0.7-3.9-1.9C1376.2,1561,1376.4,1561,1376.7,1560.9z"/>
		<path class="st4" d="M1384.1,1554.6c0.1,0.4,0.2,0.7,0.2,1.1c0.6-0.8,1.5-1.4,2.5-1.7c2.8-0.9,5.8,0.7,6.6,3.5
			c0.1,0.3,0.2,0.6,0.2,1c0.6-2.1,2.3-3.8,4.5-4.5c1.7-0.5,3.4-0.3,4.9,0.4c0.3,1,0.4,2.2-0.2,3.2c-1,1.9-4.7,5.2-8.2,2.5
			c-1.6,1.6-8.2,2.5-8.7-2.6c-1.4,0.4-7.3-1.2-6.1-6.5C1381.8,1551.3,1383.5,1552.7,1384.1,1554.6z"/>
	</g>
	<path class="st5" d="M1416.2,1703.4c-33-13.6-20.3-10.1-40.9-22.8c-15.6-9.6-10.4-30.6-13.3-36.1c-2.8-5.6-5-18.2-5-23.8
		c0-5.6-4.4-21.2-1.3-23.8c3.1-2.6,10-5.3,10-9c0-3.7,1.3-12.9,4.6-15.9s14.9-8.9,11.1-12.6c-3.7-3.7-2.9-8.3-6-10.4s-9-10-2.5-14.7
		c6.5-4.7,13.7-5.3,16.3-2.2c2.6,3.1,5.4,5,5,2c-0.4-3,1.3-3.5,4.6-3.8c1.7-0.1,3.5-1.1,4.9-2.3l-5-2.5c-0.6,0.3-1.4,0.6-2.5,0.7
		c-4.5,0.6-7.8,0.8-12.3,0.5c-4.5-0.3-9.3-2.7-11.9-1.2c-1.2,0.7-3.4,2.1-5.6,3.9c-0.4,0.5-0.9,0.9-1.4,1.3
		c-0.4,0.3-0.8,0.6-1.2,0.9c0.1,0,0.2,0,0.2-0.1c-1.6,1.5-2.8,3.2-3.2,4.7c-1.1,4.1,12.3,17.9,10.7,20.3c-1.7,2.4-1.7,5.8-8,12
		c-6.3,6.2-5.2,9.2-7.9,13.9c-2.8,4.7-9.9,7.2-10.6,12.4s-0.9,16.1-5.7,15.6c-11.4,3.8-33.5,0.3-34.4-3.4c-1-3.7-17-3.4-11.1-18.7
		c1.8-9.4,12.4-18.9,16.3-29.1c0.8-2.1,0.3-5.7-4-8.6c-4.9-3.3-11.3,0.5-10.8-6.2c0.5-6.7,1.6-5.2-1.9-11.1
		c-3.6-5.9-9.9-6.2-7.3-1.2c2.6,5,4.3,6.3,4.7,12.1c0.4,5.8,2.5,4.4,6.6,6.5s10.8,3.4,9.2,7.7c-1.6,4.3-9.5,3.2-10.3,10.7
		c-0.9,7.5-12.7,19.3-11.5,25.4c1.2,6.1,7.7,10.7,5.7,14.8c-2,4.1-6.8,9.2,0.4,9.5s19.9,4.7,26.3,5c6.3,0.3,14.5-5,17.9,0.4
		c3.4,5.4,3.2,9.5,6.6,16.7s7.7,7.9,8.1,15.6c0.4,7.6-3.8,12.5-0.6,22.9c3.2,10.4,7,10.1,1.8,18.7c-4.3,7.1-7.6,10.3-5.9,15.3
		c-0.6-6.3,10.2-15.6,14-10.9c6,7.4,12.5,1.5,8.4,16.8c10-25.3,30.9-12.6,26.6-14.8C1372.7,1694.1,1416.2,1703.4,1416.2,1703.4z"/>
	<g>
		<path class="st3" d="M1244.1,1485.4c0-3.3,1-6.3,2.7-8.8c-0.4-1.6-0.6-3.2-0.6-4.9c0-10.7,8.6-19.3,19.3-19.3
			c6.3,0,12,3.1,15.5,7.8l0.2-0.1c-0.4-1.1-0.6-2.3-0.6-3.5c0-6.2,5-11.2,11.2-11.2c3.2,0,6,1.3,8.1,3.4c-0.2-1-0.4-2-0.4-3.1
			c0-7.6,6.1-13.7,13.7-13.7c4.9,0,9.2,2.6,11.6,6.5c3.4,0.7,6.1,3.4,6.8,6.8c1.2-0.4,2.4-0.6,3.7-0.6c3.9,0,7.3,2,9.3,5l2.3,0.6
			c1.4-6,6.8-10.5,13.3-10.5c3.1,0,6,1.1,8.3,2.8c2.5-5,7.8-8.5,13.8-8.5c6.9,0,12.8,4.5,14.7,10.8c1.6-1.9,4-3.1,6.7-3.1
			c4.4,0,8,3.2,8.7,7.5c1.5-1.2,3.3-1.8,5.4-1.8c4.8,0,8.8,3.9,8.8,8.8c0,0.7-0.1,1.4-0.3,2.1c1.2-0.7,2.6-1,4.1-1
			c3.2,0,5.9,1.7,7.5,4.2c1-0.2,2-0.3,3.1-0.3c8.5,0,15.4,6.9,15.4,15.4s-6.9,15.4-15.4,15.4c-3.6,0-6.9-1.2-9.5-3.3
			c0,0.2,0,0.3,0,0.5c0,7.6-6.1,13.7-13.7,13.7c-1.5,0-2.9-0.2-4.2-0.7l-10.9,10.5l-68.1,10.4c-0.6,7.9-7.3,14.2-15.4,14.2
			c-5.5,0-10.3-2.9-13-7.2c-3.5,5.2-9.4,8.6-16.1,8.6c-10.7,0-19.3-8.6-19.3-19.3c0-0.1,0-0.3,0-0.4c-9.8-0.9-17.5-9.1-17.5-19.2
			c0-0.1,0-0.2,0-0.3C1247.9,1497,1244.1,1491.6,1244.1,1485.4z"/>
		<path class="st4" d="M1265.5,1452.4c6.3,0,12,3.1,15.5,7.8l0.2-0.1c-0.4-1.1-0.6-2.3-0.6-3.5c0-6.2,5-11.2,11.2-11.2
			c3.2,0,6,1.3,8.1,3.4c-0.2-1-0.4-2-0.4-3.1c0-7.6,6.1-13.7,13.7-13.7c4.9,0,9.2,2.6,11.6,6.5c3.4,0.7,6.1,3.4,6.8,6.8
			c1.2-0.4,2.4-0.6,3.7-0.6c3.9,0,7.3,2,9.3,5l2.3,0.6c1.4-6,6.8-10.5,13.3-10.5c3.1,0,6,1.1,8.3,2.8c2.5-5,7.8-8.5,13.8-8.5
			c6.9,0,12.8,4.5,14.7,10.8c1.6-1.9,4-3.1,6.7-3.1c4.4,0,8,3.2,8.7,7.5c1.5-1.2,3.3-1.8,5.4-1.8c4.8,0,8.8,3.9,8.8,8.8
			c0,0.7-0.1,1.4-0.3,2.1c1.2-0.7,2.6-1,4.1-1c2.6,0,4.9,1.2,6.5,3c-0.5,2-1.9,3.7-5.5,3.4c-7-0.7-8.4-2.8-7-7
			c-1.4,2.8-2.8,2.8-5.6,0.7c0,6.3-3.5,9.1-9.1,9.8s-10.5-1.4-11.9-4.2c-3.5,2.8-13.3-2.8-11.9-7c-3.5,5.6-8.4,2.8-9.8-0.7
			c0.7,6.3-5.6,12.6-11.2,13.3c-5.6,0.7-16.1-2.8-14.7-11.2c-5.6,3.5-8.4,0.7-9.1-2.1c-4.2,2.1-14.7,2.8-14-7
			c-3.5,2.8-9.1,0.7-9.8-4.2c-4.9,4.9-4.2,8.4-11.9,7c-2.1,6.3-8.4,11.9-15.4,5.6c3.5,10.5-2.8,23.1-12.6,16.1
			c-6.3,7.7-16.8,1.4-16.1-4.9c-2.8,2.3-9.3,5.9-14.7,2.4C1247,1460.3,1255.4,1452.4,1265.5,1452.4z"/>
		<path class="st2" d="M1244.1,1485.4c0-1.5,0.2-3,0.6-4.4c4.3,0.3,8.4,5.2,7.8,10c8.4-2.8,13.3,2.8,14,7.7c2.8-2.8,5.6,0,8.4,2.8
			c7-4.2,10.5,2.1,9.8,7c3.5-0.7,5.6-0.7,7.7,7c2.8-2.8,5.6-4.2,10.5,0c-5.6-13.3,2.1-24.5,8.4-28.1c6.3-3.5,19.6,0,21.7,7
			c5.6-11.2,18.2-4.9,20.3,0c0-3.5,6.3-7.7,9.1-1.4c0-5.6,6.3-9.1,11.2-9.8c4.9-0.7,12.6,2.8,13.3,9.1c1.4-0.7,3.5-3.5,4.9,2.1
			c3.5-3.5,13.3-2.1,18.9,0c0-7,7.7-9.8,13.3-9.1c-1.4-14.7,14-12.6,17.5-9.1c-0.8-6.9,2.9-10.6,7.1-12.7c4.4,2.7,7.3,7.6,7.3,13.1
			c0,8.5-6.9,15.4-15.4,15.4c-3.6,0-6.9-1.2-9.5-3.3c0,0.2,0,0.3,0,0.5c0,7.6-6.1,13.7-13.7,13.7c-1.5,0-2.9-0.2-4.2-0.7l-10.9,10.5
			l-68.1,10.4c-0.6,7.9-7.3,14.2-15.4,14.2c-5.5,0-10.3-2.9-13-7.2c-3.5,5.2-9.4,8.6-16.1,8.6c-10.7,0-19.3-8.6-19.3-19.3
			c0-0.1,0-0.3,0-0.4c-9.8-0.9-17.5-9.1-17.5-19.2c0-0.1,0-0.2,0-0.3C1247.9,1497,1244.1,1491.6,1244.1,1485.4z"/>
	</g>
	<g>
		<path class="st6" d="M1450.8,1491.5c-0.3,0.1-0.6,0.2-0.9,0.2c-1.3-4.1-5.6-6.7-9.9-5.7c-2.8,0.6-5,2.6-6.1,5.1
			c-1.2-1.3-3.1-1.9-4.9-1.5c-2.4,0.5-4.1,2.6-4.2,5c-0.9-0.5-1.9-0.6-3-0.4c-1.7,0.4-3,1.7-3.4,3.3c-3-2-6.7-2.9-10.6-2.1
			c-3.1,0.7-5.7,2.3-7.5,4.6c-1.9-2.7-5.3-4.2-8.8-3.4c-1.3,0.3-2.5,0.9-3.6,1.7c0,0,0,0,0,0c-0.5-2.4-2.9-3.9-5.3-3.4
			c-1.5,0.3-2.7,1.4-3.2,2.7c-2.5-2.1-5.9-3.1-9.4-2.4c-3.9,0.8-6.8,3.7-8,7.2c-1.9-0.7-4.1-0.9-6.2-0.5c-5.9,1.3-9.6,7.1-8.3,13
			c0.5,2.4,1.8,4.5,3.6,6c-3.3,2.5-5,6.7-4.1,11c0.9,4.3,4.4,7.5,8.5,8.4c0,0,0,0,0,0.1c1.3,5.8,7,9.6,12.8,8.4
			c-0.5,1.9-0.5,4-0.1,6.1c1.6,7.3,8.8,12,16.1,10.4c5.6-1.2,9.6-5.7,10.5-11c1.2,0.3,2.5,0.3,3.7,0c3.7-0.8,6.4-4,6.7-7.6
			c1.8,1.2,4.1,1.6,6.4,1.1c3.4-0.7,5.9-3.4,6.5-6.6c2.3,0.9,4.9,1.1,7.5,0.5c4.4-0.9,7.8-3.9,9.5-7.7c0.6,0,1.2-0.1,1.8-0.2
			c3.9-0.9,6.6-4.3,6.7-8.1c3.6-1.1,6.1-4.4,6.1-8.1c0.5,0,0.9,0,1.4-0.1c2.3-0.5,3.9-2.4,4.1-4.5c0,0,0,0,0,0
			c5.9-1.3,9.6-7.1,8.3-13C1462.5,1494,1456.6,1490.2,1450.8,1491.5z"/>
		<path class="st7" d="M1450.8,1491.5c-0.3,0.1-0.6,0.2-0.9,0.2c-1.3-4.1-5.6-6.7-9.9-5.7c-2.8,0.6-5,2.6-6.1,5.1
			c-1.2-1.3-3.1-1.9-4.9-1.5c-2.4,0.5-4.1,2.6-4.2,5c-0.9-0.5-1.9-0.6-3-0.4c-1.7,0.4-3,1.7-3.4,3.3c-3-2-6.7-2.9-10.6-2.1
			c-3.1,0.7-5.7,2.3-7.5,4.6c-1.9-2.7-5.3-4.2-8.8-3.4c-1.3,0.3-2.5,0.9-3.6,1.7c0,0,0,0,0,0c-0.5-2.4-2.9-3.9-5.3-3.4
			c-1.5,0.3-2.7,1.4-3.2,2.7c-2.5-2.1-5.9-3.1-9.4-2.4c-3.9,0.8-6.8,3.7-8,7.2c-1.9-0.7-4.1-0.9-6.2-0.5c-5.9,1.3-9.6,7.1-8.3,13
			c0.5,2.4,1.8,4.5,3.6,6c-3.3,2.5-5,6.7-4.1,11c0.9,4.3,4.4,7.5,8.5,8.4c0,0,0,0,0,0.1c0.1,0.4,0.2,0.7,0.3,1.1
			c1.6-0.1,3-0.6,3.8-1.7c0.6,2.9,4.2,8.1,10,4.5c1.2,2.8,7.5,6.8,14.9,2.2c7.4-4.6,6.9-6.9,7.3-8.2c2.8,1.8,9.1-2.6,6.2-7.4
			c4.2-0.3,5.9-0.7,5-4.7c3.2,6.5,10.3,8.6,14.7,6.5c4.4-2.2,9.5-6.3,7-12.4c4-0.9,6-3.1,4.8-5.9c2.6,0.7,3.4,1.7,4.9-2.3
			c1.2,8.2,15.3,3.9,11.3-3.7c4.5,1.4,10.4-4.7,7.1-8.8c3.1,0.3,6.7-1.1,7.2-5.8C1457.5,1491.7,1454.1,1490.8,1450.8,1491.5z"/>
		<path class="st4" d="M1396.7,1497c-1.6-0.7-3.3-0.9-5.1-0.5c-1.3,0.3-2.5,0.9-3.6,1.7c0,0,0,0,0,0c-0.5-2.4-2.9-3.9-5.3-3.4
			c-1.5,0.3-2.7,1.4-3.2,2.7c-2.5-2.1-5.9-3.1-9.4-2.4c-3.9,0.8-6.8,3.7-8,7.2c-1.9-0.7-4.1-0.9-6.2-0.5c-5.9,1.3-9.6,7.1-8.3,13
			c0.5,2.4,1.8,4.5,3.6,6c-1.8,1.3-3.1,3.1-3.8,5.2c1.8,0.4,4,0.2,6-1.3c3.6,2.8,12.2,3.4,11.8-3.8c3.8-2,3.5-3.2,3-5.5
			c2.3-0.5,6.3-4.4,3.9-6.9c2.4-2.9,4.7-3.4,3.4-6.8c2.5,3.1,6.2,3.5,8.6,0.6C1385.4,1506,1397.8,1507.8,1396.7,1497z"/>
		<path class="st4" d="M1450.8,1491.5c-0.3,0.1-0.6,0.2-0.9,0.2c-1.3-4.1-5.6-6.7-9.9-5.7c-2.8,0.6-5,2.6-6.1,5.1
			c-1.2-1.3-3.1-1.9-4.9-1.5c-2.4,0.5-4.1,2.6-4.2,5c-0.9-0.5-1.9-0.6-3-0.4c-1.7,0.4-3,1.7-3.4,3.3c-3-2-6.7-2.9-10.6-2.1
			c-2.4,0.5-4.6,1.7-6.3,3.3c0.1,3,0.6,6,3.3,6.7c0.2,6.6,3.1,11.4,7.7,10.4s8.7-4.3,8-7.8c4.3,0.3,6.1-6.5,4.5-8.5
			c0.3-1.3,4.9,0.2,4-3.9c3.1,0.5,4.4,0.9,4.9-2.3c1.7,2.1,5.2,4.3,7.3,0.2c1.1,2.2,5.6,3.6,8,0.7c0.7,3.2,7.6,6.5,8.6-1.9
			C1455.7,1491.3,1453.2,1491,1450.8,1491.5z"/>
	</g>
	<g>
		<path class="st2" d="M1249,1520c0.6-0.2,1.1-0.3,1.7-0.4c-2.4-1.2-4.3-3.3-5.2-6c-1.6-5.2,1.3-10.8,6.6-12.4s10.8,1.3,12.4,6.6
			c0.2,0.7,0.3,1.4,0.4,2.1c1.2-1.4,2.8-2.6,4.7-3.2c5.2-1.6,10.8,1.3,12.4,6.6c0.2,0.6,0.3,1.2,0.4,1.8c1.2-3.9,4.2-7.2,8.5-8.5
			c6.7-2.1,13.9,1.7,16,8.4c1.4,4.5,0.1,9.2-2.9,12.5c2.5,1.6,4.5,4,5.4,7c2.1,6.7-1.7,13.9-8.4,16c-2.1,0.6-4.2,0.7-6.2,0.3
			c-1,4.2-4.2,7.8-8.6,9.2c-6.7,2.1-13.9-1.7-16-8.4c0-0.2-0.1-0.3-0.1-0.5c-0.2,0.1-0.3,0.1-0.5,0.2c-5.2,1.6-10.8-1.3-12.4-6.6
			c-0.8-2.4-0.5-4.9,0.5-7.1c-0.8,0.6-1.7,1-2.7,1.3c-5.2,1.6-10.8-1.3-12.4-6.6C1240.8,1527.2,1243.8,1521.7,1249,1520z"/>
		<path class="st3" d="M1250.7,1519.7c-2.4-1.2-4.3-3.3-5.2-6c-1.6-5.2,1.3-10.8,6.6-12.4s10.8,1.3,12.4,6.6
			c0.2,0.7,0.3,1.4,0.4,2.1c1.2-1.4,2.8-2.6,4.7-3.2c5.2-1.6,10.8,1.3,12.4,6.6c0.2,0.6,0.3,1.2,0.4,1.8c1.2-3.9,4.2-7.2,8.5-8.5
			c6.7-2.1,13.9,1.7,16,8.4c0.2,0.7,0.3,1.3,0.4,2c-1.7,5.2-6.8,9.5-11.6,8.4c2.3,4.2-0.2,9-6.8,10c-2.3,8.6-13.3,5.1-13.5,1.2
			c-3.3,2-6.3,2-10.5,1.3c-4.2-0.7-10-9.8-8.4-14.3c-2.2,0.3-4.9-1.4-7.4-3.7C1249.7,1519.8,1250.2,1519.7,1250.7,1519.7z"/>
		<path class="st4" d="M1264.6,1507.8c0.2,0.7,0.3,1.4,0.4,2.1c1.2-1.4,2.8-2.6,4.7-3.2c5.2-1.6,10.8,1.3,12.4,6.6
			c0.2,0.6,0.3,1.2,0.4,1.8c1.2-3.9,4.2-7.2,8.5-8.5c3.2-1,6.5-0.6,9.3,0.7c0.5,2,0.7,4.1-0.3,5.9c-1.9,3.6-8.9,9.7-15.4,4.8
			c-3.1,2.9-15.4,4.8-16.4-4.9c-2.6,0.8-13.7-2.2-11.4-12.2C1260.3,1501.6,1263.4,1504.1,1264.6,1507.8z"/>
	</g>
	<g>
		<path class="st2" d="M1399.3,1531.8c0.6-0.2,1.1-0.3,1.7-0.4c-2.4-1.2-4.3-3.3-5.2-6c-1.6-5.2,1.3-10.8,6.6-12.4
			c5.2-1.6,10.8,1.3,12.4,6.6c0.2,0.7,0.3,1.4,0.4,2.1c1.2-1.4,2.8-2.6,4.7-3.2c5.2-1.6,10.8,1.3,12.4,6.6c0.2,0.6,0.3,1.2,0.4,1.8
			c1.2-3.9,4.2-7.2,8.5-8.5c6.7-2.1,13.9,1.7,16,8.4c1.4,4.5,0.1,9.2-2.9,12.5c2.5,1.6,4.5,4,5.4,7c2.1,6.7-1.7,13.9-8.4,16
			c-2.1,0.6-4.2,0.7-6.2,0.3c-1,4.2-4.2,7.8-8.6,9.2c-6.7,2.1-13.9-1.7-16-8.4c0-0.2-0.1-0.3-0.1-0.5c-0.2,0.1-0.3,0.1-0.5,0.2
			c-5.2,1.6-10.8-1.3-12.4-6.6c-0.8-2.4-0.5-4.9,0.5-7.1c-0.8,0.6-1.7,1-2.7,1.3c-5.2,1.6-10.8-1.3-12.4-6.6
			C1391.1,1539,1394,1533.4,1399.3,1531.8z"/>
		<path class="st3" d="M1401,1531.5c-2.4-1.2-4.3-3.3-5.2-6c-1.6-5.2,1.3-10.8,6.6-12.4c5.2-1.6,10.8,1.3,12.4,6.6
			c0.2,0.7,0.3,1.4,0.4,2.1c1.2-1.4,2.8-2.6,4.7-3.2c5.2-1.6,10.8,1.3,12.4,6.6c0.2,0.6,0.3,1.2,0.4,1.8c1.2-3.9,4.2-7.2,8.5-8.5
			c6.7-2.1,13.9,1.7,16,8.4c0.2,0.7,0.3,1.3,0.4,2c-1.7,5.2-6.8,9.5-11.6,8.4c2.3,4.2-0.2,9-6.8,10c-2.3,8.6-13.3,5.1-13.5,1.2
			c-3.3,2-6.3,2-10.5,1.3c-4.2-0.7-10-9.8-8.4-14.3c-2.2,0.3-4.9-1.4-7.4-3.7C1400,1531.6,1400.5,1531.5,1401,1531.5z"/>
		<path class="st4" d="M1414.8,1519.6c0.2,0.7,0.3,1.4,0.4,2.1c1.2-1.4,2.8-2.6,4.7-3.2c5.2-1.6,10.8,1.3,12.4,6.6
			c0.2,0.6,0.3,1.2,0.4,1.8c1.2-3.9,4.2-7.2,8.5-8.5c3.2-1,6.5-0.6,9.3,0.7c0.5,2,0.7,4.1-0.3,5.9c-1.9,3.6-8.9,9.7-15.4,4.8
			c-3.1,2.9-15.4,4.8-16.4-4.9c-2.6,0.8-13.7-2.2-11.4-12.2C1410.6,1513.3,1413.7,1515.9,1414.8,1519.6z"/>
	</g>
	<path class="st8" d="M1290.3,1609.3c-2,4.1-6.8,9.2,0.4,9.5c7.3,0.3,19.9,4.7,26.3,5c6.3,0.3,14.5-5,17.9,0.4
		c3.4,5.4,3.2,9.5,6.6,16.7s7.7,7.9,8.1,15.6c0.4,7.6-3.8,12.5-0.6,22.9s7,10.1,1.8,18.7c-4.3,7.1-7.6,9.7-5.9,14.7
		c0,0,0-5.9,5.3-8.8c3.3-1.8,10.4-7.7,8.7-11s-0.7-5.4,1-3.7s6.2,0.1,0.8-7.6c-5.4-7.7-8.4-5-7.2-11c1.9-9.1-0.2-7.8,2.2-14.8
		c2-5.7,0.2-12.4-6.8-15.1c-6.5-2.4-10.2-16.7-5.8-15.4s-2.8-11.4-12.9-9.6c-10.1,1.8,0,5-11.7,5.1c-11.8,0.1-12.3-6.5-17.7-5.7
		s-9.9,2.3-11.3-0.1C1288.2,1612.7,1290.3,1609.3,1290.3,1609.3z"/>
	<g>
		<circle class="st9" cx="1335.9" cy="1479.6" r="7.3"/>
		<g>
			<path class="st10" d="M1340.6,1475.6c0.6,0.4,1.2,1,1.5,1.7c0.3,0.7,0.5,1.5,0.5,2.2c0.1,1.5-0.4,3.1-1.4,4.4
				c-1,1.3-2.5,2.3-4.2,2.4c-1.6,0.2-3.1-0.4-4.2-1.2c1.4-0.3,2.7-0.6,3.7-1c1-0.5,1.7-1.1,2.3-1.9c0.6-0.8,1.1-1.8,1.4-2.9
				C1340.5,1478.1,1340.8,1477,1340.6,1475.6z"/>
		</g>
	</g>
	<g>
		<circle class="st9" cx="1306.5" cy="1520.3" r="7.3"/>
		<g>
			<path class="st10" d="M1311.1,1516.2c0.6,0.4,1.2,1,1.5,1.7c0.3,0.7,0.5,1.5,0.5,2.2c0.1,1.5-0.4,3.1-1.4,4.4
				c-1,1.3-2.5,2.3-4.2,2.4c-1.6,0.2-3.1-0.4-4.2-1.2c1.4-0.3,2.7-0.6,3.7-1c1-0.5,1.7-1.1,2.3-1.9c0.6-0.8,1.1-1.8,1.4-2.9
				C1311,1518.8,1311.3,1517.7,1311.1,1516.2z"/>
		</g>
	</g>
	<g>
		<circle class="st9" cx="1356.4" cy="1517.8" r="5.9"/>
		<g>
			<path class="st10" d="M1360.4,1514.8c0.6,0.2,1,0.7,1.3,1.3c0.3,0.6,0.4,1.2,0.5,1.8c0.1,1.2-0.2,2.5-1,3.6
				c-0.8,1.1-2.1,1.9-3.4,2c-1.3,0.1-2.5-0.4-3.4-1.2c1.2-0.4,2.1-0.7,2.8-1.1c0.7-0.4,1.2-0.9,1.6-1.5c0.4-0.6,0.8-1.3,1.1-2.1
				C1360.2,1516.8,1360.5,1516,1360.4,1514.8z"/>
		</g>
	</g>
	<g>
		<circle class="st9" cx="1399.1" cy="1534.8" r="5.9"/>
		<g>
			<path class="st10" d="M1403.2,1531.8c0.6,0.2,1,0.7,1.3,1.3c0.3,0.6,0.4,1.2,0.5,1.8c0.1,1.2-0.2,2.5-1,3.6
				c-0.8,1.1-2.1,1.9-3.4,2c-1.3,0.1-2.5-0.4-3.4-1.2c1.2-0.4,2.1-0.7,2.8-1.1c0.7-0.4,1.2-0.9,1.6-1.5c0.4-0.6,0.8-1.3,1.1-2.1
				C1402.9,1533.8,1403.2,1533,1403.2,1531.8z"/>
		</g>
	</g>
	<g>
		<circle class="st9" cx="1382.6" cy="1466.5" r="5.9"/>
		<g>
			<path class="st10" d="M1386.7,1463.4c0.6,0.2,1,0.7,1.3,1.3c0.3,0.6,0.4,1.2,0.5,1.8c0.1,1.2-0.2,2.5-1,3.6
				c-0.8,1.1-2.1,1.9-3.4,2c-1.3,0.1-2.5-0.4-3.4-1.2c1.2-0.4,2.1-0.7,2.8-1.1c0.7-0.4,1.2-0.9,1.6-1.5c0.4-0.6,0.8-1.3,1.1-2.1
				C1386.4,1465.5,1386.7,1464.6,1386.7,1463.4z"/>
		</g>
	</g>
	<g>
		<circle class="st9" cx="1410" cy="1448" r="4.4"/>
		<g>
			<path class="st10" d="M1413,1445.7c0.5,0.1,0.9,0.5,1.1,0.9c0.3,0.4,0.4,0.9,0.5,1.4c0.1,1-0.1,2-0.8,2.9
				c-0.6,0.9-1.7,1.5-2.8,1.5c-1.1,0-2-0.4-2.6-1.2c0.9-0.4,1.5-0.7,2-1.1c0.4-0.3,0.7-0.7,1-1c0.3-0.4,0.6-0.8,0.8-1.4
				C1412.6,1447.2,1412.9,1446.7,1413,1445.7z"/>
		</g>
	</g>
	<g>
		<circle class="st9" cx="1340.5" cy="1508.1" r="4.4"/>
		<g>
			<path class="st10" d="M1343.5,1505.8c0.5,0.1,0.9,0.5,1.1,0.9c0.3,0.4,0.4,0.9,0.5,1.4c0.1,1-0.1,2-0.8,2.9
				c-0.6,0.9-1.7,1.5-2.8,1.5c-1.1,0-2-0.4-2.6-1.2c0.9-0.4,1.5-0.7,2-1.1c0.4-0.3,0.7-0.7,1-1c0.3-0.4,0.6-0.8,0.8-1.4
				C1343,1507.3,1343.4,1506.8,1343.5,1505.8z"/>
		</g>
	</g>
	<g>
		<circle class="st9" cx="1432.4" cy="1518.7" r="4.4"/>
		<g>
			<path class="st10" d="M1435.4,1516.4c0.5,0.1,0.9,0.5,1.1,0.9c0.3,0.4,0.4,0.9,0.5,1.4c0.1,1-0.1,2-0.8,2.9
				c-0.6,0.9-1.7,1.5-2.8,1.5c-1.1,0-2-0.4-2.6-1.2c0.9-0.4,1.5-0.7,2-1.1c0.4-0.3,0.7-0.7,1-1c0.3-0.4,0.6-0.8,0.8-1.4
				C1435,1518,1435.3,1517.4,1435.4,1516.4z"/>
		</g>
	</g>
	<g>
		<circle class="st9" cx="1291.9" cy="1472.9" r="5.9"/>
		<g>
			<path class="st10" d="M1295.9,1469.9c0.6,0.2,1,0.7,1.3,1.3c0.3,0.6,0.4,1.2,0.5,1.8c0.1,1.2-0.2,2.5-1,3.6
				c-0.8,1.1-2.1,1.9-3.4,2c-1.3,0.1-2.5-0.4-3.4-1.2c1.2-0.4,2.1-0.7,2.8-1.1c0.7-0.4,1.2-0.9,1.6-1.5c0.4-0.6,0.8-1.3,1.1-2.1
				C1295.7,1471.9,1296,1471.1,1295.9,1469.9z"/>
		</g>
	</g>
	<g>
		<circle class="st9" cx="1339" cy="1445.8" r="5.9"/>
		<g>
			<path class="st10" d="M1343.1,1442.8c0.6,0.2,1,0.7,1.3,1.3c0.3,0.6,0.4,1.2,0.5,1.8c0.1,1.2-0.2,2.5-1,3.6
				c-0.8,1.1-2.1,1.9-3.4,2c-1.3,0.1-2.5-0.4-3.4-1.2c1.2-0.4,2.1-0.7,2.8-1.1c0.7-0.4,1.2-0.9,1.6-1.5c0.4-0.6,0.8-1.3,1.1-2.1
				C1342.8,1444.8,1343.1,1444,1343.1,1442.8z"/>
		</g>
	</g>
	<g>
		<circle class="st9" cx="1433.2" cy="1479.6" r="7.4"/>
		<g>
			<path class="st10" d="M1437.9,1475.1c0.6,0.4,1.1,1,1.4,1.7c0.3,0.7,0.5,1.5,0.5,2.2c0.1,1.5-0.3,3.1-1.2,4.5
				c-0.9,1.4-2.4,2.4-4,2.6c-1.6,0.2-3.1-0.3-4.3-1.2c1.4-0.3,2.6-0.6,3.6-1.1c0.9-0.5,1.6-1.2,2.2-2c0.6-0.9,1-1.9,1.4-3
				C1437.8,1477.7,1438.1,1476.5,1437.9,1475.1z"/>
		</g>
	</g>
	<g>
		<circle class="st9" cx="1453.2" cy="1556.1" r="5.9"/>
		<g>
			<path class="st10" d="M1457.1,1553.1c0.6,0.2,1.1,0.8,1.3,1.3c0.3,0.6,0.4,1.2,0.5,1.9c0,1.3-0.4,2.7-1.3,3.7
				c-0.9,1.1-2.3,1.7-3.6,1.8c-1.3,0.1-2.5-0.4-3.4-1.2c1.2-0.4,2.2-0.6,2.9-1.1c0.8-0.4,1.3-0.9,1.8-1.4c0.5-0.6,0.9-1.3,1.3-2.1
				C1456.9,1555.2,1457.3,1554.3,1457.1,1553.1z"/>
		</g>
	</g>
	<g>
		<g>
			<circle class="st9" cx="1279.8" cy="1547.6" r="4.4"/>
			<g>
				<path class="st10" d="M1282.8,1545.3c0.5,0.1,0.9,0.5,1.1,0.9c0.3,0.4,0.4,0.9,0.5,1.4c0.1,1-0.1,2-0.8,2.9
					c-0.6,0.9-1.7,1.5-2.8,1.5c-1.1,0-2-0.4-2.6-1.2c0.9-0.4,1.5-0.7,2-1.1c0.4-0.3,0.7-0.7,1-1c0.3-0.4,0.6-0.8,0.8-1.4
					C1282.3,1546.8,1282.7,1546.3,1282.8,1545.3z"/>
			</g>
		</g>
		<g>
			<path class="st11" d="M1319.2,1605.7c0.7,1.1,0.7,2.3,0.9,3.2c0.1,0.5,0.2,0.9,0.3,1.1c0.1,0.3,0.2,0.4,0.3,0.5
				c0,0.1,0.4,0.3,0.6,0.3c0.2,0.1,0.5,0.1,1,0c0.2-0.1,0.6-0.1,0.9-0.1c0.4,0,0.8,0,1.2,0.3c0.7,0.4,0.9,1,1,1.6
				c-0.5-0.2-1.1-0.4-1.4-0.4c-0.2,0-0.2,0.1-0.4,0.2c-0.1,0.1-0.3,0.2-0.5,0.4c-0.4,0.3-1.2,0.7-2,0.7c-0.4,0-0.8,0-1.1-0.1
				c-0.4-0.1-0.8-0.2-1.2-0.5c-0.8-0.5-1.2-1.4-1.4-2.1c-0.2-0.7-0.1-1.4,0-2C1317.9,1607.6,1318.5,1606.7,1319.2,1605.7z"/>
		</g>
		
			<linearGradient id="SVGID_2_" gradientUnits="userSpaceOnUse" x1="831.4045" y1="1602.4835" x2="863.9304" y2="1602.4835" gradientTransform="matrix(-1 0 0 1 2161.9902 0)">
			<stop  offset="0.1243" style="stop-color:#E56210"/>
			<stop  offset="1" style="stop-color:#651516"/>
		</linearGradient>
		<path class="st12" d="M1330.6,1579.6c-4.7,2.1,2-8.9-2-9.7c-4-0.8-15.5,0.8-23.6,15s-7,33.8-6.7,50.3
			C1300.5,1596.7,1331.7,1579.1,1330.6,1579.6z"/>
		
			<linearGradient id="SVGID_3_" gradientUnits="userSpaceOnUse" x1="2766.6272" y1="1585.7076" x2="2750.3875" y2="1562.7169" gradientTransform="matrix(0.9994 -3.581569e-02 3.581569e-02 0.9994 -1490.1503 82.3202)">
			<stop  offset="0.1043" style="stop-color:#FFD540;stop-opacity:0"/>
			<stop  offset="0.4078" style="stop-color:#FFD540"/>
			<stop  offset="0.8531" style="stop-color:#E36D15"/>
		</linearGradient>
		<path class="st13" d="M1324.4,1572.5c0.5-1.6,4.4-8,2.1-12.4c-2.2-4.3-7.7-7.6-8.7-9c-3.3-0.6-4-2.2-6.3-3.4
			c0.7-0.1,2.5-0.1,2.5-0.1s16.1,2,17.6,6.6c1.6,4.6,2,6.4,1.3,9C1331,1569.3,1324,1573.9,1324.4,1572.5z"/>
		
			<linearGradient id="SVGID_4_" gradientUnits="userSpaceOnUse" x1="2747.3838" y1="1566.6327" x2="2753.6545" y2="1566.6327" gradientTransform="matrix(0.9994 -3.581569e-02 3.581569e-02 0.9994 -1490.1503 82.3202)">
			<stop  offset="0" style="stop-color:#E36D15"/>
			<stop  offset="1" style="stop-color:#FFD540"/>
		</linearGradient>
		<path class="st14" d="M1317.8,1551.2c-3.3-0.6-4-2.2-6.3-3.4c0.7-0.1,2.5-0.1,2.5-0.1S1318.6,1549.4,1317.8,1551.2z"/>
		
			<linearGradient id="SVGID_5_" gradientUnits="userSpaceOnUse" x1="856.8298" y1="1666.8167" x2="878.5335" y2="1666.8167" gradientTransform="matrix(-1 0 0 1 2161.9902 0)">
			<stop  offset="0" style="stop-color:#651516"/>
			<stop  offset="0.8757" style="stop-color:#E56210"/>
		</linearGradient>
		<path class="st15" d="M1305.2,1612.3c-2,5-24.6,74.8-21.4,104c2.1,19.2,8.2-22.7,8.9-29.1
			C1295.9,1657.6,1305.2,1612.3,1305.2,1612.3z"/>
		
			<linearGradient id="SVGID_6_" gradientUnits="userSpaceOnUse" x1="853.1063" y1="1561.4415" x2="824.3036" y2="1611.066" gradientTransform="matrix(-1 0 0 1 2161.9902 0)">
			<stop  offset="0.1469" style="stop-color:#E36D15"/>
			<stop  offset="0.4992" style="stop-color:#FFD540"/>
			<stop  offset="0.8503" style="stop-color:#FFD540;stop-opacity:0"/>
		</linearGradient>
		<path class="st16" d="M1311.2,1547.7c0.7-1.2,4.1-1.8,6.9-0.9c3.9-2,8.3-2.2,12.7-0.9c4.5,1.2,6-1.1,6.8-3.5
			c0,1.2,1.3,3.2-0.8,4.9c1.9,0.4,3.1,3.4,7.3,2.1c-1.1,1.4-3.4,2.9-5.7,1.6c3.3,2.7,6.4,4.4,5.3,12.1c-0.8-2.3-2.4-2.7-4.3-2.2
			c1,2.5,8,22,2,31c-5.9,9-18.4,16.2-22.5,18.9s-11.9,11.3-12.5,19.5c-3.2-4.5-16.1-42.6,19.2-59.2c3.4-1.1,12.7-13.9-0.7-19.9
			c-5.6-0.7-4.9,0.4-7-0.4c-2.1-0.9-3.1-2.4-4.3-2.6C1312.6,1547.9,1311.2,1547.7,1311.2,1547.7z"/>
		
			<linearGradient id="SVGID_7_" gradientUnits="userSpaceOnUse" x1="813.5992" y1="1549.9314" x2="825.6715" y2="1549.9314" gradientTransform="matrix(-1 0 0 1 2161.9902 0)">
			<stop  offset="0.1469" style="stop-color:#E36D15"/>
			<stop  offset="0.5922" style="stop-color:#FFD540"/>
			<stop  offset="0.8957" style="stop-color:#FFD540;stop-opacity:0"/>
		</linearGradient>
		<path class="st17" d="M1336.3,1548.9c1.4,0.8,8.6,3.9,12.1,1.5C1346.7,1547.7,1336.3,1548.9,1336.3,1548.9z"/>
		
			<linearGradient id="SVGID_8_" gradientUnits="userSpaceOnUse" x1="2772.719" y1="1570.6917" x2="2784.3826" y2="1570.6917" gradientTransform="matrix(0.9994 -3.581569e-02 3.581569e-02 0.9994 -1490.1503 82.3202)">
			<stop  offset="0.1043" style="stop-color:#FFD540;stop-opacity:0"/>
			<stop  offset="0.4078" style="stop-color:#FFD540"/>
			<stop  offset="0.8531" style="stop-color:#E36D15"/>
		</linearGradient>
		<path class="st18" d="M1336.9,1549.7c1.1,1.3,7.8,6.5,11.9,5.4C1348.1,1552.1,1336.9,1549.7,1336.9,1549.7z"/>
		
			<linearGradient id="SVGID_9_" gradientUnits="userSpaceOnUse" x1="866.2908" y1="1748.9425" x2="866.2908" y2="1608.1866" gradientTransform="matrix(-1 0 0 1 2161.9902 0)">
			<stop  offset="5.586592e-02" style="stop-color:#E36D15"/>
			<stop  offset="0.5084" style="stop-color:#FFD540"/>
			<stop  offset="0.933" style="stop-color:#FFD540;stop-opacity:0"/>
		</linearGradient>
		<path class="st19" d="M1296.8,1712.6c0.3,3.9,1.2,20.9-0.1,30.2h-7.3c-8.1-22.6,12.6-129.2,14.5-134.6
			C1303.9,1608.2,1294.8,1681.3,1296.8,1712.6z"/>
		
			<linearGradient id="SVGID_10_" gradientUnits="userSpaceOnUse" x1="2769.8333" y1="1565.4722" x2="2781.9751" y2="1565.4722" gradientTransform="matrix(0.9994 -3.581569e-02 3.581569e-02 0.9994 -1490.1503 82.3202)">
			<stop  offset="9.380475e-03" style="stop-color:#FFD540;stop-opacity:0"/>
			<stop  offset="0.3087" style="stop-color:#FFD540"/>
			<stop  offset="0.8531" style="stop-color:#E36D15"/>
		</linearGradient>
		<path class="st20" d="M1334,1547c1.5,0.7,8.9,3,12.2,0.3C1344.2,1544.8,1334,1547,1334,1547z"/>
		
			<linearGradient id="SVGID_11_" gradientUnits="userSpaceOnUse" x1="2834.7327" y1="1576.2814" x2="2846.8748" y2="1576.2814" gradientTransform="matrix(0.8851 -0.4654 0.4654 0.8851 -1910.905 1472.6174)">
			<stop  offset="0.1026" style="stop-color:#FFD540;stop-opacity:0"/>
			<stop  offset="0.5187" style="stop-color:#FFD540"/>
			<stop  offset="0.8531" style="stop-color:#E36D15"/>
		</linearGradient>
		<path class="st21" d="M1331.4,1547.9c1.6,0,9.4-1.2,11.1-5C1339.7,1541.5,1331.4,1547.9,1331.4,1547.9z"/>
		
			<linearGradient id="SVGID_12_" gradientUnits="userSpaceOnUse" x1="862.6068" y1="1738.5078" x2="862.6068" y2="1613.2319" gradientTransform="matrix(-1 0 0 1 2161.9902 0)">
			<stop  offset="0.1243" style="stop-color:#E56210"/>
			<stop  offset="1" style="stop-color:#651516"/>
		</linearGradient>
		<path class="st22" d="M1303.6,1613.2c-1.1,5.3-14,92.5-5.4,120.6c5.6,18.5,3.9-23.8,3.4-30.2
			C1299.2,1673.9,1303.6,1613.2,1303.6,1613.2z"/>
		
			<linearGradient id="SVGID_13_" gradientUnits="userSpaceOnUse" x1="860.0931" y1="1724.0225" x2="860.0931" y2="1613.2319" gradientTransform="matrix(-1 0 0 1 2161.9902 0)">
			<stop  offset="5.586592e-02" style="stop-color:#E36D15"/>
			<stop  offset="0.5084" style="stop-color:#FFD540"/>
			<stop  offset="0.933" style="stop-color:#FFD540;stop-opacity:0"/>
		</linearGradient>
		<path class="st23" d="M1303.6,1613.2c-1.1,5.3-10.5,78.1-1.9,106.1c5.6,18.5,3.9-23.8,3.4-30.2
			C1302.8,1659.5,1303.6,1613.2,1303.6,1613.2z"/>
		
			<linearGradient id="SVGID_14_" gradientUnits="userSpaceOnUse" x1="822.8386" y1="1604.1184" x2="867.6857" y2="1604.1184" gradientTransform="matrix(-1 0 0 1 2161.9902 0)">
			<stop  offset="0.1243" style="stop-color:#E56210"/>
			<stop  offset="1" style="stop-color:#651516"/>
		</linearGradient>
		<path class="st24" d="M1332.7,1575.3c3.6-2.5,5.4,2.6,6.1,7.2c1.1,7.7,0.9,16.1-18.8,26.5c-22.4,11.8-26.1,26.4-25.6,24.5
			C1305.3,1588.5,1316.6,1586.3,1332.7,1575.3z"/>
		<path class="st25" d="M1325.5,1550c-1-1-2-2.3-4.8-1.1c0.6,0.4,1.6,1.7,2.8,1.1C1324.8,1549.3,1326.1,1550.6,1325.5,1550z"/>
		
			<linearGradient id="SVGID_15_" gradientUnits="userSpaceOnUse" x1="843.9876" y1="1616.141" x2="860.018" y2="1616.141" gradientTransform="matrix(-1 0 0 1 2161.9902 0)">
			<stop  offset="0" style="stop-color:#651516"/>
			<stop  offset="0.8757" style="stop-color:#E56210"/>
		</linearGradient>
		<path class="st26" d="M1318,1595c-7.4,4.7-14.9,19.7-15.7,31.5c-0.8,11.8-0.2,18.4,4.5-4.7C1311.4,1598.6,1318,1595,1318,1595z"/>
		
			<linearGradient id="SVGID_16_" gradientUnits="userSpaceOnUse" x1="815.2611" y1="1554.6479" x2="825.3408" y2="1554.6479" gradientTransform="matrix(-1 0 0 1 2161.9902 0)">
			<stop  offset="0.1469" style="stop-color:#E36D15"/>
			<stop  offset="0.5922" style="stop-color:#FFD540"/>
			<stop  offset="0.8957" style="stop-color:#FFD540;stop-opacity:0"/>
		</linearGradient>
		<path class="st27" d="M1336.6,1549.5c0.5,1.6,5.9,9.6,10.1,10.2C1347.3,1556.6,1336.6,1549.5,1336.6,1549.5z"/>
		
			<linearGradient id="SVGID_17_" gradientUnits="userSpaceOnUse" x1="892.5565" y1="1585.9147" x2="900.3752" y2="1579.5533" gradientTransform="matrix(-0.8856 -0.4645 -0.4645 0.8856 2868.6826 572.4033)">
			<stop  offset="0.1469" style="stop-color:#E36D15"/>
			<stop  offset="0.5922" style="stop-color:#FFD540"/>
			<stop  offset="0.8957" style="stop-color:#FFD540;stop-opacity:0"/>
		</linearGradient>
		<path class="st28" d="M1337.8,1550.8c-0.3,1.6,0.8,11.3,4.2,13.7C1344,1562,1337.8,1550.8,1337.8,1550.8z"/>
		
			<linearGradient id="SVGID_18_" gradientUnits="userSpaceOnUse" x1="853.5729" y1="1630.6542" x2="869.106" y2="1630.6542" gradientTransform="matrix(-1 0 0 1 2161.9902 0)">
			<stop  offset="6.703911e-02" style="stop-color:#FFD540;stop-opacity:0"/>
			<stop  offset="0.4916" style="stop-color:#FFD540"/>
			<stop  offset="0.9441" style="stop-color:#E36D15"/>
		</linearGradient>
		<path class="st29" d="M1308.4,1605c-7.2,5-15.2,28.9-15.5,40.7s0.7,18.4,4.2-4.9C1300.8,1617.4,1308.4,1605,1308.4,1605z"/>
		
			<linearGradient id="SVGID_19_" gradientUnits="userSpaceOnUse" x1="850.0277" y1="1626.0813" x2="866.1695" y2="1626.0813" gradientTransform="matrix(-1 0 0 1 2161.9902 0)">
			<stop  offset="0" style="stop-color:#651516"/>
			<stop  offset="0.8757" style="stop-color:#E56210"/>
		</linearGradient>
		<path class="st30" d="M1312,1601.1c-7.2,5-15.6,27.4-16,39.2s0.5,18.4,4.3-4.9S1312,1601.1,1312,1601.1z"/>
		
			<linearGradient id="SVGID_20_" gradientUnits="userSpaceOnUse" x1="846.1289" y1="1621.605" x2="863.7202" y2="1621.605" gradientTransform="matrix(-1 0 0 1 2161.9902 0)">
			<stop  offset="6.703911e-02" style="stop-color:#FFD540;stop-opacity:0"/>
			<stop  offset="0.4916" style="stop-color:#FFD540"/>
			<stop  offset="0.9441" style="stop-color:#E36D15"/>
		</linearGradient>
		<path class="st31" d="M1315.9,1596.3c-7.4,4.7-16.4,28.2-17.3,40c-0.8,11.8-0.2,18.4,4.5-4.7
			C1307.7,1608.3,1315.9,1596.3,1315.9,1596.3z"/>
		
			<linearGradient id="SVGID_21_" gradientUnits="userSpaceOnUse" x1="837.2506" y1="1608.4224" x2="858.5164" y2="1608.4224" gradientTransform="matrix(-1 -7.133434e-03 -7.133434e-03 1 2174.8582 6.1085)">
			<stop  offset="6.703911e-02" style="stop-color:#FFD540;stop-opacity:0"/>
			<stop  offset="0.4916" style="stop-color:#FFD540"/>
			<stop  offset="0.9441" style="stop-color:#E36D15"/>
		</linearGradient>
		<path class="st32" d="M1326.3,1583.9c-7.8,4.1-18.8,26.7-20.6,38.4c-1.8,11.7-1.7,18.3,4.8-4.4
			C1317.1,1595.2,1326.3,1583.9,1326.3,1583.9z"/>
		
			<linearGradient id="SVGID_22_" gradientUnits="userSpaceOnUse" x1="817.6239" y1="1584.9833" x2="819.2605" y2="1600.0828" gradientTransform="matrix(-0.9983 5.860420e-02 5.860420e-02 0.9983 2056.55 -45.767)">
			<stop  offset="6.703911e-02" style="stop-color:#FFD540;stop-opacity:0"/>
			<stop  offset="0.4916" style="stop-color:#FFD540"/>
			<stop  offset="0.9441" style="stop-color:#E36D15"/>
		</linearGradient>
		<path class="st33" d="M1336.8,1575.4c0.6,2.2,2.6,16.3-4,22.4c-6.5,6-4.5,0-3.2-1.9"/>
		
			<linearGradient id="SVGID_23_" gradientUnits="userSpaceOnUse" x1="957.9381" y1="1629.3669" x2="960.0095" y2="1648.4778" gradientTransform="matrix(-0.7869 -0.6171 -0.6171 0.7869 3087.1453 903.3644)">
			<stop  offset="6.703911e-02" style="stop-color:#FFD540;stop-opacity:0"/>
			<stop  offset="0.4916" style="stop-color:#FFD540"/>
			<stop  offset="0.9441" style="stop-color:#E36D15"/>
		</linearGradient>
		<path class="st34" d="M1331.6,1594.9c-1,2-8.9,13.9-17.8,14.1c-8.9,0.2-3.4-3-1.1-3.5"/>
		
			<linearGradient id="SVGID_24_" gradientUnits="userSpaceOnUse" x1="979.6188" y1="1651.4758" x2="986.801" y2="1669.5809" gradientTransform="matrix(-0.678 -0.7351 -0.7351 0.678 3206.2144 1197.9624)">
			<stop  offset="6.703911e-02" style="stop-color:#FFD540;stop-opacity:0"/>
			<stop  offset="0.4916" style="stop-color:#FFD540"/>
			<stop  offset="0.9441" style="stop-color:#E36D15"/>
		</linearGradient>
		<path class="st35" d="M1330.8,1594.4c-1.3,1.8-11,12.3-19.8,11.1s-2.8-3.5-0.5-3.7"/>
		
			<linearGradient id="SVGID_25_" gradientUnits="userSpaceOnUse" x1="984.6397" y1="1623.1467" x2="991.822" y2="1641.2518" gradientTransform="matrix(-0.6681 -0.6302 -0.6002 0.6314 2958.3914 1190.2141)">
			<stop  offset="6.703911e-02" style="stop-color:#FFD540;stop-opacity:0"/>
			<stop  offset="0.4916" style="stop-color:#FFD540"/>
			<stop  offset="0.9441" style="stop-color:#E36D15"/>
		</linearGradient>
		<path class="st36" d="M1328.6,1591.7c-1,1.7-8.8,11.4-16.8,10.6c-8-0.8-2.8-3-0.8-3.2"/>
		
			<linearGradient id="SVGID_26_" gradientUnits="userSpaceOnUse" x1="676.2923" y1="1642.8145" x2="689.8772" y2="1677.0597" gradientTransform="matrix(0.8714 0.2899 -0.2718 0.8277 1155.9591 99.5666)">
			<stop  offset="6.703911e-02" style="stop-color:#FFD540;stop-opacity:0"/>
			<stop  offset="0.4916" style="stop-color:#FFD540"/>
			<stop  offset="0.9441" style="stop-color:#E36D15"/>
		</linearGradient>
		<path class="st37" d="M1300.7,1649.2c1.2,13-5.1,33.7-0.6,40.3c4.5,6.7,4,1.1,3.2-0.9"/>
		
			<linearGradient id="SVGID_27_" gradientUnits="userSpaceOnUse" x1="690.7302" y1="1681.9552" x2="698.2855" y2="1716.7356" gradientTransform="matrix(0.8714 0.2899 -0.2718 0.8277 1155.9591 99.5666)">
			<stop  offset="0.4916" style="stop-color:#FFD540"/>
			<stop  offset="0.9441" style="stop-color:#E36D15"/>
		</linearGradient>
		<path class="st38" d="M1297.8,1685.7c-1.2,7.1-4.5,31.9,0,38.6c4.5,6.7,4,1.1,3.2-0.9"/>
		
			<linearGradient id="SVGID_28_" gradientUnits="userSpaceOnUse" x1="614.5679" y1="1675.5364" x2="622.1232" y2="1710.3168" gradientTransform="matrix(0.796 0.458 -0.4316 0.7567 1529.8955 115.3159)">
			<stop  offset="0.4916" style="stop-color:#FFD540"/>
			<stop  offset="0.9441" style="stop-color:#E36D15"/>
		</linearGradient>
		<path class="st39" d="M1294.3,1658.1c-2.6,6.7-10.8,30.4-7.7,37.8c3,7.4,3.7,1.9,3.3-0.2"/>
		
			<linearGradient id="SVGID_29_" gradientUnits="userSpaceOnUse" x1="657.5023" y1="1781.7452" x2="660.6304" y2="1800.9701" gradientTransform="matrix(-4.008437e-02 0.9175 -0.8705 -3.472316e-02 2904.7815 1052.75)">
			<stop  offset="0.2452" style="stop-color:#FFD540;stop-opacity:0"/>
			<stop  offset="0.6298" style="stop-color:#FFD540"/>
			<stop  offset="0.9441" style="stop-color:#E36D15"/>
		</linearGradient>
		<path class="st40" d="M1330.7,1591.7c-1.9-0.5-14.2-2-19.4,4.1c-5.2,6.1,0,4.1,1.7,2.9"/>
		
			<linearGradient id="SVGID_30_" gradientUnits="userSpaceOnUse" x1="815.992" y1="1588.3528" x2="831.9084" y2="1598.3872" gradientTransform="matrix(-0.9983 5.860420e-02 5.860420e-02 0.9983 2056.55 -45.767)">
			<stop  offset="6.703911e-02" style="stop-color:#FFD540;stop-opacity:0"/>
			<stop  offset="0.4916" style="stop-color:#FFD540"/>
			<stop  offset="0.9441" style="stop-color:#E36D15"/>
		</linearGradient>
		<path class="st41" d="M1336.3,1581.6c-0.3,2.2-3.6,15.9-11.7,17.8c-8.2,2-4.1-2.3-2.2-3.4"/>
		
			<linearGradient id="SVGID_31_" gradientUnits="userSpaceOnUse" x1="822.2441" y1="1584.1" x2="834.9973" y2="1602.5552" gradientTransform="matrix(-0.9983 5.860420e-02 5.860420e-02 0.9983 2056.55 -45.767)">
			<stop  offset="6.703911e-02" style="stop-color:#FFD540;stop-opacity:0"/>
			<stop  offset="0.4916" style="stop-color:#FFD540"/>
			<stop  offset="0.9441" style="stop-color:#E36D15"/>
		</linearGradient>
		<path class="st42" d="M1335.7,1582.8c-0.8,2-7.2,14-15.5,13.1c-8.3-0.8-3.4-3.6-1.3-3.9"/>
		
			<linearGradient id="SVGID_32_" gradientUnits="userSpaceOnUse" x1="815.9387" y1="1585.3743" x2="836.6953" y2="1590.8241" gradientTransform="matrix(-0.9983 5.860420e-02 5.860420e-02 0.9983 2056.55 -45.767)">
			<stop  offset="6.703911e-02" style="stop-color:#FFD540;stop-opacity:0"/>
			<stop  offset="0.4916" style="stop-color:#FFD540"/>
			<stop  offset="0.9441" style="stop-color:#E36D15"/>
		</linearGradient>
		<path class="st43" d="M1335.2,1582.6c-1.1,1.7-9.3,11.4-16.9,8.8s-2.5-4-0.5-3.9"/>
		<g>
			<path class="st44" d="M1309,1618.7c-0.2,2.2-0.6,4.4-1.1,6.5c-0.3,1.1-0.6,2.1-1,3.2c-0.2,0.5-0.4,1-0.6,1.5
				c-0.1,0.2-0.3,0.5-0.4,0.7c-0.1,0.1-0.2,0.2-0.4,0.3c-0.2,0-0.2-0.1-0.2-0.2c0-0.1,0-0.1,0-0.2c0,0.1,0.1,0.3,0.2,0.2
				c0,0,0.1-0.2,0.2-0.3c0.1-0.2,0.2-0.5,0.2-0.8l0.4-1.6c0.2-1.1,0.5-2.1,0.8-3.2c0.3-1.1,0.6-2.1,0.9-3.2
				C1308.2,1620.8,1308.5,1619.7,1309,1618.7z"/>
		</g>
		
			<linearGradient id="SVGID_33_" gradientUnits="userSpaceOnUse" x1="817.8288" y1="1583.4907" x2="833.5448" y2="1587.8584" gradientTransform="matrix(-0.9983 5.860420e-02 5.860420e-02 0.9983 2056.55 -45.767)">
			<stop  offset="0.1043" style="stop-color:#FFD540;stop-opacity:0"/>
			<stop  offset="0.4078" style="stop-color:#FFD540"/>
			<stop  offset="0.8531" style="stop-color:#E36D15"/>
		</linearGradient>
		<path class="st45" d="M1333.5,1583.1c-1.7,2-4.7,5.4-11.8,4.9c-8.7-0.6-1.4-4.1,0.4-3.7"/>
		<g>
			<path class="st44" d="M1301.5,1633.2c0,2.2-0.2,4.4-0.6,6.6c-0.2,1.1-0.4,2.2-0.7,3.2c-0.2,0.5-0.3,1.1-0.5,1.6
				c-0.1,0.3-0.2,0.5-0.4,0.8c-0.1,0.1-0.1,0.3-0.3,0.3c-0.2,0-0.2-0.1-0.2-0.2c0-0.1,0-0.1,0-0.2c0,0.1,0.2,0.3,0.2,0.2
				c0,0,0.1-0.2,0.1-0.3c0.1-0.3,0.1-0.5,0.2-0.8l0.2-1.6c0.2-1.1,0.3-2.2,0.5-3.2c0.2-1.1,0.4-2.2,0.7-3.2
				C1300.8,1635.4,1301.1,1634.3,1301.5,1633.2z"/>
		</g>
		<g>
			<path class="st44" d="M1295,1641.5c0.2,2.2,0.1,4.4-0.1,6.6c-0.1,1.1-0.3,2.2-0.5,3.3c-0.1,0.5-0.2,1.1-0.4,1.6
				c-0.1,0.3-0.2,0.5-0.3,0.8c-0.1,0.1-0.1,0.3-0.3,0.4c-0.2,0-0.2-0.1-0.2-0.2c0-0.1,0-0.1,0-0.2c0,0.1,0.2,0.3,0.2,0.2
				c0,0,0.1-0.2,0.1-0.3c0-0.3,0.1-0.5,0.1-0.8l0.1-1.6c0.1-1.1,0.2-2.2,0.3-3.3c0.1-1.1,0.2-2.2,0.4-3.3
				C1294.5,1643.6,1294.7,1642.5,1295,1641.5z"/>
		</g>
		<g>
			<path class="st44" d="M1307.9,1608.7l-1,3.5l-1.1,3.4l-2.2,6.9c-0.7,2.3-1.4,4.6-2.1,6.9c-0.3,1.1-0.6,2.3-0.9,3.5l-0.4,1.7
				c-0.1,0.6-0.2,1.2-0.4,1.8c0-2.4,0.5-4.8,1-7.2c0.5-2.4,1.2-4.7,1.9-7c0.7-2.3,1.5-4.6,2.4-6.8
				C1305.9,1613.1,1306.8,1610.9,1307.9,1608.7z"/>
		</g>
		<g>
			<path class="st44" d="M1313,1604.2c-0.7,1.9-1.3,3.8-2,5.7c-0.7,1.9-1.3,3.8-2,5.7c-0.6,1.9-1.3,3.8-1.8,5.8
				c-0.6,1.9-1.1,3.9-1.5,5.9c0-2,0.3-4.1,0.7-6.1c0.4-2,1-3.9,1.6-5.9C1309.4,1611.5,1311,1607.8,1313,1604.2z"/>
		</g>
		<g>
			<path class="st46" d="M1289,1721.6c0.2,2,0.3,3.9,0.4,5.8c0.1,1.9,0.2,3.9,0.1,5.9c-0.7-1.9-1-3.8-1.1-5.8
				C1288.3,1725.5,1288.4,1723.5,1289,1721.6z"/>
		</g>
		<g>
			<path class="st46" d="M1290.8,1703.7c-0.2,1.5-0.3,2.9-0.4,4.4c-0.1,1.5-0.1,3-0.1,4.4c0,3,0.1,5.9,0.3,8.9
				c0.2,2.9,0.5,5.9,1,8.8c0.1,0.7,0.3,1.4,0.6,2.1c0.1,0.2,0.1,0.3,0.2,0.4c0.1,0.1,0.2,0.2,0.2,0.2c0,0,0.1-0.1,0.2-0.2
				c0.1-0.1,0.2-0.3,0.2-0.5c0.5-1.3,0.8-2.8,1-4.3c-0.1,1.5-0.2,3-0.6,4.5c-0.1,0.2-0.1,0.4-0.2,0.6c-0.1,0.2-0.2,0.4-0.6,0.5
				c-0.4,0-0.6-0.2-0.7-0.4c-0.1-0.2-0.2-0.4-0.3-0.5c-0.3-0.7-0.5-1.4-0.7-2.2c-0.7-2.9-1-5.9-1.3-8.9c-0.2-3-0.3-6-0.1-8.9
				C1289.7,1709.6,1290,1706.6,1290.8,1703.7z"/>
		</g>
		<g>
			<path class="st46" d="M1301.5,1694.5c-0.1,1.4-0.2,2.7-0.2,4.1c0,1.4,0,2.7,0,4.1c0.1,2.7,0.3,5.4,0.6,8.1
				c0.3,2.7,0.7,5.4,1.4,7.9c0.1,0.3,0.2,0.6,0.4,0.9c0.1,0.3,0.4,0.5,0.4,0.5c0.1,0,0.3-0.3,0.4-0.6c0.1-0.3,0.2-0.6,0.3-0.9
				c0.4-1.3,0.5-2.7,0.8-4c0,1.4-0.1,2.7-0.3,4.1c-0.1,0.3-0.1,0.7-0.3,1c-0.1,0.2-0.1,0.3-0.2,0.5c-0.1,0.2-0.2,0.4-0.5,0.5
				c-0.4,0.1-0.6-0.1-0.8-0.3c-0.1-0.2-0.3-0.3-0.4-0.5c-0.2-0.3-0.3-0.6-0.5-1c-1-2.6-1.4-5.4-1.7-8.1c-0.3-2.7-0.5-5.5-0.4-8.2
				C1300.7,1699.9,1300.9,1697.2,1301.5,1694.5z"/>
		</g>
		<g>
			<path class="st11" d="M1318.3,1615.3c-0.1-0.4,0.1-0.8,0.2-1.1c0.1-0.4,0.3-0.7,0.4-1c0.1-0.3,0.2-0.7,0.1-0.8
				c0-0.1-0.1-0.1-0.2,0.1c0,0.1,0,0.2,0,0.3c0,0.1,0,0.2,0.1,0.2l2-2.2c0.2,0.2,0.3,0.4,0.4,0.6c0.1,0.2,0.2,0.5,0.2,0.8
				c0,0.2,0,0.5-0.1,0.6c-0.1,0.2-0.1,0.3-0.2,0.5c-0.3,0.5-0.7,0.7-1,1c-0.3,0.2-0.7,0.4-1,0.6
				C1318.8,1614.8,1318.5,1614.9,1318.3,1615.3z"/>
		</g>
		
			<linearGradient id="SVGID_34_" gradientUnits="userSpaceOnUse" x1="830.9317" y1="1526.2874" x2="838.3857" y2="1541.1381" gradientTransform="matrix(-0.6949 2.639307e-02 3.451387e-02 0.7663 1860.979 389.2741)">
			<stop  offset="6.703911e-02" style="stop-color:#FFD540;stop-opacity:0"/>
			<stop  offset="0.4916" style="stop-color:#FFD540"/>
			<stop  offset="0.9441" style="stop-color:#E36D15"/>
		</linearGradient>
		<path class="st47" d="M1336.3,1576.2c0.4,1.4,1.6,10.4-3,14.1c-4.6,3.8-3.1,0-2.1-1.2"/>
		
			<linearGradient id="SVGID_35_" gradientUnits="userSpaceOnUse" x1="897.3167" y1="1531.9065" x2="904.7706" y2="1546.7572" gradientTransform="matrix(-0.6799 -0.1461 -0.1558 0.7511 2183.968 560.9011)">
			<stop  offset="6.703911e-02" style="stop-color:#FFD540;stop-opacity:0"/>
			<stop  offset="0.4916" style="stop-color:#FFD540"/>
			<stop  offset="0.9441" style="stop-color:#E36D15"/>
		</linearGradient>
		<path class="st48" d="M1336.4,1576c0,1.4-1,10.4-6.4,12.9s-3-0.8-1.8-1.7"/>
		
			<linearGradient id="SVGID_36_" gradientUnits="userSpaceOnUse" x1="981.1144" y1="1564.9457" x2="988.5684" y2="1579.7964" gradientTransform="matrix(-0.5919 -0.365 -0.398 0.6557 2537.071 913.7349)">
			<stop  offset="6.703911e-02" style="stop-color:#FFD540;stop-opacity:0"/>
			<stop  offset="0.4916" style="stop-color:#FFD540"/>
			<stop  offset="0.9441" style="stop-color:#E36D15"/>
		</linearGradient>
		<path class="st49" d="M1336.1,1578.1c-0.5,1.4-4.5,9.5-10.4,10c-5.9,0.6-2.5-1.8-1.1-2.2"/>
		
			<linearGradient id="SVGID_37_" gradientUnits="userSpaceOnUse" x1="1035.2854" y1="1602.337" x2="1042.7393" y2="1617.1877" gradientTransform="matrix(-0.4769 -0.5062 -0.5546 0.5299 2715.3687 1255.5134)">
			<stop  offset="6.703911e-02" style="stop-color:#FFD540;stop-opacity:0"/>
			<stop  offset="0.4916" style="stop-color:#FFD540"/>
			<stop  offset="0.9441" style="stop-color:#E36D15"/>
		</linearGradient>
		<path class="st50" d="M1336.5,1577.6c-0.8,1.2-6.8,8-12.6,7c-5.8-1-2-2.4-0.5-2.4"/>
	</g>
</g>
<linearGradient id="SVGID_38_" gradientUnits="userSpaceOnUse" x1="1658.5283" y1="1820.3275" x2="1658.5283" y2="1115.2834">
	<stop  offset="7.821229e-02" style="stop-color:#322E4E"/>
	<stop  offset="0.1171" style="stop-color:#343052"/>
	<stop  offset="0.2402" style="stop-color:#363254"/>
</linearGradient>
<path class="st51" d="M1554,1817c29-12,34.9-25,45.5-44.5c18-33,2-47,1-62s12-19,9-34s-14-73-10-91s14-83,8-104s8-38-14-53
	s-58-62-55-92s20-44,11-77s-49-114-35-96s48,81,44,110s-7,45-1,61s4,36,16,50s46,17,45,36s7,28,10,50s-5,76,0,91s1.7,46.3,17.4,30.6
	c15.6-15.6,53.6-87.6,45.6-125.6s-24-70-20-110s3-56-8-88s-34-153-25-125s29,92,37,106s14,45,17,56c0-46,10-121,18-145s13-57,20-41
	c-6,25-19,79-19,101s-3,60-3,76s-2,32-7,44s1,56,5,65s5,55,6,66c15-1,35-15,45-56s10-120,11-143s28-64,37-76
	c-6,16-32.4,61.7-29.2,82.3s1.2,81.7,1.2,107.7s-16,64-24,76s-31.4,28.6-34.2,46.8s-7.8,42.2-25.8,56.2s-39,50-44,72s-8,53-1,63
	s-2,56-1,69s4.5,22.5,22.5,40.5S1554,1817,1554,1817z"/>
<path class="st52" d="M1914.5,1234.2c8.8-3.3,14.5-8.4,14.5-14.2c0-8.4-11.9-15.4-28-17.4c0-0.2,0-0.4,0-0.6
	c0-11.5-11-21.4-26.9-26.1c1.9-3.2,2.9-6.5,2.9-9.9c0-5-2.2-9.8-6.1-14.2c17.1-1.4,30.1-9.1,30.1-18.3c0-10.2-16.1-18.5-36-18.5
	c-2.4,0-4.6,0.1-6.9,0.3c4.3-6.3,6.9-13.8,6.9-21.8c0-22.4-19.5-40.5-43.5-40.5c-12.7,0-24.1,5.1-32.1,13.1
	c-6.7-12.4-22-21.1-39.9-21.1c-18.8,0-34.8,9.6-40.9,23c-0.4,0.2-0.9,0.5-1.3,0.8c-10.9-14.4-29.1-23.8-49.8-23.8
	c-33.4,0-60.5,24.6-60.5,55c0,0.9,0,1.7,0.1,2.6c-5.9-2.3-12.3-3.6-19.1-3.6c-29.3,0-53,23.7-53,53c0,1.2,0.1,2.5,0.1,3.7
	c-6.9-4.2-15.9-6.7-25.6-6.7c-21.8,0-39.5,12.5-39.5,28c0,6.5,3.2,12.6,8.5,17.3c-12.5,5.5-21.5,20.1-21.5,37.2c0,3,0.3,5.9,0.8,8.7
	c-18.8,3.8-31.8,12.1-31.8,21.8c0,12.7,22.6,23.2,51,23.9c-1.9,3.8-3,8-3,12.6c0,6.7,2.4,12.8,6.3,17.5c-4.9-1.3-10.5-2-16.3-2
	c-21,0-38,9.4-38,21c0,9.7,12,17.9,28.2,20.3c-7.8,5.5-12.2,11.9-12.2,18.7c0,12.7,15.4,23.9,38.8,30.5
	c11.8,6.7,44.4,11.5,82.7,11.5c48.3,0,87.5-7.6,87.5-17c0-5.6-13.9-10.5-35.3-13.6c0.1-0.1,0.2-0.2,0.3-0.4
	c28.8-0.2,52-19.2,52-42.5c0-20.2-17.4-37-40.6-41.4c3-4.7,4.6-9.8,4.6-15.1c0-7.7-3.4-14.8-9.2-20.9c10.7-5,18.1-15.8,18.2-28.3
	c21.2-4.6,38.3-21.5,45-43.7c8.6,7.4,19.8,11.9,32,11.9c0.1,0,0.3,0,0.4,0c-6,7.8-9.4,16.7-9.4,26c0,26.9,28,49.4,66,56
	c-2,3.9-3,8.1-3,12.5c0,20.7,24,37.5,53.5,37.5s53.5-16.8,53.5-37.5c0-0.4,0-0.7,0-1.1c6.6,1,13.7,1.6,21,1.6c38.1,0,69-15.2,69-34
	C1959,1251.5,1940.5,1239.1,1914.5,1234.2z"/>
<linearGradient id="SVGID_39_" gradientUnits="userSpaceOnUse" x1="1748.723" y1="1849.7819" x2="1748.723" y2="1145.1943">
	<stop  offset="6.443855e-02" style="stop-color:#2F2C4A"/>
	<stop  offset="0.2242" style="stop-color:#322E4E"/>
</linearGradient>
<path class="st53" d="M1759,1842c-42-49-11.5-170.5,21.5-231.5s45-169,40-202s29-74,40-115s21-132,15-106s-51,185-62,153
	s-68-121-71-171s-24-16-8,40s60,140,62,190s4,109-17,138s-50-191-55-171s7.3,37.4,2.7,49.2s5.7,36.8,12,62.8c6.3,26,0.3,61,6.3,80
	s-5,60-22,99S1657,1795,1623,1834C1596.8,1864,1759,1842,1759,1842z"/>
<path class="st54" d="M2026.3,1252.5c6.5-4,10.7-10.4,10.7-17.5c0-3-0.7-5.8-2-8.4c7.9-3.1,13-8,13-13.6c0-7.7-9.7-14.1-23-16.3
	c1.3-1.5,2-3.1,2-4.7c0-8.8-19.9-16-44.5-16c-2.3,0-4.6,0.1-6.8,0.2c0.2-1.2,0.3-2.4,0.3-3.7c0-13-10.5-23.5-23.5-23.5
	c-2.2,0-4.3,0.3-6.3,0.9c-6.2-7.9-14.3-13.9-23.5-17.2c0.8-1.9,1.3-4,1.3-6.2c0-8.6-6.9-15.5-15.5-15.5c-4.5,0-8.6,2-11.5,5.1
	c-9.6-13.4-25.3-22.1-43-22.1c-10.6,0-20.5,3.1-28.7,8.5c-6.7-5.3-15.1-8.5-24.3-8.5c-14.1,0-26.5,7.5-33.3,18.7
	c-7.1-3.6-15.2-5.7-23.7-5.7c-23.9,0-44.1,16.2-50.1,38.2c-0.9-0.1-1.9-0.2-2.9-0.2c-14.9,0-27,13.9-27,31c0,1.2,0.1,2.4,0.2,3.6
	c-29,4.6-49.2,14.9-49.2,26.9c0,8.5,10,16.1,26.1,21.5c-1.5,1.7-2.9,3.4-4.1,5.3c-4-2.1-8.9-3.2-14-3.2c-14.4,0-26,9.2-26,20.5
	c0,8.1,5.9,15,14.5,18.4c-24.1,5.4-40.5,15.7-40.5,27.6c0,15.8,28.8,28.9,66.4,31.2c-9.6,6.3-15.4,14.2-15.4,22.8
	c0,20.2,31.3,36.5,70,36.5c2.1,0,4.1-0.1,6.1-0.1c-0.1,0.9-0.1,1.8-0.1,2.6c0,14.6,13.4,26.5,30,26.5s30-11.9,30-26.5
	c0-7.1-3.2-13.6-8.3-18.3c7.8-5.9,12.3-13,12.3-20.7c0-9.7-7.3-18.6-19.2-25.1c19.3-6.6,33.2-24.8,33.2-46.4
	c0-8.8-2.3-17.1-6.4-24.2c7.1-2.7,13.2-7.7,17.1-14c7.2,5.8,16.3,9.2,26.2,9.2c8.7,0,16.8-2.6,23.5-7.2c5.8,2,12.4,3.2,19.5,3.2
	c3.1,0,6.1-0.2,9-0.6c-6.2,4.6-10,10.6-10,17.1c0,14.6,18.8,26.5,42,26.5c3.4,0,6.7-0.3,9.8-0.7c-17.6,3.7-29.8,11.3-29.8,20.2
	c0,0.5,0.1,1,0.1,1.5c-0.2,0-0.4,0-0.6,0c-26.2,0-47.5,9.2-47.5,20.5s21.3,20.5,47.5,20.5c26,0,47-9,47.5-20.1c2,0.1,4,0.1,6,0.1
	c29.3,0,53-10.1,53-22.5c0-1.8-0.5-3.5-1.4-5.2c0.9-0.5,1.8-0.9,2.6-1.4c7,7.4,18,12.1,30.3,12.1c21.3,0,38.5-14.1,38.5-31.5
	C2053,1268.5,2041.8,1256.6,2026.3,1252.5z M1915.3,1286.3c0,0.2,0.1,0.4,0.1,0.5c-1.6,0.2-3.1,0.4-4.7,0.7
	C1912.4,1287.2,1913.9,1286.8,1915.3,1286.3z"/>
<linearGradient id="SVGID_40_" gradientUnits="userSpaceOnUse" x1="1054.5909" y1="1816.5" x2="1054.5909" y2="1126.5">
	<stop  offset="7.821229e-02" style="stop-color:#332F50"/>
	<stop  offset="0.1016" style="stop-color:#343052"/>
	<stop  offset="0.2402" style="stop-color:#363254"/>
</linearGradient>
<path class="st55" d="M907.5,1816.5c17-5,62-49,64-77s1-120-9-136s-114-132-115-209s42-258,42-222s-25,121-25,143s-2,73,8,89
	s33,99,100,171c13,17,32,15,35-7s-18-95-28-108s-24-92-12-126c3,30,23,133,35,153c9-41,43-64,39-93s-53-76-45-109s61-60,64-78
	c-16,34-55,49-54,67s16,82,31,91s18-17,42-29s65-93,74-143s46-67,56-67c-22,17-49,57-51,88s-30,109-55,128s-45,40-46,60
	s-35,65-34,84s11,78-8,110s-36,111-22,93s79-153,86-212s23-80,51-119s56-112,54-137s17-62,25-68c-8,35-23,67-20,89s-9,79-19,92
	s-42,45-39,57c42-29,72-29,78-57s24-107,44-124s-2,15-9,39s-21,65-31,107s-41,38-67,58s-48,29-46,46s-31,144-57,178s-35,67-37,96
	s5,68,40,62S907.5,1816.5,907.5,1816.5z"/>
<g>
	<path class="st54" d="M1194,1227.5c0-0.5,0-1.1-0.1-1.6c13.9,6.8,33.7,11.1,55.6,11.1c42.2,0,76.5-15.9,76.5-35.5
		c0-11.3-11.4-21.4-29.2-27.9c0.1-0.9,0.2-1.7,0.2-2.6c0-16.9-19.6-30.6-44-31c0-0.2,0-0.3,0-0.5c0-17.9-20.6-32.5-46-32.5
		c-12.1,0-23.1,3.3-31.4,8.7c-3.1-20.7-25.9-36.7-53.6-36.7c-23.8,0-43.9,11.8-51.1,28.2c-2.3-0.1-4.5-0.2-6.9-0.2
		c-13.8,0-26.9,2.2-38.4,6.1c-4.8-16.7-21.4-29.1-41.1-29.1c-19.1,0-35.2,11.5-40.6,27.4c-14.1-7.7-32.4-12.4-52.4-12.4
		c-44.5,0-80.5,23.1-80.5,51.5c0,11,5.4,21.3,14.7,29.6c-23.7-0.6-45.7,15.8-52.1,40.6c-4.2,16.5-0.5,33.1,8.6,45.6
		c-19.3,3.3-33.2,12.4-33.2,23.2c0,3.4,1.4,6.7,3.9,9.6c-24.1,4-41.9,18.1-41.9,34.9c0,19.9,25.1,36,56,36c0.4,0,0.8,0,1.1,0
		c-0.1,0.7-0.1,1.3-0.1,2c0,16.6,24,30,53.5,30s53.5-13.4,53.5-30c0-1-0.1-2-0.3-3c31.5-4.8,55.3-26,55.3-51.5
		c0-7.4-2.1-14.5-5.7-20.9c18.5-3.9,32.4-15,34.5-28.6c7.6-0.1,14.8-1.1,21.3-3c0,0.8,0,1.7,0,2.5c0,25.7,14.6,46.5,32.5,46.5
		c5.6,0,10.8-2,15.4-5.5c9.2,12.4,24,20.5,40.6,20.5c27.9,0,50.5-22.6,50.5-50.5c0-3-0.3-5.9-0.8-8.7c4.6,0.8,9.3,1.2,14.3,1.2
		C1166.5,1271,1194,1251.5,1194,1227.5z M1206.9,1172c-1.1,0.3-2.1,0.7-3.1,1c0.2-0.4,0.3-0.7,0.5-1.1
		C1205.2,1172,1206.1,1172,1206.9,1172z"/>
	<path class="st54" d="M1036,1354c-6.8,0-13.3,0.6-19.3,1.7c-2.3-15-18.1-26.7-37.2-26.7c-20.7,0-37.5,13.7-37.5,30.5
		c0,5.5,1.8,10.6,4.9,15.1c-17.6,4.7-29.9,15.4-29.9,27.9c0,16.8,22.4,30.5,50,30.5s50-13.7,50-30.5c0-1.1-0.1-2.1-0.3-3.2
		c6,1.1,12.5,1.7,19.3,1.7c28.7,0,52-10.5,52-23.5S1064.7,1354,1036,1354z"/>
	<path class="st54" d="M1291,1279c-0.1,0-0.2,0-0.3,0c-6.4-12-35.4-21-70.2-21c-39.5,0-71.5,11.6-71.5,26c0,9.7,14.5,18.1,36,22.6
		c-5.7,6.6-9,14.7-9,23.4c0,22.1,21.3,40,47.5,40s47.5-17.9,47.5-40c0-1-0.1-2-0.1-3c5.8,2.5,12.7,4,20.1,4c21,0,38-11.6,38-26
		S1312,1279,1291,1279z"/>
</g>
<g>
	<path class="st56" d="M811,1874c-44-24-66.5-59.5-37.5-117.5s124-180,130-208s53-154,67-177s32-42,38-65s13-50,26-47s23-15,30-30
		s90-89,63-74s-92,99-99,86s32-141,18-108s-72,196-74,169s-19-33-25-64s13-100,4-84s-17,82-9,112s17,60,5,83s-76,167-82,184
		s-92,159-97,136s-13-138,6-167s83-184,85-219s39-161,26-133s-43,149-57,128s-70-128-60-98s11,62,22,74s30,32,32,57s-32,102-54,133
		s-49,122-42,161s14,105-11,151S630,1866,610,1885S811,1874,811,1874z"/>
	<path class="st56" d="M1253,1135.5c0-22.5-15.2-41.7-36.7-49.6c-5.8-49.5-47.8-87.9-98.8-87.9c-16.8,0-32.7,4.2-46.5,11.5
		c-10-52.1-55.9-91.5-111-91.5c-36,0-68,16.8-88.7,43c-12.9-8.1-29.6-13-47.8-13c-38.9,0-70.8,22.4-74.2,51c-3.6-0.6-7.4-1-11.3-1
		c-25.9,0-47.4,14.7-52.1,34.1c-5.8-0.7-11.8-1.1-17.9-1.1c-52.5,0-95,28.2-95,63c0,26.8,25.3,49.7,60.9,58.8
		c-7.5,7.4-11.9,16.7-11.9,26.7c0,24.6,26.6,44.5,59.5,44.5c8.2,0,16-1.2,23.1-3.5c13,7.3,27.9,11.5,43.9,11.5
		c44.9,0,82.1-33.1,88.5-76.1c0.4-0.1,0.7-0.1,1.1-0.2c1.6,30.8,27.2,55.4,58.4,55.4c6.3,0,12.3-1,18-2.8c15.2,10,33.4,15.8,53,15.8
		c36.9,0,68.9-20.7,85.1-51c0.5,0.4,1,0.9,1.5,1.3c-2.1,7.2-3.2,14.9-3.2,22.7c0,45.8,37.2,83,83,83s83-37.2,83-83
		c0-4-0.3-7.9-0.8-11.8C1237.7,1177.3,1253,1158,1253,1135.5z"/>
</g>
<g>
	<path class="st57" d="M873.5,1835.5c-20.2-28.5-40-79-12-114s53-105,57-132s37-119,87-170s53-82,32-54s-110,120-125,176
		c16-77,16-104,30-115s55-52,61-65s38-42,40-59s47-104,86-147s-51,41-54,55s-45,94-46,78s-7-152-10-129s6,130-10,158s-79,107-75,87
		s-19-78-27-126s32-97,52-119s37-53,1-16s-69,84-71,131c-9-39-71-123-86-119s-5-3,15,20s58,91,62,127s11,216,10,258s-32,130-33,98
		s10-162-10-208s-82-158-76-182s31-151,20-133s-36,86-41,119s5,90,14,99s34,63,39,84s18,169-4,112s-92-181-82-155s44,93,47,104
		s7,30,21,47s46,97,41,119s-32,39-44-16s-24-64.1-43-90c-19-26-57-143-54-122s19,110,42,133s47,116,47,138
		c0,18.9-14.1,123.9-46.4,157.5c-48.1,50-109.1,47-114.1,49c-36.2,14.2,350,3,350,3s-43.4-27.5-56-39
		C897.9,1868.7,878.4,1842.4,873.5,1835.5z"/>
	<g>
		<path class="st57" d="M1122.5,1310.4c-10-22.6-32.7-38.4-59-38.4c-33.2,0-60.6,25.1-64.1,57.4c-3-0.2-6.2-0.4-9.4-0.4
			c-27.1,0-49,9.2-49,20.5s21.9,20.5,49,20.5c6.2,0,12.1-0.5,17.6-1.4c7.7,13.4,20.1,23.7,34.9,28.8c7.2,13.8,24.6,23.5,45,23.5
			c26.8,0,48.5-16.8,48.5-37.5c0-1.4-0.1-2.7-0.3-4c21.8-5.3,37.3-18.3,37.3-33.5C1173,1327.9,1151,1312.9,1122.5,1310.4z"/>
		<path class="st57" d="M1161.9,1173.5c2-6.7,3.1-13.7,3.1-21c0-40.6-32.9-73.5-73.5-73.5c-12.2,0-23.7,3-33.8,8.2
			c-12.2-28.9-40.8-49.2-74.2-49.2c-29.7,0-55.6,16.1-69.6,40c-10.1-6.9-22.3-11-35.4-11c-2.1,0-4.2,0.1-6.3,0.3
			c-14.7-13.8-34.4-22.3-56.2-22.3c-40.3,0-73.8,29.1-80.7,67.4c-11-3.5-22.7-5.4-34.8-5.4c-62.1,0-112.7,49-115.4,110.4
			c-0.7,0.1-1.5,0.2-2.2,0.3c-1.4-0.5-2.9-0.7-4.4-0.7c-5,0-9.6,2.6-13.2,7c-17.4,10-29.3,29.8-29.3,52.5c0,15.3,5.4,29.2,14.2,39.8
			c-27.7,5.2-46.2,14.8-46.2,25.7c0,10,15.5,18.8,39.2,24.3c-4.6,5.5-7.2,11.9-7.2,18.7c0,15.4,13.3,28.5,32,33.7
			c-27.1,8.1-45,21.8-45,37.3c0,22.2,36.4,40.6,84.3,44.3c5.5,10.9,20.3,18.7,37.7,18.7c6.9,0,13.3-1.2,19-3.4
			c12.6,14.3,31,23.4,51.5,23.4c37.8,0,68.5-30.7,68.5-68.5c0-22.9-11.3-43.2-28.6-55.6c5,0.7,10.2,1.1,15.6,1.1
			c33.1,0,60-15,60-33.5c0-14.2-15.8-26.3-38-31.2c6.8-12.9,4.8-28.4-4.3-39c5.4-8,8.7-17.5,9.3-27.7c4.2-6.5,7.7-13.5,10.5-20.8
			c6.1,3.3,13.1,5.2,20.6,5.2c23.7,0,43-19.3,43-43c0-3.1-0.3-6.1-1-9c3.6-0.1,7.2-0.3,10.7-0.6c13.5,23.1,38.6,38.6,67.3,38.6
			c22.1,0,42.1-9.2,56.3-24c12,5.6,27.4,9,44.2,9c22.2,0,41.9-5.9,54.6-15.1c12.9-2.2,24.7-7.8,34.3-15.9c4.2,0.6,8.8,1,13.5,1
			c23.2,0,42-8.3,42-18.5C1194,1182.8,1180.3,1175.5,1161.9,1173.5z"/>
	</g>
</g>
<g>
	<path class="st57" d="M1680,1914c3-5.9,23,1,53-78c19.8-52.1,29.7-150.9,5-174c-31-29-67-49-74-63s-67.5-51.5-85.5-66.5
		s-52-56-80-71s-42-45-43-59s-20-41-35-58s-33-81-37-91s-33-73-36-94c20,44,60,140,72,154s35,45,34,54s14,54,25,61s35,14,48,29
		s99,90,108,94s104,84,105,72s-31-52-55-70s-49-45-47-63s-28-70-40-89s-40-42-40-64s-40-171-52-189c19,29,43,86,47,74s49-77,55-82
		c-12,31-42,92-42,110s18,72,32,86s22,22,32,38s12,47,27,55s25,34,29,52s-1,27,14,40s28,30,25,3s-57-161-72-169s-24-12-17-39
		s-40-151-55-172c24,29,86,168,96,193s62,141,73,155s21-21,22-29s17-50,25-64s19-38,19-57s19-44,21-68s2-65,0-86s-3-64,2-39
		s15,91,15,106s48-92,44-69s-39,108-52,126s-34,90-36,101s-18,54-23,63s-16,72-15,86s38,143,36,165c-1.7,19.1,16,95.8,50.4,116.4
		c80.1,48.1,142.3,58.3,146.1,61.1C2032,1926,1680,1914,1680,1914z"/>
	<g>
		<path class="st57" d="M1694.5,1273c-6,0-11.5,1.9-16,5.1c-2.8-20.5-18.1-36.1-36.5-36.1c-20.4,0-37,19.3-37,43
			c0,6.5,1.2,12.6,3.5,18.2c-8.6,0.9-16.5,2.3-23.5,4.1c0-0.4,0-0.8,0-1.3c0-17.7-18.4-32-41-32c-5.8,0-11.2,0.9-16.2,2.6
			c-6.3-6-14.9-9.6-24.3-9.6c-19.6,0-35.5,15.9-35.5,35.5c0,19.6,15.9,35.5,35.5,35.5c6.7,0,13-1.9,18.3-5.1
			c6.4,3.2,14,5.1,22.2,5.1c4.7,0,9.2-0.6,13.4-1.7c4.9,5.6,15.1,10.3,28.4,13.7c3.7,10.3,20.1,18.1,39.7,18.1
			c7.9,0,15.4-1.3,21.6-3.5c2.7,7.8,10.1,13.5,18.9,13.5c11,0,20-9,20-20c0-3.7-1-7.1-2.7-10c15.2-4.8,24.7-11.8,24.7-19.5
			c0-1.2-0.3-2.4-0.7-3.6c8.8-4.6,14.7-13.8,14.7-24.4C1722,1285.3,1709.7,1273,1694.5,1273z"/>
		<path class="st57" d="M1998,1199c0-11.7-19.6-21.7-47.1-25.4c10-8.6,16.1-20,16.1-32.6c0-25.9-25.8-46.9-58-48
			c-0.5-34.9-28.9-63-64-63c-5.2,0-10.2,0.6-15,1.8c-19.7-28.9-52.9-47.8-90.5-47.8c-7.6,0-15.1,0.8-22.2,2.3
			c-9.9-8.2-23.4-13.3-38.3-13.3c-4.4,0-8.8,0.5-12.9,1.3c-14.9-23.6-41.2-39.3-71.1-39.3c-32.3,0-60.4,18.3-74.4,45
			c-12.6-8.8-28-14-44.6-14c-38.2,0-70,27.5-76.7,63.8c-9.2-6.8-20.5-10.8-32.8-10.8c-28.7,0-52.3,21.8-55.2,49.8
			c-5.1-1.1-10.4-1.8-15.8-1.8c-39.5,0-71.5,32-71.5,71.5c0,8.3,1.4,16.2,4,23.6c-24.6,1-44,14.7-44,31.4c0,17.4,21,31.5,47,31.5
			c2.5,0,5-0.1,7.4-0.4c-1.6,5.5-2.4,11.4-2.4,17.4c0,35.3,28.7,64,64,64c12.3,0,23.9-3.5,33.6-9.6c7.6,5.8,20.1,9.6,34.4,9.6
			c23.2,0,42-10.1,42-22.5c0-12.4-18.8-22.5-42-22.5c-2.4,0-4.7,0.1-7,0.3c1.9-6.1,3-12.6,3-19.3c0-3.6-0.3-7.1-0.9-10.6
			c8.4-2.6,15.6-8.5,20.7-16.3c5.9,1.9,12.1,2.9,18.6,2.9c33.5,0,60.8-26.8,61.5-60.2c14.3,17.2,35.9,28.2,60,28.2
			c28,0,52.5-14.7,66.2-36.8c5.8,4.3,13,6.8,20.8,6.8c12.3,0,23.1-6.4,29.4-16c8.6,18.3,22.1,33.8,38.9,44.9
			c-0.2,1.3-0.2,2.7-0.2,4.1c0,19.9,16.1,36,36,36c15.1,0,27.9-9.2,33.3-22.4c10.6-0.8,20.8-3.2,30.3-6.9c3,3.9,6.4,7.5,10.2,10.8
			c-0.9,3.5-1.4,7-1.5,10.7c-8.5,2.7-15.3,8.1-18.7,15.8c-7.4,16.7,3.9,37.8,25.1,47.1c15.2,6.7,31.5,5.6,42.1-1.8
			c9.3,7.5,27.2,12.6,47.7,12.6c30.1,0,54.5-11,54.5-24.5c0-3-1.2-5.9-3.4-8.5c0.8,0,1.6,0,2.4,0c29.3,0,53-13.2,53-29.5
			c0-4.9-2.1-9.4-5.9-13.5C1992.8,1210.5,1998,1205,1998,1199z M1417.3,1096.8c0.1-0.3,0.3-0.6,0.4-1c0.4,0.5,0.9,1,1.3,1.4
			C1418.5,1097.1,1417.9,1097,1417.3,1096.8z"/>
		<path class="st57" d="M1901.2,1371.9c6.2-3,9.8-6.6,9.8-10.4c0-10.8-28.4-19.5-63.5-19.5s-63.5,8.7-63.5,19.5c0,3.1,2.3,6,6.5,8.6
			c-1,0-2-0.1-3-0.1c-22.9,0-41.5,12.3-41.5,27.5c0,13.9,15.6,25.4,35.9,27.2c0.1,0.3,0.3,0.6,0.4,0.8c-6.9,4-11.3,10.3-11.3,17.4
			c0,12.2,13,22,29,22c12,0,22.3-5.5,26.7-13.4c6.2,1.5,13.1,2.4,20.3,2.4c28.2,0,51-13,51-29c0-3.5-1.1-6.9-3.1-10
			c25-2.9,43.1-11.6,43.1-22C1938,1383.5,1922.9,1375.4,1901.2,1371.9z"/>
	</g>
</g>
</svg>
