<?xml version="1.0" encoding="utf-8"?>
<!-- Generator: Adobe Illustrator 24.0.2, SVG Export Plug-In . SVG Version: 6.00 Build 0)  -->
<svg version="1.1" id="Layer_1" xmlns="http://www.w3.org/2000/svg" xmlns:xlink="http://www.w3.org/1999/xlink" x="0px" y="0px"
	 viewBox="0 0 1949.8 2690.1" style="enable-background:new 0 0 1949.8 2690.1;" xml:space="preserve">
<style type="text/css">
	.st0{fill:#423C66;}
	.st1{fill:url(#SVGID_1_);}
	.st2{fill:#687831;}
	.st3{fill:#97B13D;}
	.st4{fill:#BDD657;}
	.st5{fill:#996A4A;}
	.st6{fill:#697B33;}
	.st7{fill:#98B23E;}
	.st8{fill:#805E45;}
	.st9{fill:#F2F22F;}
	.st10{fill:#EDD815;}
	.st11{fill:#562B0E;}
	.st12{fill:url(#SVGID_2_);}
	.st13{fill:url(#SVGID_3_);}
	.st14{fill:url(#SVGID_4_);}
	.st15{fill:url(#SVGID_5_);}
	.st16{fill:url(#SVGID_6_);}
	.st17{fill:url(#SVGID_7_);}
	.st18{fill:url(#SVGID_8_);}
	.st19{fill:url(#SVGID_9_);}
	.st20{fill:url(#SVGID_10_);}
	.st21{fill:url(#SVGID_11_);}
	.st22{fill:url(#SVGID_12_);}
	.st23{fill:url(#SVGID_13_);}
	.st24{fill:url(#SVGID_14_);}
	.st25{fill:#171516;}
	.st26{fill:url(#SVGID_15_);}
	.st27{fill:url(#SVGID_16_);}
	.st28{fill:url(#SVGID_17_);}
	.st29{fill:url(#SVGID_18_);}
	.st30{fill:url(#SVGID_19_);}
	.st31{fill:url(#SVGID_20_);}
	.st32{fill:url(#SVGID_21_);}
	.st33{fill:url(#SVGID_22_);}
	.st34{fill:url(#SVGID_23_);}
	.st35{fill:url(#SVGID_24_);}
	.st36{fill:url(#SVGID_25_);}
	.st37{fill:url(#SVGID_26_);}
	.st38{fill:url(#SVGID_27_);}
	.st39{fill:url(#SVGID_28_);}
	.st40{fill:url(#SVGID_29_);}
	.st41{fill:url(#SVGID_30_);}
	.st42{fill:url(#SVGID_31_);}
	.st43{fill:url(#SVGID_32_);}
	.st44{fill:#F6DC85;}
	.st45{fill:url(#SVGID_33_);}
	.st46{fill:#EC5617;}
	.st47{fill:url(#SVGID_34_);}
	.st48{fill:url(#SVGID_35_);}
	.st49{fill:url(#SVGID_36_);}
	.st50{fill:url(#SVGID_37_);}
	.st51{fill:url(#SVGID_38_);}
	.st52{fill:#363254;}
	.st53{fill:url(#SVGID_39_);}
	.st54{fill:#322E4E;}
	.st55{fill:url(#SVGID_40_);}
	.st56{fill:#2E2B48;}
	.st57{fill:#2A2742;}
</style>
<g>
	<polygon class="st0" points="799.2,2395.7 786.2,2094.7 802.2,2256.7 844.2,2130.7 811.2,2268.7 826.2,2393.7 	"/>
	<polygon class="st0" points="861.2,2393.7 855.2,2235.7 844.2,2151.7 863.2,2230.7 883.2,2220.7 897.2,2161.7 890.2,2217.7 
		936.2,2197.7 865.2,2240.7 888.2,2390.7 	"/>
	<path class="st0" d="M969.5,2140.2c11.6-7.1,19.2-19.1,19.2-32.6c0-15.1-9.5-28.3-23.4-34.9c7.2-8.5,11.4-18.9,11.4-30.1
		c0-29-28.2-52.5-63-52.5c-14.3,0-27.4,4-38,10.6c-8-35.8-31.2-61.6-58.5-61.6c-28.6,0-52.6,28.2-59.5,66.4c-2.3-0.3-4.6-0.4-7-0.4
		c-25.4,0-46,16.6-46,37c0,8.4,3.5,16.1,9.3,22.4c-21.6,6.7-37.3,26.8-37.3,50.6c0,28,21.7,50.9,49.3,52.9c-0.2,1.4-0.3,2.7-0.3,4.1
		c0,17.1,13.9,31,31,31c12.5,0,23.3-7.4,28.2-18.1c21.5-0.9,40.3-12.5,51.1-29.6c8.7,30,27.3,50.7,48.8,50.7
		c13.5,0,25.8-8.1,35.2-21.6c4,16.5,17.1,28.6,32.8,28.6c18.8,0,34-17.5,34-39C986.7,2159.6,979.8,2146.9,969.5,2140.2z"/>
</g>
<g>
	<polygon class="st0" points="1293.3,2436.7 1265.1,2154.7 1243.1,2427.7 	"/>
	<polygon class="st0" points="1196.6,2428.7 1208.2,2184.7 1169,2420.7 	"/>
	<polygon class="st0" points="1128.5,2347.7 1116.2,2190.7 1115.3,2296.7 1087,2233.8 1087,2243.9 1110,2312.7 1117.1,2355.7 
		1100.4,2406.7 1148.8,2404.7 1169.1,2205.7 	"/>
	<polygon class="st0" points="1274.2,2295.7 1337.2,2212.7 1272.2,2276.7 	"/>
	<polygon class="st0" points="1258.2,2295.7 1181.2,2204.7 1229.2,2250.7 1240.2,2227.7 1236.2,2254.7 1261.2,2276.7 	"/>
	<circle class="st0" cx="1249.7" cy="2085.1" r="69"/>
	<path class="st0" d="M1383.3,2177.9c8.4-11.8,13.4-26.2,13.4-41.8c0-26.7-14.6-50.1-36.2-62.5c1.5-5.6,2.2-11.5,2.2-17.5
		c0-38.1-30.9-69-69-69c-8.8,0-17.2,1.7-25,4.7c-7.3-30.2-34.6-52.7-67-52.7c-29.5,0-54.6,18.5-64.5,44.4c-6.8-2.2-14-3.4-21.5-3.4
		c-38.1,0-69,30.9-69,69c0,8.8,1.7,17.3,4.7,25.1c-38.7,8.6-67.7,43.1-67.7,84.4c0,47.8,38.7,86.5,86.5,86.5
		c19.6,0,37.7-6.5,52.2-17.5c9.8,14.2,26.2,23.5,44.8,23.5c19,0,35.6-9.7,45.4-24.4c7.1,3.4,15.1,5.4,23.6,5.4
		c23.1,0,42.8-14.4,50.8-34.7c3,1.9,6.2,3.5,9.5,4.9c-1.8,5.4-2.8,11.2-2.8,17.2c0,30.1,24.4,54.5,54.5,54.5s54.5-24.4,54.5-54.5
		C1402.7,2202.9,1395.2,2187.9,1383.3,2177.9z"/>
</g>
<linearGradient id="SVGID_1_" gradientUnits="userSpaceOnUse" x1="1300.2" y1="-790.4586" x2="1300.2" y2="-1121.2661" gradientTransform="matrix(1 0 0 1 0 3480.5518)">
	<stop  offset="0.2961" style="stop-color:#2A2742"/>
	<stop  offset="0.481" style="stop-color:#2E2A48"/>
	<stop  offset="0.5922" style="stop-color:#322E4E"/>
	<stop  offset="0.8128" style="stop-color:#363254"/>
	<stop  offset="1" style="stop-color:#413B65"/>
</linearGradient>
<path class="st1" d="M624.7,2459.1c148.1-85.2,400.6-169.1,699-10c64.1,34.2,275.2,75.9,400,130c60,26,212,88,327,61
	c156.5-36.7,179-17,311,20c88.5,24.8,325,30,325,30h-2773c0,0,208-33.5,329-105C362.8,2514.2,532.5,2512.1,624.7,2459.1z"/>
<g>
	<g>
		<path class="st2" d="M1072.5,2235.2c0.3-0.1,0.6-0.2,0.9-0.2c-1.3-0.6-2.3-1.7-2.8-3.2c-0.9-2.8,0.7-5.8,3.5-6.6
			c2.8-0.9,5.8,0.7,6.6,3.5c0.1,0.4,0.2,0.7,0.2,1.1c0.6-0.8,1.5-1.4,2.5-1.7c2.8-0.9,5.8,0.7,6.6,3.5c0.1,0.3,0.2,0.6,0.2,1
			c0.6-2.1,2.3-3.8,4.5-4.5c3.6-1.1,7.4,0.9,8.5,4.5c0.7,2.4,0.1,4.9-1.5,6.6c1.3,0.8,2.4,2.1,2.9,3.8c1.1,3.6-0.9,7.4-4.5,8.5
			c-1.1,0.3-2.3,0.4-3.3,0.2c-0.5,2.3-2.2,4.2-4.6,4.9c-3.6,1.1-7.4-0.9-8.5-4.5c0-0.1,0-0.2-0.1-0.3c-0.1,0-0.2,0.1-0.2,0.1
			c-2.8,0.9-5.8-0.7-6.6-3.5c-0.4-1.3-0.3-2.6,0.3-3.8c-0.4,0.3-0.9,0.5-1.5,0.7c-2.8,0.9-5.8-0.7-6.6-3.5
			C1068.1,2239.1,1069.7,2236.1,1072.5,2235.2z"/>
		<path class="st3" d="M1073.4,2235c-1.3-0.6-2.3-1.7-2.8-3.2c-0.9-2.8,0.7-5.8,3.5-6.6c2.8-0.9,5.8,0.7,6.6,3.5
			c0.1,0.4,0.2,0.7,0.2,1.1c0.6-0.8,1.5-1.4,2.5-1.7c2.8-0.9,5.8,0.7,6.6,3.5c0.1,0.3,0.2,0.6,0.2,1c0.6-2.1,2.3-3.8,4.5-4.5
			c3.6-1.1,7.4,0.9,8.5,4.5c0.1,0.3,0.2,0.7,0.2,1c-0.9,2.7-3.6,5-6.2,4.5c1.2,2.3-0.1,4.8-3.6,5.3c-1.2,4.6-7.1,2.7-7.2,0.6
			c-1.8,1.1-3.4,1-5.6,0.7s-5.3-5.2-4.5-7.6c-1.2,0.2-2.6-0.7-3.9-1.9C1072.9,2235.1,1073.1,2235.1,1073.4,2235z"/>
		<path class="st4" d="M1080.8,2228.7c0.1,0.4,0.2,0.7,0.2,1.1c0.6-0.8,1.5-1.4,2.5-1.7c2.8-0.9,5.8,0.7,6.6,3.5
			c0.1,0.3,0.2,0.6,0.2,1c0.6-2.1,2.3-3.8,4.5-4.5c1.7-0.5,3.4-0.3,4.9,0.4c0.3,1,0.4,2.2-0.2,3.2c-1,1.9-4.7,5.2-8.2,2.5
			c-1.6,1.6-8.2,2.5-8.7-2.6c-1.4,0.4-7.3-1.2-6.1-6.5C1078.5,2225.4,1080.2,2226.8,1080.8,2228.7z"/>
	</g>
	<path class="st5" d="M1112.9,2377.5c-33-13.6-20.3-10.1-40.9-22.8c-15.6-9.6-10.4-30.6-13.3-36.1c-2.8-5.6-5-18.2-5-23.8
		s-4.4-21.2-1.3-23.8s10-5.3,10-9s1.3-12.9,4.6-15.9s14.9-8.9,11.1-12.6c-3.7-3.7-2.9-8.3-6-10.4c-3.1-2.1-9-10-2.5-14.7
		s13.7-5.3,16.3-2.2c2.6,3.1,5.4,5,5,2s1.3-3.5,4.6-3.8c1.7-0.1,3.5-1.1,4.9-2.3l-5-2.5c-0.6,0.3-1.4,0.6-2.5,0.7
		c-4.5,0.6-7.8,0.8-12.3,0.5s-9.3-2.7-11.9-1.2c-1.2,0.7-3.4,2.1-5.6,3.9c-0.4,0.5-0.9,0.9-1.4,1.3c-0.4,0.3-0.8,0.6-1.2,0.9
		c0.1,0,0.2,0,0.2-0.1c-1.6,1.5-2.8,3.2-3.2,4.7c-1.1,4.1,12.3,17.9,10.7,20.3c-1.7,2.4-1.7,5.8-8,12s-5.2,9.2-7.9,13.9
		c-2.8,4.7-9.9,7.2-10.6,12.4s-0.9,16.1-5.7,15.6c-11.4,3.8-33.5,0.3-34.4-3.4c-1-3.7-17-3.4-11.1-18.7c1.8-9.4,12.4-18.9,16.3-29.1
		c0.8-2.1,0.3-5.7-4-8.6c-4.9-3.3-11.3,0.5-10.8-6.2s1.6-5.2-1.9-11.1c-3.6-5.9-9.9-6.2-7.3-1.2s4.3,6.3,4.7,12.1s2.5,4.4,6.6,6.5
		s10.8,3.4,9.2,7.7s-9.5,3.2-10.3,10.7c-0.9,7.5-12.7,19.3-11.5,25.4c1.2,6.1,7.7,10.7,5.7,14.8s-6.8,9.2,0.4,9.5s19.9,4.7,26.3,5
		c6.3,0.3,14.5-5,17.9,0.4s3.2,9.5,6.6,16.7s7.7,7.9,8.1,15.6c0.4,7.6-3.8,12.5-0.6,22.9c3.2,10.4,7,10.1,1.8,18.7
		c-4.3,7.1-7.6,10.3-5.9,15.3c-0.6-6.3,10.2-15.6,14-10.9c6,7.4,12.5,1.5,8.4,16.8c10-25.3,30.9-12.6,26.6-14.8
		C1069.4,2368.2,1112.9,2377.5,1112.9,2377.5z"/>
	<g>
		<path class="st3" d="M940.8,2159.5c0-3.3,1-6.3,2.7-8.8c-0.4-1.6-0.6-3.2-0.6-4.9c0-10.7,8.6-19.3,19.3-19.3
			c6.3,0,12,3.1,15.5,7.8l0.2-0.1c-0.4-1.1-0.6-2.3-0.6-3.5c0-6.2,5-11.2,11.2-11.2c3.2,0,6,1.3,8.1,3.4c-0.2-1-0.4-2-0.4-3.1
			c0-7.6,6.1-13.7,13.7-13.7c4.9,0,9.2,2.6,11.6,6.5c3.4,0.7,6.1,3.4,6.8,6.8c1.2-0.4,2.4-0.6,3.7-0.6c3.9,0,7.3,2,9.3,5l2.3,0.6
			c1.4-6,6.8-10.5,13.3-10.5c3.1,0,6,1.1,8.3,2.8c2.5-5,7.8-8.5,13.8-8.5c6.9,0,12.8,4.5,14.7,10.8c1.6-1.9,4-3.1,6.7-3.1
			c4.4,0,8,3.2,8.7,7.5c1.5-1.2,3.3-1.8,5.4-1.8c4.8,0,8.8,3.9,8.8,8.8c0,0.7-0.1,1.4-0.3,2.1c1.2-0.7,2.6-1,4.1-1
			c3.2,0,5.9,1.7,7.5,4.2c1-0.2,2-0.3,3.1-0.3c8.5,0,15.4,6.9,15.4,15.4s-6.9,15.4-15.4,15.4c-3.6,0-6.9-1.2-9.5-3.3
			c0,0.2,0,0.3,0,0.5c0,7.6-6.1,13.7-13.7,13.7c-1.5,0-2.9-0.2-4.2-0.7l-10.9,10.5l-68.1,10.4c-0.6,7.9-7.3,14.2-15.4,14.2
			c-5.5,0-10.3-2.9-13-7.2c-3.5,5.2-9.4,8.6-16.1,8.6c-10.7,0-19.3-8.6-19.3-19.3c0-0.1,0-0.3,0-0.4c-9.8-0.9-17.5-9.1-17.5-19.2
			c0-0.1,0-0.2,0-0.3C944.6,2171.1,940.8,2165.7,940.8,2159.5z"/>
		<path class="st4" d="M962.2,2126.5c6.3,0,12,3.1,15.5,7.8l0.2-0.1c-0.4-1.1-0.6-2.3-0.6-3.5c0-6.2,5-11.2,11.2-11.2
			c3.2,0,6,1.3,8.1,3.4c-0.2-1-0.4-2-0.4-3.1c0-7.6,6.1-13.7,13.7-13.7c4.9,0,9.2,2.6,11.6,6.5c3.4,0.7,6.1,3.4,6.8,6.8
			c1.2-0.4,2.4-0.6,3.7-0.6c3.9,0,7.3,2,9.3,5l2.3,0.6c1.4-6,6.8-10.5,13.3-10.5c3.1,0,6,1.1,8.3,2.8c2.5-5,7.8-8.5,13.8-8.5
			c6.9,0,12.8,4.5,14.7,10.8c1.6-1.9,4-3.1,6.7-3.1c4.4,0,8,3.2,8.7,7.5c1.5-1.2,3.3-1.8,5.4-1.8c4.8,0,8.8,3.9,8.8,8.8
			c0,0.7-0.1,1.4-0.3,2.1c1.2-0.7,2.6-1,4.1-1c2.6,0,4.9,1.2,6.5,3c-0.5,2-1.9,3.7-5.5,3.4c-7-0.7-8.4-2.8-7-7
			c-1.4,2.8-2.8,2.8-5.6,0.7c0,6.3-3.5,9.1-9.1,9.8s-10.5-1.4-11.9-4.2c-3.5,2.8-13.3-2.8-11.9-7c-3.5,5.6-8.4,2.8-9.8-0.7
			c0.7,6.3-5.6,12.6-11.2,13.3s-16.1-2.8-14.7-11.2c-5.6,3.5-8.4,0.7-9.1-2.1c-4.2,2.1-14.7,2.8-14-7c-3.5,2.8-9.1,0.7-9.8-4.2
			c-4.9,4.9-4.2,8.4-11.9,7c-2.1,6.3-8.4,11.9-15.4,5.6c3.5,10.5-2.8,23.1-12.6,16.1c-6.3,7.7-16.8,1.4-16.1-4.9
			c-2.8,2.3-9.3,5.9-14.7,2.4C943.7,2134.4,952.1,2126.5,962.2,2126.5z"/>
		<path class="st2" d="M940.8,2159.5c0-1.5,0.2-3,0.6-4.4c4.3,0.3,8.4,5.2,7.8,10c8.4-2.8,13.3,2.8,14,7.7c2.8-2.8,5.6,0,8.4,2.8
			c7-4.2,10.5,2.1,9.8,7c3.5-0.7,5.6-0.7,7.7,7c2.8-2.8,5.6-4.2,10.5,0c-5.6-13.3,2.1-24.5,8.4-28.1c6.3-3.5,19.6,0,21.7,7
			c5.6-11.2,18.2-4.9,20.3,0c0-3.5,6.3-7.7,9.1-1.4c0-5.6,6.3-9.1,11.2-9.8c4.9-0.7,12.6,2.8,13.3,9.1c1.4-0.7,3.5-3.5,4.9,2.1
			c3.5-3.5,13.3-2.1,18.9,0c0-7,7.7-9.8,13.3-9.1c-1.4-14.7,14-12.6,17.5-9.1c-0.8-6.9,2.9-10.6,7.1-12.7c4.4,2.7,7.3,7.6,7.3,13.1
			c0,8.5-6.9,15.4-15.4,15.4c-3.6,0-6.9-1.2-9.5-3.3c0,0.2,0,0.3,0,0.5c0,7.6-6.1,13.7-13.7,13.7c-1.5,0-2.9-0.2-4.2-0.7l-10.9,10.5
			l-68.1,10.4c-0.6,7.9-7.3,14.2-15.4,14.2c-5.5,0-10.3-2.9-13-7.2c-3.5,5.2-9.4,8.6-16.1,8.6c-10.7,0-19.3-8.6-19.3-19.3
			c0-0.1,0-0.3,0-0.4c-9.8-0.9-17.5-9.1-17.5-19.2c0-0.1,0-0.2,0-0.3C944.6,2171.1,940.8,2165.7,940.8,2159.5z"/>
	</g>
	<g>
		<path class="st6" d="M1147.5,2165.6c-0.3,0.1-0.6,0.2-0.9,0.2c-1.3-4.1-5.6-6.7-9.9-5.7c-2.8,0.6-5,2.6-6.1,5.1
			c-1.2-1.3-3.1-1.9-4.9-1.5c-2.4,0.5-4.1,2.6-4.2,5c-0.9-0.5-1.9-0.6-3-0.4c-1.7,0.4-3,1.7-3.4,3.3c-3-2-6.7-2.9-10.6-2.1
			c-3.1,0.7-5.7,2.3-7.5,4.6c-1.9-2.7-5.3-4.2-8.8-3.4c-1.3,0.3-2.5,0.9-3.6,1.7l0,0c-0.5-2.4-2.9-3.9-5.3-3.4
			c-1.5,0.3-2.7,1.4-3.2,2.7c-2.5-2.1-5.9-3.1-9.4-2.4c-3.9,0.8-6.8,3.7-8,7.2c-1.9-0.7-4.1-0.9-6.2-0.5c-5.9,1.3-9.6,7.1-8.3,13
			c0.5,2.4,1.8,4.5,3.6,6c-3.3,2.5-5,6.7-4.1,11s4.4,7.5,8.5,8.4c0,0,0,0,0,0.1c1.3,5.8,7,9.6,12.8,8.4c-0.5,1.9-0.5,4-0.1,6.1
			c1.6,7.3,8.8,12,16.1,10.4c5.6-1.2,9.6-5.7,10.5-11c1.2,0.3,2.5,0.3,3.7,0c3.7-0.8,6.4-4,6.7-7.6c1.8,1.2,4.1,1.6,6.4,1.1
			c3.4-0.7,5.9-3.4,6.5-6.6c2.3,0.9,4.9,1.1,7.5,0.5c4.4-0.9,7.8-3.9,9.5-7.7c0.6,0,1.2-0.1,1.8-0.2c3.9-0.9,6.6-4.3,6.7-8.1
			c3.6-1.1,6.1-4.4,6.1-8.1c0.5,0,0.9,0,1.4-0.1c2.3-0.5,3.9-2.4,4.1-4.5l0,0c5.9-1.3,9.6-7.1,8.3-13
			C1159.2,2168.1,1153.3,2164.3,1147.5,2165.6z"/>
		<path class="st7" d="M1147.5,2165.6c-0.3,0.1-0.6,0.2-0.9,0.2c-1.3-4.1-5.6-6.7-9.9-5.7c-2.8,0.6-5,2.6-6.1,5.1
			c-1.2-1.3-3.1-1.9-4.9-1.5c-2.4,0.5-4.1,2.6-4.2,5c-0.9-0.5-1.9-0.6-3-0.4c-1.7,0.4-3,1.7-3.4,3.3c-3-2-6.7-2.9-10.6-2.1
			c-3.1,0.7-5.7,2.3-7.5,4.6c-1.9-2.7-5.3-4.2-8.8-3.4c-1.3,0.3-2.5,0.9-3.6,1.7l0,0c-0.5-2.4-2.9-3.9-5.3-3.4
			c-1.5,0.3-2.7,1.4-3.2,2.7c-2.5-2.1-5.9-3.1-9.4-2.4c-3.9,0.8-6.8,3.7-8,7.2c-1.9-0.7-4.1-0.9-6.2-0.5c-5.9,1.3-9.6,7.1-8.3,13
			c0.5,2.4,1.8,4.5,3.6,6c-3.3,2.5-5,6.7-4.1,11s4.4,7.5,8.5,8.4c0,0,0,0,0,0.1c0.1,0.4,0.2,0.7,0.3,1.1c1.6-0.1,3-0.6,3.8-1.7
			c0.6,2.9,4.2,8.1,10,4.5c1.2,2.8,7.5,6.8,14.9,2.2s6.9-6.9,7.3-8.2c2.8,1.8,9.1-2.6,6.2-7.4c4.2-0.3,5.9-0.7,5-4.7
			c3.2,6.5,10.3,8.6,14.7,6.5c4.4-2.2,9.5-6.3,7-12.4c4-0.9,6-3.1,4.8-5.9c2.6,0.7,3.4,1.7,4.9-2.3c1.2,8.2,15.3,3.9,11.3-3.7
			c4.5,1.4,10.4-4.7,7.1-8.8c3.1,0.3,6.7-1.1,7.2-5.8C1154.2,2165.8,1150.8,2164.9,1147.5,2165.6z"/>
		<path class="st4" d="M1093.4,2171.1c-1.6-0.7-3.3-0.9-5.1-0.5c-1.3,0.3-2.5,0.9-3.6,1.7l0,0c-0.5-2.4-2.9-3.9-5.3-3.4
			c-1.5,0.3-2.7,1.4-3.2,2.7c-2.5-2.1-5.9-3.1-9.4-2.4c-3.9,0.8-6.8,3.7-8,7.2c-1.9-0.7-4.1-0.9-6.2-0.5c-5.9,1.3-9.6,7.1-8.3,13
			c0.5,2.4,1.8,4.5,3.6,6c-1.8,1.3-3.1,3.1-3.8,5.2c1.8,0.4,4,0.2,6-1.3c3.6,2.8,12.2,3.4,11.8-3.8c3.8-2,3.5-3.2,3-5.5
			c2.3-0.5,6.3-4.4,3.9-6.9c2.4-2.9,4.7-3.4,3.4-6.8c2.5,3.1,6.2,3.5,8.6,0.6C1082.1,2180.1,1094.5,2181.9,1093.4,2171.1z"/>
		<path class="st4" d="M1147.5,2165.6c-0.3,0.1-0.6,0.2-0.9,0.2c-1.3-4.1-5.6-6.7-9.9-5.7c-2.8,0.6-5,2.6-6.1,5.1
			c-1.2-1.3-3.1-1.9-4.9-1.5c-2.4,0.5-4.1,2.6-4.2,5c-0.9-0.5-1.9-0.6-3-0.4c-1.7,0.4-3,1.7-3.4,3.3c-3-2-6.7-2.9-10.6-2.1
			c-2.4,0.5-4.6,1.7-6.3,3.3c0.1,3,0.6,6,3.3,6.7c0.2,6.6,3.1,11.4,7.7,10.4s8.7-4.3,8-7.8c4.3,0.3,6.1-6.5,4.5-8.5
			c0.3-1.3,4.9,0.2,4-3.9c3.1,0.5,4.4,0.9,4.9-2.3c1.7,2.1,5.2,4.3,7.3,0.2c1.1,2.2,5.6,3.6,8,0.7c0.7,3.2,7.6,6.5,8.6-1.9
			C1152.4,2165.4,1149.9,2165.1,1147.5,2165.6z"/>
	</g>
	<g>
		<path class="st2" d="M945.7,2194.1c0.6-0.2,1.1-0.3,1.7-0.4c-2.4-1.2-4.3-3.3-5.2-6c-1.6-5.2,1.3-10.8,6.6-12.4
			c5.3-1.6,10.8,1.3,12.4,6.6c0.2,0.7,0.3,1.4,0.4,2.1c1.2-1.4,2.8-2.6,4.7-3.2c5.2-1.6,10.8,1.3,12.4,6.6c0.2,0.6,0.3,1.2,0.4,1.8
			c1.2-3.9,4.2-7.2,8.5-8.5c6.7-2.1,13.9,1.7,16,8.4c1.4,4.5,0.1,9.2-2.9,12.5c2.5,1.6,4.5,4,5.4,7c2.1,6.7-1.7,13.9-8.4,16
			c-2.1,0.6-4.2,0.7-6.2,0.3c-1,4.2-4.2,7.8-8.6,9.2c-6.7,2.1-13.9-1.7-16-8.4c0-0.2-0.1-0.3-0.1-0.5c-0.2,0.1-0.3,0.1-0.5,0.2
			c-5.2,1.6-10.8-1.3-12.4-6.6c-0.8-2.4-0.5-4.9,0.5-7.1c-0.8,0.6-1.7,1-2.7,1.3c-5.2,1.6-10.8-1.3-12.4-6.6
			C937.5,2201.3,940.5,2195.8,945.7,2194.1z"/>
		<path class="st3" d="M947.4,2193.8c-2.4-1.2-4.3-3.3-5.2-6c-1.6-5.2,1.3-10.8,6.6-12.4c5.3-1.6,10.8,1.3,12.4,6.6
			c0.2,0.7,0.3,1.4,0.4,2.1c1.2-1.4,2.8-2.6,4.7-3.2c5.2-1.6,10.8,1.3,12.4,6.6c0.2,0.6,0.3,1.2,0.4,1.8c1.2-3.9,4.2-7.2,8.5-8.5
			c6.7-2.1,13.9,1.7,16,8.4c0.2,0.7,0.3,1.3,0.4,2c-1.7,5.2-6.8,9.5-11.6,8.4c2.3,4.2-0.2,9-6.8,10c-2.3,8.6-13.3,5.1-13.5,1.2
			c-3.3,2-6.3,2-10.5,1.3s-10-9.8-8.4-14.3c-2.2,0.3-4.9-1.4-7.4-3.7C946.4,2193.9,946.9,2193.8,947.4,2193.8z"/>
		<path class="st4" d="M961.3,2181.9c0.2,0.7,0.3,1.4,0.4,2.1c1.2-1.4,2.8-2.6,4.7-3.2c5.2-1.6,10.8,1.3,12.4,6.6
			c0.2,0.6,0.3,1.2,0.4,1.8c1.2-3.9,4.2-7.2,8.5-8.5c3.2-1,6.5-0.6,9.3,0.7c0.5,2,0.7,4.1-0.3,5.9c-1.9,3.6-8.9,9.7-15.4,4.8
			c-3.1,2.9-15.4,4.8-16.4-4.9c-2.6,0.8-13.7-2.2-11.4-12.2C957,2175.7,960.1,2178.2,961.3,2181.9z"/>
	</g>
	<g>
		<path class="st2" d="M1096,2205.9c0.6-0.2,1.1-0.3,1.7-0.4c-2.4-1.2-4.3-3.3-5.2-6c-1.6-5.2,1.3-10.8,6.6-12.4
			c5.2-1.6,10.8,1.3,12.4,6.6c0.2,0.7,0.3,1.4,0.4,2.1c1.2-1.4,2.8-2.6,4.7-3.2c5.2-1.6,10.8,1.3,12.4,6.6c0.2,0.6,0.3,1.2,0.4,1.8
			c1.2-3.9,4.2-7.2,8.5-8.5c6.7-2.1,13.9,1.7,16,8.4c1.4,4.5,0.1,9.2-2.9,12.5c2.5,1.6,4.5,4,5.4,7c2.1,6.7-1.7,13.9-8.4,16
			c-2.1,0.6-4.2,0.7-6.2,0.3c-1,4.2-4.2,7.8-8.6,9.2c-6.7,2.1-13.9-1.7-16-8.4c0-0.2-0.1-0.3-0.1-0.5c-0.2,0.1-0.3,0.1-0.5,0.2
			c-5.2,1.6-10.8-1.3-12.4-6.6c-0.8-2.4-0.5-4.9,0.5-7.1c-0.8,0.6-1.7,1-2.7,1.3c-5.2,1.6-10.8-1.3-12.4-6.6
			C1087.8,2213.1,1090.7,2207.5,1096,2205.9z"/>
		<path class="st3" d="M1097.7,2205.6c-2.4-1.2-4.3-3.3-5.2-6c-1.6-5.2,1.3-10.8,6.6-12.4c5.2-1.6,10.8,1.3,12.4,6.6
			c0.2,0.7,0.3,1.4,0.4,2.1c1.2-1.4,2.8-2.6,4.7-3.2c5.2-1.6,10.8,1.3,12.4,6.6c0.2,0.6,0.3,1.2,0.4,1.8c1.2-3.9,4.2-7.2,8.5-8.5
			c6.7-2.1,13.9,1.7,16,8.4c0.2,0.7,0.3,1.3,0.4,2c-1.7,5.2-6.8,9.5-11.6,8.4c2.3,4.2-0.2,9-6.8,10c-2.3,8.6-13.3,5.1-13.5,1.2
			c-3.3,2-6.3,2-10.5,1.3s-10-9.8-8.4-14.3c-2.2,0.3-4.9-1.4-7.4-3.7C1096.7,2205.7,1097.2,2205.6,1097.7,2205.6z"/>
		<path class="st4" d="M1111.5,2193.7c0.2,0.7,0.3,1.4,0.4,2.1c1.2-1.4,2.8-2.6,4.7-3.2c5.2-1.6,10.8,1.3,12.4,6.6
			c0.2,0.6,0.3,1.2,0.4,1.8c1.2-3.9,4.2-7.2,8.5-8.5c3.2-1,6.5-0.6,9.3,0.7c0.5,2,0.7,4.1-0.3,5.9c-1.9,3.6-8.9,9.7-15.4,4.8
			c-3.1,2.9-15.4,4.8-16.4-4.9c-2.6,0.8-13.7-2.2-11.4-12.2C1107.3,2187.4,1110.4,2190,1111.5,2193.7z"/>
	</g>
	<path class="st8" d="M987,2283.4c-2,4.1-6.8,9.2,0.4,9.5c7.3,0.3,19.9,4.7,26.3,5c6.3,0.3,14.5-5,17.9,0.4s3.2,9.5,6.6,16.7
		s7.7,7.9,8.1,15.6c0.4,7.6-3.8,12.5-0.6,22.9c3.2,10.4,7,10.1,1.8,18.7c-4.3,7.1-7.6,9.7-5.9,14.7c0,0,0-5.9,5.3-8.8
		c3.3-1.8,10.4-7.7,8.7-11s-0.7-5.4,1-3.7s6.2,0.1,0.8-7.6c-5.4-7.7-8.4-5-7.2-11c1.9-9.1-0.2-7.8,2.2-14.8c2-5.7,0.2-12.4-6.8-15.1
		c-6.5-2.4-10.2-16.7-5.8-15.4c4.4,1.3-2.8-11.4-12.9-9.6s0,5-11.7,5.1c-11.8,0.1-12.3-6.5-17.7-5.7s-9.9,2.3-11.3-0.1
		C984.9,2286.8,987,2283.4,987,2283.4z"/>
	<g>
		<circle class="st9" cx="1032.6" cy="2153.7" r="7.3"/>
		<g>
			<path class="st10" d="M1037.3,2149.7c0.6,0.4,1.2,1,1.5,1.7s0.5,1.5,0.5,2.2c0.1,1.5-0.4,3.1-1.4,4.4s-2.5,2.3-4.2,2.4
				c-1.6,0.2-3.1-0.4-4.2-1.2c1.4-0.3,2.7-0.6,3.7-1c1-0.5,1.7-1.1,2.3-1.9c0.6-0.8,1.1-1.8,1.4-2.9
				C1037.2,2152.2,1037.5,2151.1,1037.3,2149.7z"/>
		</g>
	</g>
	<g>
		<circle class="st9" cx="1003.2" cy="2194.4" r="7.3"/>
		<g>
			<path class="st10" d="M1007.8,2190.3c0.6,0.4,1.2,1,1.5,1.7s0.5,1.5,0.5,2.2c0.1,1.5-0.4,3.1-1.4,4.4s-2.5,2.3-4.2,2.4
				c-1.6,0.2-3.1-0.4-4.2-1.2c1.4-0.3,2.7-0.6,3.7-1c1-0.5,1.7-1.1,2.3-1.9c0.6-0.8,1.1-1.8,1.4-2.9S1008,2191.8,1007.8,2190.3z"/>
		</g>
	</g>
	<g>
		<circle class="st9" cx="1053.1" cy="2191.9" r="5.9"/>
		<g>
			<path class="st10" d="M1057.1,2188.9c0.6,0.2,1,0.7,1.3,1.3s0.4,1.2,0.5,1.8c0.1,1.2-0.2,2.5-1,3.6s-2.1,1.9-3.4,2
				s-2.5-0.4-3.4-1.2c1.2-0.4,2.1-0.7,2.8-1.1c0.7-0.4,1.2-0.9,1.6-1.5s0.8-1.3,1.1-2.1S1057.2,2190.1,1057.1,2188.9z"/>
		</g>
	</g>
	<g>
		<circle class="st9" cx="1095.8" cy="2208.9" r="5.9"/>
		<g>
			<path class="st10" d="M1099.9,2205.9c0.6,0.2,1,0.7,1.3,1.3s0.4,1.2,0.5,1.8c0.1,1.2-0.2,2.5-1,3.6s-2.1,1.9-3.4,2
				s-2.5-0.4-3.4-1.2c1.2-0.4,2.1-0.7,2.8-1.1c0.7-0.4,1.2-0.9,1.6-1.5s0.8-1.3,1.1-2.1C1099.6,2207.9,1099.9,2207.1,1099.9,2205.9z
				"/>
		</g>
	</g>
	<g>
		<circle class="st9" cx="1079.3" cy="2140.6" r="5.9"/>
		<g>
			<path class="st10" d="M1083.4,2137.5c0.6,0.2,1,0.7,1.3,1.3s0.4,1.2,0.5,1.8c0.1,1.2-0.2,2.5-1,3.6s-2.1,1.9-3.4,2
				s-2.5-0.4-3.4-1.2c1.2-0.4,2.1-0.7,2.8-1.1c0.7-0.4,1.2-0.9,1.6-1.5s0.8-1.3,1.1-2.1C1083.1,2139.6,1083.4,2138.7,1083.4,2137.5z
				"/>
		</g>
	</g>
	<g>
		<circle class="st9" cx="1106.7" cy="2122.1" r="4.4"/>
		<g>
			<path class="st10" d="M1109.7,2119.8c0.5,0.1,0.9,0.5,1.1,0.9c0.3,0.4,0.4,0.9,0.5,1.4c0.1,1-0.1,2-0.8,2.9
				c-0.6,0.9-1.7,1.5-2.8,1.5c-1.1,0-2-0.4-2.6-1.2c0.9-0.4,1.5-0.7,2-1.1c0.4-0.3,0.7-0.7,1-1c0.3-0.4,0.6-0.8,0.8-1.4
				C1109.3,2121.3,1109.6,2120.8,1109.7,2119.8z"/>
		</g>
	</g>
	<g>
		<circle class="st9" cx="1037.2" cy="2182.2" r="4.4"/>
		<g>
			<path class="st10" d="M1040.2,2179.9c0.5,0.1,0.9,0.5,1.1,0.9c0.3,0.4,0.4,0.9,0.5,1.4c0.1,1-0.1,2-0.8,2.9
				c-0.6,0.9-1.7,1.5-2.8,1.5c-1.1,0-2-0.4-2.6-1.2c0.9-0.4,1.5-0.7,2-1.1c0.4-0.3,0.7-0.7,1-1c0.3-0.4,0.6-0.8,0.8-1.4
				C1039.7,2181.4,1040.1,2180.9,1040.2,2179.9z"/>
		</g>
	</g>
	<g>
		<circle class="st9" cx="1129.1" cy="2192.8" r="4.4"/>
		<g>
			<path class="st10" d="M1132.1,2190.5c0.5,0.1,0.9,0.5,1.1,0.9c0.3,0.4,0.4,0.9,0.5,1.4c0.1,1-0.1,2-0.8,2.9
				c-0.6,0.9-1.7,1.5-2.8,1.5c-1.1,0-2-0.4-2.6-1.2c0.9-0.4,1.5-0.7,2-1.1c0.4-0.3,0.7-0.7,1-1c0.3-0.4,0.6-0.8,0.8-1.4
				C1131.7,2192.1,1132,2191.5,1132.1,2190.5z"/>
		</g>
	</g>
	<g>
		<circle class="st9" cx="988.6" cy="2147" r="5.9"/>
		<g>
			<path class="st10" d="M992.6,2144c0.6,0.2,1,0.7,1.3,1.3s0.4,1.2,0.5,1.8c0.1,1.2-0.2,2.5-1,3.6s-2.1,1.9-3.4,2
				c-1.3,0.1-2.5-0.4-3.4-1.2c1.2-0.4,2.1-0.7,2.8-1.1c0.7-0.4,1.2-0.9,1.6-1.5c0.4-0.6,0.8-1.3,1.1-2.1
				C992.4,2146,992.7,2145.2,992.6,2144z"/>
		</g>
	</g>
	<g>
		<circle class="st9" cx="1035.7" cy="2119.9" r="5.9"/>
		<g>
			<path class="st10" d="M1039.8,2116.9c0.6,0.2,1,0.7,1.3,1.3s0.4,1.2,0.5,1.8c0.1,1.2-0.2,2.5-1,3.6s-2.1,1.9-3.4,2
				s-2.5-0.4-3.4-1.2c1.2-0.4,2.1-0.7,2.8-1.1c0.7-0.4,1.2-0.9,1.6-1.5s0.8-1.3,1.1-2.1C1039.5,2118.9,1039.8,2118.1,1039.8,2116.9z
				"/>
		</g>
	</g>
	<g>
		<circle class="st9" cx="1129.9" cy="2153.7" r="7.4"/>
		<g>
			<path class="st10" d="M1134.6,2149.2c0.6,0.4,1.1,1,1.4,1.7s0.5,1.5,0.5,2.2c0.1,1.5-0.3,3.1-1.2,4.5c-0.9,1.4-2.4,2.4-4,2.6
				s-3.1-0.3-4.3-1.2c1.4-0.3,2.6-0.6,3.6-1.1c0.9-0.5,1.6-1.2,2.2-2c0.6-0.9,1-1.9,1.4-3
				C1134.5,2151.8,1134.8,2150.6,1134.6,2149.2z"/>
		</g>
	</g>
	<g>
		<circle class="st9" cx="1149.9" cy="2230.2" r="5.9"/>
		<g>
			<path class="st10" d="M1153.8,2227.2c0.6,0.2,1.1,0.8,1.3,1.3c0.3,0.6,0.4,1.2,0.5,1.9c0,1.3-0.4,2.7-1.3,3.7
				c-0.9,1.1-2.3,1.7-3.6,1.8c-1.3,0.1-2.5-0.4-3.4-1.2c1.2-0.4,2.2-0.6,2.9-1.1c0.8-0.4,1.3-0.9,1.8-1.4c0.5-0.6,0.9-1.3,1.3-2.1
				C1153.6,2229.3,1154,2228.4,1153.8,2227.2z"/>
		</g>
	</g>
	<g>
		<g>
			<circle class="st9" cx="976.5" cy="2221.7" r="4.4"/>
			<g>
				<path class="st10" d="M979.5,2219.4c0.5,0.1,0.9,0.5,1.1,0.9c0.3,0.4,0.4,0.9,0.5,1.4c0.1,1-0.1,2-0.8,2.9
					c-0.6,0.9-1.7,1.5-2.8,1.5s-2-0.4-2.6-1.2c0.9-0.4,1.5-0.7,2-1.1c0.4-0.3,0.7-0.7,1-1c0.3-0.4,0.6-0.8,0.8-1.4
					C979,2220.9,979.4,2220.4,979.5,2219.4z"/>
			</g>
		</g>
		<g>
			<path class="st11" d="M1015.9,2279.8c0.7,1.1,0.7,2.3,0.9,3.2c0.1,0.5,0.2,0.9,0.3,1.1c0.1,0.3,0.2,0.4,0.3,0.5
				c0,0.1,0.4,0.3,0.6,0.3c0.2,0.1,0.5,0.1,1,0c0.2-0.1,0.6-0.1,0.9-0.1c0.4,0,0.8,0,1.2,0.3c0.7,0.4,0.9,1,1,1.6
				c-0.5-0.2-1.1-0.4-1.4-0.4c-0.2,0-0.2,0.1-0.4,0.2c-0.1,0.1-0.3,0.2-0.5,0.4c-0.4,0.3-1.2,0.7-2,0.7c-0.4,0-0.8,0-1.1-0.1
				c-0.4-0.1-0.8-0.2-1.2-0.5c-0.8-0.5-1.2-1.4-1.4-2.1c-0.2-0.7-0.1-1.4,0-2C1014.6,2281.7,1015.2,2280.8,1015.9,2279.8z"/>
		</g>
		
			<linearGradient id="SVGID_2_" gradientUnits="userSpaceOnUse" x1="5224.1045" y1="-1203.9927" x2="5256.6538" y2="-1203.9927" gradientTransform="matrix(-1 0 0 1 6251.3906 3480.5518)">
			<stop  offset="0.1243" style="stop-color:#E56210"/>
			<stop  offset="1" style="stop-color:#651516"/>
		</linearGradient>
		<path class="st12" d="M1027.3,2253.7c-4.7,2.1,2-8.9-2-9.7s-15.5,0.8-23.6,15s-7,33.8-6.7,50.3
			C997.2,2270.8,1028.4,2253.2,1027.3,2253.7z"/>
		
			<linearGradient id="SVGID_3_" gradientUnits="userSpaceOnUse" x1="2528.9175" y1="-1303.6088" x2="2512.6777" y2="-1326.5995" gradientTransform="matrix(0.9994 -3.581569e-02 3.581569e-02 0.9994 -1452.4458 3635.4929)">
			<stop  offset="0.1043" style="stop-color:#FFD540;stop-opacity:0"/>
			<stop  offset="0.4078" style="stop-color:#FFD540"/>
			<stop  offset="0.8531" style="stop-color:#E36D15"/>
		</linearGradient>
		<path class="st13" d="M1021.1,2246.6c0.5-1.6,4.4-8,2.1-12.4c-2.2-4.3-7.7-7.6-8.7-9c-3.3-0.6-4-2.2-6.3-3.4
			c0.7-0.1,2.5-0.1,2.5-0.1s16.1,2,17.6,6.6c1.6,4.6,2,6.4,1.3,9C1027.7,2243.4,1020.7,2248,1021.1,2246.6z"/>
		
			<linearGradient id="SVGID_4_" gradientUnits="userSpaceOnUse" x1="2509.7209" y1="-1322.7183" x2="2515.9917" y2="-1322.7183" gradientTransform="matrix(0.9994 -3.581569e-02 3.581569e-02 0.9994 -1452.4458 3635.4929)">
			<stop  offset="0" style="stop-color:#E36D15"/>
			<stop  offset="1" style="stop-color:#FFD540"/>
		</linearGradient>
		<path class="st14" d="M1014.5,2225.3c-3.3-0.6-4-2.2-6.3-3.4c0.7-0.1,2.5-0.1,2.5-0.1S1015.3,2223.5,1014.5,2225.3z"/>
		
			<linearGradient id="SVGID_5_" gradientUnits="userSpaceOnUse" x1="5249.5298" y1="-1139.6614" x2="5271.2397" y2="-1139.6614" gradientTransform="matrix(-1 0 0 1 6251.3906 3480.5518)">
			<stop  offset="0" style="stop-color:#651516"/>
			<stop  offset="0.8757" style="stop-color:#E56210"/>
		</linearGradient>
		<path class="st15" d="M1001.9,2286.4c-2,5-24.6,74.8-21.4,104c2.1,19.2,8.2-22.7,8.9-29.1
			C992.6,2331.7,1001.9,2286.4,1001.9,2286.4z"/>
		
			<linearGradient id="SVGID_6_" gradientUnits="userSpaceOnUse" x1="5245.9185" y1="-1244.9762" x2="5217.1157" y2="-1195.3517" gradientTransform="matrix(-1 0 0 1 6251.3906 3480.5518)">
			<stop  offset="0.1469" style="stop-color:#E36D15"/>
			<stop  offset="0.4992" style="stop-color:#FFD540"/>
			<stop  offset="0.8503" style="stop-color:#FFD540;stop-opacity:0"/>
		</linearGradient>
		<path class="st16" d="M1007.9,2221.8c0.7-1.2,4.1-1.8,6.9-0.9c3.9-2,8.3-2.2,12.7-0.9c4.5,1.2,6-1.1,6.8-3.5
			c0,1.2,1.3,3.2-0.8,4.9c1.9,0.4,3.1,3.4,7.3,2.1c-1.1,1.4-3.4,2.9-5.7,1.6c3.3,2.7,6.4,4.4,5.3,12.1c-0.8-2.3-2.4-2.7-4.3-2.2
			c1,2.5,8,22,2,31c-5.9,9-18.4,16.2-22.5,18.9s-11.9,11.3-12.5,19.5c-3.2-4.5-16.1-42.6,19.2-59.2c3.4-1.1,12.7-13.9-0.7-19.9
			c-5.6-0.7-4.9,0.4-7-0.4c-2.1-0.9-3.1-2.4-4.3-2.6C1009.3,2222,1007.9,2221.8,1007.9,2221.8z"/>
		
			<linearGradient id="SVGID_7_" gradientUnits="userSpaceOnUse" x1="5206.2905" y1="-1256.4943" x2="5218.3628" y2="-1256.4943" gradientTransform="matrix(-1 0 0 1 6251.3906 3480.5518)">
			<stop  offset="0.1469" style="stop-color:#E36D15"/>
			<stop  offset="0.5922" style="stop-color:#FFD540"/>
			<stop  offset="0.8957" style="stop-color:#FFD540;stop-opacity:0"/>
		</linearGradient>
		<path class="st17" d="M1033,2223c1.4,0.8,8.6,3.9,12.1,1.5C1043.4,2221.8,1033,2223,1033,2223z"/>
		
			<linearGradient id="SVGID_8_" gradientUnits="userSpaceOnUse" x1="2535.0562" y1="-1318.7367" x2="2546.7197" y2="-1318.7367" gradientTransform="matrix(0.9994 -3.581569e-02 3.581569e-02 0.9994 -1452.4458 3635.4929)">
			<stop  offset="0.1043" style="stop-color:#FFD540;stop-opacity:0"/>
			<stop  offset="0.4078" style="stop-color:#FFD540"/>
			<stop  offset="0.8531" style="stop-color:#E36D15"/>
		</linearGradient>
		<path class="st18" d="M1033.6,2223.8c1.1,1.3,7.8,6.5,11.9,5.4C1044.8,2226.2,1033.6,2223.8,1033.6,2223.8z"/>
		
			<linearGradient id="SVGID_9_" gradientUnits="userSpaceOnUse" x1="5258.9766" y1="-1057.5403" x2="5258.9766" y2="-1198.2961" gradientTransform="matrix(-1 0 0 1 6251.3906 3480.5518)">
			<stop  offset="5.586592e-02" style="stop-color:#E36D15"/>
			<stop  offset="0.5084" style="stop-color:#FFD540"/>
			<stop  offset="0.933" style="stop-color:#FFD540;stop-opacity:0"/>
		</linearGradient>
		<path class="st19" d="M993.5,2386.7c0.3,3.9,1.2,20.9-0.1,30.2h-7.3c-8.1-22.6,12.6-129.2,14.5-134.6
			C1000.6,2282.3,991.5,2355.4,993.5,2386.7z"/>
		
			<linearGradient id="SVGID_10_" gradientUnits="userSpaceOnUse" x1="2532.1704" y1="-1323.8916" x2="2544.3123" y2="-1323.8916" gradientTransform="matrix(0.9994 -3.581569e-02 3.581569e-02 0.9994 -1452.4458 3635.4929)">
			<stop  offset="9.380475e-03" style="stop-color:#FFD540;stop-opacity:0"/>
			<stop  offset="0.3087" style="stop-color:#FFD540"/>
			<stop  offset="0.8531" style="stop-color:#E36D15"/>
		</linearGradient>
		<path class="st20" d="M1030.7,2221.1c1.5,0.7,8.9,3,12.2,0.3C1040.9,2218.9,1030.7,2221.1,1030.7,2221.1z"/>
		
			<linearGradient id="SVGID_11_" gradientUnits="userSpaceOnUse" x1="3633.3381" y1="-2117.5591" x2="3645.4897" y2="-2117.5591" gradientTransform="matrix(0.8851 -0.4654 0.4654 0.8851 -1201.9672 5787.749)">
			<stop  offset="0.1026" style="stop-color:#FFD540;stop-opacity:0"/>
			<stop  offset="0.5187" style="stop-color:#FFD540"/>
			<stop  offset="0.8531" style="stop-color:#E36D15"/>
		</linearGradient>
		<path class="st21" d="M1028.1,2222c1.6,0,9.4-1.2,11.1-5C1036.4,2215.6,1028.1,2222,1028.1,2222z"/>
		
			<linearGradient id="SVGID_12_" gradientUnits="userSpaceOnUse" x1="5255.2603" y1="-1068.0133" x2="5255.2603" y2="-1193.2587" gradientTransform="matrix(-1 0 0 1 6251.3906 3480.5518)">
			<stop  offset="0.1243" style="stop-color:#E56210"/>
			<stop  offset="1" style="stop-color:#651516"/>
		</linearGradient>
		<path class="st22" d="M1000.3,2287.3c-1.1,5.3-14,92.5-5.4,120.6c5.6,18.5,3.9-23.8,3.4-30.2
			C995.9,2348,1000.3,2287.3,1000.3,2287.3z"/>
		
			<linearGradient id="SVGID_13_" gradientUnits="userSpaceOnUse" x1="5252.769" y1="-1082.5133" x2="5252.769" y2="-1193.2587" gradientTransform="matrix(-1 0 0 1 6251.3906 3480.5518)">
			<stop  offset="5.586592e-02" style="stop-color:#E36D15"/>
			<stop  offset="0.5084" style="stop-color:#FFD540"/>
			<stop  offset="0.933" style="stop-color:#FFD540;stop-opacity:0"/>
		</linearGradient>
		<path class="st23" d="M1000.3,2287.3c-1.1,5.3-10.5,78.1-1.9,106.1c5.6,18.5,3.9-23.8,3.4-30.2
			C999.5,2333.6,1000.3,2287.3,1000.3,2287.3z"/>
		
			<linearGradient id="SVGID_14_" gradientUnits="userSpaceOnUse" x1="5215.5288" y1="-1202.304" x2="5260.3325" y2="-1202.304" gradientTransform="matrix(-1 0 0 1 6251.3906 3480.5518)">
			<stop  offset="0.1243" style="stop-color:#E56210"/>
			<stop  offset="1" style="stop-color:#651516"/>
		</linearGradient>
		<path class="st24" d="M1029.4,2249.4c3.6-2.5,5.4,2.6,6.1,7.2c1.1,7.7,0.9,16.1-18.8,26.5c-22.4,11.8-26.1,26.4-25.6,24.5
			C1002,2262.6,1013.3,2260.4,1029.4,2249.4z"/>
		<path class="st25" d="M1022.2,2224.1c-1-1-2-2.3-4.8-1.1c0.6,0.4,1.6,1.7,2.8,1.1C1021.5,2223.4,1022.8,2224.7,1022.2,2224.1z"/>
		
			<linearGradient id="SVGID_15_" gradientUnits="userSpaceOnUse" x1="5236.6904" y1="-1190.3351" x2="5252.7207" y2="-1190.3351" gradientTransform="matrix(-1 0 0 1 6251.3906 3480.5518)">
			<stop  offset="0" style="stop-color:#651516"/>
			<stop  offset="0.8757" style="stop-color:#E56210"/>
		</linearGradient>
		<path class="st26" d="M1014.7,2269.1c-7.4,4.7-14.9,19.7-15.7,31.5s-0.2,18.4,4.5-4.7C1008.1,2272.7,1014.7,2269.1,1014.7,2269.1z
			"/>
		
			<linearGradient id="SVGID_16_" gradientUnits="userSpaceOnUse" x1="5207.9663" y1="-1251.8586" x2="5218.0459" y2="-1251.8586" gradientTransform="matrix(-1 0 0 1 6251.3906 3480.5518)">
			<stop  offset="0.1469" style="stop-color:#E36D15"/>
			<stop  offset="0.5922" style="stop-color:#FFD540"/>
			<stop  offset="0.8957" style="stop-color:#FFD540;stop-opacity:0"/>
		</linearGradient>
		<path class="st27" d="M1033.3,2223.6c0.5,1.6,5.9,9.6,10.1,10.2C1044,2230.7,1033.3,2223.6,1033.3,2223.6z"/>
		
			<linearGradient id="SVGID_17_" gradientUnits="userSpaceOnUse" x1="5847.0205" y1="74.633" x2="5854.8389" y2="68.2717" gradientTransform="matrix(-0.8856 -0.4645 -0.4645 0.8856 6251.084 4886.2041)">
			<stop  offset="0.1469" style="stop-color:#E36D15"/>
			<stop  offset="0.5922" style="stop-color:#FFD540"/>
			<stop  offset="0.8957" style="stop-color:#FFD540;stop-opacity:0"/>
		</linearGradient>
		<path class="st28" d="M1034.5,2224.9c-0.3,1.6,0.8,11.3,4.2,13.7C1040.7,2236.1,1034.5,2224.9,1034.5,2224.9z"/>
		
			<linearGradient id="SVGID_18_" gradientUnits="userSpaceOnUse" x1="5246.2729" y1="-1175.7485" x2="5261.8062" y2="-1175.7485" gradientTransform="matrix(-1 0 0 1 6251.3906 3480.5518)">
			<stop  offset="6.703911e-02" style="stop-color:#FFD540;stop-opacity:0"/>
			<stop  offset="0.4916" style="stop-color:#FFD540"/>
			<stop  offset="0.9441" style="stop-color:#E36D15"/>
		</linearGradient>
		<path class="st29" d="M1005.1,2279.1c-7.2,5-15.2,28.9-15.5,40.7s0.7,18.4,4.2-4.9C997.5,2291.5,1005.1,2279.1,1005.1,2279.1z"/>
		
			<linearGradient id="SVGID_19_" gradientUnits="userSpaceOnUse" x1="5242.7275" y1="-1180.3987" x2="5258.8696" y2="-1180.3987" gradientTransform="matrix(-1 0 0 1 6251.3906 3480.5518)">
			<stop  offset="0" style="stop-color:#651516"/>
			<stop  offset="0.8757" style="stop-color:#E56210"/>
		</linearGradient>
		<path class="st30" d="M1008.7,2275.2c-7.2,5-15.6,27.4-16,39.2s0.5,18.4,4.3-4.9S1008.7,2275.2,1008.7,2275.2z"/>
		
			<linearGradient id="SVGID_20_" gradientUnits="userSpaceOnUse" x1="5238.8291" y1="-1184.785" x2="5256.4263" y2="-1184.785" gradientTransform="matrix(-1 0 0 1 6251.3906 3480.5518)">
			<stop  offset="6.703911e-02" style="stop-color:#FFD540;stop-opacity:0"/>
			<stop  offset="0.4916" style="stop-color:#FFD540"/>
			<stop  offset="0.9441" style="stop-color:#E36D15"/>
		</linearGradient>
		<path class="st31" d="M1012.6,2270.4c-7.4,4.7-16.4,28.2-17.3,40c-0.8,11.8-0.2,18.4,4.5-4.7
			C1004.4,2282.4,1012.6,2270.4,1012.6,2270.4z"/>
		
			<linearGradient id="SVGID_21_" gradientUnits="userSpaceOnUse" x1="5242.5947" y1="-1181.2241" x2="5263.855" y2="-1181.2241" gradientTransform="matrix(-1 -7.133434e-03 -7.133434e-03 1 6256.9927 3501.2458)">
			<stop  offset="6.703911e-02" style="stop-color:#FFD540;stop-opacity:0"/>
			<stop  offset="0.4916" style="stop-color:#FFD540"/>
			<stop  offset="0.9441" style="stop-color:#E36D15"/>
		</linearGradient>
		<path class="st32" d="M1023,2258c-7.8,4.1-18.8,26.7-20.6,38.4s-1.7,18.3,4.8-4.4C1013.8,2269.3,1023,2258,1023,2258z"/>
		
			<linearGradient id="SVGID_22_" gradientUnits="userSpaceOnUse" x1="5101.3989" y1="-1355.9836" x2="5103.0352" y2="-1340.8842" gradientTransform="matrix(-0.9983 5.860420e-02 5.860420e-02 0.9983 6202.1616 3313.2251)">
			<stop  offset="6.703911e-02" style="stop-color:#FFD540;stop-opacity:0"/>
			<stop  offset="0.4916" style="stop-color:#FFD540"/>
			<stop  offset="0.9441" style="stop-color:#E36D15"/>
		</linearGradient>
		<path class="st33" d="M1033.5,2249.5c0.6,2.2,2.6,16.3-4,22.4c-6.5,6-4.5,0-3.2-1.9"/>
		
			<linearGradient id="SVGID_23_" gradientUnits="userSpaceOnUse" x1="5953.6294" y1="652.8519" x2="5955.7007" y2="671.9626" gradientTransform="matrix(-0.7869 -0.6171 -0.6171 0.7869 6112.314 5428.6616)">
			<stop  offset="6.703911e-02" style="stop-color:#FFD540;stop-opacity:0"/>
			<stop  offset="0.4916" style="stop-color:#FFD540"/>
			<stop  offset="0.9441" style="stop-color:#E36D15"/>
		</linearGradient>
		<path class="st34" d="M1028.3,2269c-1,2-8.9,13.9-17.8,14.1s-3.4-3-1.1-3.5"/>
		
			<linearGradient id="SVGID_24_" gradientUnits="userSpaceOnUse" x1="5930.3726" y1="1146.7494" x2="5937.5547" y2="1164.8545" gradientTransform="matrix(-0.678 -0.7351 -0.7351 0.678 5888.5342 5853.6216)">
			<stop  offset="6.703911e-02" style="stop-color:#FFD540;stop-opacity:0"/>
			<stop  offset="0.4916" style="stop-color:#FFD540"/>
			<stop  offset="0.9441" style="stop-color:#E36D15"/>
		</linearGradient>
		<path class="st35" d="M1027.5,2268.5c-1.3,1.8-11,12.3-19.8,11.1s-2.8-3.5-0.5-3.7"/>
		
			<linearGradient id="SVGID_25_" gradientUnits="userSpaceOnUse" x1="6223.4541" y1="961.1213" x2="6230.6362" y2="979.2264" gradientTransform="matrix(-0.6681 -0.6302 -0.6002 0.6314 5757.8623 5583.9229)">
			<stop  offset="6.703911e-02" style="stop-color:#FFD540;stop-opacity:0"/>
			<stop  offset="0.4916" style="stop-color:#FFD540"/>
			<stop  offset="0.9441" style="stop-color:#E36D15"/>
		</linearGradient>
		<path class="st36" d="M1025.3,2265.8c-1,1.7-8.8,11.4-16.8,10.6s-2.8-3-0.8-3.2"/>
		
			<linearGradient id="SVGID_26_" gradientUnits="userSpaceOnUse" x1="-315.5997" y1="-472.3109" x2="-302.0148" y2="-438.0658" gradientTransform="matrix(0.8714 0.2899 -0.2718 0.8277 1142.0839 2811.875)">
			<stop  offset="6.703911e-02" style="stop-color:#FFD540;stop-opacity:0"/>
			<stop  offset="0.4916" style="stop-color:#FFD540"/>
			<stop  offset="0.9441" style="stop-color:#E36D15"/>
		</linearGradient>
		<path class="st37" d="M997.4,2323.3c1.2,13-5.1,33.7-0.6,40.3c4.5,6.7,4,1.1,3.2-0.9"/>
		
			<linearGradient id="SVGID_27_" gradientUnits="userSpaceOnUse" x1="-301.1053" y1="-433.186" x2="-293.55" y2="-398.4056" gradientTransform="matrix(0.8714 0.2899 -0.2718 0.8277 1142.0839 2811.875)">
			<stop  offset="0.4916" style="stop-color:#FFD540"/>
			<stop  offset="0.9441" style="stop-color:#E36D15"/>
		</linearGradient>
		<path class="st38" d="M994.5,2359.8c-1.2,7.1-4.5,31.9,0,38.6s4,1.1,3.2-0.9"/>
		
			<linearGradient id="SVGID_28_" gradientUnits="userSpaceOnUse" x1="-526.2087" y1="222.2182" x2="-518.6534" y2="256.9986" gradientTransform="matrix(0.796 0.458 -0.4316 0.7567 1507.4371 2411.5981)">
			<stop  offset="0.4916" style="stop-color:#FFD540"/>
			<stop  offset="0.9441" style="stop-color:#E36D15"/>
		</linearGradient>
		<path class="st39" d="M991,2332.2c-2.6,6.7-10.8,30.4-7.7,37.8c3,7.4,3.7,1.9,3.3-0.2"/>
		
			<linearGradient id="SVGID_29_" gradientUnits="userSpaceOnUse" x1="858.7416" y1="3545.4473" x2="861.8697" y2="3564.6721" gradientTransform="matrix(-4.008437e-02 0.9175 -0.8705 -3.472316e-02 4144.853 1603.4418)">
			<stop  offset="0.2452" style="stop-color:#FFD540;stop-opacity:0"/>
			<stop  offset="0.6298" style="stop-color:#FFD540"/>
			<stop  offset="0.9441" style="stop-color:#E36D15"/>
		</linearGradient>
		<path class="st40" d="M1027.4,2265.8c-1.9-0.5-14.2-2-19.4,4.1s0,4.1,1.7,2.9"/>
		
			<linearGradient id="SVGID_30_" gradientUnits="userSpaceOnUse" x1="5099.8564" y1="-1352.6588" x2="5115.7729" y2="-1342.6244" gradientTransform="matrix(-0.9983 5.860420e-02 5.860420e-02 0.9983 6202.1616 3313.2251)">
			<stop  offset="6.703911e-02" style="stop-color:#FFD540;stop-opacity:0"/>
			<stop  offset="0.4916" style="stop-color:#FFD540"/>
			<stop  offset="0.9441" style="stop-color:#E36D15"/>
		</linearGradient>
		<path class="st41" d="M1033,2255.7c-0.3,2.2-3.6,15.9-11.7,17.8c-8.2,2-4.1-2.3-2.2-3.4"/>
		
			<linearGradient id="SVGID_31_" gradientUnits="userSpaceOnUse" x1="5106.1006" y1="-1356.885" x2="5118.8535" y2="-1338.4298" gradientTransform="matrix(-0.9983 5.860420e-02 5.860420e-02 0.9983 6202.1616 3313.2251)">
			<stop  offset="6.703911e-02" style="stop-color:#FFD540;stop-opacity:0"/>
			<stop  offset="0.4916" style="stop-color:#FFD540"/>
			<stop  offset="0.9441" style="stop-color:#E36D15"/>
		</linearGradient>
		<path class="st42" d="M1032.4,2256.9c-0.8,2-7.2,14-15.5,13.1c-8.3-0.8-3.4-3.6-1.3-3.9"/>
		
			<linearGradient id="SVGID_32_" gradientUnits="userSpaceOnUse" x1="5099.792" y1="-1355.6487" x2="5120.5488" y2="-1350.1989" gradientTransform="matrix(-0.9983 5.860420e-02 5.860420e-02 0.9983 6202.1616 3313.2251)">
			<stop  offset="6.703911e-02" style="stop-color:#FFD540;stop-opacity:0"/>
			<stop  offset="0.4916" style="stop-color:#FFD540"/>
			<stop  offset="0.9441" style="stop-color:#E36D15"/>
		</linearGradient>
		<path class="st43" d="M1031.9,2256.7c-1.1,1.7-9.3,11.4-16.9,8.8c-7.6-2.6-2.5-4-0.5-3.9"/>
		<g>
			<path class="st44" d="M1005.7,2292.8c-0.2,2.2-0.6,4.4-1.1,6.5c-0.3,1.1-0.6,2.1-1,3.2c-0.2,0.5-0.4,1-0.6,1.5
				c-0.1,0.2-0.3,0.5-0.4,0.7c-0.1,0.1-0.2,0.2-0.4,0.3c-0.2,0-0.2-0.1-0.2-0.2c0-0.1,0-0.1,0-0.2c0,0.1,0.1,0.3,0.2,0.2
				c0,0,0.1-0.2,0.2-0.3c0.1-0.2,0.2-0.5,0.2-0.8l0.4-1.6c0.2-1.1,0.5-2.1,0.8-3.2c0.3-1.1,0.6-2.1,0.9-3.2
				C1004.9,2294.9,1005.2,2293.8,1005.7,2292.8z"/>
		</g>
		
			<linearGradient id="SVGID_33_" gradientUnits="userSpaceOnUse" x1="5101.6802" y1="-1357.5231" x2="5117.3965" y2="-1353.1554" gradientTransform="matrix(-0.9983 5.860420e-02 5.860420e-02 0.9983 6202.1616 3313.2251)">
			<stop  offset="0.1043" style="stop-color:#FFD540;stop-opacity:0"/>
			<stop  offset="0.4078" style="stop-color:#FFD540"/>
			<stop  offset="0.8531" style="stop-color:#E36D15"/>
		</linearGradient>
		<path class="st45" d="M1030.2,2257.2c-1.7,2-4.7,5.4-11.8,4.9c-8.7-0.6-1.4-4.1,0.4-3.7"/>
		<g>
			<path class="st44" d="M998.2,2307.3c0,2.2-0.2,4.4-0.6,6.6c-0.2,1.1-0.4,2.2-0.7,3.2c-0.2,0.5-0.3,1.1-0.5,1.6
				c-0.1,0.3-0.2,0.5-0.4,0.8c-0.1,0.1-0.1,0.3-0.3,0.3s-0.2-0.1-0.2-0.2c0-0.1,0-0.1,0-0.2c0,0.1,0.2,0.3,0.2,0.2
				c0,0,0.1-0.2,0.1-0.3c0.1-0.3,0.1-0.5,0.2-0.8l0.2-1.6c0.2-1.1,0.3-2.2,0.5-3.2c0.2-1.1,0.4-2.2,0.7-3.2
				C997.5,2309.5,997.8,2308.4,998.2,2307.3z"/>
		</g>
		<g>
			<path class="st44" d="M991.7,2315.6c0.2,2.2,0.1,4.4-0.1,6.6c-0.1,1.1-0.3,2.2-0.5,3.3c-0.1,0.5-0.2,1.1-0.4,1.6
				c-0.1,0.3-0.2,0.5-0.3,0.8c-0.1,0.1-0.1,0.3-0.3,0.4c-0.2,0-0.2-0.1-0.2-0.2c0-0.1,0-0.1,0-0.2c0,0.1,0.2,0.3,0.2,0.2
				c0,0,0.1-0.2,0.1-0.3c0-0.3,0.1-0.5,0.1-0.8l0.1-1.6c0.1-1.1,0.2-2.2,0.3-3.3s0.2-2.2,0.4-3.3
				C991.2,2317.7,991.4,2316.6,991.7,2315.6z"/>
		</g>
		<g>
			<path class="st44" d="M1004.6,2282.8l-1,3.5l-1.1,3.4l-2.2,6.9c-0.7,2.3-1.4,4.6-2.1,6.9c-0.3,1.1-0.6,2.3-0.9,3.5l-0.4,1.7
				c-0.1,0.6-0.2,1.2-0.4,1.8c0-2.4,0.5-4.8,1-7.2s1.2-4.7,1.9-7s1.5-4.6,2.4-6.8C1002.6,2287.2,1003.5,2285,1004.6,2282.8z"/>
		</g>
		<g>
			<path class="st44" d="M1009.7,2278.3c-0.7,1.9-1.3,3.8-2,5.7s-1.3,3.8-2,5.7c-0.6,1.9-1.3,3.8-1.8,5.8c-0.6,1.9-1.1,3.9-1.5,5.9
				c0-2,0.3-4.1,0.7-6.1s1-3.9,1.6-5.9C1006.1,2285.6,1007.7,2281.9,1009.7,2278.3z"/>
		</g>
		<g>
			<path class="st46" d="M985.7,2395.7c0.2,2,0.3,3.9,0.4,5.8c0.1,1.9,0.2,3.9,0.1,5.9c-0.7-1.9-1-3.8-1.1-5.8
				S985.1,2397.6,985.7,2395.7z"/>
		</g>
		<g>
			<path class="st46" d="M987.5,2377.8c-0.2,1.5-0.3,2.9-0.4,4.4s-0.1,3-0.1,4.4c0,3,0.1,5.9,0.3,8.9c0.2,2.9,0.5,5.9,1,8.8
				c0.1,0.7,0.3,1.4,0.6,2.1c0.1,0.2,0.1,0.3,0.2,0.4c0.1,0.1,0.2,0.2,0.2,0.2s0.1-0.1,0.2-0.2c0.1-0.1,0.2-0.3,0.2-0.5
				c0.5-1.3,0.8-2.8,1-4.3c-0.1,1.5-0.2,3-0.6,4.5c-0.1,0.2-0.1,0.4-0.2,0.6s-0.2,0.4-0.6,0.5c-0.4,0-0.6-0.2-0.7-0.4
				c-0.1-0.2-0.2-0.4-0.3-0.5c-0.3-0.7-0.5-1.4-0.7-2.2c-0.7-2.9-1-5.9-1.3-8.9c-0.2-3-0.3-6-0.1-8.9
				C986.4,2383.7,986.7,2380.7,987.5,2377.8z"/>
		</g>
		<g>
			<path class="st46" d="M998.2,2368.6c-0.1,1.4-0.2,2.7-0.2,4.1c0,1.4,0,2.7,0,4.1c0.1,2.7,0.3,5.4,0.6,8.1
				c0.3,2.7,0.7,5.4,1.4,7.9c0.1,0.3,0.2,0.6,0.4,0.9c0.1,0.3,0.4,0.5,0.4,0.5c0.1,0,0.3-0.3,0.4-0.6c0.1-0.3,0.2-0.6,0.3-0.9
				c0.4-1.3,0.5-2.7,0.8-4c0,1.4-0.1,2.7-0.3,4.1c-0.1,0.3-0.1,0.7-0.3,1c-0.1,0.2-0.1,0.3-0.2,0.5s-0.2,0.4-0.5,0.5
				c-0.4,0.1-0.6-0.1-0.8-0.3c-0.1-0.2-0.3-0.3-0.4-0.5c-0.2-0.3-0.3-0.6-0.5-1c-1-2.6-1.4-5.4-1.7-8.1c-0.3-2.7-0.5-5.5-0.4-8.2
				C997.4,2374,997.6,2371.3,998.2,2368.6z"/>
		</g>
		<g>
			<path class="st11" d="M1015,2289.4c-0.1-0.4,0.1-0.8,0.2-1.1c0.1-0.4,0.3-0.7,0.4-1s0.2-0.7,0.1-0.8c0-0.1-0.1-0.1-0.2,0.1
				c0,0.1,0,0.2,0,0.3s0,0.2,0.1,0.2l2-2.2c0.2,0.2,0.3,0.4,0.4,0.6s0.2,0.5,0.2,0.8c0,0.2,0,0.5-0.1,0.6c-0.1,0.2-0.1,0.3-0.2,0.5
				c-0.3,0.5-0.7,0.7-1,1c-0.3,0.2-0.7,0.4-1,0.6C1015.5,2288.9,1015.2,2289,1015,2289.4z"/>
		</g>
		
			<linearGradient id="SVGID_34_" gradientUnits="userSpaceOnUse" x1="6133.0801" y1="-1937.6815" x2="6140.5342" y2="-1922.8308" gradientTransform="matrix(-0.6949 2.639307e-02 3.451387e-02 0.7663 5361.6929 3577.8406)">
			<stop  offset="6.703911e-02" style="stop-color:#FFD540;stop-opacity:0"/>
			<stop  offset="0.4916" style="stop-color:#FFD540"/>
			<stop  offset="0.9441" style="stop-color:#E36D15"/>
		</linearGradient>
		<path class="st47" d="M1033,2250.3c0.4,1.4,1.6,10.4-3,14.1c-4.6,3.8-3.1,0-2.1-1.2"/>
		
			<linearGradient id="SVGID_35_" gradientUnits="userSpaceOnUse" x1="6770.3608" y1="-1122.4424" x2="6777.8149" y2="-1107.5917" gradientTransform="matrix(-0.6799 -0.1461 -0.1558 0.7511 5460.1802 4086.6831)">
			<stop  offset="6.703911e-02" style="stop-color:#FFD540;stop-opacity:0"/>
			<stop  offset="0.4916" style="stop-color:#FFD540"/>
			<stop  offset="0.9441" style="stop-color:#E36D15"/>
		</linearGradient>
		<path class="st48" d="M1033.1,2250.1c0,1.4-1,10.4-6.4,12.9s-3-0.8-1.8-1.7"/>
		
			<linearGradient id="SVGID_36_" gradientUnits="userSpaceOnUse" x1="7246.4229" y1="169.0861" x2="7253.877" y2="183.9368" gradientTransform="matrix(-0.5919 -0.365 -0.398 0.6557 5386.6729 4789.9385)">
			<stop  offset="6.703911e-02" style="stop-color:#FFD540;stop-opacity:0"/>
			<stop  offset="0.4916" style="stop-color:#FFD540"/>
			<stop  offset="0.9441" style="stop-color:#E36D15"/>
		</linearGradient>
		<path class="st49" d="M1032.8,2252.2c-0.5,1.4-4.5,9.5-10.4,10c-5.9,0.6-2.5-1.8-1.1-2.2"/>
		
			<linearGradient id="SVGID_37_" gradientUnits="userSpaceOnUse" x1="7271.2368" y1="1213.4725" x2="7278.6904" y2="1228.3234" gradientTransform="matrix(-0.4769 -0.5062 -0.5546 0.5299 5170.3359 5292.3032)">
			<stop  offset="6.703911e-02" style="stop-color:#FFD540;stop-opacity:0"/>
			<stop  offset="0.4916" style="stop-color:#FFD540"/>
			<stop  offset="0.9441" style="stop-color:#E36D15"/>
		</linearGradient>
		<path class="st50" d="M1033.2,2251.7c-0.8,1.2-6.8,8-12.6,7c-5.8-1-2-2.4-0.5-2.4"/>
	</g>
</g>
<linearGradient id="SVGID_38_" gradientUnits="userSpaceOnUse" x1="1355.2283" y1="-986.1311" x2="1355.2283" y2="-1691.1752" gradientTransform="matrix(1 0 0 1 0 3480.5518)">
	<stop  offset="7.821229e-02" style="stop-color:#322E4E"/>
	<stop  offset="0.1171" style="stop-color:#343052"/>
	<stop  offset="0.2402" style="stop-color:#363254"/>
</linearGradient>
<path class="st51" d="M1250.7,2491.1c29-12,34.9-25,45.5-44.5c18-33,2-47,1-62s12-19,9-34s-14-73-10-91s14-83,8-104s8-38-14-53
	s-58-62-55-92s20-44,11-77s-49-114-35-96s48,81,44,110s-7,45-1,61s4,36,16,50c12,14,46,17,45,36s7,28,10,50s-5,76,0,91
	s1.7,46.3,17.4,30.6c15.6-15.6,53.6-87.6,45.6-125.6s-24-70-20-110c4-40,3-56-8-88s-34-153-25-125s29,92,37,106s14,45,17,56
	c0-46,10-121,18-145s13-57,20-41c-6,25-19,79-19,101s-3,60-3,76s-2,32-7,44s1,56,5,65s5,55,6,66c15-1,35-15,45-56s10-120,11-143
	s28-64,37-76c-6,16-32.4,61.7-29.2,82.3s1.2,81.7,1.2,107.7c0,26-16,64-24,76s-31.4,28.6-34.2,46.8c-2.8,18.2-7.8,42.2-25.8,56.2
	s-39,50-44,72s-8,53-1,63s-2,56-1,69s4.5,22.5,22.5,40.5S1250.7,2491.1,1250.7,2491.1z"/>
<path class="st52" d="M1611.2,1908.3c8.8-3.3,14.5-8.4,14.5-14.2c0-8.4-11.9-15.4-28-17.4c0-0.2,0-0.4,0-0.6
	c0-11.5-11-21.4-26.9-26.1c1.9-3.2,2.9-6.5,2.9-9.9c0-5-2.2-9.8-6.1-14.2c17.1-1.4,30.1-9.1,30.1-18.3c0-10.2-16.1-18.5-36-18.5
	c-2.4,0-4.6,0.1-6.9,0.3c4.3-6.3,6.9-13.8,6.9-21.8c0-22.4-19.5-40.5-43.5-40.5c-12.7,0-24.1,5.1-32.1,13.1
	c-6.7-12.4-22-21.1-39.9-21.1c-18.8,0-34.8,9.6-40.9,23c-0.4,0.2-0.9,0.5-1.3,0.8c-10.9-14.4-29.1-23.8-49.8-23.8
	c-33.4,0-60.5,24.6-60.5,55c0,0.9,0,1.7,0.1,2.6c-5.9-2.3-12.3-3.6-19.1-3.6c-29.3,0-53,23.7-53,53c0,1.2,0.1,2.5,0.1,3.7
	c-6.9-4.2-15.9-6.7-25.6-6.7c-21.8,0-39.5,12.5-39.5,28c0,6.5,3.2,12.6,8.5,17.3c-12.5,5.5-21.5,20.1-21.5,37.2c0,3,0.3,5.9,0.8,8.7
	c-18.8,3.8-31.8,12.1-31.8,21.8c0,12.7,22.6,23.2,51,23.9c-1.9,3.8-3,8-3,12.6c0,6.7,2.4,12.8,6.3,17.5c-4.9-1.3-10.5-2-16.3-2
	c-21,0-38,9.4-38,21c0,9.7,12,17.9,28.2,20.3c-7.8,5.5-12.2,11.9-12.2,18.7c0,12.7,15.4,23.9,38.8,30.5
	c11.8,6.7,44.4,11.5,82.7,11.5c48.3,0,87.5-7.6,87.5-17c0-5.6-13.9-10.5-35.3-13.6c0.1-0.1,0.2-0.2,0.3-0.4
	c28.8-0.2,52-19.2,52-42.5c0-20.2-17.4-37-40.6-41.4c3-4.7,4.6-9.8,4.6-15.1c0-7.7-3.4-14.8-9.2-20.9c10.7-5,18.1-15.8,18.2-28.3
	c21.2-4.6,38.3-21.5,45-43.7c8.6,7.4,19.8,11.9,32,11.9c0.1,0,0.3,0,0.4,0c-6,7.8-9.4,16.7-9.4,26c0,26.9,28,49.4,66,56
	c-2,3.9-3,8.1-3,12.5c0,20.7,24,37.5,53.5,37.5s53.5-16.8,53.5-37.5c0-0.4,0-0.7,0-1.1c6.6,1,13.7,1.6,21,1.6c38.1,0,69-15.2,69-34
	C1655.7,1925.6,1637.2,1913.2,1611.2,1908.3z"/>
<linearGradient id="SVGID_39_" gradientUnits="userSpaceOnUse" x1="1445.4193" y1="-956.6807" x2="1445.4193" y2="-1661.2643" gradientTransform="matrix(1 0 0 1 0 3480.5518)">
	<stop  offset="6.443855e-02" style="stop-color:#2F2C4A"/>
	<stop  offset="0.2242" style="stop-color:#322E4E"/>
</linearGradient>
<path class="st53" d="M1455.7,2516.1c-42-49-11.5-170.5,21.5-231.5s45-169,40-202s29-74,40-115s21-132,15-106s-51,185-62,153
	s-68-121-71-171s-24-16-8,40s60,140,62,190c2,50,4,109-17,138s-50-191-55-171c-5,20,7.3,37.4,2.7,49.2c-4.6,11.8,5.7,36.8,12,62.8
	s0.3,61,6.3,80s-5,60-22,99s-66.5,137.5-100.5,176.5C1293.5,2538.1,1455.7,2516.1,1455.7,2516.1z"/>
<path class="st54" d="M1723,1926.6c6.5-4,10.7-10.4,10.7-17.5c0-3-0.7-5.8-2-8.4c7.9-3.1,13-8,13-13.6c0-7.7-9.7-14.1-23-16.3
	c1.3-1.5,2-3.1,2-4.7c0-8.8-19.9-16-44.5-16c-2.3,0-4.6,0.1-6.8,0.2c0.2-1.2,0.3-2.4,0.3-3.7c0-13-10.5-23.5-23.5-23.5
	c-2.2,0-4.3,0.3-6.3,0.9c-6.2-7.9-14.3-13.9-23.5-17.2c0.8-1.9,1.3-4,1.3-6.2c0-8.6-6.9-15.5-15.5-15.5c-4.5,0-8.6,2-11.5,5.1
	c-9.6-13.4-25.3-22.1-43-22.1c-10.6,0-20.5,3.1-28.7,8.5c-6.7-5.3-15.1-8.5-24.3-8.5c-14.1,0-26.5,7.5-33.3,18.7
	c-7.1-3.6-15.2-5.7-23.7-5.7c-23.9,0-44.1,16.2-50.1,38.2c-0.9-0.1-1.9-0.2-2.9-0.2c-14.9,0-27,13.9-27,31c0,1.2,0.1,2.4,0.2,3.6
	c-29,4.6-49.2,14.9-49.2,26.9c0,8.5,10,16.1,26.1,21.5c-1.5,1.7-2.9,3.4-4.1,5.3c-4-2.1-8.9-3.2-14-3.2c-14.4,0-26,9.2-26,20.5
	c0,8.1,5.9,15,14.5,18.4c-24.1,5.4-40.5,15.7-40.5,27.6c0,15.8,28.8,28.9,66.4,31.2c-9.6,6.3-15.4,14.2-15.4,22.8
	c0,20.2,31.3,36.5,70,36.5c2.1,0,4.1-0.1,6.1-0.1c-0.1,0.9-0.1,1.8-0.1,2.6c0,14.6,13.4,26.5,30,26.5s30-11.9,30-26.5
	c0-7.1-3.2-13.6-8.3-18.3c7.8-5.9,12.3-13,12.3-20.7c0-9.7-7.3-18.6-19.2-25.1c19.3-6.6,33.2-24.8,33.2-46.4
	c0-8.8-2.3-17.1-6.4-24.2c7.1-2.7,13.2-7.7,17.1-14c7.2,5.8,16.3,9.2,26.2,9.2c8.7,0,16.8-2.6,23.5-7.2c5.8,2,12.4,3.2,19.5,3.2
	c3.1,0,6.1-0.2,9-0.6c-6.2,4.6-10,10.6-10,17.1c0,14.6,18.8,26.5,42,26.5c3.4,0,6.7-0.3,9.8-0.7c-17.6,3.7-29.8,11.3-29.8,20.2
	c0,0.5,0.1,1,0.1,1.5c-0.2,0-0.4,0-0.6,0c-26.2,0-47.5,9.2-47.5,20.5s21.3,20.5,47.5,20.5c26,0,47-9,47.5-20.1c2,0.1,4,0.1,6,0.1
	c29.3,0,53-10.1,53-22.5c0-1.8-0.5-3.5-1.4-5.2c0.9-0.5,1.8-0.9,2.6-1.4c7,7.4,18,12.1,30.3,12.1c21.3,0,38.5-14.1,38.5-31.5
	C1749.7,1942.6,1738.5,1930.7,1723,1926.6z M1612,1960.4c0,0.2,0.1,0.4,0.1,0.5c-1.6,0.2-3.1,0.4-4.7,0.7
	C1609.1,1961.3,1610.6,1960.9,1612,1960.4z"/>
<linearGradient id="SVGID_40_" gradientUnits="userSpaceOnUse" x1="751.291" y1="-989.9586" x2="751.291" y2="-1679.9586" gradientTransform="matrix(1 0 0 1 0 3480.5518)">
	<stop  offset="7.821229e-02" style="stop-color:#332F50"/>
	<stop  offset="0.1016" style="stop-color:#343052"/>
	<stop  offset="0.2402" style="stop-color:#363254"/>
</linearGradient>
<path class="st55" d="M604.2,2490.6c17-5,62-49,64-77s1-120-9-136s-114-132-115-209c-1-77,42-258,42-222s-25,121-25,143s-2,73,8,89
	s33,99,100,171c13,17,32,15,35-7s-18-95-28-108s-24-92-12-126c3,30,23,133,35,153c9-41,43-64,39-93c-4-29-53-76-45-109s61-60,64-78
	c-16,34-55,49-54,67s16,82,31,91c15,9,18-17,42-29s65-93,74-143s46-67,56-67c-22,17-49,57-51,88s-30,109-55,128s-45,40-46,60
	s-35,65-34,84s11,78-8,110s-36,111-22,93s79-153,86-212s23-80,51-119c28-39,56-112,54-137s17-62,25-68c-8,35-23,67-20,89
	s-9,79-19,92s-42,45-39,57c42-29,72-29,78-57s24-107,44-124s-2,15-9,39s-21,65-31,107c-10,42-41,38-67,58s-48,29-46,46
	s-31,144-57,178s-35,67-37,96s5,68,40,62S604.2,2490.6,604.2,2490.6z"/>
<g>
	<path class="st54" d="M890.7,1901.6c0-0.5,0-1.1-0.1-1.6c13.9,6.8,33.7,11.1,55.6,11.1c42.2,0,76.5-15.9,76.5-35.5
		c0-11.3-11.4-21.4-29.2-27.9c0.1-0.9,0.2-1.7,0.2-2.6c0-16.9-19.6-30.6-44-31c0-0.2,0-0.3,0-0.5c0-17.9-20.6-32.5-46-32.5
		c-12.1,0-23.1,3.3-31.4,8.7c-3.1-20.7-25.9-36.7-53.6-36.7c-23.8,0-43.9,11.8-51.1,28.2c-2.3-0.1-4.5-0.2-6.9-0.2
		c-13.8,0-26.9,2.2-38.4,6.1c-4.8-16.7-21.4-29.1-41.1-29.1c-19.1,0-35.2,11.5-40.6,27.4c-14.1-7.7-32.4-12.4-52.4-12.4
		c-44.5,0-80.5,23.1-80.5,51.5c0,11,5.4,21.3,14.7,29.6c-23.7-0.6-45.7,15.8-52.1,40.6c-4.2,16.5-0.5,33.1,8.6,45.6
		c-19.3,3.3-33.2,12.4-33.2,23.2c0,3.4,1.4,6.7,3.9,9.6c-24.1,4-41.9,18.1-41.9,34.9c0,19.9,25.1,36,56,36c0.4,0,0.8,0,1.1,0
		c-0.1,0.7-0.1,1.3-0.1,2c0,16.6,24,30,53.5,30s53.5-13.4,53.5-30c0-1-0.1-2-0.3-3c31.5-4.8,55.3-26,55.3-51.5
		c0-7.4-2.1-14.5-5.7-20.9c18.5-3.9,32.4-15,34.5-28.6c7.6-0.1,14.8-1.1,21.3-3c0,0.8,0,1.7,0,2.5c0,25.7,14.6,46.5,32.5,46.5
		c5.6,0,10.8-2,15.4-5.5c9.2,12.4,24,20.5,40.6,20.5c27.9,0,50.5-22.6,50.5-50.5c0-3-0.3-5.9-0.8-8.7c4.6,0.8,9.3,1.2,14.3,1.2
		C863.2,1945.1,890.7,1925.6,890.7,1901.6z M903.6,1846.1c-1.1,0.3-2.1,0.7-3.1,1c0.2-0.4,0.3-0.7,0.5-1.1
		C901.9,1846.1,902.8,1846.1,903.6,1846.1z"/>
	<path class="st54" d="M732.7,2028.1c-6.8,0-13.3,0.6-19.3,1.7c-2.3-15-18.1-26.7-37.2-26.7c-20.7,0-37.5,13.7-37.5,30.5
		c0,5.5,1.8,10.6,4.9,15.1c-17.6,4.7-29.9,15.4-29.9,27.9c0,16.8,22.4,30.5,50,30.5s50-13.7,50-30.5c0-1.1-0.1-2.1-0.3-3.2
		c6,1.1,12.5,1.7,19.3,1.7c28.7,0,52-10.5,52-23.5C784.7,2038.6,761.4,2028.1,732.7,2028.1z"/>
	<path class="st54" d="M987.7,1953.1c-0.1,0-0.2,0-0.3,0c-6.4-12-35.4-21-70.2-21c-39.5,0-71.5,11.6-71.5,26
		c0,9.7,14.5,18.1,36,22.6c-5.7,6.6-9,14.7-9,23.4c0,22.1,21.3,40,47.5,40s47.5-17.9,47.5-40c0-1-0.1-2-0.1-3c5.8,2.5,12.7,4,20.1,4
		c21,0,38-11.6,38-26C1025.7,1964.7,1008.7,1953.1,987.7,1953.1z"/>
</g>
<g>
	<path class="st56" d="M507.7,2548.1c-44-24-66.5-59.5-37.5-117.5s124-180,130-208s53-154,67-177c14-23,32-42,38-65s13-50,26-47
		s23-15,30-30s90-89,63-74s-92,99-99,86s32-141,18-108s-72,196-74,169s-19-33-25-64s13-100,4-84s-17,82-9,112s17,60,5,83
		s-76,167-82,184s-92,159-97,136s-13-138,6-167s83-184,85-219s39-161,26-133s-43,149-57,128s-70-128-60-98s11,62,22,74s30,32,32,57
		s-32,102-54,133s-49,122-42,161s14,105-11,151s-85.5,109.5-105.5,128.5S507.7,2548.1,507.7,2548.1z"/>
	<path class="st56" d="M949.7,1809.6c0-22.5-15.2-41.7-36.7-49.6c-5.8-49.5-47.8-87.9-98.8-87.9c-16.8,0-32.7,4.2-46.5,11.5
		c-10-52.1-55.9-91.5-111-91.5c-36,0-68,16.8-88.7,43c-12.9-8.1-29.6-13-47.8-13c-38.9,0-70.8,22.4-74.2,51c-3.6-0.6-7.4-1-11.3-1
		c-25.9,0-47.4,14.7-52.1,34.1c-5.8-0.7-11.8-1.1-17.9-1.1c-52.5,0-95,28.2-95,63c0,26.8,25.3,49.7,60.9,58.8
		c-7.5,7.4-11.9,16.7-11.9,26.7c0,24.6,26.6,44.5,59.5,44.5c8.2,0,16-1.2,23.1-3.5c13,7.3,27.9,11.5,43.9,11.5
		c44.9,0,82.1-33.1,88.5-76.1c0.4-0.1,0.7-0.1,1.1-0.2c1.6,30.8,27.2,55.4,58.4,55.4c6.3,0,12.3-1,18-2.8c15.2,10,33.4,15.8,53,15.8
		c36.9,0,68.9-20.7,85.1-51c0.5,0.4,1,0.9,1.5,1.3c-2.1,7.2-3.2,14.9-3.2,22.7c0,45.8,37.2,83,83,83s83-37.2,83-83
		c0-4-0.3-7.9-0.8-11.8C934.4,1851.4,949.7,1832.1,949.7,1809.6z"/>
</g>
<g>
	<path class="st57" d="M570.2,2509.6c-20.2-28.5-40-79-12-114s53-105,57-132s37-119,87-170c50-51,53-82,32-54
		c-21,28-110,120-125,176c16-77,16-104,30-115s55-52,61-65c6-13,38-42,40-59s47-104,86-147s-51,41-54,55s-45,94-46,78s-7-152-10-129
		s6,130-10,158s-79,107-75,87s-19-78-27-126s32-97,52-119s37-53,1-16s-69,84-71,131c-9-39-71-123-86-119s-5-3,15,20s58,91,62,127
		s11,216,10,258s-32,130-33,98s10-162-10-208s-82-158-76-182s31-151,20-133s-36,86-41,119s5,90,14,99s34,63,39,84s18,169-4,112
		s-92-181-82-155c10,26,44,93,47,104s7,30,21,47s46,97,41,119s-32,39-44-16s-24-64.1-43-90c-19-26-57-143-54-122s19,110,42,133
		s47,116,47,138c0,18.9-14.1,123.9-46.4,157.5c-48.1,50-109.1,47-114.1,49c-36.2,14.2,350,3,350,3s-43.4-27.5-56-39
		C594.6,2542.8,575.1,2516.5,570.2,2509.6z"/>
	<g>
		<path class="st57" d="M819.2,1984.5c-10-22.6-32.7-38.4-59-38.4c-33.2,0-60.6,25.1-64.1,57.4c-3-0.2-6.2-0.4-9.4-0.4
			c-27.1,0-49,9.2-49,20.5s21.9,20.5,49,20.5c6.2,0,12.1-0.5,17.6-1.4c7.7,13.4,20.1,23.7,34.9,28.8c7.2,13.8,24.6,23.5,45,23.5
			c26.8,0,48.5-16.8,48.5-37.5c0-1.4-0.1-2.7-0.3-4c21.8-5.3,37.3-18.3,37.3-33.5C869.7,2002,847.7,1987,819.2,1984.5z"/>
		<path class="st57" d="M858.6,1847.6c2-6.7,3.1-13.7,3.1-21c0-40.6-32.9-73.5-73.5-73.5c-12.2,0-23.7,3-33.8,8.2
			c-12.2-28.9-40.8-49.2-74.2-49.2c-29.7,0-55.6,16.1-69.6,40c-10.1-6.9-22.3-11-35.4-11c-2.1,0-4.2,0.1-6.3,0.3
			c-14.7-13.8-34.4-22.3-56.2-22.3c-40.3,0-73.8,29.1-80.7,67.4c-11-3.5-22.7-5.4-34.8-5.4c-62.1,0-112.7,49-115.4,110.4
			c-0.7,0.1-1.5,0.2-2.2,0.3c-1.4-0.5-2.9-0.7-4.4-0.7c-5,0-9.6,2.6-13.2,7c-17.4,10-29.3,29.8-29.3,52.5c0,15.3,5.4,29.2,14.2,39.8
			c-27.7,5.2-46.2,14.8-46.2,25.7c0,10,15.5,18.8,39.2,24.3c-4.6,5.5-7.2,11.9-7.2,18.7c0,15.4,13.3,28.5,32,33.7
			c-27.1,8.1-45,21.8-45,37.3c0,22.2,36.4,40.6,84.3,44.3c5.5,10.9,20.3,18.7,37.7,18.7c6.9,0,13.3-1.2,19-3.4
			c12.6,14.3,31,23.4,51.5,23.4c37.8,0,68.5-30.7,68.5-68.5c0-22.9-11.3-43.2-28.6-55.6c5,0.7,10.2,1.1,15.6,1.1
			c33.1,0,60-15,60-33.5c0-14.2-15.8-26.3-38-31.2c6.8-12.9,4.8-28.4-4.3-39c5.4-8,8.7-17.5,9.3-27.7c4.2-6.5,7.7-13.5,10.5-20.8
			c6.1,3.3,13.1,5.2,20.6,5.2c23.7,0,43-19.3,43-43c0-3.1-0.3-6.1-1-9c3.6-0.1,7.2-0.3,10.7-0.6c13.5,23.1,38.6,38.6,67.3,38.6
			c22.1,0,42.1-9.2,56.3-24c12,5.6,27.4,9,44.2,9c22.2,0,41.9-5.9,54.6-15.1c12.9-2.2,24.7-7.8,34.3-15.9c4.2,0.6,8.8,1,13.5,1
			c23.2,0,42-8.3,42-18.5C890.7,1856.9,877,1849.6,858.6,1847.6z"/>
	</g>
</g>
<g>
	<path class="st57" d="M1376.7,2588.1c3-5.9,23,1,53-78c19.8-52.1,29.7-150.9,5-174c-31-29-67-49-74-63s-67.5-51.5-85.5-66.5
		s-52-56-80-71s-42-45-43-59s-20-41-35-58s-33-81-37-91s-33-73-36-94c20,44,60,140,72,154s35,45,34,54c-1,9,14,54,25,61s35,14,48,29
		s99,90,108,94s104,84,105,72s-31-52-55-70s-49-45-47-63s-28-70-40-89s-40-42-40-64s-40-171-52-189c19,29,43,86,47,74s49-77,55-82
		c-12,31-42,92-42,110s18,72,32,86s22,22,32,38c10,16,12,47,27,55s25,34,29,52s-1,27,14,40s28,30,25,3s-57-161-72-169s-24-12-17-39
		s-40-151-55-172c24,29,86,168,96,193s62,141,73,155s21-21,22-29s17-50,25-64s19-38,19-57s19-44,21-68s2-65,0-86s-3-64,2-39
		s15,91,15,106s48-92,44-69s-39,108-52,126s-34,90-36,101s-18,54-23,63s-16,72-15,86s38,143,36,165c-1.7,19.1,16,95.8,50.4,116.4
		c80.1,48.1,142.3,58.3,146.1,61.1C1728.7,2600.1,1376.7,2588.1,1376.7,2588.1z"/>
	<g>
		<path class="st57" d="M1391.2,1947.1c-6,0-11.5,1.9-16,5.1c-2.8-20.5-18.1-36.1-36.5-36.1c-20.4,0-37,19.3-37,43
			c0,6.5,1.2,12.6,3.5,18.2c-8.6,0.9-16.5,2.3-23.5,4.1c0-0.4,0-0.8,0-1.3c0-17.7-18.4-32-41-32c-5.8,0-11.2,0.9-16.2,2.6
			c-6.3-6-14.9-9.6-24.3-9.6c-19.6,0-35.5,15.9-35.5,35.5s15.9,35.5,35.5,35.5c6.7,0,13-1.9,18.3-5.1c6.4,3.2,14,5.1,22.2,5.1
			c4.7,0,9.2-0.6,13.4-1.7c4.9,5.6,15.1,10.3,28.4,13.7c3.7,10.3,20.1,18.1,39.7,18.1c7.9,0,15.4-1.3,21.6-3.5
			c2.7,7.8,10.1,13.5,18.9,13.5c11,0,20-9,20-20c0-3.7-1-7.1-2.7-10c15.2-4.8,24.7-11.8,24.7-19.5c0-1.2-0.3-2.4-0.7-3.6
			c8.8-4.6,14.7-13.8,14.7-24.4C1418.7,1959.4,1406.4,1947.1,1391.2,1947.1z"/>
		<path class="st57" d="M1694.7,1873.1c0-11.7-19.6-21.7-47.1-25.4c10-8.6,16.1-20,16.1-32.6c0-25.9-25.8-46.9-58-48
			c-0.5-34.9-28.9-63-64-63c-5.2,0-10.2,0.6-15,1.8c-19.7-28.9-52.9-47.8-90.5-47.8c-7.6,0-15.1,0.8-22.2,2.3
			c-9.9-8.2-23.4-13.3-38.3-13.3c-4.4,0-8.8,0.5-12.9,1.3c-14.9-23.6-41.2-39.3-71.1-39.3c-32.3,0-60.4,18.3-74.4,45
			c-12.6-8.8-28-14-44.6-14c-38.2,0-70,27.5-76.7,63.8c-9.2-6.8-20.5-10.8-32.8-10.8c-28.7,0-52.3,21.8-55.2,49.8
			c-5.1-1.1-10.4-1.8-15.8-1.8c-39.5,0-71.5,32-71.5,71.5c0,8.3,1.4,16.2,4,23.6c-24.6,1-44,14.7-44,31.4c0,17.4,21,31.5,47,31.5
			c2.5,0,5-0.1,7.4-0.4c-1.6,5.5-2.4,11.4-2.4,17.4c0,35.3,28.7,64,64,64c12.3,0,23.9-3.5,33.6-9.6c7.6,5.8,20.1,9.6,34.4,9.6
			c23.2,0,42-10.1,42-22.5s-18.8-22.5-42-22.5c-2.4,0-4.7,0.1-7,0.3c1.9-6.1,3-12.6,3-19.3c0-3.6-0.3-7.1-0.9-10.6
			c8.4-2.6,15.6-8.5,20.7-16.3c5.9,1.9,12.1,2.9,18.6,2.9c33.5,0,60.8-26.8,61.5-60.2c14.3,17.2,35.9,28.2,60,28.2
			c28,0,52.5-14.7,66.2-36.8c5.8,4.3,13,6.8,20.8,6.8c12.3,0,23.1-6.4,29.4-16c8.6,18.3,22.1,33.8,38.9,44.9
			c-0.2,1.3-0.2,2.7-0.2,4.1c0,19.9,16.1,36,36,36c15.1,0,27.9-9.2,33.3-22.4c10.6-0.8,20.8-3.2,30.3-6.9c3,3.9,6.4,7.5,10.2,10.8
			c-0.9,3.5-1.4,7-1.5,10.7c-8.5,2.7-15.3,8.1-18.7,15.8c-7.4,16.7,3.9,37.8,25.1,47.1c15.2,6.7,31.5,5.6,42.1-1.8
			c9.3,7.5,27.2,12.6,47.7,12.6c30.1,0,54.5-11,54.5-24.5c0-3-1.2-5.9-3.4-8.5c0.8,0,1.6,0,2.4,0c29.3,0,53-13.2,53-29.5
			c0-4.9-2.1-9.4-5.9-13.5C1689.5,1884.6,1694.7,1879.1,1694.7,1873.1z M1114,1770.9c0.1-0.3,0.3-0.6,0.4-1c0.4,0.5,0.9,1,1.3,1.4
			C1115.2,1771.2,1114.6,1771.1,1114,1770.9z"/>
		<path class="st57" d="M1597.9,2046c6.2-3,9.8-6.6,9.8-10.4c0-10.8-28.4-19.5-63.5-19.5s-63.5,8.7-63.5,19.5c0,3.1,2.3,6,6.5,8.6
			c-1,0-2-0.1-3-0.1c-22.9,0-41.5,12.3-41.5,27.5c0,13.9,15.6,25.4,35.9,27.2c0.1,0.3,0.3,0.6,0.4,0.8c-6.9,4-11.3,10.3-11.3,17.4
			c0,12.2,13,22,29,22c12,0,22.3-5.5,26.7-13.4c6.2,1.5,13.1,2.4,20.3,2.4c28.2,0,51-13,51-29c0-3.5-1.1-6.9-3.1-10
			c25-2.9,43.1-11.6,43.1-22C1634.7,2057.6,1619.6,2049.5,1597.9,2046z"/>
	</g>
</g>
</svg>
