<?xml version="1.0" encoding="utf-8"?>
<!-- Generator: Adobe Illustrator 24.0.2, SVG Export Plug-In . SVG Version: 6.00 Build 0)  -->
<svg version="1.1" id="Layer_1" xmlns="http://www.w3.org/2000/svg" xmlns:xlink="http://www.w3.org/1999/xlink" x="0px" y="0px"
	 viewBox="0 0 2752 1219" style="enable-background:new 0 0 2752 1219;" xml:space="preserve">
<style type="text/css">
	.st0{fill:url(#SVGID_1_);}
	.st1{fill:#D7E1FF;}
	.st2{fill:url(#SVGID_2_);}
	.st3{opacity:0.3;}
	.st4{fill:#7C2A28;}
	.st5{fill:#B8DD9F;}
	.st6{opacity:0.8;fill:url(#SVGID_3_);}
	.st7{fill:url(#SVGID_4_);}
	.st8{opacity:0.5;}
	.st9{fill:url(#SVGID_5_);}
	.st10{fill:none;stroke:#E8EFF9;stroke-miterlimit:10;}
	.st11{fill:#FAF7E4;}
	.st12{fill:#4A5362;}
	.st13{fill:url(#SVGID_6_);}
	.st14{fill:#A5A1A0;}
	.st15{opacity:0.5;fill:#A5A1A0;}
	.st16{fill:#EAEAD8;}
	.st17{fill:url(#SVGID_7_);}
	.st18{fill:url(#SVGID_8_);}
	.st19{fill:url(#SVGID_9_);}
	.st20{fill:#A64B3E;}
	.st21{fill:#EBEBEB;}
	.st22{fill:#EBEBEA;}
	.st23{fill:url(#SVGID_10_);}
	.st24{fill:url(#SVGID_11_);}
	.st25{fill:url(#SVGID_12_);}
	.st26{fill:url(#SVGID_13_);}
	.st27{fill:url(#SVGID_14_);}
	.st28{fill:#ECEBEB;}
	.st29{fill:url(#SVGID_15_);}
	.st30{fill:#A8271A;}
	.st31{fill:url(#SVGID_16_);}
	.st32{fill:url(#SVGID_17_);}
	.st33{fill:url(#SVGID_18_);}
	.st34{opacity:0.42;}
	.st35{fill:url(#SVGID_19_);}
	.st36{opacity:0.2;fill:#A5A1A0;}
	.st37{fill:#DBD8CA;}
	.st38{fill:#FFFFFF;}
	.st39{fill:none;stroke:#A4BFE0;stroke-miterlimit:10;}
	.st40{fill:none;stroke:#FFFFFF;stroke-width:0.5;stroke-miterlimit:10;}
	.st41{fill:#A9B8EA;}
	.st42{fill:url(#SVGID_20_);}
	.st43{fill:#4F4678;}
	.st44{fill:url(#SVGID_21_);}
	.st45{fill:url(#SVGID_22_);}
	.st46{fill:url(#SVGID_23_);}
	.st47{fill:url(#SVGID_24_);}
	.st48{fill:url(#SVGID_25_);}
	.st49{fill:url(#SVGID_26_);}
	.st50{fill:url(#SVGID_27_);}
	.st51{fill:url(#SVGID_28_);}
	.st52{fill:url(#SVGID_29_);}
	.st53{fill:url(#SVGID_30_);}
	.st54{fill:none;stroke:url(#SVGID_31_);stroke-miterlimit:10;}
	.st55{fill:url(#SVGID_32_);}
	.st56{fill:url(#SVGID_33_);}
	.st57{fill:url(#SVGID_34_);}
	.st58{fill:url(#SVGID_35_);}
	.st59{fill:url(#SVGID_36_);}
	.st60{fill:url(#SVGID_37_);}
	.st61{fill:url(#SVGID_38_);}
	.st62{fill:url(#SVGID_39_);}
	.st63{fill:url(#SVGID_40_);}
	.st64{fill:url(#SVGID_41_);}
	.st65{fill:url(#SVGID_42_);}
	.st66{fill:url(#SVGID_43_);}
	.st67{fill:url(#SVGID_44_);}
	.st68{fill:url(#SVGID_45_);}
	.st69{fill:url(#SVGID_46_);}
	.st70{fill:url(#SVGID_47_);}
	.st71{fill:url(#SVGID_48_);}
	.st72{fill:url(#SVGID_49_);}
	.st73{fill:url(#SVGID_50_);}
	.st74{fill:url(#SVGID_51_);}
	.st75{fill:url(#SVGID_52_);}
	.st76{fill:url(#SVGID_53_);}
	.st77{fill:url(#SVGID_54_);}
	.st78{fill:url(#SVGID_55_);}
	.st79{fill:url(#SVGID_56_);}
	.st80{fill:url(#SVGID_57_);}
	.st81{fill:url(#SVGID_58_);}
	.st82{fill:url(#SVGID_59_);}
	.st83{fill:url(#SVGID_60_);}
	.st84{fill:url(#SVGID_61_);}
	.st85{fill:url(#SVGID_62_);}
	.st86{fill:url(#SVGID_63_);}
	.st87{fill:url(#SVGID_64_);}
	.st88{fill:url(#SVGID_65_);}
	.st89{fill:url(#SVGID_66_);}
	.st90{fill:url(#SVGID_67_);}
	.st91{fill:url(#SVGID_68_);}
	.st92{fill:url(#SVGID_69_);}
	.st93{fill:url(#SVGID_70_);}
	.st94{fill:url(#SVGID_71_);}
	.st95{fill:url(#SVGID_72_);}
	.st96{fill:url(#SVGID_73_);}
	.st97{fill:none;stroke:url(#SVGID_74_);stroke-width:2;stroke-miterlimit:10;}
	.st98{fill:none;stroke:url(#SVGID_75_);stroke-width:2;stroke-miterlimit:10;}
	.st99{fill:none;stroke:url(#SVGID_76_);stroke-width:2;stroke-miterlimit:10;}
	.st100{fill:none;stroke:url(#SVGID_77_);stroke-width:2;stroke-miterlimit:10;}
	.st101{fill:none;stroke:url(#SVGID_78_);stroke-width:2;stroke-miterlimit:10;}
	.st102{fill:none;stroke:url(#SVGID_79_);stroke-width:2;stroke-miterlimit:10;}
	.st103{fill:none;stroke:url(#SVGID_80_);stroke-width:2;stroke-miterlimit:10;}
	.st104{fill:none;stroke:url(#SVGID_81_);stroke-width:2;stroke-miterlimit:10;}
	.st105{fill:none;stroke:url(#SVGID_82_);stroke-width:2;stroke-miterlimit:10;}
	.st106{fill:none;stroke:url(#SVGID_83_);stroke-width:2;stroke-miterlimit:10;}
	.st107{fill:none;stroke:url(#SVGID_84_);stroke-width:2;stroke-miterlimit:10;}
	.st108{fill:none;stroke:url(#SVGID_85_);stroke-width:2;stroke-miterlimit:10;}
	.st109{fill:none;stroke:url(#SVGID_86_);stroke-width:2;stroke-miterlimit:10;}
	.st110{fill:none;stroke:url(#SVGID_87_);stroke-width:2;stroke-miterlimit:10;}
	.st111{fill:none;stroke:url(#SVGID_88_);stroke-width:2;stroke-miterlimit:10;}
	.st112{fill:none;stroke:url(#SVGID_89_);stroke-width:2;stroke-miterlimit:10;}
	.st113{fill:none;stroke:url(#SVGID_90_);stroke-width:2;stroke-miterlimit:10;}
	.st114{fill:none;stroke:url(#SVGID_91_);stroke-width:2;stroke-miterlimit:10;}
	.st115{fill:none;stroke:url(#SVGID_92_);stroke-width:2;stroke-miterlimit:10;}
	.st116{fill:none;stroke:url(#SVGID_93_);stroke-width:2;stroke-miterlimit:10;}
	.st117{fill:none;stroke:url(#SVGID_94_);stroke-width:2;stroke-miterlimit:10;}
	.st118{fill:none;stroke:url(#SVGID_95_);stroke-width:2;stroke-miterlimit:10;}
	.st119{fill:none;stroke:url(#SVGID_96_);stroke-width:2;stroke-miterlimit:10;}
	.st120{fill:none;stroke:url(#SVGID_97_);stroke-width:2;stroke-miterlimit:10;}
	.st121{fill:none;stroke:url(#SVGID_98_);stroke-width:2;stroke-miterlimit:10;}
	.st122{fill:none;stroke:url(#SVGID_99_);stroke-width:2;stroke-miterlimit:10;}
	.st123{fill:none;stroke:url(#SVGID_100_);stroke-width:2;stroke-miterlimit:10;}
	.st124{fill:none;stroke:url(#SVGID_101_);stroke-width:2;stroke-miterlimit:10;}
	.st125{fill:none;stroke:url(#SVGID_102_);stroke-width:2;stroke-miterlimit:10;}
	.st126{fill:none;stroke:url(#SVGID_103_);stroke-width:2;stroke-miterlimit:10;}
	.st127{fill:url(#SVGID_104_);}
	.st128{fill:url(#SVGID_105_);}
	.st129{fill:url(#SVGID_106_);}
	.st130{fill:url(#SVGID_107_);}
	.st131{fill:url(#SVGID_108_);}
	.st132{fill:url(#SVGID_109_);}
</style>
<linearGradient id="SVGID_1_" gradientUnits="userSpaceOnUse" x1="1273" y1="957.8414" x2="2751" y2="957.8414">
	<stop  offset="0.2346" style="stop-color:#FFFFFF"/>
	<stop  offset="0.2628" style="stop-color:#FCFDFF"/>
	<stop  offset="0.5134" style="stop-color:#E8EDFF"/>
	<stop  offset="0.7608" style="stop-color:#DBE4FF"/>
	<stop  offset="1" style="stop-color:#D7E1FF"/>
</linearGradient>
<path class="st0" d="M1435,834c289,47,433-20,532,118c113.2,157.8,244.9,70.8,385,7c123-56,180-24,399,121c-111-1-1478,2-1478,2
	S1369.8,823.4,1435,834z"/>
<path class="st1" d="M1091,624c-331-197-628,26-931,99c-60,14.5-112.6,16-160,9.6v348.3l1164-1.1L1360,493
	C1252,509.5,1353.7,780.3,1091,624z"/>
<g>
	
		<linearGradient id="SVGID_2_" gradientUnits="userSpaceOnUse" x1="1726.2325" y1="369.7658" x2="1784.431" y2="369.7658" gradientTransform="matrix(0.962 -0.2732 0.2732 0.962 -9.5368 461.3423)">
		<stop  offset="0" style="stop-color:#BC6353"/>
		<stop  offset="0.6347" style="stop-color:#BC6153"/>
		<stop  offset="0.8631" style="stop-color:#BB5A52"/>
		<stop  offset="1" style="stop-color:#B95151"/>
	</linearGradient>
	<path class="st2" d="M1770.5,329.9c-2.6,1.8-10.7,11.9-11.4,14.2c-0.7,2.3-6.8,9.6-3.7,11.8c1.6,1.1,2.5,0.6,3.3-0.4
		c-0.3,1.7-2.3,4.8-0.4,5.9c1.9,1,3.8-0.3,4.7-1.9c-0.7,2.3-0.3,2.7,0.3,3c0.6,0.3,2.7,1.3,5-2.7c0.5,0.9,2.2,3.3,4.7,0
		c2.5-3.3,8.6-10,9.6-11.1c1-1.1,10.1-7.6,11.4-10.3c1.7-2.3,4.7-5.5,6.6-6.3c1.9-0.8,7-3.8,7-3.8l-11.3-16.6
		c-1.6,1-7.8,5.6-11.5,7.4c-3.7,1.8-13.4,4.3-15.4,5.4c-2,1.1-10.1,21.4-5.4,13c4.3-1.5,6.2-3.1,6.4-5c1.2,2.3,3,3.3,6.1,3"/>
	<g class="st3">
		<path class="st4" d="M1764.1,337.4c0.6-0.4,1.2-0.8,1.8-1.1c0.6-0.3,1.2-0.7,1.9-0.9c0.6-0.3,1.3-0.6,1.7-1.1
			c0.5-0.5,0.7-1.2,0.7-1.8l0-1.1l0.7,1c0.3,0.5,0.7,0.9,1.1,1.3c0.4,0.4,0.9,0.7,1.3,0.9c0.5,0.2,1,0.4,1.6,0.6
			c0.6,0.1,1.2,0.2,1.8,0.3l0,0.1c-0.6,0.2-1.2,0.3-1.9,0.3c-0.6,0-1.3-0.1-1.9-0.4c-0.6-0.2-1.2-0.7-1.6-1.2
			c-0.4-0.5-0.8-1.1-1-1.7l0.7-0.1c-0.2,0.8-0.7,1.4-1.1,1.9c-0.5,0.5-1,1.1-1.6,1.6c-0.6,0.5-1.3,0.8-1.9,1
			C1765.5,337.3,1764.8,337.5,1764.1,337.4L1764.1,337.4z"/>
	</g>
	<g class="st3">
		<path class="st4" d="M1769.1,340.7c-0.4,0.8-0.8,1.6-1.3,2.4c-0.3,0.4-0.5,0.7-0.8,1.1c-0.3,0.4-0.6,0.7-0.9,1l0-0.1
			c-0.7,0.9-1.3,1.7-1.8,2.7c-0.3,0.5-0.5,0.9-0.8,1.4c-0.3,0.5-0.6,0.9-0.8,1.3c-0.5,1-1.1,1.9-1.8,2.7c-0.7,0.8-1.4,1.7-2.2,2.4
			l-0.1-0.1c0.4-1,0.9-1.9,1.5-2.9c0.5-0.9,1.1-1.8,1.7-2.7c0.6-1,1.4-1.7,2.1-2.5c0.7-0.8,1.3-1.7,1.6-2.7l0-0.1
			c0.2-0.4,0.4-0.8,0.7-1.2c0.3-0.4,0.5-0.7,0.8-1.1C1767.7,341.9,1768.3,341.2,1769.1,340.7L1769.1,340.7z"/>
	</g>
	<g class="st3">
		<path class="st4" d="M1772.5,343.6c0,0.5-0.1,0.9-0.2,1.4c-0.2,0.4-0.4,0.9-0.6,1.2c-0.2,0.4-0.5,0.8-0.7,1.1
			c-0.2,0.4-0.6,0.7-0.8,1l0-0.1c-0.3,0.6-0.7,1.2-1,1.8c-0.3,0.6-0.6,1.2-0.9,1.8c-0.3,0.6-0.6,1.2-0.9,1.8
			c-0.4,0.6-0.7,1.2-1.2,1.7l0.1-0.2c-0.2,0.5-0.4,0.9-0.7,1.3c-0.3,0.4-0.5,0.7-0.8,1.1c-0.6,0.7-1.2,1.4-1.9,2l-0.1-0.1
			c0.4-0.8,0.8-1.6,1.2-2.4l0.6-1.2c0.2-0.4,0.4-0.8,0.6-1.1l0-0.1l0.1-0.1c0.4-0.4,0.8-1,1.2-1.5c0.4-0.5,0.8-1.1,1.2-1.6
			c0.4-0.5,0.8-1.1,1.1-1.7c0.3-0.6,0.5-1.2,0.6-1.9l0-0.1c0.4-0.9,0.9-1.6,1.4-2.3C1771.5,345.1,1772.1,344.4,1772.5,343.6
			L1772.5,343.6z"/>
	</g>
	<g class="st3">
		<path class="st4" d="M1776.6,347.1c-0.2,0.7-0.5,1.2-0.8,1.8c-0.3,0.6-0.7,1.1-1.1,1.6c-0.4,0.5-0.9,0.9-1.3,1.4
			c-0.4,0.5-0.7,1.1-1,1.6c-0.6,1.2-1.3,2.2-2,3.3c-0.4,0.5-0.7,1-1.1,1.5c-0.4,0.5-0.8,1-1,1.6l-0.1,0c-0.1-0.7,0.2-1.4,0.4-2
			c0.3-0.6,0.6-1.2,0.9-1.7c0.3-0.5,0.7-1.1,1.1-1.6c0.4-0.5,0.8-1,1.3-1.5c0.4-0.5,0.9-1,1.2-1.5c0.3-0.5,0.6-1.1,0.9-1.7
			C1774.7,348.9,1775.6,348,1776.6,347.1L1776.6,347.1z"/>
	</g>
</g>
<image style="display:none;overflow:visible;" width="1400" height="920" xlink:href="../../../../Контент/общая/7b07f512108619.5cc03ad734ced.png"  transform="matrix(-1 0 0 1 2225.7327 90.3448)">
</image>
<path class="st5" d="M2331,416.4c-37.1,0-117.1-2.3-141.9-2.3c0,0-64.2-221.6-407.6,11.9c112.6,0,483.6-2.7,483.6-2.7l-64.6-2.7
	L2331,416.4z"/>
<linearGradient id="SVGID_3_" gradientUnits="userSpaceOnUse" x1="1771" y1="488.1159" x2="2045" y2="488.1159">
	<stop  offset="0.2561" style="stop-color:#AED879;stop-opacity:0"/>
	<stop  offset="0.2815" style="stop-color:#ADD778;stop-opacity:4.211080e-02"/>
	<stop  offset="0.5749" style="stop-color:#A6CA73;stop-opacity:0.529"/>
	<stop  offset="0.8588" style="stop-color:#A3C671"/>
</linearGradient>
<path class="st6" d="M2045,486.1c-49,0-127-8.2-274,3.3c147,4.9,235,3.3,235,3.3l-85.3-3.3L2045,486.1z"/>
<linearGradient id="SVGID_4_" gradientUnits="userSpaceOnUse" x1="-1217.5" y1="767.3463" x2="2752" y2="767.3463">
	<stop  offset="9.056152e-02" style="stop-color:#E8EFF9"/>
	<stop  offset="0.2847" style="stop-color:#CED8F3"/>
	<stop  offset="0.4966" style="stop-color:#BAC6EE"/>
	<stop  offset="0.706" style="stop-color:#ADBCEB"/>
	<stop  offset="0.9082" style="stop-color:#A9B8EA"/>
</linearGradient>
<path class="st7" d="M0,1222.2c1172.5-0.9,2752-2.2,2752-2.2l-1-201c-44.6-28.8-164.5-34.3-270.5-1.5
	c-252,78-299.5-148.5-516.5-99.5c-140.7,31.8-293.5,148.5-335.5-1.5C1619,882.6,1592,867,1572,863c-36.2-7.2-92.1-69-81-74
	c47-21,95.5-36.5,183-12c89.1,24.9,264.5-40.5,136.5-239.5c-26.7-41.5-32-90-5-114c29.3-26.1,50.3-44.4,52-67c2-26-3.4-30.6-11-44
	c-73,64-70.6,60.1-74,36c-3-21-9.2-13.7-23-1c-60,55-67.1,184.8-244.3,151.3c-191.7-36.3-366.3,3.3-495.2,108.2
	c-365,297-468.5,168.5-680.5,71.5C197.7,618.2,91.1,600.7,0,606.9V1222.2z"/>
<g class="st8">
	
		<linearGradient id="SVGID_5_" gradientUnits="userSpaceOnUse" x1="1080.3531" y1="1349.8224" x2="1130.1288" y2="1349.8224" gradientTransform="matrix(0.9864 0.1645 -0.1645 0.9864 385.4081 -357.8346)">
		<stop  offset="2.787980e-02" style="stop-color:#9BA3E2"/>
		<stop  offset="0.8615" style="stop-color:#7E6790"/>
	</linearGradient>
	<path class="st9" d="M1232.6,1201.4c11.8-5.6,39.8-13.9,38.9-27c-1-13.1-3-15.5,0.1-19.5s7.6-5.2,9-10.1c1.4-4.9-5.6-12.6-2.4-16.6
		c3.1-4,6.7-17.5,0.4-18c-6.3-0.4-12,10.7-14.8,12s-12.9,1.8-14.3,6.7c-1.4,4.9-1.6,11.8-4.2,14.7c-2.6,2.9-12.9,6-16.8,13.8
		C1224.3,1165.2,1231.8,1201.7,1232.6,1201.4z"/>
	<path class="st10" d="M1270,1126.8c0,0-26.4,49-37.1,75"/>
	<line class="st10" x1="1266" y1="1126.2" x2="1265.3" y2="1135.7"/>
	<line class="st10" x1="1257.5" y1="1138.6" x2="1257.9" y2="1149.3"/>
	<line class="st10" x1="1245.2" y1="1156.2" x2="1246.4" y2="1173.1"/>
	<line class="st10" x1="1265.9" y1="1149.9" x2="1254.3" y2="1156.4"/>
	<line class="st10" x1="1272.9" y1="1129.7" x2="1265.3" y2="1134.7"/>
	<line class="st10" x1="1254.3" y1="1170.6" x2="1244.1" y2="1177.5"/>
</g>
<path class="st11" d="M1846,267.6c-4.1,4.8-11.5,12.1-15.6,15c-4.1,2.9-21.3,14-26.1,21c-4.8,7-22.9,9.2-23.3,13.7
	c-0.3,4.5,12.4,20.4,15,22.6c6.1-1.9,18.2-8.6,24.2-10.5c6.1-1.9,9.6-6.7,12.4-6.7s10.8-7.6,15.9-7.6c5.1-2.5,12.7-14.7,14.7-15.9
	c1.9-1.3,2.9-1.6,6.4-5.7c3.5-4.1,6.7-6.4,7-7.6C1876.9,284.5,1846,267.6,1846,267.6z"/>
<path class="st12" d="M1900.8,352.8c-3.7,10.4-23.8,46.1-31.8,62.2c-3.7,7.4,2.2,25.2,7.4,55.5c-6.7,0.7-34-5.2-32.6,11.8
	c0.7,7.7,51.8,11,51.8-2.2c0-18.5,5.2-51.8-1.5-60.7c15.5-14.1,34-34.8,36.3-46.6C1932.6,361,1900.8,352.8,1900.8,352.8z"/>
<g class="st8">
	
		<linearGradient id="SVGID_6_" gradientUnits="userSpaceOnUse" x1="874.8372" y1="926.7521" x2="935.3938" y2="926.7521" gradientTransform="matrix(0.9215 -0.3883 0.3883 0.9215 -274.1818 370.749)">
		<stop  offset="2.787980e-02" style="stop-color:#9BA3E2"/>
		<stop  offset="0.8615" style="stop-color:#7E6790"/>
	</linearGradient>
	<path class="st13" d="M928.1,934.2c8.6-13.4,31.9-40.2,22.4-53s-13.2-14-12.6-20.1c0.6-6.2,4.4-10.3,2.6-16.2
		c-1.7-5.9-13.9-9.4-13.3-15.5c0.6-6.2-4.5-22.4-11.3-18.7s-5.4,18.8-7.4,22c-2.1,3.2-12.1,10.3-10.4,16.2c1.7,5.9,6,13.1,5.2,17.8
		c-0.8,4.6-9.3,14.6-8.3,25.2S927.6,935,928.1,934.2z"/>
	<path class="st10" d="M918.1,833.2c0,0,4.7,67.5,10.6,101.3"/>
	<line class="st10" x1="913.5" y1="835.2" x2="919" y2="845.4"/>
	<line class="st10" x1="912.9" y1="853.5" x2="920.3" y2="864.2"/>
	<line class="st10" x1="911.8" y1="879.5" x2="924" y2="896.1"/>
	<line class="st10" x1="928.9" y1="859.6" x2="921.2" y2="873.9"/>
	<line class="st10" x1="923" y1="834.3" x2="918.4" y2="844.3"/>
	<line class="st10" x1="930.4" y1="888.4" x2="924.4" y2="902.1"/>
</g>
<path class="st12" d="M1920.4,349c1.5,10.9,0.1,51.8,0.4,69.8c0.1,8.3,13.6,21.3,32.2,45.8c-2.3,1.6-2.6,5.8-11.5,7.3
	c-5.5,0.9-16.4,2.7-11.1,11.1c2.1,3.4,6.6,3.5,20.7,3c33.3-8.1,26.3-16,23.4-21.7c-8.5-16.4-19.3-48.4-29.3-53.2
	c7.3-19.6,14.2-46.6,10.7-58.1S1920.4,349,1920.4,349z"/>
<path class="st11" d="M1867.9,419.5c-0.6,9.1,4.2,25.6,8.5,50.7c-6.7,0.7-34-5.2-32.6,11.8c0.7,7.7,51.8,11,51.8-2.2
	c0-18.3,5-50.9-1.2-60.3H1867.9z"/>
<path class="st11" d="M1974.5,464c-8.2-15.7-18.4-45.7-28-52.4c-0.8,0.4-1.6,0.5-2.5,0.6c-1.9,0.2-3.7,0.2-5.5,0.6
	c-2.7,0.7-5.5,1.4-8.1,2.3c-2.3,0.8-4.4,1.7-6.7,2.3c-0.9,0.3-1.9,0.6-2.8,1c0.2,8.3,13.6,21.3,32.2,45.8c-2.3,1.6-2.6,5.8-11.5,7.3
	c-5.5,0.9-16.4,2.7-11.1,11.1c2.1,3.4,6.6,3.5,20.7,3C1984.4,477.5,1977.5,469.7,1974.5,464z"/>
<g>
	<path class="st11" d="M1963.7,293.6c5.1,5.1,32.1,92,31.2,100.2c-1,8.3-8.6,4.8-11.2,3.5c-2.2,4.1-9.6,11.5-30.9,13.1
		c-21.3,1.6-22.3-2.2-36.6,0s-27.1-4.1-34.7-8c-7.6-3.8-17.8-2.2-8.6-14c9.2-11.8,36.3-62.8,35-66.6c-1.3-3.8,22-21,22-21
		L1963.7,293.6z"/>
	<g class="st8">
		<path class="st14" d="M1932.1,309.8c0.2,3.6,0.1,7.3,0,10.9c-0.1,3.6-0.3,7.2-0.5,10.9c-0.2,3.6-0.5,7.2-0.9,10.8
			c-0.4,3.6-0.8,7.2-1.5,10.8c0.2-1.8,0.3-3.6,0.4-5.4c0.1-1.8,0.2-3.6,0.3-5.4l0.6-10.8l0.7-10.8L1932.1,309.8z"/>
	</g>
	<g class="st8">
		<path class="st14" d="M1925.1,367.4l-3,9.8c-1,3.3-2,6.5-3.1,9.8c-1.1,3.3-2.2,6.5-3.4,9.7c-1.2,3.2-2.3,6.5-3.9,9.5
			c0.6-1.6,1.1-3.2,1.7-4.9l1.6-4.9c1-3.3,2.1-6.5,3.1-9.8c1.1-3.2,2.2-6.5,3.3-9.7C1922.6,373.8,1923.8,370.6,1925.1,367.4z"/>
	</g>
	<g class="st8">
		<path class="st14" d="M1940.4,308.8c0.3,8,0.2,15.9,0.1,23.9c-0.1,8-0.4,15.9-0.8,23.9c-0.4,8-0.8,15.9-1.6,23.9
			c-0.4,4-0.8,7.9-1.3,11.9c-0.3,2-0.6,3.9-1,5.9c-0.4,2-0.8,3.9-1.6,5.8c0.7-1.9,1-3.9,1.3-5.8c0.3-2,0.5-3.9,0.7-5.9
			c0.4-4,0.7-7.9,1-11.9c0.5-7.9,1-15.9,1.3-23.9c0.4-8,0.7-15.9,1-23.9l0.4-11.9C1940.3,316.8,1940.4,312.8,1940.4,308.8z"/>
	</g>
	<g class="st8">
		<path class="st14" d="M1948.1,306.6c1.4,2.2,1.8,4.9,2.3,7.4c0.5,2.6,0.7,5.1,0.9,7.7c0.2,2.6,0.3,5.2,0.3,7.7
			c0,2.6,0,5.2-0.4,7.7c0-1.3-0.1-2.6-0.2-3.9c-0.1-1.3-0.1-2.6-0.2-3.9l-0.5-7.7c-0.2-2.6-0.4-5.1-0.7-7.7
			c-0.1-1.3-0.3-2.5-0.5-3.8C1948.9,309,1948.6,307.8,1948.1,306.6z"/>
	</g>
	<g class="st8">
		<path class="st14" d="M1952.5,356.6l0.7,11.9l0.7,11.9l0.6,11.9l0.3,5.9c0.1,2,0.2,4,0.3,5.9c-0.7-3.9-1-7.9-1.4-11.8
			c-0.3-4-0.5-7.9-0.8-11.9c-0.2-4-0.3-7.9-0.4-11.9C1952.4,364.5,1952.4,360.6,1952.5,356.6z"/>
	</g>
	<g class="st8">
		<path class="st14" d="M1975.1,346.7c0.9,4.3,1.5,8.6,2.2,12.9c0.7,4.3,1.2,8.6,1.9,13l1.7,13c0.3,2.2,0.6,4.3,0.9,6.5
			c0.3,2.2,0.6,4.3,1.2,6.4c-0.8-2-1.2-4.2-1.7-6.3c-0.4-2.1-0.8-4.3-1.2-6.4c-0.7-4.3-1.3-8.6-2-13c-0.5-4.3-1.1-8.7-1.6-13
			L1975.1,346.7z"/>
	</g>
</g>
<path class="st15" d="M1965.9,295.8c0,0,1.5,3.8,1.5,3.7c0,0-10.4,3.7-22.9,7.4c-7.7,2.3-9.6,2.2-16.3,3c-4.5,4.9-14.8,11.8-18.5,17
	c-6.6,9.2-7.4,9.6-7.4,9.6l-2.2-3.7l23.7-25.9L1965.9,295.8z"/>
<path class="st16" d="M1870,237.1c24.1-16,27.8-0.5,47.8,11.3c10.9,6.4,28.6,21.2,34.7,24.3s24.2,17.8,14.3,27.4
	c-2.2-1.6,1.3-4.5-4.8-0.6c-6.1,3.8-16.6,3.2-19.1,5.7s-9.6,3.8-12.7,3.2c-3.2-0.6-3.2-0.3-6.1,3.5c-2.9,3.8-17.5,15-18.2,17.5
	c-0.6,2.5-2.2,8.9-6.1,6.1c-3.8-2.9-6.1-12.1-10.5-20.4s-12.4-18.2-21.3-23.9s-24.2-18.2-29.3-18.8c5.7-10.2,8.3-19.1,17.2-22.3
	S1860.7,243.4,1870,237.1z"/>
<g>
	<linearGradient id="SVGID_7_" gradientUnits="userSpaceOnUse" x1="1848.7285" y1="305.2741" x2="1862.9639" y2="334.0387">
		<stop  offset="0" style="stop-color:#BC6353"/>
		<stop  offset="0.6347" style="stop-color:#BC6153"/>
		<stop  offset="0.8631" style="stop-color:#BB5A52"/>
		<stop  offset="1" style="stop-color:#B95151"/>
	</linearGradient>
	<path class="st17" d="M1870.6,301.2c-4.1,1.9-7.6,1.3-11.5,2.5c-3.8,1.3-10.6,3.5-13.1,4.3c-4,3-11.4,13.1-5,11
		c3-1,8.2-5.1,8.2-5.1s-8.6,10.8-9.9,12.4c-1.3,1.6-6.8,6.5-4.5,9.6c2,2.5,5.1-1.3,8.8-5.3c1.3-1.4,5.3-4,6.5-5.9
		c-1.3,3.2-9.6,16.6-8.6,18.2c0.9,1.5,3.9,1.6,5-0.7c0-0.1,0.1,0,0.1,0c0,1.4,1.1,1.2,2.9,0.3c1.9-1,7.6-3.8,9.6-5.4
		c-3.2,3.2-4.1,4.8-3,6.8c1,1.9,2.7-0.5,3.3-1.4c0.6-1,4.9-3.7,8.4-9.7c7.6-9.2,6.2-7.5,7.5-9.1c1.3-1.6,6.1-11.2,6.1-11.2
		L1870.6,301.2z"/>
	<g class="st3">
		<path class="st4" d="M1860.1,326l-3.1,4.4c-1,1.4-2,2.9-3.2,4.3c-2.4,2.7-4.9,5.1-7.3,7.8c1.8-3.1,4.2-5.8,6.5-8.4
			c1.1-1.3,2.2-2.8,3.3-4.1C1857.5,328.5,1858.7,327.2,1860.1,326z"/>
	</g>
	<g class="st3">
		<path class="st4" d="M1863.1,332.9c-0.4,1-1,1.8-1.6,2.5c-0.7,0.7-1.4,1.4-2.4,1.8c0.4-1,1-1.8,1.6-2.5
			C1861.4,334,1862.1,333.3,1863.1,332.9z"/>
	</g>
	<g class="st3">
		<path class="st4" d="M1857.8,306.3c-1.3,1.5-2.7,2.9-4.2,4.1c-1.5,1.3-3,2.5-4.6,3.7c0.5-0.9,1.1-1.6,1.8-2.4
			c0.7-0.7,1.4-1.4,2.1-2C1854.5,308.4,1856.1,307.2,1857.8,306.3z"/>
	</g>
</g>
<linearGradient id="SVGID_8_" gradientUnits="userSpaceOnUse" x1="1862.8279" y1="255.8312" x2="1876.9138" y2="216.1289">
	<stop  offset="0.1574" style="stop-color:#BC6353"/>
	<stop  offset="0.6227" style="stop-color:#BC6153"/>
	<stop  offset="0.7902" style="stop-color:#BB5A53"/>
	<stop  offset="0.9093" style="stop-color:#BA4F52"/>
	<stop  offset="1" style="stop-color:#B93F51"/>
</linearGradient>
<path class="st18" d="M1865.5,221.9c0.1-1.4,1.7-6.6,4.7-6.9c3-0.3,4.5,0.8,5.4,2.9c0.9,2.1,0,8-4.9,12.8c0.9,2.1,2.9,6.7,6.3,7.4
	c-1.2,3.6-5.3,22.4-6.5,22.9s-7.4-5.9-7.4-5.9L1865.5,221.9z"/>
<linearGradient id="SVGID_9_" gradientUnits="userSpaceOnUse" x1="1836.2709" y1="234.5294" x2="1849.5879" y2="197.7291">
	<stop  offset="0" style="stop-color:#B95F51"/>
	<stop  offset="0.8426" style="stop-color:#BC6353"/>
</linearGradient>
<path class="st19" d="M1825.4,204.9c-1.7,1.8-6.4,6.9-5.2,11.3c1.2,4.4,3.3,10,1.6,11.1c-1.6,1-1.7,5.4,5.4,16.2
	c7.1,10.8,33.1-9.3,33.1-9.3l1-27.5l-17.7-9.7L1825.4,204.9z"/>
<g>
	<path class="st20" d="M1830.5,231c-0.6,1.1-1.7,2-3.1,2.2c-0.7,0.1-1.4,0-2-0.2c-0.6-0.3-1.1-0.7-1.5-1.2c0.6,0.2,1.2,0.4,1.7,0.5
		c0.6,0.1,1.1,0.1,1.6,0C1828.3,232.1,1829.3,231.5,1830.5,231z"/>
</g>
<g>
	<path class="st20" d="M1852,224.5c-0.4,0.7-0.9,1.3-1.5,1.9c-0.6,0.5-1.3,1-2,1.3c-0.8,0.3-1.6,0.5-2.4,0.5c-0.8,0-1.6-0.3-2.3-0.8
		c0.8,0.1,1.5,0.1,2.2,0.1c0.7-0.1,1.4-0.3,2-0.6C1849.5,226.2,1850.7,225.4,1852,224.5z"/>
</g>
<g>
	<path class="st20" d="M1852.6,227.4c-0.2,0.6-0.7,1.1-1.3,1.5c-0.3,0.2-0.6,0.3-0.9,0.4c-0.3,0.1-0.6,0.1-1,0.2
		c0.3-0.1,0.6-0.2,0.9-0.3c0.3-0.1,0.6-0.3,0.8-0.5c0.3-0.2,0.5-0.4,0.7-0.6C1852.2,227.9,1852.4,227.7,1852.6,227.4z"/>
</g>
<g>
	<path class="st20" d="M1828.3,234.5c-0.3,0.4-0.9,0.6-1.4,0.7c-0.3,0-0.5,0-0.8-0.1c-0.3-0.1-0.5-0.2-0.7-0.3
		c0.3,0.1,0.5,0.1,0.7,0.1c0.2,0,0.5,0,0.7,0c0.2,0,0.5-0.1,0.7-0.1C1827.8,234.7,1828,234.7,1828.3,234.5z"/>
</g>
<path class="st21" d="M1829.6,240c-1.9,0.5-7.6,8.8,2.4,26.9c5.6,10,18.5,20.7,28.9-1.5c2.3-5,10.4-10.4,10.6-20.9
	c0.1-3.1-3.5-18.6-6.2-22.6c1.1-6.4,6.1-9.2,9.7-5.6c-0.6-4.6-0.4-14.7-6.2-19.2c-5.7-4.5-8.6-5.6-13.8-6.5
	c-5.2-0.9-15.8-2.7-25.2,6.7c-15.5,15.5-5.9,13.3-3.7,10.2c3.7-5.3,17.2-6.7,19.5-7c2.3-0.3,5-2.1,13.5,10.5
	c0.3,4,3.3,12.5-0.2,18.1c-3.5,5.6-4.4,5-8.5,4.4c-2.5,3.1-2.3,5.9-5.5,8.2c-2.1,1.6-10.1,4.7-11.9-1.1
	C1832.1,237.9,1829.6,240,1829.6,240z"/>
<g>
	<path class="st20" d="M1840.9,205.7c-2.1,0.6-4.2,1.1-6.2,1.7c-1,0.3-2.1,0.6-3.1,0.8c-1,0.3-2,0.6-3,1c0.8-0.8,1.8-1.3,2.8-1.8
		c1-0.5,2-0.8,3.1-1.1c1.1-0.3,2.1-0.5,3.2-0.6C1838.7,205.7,1839.8,205.6,1840.9,205.7z"/>
</g>
<g>
	<path class="st20" d="M1838.3,209.6c-0.7,0.1-1.3,0.2-2,0.3c-0.7,0.1-1.3,0.2-1.9,0.4c-0.6,0.1-1.3,0.3-1.9,0.5
		c-0.6,0.2-1.2,0.5-1.8,0.8c1-0.9,2.4-1.3,3.6-1.6C1835.6,209.8,1836.9,209.5,1838.3,209.6z"/>
</g>
<path class="st22" d="M1851.9,211.4c-0.6-1.1-4.2-1.7-5.8-1.3c-1.6,0.3-3.4,0.1-4-0.4c0,0.7-1.8,0.8-2.7,0.1
	c-0.3,0.1-0.3,1.8-1.1,1.5c-0.8-0.3-2,0.2-0.5,1.3c1.5,1.1,3,2.2,3.9,1.8s3.7-2.6,6.7-2.2C1849.4,212.3,1853.5,214.2,1851.9,211.4z"
	/>
<path class="st22" d="M1821.1,221.1c0.1-0.6,0.7-2.4,2.2-3.7s2.8-1.5,2.8-2.3c0-0.7,0.8-0.7,1-0.1c0.5-0.5,0.1-2.1,1.1-1.5
	c1,0.6,1,1.6,1.5,1.1c0.5-0.5,0.8-1.4,1-0.8c0.3,0.6,0.6,2.2-0.5,3c-1,0.8-5.1,1.8-6.4,2.8S1820.7,223.4,1821.1,221.1z"/>
<g>
	<linearGradient id="SVGID_10_" gradientUnits="userSpaceOnUse" x1="1823.9382" y1="226.1532" x2="1826.6342" y2="226.1532">
		<stop  offset="0" style="stop-color:#52422A"/>
		<stop  offset="0.4291" style="stop-color:#4A2B13"/>
	</linearGradient>
	<polygon class="st23" points="1824.2,226.7 1826.1,225.2 1826.6,227.1 	"/>
</g>
<g>
	<linearGradient id="SVGID_11_" gradientUnits="userSpaceOnUse" x1="1847.5291" y1="219.8334" x2="1850.7349" y2="219.8334">
		<stop  offset="0" style="stop-color:#52422A"/>
		<stop  offset="0.4291" style="stop-color:#4A2B13"/>
	</linearGradient>
	<path class="st24" d="M1850.5,219.3c-0.4,0.3-0.9,0.6-1.3,0.8c-0.2,0.1-0.5,0.3-0.7,0.4c-0.3,0.1-0.5,0.3-0.9,0.3l0.1-2
		c0.1,0.1,0.3,0.1,0.6,0.2c0.2,0,0.5,0.1,0.7,0.1C1849.4,219.2,1850,219.3,1850.5,219.3z"/>
</g>
<path class="st3" d="M1854,237c0.7,0-1,0-4-1c-3.6-1.2-2.7-2.2-10.7,2.4c-1.5,0-3.9-0.9-6.6,0.3c-2.3,1-3.7,1.3-4.7,4.3
	c4-2,3.9,0,7-1s3.8-2.1,4.5-2.1c0.7,0,4.5,0.8,7.2-0.3S1851,237,1854,237z"/>
<linearGradient id="SVGID_12_" gradientUnits="userSpaceOnUse" x1="1846.8545" y1="223.7723" x2="1846.6205" y2="219.9889">
	<stop  offset="0" style="stop-color:#52422A"/>
	<stop  offset="0.4291" style="stop-color:#4A2B13"/>
</linearGradient>
<path class="st25" d="M1844.5,222.4c0.6,1.4,2.1,2.1,3.3,1.5c1.2-0.5,1.7-2.1,1.1-3.4s-2.1-2.1-3.3-1.5
	C1844.4,219.5,1843.9,221,1844.5,222.4z"/>
<linearGradient id="SVGID_13_" gradientUnits="userSpaceOnUse" x1="1825.1426" y1="226.9272" x2="1829.656" y2="226.9272">
	<stop  offset="0" style="stop-color:#52422A"/>
	<stop  offset="0.4291" style="stop-color:#4A2B13"/>
</linearGradient>
<path class="st26" d="M1825.3,227.8c0.5,1.2,1.9,1.8,3,1.3c1.1-0.5,1.6-1.9,1.1-3.1c-0.5-1.2-1.9-1.8-3-1.3
	C1825.3,225.2,1824.8,226.6,1825.3,227.8z"/>
<ellipse transform="matrix(0.9191 -0.394 0.394 0.9191 62.4579 746.0593)" class="st22" cx="1848.3" cy="220.9" rx="1" ry="0.5"/>
<ellipse transform="matrix(0.9191 -0.394 0.394 0.9191 58.7321 739.1276)" class="st22" cx="1829.5" cy="226.5" rx="1" ry="0.5"/>
<g>
	<path class="st20" d="M1867.8,224c0-0.9,0.2-1.7,0.6-2.5c0.3-0.8,0.7-1.5,1.4-2.2c0.2-0.2,0.4-0.3,0.7-0.4c0.2-0.1,0.5-0.2,0.7-0.2
		c0.5-0.1,1.1,0.1,1.5,0.4c0.8,0.6,1,1.6,1,2.4c-0.4-0.7-0.8-1.5-1.4-1.8c-0.3-0.1-0.6-0.2-0.9-0.1c-0.2,0-0.3,0.1-0.5,0.2
		c-0.1,0.1-0.2,0.2-0.4,0.3c-0.5,0.5-1,1.2-1.4,1.8C1868.6,222.6,1868.1,223.3,1867.8,224z"/>
</g>
<linearGradient id="SVGID_14_" gradientUnits="userSpaceOnUse" x1="1835.598" y1="237.0705" x2="1841.5538" y2="220.6123">
	<stop  offset="0" style="stop-color:#B43227"/>
	<stop  offset="0.8426" style="stop-color:#A54637"/>
</linearGradient>
<path class="st27" d="M1833.4,218.3c-0.8,0.4,0.9,2.1,0.8,2.8c0,0.7-2.5,11.1-1,13.9c1.5,2.8,5.5,3.2,7.3,1.7c1.8-1.5,7-3,5.4-5.1
	c-1.6-2.1-2.5-0.3-3.5-0.9C1841.1,229.9,1837.4,216.2,1833.4,218.3z"/>
<path class="st28" d="M1854,237c0.7,0-1-1-4-2c-3.6-1.2-2.7-2.2-10.7,2.4c-1.5,0-3.9-0.9-6.6,0.3c-2.3,1-3.7,2.3-4.7,5.3
	c4-2,3.9-1,7-2s3.8-2.1,4.5-2.1c0.7,0,4.5,0.8,7.2-0.3S1851,237,1854,237z"/>
<g class="st8">
	
		<linearGradient id="SVGID_15_" gradientUnits="userSpaceOnUse" x1="1249.0159" y1="908.1169" x2="1298.7915" y2="908.1169" gradientTransform="matrix(1.1731 -0.2168 0.2095 1.1891 -465.5163 314.5113)">
		<stop  offset="2.787980e-02" style="stop-color:#9BA3E2"/>
		<stop  offset="0.8615" style="stop-color:#7E6790"/>
	</linearGradient>
	<path class="st29" d="M1214,1178.9c11.1-11.2,39.2-32.1,32.8-46.6s-9.6-16.4-7.7-22.2c1.9-5.8,6.4-9.1,6-15.2
		c-0.4-6.1-11.3-12.1-9.4-17.9c1.9-5.8,0.6-22.7-6.7-20.6c-7.3,2.1-9.2,17.1-11.9,19.8c-2.7,2.7-13.8,7.4-13.4,13.5
		c0.4,6.1,2.9,14,1.2,18.4c-1.7,4.3-12,12.1-13.4,22.6S1213.3,1179.6,1214,1178.9z"/>
	<path class="st10" d="M1226.2,1078.8c0,0-10.1,66.5-11.7,100.5"/>
	<line class="st10" x1="1221.4" y1="1079.7" x2="1224.5" y2="1090.8"/>
	<line class="st10" x1="1216.9" y1="1097.4" x2="1221.7" y2="1109.3"/>
	<line class="st10" x1="1210.2" y1="1122.4" x2="1218.2" y2="1141.1"/>
	<line class="st10" x1="1230.8" y1="1106.8" x2="1220.4" y2="1118.9"/>
	<line class="st10" x1="1230.6" y1="1080.9" x2="1224.2" y2="1089.7"/>
	<line class="st10" x1="1226.1" y1="1135" x2="1217.4" y2="1147"/>
</g>
<path class="st30" d="M1838.6,236.6c-1.9,0-3.7-0.6-5.3-1.5c1.6,2.7,5.5,3,7.2,1.6c0.2-0.1,0.4-0.3,0.6-0.4
	C1840.4,236.5,1839.5,236.6,1838.6,236.6z"/>
<g class="st8">
	<path class="st14" d="M1838.2,247.9c0.4-0.7,1-1.2,1.6-1.7c0.6-0.5,1.4-0.9,2.1-1.1c0.8-0.2,1.6-0.4,2.4-0.2
		c0.8,0.1,1.6,0.5,2.2,1.1c-0.8-0.2-1.5-0.3-2.2-0.3c-0.7,0-1.4,0.2-2.1,0.4C1840.9,246.4,1839.6,247.2,1838.2,247.9z"/>
</g>
<g class="st8">
	
		<linearGradient id="SVGID_16_" gradientUnits="userSpaceOnUse" x1="919.8181" y1="906.8513" x2="983.3113" y2="906.8513" gradientTransform="matrix(0.9999 1.222175e-02 -1.222175e-02 0.9999 15.8555 3.5186)">
		<stop  offset="2.787980e-02" style="stop-color:#9BA3E2"/>
		<stop  offset="0.8615" style="stop-color:#7E6790"/>
	</linearGradient>
	<path class="st31" d="M938.8,983.9c13.9-9.3,47.5-25.3,43.7-41.6c-3.8-16.3-6.8-19-3.6-24.6c3.2-5.7,8.5-8.1,9.3-14.5
		c0.8-6.4-9.5-14.8-6.3-20.5s5.1-23.4-3-22.7c-8.1,0.7-13,15.8-16.4,18.1c-3.3,2.2-15.9,4.8-16.7,11.2c-0.8,6.4,0.2,15.1-2.4,19.3
		c-2.7,4.1-15.1,10.1-18.5,20.7S937.9,984.5,938.8,983.9z"/>
	<path class="st10" d="M971.5,882.7c0,0-23.8,66.9-32.2,101.8"/>
	<line class="st10" x1="966.3" y1="882.6" x2="967.3" y2="894.8"/>
	<line class="st10" x1="958" y1="900" x2="960.6" y2="913.4"/>
	<line class="st10" x1="946" y1="924.5" x2="950.8" y2="945.6"/>
	<line class="st10" x1="970.8" y1="912.6" x2="957.4" y2="923.1"/>
	<line class="st10" x1="975.7" y1="885.7" x2="967.2" y2="893.5"/>
	<line class="st10" x1="960.2" y1="940.9" x2="948.7" y2="951.6"/>
</g>
<g class="st8">
	
		<linearGradient id="SVGID_17_" gradientUnits="userSpaceOnUse" x1="1130.0745" y1="1026.7104" x2="1171.1588" y2="1026.7104" gradientTransform="matrix(0.9748 -0.223 0.223 0.9748 -210.2451 334.5627)">
		<stop  offset="2.787980e-02" style="stop-color:#9BA3E2"/>
		<stop  offset="0.8615" style="stop-color:#7E6790"/>
	</linearGradient>
	<path class="st32" d="M1138.8,1120.5c7.3-8,26-23.1,21.2-32.8c-4.9-9.7-7.2-10.9-6-14.9s4.1-6.4,3.7-10.5
		c-0.5-4.2-8.2-7.9-7.1-11.9s-0.4-15.5-5.3-13.8c-5,1.7-5.8,11.9-7.6,13.8c-1.8,1.9-9.3,5.4-8.8,9.6c0.5,4.2,2.5,9.5,1.4,12.5
		c-1,3-7.9,8.7-8.5,15.8C1121.1,1095.4,1138.3,1121,1138.8,1120.5z"/>
	<path class="st10" d="M1144,1051.8c0,0-4.8,45.7-4.8,68.9"/>
	<line class="st10" x1="1140.7" y1="1052.6" x2="1143.1" y2="1060.1"/>
	<line class="st10" x1="1138.1" y1="1064.8" x2="1141.8" y2="1072.8"/>
	<line class="st10" x1="1134.3" y1="1082" x2="1140.5" y2="1094.5"/>
	<line class="st10" x1="1148.1" y1="1070.7" x2="1141.3" y2="1079.4"/>
	<line class="st10" x1="1147.1" y1="1053.1" x2="1142.9" y2="1059.3"/>
	<line class="st10" x1="1145.7" y1="1090.2" x2="1140.1" y2="1098.6"/>
</g>
<g class="st8">
	
		<linearGradient id="SVGID_18_" gradientUnits="userSpaceOnUse" x1="436.1592" y1="594.7475" x2="509.3762" y2="594.7475" gradientTransform="matrix(0.8383 -0.5006 0.4953 0.5333 -316.7497 835.1873)">
		<stop  offset="2.787980e-02" style="stop-color:#9BA3E2"/>
		<stop  offset="0.8615" style="stop-color:#7E6790"/>
	</linearGradient>
	<path class="st33" d="M389.3,968.9c7.2-14.9,27.9-46.5,16.8-55.2s-15-8.6-15.1-14.4c-0.1-5.8,3.3-10.8,0.8-15.6
		c-2.4-4.9-15.2-4.2-15.3-10s-7.1-19-13.6-13.6c-6.5,5.5-3.3,18.8-5.1,22.4c-1.7,3.6-11.1,13.1-8.7,18c2.4,4.9,7.6,10.1,7.3,14.6
		c-0.2,4.5-7.8,16.2-5.6,25.5S388.9,969.8,389.3,968.9z"/>
	<path class="st10" d="M367.7,880.1c0,0,12.4,60,22.3,88.9"/>
	<line class="st10" x1="363.3" y1="883.3" x2="370" y2="890.9"/>
	<line class="st10" x1="364.7" y1="900.2" x2="373.4" y2="907.6"/>
	<line class="st10" x1="366.5" y1="924.2" x2="380.8" y2="935.5"/>
	<line class="st10" x1="381.7" y1="900.7" x2="375.5" y2="916.1"/>
	<line class="st10" x1="372.8" y1="879.5" x2="369.3" y2="890.1"/>
	<line class="st10" x1="386.5" y1="926.5" x2="381.9" y2="940.8"/>
</g>
<g class="st34">
	<linearGradient id="SVGID_19_" gradientUnits="userSpaceOnUse" x1="378.9763" y1="927.0806" x2="442.4695" y2="927.0806">
		<stop  offset="2.787980e-02" style="stop-color:#9BA3E2"/>
		<stop  offset="0.8615" style="stop-color:#7E6790"/>
	</linearGradient>
	<path class="st35" d="M394,1005.4c13.7-11.9,47.2-32.5,43.2-53c-4-20.5-7-23.8-3.9-30.9c3.1-7.2,8.4-10.3,9.2-18.4
		s-9.7-18.5-6.6-25.7c3.1-7.2,4.8-29.6-3.2-28.6c-8,1-12.8,20.1-16.1,23s-15.9,6.3-16.6,14.4s0.4,19.1-2.2,24.3
		c-2.6,5.3-14.9,13-18.3,26.3C376.1,950.2,393.2,1006.1,394,1005.4z"/>
	<path class="st10" d="M425.5,877.4c0,0-23,84.5-31,128.6"/>
	<line class="st10" x1="420.3" y1="877.5" x2="421.4" y2="892.7"/>
	<line class="st10" x1="412.2" y1="899.4" x2="415" y2="916.2"/>
	<line class="st10" x1="400.5" y1="930.5" x2="405.5" y2="956.9"/>
	<line class="st10" x1="425.1" y1="915.1" x2="411.9" y2="928.5"/>
	<line class="st10" x1="429.7" y1="881.2" x2="421.3" y2="891.1"/>
	<line class="st10" x1="414.9" y1="950.9" x2="403.5" y2="964.5"/>
</g>
<path class="st36" d="M1875.2,216.6c-0.6-4.6-0.4-14.7-6.2-19.2c-0.9-0.7-1.7-1.3-2.4-1.8l0.1,2l-4.3,4.3l3.1,21.7l4.2,13.5
	l-1.9,15.2c0,0-10.5,12.6-10.8,12.8c-0.2,0.1-6.1,8.8-16.2,11.6c0,0.7,11.4,8.3,20.3-11c2.3-5,10.4-10.4,10.6-20.9
	c0.1-3.1-3.5-18.6-6.2-22.6C1866.6,215.8,1871.6,212.9,1875.2,216.6z"/>
<path class="st11" d="M1876,234c4.3-4.1,12.6-6.7,20-1.5c7.4,5.2,27.4,31.5,34.8,46.6c8.5,17.4-5.6,22.6-50,44
	c-7.4,1.5-21.5-22.2-13.3-24.4c8.1-2.2,22.9-14.8,32.6-18.5c-5.9-0.6-16.6-18-18.1-25.5"/>
<path class="st37" d="M1882.3,252.2c0,0-0.3,0.5-0.7,1.4l0.3,1.2c1.5,7.6,12.3,24.9,18.1,25.5c-9.6,3.7-24.4,16.3-32.6,18.5
	c-1.8,0.5-2.5,2.1-2.4,4.2c2.8-0.2,5.8-1.7,8.4-4.2c3.7-3.7,31.1-18.5,43.7-18.5C1897.1,275.1,1883.8,255.9,1882.3,252.2z"/>
<g>
	<polygon class="st38" points="2064.9,434.4 2072.3,390.8 2081,434.4 	"/>
	<path class="st38" d="M2080.7,413.9h-3.6c-10.1-1-18-10.6-18-22.2c0-12.3,8.9-22.3,19.8-22.3s19.8,10,19.8,22.3
		C2098.8,403.4,2090.8,412.9,2080.7,413.9z"/>
	<ellipse class="st38" cx="2055.5" cy="380.3" rx="18.1" ry="25.3"/>
	<circle class="st38" cx="2088" cy="362.2" r="21.7"/>
	<circle class="st38" cx="2066.3" cy="354.9" r="14.5"/>
	<circle class="st38" cx="2059.1" cy="412.8" r="14.5"/>
	<line class="st39" x1="2073.7" y1="362.2" x2="2073.7" y2="423.1"/>
	<line class="st39" x1="2082.7" y1="366.3" x2="2074" y2="375"/>
	<line class="st39" x1="2060.9" y1="375" x2="2074" y2="388.1"/>
	<line class="st39" x1="2087" y1="388.1" x2="2074" y2="401.1"/>
</g>
<g>
	<g>
		<path class="st38" d="M2135.9,425.7h3.8c0,0.1-3.5-13.1-10.4-17.7C2134,414.5,2135.9,425.7,2135.9,425.7z"/>
		<path class="st38" d="M2141.6,425.7c0,0-1.1-14.7,3-22.4c-3.9,5.2-7.2,13.7-7,22.4C2138.7,425.6,2141.6,425.7,2141.6,425.7z"/>
		<path class="st38" d="M2139.7,419.7c-0.4-1.4-3.1-14-2.9-17.3c-0.9,2-2.5,14.1,0,20C2139.3,428.4,2139.7,419.7,2139.7,419.7z"/>
	</g>
	<path class="st38" d="M2157,425.7h5.6c0,0.1-3.5-16.2-15-25.5C2155.4,412.6,2157,425.7,2157,425.7z"/>
	<path class="st38" d="M2153.8,425.7h4.5c0,0.1-1.2-11.7-12.7-16.1C2153.1,417.3,2153.8,425.7,2153.8,425.7z"/>
	<path class="st38" d="M2170.1,425.7h-4.5c0,0.1,0.9-15,14-25.5C2172.2,411.5,2170.1,425.7,2170.1,425.7z"/>
	<path class="st38" d="M2166.4,425.7c0,0,1.6-23.3,13.3-39.3c-6.1,5.1-17.7,21.6-18.7,39.3C2163.1,425.5,2166.4,425.7,2166.4,425.7z
		"/>
	<path class="st38" d="M2160.9,425.7c0,0-1.6-23.3-13.3-39.3c6.1,5.1,17.7,21.6,18.7,39.3C2164.2,425.5,2160.9,425.7,2160.9,425.7z"
		/>
	<path class="st38" d="M2162.1,425.7c0,0,4.5-18.7-3.1-39.5c9.6,12.8,9.1,21.8,10.1,39.5C2167.1,425.5,2162.1,425.7,2162.1,425.7z"
		/>
</g>
<g>
	<path class="st40" d="M2121.9,385.3c1.9,2.6,16.7,15.5,15.3,41.5"/>
	<path class="st40" d="M2133.4,387.2c0,4-1.9,8.9,1,18.2"/>
	<path class="st40" d="M2148.7,401.2c-4.5,2.4-10.9,7.7-11.6,18"/>
	<path class="st40" d="M2125,410.3c1.7,0.6,11.1,3.7,12.4,12.3"/>
	<path class="st40" d="M2138.7,392.2c-1.5,0.9-6.5,4.4-4.8,11.6"/>
	<path class="st38" d="M2114.1,373.1c3.3,1.3,9.5,4.5,8.2,12.7C2115.8,384.2,2114.5,381.5,2114.1,373.1z"/>
	<path class="st38" d="M2135,372.7c1.8,3.1,4.6,9.5-1.5,15C2129.5,382.3,2130.1,379.4,2135,372.7z"/>
	<path class="st38" d="M2148.9,382.3c-0.6,3.5-2.6,10.2-10.8,10.5C2138.4,386.1,2140.8,384.3,2148.9,382.3z"/>
	<path class="st38" d="M2160.9,393.8c-1.4,3.3-4.9,9.3-13,7.7C2149.8,395,2152.6,393.9,2160.9,393.8z"/>
	<path class="st38" d="M2115.6,394c3.2-1.5,9.9-3.7,14.8,2.9C2124.8,400.4,2121.9,399.5,2115.6,394z"/>
	<path class="st38" d="M2111.1,406.6c3.3-1.2,10.1-2.9,14.5,4.1C2119.7,413.7,2116.9,412.6,2111.1,406.6z"/>
	<circle class="st38" cx="2139.9" cy="404" r="1.6"/>
	<circle class="st38" cx="2142" cy="393.9" r="1.6"/>
	<circle class="st38" cx="2126.9" cy="385.8" r="1.6"/>
	<circle class="st38" cx="2128" cy="416.8" r="1.6"/>
	<circle class="st38" cx="2128.2" cy="409" r="1.4"/>
	<circle class="st38" cx="2149.7" cy="407.4" r="2.4"/>
	<circle class="st38" cx="2125.7" cy="402.2" r="2.4"/>
	<path class="st40" d="M2128.8,410.3c-0.2,0.4,0.3,2,1.4,2.4"/>
	<path class="st40" d="M2129.1,415.7c0.8,0.1,3.1-1.1,4.8,0"/>
	<path class="st40" d="M2140,405.2c-0.3,0.8-0.2,4.1-0.6,5.3"/>
	<path class="st40" d="M2147.4,407.7c-0.8,0.1-5.5-0.9-7.7,2.2"/>
	<path class="st40" d="M2140.9,394c-1.2-0.3-3.4-0.7-5,0.6"/>
	<path class="st40" d="M2126,387.1c-0.1,0.8-0.2,2.6,0.6,4"/>
	<path class="st40" d="M2128.1,402c1.2-0.1,4.3-0.8,5.3,1.1"/>
</g>
<path class="st41" d="M1837,325c3-1,14.1-12.2,13-12s-5-1-7,2S1837,325,1837,325z"/>
<g>
	
		<linearGradient id="SVGID_20_" gradientUnits="userSpaceOnUse" x1="1737.0175" y1="355.0549" x2="1763.7277" y2="380.3424" gradientTransform="matrix(0.962 -0.2732 0.2732 0.962 -9.5368 461.3423)">
		<stop  offset="0" style="stop-color:#BC6353"/>
		<stop  offset="0.6347" style="stop-color:#BC6153"/>
		<stop  offset="0.8631" style="stop-color:#BB5A52"/>
		<stop  offset="1" style="stop-color:#B95151"/>
	</linearGradient>
	<path class="st42" d="M1777.9,321.6c-3.6,1.1-7.2,2.2-8.4,2.8c-2,1.1-10,6.9-10.1,9c-0.4,6.5-3.4,9.5-1.4,11.5c1.2,1.2,5,2,6-7
		c0.1-1.2,0.8-0.7,1.9-1.2c0.7-0.3,1.4-0.6,1.9-0.9c1.7-1,3.8-1.2,5.7-0.6c0.9,0.3,1.9,0.4,3.1,0.2"/>
	<g class="st3">
		<path class="st4" d="M1757.5,343.5c-0.1,0.5,0.3,0.9,0.7,1.1c0.4,0.2,0.9,0.3,1.3,0.3c0.9-0.1,1.6-0.8,2.2-1.6
			c0.6-0.8,1.1-1.7,1.4-2.7c0.4-1,0.6-2,0.7-3.1l0-0.1l0.1,0c1.3-0.5,2.6-1.2,3.7-1.9c1.1-0.7,2.1-1.7,2.2-2.9l0.2-1.8l0.8,1.6
			c0.5,1,1.2,1.9,2.2,2.4c0.5,0.3,1,0.5,1.6,0.6c0.6,0.1,1.2,0.2,1.8,0.2l0,0.1c-0.6,0.1-1.2,0.2-1.8,0.2c-0.6,0-1.3-0.1-1.9-0.4
			c-0.6-0.2-1.2-0.6-1.7-1.1c-0.5-0.5-0.8-1-1.2-1.6l1-0.2c-0.1,0.8-0.5,1.6-1.1,2.2c-0.5,0.6-1.2,1-1.8,1.4c-1.3,0.7-2.7,1.1-4,1.5
			l0.1-0.1l-0.6,3.2c-0.2,1.1-0.5,2.1-1.1,3.1c-0.6,0.9-1.6,1.8-2.9,1.9c-0.6,0-1.2-0.2-1.7-0.6
			C1757.5,344.7,1757.1,344,1757.5,343.5L1757.5,343.5z"/>
	</g>
</g>
<path class="st43" d="M1995,1204c-423,55-405.3-124-584-63c-243,83-233.4-69.7-481-235c-331-221-300.8,171.8-641-31
	c-99.9-59.6-166.5,38.7-289,62.2v283.5c1155.5-1,2720.2-2,2751,0.2C2169,992,2227.1,1173.8,1995,1204z"/>
<linearGradient id="SVGID_21_" gradientUnits="userSpaceOnUse" x1="1220" y1="446.25" x2="1769.5" y2="446.25">
	<stop  offset="0" style="stop-color:#E8EFF9;stop-opacity:0"/>
	<stop  offset="1" style="stop-color:#E8EFF9"/>
</linearGradient>
<path class="st44" d="M1769.5,340.5c-10.2,9.3-18.3,20.5-25.3,32.3c-7,11.8-12.9,24.2-18.5,36.8c-5.6,12.5-10.9,25.2-16.6,37.7
	c-5.7,12.5-11.7,24.9-18.9,36.6c-7.2,11.7-15.6,22.8-26.1,31.8c-5.2,4.5-11,8.3-17.2,11.4c-6.1,3.2-12.4,6.1-18.8,8.5
	c-6.4,2.5-13,4.6-19.6,6.4c-6.6,1.8-13.4,3.2-20.1,4.4c-13.6,2.4-27.3,3.5-41,4c-27.5,0.8-55-1.3-82.3-4c-27.3-2.7-54.6-6-82-8.1
	c-27.4-2.1-54.9-3.1-82.3-1.3c-27.4,1.8-54.7,6.3-80.8,14.7c26.1-8.6,53.4-13.4,80.8-15.2c27.4-1.9,55-1,82.4,1.1
	c27.4,2,54.7,5.2,82,7.9c13.7,1.3,27.4,2.5,41.1,3.2c13.7,0.8,27.4,1.1,41.1,0.8c13.7-0.4,27.4-1.5,40.9-3.9
	c6.8-1.2,13.5-2.6,20.1-4.4c6.6-1.8,13.1-3.9,19.5-6.4c6.4-2.4,12.7-5.3,18.7-8.5c6.1-3.1,11.9-6.9,17.1-11.3
	c10.4-8.9,18.8-20,26-31.6c7.2-11.7,13.2-24.1,18.9-36.6c5.7-12.5,11.1-25.1,16.7-37.6c5.7-12.5,11.6-24.9,18.7-36.7
	C1751.1,360.9,1759.3,349.7,1769.5,340.5z"/>
<linearGradient id="SVGID_22_" gradientUnits="userSpaceOnUse" x1="1232" y1="472.25" x2="1774.0468" y2="472.25">
	<stop  offset="0" style="stop-color:#E8EFF9;stop-opacity:0"/>
	<stop  offset="1" style="stop-color:#E8EFF9"/>
</linearGradient>
<path class="st45" d="M1773.5,359.5c-8.6,11-15.4,23.2-21.3,35.7c-5.9,12.6-11,25.5-15.9,38.5c-4.9,13-9.6,26.1-14.6,39.1
	c-5.1,13-10.5,25.8-17.1,38.1c-6.6,12.2-14.3,24-24.3,33.8c-2.5,2.4-5.1,4.8-7.9,6.9c-2.8,2.1-5.7,4.1-8.7,5.9
	c-6.1,3.4-12.3,6.5-18.8,9.2c-12.9,5.3-26.3,9.3-40,12c-6.8,1.3-13.7,2.4-20.7,3.1c-6.9,0.8-13.9,1.3-20.8,1.6
	c-27.8,1.2-55.7-0.8-83.4-3.5c-27.7-2.7-55.3-6-83-8.2c-27.7-2.2-55.6-3.2-83.3-1.5c-6.9,0.4-13.9,1-20.8,1.8
	c-6.9,0.8-13.8,1.8-20.6,3c-13.7,2.4-27.2,5.7-40.5,9.9c26.4-8.7,54.1-13.5,81.8-15.3c27.8-1.8,55.7-0.8,83.4,1.3
	c27.7,2.1,55.4,5.4,83.1,8c27.7,2.6,55.5,4.6,83.2,3.5c6.9-0.3,13.9-0.8,20.8-1.5c6.9-0.8,13.8-1.8,20.6-3.1
	c13.6-2.6,27-6.5,39.9-11.8c6.4-2.7,12.7-5.7,18.7-9.1c3-1.8,5.9-3.7,8.6-5.8c2.7-2.1,5.3-4.4,7.8-6.9c9.9-9.7,17.6-21.5,24.2-33.7
	c6.6-12.2,12-25.1,17.1-38c5.1-12.9,9.8-26,14.8-39c4.9-13,10.1-25.9,16.1-38.5C1758,382.6,1764.9,370.4,1773.5,359.5z"/>
<linearGradient id="SVGID_23_" gradientUnits="userSpaceOnUse" x1="1279.3923" y1="498.166" x2="1777.5" y2="498.166">
	<stop  offset="0" style="stop-color:#E8EFF9;stop-opacity:0"/>
	<stop  offset="1" style="stop-color:#E8EFF9"/>
</linearGradient>
<path class="st46" d="M1777.5,364.5c-2.1,2.7-4.1,5.6-5.9,8.5c-1.8,3-3.5,6-5,9.1c-3.1,6.2-5.7,12.6-7.9,19.2
	c-4.5,13.1-7.8,26.5-10.7,40c-5.8,27-9.9,54.4-17.1,81.2c-3.6,13.3-8,26.6-14.6,38.8c-1.7,3-3.4,6-5.4,8.9c-2,2.8-4.1,5.6-6.4,8.2
	c-2.3,2.6-4.9,5-7.6,7.1c-2.7,2.1-5.7,4-8.7,5.7c-12.2,6.6-25,12-38.2,16.1c-13.2,4.1-26.8,7-40.5,8.9c-27.5,3.8-55.3,3.7-82.9,2.6
	c-27.6-1.1-55.2-3.2-82.8-4.4c-27.6-1.1-55.3-1.2-82.8,1.3c-27.5,2.5-54.8,7.8-81.1,16.3l-0.2-0.7c26.3-8.6,53.7-13.9,81.2-16.4
	c27.6-2.6,55.3-2.6,82.9-1.5c27.6,1.1,55.2,3.3,82.8,4.4c27.6,1.2,55.3,1.3,82.7-2.4c13.7-1.8,27.2-4.7,40.4-8.8
	c13.2-4.1,26-9.4,38.2-15.9c3-1.6,5.9-3.5,8.6-5.6c2.7-2.1,5.2-4.5,7.5-7.1c2.3-2.5,4.4-5.3,6.4-8.1c2-2.8,3.7-5.8,5.4-8.8
	c6.6-12.1,11-25.3,14.6-38.6c7.2-26.7,11.4-54.1,17.4-81.1c3-13.5,6.3-27,10.9-40c2.3-6.5,4.9-12.9,8-19.1c1.5-3.1,3.2-6.1,5-9.1
	C1773.4,370.1,1775.4,367.2,1777.5,364.5z"/>
<linearGradient id="SVGID_24_" gradientUnits="userSpaceOnUse" x1="1323.3923" y1="501.166" x2="1830.5" y2="501.166">
	<stop  offset="0" style="stop-color:#E8EFF9;stop-opacity:0"/>
	<stop  offset="1" style="stop-color:#E8EFF9"/>
</linearGradient>
<path class="st47" d="M1830.5,334.5c-12.4,8.4-23.2,19-31.8,31.2c-8.7,12.2-15.3,25.7-20.3,39.8c-5.1,14.1-8.7,28.6-11.5,43.3
	c-2.9,14.7-5,29.5-7,44.3c-2,14.8-3.9,29.6-6.5,44.4c-2.6,14.7-5.7,29.4-10.9,43.5c-2.6,7-5.8,13.9-9.8,20.2
	c-4,6.4-8.9,12.2-14.6,17c-2.9,2.4-6,4.6-9.2,6.5l-4.9,2.7c-1.6,0.9-3.3,1.7-5,2.6c-6.7,3.4-13.5,6.4-20.5,9.1
	c-14,5.4-28.5,9.2-43.3,11.7c-14.8,2.5-29.7,3.7-44.7,4c-29.9,0.7-59.8-1.8-89.6-3.5c-14.9-0.9-29.8-1.6-44.8-1.8
	c-14.9-0.2-29.9,0.2-44.8,1.3c-29.8,2.2-59.3,7.8-87.8,17l-0.2-0.7c28.5-9.3,58.1-14.9,87.9-17.2c14.9-1.1,29.9-1.5,44.8-1.4
	c15,0.2,29.9,0.8,44.8,1.7c29.8,1.7,59.7,4.3,89.6,3.7c14.9-0.3,29.9-1.5,44.6-3.9c14.7-2.5,29.2-6.3,43.2-11.6
	c7-2.7,13.8-5.7,20.5-9.1c6.6-3.4,13.3-6.8,19-11.7c5.7-4.8,10.5-10.6,14.5-16.9c4-6.3,7.1-13.1,9.7-20.1c5.2-14,8.3-28.7,10.9-43.4
	c2.5-14.7,4.4-29.6,6.5-44.4c2.1-14.8,4.2-29.6,7.1-44.3c2.9-14.7,6.6-29.2,11.7-43.3c5.1-14,11.7-27.6,20.5-39.8
	C1807.2,353.5,1818.1,342.8,1830.5,334.5z"/>
<g>
	<linearGradient id="SVGID_25_" gradientUnits="userSpaceOnUse" x1="1712.7776" y1="372.8035" x2="1853.1627" y2="372.8035">
		<stop  offset="0" style="stop-color:#E8EFF9"/>
		<stop  offset="1" style="stop-color:#E8EFF9;stop-opacity:0.3"/>
	</linearGradient>
	<path class="st48" d="M1853,352c-3-1-6.2-1.6-9.3-1.6c-3.2,0-6.3,0.5-9.3,1.6c-6,2-11.3,5.6-16.4,9.4c-5.1,3.8-10,7.9-15.1,11.6
		c-5.2,3.7-10.7,7.1-16.6,9.5c-3,1.2-6.1,2.1-9.2,2.7c-3.2,0.6-6.4,0.8-9.5,1c-6.4,0.3-12.8,0.2-19.1-0.1c-3.2-0.2-6.3-0.3-9.5-0.4
		c-3.2-0.1-6.3,0-9.5,0.6c-3.1,0.5-6.2,1.5-8.9,3.1c-2.8,1.6-5.2,3.7-7.3,6c2.1-2.4,4.5-4.6,7.2-6.2c2.7-1.7,5.8-2.8,8.9-3.4
		c3.2-0.6,6.4-0.7,9.5-0.7c3.2,0,6.4,0.1,9.5,0.2c6.3,0.2,12.7,0.4,19,0c3.2-0.2,6.3-0.4,9.4-1c3.1-0.6,6.1-1.5,9-2.7
		c5.9-2.3,11.3-5.6,16.5-9.3c5.2-3.7,10.1-7.7,15.2-11.5c5.1-3.7,10.5-7.3,16.7-9.3c3.1-1,6.3-1.4,9.5-1.3
		C1846.9,350.3,1850,350.9,1853,352z"/>
</g>
<linearGradient id="SVGID_26_" gradientUnits="userSpaceOnUse" x1="1693.0773" y1="392" x2="1854.5415" y2="392">
	<stop  offset="0" style="stop-color:#E8EFF9"/>
	<stop  offset="1" style="stop-color:#E8EFF9;stop-opacity:0.3"/>
</linearGradient>
<path class="st49" d="M1854.5,354.5c-3.8,0.4-7.6,1.3-11.2,2.7c-3.6,1.4-6.9,3.4-10,5.7c-6.3,4.5-11.6,10.1-16.9,15.7
	c-5.3,5.6-10.6,11.2-16.7,16.1c-6,4.9-13,8.8-20.6,10.7c-3.8,1-7.7,1.5-11.6,1.5c-3.9,0-7.7,0-11.6,0.1c-7.7,0.2-15.4,0.6-23.1,1.6
	c-7.6,1-15.2,2.7-22.2,5.9c-3.5,1.6-6.8,3.7-9.7,6.2c-2.9,2.5-5.4,5.5-7.5,8.7c2-3.3,4.5-6.3,7.4-8.9c2.9-2.6,6.1-4.8,9.6-6.5
	c7-3.4,14.7-5.1,22.3-6.3c7.7-1.1,15.4-1.5,23.1-1.7c3.9-0.1,7.7-0.1,11.6-0.2c3.8-0.1,7.6-0.6,11.3-1.5c7.4-1.9,14.2-5.7,20.2-10.5
	c6-4.8,11.3-10.4,16.7-15.9c5.4-5.5,10.8-11.1,17.2-15.6c3.2-2.2,6.6-4.1,10.2-5.5C1846.8,355.6,1850.6,354.8,1854.5,354.5z"/>
<linearGradient id="SVGID_27_" gradientUnits="userSpaceOnUse" x1="1670.0773" y1="419.5" x2="1844.5415" y2="419.5">
	<stop  offset="0" style="stop-color:#E8EFF9"/>
	<stop  offset="1" style="stop-color:#E8EFF9;stop-opacity:0.3"/>
</linearGradient>
<path class="st50" d="M1844.5,381.5c-4.1,0.4-8.1,1.4-11.9,3c-3.8,1.6-7.3,3.8-10.5,6.3c-6.5,5-12.1,11.1-17.8,17
	c-5.7,6-11.5,11.9-18.3,16.6c-6.8,4.8-14.7,8.1-23,9.1c-2.1,0.2-4.1,0.4-6.2,0.4l-6.2,0c-4.1,0.1-8.2,0.2-12.3,0.4
	c-8.2,0.4-16.4,1.1-24.5,2.3c-8.1,1.3-16.2,3.1-23.8,6.2c-3.8,1.6-7.5,3.4-10.8,5.8c-1.7,1.2-3.2,2.5-4.7,4
	c-1.4,1.5-2.7,3.1-3.9,4.8c1.1-1.7,2.4-3.4,3.8-4.9c1.4-1.5,3-2.9,4.6-4.1c3.3-2.5,7-4.4,10.8-6.1c7.6-3.2,15.7-5.1,23.9-6.5
	c8.1-1.4,16.4-2.1,24.6-2.5c4.1-0.2,8.2-0.3,12.4-0.4c4.1-0.1,8.2,0.1,12.3-0.5c8.1-1,15.9-4.2,22.5-8.9
	c6.7-4.7,12.5-10.5,18.3-16.4c5.7-5.9,11.4-11.9,18.1-16.9c3.3-2.4,6.9-4.6,10.8-6.1C1836.3,382.7,1840.4,381.8,1844.5,381.5z"/>
<linearGradient id="SVGID_28_" gradientUnits="userSpaceOnUse" x1="1587.5" y1="467.5" x2="1798.9978" y2="467.5">
	<stop  offset="0" style="stop-color:#E8EFF9;stop-opacity:0"/>
	<stop  offset="1" style="stop-color:#E8EFF9"/>
</linearGradient>
<path class="st51" d="M1798.5,432.5c-3.3,3.3-6.8,6.4-10.7,9.1c-3.9,2.7-8.1,4.8-12.5,6.5c-8.8,3.3-18.3,4.5-27.6,5.2l-14,1.1
	c-4.7,0.4-9.3,0.8-13.9,1.5c-9.2,1.5-18.2,4.1-27,7.4c-8.7,3.3-17.3,7.1-26,10.7c-8.6,3.7-17.3,7.2-26,10.6
	c-17.5,6.8-35.3,12.6-53.3,17.9c17.9-5.5,35.6-11.6,53.1-18.5c8.7-3.4,17.4-7,26-10.7c8.6-3.7,17.2-7.5,25.9-10.8
	c8.8-3.3,17.8-6,27.1-7.5c9.3-1.5,18.7-1.9,28-2.6c9.3-0.7,18.7-1.8,27.5-4.9C1783.8,444.3,1791.8,439,1798.5,432.5z"/>
<linearGradient id="SVGID_29_" gradientUnits="userSpaceOnUse" x1="1451.5" y1="489.4948" x2="1785.5" y2="489.4948">
	<stop  offset="0" style="stop-color:#E8EFF9;stop-opacity:0"/>
	<stop  offset="1" style="stop-color:#E8EFF9"/>
</linearGradient>
<path class="st52" d="M1785.5,465.5c-5.9,4-12.6,6.9-19.5,8.8c-6.9,1.9-14,2.9-21.1,3.9c-7.1,1-14.2,1.9-21.2,3.4
	c-3.5,0.8-6.9,1.7-10.4,2.7c-3.4,1.1-6.8,2.3-10,3.7c-6.6,2.8-12.7,6.5-19.1,9.7c-6.4,3.2-13,6.1-19.8,8.5
	c-6.8,2.4-13.7,4.2-20.8,5.4c-7.1,1.2-14.3,1.7-21.5,1.8c-7.2,0-14.3-0.5-21.5-1.2c-7.1-0.7-14.2-1.6-21.3-2.6
	c-14.2-2-28.3-4.2-42.5-6.2c-14.2-2-28.4-3.9-42.6-5.5c-14.2-1.7-28.5-3.2-42.7-4.5c14.3,1.2,28.5,2.5,42.8,4
	c14.2,1.6,28.4,3.4,42.6,5.4c14.2,1.9,28.3,4.1,42.5,6c14.2,1.9,28.4,3.6,42.7,3.6c7.1,0,14.3-0.5,21.3-1.7c7-1.2,14-3,20.7-5.3
	c6.7-2.3,13.3-5.2,19.7-8.4c6.4-3.1,12.6-6.9,19.2-9.6c3.3-1.4,6.7-2.6,10.1-3.7c3.4-1.1,6.9-1.9,10.4-2.7c7-1.5,14.1-2.4,21.2-3.3
	c7.1-0.9,14.2-1.8,21.1-3.7C1772.8,472.3,1779.5,469.4,1785.5,465.5z"/>
<linearGradient id="SVGID_30_" gradientUnits="userSpaceOnUse" x1="1454.5" y1="515.0708" x2="1788.5" y2="515.0708">
	<stop  offset="0" style="stop-color:#E8EFF9;stop-opacity:0"/>
	<stop  offset="1" style="stop-color:#E8EFF9"/>
</linearGradient>
<path class="st53" d="M1788.5,495.5c-5.9,4-12.2,7.2-18.9,9.7c-6.6,2.5-13.5,4.3-20.5,5.8c-6.9,1.5-13.9,2.7-20.9,4.1
	c-7,1.4-13.9,2.9-20.7,4.6c-6.9,1.8-13.6,4-20.4,5.9c-6.8,1.9-13.7,3.6-20.7,5c-7,1.4-14,2.4-21.1,3.1s-14.2,1-21.3,1
	c-14.2,0-28.4-1.2-42.5-2.5c-14.1-1.3-28.2-2.7-42.3-3.9c-14.1-1.2-28.3-2.2-42.4-2.9c-14.1-0.8-28.3-1.4-42.5-1.8
	c14.2,0.2,28.3,0.6,42.5,1.3c14.2,0.7,28.3,1.6,42.4,2.7c14.1,1.1,28.2,2.5,42.3,3.7c14.1,1.3,28.2,2.4,42.4,2.4
	c7.1,0,14.1-0.2,21.2-0.9c7-0.7,14-1.7,21-3c6.9-1.3,13.8-3,20.7-4.9c6.8-1.9,13.6-4.1,20.4-5.8c6.9-1.8,13.8-3.2,20.8-4.6
	c7-1.3,13.9-2.5,20.9-4c6.9-1.4,13.8-3.1,20.5-5.5C1776.2,502.6,1782.6,499.4,1788.5,495.5z"/>
<linearGradient id="SVGID_31_" gradientUnits="userSpaceOnUse" x1="1702.413" y1="488.1159" x2="1702.413" y2="488.1159">
	<stop  offset="0" style="stop-color:#E8EFF9;stop-opacity:0"/>
	<stop  offset="1" style="stop-color:#E8EFF9"/>
</linearGradient>
<path class="st54" d="M1702.4,488.1"/>
<linearGradient id="SVGID_32_" gradientUnits="userSpaceOnUse" x1="1771.9855" y1="430.5" x2="1839.887" y2="430.5">
	<stop  offset="0" style="stop-color:#E8EFF9;stop-opacity:0"/>
	<stop  offset="1" style="stop-color:#E8EFF9"/>
</linearGradient>
<path class="st55" d="M1839.5,346.5c-4.8,6-9.4,12.2-13.8,18.5c-4.4,6.3-8.7,12.7-12.8,19.3c-8.1,13.1-15.6,26.6-21.8,40.7
	c-6.3,14-11.5,28.6-14.8,43.6c-1.7,7.5-2.9,15.1-3.3,22.8c-0.5,7.7-0.4,15.4,0.5,23.1c-1.1-7.6-1.3-15.4-1-23.1
	c0.4-7.7,1.5-15.4,3.1-23c3.1-15.1,8.4-29.8,14.6-43.9c6.4-14.1,13.8-27.6,22.1-40.7c4.1-6.5,8.5-12.9,13-19.1
	C1829.8,358.5,1834.6,352.4,1839.5,346.5z"/>
<linearGradient id="SVGID_33_" gradientUnits="userSpaceOnUse" x1="1805.1799" y1="383.5" x2="1850.9309" y2="383.5">
	<stop  offset="0" style="stop-color:#E8EFF9;stop-opacity:0"/>
	<stop  offset="1" style="stop-color:#E8EFF9"/>
</linearGradient>
<path class="st56" d="M1850.5,350.5l-4.8,8.8l-4.8,8.8c-3.2,5.9-6.6,11.6-10.1,17.3c-3.6,5.7-7.3,11.2-11.4,16.5
	c-4.1,5.3-8.6,10.3-13.9,14.5c1.2-1.2,2.4-2.3,3.6-3.5c1.1-1.2,2.3-2.4,3.4-3.7c1.1-1.3,2.2-2.5,3.2-3.8c1-1.3,2.1-2.6,3.1-4
	c4-5.3,7.7-10.9,11.2-16.6c3.6-5.6,6.9-11.4,10.3-17.2C1843.6,362,1846.9,356.2,1850.5,350.5z"/>
<linearGradient id="SVGID_34_" gradientUnits="userSpaceOnUse" x1="1638.5" y1="581.5635" x2="1781.4913" y2="581.5635">
	<stop  offset="0" style="stop-color:#E8EFF9;stop-opacity:0"/>
	<stop  offset="1" style="stop-color:#E8EFF9"/>
</linearGradient>
<path class="st57" d="M1781,449.6c-1.9,7.4-3.8,14.7-5.3,22.2c-1.5,7.5-2.7,15-3.5,22.5c-1.7,15.1-1.7,30.4-0.7,45.6
	c0.1,1.9,0.3,3.8,0.5,5.7l0.5,5.7l1.4,11.3c1.1,7.5,2.3,15,3.4,22.6c2.2,15.1,3.8,30.3,2.6,45.6c-0.6,7.6-2,15.2-4.4,22.5
	c-2.4,7.3-5.9,14.2-10.5,20.3c-4.6,6.1-10.2,11.5-16.4,15.9c-6.2,4.5-13.1,8-20.1,10.9c-14.2,5.7-29.2,8.9-44.3,10.9
	c-7.6,0.9-15.2,1.5-22.8,1.9c-7.6,0.3-15.2,0.4-22.8,0.4c7.6,0,15.2-0.2,22.8-0.6c7.6-0.4,15.2-1.1,22.7-2.1
	c15.1-2,30.1-5.2,44.1-11c7-2.9,13.8-6.4,19.9-10.9c6.2-4.4,11.7-9.7,16.2-15.8c4.5-6.1,7.9-12.9,10.3-20.1
	c2.4-7.2,3.7-14.7,4.3-22.3c1.2-15.1-0.3-30.4-2.4-45.4c-1.1-7.5-2.3-15.1-3.3-22.6c-0.5-3.8-0.9-7.6-1.4-11.4l-0.5-5.7
	c-0.2-1.9-0.4-3.8-0.4-5.7c-1-15.2-0.9-30.5,0.9-45.7c0.9-7.6,2.1-15.1,3.7-22.5C1777,464.3,1779,457,1781,449.6z"/>
<linearGradient id="SVGID_35_" gradientUnits="userSpaceOnUse" x1="1322.2827" y1="905.9847" x2="1623.8925" y2="905.9847">
	<stop  offset="0" style="stop-color:#FFFFFF;stop-opacity:0"/>
	<stop  offset="3.680962e-02" style="stop-color:#FCFDFF;stop-opacity:1.104289e-02"/>
	<stop  offset="0.3642" style="stop-color:#E8EDFF;stop-opacity:0.1093"/>
	<stop  offset="0.6875" style="stop-color:#DBE4FF;stop-opacity:0.2063"/>
	<stop  offset="1" style="stop-color:#D7E1FF;stop-opacity:0.3"/>
</linearGradient>
<path class="st58" d="M1330.7,861c8.4,10.4,18.5,19.3,30.3,25.3c11.8,5.9,25.1,8.7,38.6,8.8c13.5,0.1,27.2-2,40.6-5.2
	c6.7-1.6,13.4-3.5,20-5.6c1.7-0.5,3.3-1,5-1.6c1.6-0.6,3.3-1.1,4.9-1.7l4.9-1.7l5.1-1.6c6.9-2,14-3.4,21.2-3.9
	c7.2-0.5,14.4-0.1,21.4,1c14.1,2.3,27.6,7.7,39.6,15c12.1,7.3,22.9,16.5,32.5,26.9c9.5,10.3,17.8,21.8,24.1,34.3
	c-6.7-12.3-15.3-23.4-25.1-33.4c-9.8-9.9-20.8-18.6-32.9-25.4c-12.1-6.8-25.2-11.6-38.8-13.3c-6.8-0.9-13.7-1-20.4-0.3
	c-6.8,0.7-13.5,2.2-19.9,4.3c-25.9,9.8-53.2,19.6-82.2,20.3c-14.4,0.3-29.3-2.1-42.8-8.4c-6.7-3.1-13-7.1-18.8-11.6
	c-5.8-4.6-11-9.7-15.8-15.2L1330.7,861z"/>
<linearGradient id="SVGID_36_" gradientUnits="userSpaceOnUse" x1="1343.9216" y1="819.3987" x2="1615.5334" y2="686.9956">
	<stop  offset="0" style="stop-color:#FFFFFF;stop-opacity:0"/>
	<stop  offset="3.680962e-02" style="stop-color:#FCFDFF;stop-opacity:1.104289e-02"/>
	<stop  offset="0.3642" style="stop-color:#E8EDFF;stop-opacity:0.1093"/>
	<stop  offset="0.6875" style="stop-color:#DBE4FF;stop-opacity:0.2063"/>
	<stop  offset="1" style="stop-color:#D7E1FF;stop-opacity:0.3"/>
</linearGradient>
<path class="st59" d="M1333.6,778.9c14.5,6.7,29,13.1,44,17.1c7.5,2,15.1,3.2,22.7,3.4c3.8,0.1,7.5-0.2,11.2-0.8
	c3.7-0.6,7.3-1.5,10.8-2.8c7-2.6,13.4-6.7,19-12c5.6-5.2,10.3-11.4,14.5-18c4.1-6.6,7.6-13.7,10.6-21c1.5-3.6,2.9-7.4,4.2-11.1
	c1.4-3.8,2.8-7.7,4.5-11.4c1.7-3.7,3.6-7.4,5.7-10.9c2.2-3.5,4.5-6.9,7.2-10.1c5.3-6.4,11.7-11.9,19-15.9c7.3-4,15.3-6.5,23.5-7.5
	c8.2-1,16.4-0.4,24.4,1.2c16,3.2,30.9,10.5,44,19.9c13.1,9.4,24.5,21.2,33.3,34.6c-9.2-13.2-20.9-24.5-34.1-33.5
	c-13.2-8.9-28.1-15.6-43.7-18.3c-7.8-1.3-15.8-1.6-23.5-0.5c-7.7,1.1-15.3,3.7-21.9,7.6c-6.7,3.9-12.5,9.3-17.3,15.4
	c-2.4,3.1-4.6,6.3-6.5,9.7c-1.9,3.4-3.6,6.9-5.2,10.5c-1.6,3.6-2.8,7.3-4,11.1c-1.2,3.9-2.5,7.7-4,11.5c-2.9,7.6-6.3,15.1-10.4,22.3
	c-4.2,7.1-9.1,13.9-15.1,19.9c-6,6-13.2,10.9-21.1,14.2c-4,1.6-8.1,2.8-12.3,3.6c-4.2,0.8-8.5,1.2-12.7,1.2
	c-8.5,0.1-16.9-1.1-25-2.9c-16.2-3.8-31.4-10-46.2-16.3L1333.6,778.9z"/>
<linearGradient id="SVGID_37_" gradientUnits="userSpaceOnUse" x1="1666.2019" y1="777.0262" x2="1368.4032" y2="792.7345">
	<stop  offset="0" style="stop-color:#FFFFFF;stop-opacity:0"/>
	<stop  offset="3.680962e-02" style="stop-color:#FCFDFF;stop-opacity:1.104289e-02"/>
	<stop  offset="0.3642" style="stop-color:#E8EDFF;stop-opacity:0.1093"/>
	<stop  offset="0.6875" style="stop-color:#DBE4FF;stop-opacity:0.2063"/>
	<stop  offset="1" style="stop-color:#D7E1FF;stop-opacity:0.3"/>
</linearGradient>
<path class="st60" d="M1659.5,732.9c-1.8,2.8-3.9,5.6-6.2,8c-1.2,1.3-2.4,2.4-3.8,3.5c-1.4,1-2.8,2-4.3,2.8c-3,1.7-6.3,2.8-9.7,3.5
	c-3.4,0.7-6.8,1-10.2,1.1c-6.9,0.2-13.7-0.4-20.4-1.1c-6.8-0.7-13.5-1.7-20.2-2.7l-10-1.6c-3.3-0.5-6.6-1.1-9.9-1.6
	c-6.6-1-13.2-1.7-19.9-1.9c-3.3-0.1-6.6-0.1-9.9,0c-3.3,0.2-6.5,0.5-9.7,0.9c-6.4,1-12.6,2.9-18.2,5.8
	c-11.4,5.8-20.2,15.8-29.4,25.7c-4.6,4.9-9.4,9.9-14.4,14.6c-5,4.7-10.3,9.2-15.8,13.4c-11.1,8.3-23,15.4-35.4,21.4
	c-12.4,6-25.3,10.9-38.3,15.2l-3.3-10.5c12.7-3.9,25.3-8.3,37.3-13.8c12.1-5.5,23.6-11.9,34.3-19.6c5.3-3.9,10.5-8,15.4-12.4
	c4.9-4.4,9.7-9.1,14.4-13.9c4.7-4.8,9.4-9.7,14.6-14.4c5.2-4.6,11-8.9,17.4-12c6.4-3.1,13.4-5.1,20.4-6c3.5-0.5,7-0.7,10.5-0.8
	c3.5,0,6.9,0,10.4,0.3c13.8,0.9,27.2,3.6,40.3,6.5c6.6,1.4,13.2,2.7,19.8,3.8c6.6,1.1,13.3,2,19.9,2.2c3.3,0.1,6.7,0,9.9-0.5
	c3.3-0.5,6.5-1.3,9.5-2.8c1.5-0.7,2.9-1.6,4.3-2.5c1.3-1,2.7-2,3.9-3.2C1655.3,738.2,1657.5,735.6,1659.5,732.9z"/>
<linearGradient id="SVGID_38_" gradientUnits="userSpaceOnUse" x1="1242.075" y1="900.2979" x2="1513.8927" y2="900.2979">
	<stop  offset="0" style="stop-color:#FFFFFF;stop-opacity:0"/>
	<stop  offset="3.680962e-02" style="stop-color:#FCFDFF;stop-opacity:1.104289e-02"/>
	<stop  offset="0.3642" style="stop-color:#E8EDFF;stop-opacity:0.1093"/>
	<stop  offset="0.6875" style="stop-color:#DBE4FF;stop-opacity:0.2063"/>
	<stop  offset="1" style="stop-color:#D7E1FF;stop-opacity:0.3"/>
</linearGradient>
<path class="st61" d="M1252.9,847.6c1,6.5,2.3,12.9,4.3,18.9c2,6,4.6,11.8,8.3,16.6c3.6,4.8,8.4,8.6,14,10.9
	c5.6,2.3,11.9,3.2,18.3,3.2c6.4,0,13-0.8,19.5-2c6.5-1.2,13-2.9,19.4-4.7c6.4-1.8,12.9-3.9,19.2-6l9.6-3.3c3.3-1.2,6.6-2.1,10-2.9
	c6.8-1.6,13.7-2.5,20.7-2.7c6.9-0.1,13.9,0.5,20.7,1.9c13.6,2.8,26.4,8.4,37.9,15.7c11.6,7.3,21.9,16.4,31.1,26.4
	c4.6,5,8.8,10.4,12.7,15.9c3.9,5.6,7.4,11.4,10.5,17.4c-3.2-6-6.9-11.6-11-17c-4.1-5.4-8.5-10.5-13.2-15.4
	c-9.4-9.7-19.9-18.3-31.5-25.1c-11.5-6.8-24.2-11.8-37.3-14.1c-6.5-1.1-13.2-1.5-19.8-1.2c-6.6,0.3-13.1,1.4-19.5,3.2
	c-3.2,0.9-6.3,1.9-9.4,3.1l-9.5,3.7c-6.4,2.4-12.8,4.7-19.3,6.8c-6.5,2.1-13.1,4-19.9,5.5c-6.8,1.5-13.7,2.6-20.8,2.9
	c-3.6,0.1-7.2,0-10.8-0.5c-3.6-0.5-7.3-1.3-10.8-2.7c-3.5-1.3-6.9-3.1-10-5.4c-3.1-2.2-5.8-4.9-8.2-7.8c-4.8-5.8-8.1-12.5-10.5-19.2
	c-2.5-6.7-4.1-13.6-5.4-20.5L1252.9,847.6z"/>
<linearGradient id="SVGID_39_" gradientUnits="userSpaceOnUse" x1="1754.8964" y1="631.5" x2="1821.5718" y2="631.5">
	<stop  offset="0" style="stop-color:#E8EFF9;stop-opacity:0"/>
	<stop  offset="1" style="stop-color:#E8EFF9"/>
</linearGradient>
<path class="st62" d="M1789,520c1.9,5.1,3.9,10.1,5.8,15.2c1.9,5.1,3.8,10.1,5.7,15.3c3.6,10.2,6.9,20.6,9.8,31
	c5.8,20.9,10.1,42.3,11.1,64.1c0.4,10.9-0.1,21.8-2.1,32.5c-2,10.7-5.5,21.2-11.2,30.5c-5.7,9.3-13.6,17.2-22.8,22.9
	c-4.6,2.9-9.5,5.2-14.6,7.1c-5.1,1.9-10.3,3.3-15.6,4.4c5.3-1.2,10.5-2.7,15.6-4.7c5-2,9.9-4.4,14.5-7.3c9.2-5.7,17-13.6,22.5-22.9
	c5.6-9.2,9.1-19.7,11-30.3c1.9-10.6,2.3-21.5,1.9-32.3c-0.9-21.6-5.1-43-10.7-63.9C1804,560.7,1796.6,540.3,1789,520z"/>
<linearGradient id="SVGID_40_" gradientUnits="userSpaceOnUse" x1="1629.5" y1="537.2572" x2="1805.5339" y2="537.2572">
	<stop  offset="0" style="stop-color:#E8EFF9;stop-opacity:0"/>
	<stop  offset="1" style="stop-color:#E8EFF9"/>
</linearGradient>
<path class="st63" d="M1805.2,528.7c-3.5,1.2-7.1,2.1-10.7,3c-3.6,0.9-7.2,1.7-10.8,2.4c-7.2,1.5-14.5,2.8-21.8,4
	c-14.6,2.4-29.3,4.3-44,5.7c-14.7,1.3-29.5,2.1-44.4,1.9c-7.4-0.1-14.8-0.5-22.2-1.2c-7.4-0.8-14.7-2-21.8-4
	c7.2,1.8,14.5,2.9,21.9,3.5c7.4,0.7,14.7,0.9,22.1,1c14.8,0.1,29.5-0.8,44.3-2.1c14.7-1.3,29.4-3.2,44-5.4
	c7.3-1.1,14.6-2.4,21.9-3.7c3.6-0.7,7.3-1.4,10.9-2.2C1798.1,530.7,1801.7,529.9,1805.2,528.7z"/>
<linearGradient id="SVGID_41_" gradientUnits="userSpaceOnUse" x1="1600.5" y1="563.8655" x2="1816.8624" y2="563.8655">
	<stop  offset="0" style="stop-color:#E8EFF9;stop-opacity:0"/>
	<stop  offset="1" style="stop-color:#E8EFF9"/>
</linearGradient>
<path class="st64" d="M1816.5,558.5c-17.2,6.6-35.2,10.8-53.4,13.5c-18.2,2.7-36.7,3.6-55.1,3.1c-9.2-0.3-18.4-1-27.5-2.1
	c-9.1-1.1-18.2-2.5-27.2-4.5c-18-3.7-35.7-9.2-52.8-16c8.6,3.1,17.3,6.2,26.2,8.7c4.4,1.4,8.9,2.4,13.3,3.6l6.7,1.5
	c1.1,0.3,2.2,0.5,3.4,0.8l3.4,0.7c9,1.8,18.1,3.3,27.2,4.3c9.1,1.1,18.3,1.7,27.5,2c18.3,0.6,36.7-0.3,54.9-2.8
	c9.1-1.3,18.1-2.9,27.1-5C1799,564.1,1807.9,561.7,1816.5,558.5z"/>
<linearGradient id="SVGID_42_" gradientUnits="userSpaceOnUse" x1="1552.5" y1="584.3445" x2="1829.4232" y2="584.3445">
	<stop  offset="0" style="stop-color:#E8EFF9;stop-opacity:0"/>
	<stop  offset="1" style="stop-color:#E8EFF9"/>
</linearGradient>
<path class="st65" d="M1829,577c-2.8,1.2-5.4,2.8-8,4.4c-2.6,1.6-5.2,3.1-7.9,4.6c-5.3,3-10.7,5.8-16.3,8.3
	c-11.1,5-22.8,8.8-34.7,11.4c-11.9,2.6-24.1,4-36.3,4.4c-12.2,0.3-24.4-0.4-36.5-2c-12.1-1.5-24.1-4.2-35.9-7.2l-8.8-2.5
	c-1.5-0.4-2.9-0.9-4.4-1.3l-4.4-1.4l-4.4-1.4l-2.2-0.7l-2.1-0.8l-8.6-3.1c-1.4-0.5-2.9-1-4.3-1.6l-4.2-1.7l-8.5-3.5
	c-5.6-2.4-11.1-5-16.7-7.5l-16.4-8.2l-16.1-8.7l16.2,8.5l16.5,8c5.6,2.5,11.1,5,16.7,7.4l8.5,3.4l4.2,1.7c1.4,0.6,2.9,1,4.3,1.6
	l8.6,3.1l2.1,0.8l2.2,0.7l4.4,1.4l4.4,1.4c1.4,0.5,2.9,0.9,4.4,1.3l8.8,2.4c11.8,3,23.7,5.6,35.8,7.1c12.1,1.6,24.2,2.4,36.4,2.1
	c12.2-0.3,24.3-1.6,36.2-4.2c11.9-2.5,23.5-6.3,34.7-11.2c5.6-2.4,11-5.2,16.4-8.1c2.7-1.5,5.3-3,7.9-4.5
	C1823.6,579.8,1826.2,578.2,1829,577z"/>
<linearGradient id="SVGID_43_" gradientUnits="userSpaceOnUse" x1="1362" y1="576.1827" x2="1844" y2="576.1827">
	<stop  offset="0" style="stop-color:#E8EFF9;stop-opacity:0"/>
	<stop  offset="1" style="stop-color:#E8EFF9"/>
</linearGradient>
<path class="st66" d="M1844,614c-4.7,2.7-9.6,5.1-14.6,7.4c-2.5,1.2-5,2.2-7.5,3.3c-2.5,1-5,2.1-7.6,3.1c-10.2,4-20.6,7.5-31.1,10.4
	c-10.5,2.9-21.2,5.3-32,7.1c-10.8,1.8-21.7,3-32.6,3.6c-10.9,0.6-21.9,0.4-32.8-0.3l-8.2-0.8c-1.4-0.1-2.7-0.2-4.1-0.4l-4.1-0.6
	c-2.7-0.4-5.4-0.7-8.1-1.2l-8.1-1.6c-2.7-0.5-5.3-1.2-8-1.8c-2.6-0.7-5.3-1.3-8-2l-7.9-2.4c-1.3-0.4-2.6-0.8-3.9-1.2l-3.9-1.4
	l-7.7-2.8l-7.5-3.3l-3.8-1.6c-1.3-0.5-2.5-1.2-3.7-1.8l-7.3-3.7l-1.8-0.9l-1.8-1l-3.6-2.1c-2.4-1.4-4.8-2.7-7.1-4.1l-6.9-4.5
	c-2.3-1.5-4.6-2.9-6.8-4.6l-6.6-4.9c-2.2-1.6-4.4-3.3-6.5-4.9l-13-10l-6.5-5l-6.6-4.8l-13.3-9.6c-4.5-3.1-9-6.1-13.5-9.2
	c-2.3-1.5-4.5-3.1-6.8-4.6l-6.9-4.3c-18.5-11.6-37.7-22.2-58.2-29.9c-10.2-3.8-20.8-6.7-31.6-8.6c-10.7-2-21.7-2.9-32.2-5.9
	c10.5,3,21.5,3.8,32.3,5.7c10.8,1.8,21.4,4.7,31.7,8.4c20.5,7.6,39.8,18.2,58.4,29.8l7,4.3c2.3,1.5,4.5,3,6.8,4.6
	c4.5,3.1,9.1,6.1,13.6,9.2l13.3,9.6l6.6,4.8l6.5,5l13,10c2.2,1.7,4.3,3.3,6.5,4.9l6.6,4.9c2.1,1.7,4.5,3.1,6.8,4.6l6.8,4.5
	c2.3,1.4,4.7,2.7,7.1,4.1l3.5,2l1.8,1l1.8,0.9l7.3,3.7c1.2,0.6,2.4,1.3,3.7,1.8l3.8,1.6l7.5,3.3l7.7,2.8l3.8,1.4
	c1.3,0.5,2.6,0.8,3.9,1.2l7.8,2.4c2.6,0.8,5.3,1.4,7.9,2c2.6,0.7,5.3,1.4,8,1.8l8,1.6c2.7,0.5,5.4,0.8,8.1,1.2l4,0.6
	c1.4,0.2,2.7,0.3,4.1,0.4l8.1,0.8c10.9,0.7,21.8,0.9,32.7,0.3c10.9-0.6,21.8-1.8,32.5-3.5c10.8-1.8,21.4-4.2,32-7
	c10.5-2.9,20.9-6.3,31.1-10.2c2.6-1,5.1-2,7.6-3c2.5-1.1,5-2.1,7.5-3.3C1834.3,619.1,1839.2,616.7,1844,614z"/>
<linearGradient id="SVGID_44_" gradientUnits="userSpaceOnUse" x1="1644.5" y1="671.5324" x2="1847.0344" y2="671.5324">
	<stop  offset="0" style="stop-color:#E8EFF9;stop-opacity:0"/>
	<stop  offset="1" style="stop-color:#E8EFF9"/>
</linearGradient>
<path class="st67" d="M1846.5,649.5c-2.9,3.4-6.2,6.3-9.8,9.1c-3.5,2.7-7.3,5.1-11.1,7.4c-7.7,4.5-15.8,8.3-24.1,11.5
	c-16.6,6.5-34,10.8-51.6,13.4c-17.6,2.5-35.5,3.3-53.3,1.9l-3.3-0.2c-1.1-0.1-2.2-0.2-3.3-0.4c-2.2-0.3-4.4-0.4-6.6-0.8l-6.6-1
	l-6.6-1.2c-8.7-1.8-17.3-4.1-25.8-6.8c17,5.2,34.6,8.5,52.3,9.6c17.7,1.2,35.5,0.4,53.1-2.2c17.6-2.5,34.9-6.9,51.5-13.2
	c8.3-3.2,16.4-6.8,24.1-11.2c3.8-2.2,7.6-4.5,11.2-7.2C1840.1,655.7,1843.6,652.8,1846.5,649.5z"/>
<g>
	<linearGradient id="SVGID_45_" gradientUnits="userSpaceOnUse" x1="1214.995" y1="842.7352" x2="1265.5591" y2="842.7352">
		<stop  offset="0" style="stop-color:#FFC671"/>
		<stop  offset="0.1247" style="stop-color:#FFC875"/>
		<stop  offset="0.2538" style="stop-color:#FFCD82"/>
		<stop  offset="0.385" style="stop-color:#FFD596"/>
		<stop  offset="0.5176" style="stop-color:#FFE1B3"/>
		<stop  offset="0.65" style="stop-color:#FFEFD8"/>
		<stop  offset="0.7654" style="stop-color:#FFFFFF"/>
	</linearGradient>
	<path class="st68" d="M1248.3,808.3c-1.8,3.2-4.6,10.9-12.4,17.7s-24.8,31.4-20.1,50.8c0,0,2.5,0.7,4.6,0s3.9,0.7,6.7-1.1
		s4.6,1.8,6.4-0.7s3.5,1.8,5.6-1.1s3.5-1.8,3.9-3.9s5.6-1.1,6-3.2s2.1-0.7,2.5-2.8s3.5-0.4,4.2-3.5s-0.7-4.6,2.1-4.9
		s4.6-0.7,5.6-3.5s-1.1-6,0.4-8.1s-1.8-3.9-1.1-5.6s2.8-3.2,2.8-6.4S1248.3,808.3,1248.3,808.3z"/>
	<linearGradient id="SVGID_46_" gradientUnits="userSpaceOnUse" x1="1296.9785" y1="793.5464" x2="1356.6913" y2="793.5464">
		<stop  offset="0" style="stop-color:#FFC671"/>
		<stop  offset="0.1247" style="stop-color:#FFC875"/>
		<stop  offset="0.2538" style="stop-color:#FFCD82"/>
		<stop  offset="0.385" style="stop-color:#FFD596"/>
		<stop  offset="0.5176" style="stop-color:#FFE1B3"/>
		<stop  offset="0.65" style="stop-color:#FFEFD8"/>
		<stop  offset="0.7654" style="stop-color:#FFFFFF"/>
	</linearGradient>
	<path class="st69" d="M1297,784.7c5.3-2.1,39.5-12.1,58.4,2.1c3.8,2.8-1.6,8.2-4.7,7.8s-1.4,1.8-3.5,3.5s-3.5,1.1-4.9,1.1
		s-2.8,0.7-4.6,3.2s-2.8,1.4-4.9,1.4s-5.3,6.7-9.9,2.8S1297,784.7,1297,784.7z"/>
	<linearGradient id="SVGID_47_" gradientUnits="userSpaceOnUse" x1="1306.9746" y1="794.3823" x2="1339.781" y2="794.3823">
		<stop  offset="0.2346" style="stop-color:#FFFFFF"/>
		<stop  offset="0.35" style="stop-color:#FFEFD8"/>
		<stop  offset="0.4824" style="stop-color:#FFE1B3"/>
		<stop  offset="0.615" style="stop-color:#FFD596"/>
		<stop  offset="0.7462" style="stop-color:#FFCD82"/>
		<stop  offset="0.8753" style="stop-color:#FFC875"/>
		<stop  offset="1" style="stop-color:#FFC671"/>
	</linearGradient>
	<path class="st70" d="M1339.8,797.8c-9.1-3.9-20.8-6.6-32.8-6.9"/>
	<linearGradient id="SVGID_48_" gradientUnits="userSpaceOnUse" x1="1307.4098" y1="797.9568" x2="1331.3319" y2="797.9568">
		<stop  offset="0.2346" style="stop-color:#FFFFFF"/>
		<stop  offset="0.35" style="stop-color:#FFEFD8"/>
		<stop  offset="0.4824" style="stop-color:#FFE1B3"/>
		<stop  offset="0.615" style="stop-color:#FFD596"/>
		<stop  offset="0.7462" style="stop-color:#FFCD82"/>
		<stop  offset="0.8753" style="stop-color:#FFC875"/>
		<stop  offset="1" style="stop-color:#FFC671"/>
	</linearGradient>
	<path class="st71" d="M1331.3,802.4c-5.8-3.2-15.3-8.5-23.9-8.8"/>
	<linearGradient id="SVGID_49_" gradientUnits="userSpaceOnUse" x1="1228.2899" y1="812.5" x2="1616" y2="812.5">
		<stop  offset="0" style="stop-color:#D75825"/>
		<stop  offset="0.2004" style="stop-color:#E1815A"/>
		<stop  offset="0.6576" style="stop-color:#F9E6DF"/>
		<stop  offset="0.7654" style="stop-color:#FFFFFF"/>
	</linearGradient>
	<path class="st72" d="M1248.1,745c-3.6-2.7-19.1-6-19.8,15.5c-0.7,21.5,13.8,46.6,24,59c10.2,12.4,34.2,50.5,120,44.1
		c35.5-2.6,38.4-39.9,82.4-22.8c41.6,16.1,33.2-1.4,55.9,9.6c27.6,13.4,30.6,2.2,41.9,7.5s33.4-3.9,59.4,24.1
		c-5.8-27.3-25.7-33.6-27.8-48.4c-2.1-14.8-33.3-22.8-39-23.5c25.1,7.8,57.8,7.2,70.8-5.1c-46.8,2.6-80.6-46.8-147.5-4.5
		c-23,14.5-41.6,35.8-76.2,32.6s-72.4-30-79.8-37.1s-42-36.7-47.3-39.9C1259.9,752.9,1252.5,748.3,1248.1,745z"/>
	<linearGradient id="SVGID_50_" gradientUnits="userSpaceOnUse" x1="1291.6831" y1="815.1622" x2="1434.593" y2="815.1622">
		<stop  offset="0.2346" style="stop-color:#FFFFFF"/>
		<stop  offset="0.2622" style="stop-color:#FCF4F0"/>
		<stop  offset="0.369" style="stop-color:#F2CBBB"/>
		<stop  offset="0.4772" style="stop-color:#EAA88D"/>
		<stop  offset="0.5846" style="stop-color:#E38B67"/>
		<stop  offset="0.6911" style="stop-color:#DE754A"/>
		<stop  offset="0.7964" style="stop-color:#DA6536"/>
		<stop  offset="0.9" style="stop-color:#D85B29"/>
		<stop  offset="1" style="stop-color:#D75825"/>
	</linearGradient>
	<path class="st73" d="M1317.8,816.1c8.8,7.4,22.9,16.6,35.3,15.9c4.2-0.2,6.4-2.8,9.2-0.7s11.6,3.2,12,0s4.2,0,10.4,0.7
		c6.2,0.7,11.1-1.1,11.8-2.8s4.9-2.8,8.5-1.8s3.9,0.7,4.6-1.1s4.6-7.1,9.2-5.3s15.4-4,15.8-7.5c0.6-5.1-24.6-5.9-44.4-2
		c-13.5,2.7-21.5,12.4-42,14.5s-51.2-24.4-56.5-28.9"/>
	<linearGradient id="SVGID_51_" gradientUnits="userSpaceOnUse" x1="1308.2754" y1="875.8039" x2="1362.0577" y2="875.8039">
		<stop  offset="0" style="stop-color:#FFC671"/>
		<stop  offset="0.1247" style="stop-color:#FFC875"/>
		<stop  offset="0.2538" style="stop-color:#FFCD82"/>
		<stop  offset="0.385" style="stop-color:#FFD596"/>
		<stop  offset="0.5176" style="stop-color:#FFE1B3"/>
		<stop  offset="0.65" style="stop-color:#FFEFD8"/>
		<stop  offset="0.7654" style="stop-color:#FFFFFF"/>
	</linearGradient>
	<path class="st74" d="M1308.3,853.9c3.9,8.5,22.9,31.8,44.1,41s1.1-6,0-9.5c-1.1-3.5,4.2-6,0.7-8.5s-7.8-7.1-6.7-9.9
		s2.1-11.3,0-11.3S1308.3,853.9,1308.3,853.9z"/>
	<g>
		<linearGradient id="SVGID_52_" gradientUnits="userSpaceOnUse" x1="1248.6235" y1="801.4506" x2="1254.3506" y2="801.4506">
			<stop  offset="0" style="stop-color:#FFC671"/>
			<stop  offset="0.1247" style="stop-color:#FFC875"/>
			<stop  offset="0.2538" style="stop-color:#FFCD82"/>
			<stop  offset="0.385" style="stop-color:#FFD596"/>
			<stop  offset="0.5176" style="stop-color:#FFE1B3"/>
			<stop  offset="0.65" style="stop-color:#FFEFD8"/>
			<stop  offset="0.7654" style="stop-color:#FFFFFF"/>
		</linearGradient>
		<path class="st75" d="M1252.5,790.3c0.8,1.8,1.3,3.8,1.6,5.7c0.3,2,0.3,4,0.1,6c-0.2,2-0.7,4-1.6,5.8c-0.8,1.8-2.1,3.5-3.6,4.7
			c2.6-3,3.8-6.8,4.2-10.6c0.2-1.9,0.2-3.9,0.1-5.8C1253.2,794.2,1252.9,792.3,1252.5,790.3z"/>
	</g>
	<g>
		<linearGradient id="SVGID_53_" gradientUnits="userSpaceOnUse" x1="1252.7871" y1="808.5112" x2="1256.7533" y2="808.5112">
			<stop  offset="0" style="stop-color:#FFC671"/>
			<stop  offset="0.1247" style="stop-color:#FFC875"/>
			<stop  offset="0.2538" style="stop-color:#FFCD82"/>
			<stop  offset="0.385" style="stop-color:#FFD596"/>
			<stop  offset="0.5176" style="stop-color:#FFE1B3"/>
			<stop  offset="0.65" style="stop-color:#FFEFD8"/>
			<stop  offset="0.7654" style="stop-color:#FFFFFF"/>
		</linearGradient>
		<path class="st76" d="M1256,799.2c0.2,1.6,0.5,3.2,0.6,4.8c0.1,1.6,0.1,3.2,0,4.9c-0.2,1.6-0.5,3.3-1,4.8c-0.5,1.5-1.4,3-2.4,4.2
			c1.4-2.9,2.2-6,2.4-9.1c0.2-1.6,0.2-3.2,0.2-4.8C1255.8,802.4,1255.9,800.8,1256,799.2z"/>
	</g>
	<g>
		<linearGradient id="SVGID_54_" gradientUnits="userSpaceOnUse" x1="1256.7179" y1="813.9831" x2="1261.1696" y2="813.9831">
			<stop  offset="0" style="stop-color:#FFC671"/>
			<stop  offset="0.1247" style="stop-color:#FFC875"/>
			<stop  offset="0.2538" style="stop-color:#FFCD82"/>
			<stop  offset="0.385" style="stop-color:#FFD596"/>
			<stop  offset="0.5176" style="stop-color:#FFE1B3"/>
			<stop  offset="0.65" style="stop-color:#FFEFD8"/>
			<stop  offset="0.7654" style="stop-color:#FFFFFF"/>
		</linearGradient>
		<path class="st77" d="M1259.9,805.5c0.6,1.4,1,2.9,1.1,4.4c0.2,1.5,0.1,3-0.1,4.5c-0.2,1.5-0.6,3-1.2,4.4
			c-0.6,1.4-1.5,2.7-2.6,3.7c0.9-1.2,1.5-2.6,1.9-3.9c0.4-1.4,0.8-2.8,0.9-4.2c0.2-1.4,0.3-2.9,0.3-4.4
			C1260.2,808.5,1260.1,807,1259.9,805.5z"/>
	</g>
	<path class="st38" d="M1234.1,777.2c-3.8,2,1,10.3,3.8,8.2C1242.3,782.2,1237.2,775.6,1234.1,777.2z"/>
	<linearGradient id="SVGID_55_" gradientUnits="userSpaceOnUse" x1="1234.085" y1="781.3541" x2="1238.2502" y2="781.3541">
		<stop  offset="0.2346" style="stop-color:#FFFFFF"/>
		<stop  offset="0.2622" style="stop-color:#FCF4F0"/>
		<stop  offset="0.369" style="stop-color:#F2CBBB"/>
		<stop  offset="0.4772" style="stop-color:#EAA88D"/>
		<stop  offset="0.5846" style="stop-color:#E38B67"/>
		<stop  offset="0.6911" style="stop-color:#DE754A"/>
		<stop  offset="0.7964" style="stop-color:#DA6536"/>
		<stop  offset="0.9" style="stop-color:#D85B29"/>
		<stop  offset="1" style="stop-color:#D75825"/>
	</linearGradient>
	<path class="st78" d="M1234.9,778.9c-2.3,1.2,0.6,6.2,2.3,4.9C1239.8,781.9,1236.8,777.9,1234.9,778.9z"/>
	<linearGradient id="SVGID_56_" gradientUnits="userSpaceOnUse" x1="1220.1267" y1="850.4617" x2="1237.7424" y2="850.4617">
		<stop  offset="0" style="stop-color:#FFC671"/>
		<stop  offset="0.1247" style="stop-color:#FFC875"/>
		<stop  offset="0.2538" style="stop-color:#FFCD82"/>
		<stop  offset="0.385" style="stop-color:#FFD596"/>
		<stop  offset="0.5176" style="stop-color:#FFE1B3"/>
		<stop  offset="0.65" style="stop-color:#FFEFD8"/>
		<stop  offset="0.7654" style="stop-color:#FFFFFF"/>
	</linearGradient>
	<path class="st79" d="M1220.2,874.5c-0.6-5.2,3.2-35.7,17.5-48.1"/>
	<linearGradient id="SVGID_57_" gradientUnits="userSpaceOnUse" x1="1227.9935" y1="852.7365" x2="1235.1427" y2="852.7365">
		<stop  offset="0" style="stop-color:#FFC671"/>
		<stop  offset="0.1247" style="stop-color:#FFC875"/>
		<stop  offset="0.2538" style="stop-color:#FFCD82"/>
		<stop  offset="0.385" style="stop-color:#FFD596"/>
		<stop  offset="0.5176" style="stop-color:#FFE1B3"/>
		<stop  offset="0.65" style="stop-color:#FFEFD8"/>
		<stop  offset="0.7654" style="stop-color:#FFFFFF"/>
	</linearGradient>
	<path class="st80" d="M1228,871.9c0.6-6.5,0.6-24,7.1-38.3"/>
	<linearGradient id="SVGID_58_" gradientUnits="userSpaceOnUse" x1="1235.6133" y1="849.8118" x2="1240.3422" y2="849.8118">
		<stop  offset="0" style="stop-color:#FFC671"/>
		<stop  offset="0.1247" style="stop-color:#FFC875"/>
		<stop  offset="0.2538" style="stop-color:#FFCD82"/>
		<stop  offset="0.385" style="stop-color:#FFD596"/>
		<stop  offset="0.5176" style="stop-color:#FFE1B3"/>
		<stop  offset="0.65" style="stop-color:#FFEFD8"/>
		<stop  offset="0.7654" style="stop-color:#FFFFFF"/>
	</linearGradient>
	<path class="st81" d="M1237.7,871.9c-1.3-11-5.2-29.9,2.6-44.2"/>
	<linearGradient id="SVGID_59_" gradientUnits="userSpaceOnUse" x1="1239.9326" y1="841.6877" x2="1247.4913" y2="841.6877">
		<stop  offset="0" style="stop-color:#FFC671"/>
		<stop  offset="0.1247" style="stop-color:#FFC875"/>
		<stop  offset="0.2538" style="stop-color:#FFCD82"/>
		<stop  offset="0.385" style="stop-color:#FFD596"/>
		<stop  offset="0.5176" style="stop-color:#FFE1B3"/>
		<stop  offset="0.65" style="stop-color:#FFEFD8"/>
		<stop  offset="0.7654" style="stop-color:#FFFFFF"/>
	</linearGradient>
	<path class="st82" d="M1247.5,865.4c-3.2-7.8-13.6-28.6-2.6-47.4"/>
	<linearGradient id="SVGID_60_" gradientUnits="userSpaceOnUse" x1="1247.4285" y1="838.4381" x2="1253.9906" y2="838.4381">
		<stop  offset="0" style="stop-color:#FFC671"/>
		<stop  offset="0.1247" style="stop-color:#FFC875"/>
		<stop  offset="0.2538" style="stop-color:#FFCD82"/>
		<stop  offset="0.385" style="stop-color:#FFD596"/>
		<stop  offset="0.5176" style="stop-color:#FFE1B3"/>
		<stop  offset="0.65" style="stop-color:#FFEFD8"/>
		<stop  offset="0.7654" style="stop-color:#FFFFFF"/>
	</linearGradient>
	<path class="st83" d="M1254,857.6c-2.6-12.3-7.1-17.5-6.5-38.3"/>
	<linearGradient id="SVGID_61_" gradientUnits="userSpaceOnUse" x1="1250.741" y1="833.8886" x2="1261.7897" y2="833.8886">
		<stop  offset="0" style="stop-color:#FFC671"/>
		<stop  offset="0.1247" style="stop-color:#FFC875"/>
		<stop  offset="0.2538" style="stop-color:#FFCD82"/>
		<stop  offset="0.385" style="stop-color:#FFD596"/>
		<stop  offset="0.5176" style="stop-color:#FFE1B3"/>
		<stop  offset="0.65" style="stop-color:#FFEFD8"/>
		<stop  offset="0.7654" style="stop-color:#FFFFFF"/>
	</linearGradient>
	<path class="st84" d="M1261.8,846.6c-4.5-6.5-8.4-12.3-11-25.3"/>
	<linearGradient id="SVGID_62_" gradientUnits="userSpaceOnUse" x1="1301.6256" y1="786.7629" x2="1351.4796" y2="786.7629">
		<stop  offset="0.2346" style="stop-color:#FFFFFF"/>
		<stop  offset="0.35" style="stop-color:#FFEFD8"/>
		<stop  offset="0.4824" style="stop-color:#FFE1B3"/>
		<stop  offset="0.615" style="stop-color:#FFD596"/>
		<stop  offset="0.7462" style="stop-color:#FFCD82"/>
		<stop  offset="0.8753" style="stop-color:#FFC875"/>
		<stop  offset="1" style="stop-color:#FFC671"/>
	</linearGradient>
	<path class="st85" d="M1351.5,790c-7.1-3.9-38-10.2-49.9-3.8"/>
	<linearGradient id="SVGID_63_" gradientUnits="userSpaceOnUse" x1="1304.0258" y1="790.196" x2="1347.5801" y2="790.196">
		<stop  offset="0.2346" style="stop-color:#FFFFFF"/>
		<stop  offset="0.35" style="stop-color:#FFEFD8"/>
		<stop  offset="0.4824" style="stop-color:#FFE1B3"/>
		<stop  offset="0.615" style="stop-color:#FFD596"/>
		<stop  offset="0.7462" style="stop-color:#FFCD82"/>
		<stop  offset="0.8753" style="stop-color:#FFC875"/>
		<stop  offset="1" style="stop-color:#FFC671"/>
	</linearGradient>
	<path class="st86" d="M1347.6,793.3c-5.8-3.2-30.6-8.5-43.6-4.9"/>
	<linearGradient id="SVGID_64_" gradientUnits="userSpaceOnUse" x1="1383.326" y1="816.1946" x2="1426.2213" y2="816.1946">
		<stop  offset="0.2346" style="stop-color:#FFFFFF"/>
		<stop  offset="0.2622" style="stop-color:#FCF4F0"/>
		<stop  offset="0.369" style="stop-color:#F2CBBB"/>
		<stop  offset="0.4772" style="stop-color:#EAA88D"/>
		<stop  offset="0.5846" style="stop-color:#E38B67"/>
		<stop  offset="0.6911" style="stop-color:#DE754A"/>
		<stop  offset="0.7964" style="stop-color:#DA6536"/>
		<stop  offset="0.9" style="stop-color:#D85B29"/>
		<stop  offset="1" style="stop-color:#D75825"/>
	</linearGradient>
	<path class="st87" d="M1426.2,819.3c-6.5-2.6-16.2-9.7-42.9-3.9"/>
	<linearGradient id="SVGID_65_" gradientUnits="userSpaceOnUse" x1="1372.2773" y1="823.4872" x2="1407.3734" y2="823.4872">
		<stop  offset="0.2346" style="stop-color:#FFFFFF"/>
		<stop  offset="0.2622" style="stop-color:#FCF4F0"/>
		<stop  offset="0.369" style="stop-color:#F2CBBB"/>
		<stop  offset="0.4772" style="stop-color:#EAA88D"/>
		<stop  offset="0.5846" style="stop-color:#E38B67"/>
		<stop  offset="0.6911" style="stop-color:#DE754A"/>
		<stop  offset="0.7964" style="stop-color:#DA6536"/>
		<stop  offset="0.9" style="stop-color:#D85B29"/>
		<stop  offset="1" style="stop-color:#D75825"/>
	</linearGradient>
	<path class="st88" d="M1407.4,826.4c-5.8-4.5-17.5-7.1-35.1-5.2"/>
	<linearGradient id="SVGID_66_" gradientUnits="userSpaceOnUse" x1="1378.1267" y1="819.1573" x2="1410.623" y2="819.1573">
		<stop  offset="0.2346" style="stop-color:#FFFFFF"/>
		<stop  offset="0.2622" style="stop-color:#FCF4F0"/>
		<stop  offset="0.369" style="stop-color:#F2CBBB"/>
		<stop  offset="0.4772" style="stop-color:#EAA88D"/>
		<stop  offset="0.5846" style="stop-color:#E38B67"/>
		<stop  offset="0.6911" style="stop-color:#DE754A"/>
		<stop  offset="0.7964" style="stop-color:#DA6536"/>
		<stop  offset="0.9" style="stop-color:#D85B29"/>
		<stop  offset="1" style="stop-color:#D75825"/>
	</linearGradient>
	<path class="st89" d="M1410.6,821.2c-5.8-1.9-22.7-5.8-32.5-3.2"/>
	<linearGradient id="SVGID_67_" gradientUnits="userSpaceOnUse" x1="1302" y1="783.8493" x2="1354" y2="783.8493">
		<stop  offset="0.2346" style="stop-color:#FFFFFF"/>
		<stop  offset="0.35" style="stop-color:#FFEFD8"/>
		<stop  offset="0.4824" style="stop-color:#FFE1B3"/>
		<stop  offset="0.615" style="stop-color:#FFD596"/>
		<stop  offset="0.7462" style="stop-color:#FFCD82"/>
		<stop  offset="0.8753" style="stop-color:#FFC875"/>
		<stop  offset="1" style="stop-color:#FFC671"/>
	</linearGradient>
	<path class="st90" d="M1354,786c-10-2-33-8-52-1"/>
	<linearGradient id="SVGID_68_" gradientUnits="userSpaceOnUse" x1="1365.7781" y1="826.2652" x2="1392.425" y2="826.2652">
		<stop  offset="0.2346" style="stop-color:#FFFFFF"/>
		<stop  offset="0.2622" style="stop-color:#FCF4F0"/>
		<stop  offset="0.369" style="stop-color:#F2CBBB"/>
		<stop  offset="0.4772" style="stop-color:#EAA88D"/>
		<stop  offset="0.5846" style="stop-color:#E38B67"/>
		<stop  offset="0.6911" style="stop-color:#DE754A"/>
		<stop  offset="0.7964" style="stop-color:#DA6536"/>
		<stop  offset="0.9" style="stop-color:#D85B29"/>
		<stop  offset="1" style="stop-color:#D75825"/>
	</linearGradient>
	<path class="st91" d="M1392.4,828.4c-3.9-1.9-11.7-5.2-26.6-3.9"/>
	<linearGradient id="SVGID_69_" gradientUnits="userSpaceOnUse" x1="1343.6805" y1="829.3391" x2="1371.6274" y2="829.3391">
		<stop  offset="0.2346" style="stop-color:#FFFFFF"/>
		<stop  offset="0.2622" style="stop-color:#FCF4F0"/>
		<stop  offset="0.369" style="stop-color:#F2CBBB"/>
		<stop  offset="0.4772" style="stop-color:#EAA88D"/>
		<stop  offset="0.5846" style="stop-color:#E38B67"/>
		<stop  offset="0.6911" style="stop-color:#DE754A"/>
		<stop  offset="0.7964" style="stop-color:#DA6536"/>
		<stop  offset="0.9" style="stop-color:#D85B29"/>
		<stop  offset="1" style="stop-color:#D75825"/>
	</linearGradient>
	<path class="st92" d="M1371.6,831c-6.5-3.2-16.9,0-27.9-3.2"/>
	<linearGradient id="SVGID_70_" gradientUnits="userSpaceOnUse" x1="1357.329" y1="828.3217" x2="1385.9258" y2="828.3217">
		<stop  offset="0.2346" style="stop-color:#FFFFFF"/>
		<stop  offset="0.2622" style="stop-color:#FCF4F0"/>
		<stop  offset="0.369" style="stop-color:#F2CBBB"/>
		<stop  offset="0.4772" style="stop-color:#EAA88D"/>
		<stop  offset="0.5846" style="stop-color:#E38B67"/>
		<stop  offset="0.6911" style="stop-color:#DE754A"/>
		<stop  offset="0.7964" style="stop-color:#DA6536"/>
		<stop  offset="0.9" style="stop-color:#D85B29"/>
		<stop  offset="1" style="stop-color:#D75825"/>
	</linearGradient>
	<path class="st93" d="M1385.9,830.3c-3.2-1.3-23.4-4.5-28.6-3.9"/>
	<linearGradient id="SVGID_71_" gradientUnits="userSpaceOnUse" x1="1267.639" y1="841.0378" x2="1301.4353" y2="841.0378">
		<stop  offset="0.2346" style="stop-color:#FFFFFF"/>
		<stop  offset="0.2622" style="stop-color:#FCF4F0"/>
		<stop  offset="0.369" style="stop-color:#F2CBBB"/>
		<stop  offset="0.4772" style="stop-color:#EAA88D"/>
		<stop  offset="0.5846" style="stop-color:#E38B67"/>
		<stop  offset="0.6911" style="stop-color:#DE754A"/>
		<stop  offset="0.7964" style="stop-color:#DA6536"/>
		<stop  offset="0.9" style="stop-color:#D85B29"/>
		<stop  offset="1" style="stop-color:#D75825"/>
	</linearGradient>
	<path class="st94" d="M1267.6,828.4c4.5,5.2,18.2,17.5,33.8,25.3"/>
	<linearGradient id="SVGID_72_" gradientUnits="userSpaceOnUse" x1="1259.1899" y1="759.4719" x2="1273.4884" y2="759.4719">
		<stop  offset="0.2346" style="stop-color:#FFFFFF"/>
		<stop  offset="0.2622" style="stop-color:#FCF4F0"/>
		<stop  offset="0.369" style="stop-color:#F2CBBB"/>
		<stop  offset="0.4772" style="stop-color:#EAA88D"/>
		<stop  offset="0.5846" style="stop-color:#E38B67"/>
		<stop  offset="0.6911" style="stop-color:#DE754A"/>
		<stop  offset="0.7964" style="stop-color:#DA6536"/>
		<stop  offset="0.9" style="stop-color:#D85B29"/>
		<stop  offset="1" style="stop-color:#D75825"/>
	</linearGradient>
	<path class="st95" d="M1259.2,754.3c5.8,3.9,9.7,3.9,14.3,10.4"/>
	<linearGradient id="SVGID_73_" gradientUnits="userSpaceOnUse" x1="1230.5101" y1="758.822" x2="1233.8428" y2="758.822">
		<stop  offset="0.2346" style="stop-color:#FFFFFF"/>
		<stop  offset="0.2622" style="stop-color:#FCF4F0"/>
		<stop  offset="0.369" style="stop-color:#F2CBBB"/>
		<stop  offset="0.4772" style="stop-color:#EAA88D"/>
		<stop  offset="0.5846" style="stop-color:#E38B67"/>
		<stop  offset="0.6911" style="stop-color:#DE754A"/>
		<stop  offset="0.7964" style="stop-color:#DA6536"/>
		<stop  offset="0.9" style="stop-color:#D85B29"/>
		<stop  offset="1" style="stop-color:#D75825"/>
	</linearGradient>
	<path class="st96" d="M1233.8,748.4c-3.2,1.9-4.5,8.4-1.9,20.8"/>
</g>
<radialGradient id="SVGID_74_" cx="359.5862" cy="1194.6552" r="5.3641" gradientUnits="userSpaceOnUse">
	<stop  offset="0" style="stop-color:#F6EC50"/>
	<stop  offset="1" style="stop-color:#F7EB24;stop-opacity:0"/>
</radialGradient>
<circle class="st97" cx="359.6" cy="1194.7" r="4.4"/>
<radialGradient id="SVGID_75_" cx="271.5862" cy="1194.6552" r="5.3641" gradientUnits="userSpaceOnUse">
	<stop  offset="0" style="stop-color:#F6EC50"/>
	<stop  offset="1" style="stop-color:#F7EB24;stop-opacity:0"/>
</radialGradient>
<circle class="st98" cx="271.6" cy="1194.7" r="4.4"/>
<radialGradient id="SVGID_76_" cx="66.5862" cy="1202.6552" r="5.3641" gradientUnits="userSpaceOnUse">
	<stop  offset="0" style="stop-color:#F6EC50"/>
	<stop  offset="1" style="stop-color:#F7EB24;stop-opacity:0"/>
</radialGradient>
<circle class="st99" cx="66.6" cy="1202.7" r="4.4"/>
<radialGradient id="SVGID_77_" cx="344.5862" cy="1154.6552" r="5.3641" gradientUnits="userSpaceOnUse">
	<stop  offset="0" style="stop-color:#F6EC50"/>
	<stop  offset="1" style="stop-color:#F7EB24;stop-opacity:0"/>
</radialGradient>
<circle class="st100" cx="344.6" cy="1154.7" r="4.4"/>
<radialGradient id="SVGID_78_" cx="418.5862" cy="1198.6552" r="5.3641" gradientUnits="userSpaceOnUse">
	<stop  offset="0" style="stop-color:#F6EC50"/>
	<stop  offset="1" style="stop-color:#F7EB24;stop-opacity:0"/>
</radialGradient>
<circle class="st101" cx="418.6" cy="1198.7" r="4.4"/>
<radialGradient id="SVGID_79_" cx="826.5862" cy="1087.6552" r="5.3641" gradientUnits="userSpaceOnUse">
	<stop  offset="0" style="stop-color:#F6EC50"/>
	<stop  offset="1" style="stop-color:#F7EB24;stop-opacity:0"/>
</radialGradient>
<circle class="st102" cx="826.6" cy="1087.7" r="4.4"/>
<radialGradient id="SVGID_80_" cx="975.5862" cy="1139.6552" r="5.3641" gradientUnits="userSpaceOnUse">
	<stop  offset="0" style="stop-color:#F6EC50"/>
	<stop  offset="1" style="stop-color:#F7EB24;stop-opacity:0"/>
</radialGradient>
<circle class="st103" cx="975.6" cy="1139.7" r="4.4"/>
<radialGradient id="SVGID_81_" cx="775.5862" cy="1166.6552" r="5.3641" gradientUnits="userSpaceOnUse">
	<stop  offset="0" style="stop-color:#F6EC50"/>
	<stop  offset="1" style="stop-color:#F7EB24;stop-opacity:0"/>
</radialGradient>
<circle class="st104" cx="775.6" cy="1166.7" r="4.4"/>
<radialGradient id="SVGID_82_" cx="1073.5862" cy="1178.6552" r="5.3641" gradientUnits="userSpaceOnUse">
	<stop  offset="0" style="stop-color:#F6EC50"/>
	<stop  offset="1" style="stop-color:#F7EB24;stop-opacity:0"/>
</radialGradient>
<circle class="st105" cx="1073.6" cy="1178.7" r="4.4"/>
<radialGradient id="SVGID_83_" cx="1152.5862" cy="1142.6552" r="5.3641" gradientUnits="userSpaceOnUse">
	<stop  offset="0" style="stop-color:#F6EC50"/>
	<stop  offset="1" style="stop-color:#F7EB24;stop-opacity:0"/>
</radialGradient>
<circle class="st106" cx="1152.6" cy="1142.7" r="4.4"/>
<radialGradient id="SVGID_84_" cx="1328.0765" cy="1132.1455" r="6.8545" gradientUnits="userSpaceOnUse">
	<stop  offset="0" style="stop-color:#F6EC50"/>
	<stop  offset="1" style="stop-color:#F7EB24;stop-opacity:0"/>
</radialGradient>
<circle class="st107" cx="1328.1" cy="1132.1" r="5.9"/>
<radialGradient id="SVGID_85_" cx="1142.0765" cy="1191.1455" r="6.8545" gradientUnits="userSpaceOnUse">
	<stop  offset="0" style="stop-color:#F6EC50"/>
	<stop  offset="1" style="stop-color:#F7EB24;stop-opacity:0"/>
</radialGradient>
<circle class="st108" cx="1142.1" cy="1191.1" r="5.9"/>
<radialGradient id="SVGID_86_" cx="1085.0765" cy="1097.1455" r="6.8545" gradientUnits="userSpaceOnUse">
	<stop  offset="0" style="stop-color:#F6EC50"/>
	<stop  offset="1" style="stop-color:#F7EB24;stop-opacity:0"/>
</radialGradient>
<circle class="st109" cx="1085.1" cy="1097.1" r="5.9"/>
<radialGradient id="SVGID_87_" cx="1515.0765" cy="1179.1455" r="6.8545" gradientUnits="userSpaceOnUse">
	<stop  offset="0" style="stop-color:#F6EC50"/>
	<stop  offset="1" style="stop-color:#F7EB24;stop-opacity:0"/>
</radialGradient>
<circle class="st110" cx="1515.1" cy="1179.1" r="5.9"/>
<radialGradient id="SVGID_88_" cx="1405.0765" cy="1162.1455" r="6.8545" gradientUnits="userSpaceOnUse">
	<stop  offset="0" style="stop-color:#F6EC50"/>
	<stop  offset="1" style="stop-color:#F7EB24;stop-opacity:0"/>
</radialGradient>
<circle class="st111" cx="1405.1" cy="1162.1" r="5.9"/>
<radialGradient id="SVGID_89_" cx="2193.0767" cy="1183.1455" r="6.8545" gradientUnits="userSpaceOnUse">
	<stop  offset="0" style="stop-color:#F6EC50"/>
	<stop  offset="1" style="stop-color:#F7EB24;stop-opacity:0"/>
</radialGradient>
<circle class="st112" cx="2193.1" cy="1183.1" r="5.9"/>
<radialGradient id="SVGID_90_" cx="2289.0767" cy="1127.1455" r="6.8545" gradientUnits="userSpaceOnUse">
	<stop  offset="0" style="stop-color:#F6EC50"/>
	<stop  offset="1" style="stop-color:#F7EB24;stop-opacity:0"/>
</radialGradient>
<circle class="st113" cx="2289.1" cy="1127.1" r="5.9"/>
<radialGradient id="SVGID_91_" cx="2110.0767" cy="1126.1455" r="6.8545" gradientUnits="userSpaceOnUse">
	<stop  offset="0" style="stop-color:#F6EC50"/>
	<stop  offset="1" style="stop-color:#F7EB24;stop-opacity:0"/>
</radialGradient>
<circle class="st114" cx="2110.1" cy="1126.1" r="5.9"/>
<radialGradient id="SVGID_92_" cx="1763.0765" cy="1183.1455" r="6.8545" gradientUnits="userSpaceOnUse">
	<stop  offset="0" style="stop-color:#F6EC50"/>
	<stop  offset="1" style="stop-color:#F7EB24;stop-opacity:0"/>
</radialGradient>
<circle class="st115" cx="1763.1" cy="1183.1" r="5.9"/>
<radialGradient id="SVGID_93_" cx="878.0765" cy="1185.1455" r="6.8545" gradientUnits="userSpaceOnUse">
	<stop  offset="0" style="stop-color:#F6EC50"/>
	<stop  offset="1" style="stop-color:#F7EB24;stop-opacity:0"/>
</radialGradient>
<circle class="st116" cx="878.1" cy="1185.1" r="5.9"/>
<radialGradient id="SVGID_94_" cx="683.611" cy="1142.6111" r="12.389" gradientUnits="userSpaceOnUse">
	<stop  offset="0" style="stop-color:#F6EC50"/>
	<stop  offset="1" style="stop-color:#F7EB24;stop-opacity:0"/>
</radialGradient>
<circle class="st117" cx="683.6" cy="1142.6" r="11.4"/>
<radialGradient id="SVGID_95_" cx="348.611" cy="1091.6111" r="12.389" gradientUnits="userSpaceOnUse">
	<stop  offset="0" style="stop-color:#F6EC50"/>
	<stop  offset="1" style="stop-color:#F7EB24;stop-opacity:0"/>
</radialGradient>
<circle class="st118" cx="348.6" cy="1091.6" r="11.4"/>
<radialGradient id="SVGID_96_" cx="171.611" cy="1172.6111" r="12.389" gradientUnits="userSpaceOnUse">
	<stop  offset="0" style="stop-color:#F6EC50"/>
	<stop  offset="1" style="stop-color:#F7EB24;stop-opacity:0"/>
</radialGradient>
<circle class="st119" cx="171.6" cy="1172.6" r="11.4"/>
<radialGradient id="SVGID_97_" cx="1210.6111" cy="1170.6111" r="12.389" gradientUnits="userSpaceOnUse">
	<stop  offset="0" style="stop-color:#F6EC50"/>
	<stop  offset="1" style="stop-color:#F7EB24;stop-opacity:0"/>
</radialGradient>
<circle class="st120" cx="1210.6" cy="1170.6" r="11.4"/>
<radialGradient id="SVGID_98_" cx="1514.6111" cy="1134.6111" r="12.389" gradientUnits="userSpaceOnUse">
	<stop  offset="0" style="stop-color:#F6EC50"/>
	<stop  offset="1" style="stop-color:#F7EB24;stop-opacity:0"/>
</radialGradient>
<circle class="st121" cx="1514.6" cy="1134.6" r="11.4"/>
<radialGradient id="SVGID_99_" cx="2072.6111" cy="1188.6111" r="12.389" gradientUnits="userSpaceOnUse">
	<stop  offset="0" style="stop-color:#F6EC50"/>
	<stop  offset="1" style="stop-color:#F7EB24;stop-opacity:0"/>
</radialGradient>
<circle class="st122" cx="2072.6" cy="1188.6" r="11.4"/>
<radialGradient id="SVGID_100_" cx="2395.6111" cy="1118.6111" r="12.389" gradientUnits="userSpaceOnUse">
	<stop  offset="0" style="stop-color:#F6EC50"/>
	<stop  offset="1" style="stop-color:#F7EB24;stop-opacity:0"/>
</radialGradient>
<circle class="st123" cx="2395.6" cy="1118.6" r="11.4"/>
<radialGradient id="SVGID_101_" cx="952.611" cy="1194.6111" r="12.389" gradientUnits="userSpaceOnUse">
	<stop  offset="0" style="stop-color:#F6EC50"/>
	<stop  offset="1" style="stop-color:#F7EB24;stop-opacity:0"/>
</radialGradient>
<circle class="st124" cx="952.6" cy="1194.6" r="11.4"/>
<radialGradient id="SVGID_102_" cx="675.611" cy="1077.6111" r="9.389" gradientUnits="userSpaceOnUse">
	<stop  offset="0" style="stop-color:#F6EC50"/>
	<stop  offset="1" style="stop-color:#F7EB24;stop-opacity:0"/>
</radialGradient>
<circle class="st125" cx="675.6" cy="1077.6" r="8.4"/>
<radialGradient id="SVGID_103_" cx="621.111" cy="1190.1304" r="5.889" gradientUnits="userSpaceOnUse">
	<stop  offset="0" style="stop-color:#F6EC50"/>
	<stop  offset="1" style="stop-color:#F7EB24;stop-opacity:0"/>
</radialGradient>
<circle class="st126" cx="621.1" cy="1190.1" r="4.9"/>
<g class="st34">
	<linearGradient id="SVGID_104_" gradientUnits="userSpaceOnUse" x1="796.4476" y1="1132.6964" x2="779.7944" y2="974.1697">
		<stop  offset="8.938547e-02" style="stop-color:#9BA3E2;stop-opacity:0"/>
		<stop  offset="0.4799" style="stop-color:#9BA3E2"/>
		<stop  offset="0.8615" style="stop-color:#7E6790"/>
	</linearGradient>
	<path class="st127" d="M771,1134.4c13.7-11.9,47.2-32.5,43.2-53c-4-20.5-7-23.8-3.9-30.9c3.1-7.2,8.4-10.3,9.2-18.4
		c0.7-8.1-9.7-18.5-6.6-25.7c3.1-7.2,4.8-29.6-3.2-28.6s-12.8,20.1-16.1,23s-15.9,6.3-16.6,14.4c-0.7,8.1,0.4,19.1-2.2,24.3
		c-2.6,5.3-14.9,13-18.3,26.3S770.2,1135.1,771,1134.4z"/>
	<path class="st10" d="M802.5,1006.4c0,0-14,47-22,91.1"/>
	<line class="st10" x1="797.3" y1="1006.5" x2="798.4" y2="1021.7"/>
	<line class="st10" x1="789.2" y1="1028.4" x2="792" y2="1045.2"/>
	<line class="st10" x1="777.5" y1="1059.5" x2="782.5" y2="1085.9"/>
	<line class="st10" x1="802.1" y1="1044.1" x2="788.9" y2="1057.5"/>
	<line class="st10" x1="806.7" y1="1010.2" x2="798.3" y2="1020.1"/>
	<line class="st10" x1="791.9" y1="1079.9" x2="780.5" y2="1093.5"/>
</g>
<g class="st34">
	<linearGradient id="SVGID_105_" gradientUnits="userSpaceOnUse" x1="1046.4476" y1="1136.6964" x2="1029.7944" y2="978.1697">
		<stop  offset="8.938547e-02" style="stop-color:#9BA3E2;stop-opacity:0"/>
		<stop  offset="0.4799" style="stop-color:#9BA3E2"/>
		<stop  offset="0.8615" style="stop-color:#7E6790"/>
	</linearGradient>
	<path class="st128" d="M1021,1138.4c13.7-11.9,47.2-32.5,43.2-53c-4-20.5-7-23.8-3.9-30.9c3.1-7.2,8.4-10.3,9.2-18.4
		c0.7-8.1-9.7-18.5-6.6-25.7c3.1-7.2,4.8-29.6-3.2-28.6c-8,1-12.8,20.1-16.1,23s-15.9,6.3-16.6,14.4c-0.7,8.1,0.4,19.1-2.2,24.3
		c-2.6,5.3-14.9,13-18.3,26.3S1020.2,1139.1,1021,1138.4z"/>
	<path class="st10" d="M1052.5,1010.4c0,0-14,47-22,91.1"/>
	<line class="st10" x1="1047.3" y1="1010.5" x2="1048.4" y2="1025.7"/>
	<line class="st10" x1="1039.2" y1="1032.4" x2="1042" y2="1049.2"/>
	<line class="st10" x1="1027.5" y1="1063.5" x2="1032.5" y2="1089.9"/>
	<line class="st10" x1="1052.1" y1="1048.1" x2="1038.9" y2="1061.5"/>
	<line class="st10" x1="1056.7" y1="1014.2" x2="1048.3" y2="1024.1"/>
	<line class="st10" x1="1041.9" y1="1083.9" x2="1030.5" y2="1097.5"/>
</g>
<g class="st34">
	<linearGradient id="SVGID_106_" gradientUnits="userSpaceOnUse" x1="295.6257" y1="1174.1487" x2="285.763" y2="1080.2627">
		<stop  offset="8.938547e-02" style="stop-color:#9BA3E2;stop-opacity:0"/>
		<stop  offset="0.4799" style="stop-color:#9BA3E2"/>
		<stop  offset="0.8615" style="stop-color:#7E6790"/>
	</linearGradient>
	<path class="st129" d="M280.6,1175.1c8.1-7.1,28-19.3,25.6-31.4c-2.4-12.1-4.2-14.1-2.3-18.3c1.8-4.2,5-6.1,5.4-10.9
		c0.4-4.8-5.7-11-3.9-15.2c1.8-4.2,2.8-17.5-1.9-16.9c-4.8,0.6-7.6,11.9-9.6,13.6s-9.4,3.7-9.8,8.5c-0.4,4.8,0.3,11.3-1.3,14.4
		c-1.5,3.1-8.8,7.7-10.8,15.6C269.9,1142.5,280.1,1175.6,280.6,1175.1z"/>
	<path class="st10" d="M299.2,1099.4c0,0-8.3,27.8-13,53.9"/>
	<line class="st10" x1="296.1" y1="1099.4" x2="296.8" y2="1108.4"/>
	<line class="st10" x1="291.3" y1="1112.4" x2="293" y2="1122.3"/>
	<line class="st10" x1="284.4" y1="1130.8" x2="287.4" y2="1146.4"/>
	<line class="st10" x1="299" y1="1121.7" x2="291.2" y2="1129.6"/>
	<line class="st10" x1="301.7" y1="1101.6" x2="296.7" y2="1107.5"/>
	<line class="st10" x1="292.9" y1="1142.9" x2="286.2" y2="1150.9"/>
</g>
<g class="st34">
	
		<linearGradient id="SVGID_107_" gradientUnits="userSpaceOnUse" x1="262.1237" y1="1150.9819" x2="252.2611" y2="1057.0961" gradientTransform="matrix(0.9207 -0.3903 0.3903 0.9207 -402.5639 193.1567)">
		<stop  offset="8.938547e-02" style="stop-color:#9BA3E2;stop-opacity:0"/>
		<stop  offset="0.4799" style="stop-color:#9BA3E2"/>
		<stop  offset="0.8615" style="stop-color:#7E6790"/>
	</linearGradient>
	<path class="st130" d="M274.6,1157.3c4.7-9.7,18.2-28.6,11.3-38.9c-6.9-10.2-9.3-11.3-9.3-16c0-4.6,2.2-7.6,0.7-12.1
		c-1.5-4.6-9.5-7.9-9.5-12.5c0-4.6-4.2-17.2-8.4-14.8c-4.2,2.4-2.3,13.9-3.5,16.3c-1.1,2.3-7.2,7.1-5.7,11.7s4.6,10.3,4.4,13.8
		c-0.2,3.5-5.1,10.5-3.9,18.6C252,1131.4,274.3,1157.9,274.6,1157.3z"/>
	<path class="st10" d="M262.1,1080.3c0,0,3.3,28.9,9.1,54.7"/>
	<line class="st10" x1="259.3" y1="1081.5" x2="263.4" y2="1089.6"/>
	<line class="st10" x1="260" y1="1095.4" x2="265.4" y2="1103.9"/>
	<line class="st10" x1="260.8" y1="1115" x2="269.6" y2="1128.2"/>
	<line class="st10" x1="270.7" y1="1100.9" x2="266.5" y2="1111.2"/>
	<line class="st10" x1="265.3" y1="1081.4" x2="263" y2="1088.7"/>
	<line class="st10" x1="273.3" y1="1122.8" x2="270.3" y2="1132.8"/>
</g>
<g class="st34">
	
		<linearGradient id="SVGID_108_" gradientUnits="userSpaceOnUse" x1="235.844" y1="1160.3265" x2="227.6018" y2="1081.866" gradientTransform="matrix(0.7622 -0.6473 0.6473 0.7622 -651.9254 429.5575)">
		<stop  offset="8.938547e-02" style="stop-color:#9BA3E2;stop-opacity:0"/>
		<stop  offset="0.4799" style="stop-color:#9BA3E2"/>
		<stop  offset="0.8615" style="stop-color:#7E6790"/>
	</linearGradient>
	<path class="st131" d="M269.9,1170.1c1.4-8.9,7.4-27.4-0.7-33.8s-10.3-6.7-11.4-10.4c-1.1-3.7-0.1-6.6-2.4-9.9s-9.6-3.9-10.7-7.6
		c-1.1-3.7-7.7-12.7-10.4-9.7c-2.7,3,1.6,11.7,1.3,13.8s-4,7.5-1.6,10.8c2.3,3.3,6.3,7.1,7,9.9c0.7,2.8-1.5,9.7,1.5,15.8
		S269.8,1170.7,269.9,1170.1z"/>
	<path class="st10" d="M240.7,1111.8c0,0,9.8,22.2,20.9,41.4"/>
	<line class="st10" x1="238.8" y1="1113.5" x2="244.1" y2="1118.9"/>
	<line class="st10" x1="242.8" y1="1124.4" x2="249.2" y2="1129.8"/>
	<line class="st10" x1="248.3" y1="1139.8" x2="258.7" y2="1148.2"/>
	<line class="st10" x1="252.7" y1="1126.1" x2="252" y2="1135.4"/>
	<line class="st10" x1="243.6" y1="1111.9" x2="243.5" y2="1118.3"/>
	<line class="st10" x1="260.3" y1="1142.9" x2="260.3" y2="1151.7"/>
</g>
<g class="st34">
	
		<linearGradient id="SVGID_109_" gradientUnits="userSpaceOnUse" x1="712.3593" y1="1253.7625" x2="695.7061" y2="1095.2357" gradientTransform="matrix(0.6849 -0.4209 0.4232 0.6243 -226.2132 655.1841)">
		<stop  offset="8.938547e-02" style="stop-color:#9BA3E2;stop-opacity:0"/>
		<stop  offset="0.4799" style="stop-color:#9BA3E2"/>
		<stop  offset="0.8615" style="stop-color:#7E6790"/>
	</linearGradient>
	<path class="st132" d="M775.5,1149.9c4.4-13.2,18.6-40.2,7.2-51.3c-11.4-11.1-14.9-11.9-15.8-17.7s1.4-10-1.5-15.3
		c-2.9-5.4-14.4-7.5-15.4-13.3c-0.9-5.8-9.2-20.5-14.3-16.5c-5.1,4-0.3,17.9-1.3,21.1c-1.1,3.2-8.2,10.6-5.3,16
		c2.9,5.4,8.4,11.7,8.8,16.1c0.4,4.4-4.7,14.4-1.4,24.1C739.9,1123,775.2,1150.7,775.5,1149.9z"/>
	<path class="st10" d="M742.9,1056.8c0,0,10.3,35.2,23.5,66.1"/>
	<line class="st10" x1="739.4" y1="1059" x2="746.6" y2="1068"/>
	<line class="st10" x1="743.1" y1="1076.1" x2="752.1" y2="1085.4"/>
	<line class="st10" x1="748.2" y1="1100.4" x2="762.9" y2="1114.8"/>
	<line class="st10" x1="758.6" y1="1080.4" x2="755.2" y2="1094.3"/>
	<line class="st10" x1="747.4" y1="1057.3" x2="745.8" y2="1067.1"/>
	<line class="st10" x1="766.7" y1="1107.1" x2="764.7" y2="1120.3"/>
</g>
</svg>
