<?xml version="1.0" encoding="utf-8"?>
<!-- Generator: Adobe Illustrator 24.0.2, SVG Export Plug-In . SVG Version: 6.00 Build 0)  -->
<svg version="1.1" id="Layer_1" xmlns="http://www.w3.org/2000/svg" xmlns:xlink="http://www.w3.org/1999/xlink" x="0px" y="0px"
	 viewBox="0 0 3969 2784.9" style="enable-background:new 0 0 3969 2784.9;" xml:space="preserve">
<style type="text/css">
	.st0{fill:url(#SVGID_1_);}
	.st1{fill:#D7E1FF;}
	.st2{fill:url(#SVGID_2_);}
	.st3{opacity:0.3;}
	.st4{fill:#7C2A28;}
	.st5{fill:#B8DD9F;}
	.st6{opacity:0.8;fill:url(#SVGID_3_);enable-background:new    ;}
	.st7{fill:url(#SVGID_4_);}
	.st8{fill:#FAF7E4;}
	.st9{fill:#4A5362;}
	.st10{opacity:0.5;}
	.st11{fill:#A5A1A0;}
	.st12{opacity:0.5;fill:#A5A1A0;enable-background:new    ;}
	.st13{fill:#EAEAD8;}
	.st14{fill:url(#SVGID_5_);}
	.st15{fill:url(#SVGID_6_);}
	.st16{fill:url(#SVGID_7_);}
	.st17{fill:#A64B3E;}
	.st18{fill:#EBEBEB;}
	.st19{fill:#EBEBEA;}
	.st20{fill:url(#SVGID_8_);}
	.st21{fill:url(#SVGID_9_);}
	.st22{opacity:0.3;enable-background:new    ;}
	.st23{fill:url(#SVGID_10_);}
	.st24{fill:url(#SVGID_11_);}
	.st25{fill:url(#SVGID_12_);}
	.st26{fill:#ECEBEB;}
	.st27{fill:#A8271A;}
	.st28{opacity:0.2;fill:#A5A1A0;enable-background:new    ;}
	.st29{fill:#DBD8CA;}
	.st30{fill:#FFFFFF;}
	.st31{fill:none;stroke:#A4BFE0;stroke-miterlimit:10;}
	.st32{fill:none;stroke:#FFFFFF;stroke-width:0.5;stroke-miterlimit:10;}
	.st33{fill:#A9B8EA;}
	.st34{fill:url(#SVGID_13_);}
	.st35{fill:url(#SVGID_14_);}
	.st36{fill:url(#SVGID_15_);}
	.st37{fill:url(#SVGID_16_);}
	.st38{fill:url(#SVGID_17_);}
	.st39{fill:url(#SVGID_18_);}
	.st40{fill:url(#SVGID_19_);}
	.st41{fill:url(#SVGID_20_);}
	.st42{fill:url(#SVGID_21_);}
	.st43{fill:url(#SVGID_22_);}
	.st44{fill:url(#SVGID_23_);}
	.st45{fill:none;stroke:url(#SVGID_24_);stroke-miterlimit:10;}
	.st46{fill:url(#SVGID_25_);}
	.st47{fill:url(#SVGID_26_);}
	.st48{fill:url(#SVGID_27_);}
	.st49{fill:url(#SVGID_28_);}
	.st50{fill:url(#SVGID_29_);}
	.st51{fill:url(#SVGID_30_);}
	.st52{fill:url(#SVGID_31_);}
	.st53{fill:url(#SVGID_32_);}
	.st54{fill:url(#SVGID_33_);}
	.st55{fill:url(#SVGID_34_);}
	.st56{fill:url(#SVGID_35_);}
	.st57{fill:url(#SVGID_36_);}
	.st58{fill:url(#SVGID_37_);}
	.st59{fill:url(#SVGID_38_);}
	.st60{fill:url(#SVGID_39_);}
	.st61{fill:url(#SVGID_40_);}
	.st62{fill:url(#SVGID_41_);}
	.st63{fill:url(#SVGID_42_);}
	.st64{fill:url(#SVGID_43_);}
	.st65{fill:url(#SVGID_44_);}
	.st66{fill:url(#SVGID_45_);}
	.st67{fill:url(#SVGID_46_);}
	.st68{fill:url(#SVGID_47_);}
	.st69{fill:url(#SVGID_48_);}
	.st70{fill:url(#SVGID_49_);}
	.st71{fill:url(#SVGID_50_);}
	.st72{fill:url(#SVGID_51_);}
	.st73{fill:url(#SVGID_52_);}
	.st74{fill:url(#SVGID_53_);}
	.st75{fill:url(#SVGID_54_);}
	.st76{fill:url(#SVGID_55_);}
	.st77{fill:url(#SVGID_56_);}
	.st78{fill:url(#SVGID_57_);}
	.st79{fill:url(#SVGID_58_);}
	.st80{fill:url(#SVGID_59_);}
	.st81{fill:url(#SVGID_60_);}
	.st82{fill:url(#SVGID_61_);}
	.st83{fill:url(#SVGID_62_);}
	.st84{fill:url(#SVGID_63_);}
	.st85{fill:url(#SVGID_64_);}
	.st86{fill:url(#SVGID_65_);}
	.st87{fill:url(#SVGID_66_);}
</style>
<g>
	
		<linearGradient id="SVGID_1_" gradientUnits="userSpaceOnUse" x1="2490" y1="-2154.667" x2="3968" y2="-2154.667" gradientTransform="matrix(1 0 0 1 0 3802.9658)">
		<stop  offset="0.2346" style="stop-color:#FFFFFF"/>
		<stop  offset="0.2628" style="stop-color:#FCFDFF"/>
		<stop  offset="0.5134" style="stop-color:#E8EDFF"/>
		<stop  offset="0.7608" style="stop-color:#DBE4FF"/>
		<stop  offset="1" style="stop-color:#D7E1FF"/>
	</linearGradient>
	<path class="st0" d="M2652,1524.5c289,47,433-20,532,118c113.2,157.8,244.9,70.8,385,7c123-56,180-24,399,121c-111-1-1478,2-1478,2
		S2586.8,1513.9,2652,1524.5z"/>
	<path class="st1" d="M2577,1183.5c-108,16.5-6.3,287.3-269,131c-331-197-628,26-931,99c-303,73-415-183-642-128
		c-134.5,32.6-638,104-736.5,261.5C-1,1584.5-1,1772.5-1,1772.5l2382-2.2L2577,1183.5z"/>
	<g>
		
			<linearGradient id="SVGID_2_" gradientUnits="userSpaceOnUse" x1="4291.0781" y1="-5606.709" x2="4349.2764" y2="-5606.709" gradientTransform="matrix(0.962 -0.2732 0.2732 0.962 372.9172 7601.9302)">
			<stop  offset="0" style="stop-color:#BC6353"/>
			<stop  offset="0.6347" style="stop-color:#BC6153"/>
			<stop  offset="0.8631" style="stop-color:#BB5A52"/>
			<stop  offset="1" style="stop-color:#B95151"/>
		</linearGradient>
		<path class="st2" d="M2987.5,1020.4c-2.6,1.8-10.7,11.9-11.4,14.2c-0.7,2.3-6.8,9.6-3.7,11.8c1.6,1.1,2.5,0.6,3.3-0.4
			c-0.3,1.7-2.3,4.8-0.4,5.9c1.9,1,3.8-0.3,4.7-1.9c-0.7,2.3-0.3,2.7,0.3,3c0.6,0.3,2.7,1.3,5-2.7c0.5,0.9,2.2,3.3,4.7,0
			c2.5-3.3,8.6-10,9.6-11.1s10.1-7.6,11.4-10.3c1.7-2.3,4.7-5.5,6.6-6.3c1.9-0.8,7-3.8,7-3.8l-11.3-16.6c-1.6,1-7.8,5.6-11.5,7.4
			s-13.4,4.3-15.4,5.4c-2,1.1-10.1,21.4-5.4,13c4.3-1.5,6.2-3.1,6.4-5c1.2,2.3,3,3.3,6.1,3"/>
		<g class="st3">
			<path class="st4" d="M2981.1,1027.9c0.6-0.4,1.2-0.8,1.8-1.1c0.6-0.3,1.2-0.7,1.9-0.9c0.6-0.3,1.3-0.6,1.7-1.1
				c0.5-0.5,0.7-1.2,0.7-1.8v-1.1l0.7,1c0.3,0.5,0.7,0.9,1.1,1.3c0.4,0.4,0.9,0.7,1.3,0.9c0.5,0.2,1,0.4,1.6,0.6
				c0.6,0.1,1.2,0.2,1.8,0.3v0.1c-0.6,0.2-1.2,0.3-1.9,0.3c-0.6,0-1.3-0.1-1.9-0.4c-0.6-0.2-1.2-0.7-1.6-1.2c-0.4-0.5-0.8-1.1-1-1.7
				l0.7-0.1c-0.2,0.8-0.7,1.4-1.1,1.9c-0.5,0.5-1,1.1-1.6,1.6s-1.3,0.8-1.9,1C2982.5,1027.8,2981.8,1028,2981.1,1027.9
				L2981.1,1027.9z"/>
		</g>
		<g class="st3">
			<path class="st4" d="M2986.1,1031.2c-0.4,0.8-0.8,1.6-1.3,2.4c-0.3,0.4-0.5,0.7-0.8,1.1s-0.6,0.7-0.9,1v-0.1
				c-0.7,0.9-1.3,1.7-1.8,2.7c-0.3,0.5-0.5,0.9-0.8,1.4s-0.6,0.9-0.8,1.3c-0.5,1-1.1,1.9-1.8,2.7c-0.7,0.8-1.4,1.7-2.2,2.4l-0.1-0.1
				c0.4-1,0.9-1.9,1.5-2.9c0.5-0.9,1.1-1.8,1.7-2.7c0.6-1,1.4-1.7,2.1-2.5c0.7-0.8,1.3-1.7,1.6-2.7v-0.1c0.2-0.4,0.4-0.8,0.7-1.2
				s0.5-0.7,0.8-1.1C2984.7,1032.4,2985.3,1031.7,2986.1,1031.2L2986.1,1031.2z"/>
		</g>
		<g class="st3">
			<path class="st4" d="M2989.5,1034.1c0,0.5-0.1,0.9-0.2,1.4c-0.2,0.4-0.4,0.9-0.6,1.2c-0.2,0.4-0.5,0.8-0.7,1.1
				c-0.2,0.4-0.6,0.7-0.8,1v-0.1c-0.3,0.6-0.7,1.2-1,1.8s-0.6,1.2-0.9,1.8c-0.3,0.6-0.6,1.2-0.9,1.8c-0.4,0.6-0.7,1.2-1.2,1.7
				l0.1-0.2c-0.2,0.5-0.4,0.9-0.7,1.3s-0.5,0.7-0.8,1.1c-0.6,0.7-1.2,1.4-1.9,2l-0.1-0.1c0.4-0.8,0.8-1.6,1.2-2.4l0.6-1.2
				c0.2-0.4,0.4-0.8,0.6-1.1v-0.1l0.1-0.1c0.4-0.4,0.8-1,1.2-1.5s0.8-1.1,1.2-1.6s0.8-1.1,1.1-1.7s0.5-1.2,0.6-1.9v-0.1
				c0.4-0.9,0.9-1.6,1.4-2.3C2988.5,1035.6,2989.1,1034.9,2989.5,1034.1L2989.5,1034.1z"/>
		</g>
		<g class="st3">
			<path class="st4" d="M2993.6,1037.6c-0.2,0.7-0.5,1.2-0.8,1.8s-0.7,1.1-1.1,1.6c-0.4,0.5-0.9,0.9-1.3,1.4c-0.4,0.5-0.7,1.1-1,1.6
				c-0.6,1.2-1.3,2.2-2,3.3c-0.4,0.5-0.7,1-1.1,1.5c-0.4,0.5-0.8,1-1,1.6h-0.1c-0.1-0.7,0.2-1.4,0.4-2c0.3-0.6,0.6-1.2,0.9-1.7
				c0.3-0.5,0.7-1.1,1.1-1.6c0.4-0.5,0.8-1,1.3-1.5c0.4-0.5,0.9-1,1.2-1.5s0.6-1.1,0.9-1.7
				C2991.7,1039.4,2992.6,1038.5,2993.6,1037.6L2993.6,1037.6z"/>
		</g>
	</g>
	<path class="st5" d="M3548,1106.9c-37.1,0-117.1-2.3-141.9-2.3c0,0-64.2-221.6-407.6,11.9c112.6,0,483.6-2.7,483.6-2.7l-64.6-2.7
		L3548,1106.9z"/>
	
		<linearGradient id="SVGID_3_" gradientUnits="userSpaceOnUse" x1="2988" y1="-2624.4001" x2="3262" y2="-2624.4001" gradientTransform="matrix(1 0 0 1 0 3802.9658)">
		<stop  offset="0.2561" style="stop-color:#AED879;stop-opacity:0"/>
		<stop  offset="0.2815" style="stop-color:#ADD778;stop-opacity:4.211080e-02"/>
		<stop  offset="0.5749" style="stop-color:#A6CA73;stop-opacity:0.529"/>
		<stop  offset="0.8588" style="stop-color:#A3C671"/>
	</linearGradient>
	<path class="st6" d="M3262,1176.6c-49,0-127-8.2-274,3.3c147,4.9,235,3.3,235,3.3l-85.3-3.3L3262,1176.6z"/>
	
		<linearGradient id="SVGID_4_" gradientUnits="userSpaceOnUse" x1="-0.5" y1="-2107.8232" x2="3969" y2="-2107.8232" gradientTransform="matrix(1 0 0 1 0 3802.9658)">
		<stop  offset="9.056152e-02" style="stop-color:#E8EFF9"/>
		<stop  offset="0.2847" style="stop-color:#CED8F3"/>
		<stop  offset="0.4966" style="stop-color:#BAC6EE"/>
		<stop  offset="0.706" style="stop-color:#ADBCEB"/>
		<stop  offset="0.9082" style="stop-color:#A9B8EA"/>
	</linearGradient>
	<path class="st7" d="M2989.5,1039c-3-21-9.2-13.7-23-1c-60,55-67.1,184.8-244.3,151.3c-191.7-36.3-366.3,3.3-495.2,108.2
		c-365,297-468.5,168.5-680.5,71.5c-572.2-261.8-671.4,283.3-1073.5,69.5c-126-67-286-159-473-22c0,5-0.5,940.9-0.5,970.9
		c336,0,3969.5-3,3969.5-3l-1-674.9c-44.6-28.8-164.5-34.3-270.5-1.5c-252,78-299.5-148.5-516.5-99.5
		c-140.7,31.8-293.5,148.5-335.5-1.5c-9.5-33.9-36.5-49.5-56.5-53.5c-36.2-7.2-92.1-69-81-74c47-21,95.5-36.5,183-12
		c89.1,24.9,264.5-40.5,136.5-239.5c-26.7-41.5-32-90-5-114c29.3-26.1,50.3-44.4,52-67c2-26-3.4-30.6-11-44
		C2990.5,1067,2992.9,1063.1,2989.5,1039z"/>
	<path class="st8" d="M3063,958.1c-4.1,4.8-11.5,12.1-15.6,15s-21.3,14-26.1,21s-22.9,9.2-23.3,13.7c-0.3,4.5,12.4,20.4,15,22.6
		c6.1-1.9,18.2-8.6,24.2-10.5c6.1-1.9,9.6-6.7,12.4-6.7s10.8-7.6,15.9-7.6c5.1-2.5,12.7-14.7,14.7-15.9c1.9-1.3,2.9-1.6,6.4-5.7
		c3.5-4.1,6.7-6.4,7-7.6C3093.9,975,3063,958.1,3063,958.1z"/>
	<path class="st9" d="M3117.8,1043.3c-3.7,10.4-23.8,46.1-31.8,62.2c-3.7,7.4,2.2,25.2,7.4,55.5c-6.7,0.7-34-5.2-32.6,11.8
		c0.7,7.7,51.8,11,51.8-2.2c0-18.5,5.2-51.8-1.5-60.7c15.5-14.1,34-34.8,36.3-46.6C3149.6,1051.5,3117.8,1043.3,3117.8,1043.3z"/>
	<path class="st9" d="M3137.4,1039.5c1.5,10.9,0.1,51.8,0.4,69.8c0.1,8.3,13.6,21.3,32.2,45.8c-2.3,1.6-2.6,5.8-11.5,7.3
		c-5.5,0.9-16.4,2.7-11.1,11.1c2.1,3.4,6.6,3.5,20.7,3c33.3-8.1,26.3-16,23.4-21.7c-8.5-16.4-19.3-48.4-29.3-53.2
		c7.3-19.6,14.2-46.6,10.7-58.1S3137.4,1039.5,3137.4,1039.5z"/>
	<path class="st8" d="M3084.9,1110c-0.6,9.1,4.2,25.6,8.5,50.7c-6.7,0.7-34-5.2-32.6,11.8c0.7,7.7,51.8,11,51.8-2.2
		c0-18.3,5-50.9-1.2-60.3H3084.9z"/>
	<path class="st8" d="M3191.5,1154.5c-8.2-15.7-18.4-45.7-28-52.4c-0.8,0.4-1.6,0.5-2.5,0.6c-1.9,0.2-3.7,0.2-5.5,0.6
		c-2.7,0.7-5.5,1.4-8.1,2.3c-2.3,0.8-4.4,1.7-6.7,2.3c-0.9,0.3-1.9,0.6-2.8,1c0.2,8.3,13.6,21.3,32.2,45.8
		c-2.3,1.6-2.6,5.8-11.5,7.3c-5.5,0.9-16.4,2.7-11.1,11.1c2.1,3.4,6.6,3.5,20.7,3C3201.4,1168,3194.5,1160.2,3191.5,1154.5z"/>
	<g>
		<path class="st8" d="M3180.7,984.1c5.1,5.1,32.1,92,31.2,100.2c-0.9,8.2-8.6,4.8-11.2,3.5c-2.2,4.1-9.6,11.5-30.9,13.1
			c-21.3,1.6-22.3-2.2-36.6,0c-14.3,2.2-27.1-4.1-34.7-8c-7.6-3.8-17.8-2.2-8.6-14c9.2-11.8,36.3-62.8,35-66.6s22-21,22-21
			L3180.7,984.1z"/>
		<g class="st10">
			<path class="st11" d="M3149.1,1000.3c0.2,3.6,0.1,7.3,0,10.9c-0.1,3.6-0.3,7.2-0.5,10.9c-0.2,3.6-0.5,7.2-0.9,10.8
				s-0.8,7.2-1.5,10.8c0.2-1.8,0.3-3.6,0.4-5.4c0.1-1.8,0.2-3.6,0.3-5.4l0.6-10.8l0.7-10.8L3149.1,1000.3z"/>
		</g>
		<g class="st10">
			<path class="st11" d="M3142.1,1057.9l-3,9.8c-1,3.3-2,6.5-3.1,9.8c-1.1,3.3-2.2,6.5-3.4,9.7c-1.2,3.2-2.3,6.5-3.9,9.5
				c0.6-1.6,1.1-3.2,1.7-4.9l1.6-4.9c1-3.3,2.1-6.5,3.1-9.8c1.1-3.2,2.2-6.5,3.3-9.7C3139.6,1064.3,3140.8,1061.1,3142.1,1057.9z"/>
		</g>
		<g class="st10">
			<path class="st11" d="M3157.4,999.3c0.3,8,0.2,15.9,0.1,23.9c-0.1,8-0.4,15.9-0.8,23.9c-0.4,8-0.8,15.9-1.6,23.9
				c-0.4,4-0.8,7.9-1.3,11.9c-0.3,2-0.6,3.9-1,5.9s-0.8,3.9-1.6,5.8c0.7-1.9,1-3.9,1.3-5.8c0.3-2,0.5-3.9,0.7-5.9
				c0.4-4,0.7-7.9,1-11.9c0.5-7.9,1-15.9,1.3-23.9c0.4-8,0.7-15.9,1-23.9l0.4-11.9C3157.3,1007.3,3157.4,1003.3,3157.4,999.3z"/>
		</g>
		<g class="st10">
			<path class="st11" d="M3165.1,997.1c1.4,2.2,1.8,4.9,2.3,7.4c0.5,2.6,0.7,5.1,0.9,7.7c0.2,2.6,0.3,5.2,0.3,7.7
				c0,2.6,0,5.2-0.4,7.7c0-1.3-0.1-2.6-0.2-3.9c-0.1-1.3-0.1-2.6-0.2-3.9l-0.5-7.7c-0.2-2.6-0.4-5.1-0.7-7.7
				c-0.1-1.3-0.3-2.5-0.5-3.8C3165.9,999.5,3165.6,998.3,3165.1,997.1z"/>
		</g>
		<g class="st10">
			<path class="st11" d="M3169.5,1047.1l0.7,11.9l0.7,11.9l0.6,11.9l0.3,5.9c0.1,2,0.2,4,0.3,5.9c-0.7-3.9-1-7.9-1.4-11.8
				c-0.3-4-0.5-7.9-0.8-11.9c-0.2-4-0.3-7.9-0.4-11.9C3169.4,1055,3169.4,1051.1,3169.5,1047.1z"/>
		</g>
		<g class="st10">
			<path class="st11" d="M3192.1,1037.2c0.9,4.3,1.5,8.6,2.2,12.9s1.2,8.6,1.9,13l1.7,13c0.3,2.2,0.6,4.3,0.9,6.5
				c0.3,2.2,0.6,4.3,1.2,6.4c-0.8-2-1.2-4.2-1.7-6.3c-0.4-2.1-0.8-4.3-1.2-6.4c-0.7-4.3-1.3-8.6-2-13c-0.5-4.3-1.1-8.7-1.6-13
				L3192.1,1037.2z"/>
		</g>
	</g>
	<path class="st12" d="M3182.9,986.3c0,0,1.5,3.8,1.5,3.7c0,0-10.4,3.7-22.9,7.4c-7.7,2.3-9.6,2.2-16.3,3
		c-4.5,4.9-14.8,11.8-18.5,17c-6.6,9.2-7.4,9.6-7.4,9.6l-2.2-3.7l23.7-25.9L3182.9,986.3z"/>
	<path class="st13" d="M3087,927.6c24.1-16,27.8-0.5,47.8,11.3c10.9,6.4,28.6,21.2,34.7,24.3c6.1,3.2,24.2,17.8,14.3,27.4
		c-2.2-1.6,1.3-4.5-4.8-0.6c-6.1,3.8-16.6,3.2-19.1,5.7s-9.6,3.8-12.7,3.2s-3.2-0.3-6.1,3.5c-2.9,3.8-17.5,15-18.2,17.5
		s-2.2,8.9-6.1,6.1s-6.1-12.1-10.5-20.4c-4.5-8.3-12.4-18.2-21.3-23.9c-8.9-5.7-24.2-18.2-29.3-18.8c5.7-10.2,8.3-19.1,17.2-22.3
		C3081.8,937.4,3077.7,933.9,3087,927.6z"/>
	<g>
		
			<linearGradient id="SVGID_5_" gradientUnits="userSpaceOnUse" x1="3065.7092" y1="-2807.2312" x2="3079.9446" y2="-2778.4668" gradientTransform="matrix(1 0 0 1 0 3802.9658)">
			<stop  offset="0" style="stop-color:#BC6353"/>
			<stop  offset="0.6347" style="stop-color:#BC6153"/>
			<stop  offset="0.8631" style="stop-color:#BB5A52"/>
			<stop  offset="1" style="stop-color:#B95151"/>
		</linearGradient>
		<path class="st14" d="M3087.6,991.7c-4.1,1.9-7.6,1.3-11.5,2.5c-3.8,1.3-10.6,3.5-13.1,4.3c-4,3-11.4,13.1-5,11
			c3-1,8.2-5.1,8.2-5.1s-8.6,10.8-9.9,12.4c-1.3,1.6-6.8,6.5-4.5,9.6c2,2.5,5.1-1.3,8.8-5.3c1.3-1.4,5.3-4,6.5-5.9
			c-1.3,3.2-9.6,16.6-8.6,18.2c0.9,1.5,3.9,1.6,5-0.7c0-0.1,0.1,0,0.1,0c0,1.4,1.1,1.2,2.9,0.3c1.9-1,7.6-3.8,9.6-5.4
			c-3.2,3.2-4.1,4.8-3,6.8c1,1.9,2.7-0.5,3.3-1.4c0.6-1,4.9-3.7,8.4-9.7c7.6-9.2,6.2-7.5,7.5-9.1s6.1-11.2,6.1-11.2L3087.6,991.7z"
			/>
		<g class="st3">
			<path class="st4" d="M3077.1,1016.5l-3.1,4.4c-1,1.4-2,2.9-3.2,4.3c-2.4,2.7-4.9,5.1-7.3,7.8c1.8-3.1,4.2-5.8,6.5-8.4
				c1.1-1.3,2.2-2.8,3.3-4.1C3074.5,1019,3075.7,1017.7,3077.1,1016.5z"/>
		</g>
		<g class="st3">
			<path class="st4" d="M3080.1,1023.4c-0.4,1-1,1.8-1.6,2.5c-0.7,0.7-1.4,1.4-2.4,1.8c0.4-1,1-1.8,1.6-2.5
				C3078.4,1024.5,3079.1,1023.8,3080.1,1023.4z"/>
		</g>
		<g class="st3">
			<path class="st4" d="M3074.8,996.8c-1.3,1.5-2.7,2.9-4.2,4.1c-1.5,1.3-3,2.5-4.6,3.7c0.5-0.9,1.1-1.6,1.8-2.4
				c0.7-0.7,1.4-1.4,2.1-2C3071.5,998.9,3073.1,997.7,3074.8,996.8z"/>
		</g>
	</g>
	
		<linearGradient id="SVGID_6_" gradientUnits="userSpaceOnUse" x1="3079.8938" y1="-2856.6604" x2="3093.9797" y2="-2896.363" gradientTransform="matrix(1 0 0 1 0 3802.9658)">
		<stop  offset="0.1574" style="stop-color:#BC6353"/>
		<stop  offset="0.6227" style="stop-color:#BC6153"/>
		<stop  offset="0.7902" style="stop-color:#BB5A53"/>
		<stop  offset="0.9093" style="stop-color:#BA4F52"/>
		<stop  offset="1" style="stop-color:#B93F51"/>
	</linearGradient>
	<path class="st15" d="M3082.5,912.4c0.1-1.4,1.7-6.6,4.7-6.9s4.5,0.8,5.4,2.9c0.9,2.1,0,8-4.9,12.8c0.9,2.1,2.9,6.7,6.3,7.4
		c-1.2,3.6-5.3,22.4-6.5,22.9s-7.4-5.9-7.4-5.9L3082.5,912.4z"/>
	
		<linearGradient id="SVGID_7_" gradientUnits="userSpaceOnUse" x1="3053.2798" y1="-2877.9822" x2="3066.5969" y2="-2914.7825" gradientTransform="matrix(1 0 0 1 0 3802.9658)">
		<stop  offset="0" style="stop-color:#B95F51"/>
		<stop  offset="0.8426" style="stop-color:#BC6353"/>
	</linearGradient>
	<path class="st16" d="M3042.4,895.4c-1.7,1.8-6.4,6.9-5.2,11.3c1.2,4.4,3.3,10,1.6,11.1c-1.6,1-1.7,5.4,5.4,16.2
		c7.1,10.8,33.1-9.3,33.1-9.3l1-27.5l-17.7-9.7L3042.4,895.4z"/>
	<g>
		<path class="st17" d="M3047.5,921.5c-0.6,1.1-1.7,2-3.1,2.2c-0.7,0.1-1.4,0-2-0.2c-0.6-0.3-1.1-0.7-1.5-1.2
			c0.6,0.2,1.2,0.4,1.7,0.5c0.6,0.1,1.1,0.1,1.6,0C3045.3,922.6,3046.3,922,3047.5,921.5z"/>
	</g>
	<g>
		<path class="st17" d="M3069,915c-0.4,0.7-0.9,1.3-1.5,1.9c-0.6,0.5-1.3,1-2,1.3c-0.8,0.3-1.6,0.5-2.4,0.5c-0.8,0-1.6-0.3-2.3-0.8
			c0.8,0.1,1.5,0.1,2.2,0.1c0.7-0.1,1.4-0.3,2-0.6C3066.5,916.7,3067.7,915.9,3069,915z"/>
	</g>
	<g>
		<path class="st17" d="M3069.6,917.9c-0.2,0.6-0.7,1.1-1.3,1.5c-0.3,0.2-0.6,0.3-0.9,0.4c-0.3,0.1-0.6,0.1-1,0.2
			c0.3-0.1,0.6-0.2,0.9-0.3c0.3-0.1,0.6-0.3,0.8-0.5c0.3-0.2,0.5-0.4,0.7-0.6C3069.2,918.4,3069.4,918.2,3069.6,917.9z"/>
	</g>
	<g>
		<path class="st17" d="M3045.3,925c-0.3,0.4-0.9,0.6-1.4,0.7c-0.3,0-0.5,0-0.8-0.1c-0.3-0.1-0.5-0.2-0.7-0.3
			c0.3,0.1,0.5,0.1,0.7,0.1s0.5,0,0.7,0s0.5-0.1,0.7-0.1C3044.8,925.2,3045,925.2,3045.3,925z"/>
	</g>
	<path class="st18" d="M3046.6,930.5c-1.9,0.5-7.6,8.8,2.4,26.9c5.6,10,18.5,20.7,28.9-1.5c2.3-5,10.4-10.4,10.6-20.9
		c0.1-3.1-3.5-18.6-6.2-22.6c1.1-6.4,6.1-9.2,9.7-5.6c-0.6-4.6-0.4-14.7-6.2-19.2c-5.7-4.5-8.6-5.6-13.8-6.5
		c-5.2-0.9-15.8-2.7-25.2,6.7c-15.5,15.5-5.9,13.3-3.7,10.2c3.7-5.3,17.2-6.7,19.5-7s5-2.1,13.5,10.5c0.3,4,3.3,12.5-0.2,18.1
		c-3.5,5.6-4.4,5-8.5,4.4c-2.5,3.1-2.3,5.9-5.5,8.2c-2.1,1.6-10.1,4.7-11.9-1.1C3049.1,928.4,3046.6,930.5,3046.6,930.5z"/>
	<g>
		<path class="st17" d="M3057.9,896.2c-2.1,0.6-4.2,1.1-6.2,1.7c-1,0.3-2.1,0.6-3.1,0.8c-1,0.3-2,0.6-3,1c0.8-0.8,1.8-1.3,2.8-1.8
			s2-0.8,3.1-1.1c1.1-0.3,2.1-0.5,3.2-0.6C3055.7,896.2,3056.8,896.1,3057.9,896.2z"/>
	</g>
	<g>
		<path class="st17" d="M3055.3,900.1c-0.7,0.1-1.3,0.2-2,0.3s-1.3,0.2-1.9,0.4c-0.6,0.1-1.3,0.3-1.9,0.5c-0.6,0.2-1.2,0.5-1.8,0.8
			c1-0.9,2.4-1.3,3.6-1.6C3052.6,900.3,3053.9,900,3055.3,900.1z"/>
	</g>
	<path class="st19" d="M3068.9,901.9c-0.6-1.1-4.2-1.7-5.8-1.3c-1.6,0.3-3.4,0.1-4-0.4c0,0.7-1.8,0.8-2.7,0.1
		c-0.3,0.1-0.3,1.8-1.1,1.5s-2,0.2-0.5,1.3s3,2.2,3.9,1.8s3.7-2.6,6.7-2.2C3066.4,902.8,3070.5,904.7,3068.9,901.9z"/>
	<path class="st19" d="M3038.1,911.6c0.1-0.6,0.7-2.4,2.2-3.7c1.5-1.3,2.8-1.5,2.8-2.3c0-0.7,0.8-0.7,1-0.1c0.5-0.5,0.1-2.1,1.1-1.5
		c1,0.6,1,1.6,1.5,1.1s0.8-1.4,1-0.8c0.3,0.6,0.6,2.2-0.5,3c-1,0.8-5.1,1.8-6.4,2.8C3039.6,911,3037.7,913.9,3038.1,911.6z"/>
	<g>
		
			<linearGradient id="SVGID_8_" gradientUnits="userSpaceOnUse" x1="3040.9382" y1="-2886.3584" x2="3043.634" y2="-2886.3584" gradientTransform="matrix(1 0 0 1 0 3802.9658)">
			<stop  offset="0" style="stop-color:#52422A"/>
			<stop  offset="0.4291" style="stop-color:#4A2B13"/>
		</linearGradient>
		<polygon class="st20" points="3041.2,917.2 3043.1,915.7 3043.6,917.6 		"/>
	</g>
	<g>
		
			<linearGradient id="SVGID_9_" gradientUnits="userSpaceOnUse" x1="3064.5291" y1="-2892.7085" x2="3067.7349" y2="-2892.7085" gradientTransform="matrix(1 0 0 1 0 3802.9658)">
			<stop  offset="0" style="stop-color:#52422A"/>
			<stop  offset="0.4291" style="stop-color:#4A2B13"/>
		</linearGradient>
		<path class="st21" d="M3067.5,909.8c-0.4,0.3-0.9,0.6-1.3,0.8c-0.2,0.1-0.5,0.3-0.7,0.4c-0.3,0.1-0.5,0.3-0.9,0.3l0.1-2
			c0.1,0.1,0.3,0.1,0.6,0.2c0.2,0,0.5,0.1,0.7,0.1C3066.4,909.7,3067,909.8,3067.5,909.8z"/>
	</g>
	<path class="st22" d="M3071,927.5c0.7,0-1,0-4-1c-3.6-1.2-2.7-2.2-10.7,2.4c-1.5,0-3.9-0.9-6.6,0.3c-2.3,1-3.7,1.3-4.7,4.3
		c4-2,3.9,0,7-1s3.8-2.1,4.5-2.1s4.5,0.8,7.2-0.3S3068,927.5,3071,927.5z"/>
	
		<linearGradient id="SVGID_10_" gradientUnits="userSpaceOnUse" x1="3063.8447" y1="-2888.7419" x2="3063.6106" y2="-2892.5256" gradientTransform="matrix(1 0 0 1 0 3802.9658)">
		<stop  offset="0" style="stop-color:#52422A"/>
		<stop  offset="0.4291" style="stop-color:#4A2B13"/>
	</linearGradient>
	<path class="st23" d="M3061.5,912.9c0.6,1.4,2.1,2.1,3.3,1.5c1.2-0.5,1.7-2.1,1.1-3.4c-0.6-1.4-2.1-2.1-3.3-1.5
		C3061.4,910,3060.9,911.5,3061.5,912.9z"/>
	
		<linearGradient id="SVGID_11_" gradientUnits="userSpaceOnUse" x1="3042.1426" y1="-2885.6084" x2="3046.656" y2="-2885.6084" gradientTransform="matrix(1 0 0 1 0 3802.9658)">
		<stop  offset="0" style="stop-color:#52422A"/>
		<stop  offset="0.4291" style="stop-color:#4A2B13"/>
	</linearGradient>
	<path class="st24" d="M3042.3,918.3c0.5,1.2,1.9,1.8,3,1.3s1.6-1.9,1.1-3.1s-1.9-1.8-3-1.3S3041.8,917.1,3042.3,918.3z"/>
	
		<ellipse transform="matrix(0.9191 -0.394 0.394 0.9191 -111.0925 1281.4011)" class="st19" cx="3065.2" cy="911.3" rx="1" ry="0.5"/>
	<ellipse transform="matrix(0.9191 -0.394 0.394 0.9191 -114.8587 1274.4551)" class="st19" cx="3046.4" cy="917" rx="1" ry="0.5"/>
	<g>
		<path class="st17" d="M3084.8,914.5c0-0.9,0.2-1.7,0.6-2.5c0.3-0.8,0.7-1.5,1.4-2.2c0.2-0.2,0.4-0.3,0.7-0.4
			c0.2-0.1,0.5-0.2,0.7-0.2c0.5-0.1,1.1,0.1,1.5,0.4c0.8,0.6,1,1.6,1,2.4c-0.4-0.7-0.8-1.5-1.4-1.8c-0.3-0.1-0.6-0.2-0.9-0.1
			c-0.2,0-0.3,0.1-0.5,0.2c-0.1,0.1-0.2,0.2-0.4,0.3c-0.5,0.5-1,1.2-1.4,1.8C3085.6,913.1,3085.1,913.8,3084.8,914.5z"/>
	</g>
	
		<linearGradient id="SVGID_12_" gradientUnits="userSpaceOnUse" x1="3052.5439" y1="-2875.4641" x2="3058.4998" y2="-2891.9226" gradientTransform="matrix(1 0 0 1 0 3802.9658)">
		<stop  offset="0" style="stop-color:#B43227"/>
		<stop  offset="0.8426" style="stop-color:#A54637"/>
	</linearGradient>
	<path class="st25" d="M3050.4,908.8c-0.8,0.4,0.9,2.1,0.8,2.8c0,0.7-2.5,11.1-1,13.9s5.5,3.2,7.3,1.7s7-3,5.4-5.1
		c-1.6-2.1-2.5-0.3-3.5-0.9C3058.1,920.4,3054.4,906.7,3050.4,908.8z"/>
	<path class="st26" d="M3071,927.5c0.7,0-1-1-4-2c-3.6-1.2-2.7-2.2-10.7,2.4c-1.5,0-3.9-0.9-6.6,0.3c-2.3,1-3.7,2.3-4.7,5.3
		c4-2,3.9-1,7-2s3.8-2.1,4.5-2.1s4.5,0.8,7.2-0.3S3068,927.5,3071,927.5z"/>
	<path class="st27" d="M3055.6,927.1c-1.9,0-3.7-0.6-5.3-1.5c1.6,2.7,5.5,3,7.2,1.6c0.2-0.1,0.4-0.3,0.6-0.4
		C3057.4,927,3056.5,927.1,3055.6,927.1z"/>
	<g class="st10">
		<path class="st11" d="M3055.2,938.4c0.4-0.7,1-1.2,1.6-1.7s1.4-0.9,2.1-1.1c0.8-0.2,1.6-0.4,2.4-0.2c0.8,0.1,1.6,0.5,2.2,1.1
			c-0.8-0.2-1.5-0.3-2.2-0.3s-1.4,0.2-2.1,0.4C3057.9,936.9,3056.6,937.7,3055.2,938.4z"/>
	</g>
	<path class="st28" d="M3092.2,907.1c-0.6-4.6-0.4-14.7-6.2-19.2c-0.9-0.7-1.7-1.3-2.4-1.8l0.1,2l-4.3,4.3l3.1,21.7l4.2,13.5
		l-1.9,15.2c0,0-10.5,12.6-10.8,12.8c-0.2,0.1-6.1,8.8-16.2,11.6c0,0.7,11.4,8.3,20.3-11c2.3-5,10.4-10.4,10.6-20.9
		c0.1-3.1-3.5-18.6-6.2-22.6C3083.6,906.3,3088.6,903.4,3092.2,907.1z"/>
	<path class="st8" d="M3093,924.5c4.3-4.1,12.6-6.7,20-1.5s27.4,31.5,34.8,46.6c8.5,17.4-5.6,22.6-50,44
		c-7.4,1.5-21.5-22.2-13.3-24.4c8.1-2.2,22.9-14.8,32.6-18.5c-5.9-0.6-16.6-18-18.1-25.5"/>
	<path class="st29" d="M3099.3,942.7c0,0-0.3,0.5-0.7,1.4l0.3,1.2c1.5,7.6,12.3,24.9,18.1,25.5c-9.6,3.7-24.4,16.3-32.6,18.5
		c-1.8,0.5-2.5,2.1-2.4,4.2c2.8-0.2,5.8-1.7,8.4-4.2c3.7-3.7,31.1-18.5,43.7-18.5C3114.1,965.6,3100.8,946.4,3099.3,942.7z"/>
	<g>
		<polygon class="st30" points="3281.9,1124.9 3289.3,1081.3 3298,1124.9 		"/>
		<path class="st30" d="M3297.7,1104.4h-3.6c-10.1-1-18-10.6-18-22.2c0-12.3,8.9-22.3,19.8-22.3s19.8,10,19.8,22.3
			C3315.8,1093.9,3307.8,1103.4,3297.7,1104.4z"/>
		<ellipse class="st30" cx="3272.5" cy="1070.8" rx="18.1" ry="25.3"/>
		<circle class="st30" cx="3305" cy="1052.7" r="21.7"/>
		<circle class="st30" cx="3283.3" cy="1045.4" r="14.5"/>
		<circle class="st30" cx="3276.1" cy="1103.3" r="14.5"/>
		<line class="st31" x1="3290.7" y1="1052.7" x2="3290.7" y2="1113.6"/>
		<line class="st31" x1="3299.7" y1="1056.8" x2="3291" y2="1065.5"/>
		<line class="st31" x1="3277.9" y1="1065.5" x2="3291" y2="1078.6"/>
		<line class="st31" x1="3304" y1="1078.6" x2="3291" y2="1091.6"/>
	</g>
	<g>
		<g>
			<path class="st30" d="M3352.9,1116.2h3.8c0,0.1-3.5-13.1-10.4-17.7C3351,1105,3352.9,1116.2,3352.9,1116.2z"/>
			<path class="st30" d="M3358.6,1116.2c0,0-1.1-14.7,3-22.4c-3.9,5.2-7.2,13.7-7,22.4C3355.7,1116.1,3358.6,1116.2,3358.6,1116.2z"
				/>
			<path class="st30" d="M3356.7,1110.2c-0.4-1.4-3.1-14-2.9-17.3c-0.9,2-2.5,14.1,0,20C3356.3,1118.9,3356.7,1110.2,3356.7,1110.2z
				"/>
		</g>
		<path class="st30" d="M3374,1116.2h5.6c0,0.1-3.5-16.2-15-25.5C3372.4,1103.1,3374,1116.2,3374,1116.2z"/>
		<path class="st30" d="M3370.8,1116.2h4.5c0,0.1-1.2-11.7-12.7-16.1C3370.1,1107.8,3370.8,1116.2,3370.8,1116.2z"/>
		<path class="st30" d="M3387.1,1116.2h-4.5c0,0.1,0.9-15,14-25.5C3389.2,1102,3387.1,1116.2,3387.1,1116.2z"/>
		<path class="st30" d="M3383.4,1116.2c0,0,1.6-23.3,13.3-39.3c-6.1,5.1-17.7,21.6-18.7,39.3
			C3380.1,1116,3383.4,1116.2,3383.4,1116.2z"/>
		<path class="st30" d="M3377.9,1116.2c0,0-1.6-23.3-13.3-39.3c6.1,5.1,17.7,21.6,18.7,39.3
			C3381.2,1116,3377.9,1116.2,3377.9,1116.2z"/>
		<path class="st30" d="M3379.1,1116.2c0,0,4.5-18.7-3.1-39.5c9.6,12.8,9.1,21.8,10.1,39.5C3384.1,1116,3379.1,1116.2,3379.1,1116.2
			z"/>
	</g>
	<g>
		<path class="st32" d="M3338.9,1075.8c1.9,2.6,16.7,15.5,15.3,41.5"/>
		<path class="st32" d="M3350.4,1077.7c0,4-1.9,8.9,1,18.2"/>
		<path class="st32" d="M3365.7,1091.7c-4.5,2.4-10.9,7.7-11.6,18"/>
		<path class="st32" d="M3342,1100.8c1.7,0.6,11.1,3.7,12.4,12.3"/>
		<path class="st32" d="M3355.7,1082.7c-1.5,0.9-6.5,4.4-4.8,11.6"/>
		<path class="st30" d="M3331.1,1063.6c3.3,1.3,9.5,4.5,8.2,12.7C3332.8,1074.7,3331.5,1072,3331.1,1063.6z"/>
		<path class="st30" d="M3352,1063.2c1.8,3.1,4.6,9.5-1.5,15C3346.5,1072.8,3347.1,1069.9,3352,1063.2z"/>
		<path class="st30" d="M3365.9,1072.8c-0.6,3.5-2.6,10.2-10.8,10.5C3355.4,1076.6,3357.8,1074.8,3365.9,1072.8z"/>
		<path class="st30" d="M3377.9,1084.3c-1.4,3.3-4.9,9.3-13,7.7C3366.8,1085.5,3369.6,1084.4,3377.9,1084.3z"/>
		<path class="st30" d="M3332.6,1084.5c3.2-1.5,9.9-3.7,14.8,2.9C3341.8,1090.9,3338.9,1090,3332.6,1084.5z"/>
		<path class="st30" d="M3328.1,1097.1c3.3-1.2,10.1-2.9,14.5,4.1C3336.7,1104.2,3333.9,1103.1,3328.1,1097.1z"/>
		<circle class="st30" cx="3356.9" cy="1094.5" r="1.6"/>
		<circle class="st30" cx="3359" cy="1084.4" r="1.6"/>
		<circle class="st30" cx="3343.9" cy="1076.3" r="1.6"/>
		<circle class="st30" cx="3345" cy="1107.3" r="1.6"/>
		<circle class="st30" cx="3345.2" cy="1099.5" r="1.4"/>
		<circle class="st30" cx="3366.7" cy="1097.9" r="2.4"/>
		<circle class="st30" cx="3342.7" cy="1092.7" r="2.4"/>
		<path class="st32" d="M3345.8,1100.8c-0.2,0.4,0.3,2,1.4,2.4"/>
		<path class="st32" d="M3346.1,1106.2c0.8,0.1,3.1-1.1,4.8,0"/>
		<path class="st32" d="M3357,1095.7c-0.3,0.8-0.2,4.1-0.6,5.3"/>
		<path class="st32" d="M3364.4,1098.2c-0.8,0.1-5.5-0.9-7.7,2.2"/>
		<path class="st32" d="M3357.9,1084.5c-1.2-0.3-3.4-0.7-5,0.6"/>
		<path class="st32" d="M3343,1077.6c-0.1,0.8-0.2,2.6,0.6,4"/>
		<path class="st32" d="M3345.1,1092.5c1.2-0.1,4.3-0.8,5.3,1.1"/>
	</g>
	<path class="st33" d="M3054,1015.5c3-1,14.1-12.2,13-12s-5-1-7,2S3054,1015.5,3054,1015.5z"/>
	<g>
		
			<linearGradient id="SVGID_13_" gradientUnits="userSpaceOnUse" x1="4301.8242" y1="-5621.4614" x2="4328.5342" y2="-5596.1738" gradientTransform="matrix(0.962 -0.2732 0.2732 0.962 372.9172 7601.9302)">
			<stop  offset="0" style="stop-color:#BC6353"/>
			<stop  offset="0.6347" style="stop-color:#BC6153"/>
			<stop  offset="0.8631" style="stop-color:#BB5A52"/>
			<stop  offset="1" style="stop-color:#B95151"/>
		</linearGradient>
		<path class="st34" d="M2994.9,1012.1c-3.6,1.1-7.2,2.2-8.4,2.8c-2,1.1-10,6.9-10.1,9c-0.4,6.5-3.4,9.5-1.4,11.5c1.2,1.2,5,2,6-7
			c0.1-1.2,0.8-0.7,1.9-1.2c0.7-0.3,1.4-0.6,1.9-0.9c1.7-1,3.8-1.2,5.7-0.6c0.9,0.3,1.9,0.4,3.1,0.2"/>
		<g class="st3">
			<path class="st4" d="M2974.5,1034c-0.1,0.5,0.3,0.9,0.7,1.1s0.9,0.3,1.3,0.3c0.9-0.1,1.6-0.8,2.2-1.6c0.6-0.8,1.1-1.7,1.4-2.7
				c0.4-1,0.6-2,0.7-3.1v-0.1h0.1c1.3-0.5,2.6-1.2,3.7-1.9c1.1-0.7,2.1-1.7,2.2-2.9l0.2-1.8l0.8,1.6c0.5,1,1.2,1.9,2.2,2.4
				c0.5,0.3,1,0.5,1.6,0.6s1.2,0.2,1.8,0.2v0.1c-0.6,0.1-1.2,0.2-1.8,0.2s-1.3-0.1-1.9-0.4c-0.6-0.2-1.2-0.6-1.7-1.1s-0.8-1-1.2-1.6
				l1-0.2c-0.1,0.8-0.5,1.6-1.1,2.2c-0.5,0.6-1.2,1-1.8,1.4c-1.3,0.7-2.7,1.1-4,1.5l0.1-0.1l-0.6,3.2c-0.2,1.1-0.5,2.1-1.1,3.1
				c-0.6,0.9-1.6,1.8-2.9,1.9c-0.6,0-1.2-0.2-1.7-0.6C2974.5,1035.2,2974.1,1034.5,2974.5,1034L2974.5,1034z"/>
		</g>
	</g>
	
		<linearGradient id="SVGID_14_" gradientUnits="userSpaceOnUse" x1="2436.9995" y1="-2666.4084" x2="2986.5" y2="-2666.4084" gradientTransform="matrix(1 0 0 1 0 3802.9658)">
		<stop  offset="0" style="stop-color:#E8EFF9;stop-opacity:0"/>
		<stop  offset="1" style="stop-color:#E8EFF9"/>
	</linearGradient>
	<path class="st35" d="M2986.5,1031c-10.2,9.3-18.3,20.5-25.3,32.3c-7,11.8-12.9,24.2-18.5,36.8c-5.6,12.5-10.9,25.2-16.6,37.7
		c-5.7,12.5-11.7,24.9-18.9,36.6s-15.6,22.8-26.1,31.8c-5.2,4.5-11,8.3-17.2,11.4c-6.1,3.2-12.4,6.1-18.8,8.5
		c-6.4,2.5-13,4.6-19.6,6.4s-13.4,3.2-20.1,4.4c-13.6,2.4-27.3,3.5-41,4c-27.5,0.8-55-1.3-82.3-4c-27.3-2.7-54.6-6-82-8.1
		s-54.9-3.1-82.3-1.3c-27.4,1.8-54.7,6.3-80.8,14.7c26.1-8.6,53.4-13.4,80.8-15.2c27.4-1.9,55-1,82.4,1.1c27.4,2,54.7,5.2,82,7.9
		c13.7,1.3,27.4,2.5,41.1,3.2c13.7,0.8,27.4,1.1,41.1,0.8c13.7-0.4,27.4-1.5,40.9-3.9c6.8-1.2,13.5-2.6,20.1-4.4s13.1-3.9,19.5-6.4
		c6.4-2.4,12.7-5.3,18.7-8.5c6.1-3.1,11.9-6.9,17.1-11.3c10.4-8.9,18.8-20,26-31.6c7.2-11.7,13.2-24.1,18.9-36.6
		s11.1-25.1,16.7-37.6c5.7-12.5,11.6-24.9,18.7-36.7C2968.1,1051.4,2976.3,1040.2,2986.5,1031z"/>
	
		<linearGradient id="SVGID_15_" gradientUnits="userSpaceOnUse" x1="2448.7998" y1="-2640.3083" x2="2990.5" y2="-2640.3083" gradientTransform="matrix(1 0 0 1 0 3802.9658)">
		<stop  offset="0" style="stop-color:#E8EFF9;stop-opacity:0"/>
		<stop  offset="1" style="stop-color:#E8EFF9"/>
	</linearGradient>
	<path class="st36" d="M2990.5,1050c-8.6,11-15.4,23.2-21.3,35.7c-5.9,12.6-11,25.5-15.9,38.5s-9.6,26.1-14.6,39.1
		c-5.1,13-10.5,25.8-17.1,38.1c-6.6,12.2-14.3,24-24.3,33.8c-2.5,2.4-5.1,4.8-7.9,6.9c-2.8,2.1-5.7,4.1-8.7,5.9
		c-6.1,3.4-12.3,6.5-18.8,9.2c-12.9,5.3-26.3,9.3-40,12c-6.8,1.3-13.7,2.4-20.7,3.1c-6.9,0.8-13.9,1.3-20.8,1.6
		c-27.8,1.2-55.7-0.8-83.4-3.5c-27.7-2.7-55.3-6-83-8.2c-27.7-2.2-55.6-3.2-83.3-1.5c-6.9,0.4-13.9,1-20.8,1.8
		c-6.9,0.8-13.8,1.8-20.6,3c-13.7,2.4-27.2,5.7-40.5,9.9c26.4-8.7,54.1-13.5,81.8-15.3c27.8-1.8,55.7-0.8,83.4,1.3s55.4,5.4,83.1,8
		c27.7,2.6,55.5,4.6,83.2,3.5c6.9-0.3,13.9-0.8,20.8-1.5c6.9-0.8,13.8-1.8,20.6-3.1c13.6-2.6,27-6.5,39.9-11.8
		c6.4-2.7,12.7-5.7,18.7-9.1c3-1.8,5.9-3.7,8.6-5.8c2.7-2.1,5.3-4.4,7.8-6.9c9.9-9.7,17.6-21.5,24.2-33.7c6.6-12.2,12-25.1,17.1-38
		s9.8-26,14.8-39c4.9-13,10.1-25.9,16.1-38.5C2975,1073.1,2981.9,1060.9,2990.5,1050z"/>
	
		<linearGradient id="SVGID_16_" gradientUnits="userSpaceOnUse" x1="2496.7002" y1="-2614.2583" x2="2994.5" y2="-2614.2583" gradientTransform="matrix(1 0 0 1 0 3802.9658)">
		<stop  offset="0" style="stop-color:#E8EFF9;stop-opacity:0"/>
		<stop  offset="1" style="stop-color:#E8EFF9"/>
	</linearGradient>
	<path class="st37" d="M2994.5,1055c-2.1,2.7-4.1,5.6-5.9,8.5c-1.8,3-3.5,6-5,9.1c-3.1,6.2-5.7,12.6-7.9,19.2
		c-4.5,13.1-7.8,26.5-10.7,40c-5.8,27-9.9,54.4-17.1,81.2c-3.6,13.3-8,26.6-14.6,38.8c-1.7,3-3.4,6-5.4,8.9c-2,2.8-4.1,5.6-6.4,8.2
		c-2.3,2.6-4.9,5-7.6,7.1c-2.7,2.1-5.7,4-8.7,5.7c-12.2,6.6-25,12-38.2,16.1s-26.8,7-40.5,8.9c-27.5,3.8-55.3,3.7-82.9,2.6
		c-27.6-1.1-55.2-3.2-82.8-4.4c-27.6-1.1-55.3-1.2-82.8,1.3s-54.8,7.8-81.1,16.3l-0.2-0.7c26.3-8.6,53.7-13.9,81.2-16.4
		c27.6-2.6,55.3-2.6,82.9-1.5c27.6,1.1,55.2,3.3,82.8,4.4c27.6,1.2,55.3,1.3,82.7-2.4c13.7-1.8,27.2-4.7,40.4-8.8s26-9.4,38.2-15.9
		c3-1.6,5.9-3.5,8.6-5.6c2.7-2.1,5.2-4.5,7.5-7.1c2.3-2.5,4.4-5.3,6.4-8.1c2-2.8,3.7-5.8,5.4-8.8c6.6-12.1,11-25.3,14.6-38.6
		c7.2-26.7,11.4-54.1,17.4-81.1c3-13.5,6.3-27,10.9-40c2.3-6.5,4.9-12.9,8-19.1c1.5-3.1,3.2-6.1,5-9.1
		C2990.4,1060.6,2992.4,1057.7,2994.5,1055z"/>
	
		<linearGradient id="SVGID_17_" gradientUnits="userSpaceOnUse" x1="2540.2998" y1="-2611.3584" x2="3047.5" y2="-2611.3584" gradientTransform="matrix(1 0 0 1 0 3802.9658)">
		<stop  offset="0" style="stop-color:#E8EFF9;stop-opacity:0"/>
		<stop  offset="1" style="stop-color:#E8EFF9"/>
	</linearGradient>
	<path class="st38" d="M3047.5,1025c-12.4,8.4-23.2,19-31.8,31.2c-8.7,12.2-15.3,25.7-20.3,39.8c-5.1,14.1-8.7,28.6-11.5,43.3
		c-2.9,14.7-5,29.5-7,44.3c-2,14.8-3.9,29.6-6.5,44.4c-2.6,14.7-5.7,29.4-10.9,43.5c-2.6,7-5.8,13.9-9.8,20.2
		c-4,6.4-8.9,12.2-14.6,17c-2.9,2.4-6,4.6-9.2,6.5l-4.9,2.7c-1.6,0.9-3.3,1.7-5,2.6c-6.7,3.4-13.5,6.4-20.5,9.1
		c-14,5.4-28.5,9.2-43.3,11.7s-29.7,3.7-44.7,4c-29.9,0.7-59.8-1.8-89.6-3.5c-14.9-0.9-29.8-1.6-44.8-1.8
		c-14.9-0.2-29.9,0.2-44.8,1.3c-29.8,2.2-59.3,7.8-87.8,17l-0.2-0.7c28.5-9.3,58.1-14.9,87.9-17.2c14.9-1.1,29.9-1.5,44.8-1.4
		c15,0.2,29.9,0.8,44.8,1.7c29.8,1.7,59.7,4.3,89.6,3.7c14.9-0.3,29.9-1.5,44.6-3.9c14.7-2.5,29.2-6.3,43.2-11.6
		c7-2.7,13.8-5.7,20.5-9.1c6.6-3.4,13.3-6.8,19-11.7c5.7-4.8,10.5-10.6,14.5-16.9c4-6.3,7.1-13.1,9.7-20.1
		c5.2-14,8.3-28.7,10.9-43.4c2.5-14.7,4.4-29.6,6.5-44.4s4.2-29.6,7.1-44.3c2.9-14.7,6.6-29.2,11.7-43.3c5.1-14,11.7-27.6,20.5-39.8
		C3024.2,1044,3035.1,1033.3,3047.5,1025z"/>
	<g>
		
			<linearGradient id="SVGID_18_" gradientUnits="userSpaceOnUse" x1="2929.7776" y1="-2739.7158" x2="3070.1628" y2="-2739.7158" gradientTransform="matrix(1 0 0 1 0 3802.9658)">
			<stop  offset="0" style="stop-color:#E8EFF9"/>
			<stop  offset="1" style="stop-color:#E8EFF9;stop-opacity:0.3"/>
		</linearGradient>
		<path class="st39" d="M3070,1042.5c-3-1-6.2-1.6-9.3-1.6c-3.2,0-6.3,0.5-9.3,1.6c-6,2-11.3,5.6-16.4,9.4
			c-5.1,3.8-10,7.9-15.1,11.6c-5.2,3.7-10.7,7.1-16.6,9.5c-3,1.2-6.1,2.1-9.2,2.7c-3.2,0.6-6.4,0.8-9.5,1
			c-6.4,0.3-12.8,0.2-19.1-0.1c-3.2-0.2-6.3-0.3-9.5-0.4s-6.3,0-9.5,0.6c-3.1,0.5-6.2,1.5-8.9,3.1c-2.8,1.6-5.2,3.7-7.3,6
			c2.1-2.4,4.5-4.6,7.2-6.2c2.7-1.7,5.8-2.8,8.9-3.4c3.2-0.6,6.4-0.7,9.5-0.7c3.2,0,6.4,0.1,9.5,0.2c6.3,0.2,12.7,0.4,19,0
			c3.2-0.2,6.3-0.4,9.4-1c3.1-0.6,6.1-1.5,9-2.7c5.9-2.3,11.3-5.6,16.5-9.3c5.2-3.7,10.1-7.7,15.2-11.5c5.1-3.7,10.5-7.3,16.7-9.3
			c3.1-1,6.3-1.4,9.5-1.3C3063.9,1040.8,3067,1041.4,3070,1042.5z"/>
	</g>
	
		<linearGradient id="SVGID_19_" gradientUnits="userSpaceOnUse" x1="2910.0771" y1="-2720.5583" x2="3071.5415" y2="-2720.5583" gradientTransform="matrix(1 0 0 1 0 3802.9658)">
		<stop  offset="0" style="stop-color:#E8EFF9"/>
		<stop  offset="1" style="stop-color:#E8EFF9;stop-opacity:0.3"/>
	</linearGradient>
	<path class="st40" d="M3071.5,1045c-3.8,0.4-7.6,1.3-11.2,2.7c-3.6,1.4-6.9,3.4-10,5.7c-6.3,4.5-11.6,10.1-16.9,15.7
		c-5.3,5.6-10.6,11.2-16.7,16.1c-6,4.9-13,8.8-20.6,10.7c-3.8,1-7.7,1.5-11.6,1.5c-3.9,0-7.7,0-11.6,0.1c-7.7,0.2-15.4,0.6-23.1,1.6
		c-7.6,1-15.2,2.7-22.2,5.9c-3.5,1.6-6.8,3.7-9.7,6.2s-5.4,5.5-7.5,8.7c2-3.3,4.5-6.3,7.4-8.9c2.9-2.6,6.1-4.8,9.6-6.5
		c7-3.4,14.7-5.1,22.3-6.3c7.7-1.1,15.4-1.5,23.1-1.7c3.9-0.1,7.7-0.1,11.6-0.2c3.8-0.1,7.6-0.6,11.3-1.5
		c7.4-1.9,14.2-5.7,20.2-10.5c6-4.8,11.3-10.4,16.7-15.9s10.8-11.1,17.2-15.6c3.2-2.2,6.6-4.1,10.2-5.5
		C3063.8,1046.1,3067.6,1045.3,3071.5,1045z"/>
	
		<linearGradient id="SVGID_20_" gradientUnits="userSpaceOnUse" x1="2887.0771" y1="-2693.0583" x2="3061.5415" y2="-2693.0583" gradientTransform="matrix(1 0 0 1 0 3802.9658)">
		<stop  offset="0" style="stop-color:#E8EFF9"/>
		<stop  offset="1" style="stop-color:#E8EFF9;stop-opacity:0.3"/>
	</linearGradient>
	<path class="st41" d="M3061.5,1072c-4.1,0.4-8.1,1.4-11.9,3c-3.8,1.6-7.3,3.8-10.5,6.3c-6.5,5-12.1,11.1-17.8,17
		c-5.7,6-11.5,11.9-18.3,16.6c-6.8,4.8-14.7,8.1-23,9.1c-2.1,0.2-4.1,0.4-6.2,0.4h-6.2c-4.1,0.1-8.2,0.2-12.3,0.4
		c-8.2,0.4-16.4,1.1-24.5,2.3c-8.1,1.3-16.2,3.1-23.8,6.2c-3.8,1.6-7.5,3.4-10.8,5.8c-1.7,1.2-3.2,2.5-4.7,4
		c-1.4,1.5-2.7,3.1-3.9,4.8c1.1-1.7,2.4-3.4,3.8-4.9c1.4-1.5,3-2.9,4.6-4.1c3.3-2.5,7-4.4,10.8-6.1c7.6-3.2,15.7-5.1,23.9-6.5
		c8.1-1.4,16.4-2.1,24.6-2.5c4.1-0.2,8.2-0.3,12.4-0.4c4.1-0.1,8.2,0.1,12.3-0.5c8.1-1,15.9-4.2,22.5-8.9
		c6.7-4.7,12.5-10.5,18.3-16.4c5.7-5.9,11.4-11.9,18.1-16.9c3.3-2.4,6.9-4.6,10.8-6.1C3053.3,1073.2,3057.4,1072.3,3061.5,1072z"/>
	
		<linearGradient id="SVGID_21_" gradientUnits="userSpaceOnUse" x1="2804.5" y1="-2645.0083" x2="3015.9978" y2="-2645.0083" gradientTransform="matrix(1 0 0 1 0 3802.9658)">
		<stop  offset="0" style="stop-color:#E8EFF9;stop-opacity:0"/>
		<stop  offset="1" style="stop-color:#E8EFF9"/>
	</linearGradient>
	<path class="st42" d="M3015.5,1123c-3.3,3.3-6.8,6.4-10.7,9.1s-8.1,4.8-12.5,6.5c-8.8,3.3-18.3,4.5-27.6,5.2l-14,1.1
		c-4.7,0.4-9.3,0.8-13.9,1.5c-9.2,1.5-18.2,4.1-27,7.4c-8.7,3.3-17.3,7.1-26,10.7c-8.6,3.7-17.3,7.2-26,10.6
		c-17.5,6.8-35.3,12.6-53.3,17.9c17.9-5.5,35.6-11.6,53.1-18.5c8.7-3.4,17.4-7,26-10.7c8.6-3.7,17.2-7.5,25.9-10.8
		c8.8-3.3,17.8-6,27.1-7.5s18.7-1.9,28-2.6s18.7-1.8,27.5-4.9C3000.8,1134.8,3008.8,1129.5,3015.5,1123z"/>
	
		<linearGradient id="SVGID_22_" gradientUnits="userSpaceOnUse" x1="2668.4998" y1="-2623.0583" x2="3002.5" y2="-2623.0583" gradientTransform="matrix(1 0 0 1 0 3802.9658)">
		<stop  offset="0" style="stop-color:#E8EFF9;stop-opacity:0"/>
		<stop  offset="1" style="stop-color:#E8EFF9"/>
	</linearGradient>
	<path class="st43" d="M3002.5,1156c-5.9,4-12.6,6.9-19.5,8.8s-14,2.9-21.1,3.9s-14.2,1.9-21.2,3.4c-3.5,0.8-6.9,1.7-10.4,2.7
		c-3.4,1.1-6.8,2.3-10,3.7c-6.6,2.8-12.7,6.5-19.1,9.7c-6.4,3.2-13,6.1-19.8,8.5s-13.7,4.2-20.8,5.4c-7.1,1.2-14.3,1.7-21.5,1.8
		c-7.2,0-14.3-0.5-21.5-1.2c-7.1-0.7-14.2-1.6-21.3-2.6c-14.2-2-28.3-4.2-42.5-6.2s-28.4-3.9-42.6-5.5c-14.2-1.7-28.5-3.2-42.7-4.5
		c14.3,1.2,28.5,2.5,42.8,4c14.2,1.6,28.4,3.4,42.6,5.4c14.2,1.9,28.3,4.1,42.5,6s28.4,3.6,42.7,3.6c7.1,0,14.3-0.5,21.3-1.7
		c7-1.2,14-3,20.7-5.3c6.7-2.3,13.3-5.2,19.7-8.4c6.4-3.1,12.6-6.9,19.2-9.6c3.3-1.4,6.7-2.6,10.1-3.7c3.4-1.1,6.9-1.9,10.4-2.7
		c7-1.5,14.1-2.4,21.2-3.3c7.1-0.9,14.2-1.8,21.1-3.7C2989.8,1162.8,2996.5,1159.9,3002.5,1156z"/>
	
		<linearGradient id="SVGID_23_" gradientUnits="userSpaceOnUse" x1="2671.3003" y1="-2597.4084" x2="3005.5" y2="-2597.4084" gradientTransform="matrix(1 0 0 1 0 3802.9658)">
		<stop  offset="0" style="stop-color:#E8EFF9;stop-opacity:0"/>
		<stop  offset="1" style="stop-color:#E8EFF9"/>
	</linearGradient>
	<path class="st44" d="M3005.5,1186c-5.9,4-12.2,7.2-18.9,9.7c-6.6,2.5-13.5,4.3-20.5,5.8c-6.9,1.5-13.9,2.7-20.9,4.1
		c-7,1.4-13.9,2.9-20.7,4.6c-6.9,1.8-13.6,4-20.4,5.9c-6.8,1.9-13.7,3.6-20.7,5s-14,2.4-21.1,3.1s-14.2,1-21.3,1
		c-14.2,0-28.4-1.2-42.5-2.5c-14.1-1.3-28.2-2.7-42.3-3.9c-14.1-1.2-28.3-2.2-42.4-2.9c-14.1-0.8-28.3-1.4-42.5-1.8
		c14.2,0.2,28.3,0.6,42.5,1.3c14.2,0.7,28.3,1.6,42.4,2.7c14.1,1.1,28.2,2.5,42.3,3.7c14.1,1.3,28.2,2.4,42.4,2.4
		c7.1,0,14.1-0.2,21.2-0.9c7-0.7,14-1.7,21-3c6.9-1.3,13.8-3,20.7-4.9c6.8-1.9,13.6-4.1,20.4-5.8c6.9-1.8,13.8-3.2,20.8-4.6
		c7-1.3,13.9-2.5,20.9-4c6.9-1.4,13.8-3.1,20.5-5.5C2993.2,1193.1,2999.6,1189.9,3005.5,1186z"/>
	
		<linearGradient id="SVGID_24_" gradientUnits="userSpaceOnUse" x1="2919.3999" y1="-2624.4084" x2="2919.3999" y2="-2624.4084" gradientTransform="matrix(1 0 0 1 0 3802.9658)">
		<stop  offset="0" style="stop-color:#E8EFF9;stop-opacity:0"/>
		<stop  offset="1" style="stop-color:#E8EFF9"/>
	</linearGradient>
	<path class="st45" d="M2919.4,1178.6"/>
	
		<linearGradient id="SVGID_25_" gradientUnits="userSpaceOnUse" x1="2988.9854" y1="-2682.0083" x2="3056.887" y2="-2682.0083" gradientTransform="matrix(1 0 0 1 0 3802.9658)">
		<stop  offset="0" style="stop-color:#E8EFF9;stop-opacity:0"/>
		<stop  offset="1" style="stop-color:#E8EFF9"/>
	</linearGradient>
	<path class="st46" d="M3056.5,1037c-4.8,6-9.4,12.2-13.8,18.5c-4.4,6.3-8.7,12.7-12.8,19.3c-8.1,13.1-15.6,26.6-21.8,40.7
		c-6.3,14-11.5,28.6-14.8,43.6c-1.7,7.5-2.9,15.1-3.3,22.8c-0.5,7.7-0.4,15.4,0.5,23.1c-1.1-7.6-1.3-15.4-1-23.1
		c0.4-7.7,1.5-15.4,3.1-23c3.1-15.1,8.4-29.8,14.6-43.9c6.4-14.1,13.8-27.6,22.1-40.7c4.1-6.5,8.5-12.9,13-19.1
		S3051.6,1042.9,3056.5,1037z"/>
	
		<linearGradient id="SVGID_26_" gradientUnits="userSpaceOnUse" x1="3022.1799" y1="-2729.0583" x2="3067.9309" y2="-2729.0583" gradientTransform="matrix(1 0 0 1 0 3802.9658)">
		<stop  offset="0" style="stop-color:#E8EFF9;stop-opacity:0"/>
		<stop  offset="1" style="stop-color:#E8EFF9"/>
	</linearGradient>
	<path class="st47" d="M3067.5,1041l-4.8,8.8l-4.8,8.8c-3.2,5.9-6.6,11.6-10.1,17.3c-3.6,5.7-7.3,11.2-11.4,16.5
		c-4.1,5.3-8.6,10.3-13.9,14.5c1.2-1.2,2.4-2.3,3.6-3.5c1.1-1.2,2.3-2.4,3.4-3.7c1.1-1.3,2.2-2.5,3.2-3.8c1-1.3,2.1-2.6,3.1-4
		c4-5.3,7.7-10.9,11.2-16.6c3.6-5.6,6.9-11.4,10.3-17.2C3060.6,1052.5,3063.9,1046.7,3067.5,1041z"/>
	
		<linearGradient id="SVGID_27_" gradientUnits="userSpaceOnUse" x1="2855.5999" y1="-2530.9082" x2="2998.5911" y2="-2530.9082" gradientTransform="matrix(1 0 0 1 0 3802.9658)">
		<stop  offset="0" style="stop-color:#E8EFF9;stop-opacity:0"/>
		<stop  offset="1" style="stop-color:#E8EFF9"/>
	</linearGradient>
	<path class="st48" d="M2998,1140.1c-1.9,7.4-3.8,14.7-5.3,22.2s-2.7,15-3.5,22.5c-1.7,15.1-1.7,30.4-0.7,45.6
		c0.1,1.9,0.3,3.8,0.5,5.7l0.5,5.7l1.4,11.3c1.1,7.5,2.3,15,3.4,22.6c2.2,15.1,3.8,30.3,2.6,45.6c-0.6,7.6-2,15.2-4.4,22.5
		c-2.4,7.3-5.9,14.2-10.5,20.3s-10.2,11.5-16.4,15.9c-6.2,4.5-13.1,8-20.1,10.9c-14.2,5.7-29.2,8.9-44.3,10.9
		c-7.6,0.9-15.2,1.5-22.8,1.9c-7.6,0.3-15.2,0.4-22.8,0.4c7.6,0,15.2-0.2,22.8-0.6s15.2-1.1,22.7-2.1c15.1-2,30.1-5.2,44.1-11
		c7-2.9,13.8-6.4,19.9-10.9c6.2-4.4,11.7-9.7,16.2-15.8s7.9-12.9,10.3-20.1c2.4-7.2,3.7-14.7,4.3-22.3c1.2-15.1-0.3-30.4-2.4-45.4
		c-1.1-7.5-2.3-15.1-3.3-22.6c-0.5-3.8-0.9-7.6-1.4-11.4l-0.5-5.7c-0.2-1.9-0.4-3.8-0.4-5.7c-1-15.2-0.9-30.5,0.9-45.7
		c0.9-7.6,2.1-15.1,3.7-22.5C2994,1154.8,2996,1147.5,2998,1140.1z"/>
	
		<linearGradient id="SVGID_28_" gradientUnits="userSpaceOnUse" x1="2539.2002" y1="-2206.5081" x2="2840.8101" y2="-2206.5081" gradientTransform="matrix(1 0 0 1 0 3802.9658)">
		<stop  offset="0" style="stop-color:#FFFFFF;stop-opacity:0"/>
		<stop  offset="3.680962e-02" style="stop-color:#FCFDFF;stop-opacity:1.104289e-02"/>
		<stop  offset="0.3642" style="stop-color:#E8EDFF;stop-opacity:0.1093"/>
		<stop  offset="0.6875" style="stop-color:#DBE4FF;stop-opacity:0.2063"/>
		<stop  offset="1" style="stop-color:#D7E1FF;stop-opacity:0.3"/>
	</linearGradient>
	<path class="st49" d="M2547.7,1551.5c8.4,10.4,18.5,19.3,30.3,25.3c11.8,5.9,25.1,8.7,38.6,8.8s27.2-2,40.6-5.2
		c6.7-1.6,13.4-3.5,20-5.6c1.7-0.5,3.3-1,5-1.6c1.6-0.6,3.3-1.1,4.9-1.7l4.9-1.7l5.1-1.6c6.9-2,14-3.4,21.2-3.9s14.4-0.1,21.4,1
		c14.1,2.3,27.6,7.7,39.6,15c12.1,7.3,22.9,16.5,32.5,26.9c9.5,10.3,17.8,21.8,24.1,34.3c-6.7-12.3-15.3-23.4-25.1-33.4
		c-9.8-9.9-20.8-18.6-32.9-25.4c-12.1-6.8-25.2-11.6-38.8-13.3c-6.8-0.9-13.7-1-20.4-0.3c-6.8,0.7-13.5,2.2-19.9,4.3
		c-25.9,9.8-53.2,19.6-82.2,20.3c-14.4,0.3-29.3-2.1-42.8-8.4c-6.7-3.1-13-7.1-18.8-11.6c-5.8-4.6-11-9.7-15.8-15.2L2547.7,1551.5z"
		/>
	
		<linearGradient id="SVGID_29_" gradientUnits="userSpaceOnUse" x1="2560.9895" y1="-2293.0696" x2="2832.6011" y2="-2425.4727" gradientTransform="matrix(1 0 0 1 0 3802.9658)">
		<stop  offset="0" style="stop-color:#FFFFFF;stop-opacity:0"/>
		<stop  offset="3.680962e-02" style="stop-color:#FCFDFF;stop-opacity:1.104289e-02"/>
		<stop  offset="0.3642" style="stop-color:#E8EDFF;stop-opacity:0.1093"/>
		<stop  offset="0.6875" style="stop-color:#DBE4FF;stop-opacity:0.2063"/>
		<stop  offset="1" style="stop-color:#D7E1FF;stop-opacity:0.3"/>
	</linearGradient>
	<path class="st50" d="M2550.6,1469.4c14.5,6.7,29,13.1,44,17.1c7.5,2,15.1,3.2,22.7,3.4c3.8,0.1,7.5-0.2,11.2-0.8s7.3-1.5,10.8-2.8
		c7-2.6,13.4-6.7,19-12c5.6-5.2,10.3-11.4,14.5-18c4.1-6.6,7.6-13.7,10.6-21c1.5-3.6,2.9-7.4,4.2-11.1c1.4-3.8,2.8-7.7,4.5-11.4
		c1.7-3.7,3.6-7.4,5.7-10.9c2.2-3.5,4.5-6.9,7.2-10.1c5.3-6.4,11.7-11.9,19-15.9s15.3-6.5,23.5-7.5s16.4-0.4,24.4,1.2
		c16,3.2,30.9,10.5,44,19.9s24.5,21.2,33.3,34.6c-9.2-13.2-20.9-24.5-34.1-33.5c-13.2-8.9-28.1-15.6-43.7-18.3
		c-7.8-1.3-15.8-1.6-23.5-0.5s-15.3,3.7-21.9,7.6c-6.7,3.9-12.5,9.3-17.3,15.4c-2.4,3.1-4.6,6.3-6.5,9.7s-3.6,6.9-5.2,10.5
		c-1.6,3.6-2.8,7.3-4,11.1c-1.2,3.9-2.5,7.7-4,11.5c-2.9,7.6-6.3,15.1-10.4,22.3c-4.2,7.1-9.1,13.9-15.1,19.9s-13.2,10.9-21.1,14.2
		c-4,1.6-8.1,2.8-12.3,3.6c-4.2,0.8-8.5,1.2-12.7,1.2c-8.5,0.1-16.9-1.1-25-2.9c-16.2-3.8-31.4-10-46.2-16.3L2550.6,1469.4z"/>
	
		<linearGradient id="SVGID_30_" gradientUnits="userSpaceOnUse" x1="2883.2012" y1="-2335.5078" x2="2585.4023" y2="-2319.7996" gradientTransform="matrix(1 0 0 1 0 3802.9658)">
		<stop  offset="0" style="stop-color:#FFFFFF;stop-opacity:0"/>
		<stop  offset="3.680962e-02" style="stop-color:#FCFDFF;stop-opacity:1.104289e-02"/>
		<stop  offset="0.3642" style="stop-color:#E8EDFF;stop-opacity:0.1093"/>
		<stop  offset="0.6875" style="stop-color:#DBE4FF;stop-opacity:0.2063"/>
		<stop  offset="1" style="stop-color:#D7E1FF;stop-opacity:0.3"/>
	</linearGradient>
	<path class="st51" d="M2876.5,1423.4c-1.8,2.8-3.9,5.6-6.2,8c-1.2,1.3-2.4,2.4-3.8,3.5c-1.4,1-2.8,2-4.3,2.8
		c-3,1.7-6.3,2.8-9.7,3.5c-3.4,0.7-6.8,1-10.2,1.1c-6.9,0.2-13.7-0.4-20.4-1.1c-6.8-0.7-13.5-1.7-20.2-2.7l-10-1.6
		c-3.3-0.5-6.6-1.1-9.9-1.6c-6.6-1-13.2-1.7-19.9-1.9c-3.3-0.1-6.6-0.1-9.9,0c-3.3,0.2-6.5,0.5-9.7,0.9c-6.4,1-12.6,2.9-18.2,5.8
		c-11.4,5.8-20.2,15.8-29.4,25.7c-4.6,4.9-9.4,9.9-14.4,14.6s-10.3,9.2-15.8,13.4c-11.1,8.3-23,15.4-35.4,21.4s-25.3,10.9-38.3,15.2
		l-3.3-10.5c12.7-3.9,25.3-8.3,37.3-13.8c12.1-5.5,23.6-11.9,34.3-19.6c5.3-3.9,10.5-8,15.4-12.4s9.7-9.1,14.4-13.9
		s9.4-9.7,14.6-14.4c5.2-4.6,11-8.9,17.4-12s13.4-5.1,20.4-6c3.5-0.5,7-0.7,10.5-0.8c3.5,0,6.9,0,10.4,0.3
		c13.8,0.9,27.2,3.6,40.3,6.5c6.6,1.4,13.2,2.7,19.8,3.8s13.3,2,19.9,2.2c3.3,0.1,6.7,0,9.9-0.5c3.3-0.5,6.5-1.3,9.5-2.8
		c1.5-0.7,2.9-1.6,4.3-2.5c1.3-1,2.7-2,3.9-3.2C2872.3,1428.7,2874.5,1426.1,2876.5,1423.4z"/>
	
		<linearGradient id="SVGID_31_" gradientUnits="userSpaceOnUse" x1="2459.2" y1="-2212.2583" x2="2731.0178" y2="-2212.2583" gradientTransform="matrix(1 0 0 1 0 3802.9658)">
		<stop  offset="0" style="stop-color:#FFFFFF;stop-opacity:0"/>
		<stop  offset="3.680962e-02" style="stop-color:#FCFDFF;stop-opacity:1.104289e-02"/>
		<stop  offset="0.3642" style="stop-color:#E8EDFF;stop-opacity:0.1093"/>
		<stop  offset="0.6875" style="stop-color:#DBE4FF;stop-opacity:0.2063"/>
		<stop  offset="1" style="stop-color:#D7E1FF;stop-opacity:0.3"/>
	</linearGradient>
	<path class="st52" d="M2469.9,1538.1c1,6.5,2.3,12.9,4.3,18.9s4.6,11.8,8.3,16.6c3.6,4.8,8.4,8.6,14,10.9s11.9,3.2,18.3,3.2
		c6.4,0,13-0.8,19.5-2s13-2.9,19.4-4.7c6.4-1.8,12.9-3.9,19.2-6l9.6-3.3c3.3-1.2,6.6-2.1,10-2.9c6.8-1.6,13.7-2.5,20.7-2.7
		c6.9-0.1,13.9,0.5,20.7,1.9c13.6,2.8,26.4,8.4,37.9,15.7c11.6,7.3,21.9,16.4,31.1,26.4c4.6,5,8.8,10.4,12.7,15.9
		c3.9,5.6,7.4,11.4,10.5,17.4c-3.2-6-6.9-11.6-11-17s-8.5-10.5-13.2-15.4c-9.4-9.7-19.9-18.3-31.5-25.1
		c-11.5-6.8-24.2-11.8-37.3-14.1c-6.5-1.1-13.2-1.5-19.8-1.2s-13.1,1.4-19.5,3.2c-3.2,0.9-6.3,1.9-9.4,3.1l-9.5,3.7
		c-6.4,2.4-12.8,4.7-19.3,6.8s-13.1,4-19.9,5.5c-6.8,1.5-13.7,2.6-20.8,2.9c-3.6,0.1-7.2,0-10.8-0.5s-7.3-1.3-10.8-2.7
		c-3.5-1.3-6.9-3.1-10-5.4c-3.1-2.2-5.8-4.9-8.2-7.8c-4.8-5.8-8.1-12.5-10.5-19.2c-2.5-6.7-4.1-13.6-5.4-20.5L2469.9,1538.1z"/>
	
		<linearGradient id="SVGID_32_" gradientUnits="userSpaceOnUse" x1="2971.8965" y1="-2481.0083" x2="3038.5718" y2="-2481.0083" gradientTransform="matrix(1 0 0 1 0 3802.9658)">
		<stop  offset="0" style="stop-color:#E8EFF9;stop-opacity:0"/>
		<stop  offset="1" style="stop-color:#E8EFF9"/>
	</linearGradient>
	<path class="st53" d="M3006,1210.5c1.9,5.1,3.9,10.1,5.8,15.2c1.9,5.1,3.8,10.1,5.7,15.3c3.6,10.2,6.9,20.6,9.8,31
		c5.8,20.9,10.1,42.3,11.1,64.1c0.4,10.9-0.1,21.8-2.1,32.5c-2,10.7-5.5,21.2-11.2,30.5c-5.7,9.3-13.6,17.2-22.8,22.9
		c-4.6,2.9-9.5,5.2-14.6,7.1c-5.1,1.9-10.3,3.3-15.6,4.4c5.3-1.2,10.5-2.7,15.6-4.7c5-2,9.9-4.4,14.5-7.3c9.2-5.7,17-13.6,22.5-22.9
		c5.6-9.2,9.1-19.7,11-30.3s2.3-21.5,1.9-32.3c-0.9-21.6-5.1-43-10.7-63.9C3021,1251.2,3013.6,1230.8,3006,1210.5z"/>
	
		<linearGradient id="SVGID_33_" gradientUnits="userSpaceOnUse" x1="2846.5" y1="-2575.293" x2="3022.5339" y2="-2575.293" gradientTransform="matrix(1 0 0 1 0 3802.9658)">
		<stop  offset="0" style="stop-color:#E8EFF9;stop-opacity:0"/>
		<stop  offset="1" style="stop-color:#E8EFF9"/>
	</linearGradient>
	<path class="st54" d="M3022.2,1219.2c-3.5,1.2-7.1,2.1-10.7,3c-3.6,0.9-7.2,1.7-10.8,2.4c-7.2,1.5-14.5,2.8-21.8,4
		c-14.6,2.4-29.3,4.3-44,5.7c-14.7,1.3-29.5,2.1-44.4,1.9c-7.4-0.1-14.8-0.5-22.2-1.2c-7.4-0.8-14.7-2-21.8-4
		c7.2,1.8,14.5,2.9,21.9,3.5c7.4,0.7,14.7,0.9,22.1,1c14.8,0.1,29.5-0.8,44.3-2.1c14.7-1.3,29.4-3.2,44-5.4
		c7.3-1.1,14.6-2.4,21.9-3.7c3.6-0.7,7.3-1.4,10.9-2.2C3015.1,1221.2,3018.7,1220.4,3022.2,1219.2z"/>
	
		<linearGradient id="SVGID_34_" gradientUnits="userSpaceOnUse" x1="2817.5" y1="-2548.6426" x2="3033.8625" y2="-2548.6426" gradientTransform="matrix(1 0 0 1 0 3802.9658)">
		<stop  offset="0" style="stop-color:#E8EFF9;stop-opacity:0"/>
		<stop  offset="1" style="stop-color:#E8EFF9"/>
	</linearGradient>
	<path class="st55" d="M3033.5,1249c-17.2,6.6-35.2,10.8-53.4,13.5c-18.2,2.7-36.7,3.6-55.1,3.1c-9.2-0.3-18.4-1-27.5-2.1
		s-18.2-2.5-27.2-4.5c-18-3.7-35.7-9.2-52.8-16c8.6,3.1,17.3,6.2,26.2,8.7c4.4,1.4,8.9,2.4,13.3,3.6l6.7,1.5
		c1.1,0.3,2.2,0.5,3.4,0.8l3.4,0.7c9,1.8,18.1,3.3,27.2,4.3c9.1,1.1,18.3,1.7,27.5,2c18.3,0.6,36.7-0.3,54.9-2.8
		c9.1-1.3,18.1-2.9,27.1-5C3016,1254.6,3024.9,1252.2,3033.5,1249z"/>
	
		<linearGradient id="SVGID_35_" gradientUnits="userSpaceOnUse" x1="2769.3003" y1="-2528.1743" x2="3046" y2="-2528.1743" gradientTransform="matrix(1 0 0 1 0 3802.9658)">
		<stop  offset="0" style="stop-color:#E8EFF9;stop-opacity:0"/>
		<stop  offset="1" style="stop-color:#E8EFF9"/>
	</linearGradient>
	<path class="st56" d="M3046,1267.5c-2.8,1.2-5.4,2.8-8,4.4s-5.2,3.1-7.9,4.6c-5.3,3-10.7,5.8-16.3,8.3c-11.1,5-22.8,8.8-34.7,11.4
		c-11.9,2.6-24.1,4-36.3,4.4c-12.2,0.3-24.4-0.4-36.5-2c-12.1-1.5-24.1-4.2-35.9-7.2l-8.8-2.5c-1.5-0.4-2.9-0.9-4.4-1.3l-4.4-1.4
		l-4.4-1.4l-2.2-0.7l-2.1-0.8l-8.6-3.1c-1.4-0.5-2.9-1-4.3-1.6l-4.2-1.7l-8.5-3.5c-5.6-2.4-11.1-5-16.7-7.5l-16.4-8.2l-16.1-8.7
		l16.2,8.5l16.5,8c5.6,2.5,11.1,5,16.7,7.4l8.5,3.4l4.2,1.7c1.4,0.6,2.9,1,4.3,1.6l8.6,3.1l2.1,0.8l2.2,0.7l4.4,1.4l4.4,1.4
		c1.4,0.5,2.9,0.9,4.4,1.3l8.8,2.4c11.8,3,23.7,5.6,35.8,7.1c12.1,1.6,24.2,2.4,36.4,2.1c12.2-0.3,24.3-1.6,36.2-4.2
		c11.9-2.5,23.5-6.3,34.7-11.2c5.6-2.4,11-5.2,16.4-8.1c2.7-1.5,5.3-3,7.9-4.5C3040.6,1270.3,3043.2,1268.7,3046,1267.5z"/>
	
		<linearGradient id="SVGID_36_" gradientUnits="userSpaceOnUse" x1="2578.7991" y1="-2536.3308" x2="3061" y2="-2536.3308" gradientTransform="matrix(1 0 0 1 0 3802.9658)">
		<stop  offset="0" style="stop-color:#E8EFF9;stop-opacity:0"/>
		<stop  offset="1" style="stop-color:#E8EFF9"/>
	</linearGradient>
	<path class="st57" d="M3061,1304.5c-4.7,2.7-9.6,5.1-14.6,7.4c-2.5,1.2-5,2.2-7.5,3.3c-2.5,1-5,2.1-7.6,3.1
		c-10.2,4-20.6,7.5-31.1,10.4s-21.2,5.3-32,7.1c-10.8,1.8-21.7,3-32.6,3.6c-10.9,0.6-21.9,0.4-32.8-0.3l-8.2-0.8
		c-1.4-0.1-2.7-0.2-4.1-0.4l-4.1-0.6c-2.7-0.4-5.4-0.7-8.1-1.2l-8.1-1.6c-2.7-0.5-5.3-1.2-8-1.8c-2.6-0.7-5.3-1.3-8-2l-7.9-2.4
		c-1.3-0.4-2.6-0.8-3.9-1.2l-3.9-1.4l-7.7-2.8l-7.5-3.3l-3.8-1.6c-1.3-0.5-2.5-1.2-3.7-1.8l-7.3-3.7l-1.8-0.9l-1.8-1l-3.6-2.1
		c-2.4-1.4-4.8-2.7-7.1-4.1l-6.9-4.5c-2.3-1.5-4.6-2.9-6.8-4.6l-6.6-4.9c-2.2-1.6-4.4-3.3-6.5-4.9l-13-10l-6.5-5l-6.6-4.8l-13.3-9.6
		c-4.5-3.1-9-6.1-13.5-9.2c-2.3-1.5-4.5-3.1-6.8-4.6l-6.9-4.3c-18.5-11.6-37.7-22.2-58.2-29.9c-10.2-3.8-20.8-6.7-31.6-8.6
		c-10.7-2-21.7-2.9-32.2-5.9c10.5,3,21.5,3.8,32.3,5.7c10.8,1.8,21.4,4.7,31.7,8.4c20.5,7.6,39.8,18.2,58.4,29.8l7,4.3
		c2.3,1.5,4.5,3,6.8,4.6c4.5,3.1,9.1,6.1,13.6,9.2l13.3,9.6l6.6,4.8l6.5,5l13,10c2.2,1.7,4.3,3.3,6.5,4.9l6.6,4.9
		c2.1,1.7,4.5,3.1,6.8,4.6l6.8,4.5c2.3,1.4,4.7,2.7,7.1,4.1l3.5,2l1.8,1l1.8,0.9l7.3,3.7c1.2,0.6,2.4,1.3,3.7,1.8l3.8,1.6l7.5,3.3
		l7.7,2.8l3.8,1.4c1.3,0.5,2.6,0.8,3.9,1.2l7.8,2.4c2.6,0.8,5.3,1.4,7.9,2c2.6,0.7,5.3,1.4,8,1.8l8,1.6c2.7,0.5,5.4,0.8,8.1,1.2
		l4,0.6c1.4,0.2,2.7,0.3,4.1,0.4l8.1,0.8c10.9,0.7,21.8,0.9,32.7,0.3s21.8-1.8,32.5-3.5c10.8-1.8,21.4-4.2,32-7
		c10.5-2.9,20.9-6.3,31.1-10.2c2.6-1,5.1-2,7.6-3c2.5-1.1,5-2.1,7.5-3.3C3051.3,1309.6,3056.2,1307.2,3061,1304.5z"/>
	
		<linearGradient id="SVGID_37_" gradientUnits="userSpaceOnUse" x1="2861.3992" y1="-2441.0156" x2="3063.9336" y2="-2441.0156" gradientTransform="matrix(1 0 0 1 0 3802.9658)">
		<stop  offset="0" style="stop-color:#E8EFF9;stop-opacity:0"/>
		<stop  offset="1" style="stop-color:#E8EFF9"/>
	</linearGradient>
	<path class="st58" d="M3063.5,1340c-2.9,3.4-6.2,6.3-9.8,9.1c-3.5,2.7-7.3,5.1-11.1,7.4c-7.7,4.5-15.8,8.3-24.1,11.5
		c-16.6,6.5-34,10.8-51.6,13.4c-17.6,2.5-35.5,3.3-53.3,1.9l-3.3-0.2c-1.1-0.1-2.2-0.2-3.3-0.4c-2.2-0.3-4.4-0.4-6.6-0.8l-6.6-1
		l-6.6-1.2c-8.7-1.8-17.3-4.1-25.8-6.8c17,5.2,34.6,8.5,52.3,9.6c17.7,1.2,35.5,0.4,53.1-2.2c17.6-2.5,34.9-6.9,51.5-13.2
		c8.3-3.2,16.4-6.8,24.1-11.2c3.8-2.2,7.6-4.5,11.2-7.2C3057.1,1346.2,3060.6,1343.3,3063.5,1340z"/>
	<g>
		
			<linearGradient id="SVGID_38_" gradientUnits="userSpaceOnUse" x1="2431.9919" y1="-2269.8027" x2="2482.5562" y2="-2269.8027" gradientTransform="matrix(1 0 0 1 0 3802.9658)">
			<stop  offset="0" style="stop-color:#FFC671"/>
			<stop  offset="0.1247" style="stop-color:#FFC875"/>
			<stop  offset="0.2538" style="stop-color:#FFCD82"/>
			<stop  offset="0.385" style="stop-color:#FFD596"/>
			<stop  offset="0.5176" style="stop-color:#FFE1B3"/>
			<stop  offset="0.65" style="stop-color:#FFEFD8"/>
			<stop  offset="0.7654" style="stop-color:#FFFFFF"/>
		</linearGradient>
		<path class="st59" d="M2465.3,1498.8c-1.8,3.2-4.6,10.9-12.4,17.7c-7.8,6.8-24.8,31.4-20.1,50.8c0,0,2.5,0.7,4.6,0
			s3.9,0.7,6.7-1.1c2.8-1.8,4.6,1.8,6.4-0.7s3.5,1.8,5.6-1.1s3.5-1.8,3.9-3.9s5.6-1.1,6-3.2s2.1-0.7,2.5-2.8s3.5-0.4,4.2-3.5
			s-0.7-4.6,2.1-4.9s4.6-0.7,5.6-3.5s-1.1-6,0.4-8.1s-1.8-3.9-1.1-5.6s2.8-3.2,2.8-6.4S2465.3,1498.8,2465.3,1498.8z"/>
		
			<linearGradient id="SVGID_39_" gradientUnits="userSpaceOnUse" x1="2514" y1="-2318.9377" x2="2573.7053" y2="-2318.9377" gradientTransform="matrix(1 0 0 1 0 3802.9658)">
			<stop  offset="0" style="stop-color:#FFC671"/>
			<stop  offset="0.1247" style="stop-color:#FFC875"/>
			<stop  offset="0.2538" style="stop-color:#FFCD82"/>
			<stop  offset="0.385" style="stop-color:#FFD596"/>
			<stop  offset="0.5176" style="stop-color:#FFE1B3"/>
			<stop  offset="0.65" style="stop-color:#FFEFD8"/>
			<stop  offset="0.7654" style="stop-color:#FFFFFF"/>
		</linearGradient>
		<path class="st60" d="M2514,1475.2c5.3-2.1,39.5-12.1,58.4,2.1c3.8,2.8-1.6,8.2-4.7,7.8s-1.4,1.8-3.5,3.5s-3.5,1.1-4.9,1.1
			s-2.8,0.7-4.6,3.2s-2.8,1.4-4.9,1.4s-5.3,6.7-9.9,2.8S2514,1475.2,2514,1475.2z"/>
		
			<linearGradient id="SVGID_40_" gradientUnits="userSpaceOnUse" x1="2524" y1="-2318.1584" x2="2556.8" y2="-2318.1584" gradientTransform="matrix(1 0 0 1 0 3802.9658)">
			<stop  offset="0.2346" style="stop-color:#FFFFFF"/>
			<stop  offset="0.35" style="stop-color:#FFEFD8"/>
			<stop  offset="0.4824" style="stop-color:#FFE1B3"/>
			<stop  offset="0.615" style="stop-color:#FFD596"/>
			<stop  offset="0.7462" style="stop-color:#FFCD82"/>
			<stop  offset="0.8753" style="stop-color:#FFC875"/>
			<stop  offset="1" style="stop-color:#FFC671"/>
		</linearGradient>
		<path class="st61" d="M2556.8,1488.3c-9.1-3.9-20.8-6.6-32.8-6.9"/>
		
			<linearGradient id="SVGID_41_" gradientUnits="userSpaceOnUse" x1="2524.4001" y1="-2314.5085" x2="2548.3" y2="-2314.5085" gradientTransform="matrix(1 0 0 1 0 3802.9658)">
			<stop  offset="0.2346" style="stop-color:#FFFFFF"/>
			<stop  offset="0.35" style="stop-color:#FFEFD8"/>
			<stop  offset="0.4824" style="stop-color:#FFE1B3"/>
			<stop  offset="0.615" style="stop-color:#FFD596"/>
			<stop  offset="0.7462" style="stop-color:#FFCD82"/>
			<stop  offset="0.8753" style="stop-color:#FFC875"/>
			<stop  offset="1" style="stop-color:#FFC671"/>
		</linearGradient>
		<path class="st62" d="M2548.3,1492.9c-5.8-3.2-15.3-8.5-23.9-8.8"/>
		
			<linearGradient id="SVGID_42_" gradientUnits="userSpaceOnUse" x1="2445.2756" y1="-2299.9917" x2="2832.8997" y2="-2299.9917" gradientTransform="matrix(1 0 0 1 0 3802.9658)">
			<stop  offset="0" style="stop-color:#D75825"/>
			<stop  offset="0.2004" style="stop-color:#E1815A"/>
			<stop  offset="0.6576" style="stop-color:#F9E6DF"/>
			<stop  offset="0.7654" style="stop-color:#FFFFFF"/>
		</linearGradient>
		<path class="st63" d="M2465.1,1435.5c-3.6-2.7-19.1-6-19.8,15.5c-0.7,21.5,13.8,46.6,24,59s34.2,50.5,120,44.1
			c35.5-2.6,38.4-39.9,82.4-22.8c41.6,16.1,33.2-1.4,55.9,9.6c27.6,13.4,30.6,2.2,41.9,7.5c11.3,5.3,33.4-3.9,59.4,24.1
			c-5.8-27.3-25.7-33.6-27.8-48.4s-33.3-22.8-39-23.5c25.1,7.8,57.8,7.2,70.8-5.1c-46.8,2.6-80.6-46.8-147.5-4.5
			c-23,14.5-41.6,35.8-76.2,32.6c-34.6-3.2-72.4-30-79.8-37.1s-42-36.7-47.3-39.9C2476.9,1443.4,2469.5,1438.8,2465.1,1435.5z"/>
		
			<linearGradient id="SVGID_43_" gradientUnits="userSpaceOnUse" x1="2508.7002" y1="-2297.3042" x2="2651.6106" y2="-2297.3042" gradientTransform="matrix(1 0 0 1 0 3802.9658)">
			<stop  offset="0.2346" style="stop-color:#FFFFFF"/>
			<stop  offset="0.2622" style="stop-color:#FCF4F0"/>
			<stop  offset="0.369" style="stop-color:#F2CBBB"/>
			<stop  offset="0.4772" style="stop-color:#EAA88D"/>
			<stop  offset="0.5846" style="stop-color:#E38B67"/>
			<stop  offset="0.6911" style="stop-color:#DE754A"/>
			<stop  offset="0.7964" style="stop-color:#DA6536"/>
			<stop  offset="0.9" style="stop-color:#D85B29"/>
			<stop  offset="1" style="stop-color:#D75825"/>
		</linearGradient>
		<path class="st64" d="M2534.8,1506.6c8.8,7.4,22.9,16.6,35.3,15.9c4.2-0.2,6.4-2.8,9.2-0.7s11.6,3.2,12,0s4.2,0,10.4,0.7
			s11.1-1.1,11.8-2.8c0.7-1.7,4.9-2.8,8.5-1.8s3.9,0.7,4.6-1.1c0.7-1.8,4.6-7.1,9.2-5.3c4.6,1.8,15.4-4,15.8-7.5
			c0.6-5.1-24.6-5.9-44.4-2c-13.5,2.7-21.5,12.4-42,14.5s-51.2-24.4-56.5-28.9"/>
		
			<linearGradient id="SVGID_44_" gradientUnits="userSpaceOnUse" x1="2525.3" y1="-2236.6506" x2="2579.0715" y2="-2236.6506" gradientTransform="matrix(1 0 0 1 0 3802.9658)">
			<stop  offset="0" style="stop-color:#FFC671"/>
			<stop  offset="0.1247" style="stop-color:#FFC875"/>
			<stop  offset="0.2538" style="stop-color:#FFCD82"/>
			<stop  offset="0.385" style="stop-color:#FFD596"/>
			<stop  offset="0.5176" style="stop-color:#FFE1B3"/>
			<stop  offset="0.65" style="stop-color:#FFEFD8"/>
			<stop  offset="0.7654" style="stop-color:#FFFFFF"/>
		</linearGradient>
		<path class="st65" d="M2525.3,1544.4c3.9,8.5,22.9,31.8,44.1,41c21.2,9.2,1.1-6,0-9.5s4.2-6,0.7-8.5s-7.8-7.1-6.7-9.9
			s2.1-11.3,0-11.3S2525.3,1544.4,2525.3,1544.4z"/>
		<g>
			
				<linearGradient id="SVGID_45_" gradientUnits="userSpaceOnUse" x1="2465.6235" y1="-2311.1084" x2="2471.3506" y2="-2311.1084" gradientTransform="matrix(1 0 0 1 0 3802.9658)">
				<stop  offset="0" style="stop-color:#FFC671"/>
				<stop  offset="0.1247" style="stop-color:#FFC875"/>
				<stop  offset="0.2538" style="stop-color:#FFCD82"/>
				<stop  offset="0.385" style="stop-color:#FFD596"/>
				<stop  offset="0.5176" style="stop-color:#FFE1B3"/>
				<stop  offset="0.65" style="stop-color:#FFEFD8"/>
				<stop  offset="0.7654" style="stop-color:#FFFFFF"/>
			</linearGradient>
			<path class="st66" d="M2469.5,1480.8c0.8,1.8,1.3,3.8,1.6,5.7c0.3,2,0.3,4,0.1,6s-0.7,4-1.6,5.8c-0.8,1.8-2.1,3.5-3.6,4.7
				c2.6-3,3.8-6.8,4.2-10.6c0.2-1.9,0.2-3.9,0.1-5.8C2470.2,1484.7,2469.9,1482.8,2469.5,1480.8z"/>
		</g>
		<g>
			
				<linearGradient id="SVGID_46_" gradientUnits="userSpaceOnUse" x1="2469.7871" y1="-2303.9583" x2="2473.7534" y2="-2303.9583" gradientTransform="matrix(1 0 0 1 0 3802.9658)">
				<stop  offset="0" style="stop-color:#FFC671"/>
				<stop  offset="0.1247" style="stop-color:#FFC875"/>
				<stop  offset="0.2538" style="stop-color:#FFCD82"/>
				<stop  offset="0.385" style="stop-color:#FFD596"/>
				<stop  offset="0.5176" style="stop-color:#FFE1B3"/>
				<stop  offset="0.65" style="stop-color:#FFEFD8"/>
				<stop  offset="0.7654" style="stop-color:#FFFFFF"/>
			</linearGradient>
			<path class="st67" d="M2473,1489.7c0.2,1.6,0.5,3.2,0.6,4.8s0.1,3.2,0,4.9c-0.2,1.6-0.5,3.3-1,4.8s-1.4,3-2.4,4.2
				c1.4-2.9,2.2-6,2.4-9.1c0.2-1.6,0.2-3.2,0.2-4.8S2472.9,1491.3,2473,1489.7z"/>
		</g>
		<g>
			
				<linearGradient id="SVGID_47_" gradientUnits="userSpaceOnUse" x1="2473.718" y1="-2298.5083" x2="2478.1694" y2="-2298.5083" gradientTransform="matrix(1 0 0 1 0 3802.9658)">
				<stop  offset="0" style="stop-color:#FFC671"/>
				<stop  offset="0.1247" style="stop-color:#FFC875"/>
				<stop  offset="0.2538" style="stop-color:#FFCD82"/>
				<stop  offset="0.385" style="stop-color:#FFD596"/>
				<stop  offset="0.5176" style="stop-color:#FFE1B3"/>
				<stop  offset="0.65" style="stop-color:#FFEFD8"/>
				<stop  offset="0.7654" style="stop-color:#FFFFFF"/>
			</linearGradient>
			<path class="st68" d="M2476.9,1496c0.6,1.4,1,2.9,1.1,4.4c0.2,1.5,0.1,3-0.1,4.5c-0.2,1.5-0.6,3-1.2,4.4
				c-0.6,1.4-1.5,2.7-2.6,3.7c0.9-1.2,1.5-2.6,1.9-3.9c0.4-1.4,0.8-2.8,0.9-4.2c0.2-1.4,0.3-2.9,0.3-4.4
				C2477.2,1499,2477.1,1497.5,2476.9,1496z"/>
		</g>
		<path class="st30" d="M2451.1,1467.7c-3.8,2,1,10.3,3.8,8.2C2459.3,1472.7,2454.2,1466.1,2451.1,1467.7z"/>
		
			<linearGradient id="SVGID_48_" gradientUnits="userSpaceOnUse" x1="2451.085" y1="-2331.1304" x2="2455.2512" y2="-2331.1304" gradientTransform="matrix(1 0 0 1 0 3802.9658)">
			<stop  offset="0.2346" style="stop-color:#FFFFFF"/>
			<stop  offset="0.2622" style="stop-color:#FCF4F0"/>
			<stop  offset="0.369" style="stop-color:#F2CBBB"/>
			<stop  offset="0.4772" style="stop-color:#EAA88D"/>
			<stop  offset="0.5846" style="stop-color:#E38B67"/>
			<stop  offset="0.6911" style="stop-color:#DE754A"/>
			<stop  offset="0.7964" style="stop-color:#DA6536"/>
			<stop  offset="0.9" style="stop-color:#D85B29"/>
			<stop  offset="1" style="stop-color:#D75825"/>
		</linearGradient>
		<path class="st69" d="M2451.9,1469.4c-2.3,1.2,0.6,6.2,2.3,4.9C2456.8,1472.4,2453.8,1468.4,2451.9,1469.4z"/>
		
			<linearGradient id="SVGID_49_" gradientUnits="userSpaceOnUse" x1="2437.1404" y1="-2262.0583" x2="2454.7561" y2="-2262.0583" gradientTransform="matrix(1 0 0 1 0 3802.9658)">
			<stop  offset="0" style="stop-color:#FFC671"/>
			<stop  offset="0.1247" style="stop-color:#FFC875"/>
			<stop  offset="0.2538" style="stop-color:#FFCD82"/>
			<stop  offset="0.385" style="stop-color:#FFD596"/>
			<stop  offset="0.5176" style="stop-color:#FFE1B3"/>
			<stop  offset="0.65" style="stop-color:#FFEFD8"/>
			<stop  offset="0.7654" style="stop-color:#FFFFFF"/>
		</linearGradient>
		<path class="st70" d="M2437.2,1565c-0.6-5.2,3.2-35.7,17.5-48.1"/>
		
			<linearGradient id="SVGID_50_" gradientUnits="userSpaceOnUse" x1="2445" y1="-2259.7585" x2="2452.1492" y2="-2259.7585" gradientTransform="matrix(1 0 0 1 0 3802.9658)">
			<stop  offset="0" style="stop-color:#FFC671"/>
			<stop  offset="0.1247" style="stop-color:#FFC875"/>
			<stop  offset="0.2538" style="stop-color:#FFCD82"/>
			<stop  offset="0.385" style="stop-color:#FFD596"/>
			<stop  offset="0.5176" style="stop-color:#FFE1B3"/>
			<stop  offset="0.65" style="stop-color:#FFEFD8"/>
			<stop  offset="0.7654" style="stop-color:#FFFFFF"/>
		</linearGradient>
		<path class="st71" d="M2445,1562.4c0.6-6.5,0.6-24,7.1-38.3"/>
		
			<linearGradient id="SVGID_51_" gradientUnits="userSpaceOnUse" x1="2452.6133" y1="-2262.7085" x2="2457.3428" y2="-2262.7085" gradientTransform="matrix(1 0 0 1 0 3802.9658)">
			<stop  offset="0" style="stop-color:#FFC671"/>
			<stop  offset="0.1247" style="stop-color:#FFC875"/>
			<stop  offset="0.2538" style="stop-color:#FFCD82"/>
			<stop  offset="0.385" style="stop-color:#FFD596"/>
			<stop  offset="0.5176" style="stop-color:#FFE1B3"/>
			<stop  offset="0.65" style="stop-color:#FFEFD8"/>
			<stop  offset="0.7654" style="stop-color:#FFFFFF"/>
		</linearGradient>
		<path class="st72" d="M2454.7,1562.4c-1.3-11-5.2-29.9,2.6-44.2"/>
		
			<linearGradient id="SVGID_52_" gradientUnits="userSpaceOnUse" x1="2456.9326" y1="-2270.8083" x2="2464.4912" y2="-2270.8083" gradientTransform="matrix(1 0 0 1 0 3802.9658)">
			<stop  offset="0" style="stop-color:#FFC671"/>
			<stop  offset="0.1247" style="stop-color:#FFC875"/>
			<stop  offset="0.2538" style="stop-color:#FFCD82"/>
			<stop  offset="0.385" style="stop-color:#FFD596"/>
			<stop  offset="0.5176" style="stop-color:#FFE1B3"/>
			<stop  offset="0.65" style="stop-color:#FFEFD8"/>
			<stop  offset="0.7654" style="stop-color:#FFFFFF"/>
		</linearGradient>
		<path class="st73" d="M2464.5,1555.9c-3.2-7.8-13.6-28.6-2.6-47.4"/>
		
			<linearGradient id="SVGID_53_" gradientUnits="userSpaceOnUse" x1="2464.4285" y1="-2274.0583" x2="2470.9905" y2="-2274.0583" gradientTransform="matrix(1 0 0 1 0 3802.9658)">
			<stop  offset="0" style="stop-color:#FFC671"/>
			<stop  offset="0.1247" style="stop-color:#FFC875"/>
			<stop  offset="0.2538" style="stop-color:#FFCD82"/>
			<stop  offset="0.385" style="stop-color:#FFD596"/>
			<stop  offset="0.5176" style="stop-color:#FFE1B3"/>
			<stop  offset="0.65" style="stop-color:#FFEFD8"/>
			<stop  offset="0.7654" style="stop-color:#FFFFFF"/>
		</linearGradient>
		<path class="st74" d="M2471,1548.1c-2.6-12.3-7.1-17.5-6.5-38.3"/>
		
			<linearGradient id="SVGID_54_" gradientUnits="userSpaceOnUse" x1="2467.741" y1="-2278.5583" x2="2478.7898" y2="-2278.5583" gradientTransform="matrix(1 0 0 1 0 3802.9658)">
			<stop  offset="0" style="stop-color:#FFC671"/>
			<stop  offset="0.1247" style="stop-color:#FFC875"/>
			<stop  offset="0.2538" style="stop-color:#FFCD82"/>
			<stop  offset="0.385" style="stop-color:#FFD596"/>
			<stop  offset="0.5176" style="stop-color:#FFE1B3"/>
			<stop  offset="0.65" style="stop-color:#FFEFD8"/>
			<stop  offset="0.7654" style="stop-color:#FFFFFF"/>
		</linearGradient>
		<path class="st75" d="M2478.8,1537.1c-4.5-6.5-8.4-12.3-11-25.3"/>
		
			<linearGradient id="SVGID_55_" gradientUnits="userSpaceOnUse" x1="2518.6001" y1="-2325.7786" x2="2568.5" y2="-2325.7786" gradientTransform="matrix(1 0 0 1 0 3802.9658)">
			<stop  offset="0.2346" style="stop-color:#FFFFFF"/>
			<stop  offset="0.35" style="stop-color:#FFEFD8"/>
			<stop  offset="0.4824" style="stop-color:#FFE1B3"/>
			<stop  offset="0.615" style="stop-color:#FFD596"/>
			<stop  offset="0.7462" style="stop-color:#FFCD82"/>
			<stop  offset="0.8753" style="stop-color:#FFC875"/>
			<stop  offset="1" style="stop-color:#FFC671"/>
		</linearGradient>
		<path class="st76" d="M2568.5,1480.5c-7.1-3.9-38-10.2-49.9-3.8"/>
		
			<linearGradient id="SVGID_56_" gradientUnits="userSpaceOnUse" x1="2521" y1="-2322.2615" x2="2564.5544" y2="-2322.2615" gradientTransform="matrix(1 0 0 1 0 3802.9658)">
			<stop  offset="0.2346" style="stop-color:#FFFFFF"/>
			<stop  offset="0.35" style="stop-color:#FFEFD8"/>
			<stop  offset="0.4824" style="stop-color:#FFE1B3"/>
			<stop  offset="0.615" style="stop-color:#FFD596"/>
			<stop  offset="0.7462" style="stop-color:#FFCD82"/>
			<stop  offset="0.8753" style="stop-color:#FFC875"/>
			<stop  offset="1" style="stop-color:#FFC671"/>
		</linearGradient>
		<path class="st77" d="M2564.6,1483.8c-5.8-3.2-30.6-8.5-43.6-4.9"/>
		
			<linearGradient id="SVGID_57_" gradientUnits="userSpaceOnUse" x1="2600.3" y1="-2296.2686" x2="2643.2" y2="-2296.2686" gradientTransform="matrix(1 0 0 1 0 3802.9658)">
			<stop  offset="0.2346" style="stop-color:#FFFFFF"/>
			<stop  offset="0.2622" style="stop-color:#FCF4F0"/>
			<stop  offset="0.369" style="stop-color:#F2CBBB"/>
			<stop  offset="0.4772" style="stop-color:#EAA88D"/>
			<stop  offset="0.5846" style="stop-color:#E38B67"/>
			<stop  offset="0.6911" style="stop-color:#DE754A"/>
			<stop  offset="0.7964" style="stop-color:#DA6536"/>
			<stop  offset="0.9" style="stop-color:#D85B29"/>
			<stop  offset="1" style="stop-color:#D75825"/>
		</linearGradient>
		<path class="st78" d="M2643.2,1509.8c-6.5-2.6-16.2-9.7-42.9-3.9"/>
		
			<linearGradient id="SVGID_58_" gradientUnits="userSpaceOnUse" x1="2589.2998" y1="-2289.0227" x2="2624.3999" y2="-2289.0227" gradientTransform="matrix(1 0 0 1 0 3802.9658)">
			<stop  offset="0.2346" style="stop-color:#FFFFFF"/>
			<stop  offset="0.2622" style="stop-color:#FCF4F0"/>
			<stop  offset="0.369" style="stop-color:#F2CBBB"/>
			<stop  offset="0.4772" style="stop-color:#EAA88D"/>
			<stop  offset="0.5846" style="stop-color:#E38B67"/>
			<stop  offset="0.6911" style="stop-color:#DE754A"/>
			<stop  offset="0.7964" style="stop-color:#DA6536"/>
			<stop  offset="0.9" style="stop-color:#D85B29"/>
			<stop  offset="1" style="stop-color:#D75825"/>
		</linearGradient>
		<path class="st79" d="M2624.4,1516.9c-5.8-4.5-17.5-7.1-35.1-5.2"/>
		
			<linearGradient id="SVGID_59_" gradientUnits="userSpaceOnUse" x1="2595.1001" y1="-2293.3416" x2="2627.6001" y2="-2293.3416" gradientTransform="matrix(1 0 0 1 0 3802.9658)">
			<stop  offset="0.2346" style="stop-color:#FFFFFF"/>
			<stop  offset="0.2622" style="stop-color:#FCF4F0"/>
			<stop  offset="0.369" style="stop-color:#F2CBBB"/>
			<stop  offset="0.4772" style="stop-color:#EAA88D"/>
			<stop  offset="0.5846" style="stop-color:#E38B67"/>
			<stop  offset="0.6911" style="stop-color:#DE754A"/>
			<stop  offset="0.7964" style="stop-color:#DA6536"/>
			<stop  offset="0.9" style="stop-color:#D85B29"/>
			<stop  offset="1" style="stop-color:#D75825"/>
		</linearGradient>
		<path class="st80" d="M2627.6,1511.7c-5.8-1.9-22.7-5.8-32.5-3.2"/>
		
			<linearGradient id="SVGID_60_" gradientUnits="userSpaceOnUse" x1="2519" y1="-2328.6589" x2="2571" y2="-2328.6589" gradientTransform="matrix(1 0 0 1 0 3802.9658)">
			<stop  offset="0.2346" style="stop-color:#FFFFFF"/>
			<stop  offset="0.35" style="stop-color:#FFEFD8"/>
			<stop  offset="0.4824" style="stop-color:#FFE1B3"/>
			<stop  offset="0.615" style="stop-color:#FFD596"/>
			<stop  offset="0.7462" style="stop-color:#FFCD82"/>
			<stop  offset="0.8753" style="stop-color:#FFC875"/>
			<stop  offset="1" style="stop-color:#FFC671"/>
		</linearGradient>
		<path class="st81" d="M2571,1476.5c-10-2-33-8-52-1"/>
		
			<linearGradient id="SVGID_61_" gradientUnits="userSpaceOnUse" x1="2582.7998" y1="-2286.2061" x2="2609.4468" y2="-2286.2061" gradientTransform="matrix(1 0 0 1 0 3802.9658)">
			<stop  offset="0.2346" style="stop-color:#FFFFFF"/>
			<stop  offset="0.2622" style="stop-color:#FCF4F0"/>
			<stop  offset="0.369" style="stop-color:#F2CBBB"/>
			<stop  offset="0.4772" style="stop-color:#EAA88D"/>
			<stop  offset="0.5846" style="stop-color:#E38B67"/>
			<stop  offset="0.6911" style="stop-color:#DE754A"/>
			<stop  offset="0.7964" style="stop-color:#DA6536"/>
			<stop  offset="0.9" style="stop-color:#D85B29"/>
			<stop  offset="1" style="stop-color:#D75825"/>
		</linearGradient>
		<path class="st82" d="M2609.4,1518.9c-3.9-1.9-11.7-5.2-26.6-3.9"/>
		
			<linearGradient id="SVGID_62_" gradientUnits="userSpaceOnUse" x1="2560.7002" y1="-2283.1084" x2="2588.6472" y2="-2283.1084" gradientTransform="matrix(1 0 0 1 0 3802.9658)">
			<stop  offset="0.2346" style="stop-color:#FFFFFF"/>
			<stop  offset="0.2622" style="stop-color:#FCF4F0"/>
			<stop  offset="0.369" style="stop-color:#F2CBBB"/>
			<stop  offset="0.4772" style="stop-color:#EAA88D"/>
			<stop  offset="0.5846" style="stop-color:#E38B67"/>
			<stop  offset="0.6911" style="stop-color:#DE754A"/>
			<stop  offset="0.7964" style="stop-color:#DA6536"/>
			<stop  offset="0.9" style="stop-color:#D85B29"/>
			<stop  offset="1" style="stop-color:#D75825"/>
		</linearGradient>
		<path class="st83" d="M2588.6,1521.5c-6.5-3.2-16.9,0-27.9-3.2"/>
		
			<linearGradient id="SVGID_63_" gradientUnits="userSpaceOnUse" x1="2574.3291" y1="-2284.1956" x2="2602.9292" y2="-2284.1956" gradientTransform="matrix(1 0 0 1 0 3802.9658)">
			<stop  offset="0.2346" style="stop-color:#FFFFFF"/>
			<stop  offset="0.2622" style="stop-color:#FCF4F0"/>
			<stop  offset="0.369" style="stop-color:#F2CBBB"/>
			<stop  offset="0.4772" style="stop-color:#EAA88D"/>
			<stop  offset="0.5846" style="stop-color:#E38B67"/>
			<stop  offset="0.6911" style="stop-color:#DE754A"/>
			<stop  offset="0.7964" style="stop-color:#DA6536"/>
			<stop  offset="0.9" style="stop-color:#D85B29"/>
			<stop  offset="1" style="stop-color:#D75825"/>
		</linearGradient>
		<path class="st84" d="M2602.9,1520.8c-3.2-1.3-23.4-4.5-28.6-3.9"/>
		
			<linearGradient id="SVGID_64_" gradientUnits="userSpaceOnUse" x1="2484.6392" y1="-2271.4585" x2="2518.4392" y2="-2271.4585" gradientTransform="matrix(1 0 0 1 0 3802.9658)">
			<stop  offset="0.2346" style="stop-color:#FFFFFF"/>
			<stop  offset="0.2622" style="stop-color:#FCF4F0"/>
			<stop  offset="0.369" style="stop-color:#F2CBBB"/>
			<stop  offset="0.4772" style="stop-color:#EAA88D"/>
			<stop  offset="0.5846" style="stop-color:#E38B67"/>
			<stop  offset="0.6911" style="stop-color:#DE754A"/>
			<stop  offset="0.7964" style="stop-color:#DA6536"/>
			<stop  offset="0.9" style="stop-color:#D85B29"/>
			<stop  offset="1" style="stop-color:#D75825"/>
		</linearGradient>
		<path class="st85" d="M2484.6,1518.9c4.5,5.2,18.2,17.5,33.8,25.3"/>
		
			<linearGradient id="SVGID_65_" gradientUnits="userSpaceOnUse" x1="2476.2" y1="-2353.0083" x2="2490.5" y2="-2353.0083" gradientTransform="matrix(1 0 0 1 0 3802.9658)">
			<stop  offset="0.2346" style="stop-color:#FFFFFF"/>
			<stop  offset="0.2622" style="stop-color:#FCF4F0"/>
			<stop  offset="0.369" style="stop-color:#F2CBBB"/>
			<stop  offset="0.4772" style="stop-color:#EAA88D"/>
			<stop  offset="0.5846" style="stop-color:#E38B67"/>
			<stop  offset="0.6911" style="stop-color:#DE754A"/>
			<stop  offset="0.7964" style="stop-color:#DA6536"/>
			<stop  offset="0.9" style="stop-color:#D85B29"/>
			<stop  offset="1" style="stop-color:#D75825"/>
		</linearGradient>
		<path class="st86" d="M2476.2,1444.8c5.8,3.9,9.7,3.9,14.3,10.4"/>
		
			<linearGradient id="SVGID_66_" gradientUnits="userSpaceOnUse" x1="2447.51" y1="-2353.7083" x2="2450.8428" y2="-2353.7083" gradientTransform="matrix(1 0 0 1 0 3802.9658)">
			<stop  offset="0.2346" style="stop-color:#FFFFFF"/>
			<stop  offset="0.2622" style="stop-color:#FCF4F0"/>
			<stop  offset="0.369" style="stop-color:#F2CBBB"/>
			<stop  offset="0.4772" style="stop-color:#EAA88D"/>
			<stop  offset="0.5846" style="stop-color:#E38B67"/>
			<stop  offset="0.6911" style="stop-color:#DE754A"/>
			<stop  offset="0.7964" style="stop-color:#DA6536"/>
			<stop  offset="0.9" style="stop-color:#D85B29"/>
			<stop  offset="1" style="stop-color:#D75825"/>
		</linearGradient>
		<path class="st87" d="M2450.8,1438.9c-3.2,1.9-4.5,8.4-1.9,20.8"/>
	</g>
</g>
</svg>
