<?xml version="1.0" encoding="utf-8"?>
<!-- Generator: Adobe Illustrator 24.0.2, SVG Export Plug-In . SVG Version: 6.00 Build 0)  -->
<svg version="1.1" id="Layer_1" xmlns="http://www.w3.org/2000/svg" xmlns:xlink="http://www.w3.org/1999/xlink" x="0px" y="0px"
	 viewBox="0 0 156 168" style="enable-background:new 0 0 156 168;" xml:space="preserve">
<style type="text/css">
	.st0{opacity:0.5;fill:url(#SVGID_1_);}
	.st1{fill:url(#SVGID_2_);}
	.st2{fill:url(#SVGID_3_);}
	.st3{fill:url(#SVGID_4_);}
	.st4{fill:url(#SVGID_5_);}
	.st5{fill:#462211;}
	.st6{fill:url(#SVGID_6_);}
	.st7{fill:#965A2D;}
	.st8{fill:#FFFFFF;}
	.st9{fill:#602F0F;}
	.st10{opacity:0.5;fill:url(#SVGID_7_);}
	.st11{opacity:0.2;}
</style>
<radialGradient id="SVGID_1_" cx="75" cy="100.6538" r="68.7965" gradientTransform="matrix(1 -1.054079e-02 5.279406e-04 0.1505 -5.175244e-02 136.6445)" gradientUnits="userSpaceOnUse">
	<stop  offset="0" style="stop-color:#4D7A30"/>
	<stop  offset="0.8343" style="stop-color:#4D7A30;stop-opacity:0"/>
</radialGradient>
<ellipse class="st0" cx="75" cy="151" rx="63.5" ry="13"/>
<linearGradient id="SVGID_2_" gradientUnits="userSpaceOnUse" x1="69.5769" y1="-2.737" x2="83.8165" y2="140.5679">
	<stop  offset="0.5726" style="stop-color:#E4D530"/>
	<stop  offset="1" style="stop-color:#D2A42B"/>
</linearGradient>
<circle class="st1" cx="77.5" cy="77" r="72"/>
<radialGradient id="SVGID_3_" cx="111.0719" cy="74.4574" r="31.8761" gradientTransform="matrix(0.9636 0 0 0.9636 -16.1818 34.7501)" gradientUnits="userSpaceOnUse">
	<stop  offset="0" style="stop-color:#D2772B;stop-opacity:0.5"/>
	<stop  offset="0.1675" style="stop-color:#D37D2B;stop-opacity:0.411"/>
	<stop  offset="0.3824" style="stop-color:#D68D2C;stop-opacity:0.2969"/>
	<stop  offset="0.6232" style="stop-color:#DBA72E;stop-opacity:0.169"/>
	<stop  offset="0.8812" style="stop-color:#E2CB2F;stop-opacity:3.196758e-02"/>
	<stop  offset="0.9413" style="stop-color:#E4D530;stop-opacity:0"/>
</radialGradient>
<ellipse class="st2" cx="90.9" cy="106.5" rx="36.6" ry="32.5"/>
<linearGradient id="SVGID_4_" gradientUnits="userSpaceOnUse" x1="19.1358" y1="41.994" x2="143.8642" y2="114.006">
	<stop  offset="0" style="stop-color:#D2772B;stop-opacity:0.3"/>
	<stop  offset="4.013370e-03" style="stop-color:#D2782B;stop-opacity:0.2976"/>
	<stop  offset="0.1536" style="stop-color:#DAA02D;stop-opacity:0.2068"/>
	<stop  offset="0.2902" style="stop-color:#DFBD2F;stop-opacity:0.1239"/>
	<stop  offset="0.4083" style="stop-color:#E3CF30;stop-opacity:5.224605e-02"/>
	<stop  offset="0.4944" style="stop-color:#E4D530;stop-opacity:0"/>
</linearGradient>
<circle class="st3" cx="81.5" cy="78" r="72"/>
<g>
	<linearGradient id="SVGID_5_" gradientUnits="userSpaceOnUse" x1="133.5007" y1="96.3338" x2="136.4016" y2="106.9595">
		<stop  offset="0" style="stop-color:#FB9438"/>
		<stop  offset="0.3677" style="stop-color:#F17330"/>
		<stop  offset="0.7715" style="stop-color:#E85529"/>
		<stop  offset="1" style="stop-color:#E44A26"/>
	</linearGradient>
	<path class="st4" d="M140.5,93c-2.5,1.3-5,5-15,3c2,3,6,6,9,6C139.1,102,140.5,93,140.5,93z"/>
	<path class="st5" d="M140.5,93c-1.1,0.7-2.1,1.5-3.3,2.2c-1.2,0.6-2.4,1.1-3.8,1.3c-1.3,0.2-2.7,0.3-4,0.1
		c-1.3-0.1-2.6-0.3-3.9-0.6l0-0.1c1.1,1.6,2.5,2.9,4,4c0.8,0.5,1.6,1,2.5,1.4c0.9,0.4,1.8,0.6,2.7,0.6c0.9,0,1.8-0.5,2.4-1.2
		c0.7-0.7,1.2-1.5,1.6-2.3C139.6,96.7,140.1,94.8,140.5,93z M140.5,93c-0.3,1.9-0.8,3.7-1.6,5.5c-0.4,0.9-0.9,1.7-1.6,2.4
		c-0.7,0.7-1.6,1.2-2.6,1.3c-2,0.1-3.8-0.9-5.3-2c-1.5-1.1-2.9-2.5-4-4.1l-0.1-0.1l0.1,0c1.3,0.2,2.6,0.4,3.9,0.5
		c1.3,0.1,2.6,0,3.9-0.2c1.3-0.2,2.6-0.6,3.7-1.2C138.3,94.4,139.3,93.6,140.5,93z"/>
</g>
<g>
	
		<linearGradient id="SVGID_6_" gradientUnits="userSpaceOnUse" x1="136.4549" y1="31.2152" x2="145.9318" y2="28.097" gradientTransform="matrix(0.9951 9.892114e-02 -9.892114e-02 0.9951 -4.1979 37.0082)">
		<stop  offset="0.148" style="stop-color:#E4D530;stop-opacity:0"/>
		<stop  offset="0.1868" style="stop-color:#E3CF30;stop-opacity:4.189477e-02"/>
		<stop  offset="0.5054" style="stop-color:#DA9F2D;stop-opacity:0.3862"/>
		<stop  offset="0.7495" style="stop-color:#D4822C;stop-opacity:0.65"/>
		<stop  offset="0.8883" style="stop-color:#D2772B;stop-opacity:0.8"/>
	</linearGradient>
	<path class="st6" d="M132.4,86.1c1.2,0.9,3.2-1.4,4.2-4.3c0.9-2.3,1.8-5.3-0.1-5.5c-1.9-0.2-6,0.6-9-0.4"/>
	<path class="st7" d="M132.4,86.1c0.4,0.3,0.9,0.2,1.3,0c0.4-0.2,0.7-0.6,1-0.9c0.6-0.7,1.1-1.5,1.4-2.3c0.4-0.8,0.7-1.7,1-2.5
		c0.3-0.9,0.5-1.8,0.5-2.6c0-0.4-0.2-0.9-0.6-1.1c-0.4-0.2-0.9-0.1-1.3-0.2c-0.9,0-1.8,0.1-2.7,0.1c-1.8,0.1-3.7,0-5.4-0.6
		c1.8,0.5,3.6,0.5,5.4,0.4c0.9,0,1.8-0.1,2.7-0.1c0.5,0,0.9,0,1.4,0.2c0.5,0.2,0.7,0.8,0.7,1.2c0.1,1-0.2,1.9-0.5,2.7
		c-0.3,0.9-0.6,1.7-1,2.6c-0.4,0.8-0.9,1.6-1.5,2.3c-0.3,0.3-0.7,0.7-1.1,0.9C133.3,86.4,132.8,86.5,132.4,86.1z"/>
</g>
<g>
	<path class="st8" d="M109.1,71.8c0.8,2.5,1.1,4.9,1.1,7.1c-0.1,4.2-2.4,3.8-5.1,4.7c-2.4,0.8-5.7,1.4-8-1c0,0-2.2-2.7-3.2-5.8
		c-2.3-7.2-0.8-14.1,3.4-15.4C101.5,59.9,106.7,64.6,109.1,71.8z"/>
	<path class="st5" d="M109.1,71.8c0.6,1.9,1,3.8,1.1,5.8c0,1,0.1,2-0.2,2.9c-0.1,0.5-0.3,1-0.6,1.4c-0.3,0.4-0.8,0.7-1.2,0.9
		c-0.9,0.4-1.9,0.6-2.8,0.9c-0.9,0.3-1.9,0.6-2.9,0.8c-1,0.2-2,0.2-3-0.1c-1-0.2-2-0.8-2.7-1.5l0,0l0,0c-1.1-1.4-2-2.9-2.8-4.5
		c-0.7-1.6-1.1-3.3-1.4-5.1c-0.3-1.7-0.3-3.5,0-5.3c0.3-1.7,0.8-3.5,1.9-4.9c0.6-0.7,1.2-1.3,2.1-1.7c0.8-0.4,1.7-0.6,2.6-0.5
		c1.8,0.2,3.4,1.1,4.7,2.2c1.3,1.2,2.4,2.5,3.2,4C107.8,68.6,108.5,70.1,109.1,71.8z M109.1,71.8c-1.1-3.2-2.8-6.4-5.5-8.6
		c-1.3-1.1-2.9-1.9-4.6-2c-1.7-0.1-3.2,0.8-4.2,2.2c-0.9,1.4-1.4,3-1.6,4.7c-0.2,1.7-0.1,3.3,0.2,5c0.3,1.7,0.7,3.3,1.3,4.8
		c0.7,1.5,1.5,3,2.5,4.3l0,0c0.6,0.7,1.4,1.2,2.3,1.4c0.9,0.3,1.8,0.3,2.8,0.2c1-0.1,1.9-0.3,2.8-0.6c1-0.3,1.9-0.4,2.8-0.7
		c0.9-0.3,1.6-1.1,1.8-2c0.2-0.9,0.3-1.9,0.2-2.9C110,75.6,109.6,73.6,109.1,71.8z"/>
</g>
<g>
	<path class="st5" d="M85.5,65.8c-0.1-1.6,0.1-3.2,0.5-4.8c0.4-1.6,1-3.1,1.8-4.5c0.8-1.4,2-2.8,3.7-3.3c1.6-0.6,3.4-0.4,4.9,0.3
		l0,0.1c-1.6-0.1-3.2-0.1-4.5,0.5c-1.3,0.6-2.5,1.6-3.4,2.9c-0.9,1.3-1.5,2.7-2,4.2C86,62.7,85.7,64.2,85.5,65.8L85.5,65.8z"/>
</g>
<g>
	<path class="st5" d="M93,74.5c-1-1.8-1.7-3.8-2-5.8c-0.2-2.1,0.1-4.3,1.2-6.1c1.1-1.8,3.2-3.1,5.4-3c2.2,0.1,4.1,1.3,5.5,2.9l0,0
		c-1.6-1.3-3.4-2.4-5.4-2.4c-2,0-3.9,1-5,2.7c-1.1,1.7-1.5,3.8-1.3,5.8C91.4,70.7,92.1,72.6,93,74.5L93,74.5z"/>
</g>
<g>
	<ellipse transform="matrix(0.9517 -0.3069 0.3069 0.9517 -17.024 35.248)" class="st9" cx="103.6" cy="71.8" rx="4.5" ry="6.8"/>
	<circle class="st8" cx="104" cy="76.5" r="0.5"/>
	<circle class="st8" cx="103" cy="67.5" r="1.5"/>
</g>
<g>
	<path class="st5" d="M132.9,43.4c0.3-0.8,0.8-1.6,1.6-2.1c0.8-0.5,2-0.4,2.8,0.1c0.8,0.5,1.4,1.1,1.8,1.8c0.5,0.7,0.9,1.4,1.2,2.2
		l-0.1,0c-0.5-0.7-1-1.3-1.5-1.9c-0.5-0.6-1.1-1.1-1.8-1.4c-0.7-0.3-1.3-0.2-2,0.1C134.4,42.5,133.7,43,132.9,43.4L132.9,43.4z"/>
</g>
<radialGradient id="SVGID_7_" cx="589.5079" cy="157.1923" r="68.7965" gradientTransform="matrix(0.4961 -5.270395e-03 2.618918e-04 7.523813e-02 -213.4688 135.7801)" gradientUnits="userSpaceOnUse">
	<stop  offset="9.497207e-02" style="stop-color:#E4D430;stop-opacity:0.5"/>
	<stop  offset="0.8343" style="stop-color:#E4D530;stop-opacity:0"/>
</radialGradient>
<ellipse class="st10" cx="79" cy="144.5" rx="31.5" ry="6.5"/>
<g>
	<path class="st5" d="M138.5,105c-0.5,0.6-1,1.2-1.8,1.4c-0.4,0.1-0.8,0.1-1.2,0c-0.4-0.1-0.7-0.3-1-0.5c0.7,0.2,1.5,0.4,2.1,0.2
		C137.3,106,137.9,105.5,138.5,105z"/>
</g>
<g class="st11">
	<path class="st5" d="M99.7,86.7c0.6-1,1.6-1.8,2.5-2.4c1-0.6,2.1-1.1,3.2-1.4c1.1-0.3,2.4-0.4,3.6-0.3c1.2,0.2,2.4,0.7,3.1,1.7
		c-1.2-0.3-2.2-0.3-3.2-0.1c-1,0.1-2,0.4-3,0.6c-1,0.3-2,0.6-3,0.9L99.7,86.7z"/>
</g>
<g class="st11">
	<path class="st5" d="M103.5,62c1.8,0.3,3.4,1.6,4.6,3.1c1.2,1.5,2.1,3.2,2.7,5c0.6,1.8,0.9,3.7,0.9,5.5c0,1.9-0.3,3.8-1.2,5.4
		c0.2-3.7-0.5-7-1.6-10.3c-0.6-1.6-1.2-3.2-2.1-4.7C106,64.5,105,63.1,103.5,62z"/>
</g>
<g>
	<g>
		<path class="st5" d="M143,56.5c-0.3-1.3-0.8-2.7-1.4-3.9c-0.6-1.2-1.4-2.4-2.6-3c-0.6-0.3-1.2-0.2-1.6,0.3
			c-0.4,0.5-0.6,1.1-0.7,1.8c-0.3,1.3-0.2,2.7-0.1,4.1l0,0c-0.3-1.3-0.5-2.8-0.3-4.2c0.1-0.7,0.3-1.4,0.9-2c0.3-0.3,0.6-0.5,1-0.5
			c0.4,0,0.8,0.1,1.1,0.2c1.3,0.7,2.1,2,2.7,3.2C142.4,53.8,142.7,55.1,143,56.5L143,56.5z"/>
	</g>
	<g>
		<path class="st8" d="M145.8,61.8c0.7,2.6,1.1,5,1.2,7.1c0.1,3.1-0.9,2.6-2.1,2.9c-1.2,0.3-2.5,1.5-4-1.1c-1-1.8-2-4.2-2.7-6.8
			c-1.8-6.4-1.5-12.1,0.6-12.7S144,55.4,145.8,61.8z"/>
		<path class="st5" d="M145.8,61.8c0.6,2,1,4.1,1.2,6.2c0,0.5,0.1,1.1,0.1,1.6c0,0.5,0,1.1-0.3,1.6c-0.1,0.3-0.4,0.5-0.7,0.6
			c-0.3,0.1-0.5,0.1-0.8,0.2c-0.5,0.1-0.9,0.3-1.4,0.5c-0.5,0.2-1.2,0.3-1.8,0.1c-0.6-0.3-1-0.7-1.3-1.2c-0.6-0.9-1.1-1.9-1.5-2.8
			c-0.9-2-1.5-4-2-6.1c-0.5-2.1-0.8-4.2-0.7-6.4c0-1.1,0.1-2.2,0.5-3.2c0.2-0.5,0.4-1,0.9-1.5c0.4-0.4,1.1-0.6,1.7-0.4
			c1.1,0.4,1.8,1.3,2.4,2.1c0.6,0.9,1.1,1.8,1.6,2.7C144.5,57.8,145.2,59.8,145.8,61.8z M145.8,61.8c-0.6-2-1.3-4-2.3-5.9
			c-0.5-0.9-1-1.8-1.7-2.6c-0.6-0.8-1.4-1.6-2.3-1.8c-0.5-0.1-0.9,0-1.2,0.4c-0.3,0.3-0.5,0.8-0.6,1.3c-0.3,1-0.3,2-0.3,3
			c0,2.1,0.4,4.1,0.8,6.1c0.5,2,1.1,4,1.9,5.9c0.4,0.9,0.8,1.9,1.3,2.8c0.3,0.4,0.6,0.8,0.9,1c0.4,0.2,0.8,0.2,1.3,0
			c0.5-0.1,1-0.4,1.6-0.4c0.5-0.1,1-0.1,1.3-0.5c0.2-0.4,0.3-0.9,0.3-1.4c0-0.5,0-1,0-1.6C146.7,65.9,146.3,63.8,145.8,61.8z"/>
	</g>
	<g>
		<ellipse transform="matrix(0.9689 -0.2476 0.2476 0.9689 -10.4037 37.278)" class="st9" cx="143" cy="60" rx="2" ry="6.2"/>
		
			<ellipse transform="matrix(0.9956 -9.335152e-02 9.335152e-02 0.9956 -5.3968 13.695)" class="st8" cx="143.7" cy="64.5" rx="0.3" ry="0.4"/>
		<ellipse transform="matrix(0.9698 -0.2441 0.2441 0.9698 -9.4007 36.5152)" class="st8" cx="142.7" cy="56.2" rx="0.5" ry="1.2"/>
	</g>
	<g class="st11">
		<path class="st5" d="M142.5,74c0.1-0.7,0.5-1.2,0.9-1.5c0.4-0.4,1-0.6,1.5-0.8c0.5-0.2,1.1-0.2,1.7-0.1c0.6,0.1,1.2,0.3,1.6,0.9
			c-0.6,0.3-1,0.5-1.5,0.7c-0.4,0.2-0.9,0.3-1.3,0.5c-0.4,0.1-0.9,0.2-1.4,0.3C143.6,73.9,143.2,74,142.5,74z"/>
	</g>
</g>
<g>
	<path class="st5" d="M125.5,97.7c-0.4-0.4-0.6-1.1-0.5-1.7c0.1-0.6,0.5-1.1,1-1.4c-0.2,0.6-0.4,1-0.5,1.5
		C125.4,96.6,125.4,97.1,125.5,97.7z"/>
</g>
<g>
	<path class="st5" d="M139.2,92.3c0.6-0.2,1.2,0,1.7,0.4c0.5,0.4,0.7,1,0.8,1.6c-0.4-0.4-0.7-0.9-1.1-1.2
		C140.2,92.7,139.7,92.5,139.2,92.3z"/>
</g>
</svg>
