<?xml version="1.0" encoding="utf-8"?>
<!-- Generator: Adobe Illustrator 24.0.2, SVG Export Plug-In . SVG Version: 6.00 Build 0)  -->
<svg version="1.1" id="Layer_1" xmlns="http://www.w3.org/2000/svg" xmlns:xlink="http://www.w3.org/1999/xlink" x="0px" y="0px"
	 viewBox="0 0 175 234" style="enable-background:new 0 0 175 234;" xml:space="preserve">
<style type="text/css">
	.st0{fill:#998675;}
	.st1{fill:#41210A;}
	.st2{fill:#C9B199;}
	.st3{fill:#603814;}
	.st4{fill:#61658C;}
	.st5{fill:#552E34;}
	.st6{fill:#E2C779;}
	.st7{fill:#221400;}
	.st8{fill:#BA984A;}
	.st9{fill:#BCA466;}
	.st10{fill:#EDBC80;}
	.st11{fill:#241400;}
	.st12{fill:#703E48;}
	.st13{fill:#AA5E8B;}
	.st14{fill:#1E1E1E;}
	.st15{fill:#CC2402;}
	.st16{fill:#910202;}
	.st17{fill:#C6A25C;}
	.st18{fill:#DDB864;}
	.st19{fill:#545877;}
	.st20{fill:#898FC6;}
	.st21{fill:#454960;}
	.st22{fill:#7C80B5;}
	.st23{fill:#2C1F00;}
	.st24{fill:#754F2A;}
	.st25{fill:#A77A3F;}
	.st26{fill:#B99154;}
	.st27{fill:#F7D49E;}
	.st28{fill:#8D673A;}
	.st29{fill:#F4C78C;}
	.st30{fill:url(#SVGID_1_);}
	.st31{fill:#89663C;}
</style>
<g>
	<path class="st0" d="M154.7,123.7l-1.3-0.5c-1.6-0.6-2.4-2.4-1.7-4l3.7-9.5c0.6-1.6,2.4-2.4,4-1.7l1.3,0.5c1.6,0.6,2.4,2.4,1.7,4
		l-3.7,9.5C158,123.6,156.2,124.4,154.7,123.7z"/>
	<path class="st1" d="M167.3,114.7c1.3-4.7-1-9.6-5.4-11.3s-9.4,0.3-11.6,4.6L167.3,114.7z"/>
	<path class="st2" d="M160.1,108.3l-6,15.2c1.9,0.7,4-0.3,4.8-2.2l3.2-8.2C162.8,111.2,161.9,109.1,160.1,108.3z"/>
	<path class="st3" d="M158.9,111.5l8.4,3.3c1.3-4.6-0.9-9.5-5.3-11.3L158.9,111.5z"/>
</g>
<g>
	<path class="st4" d="M121,80c0.9,6.8,8.5,21.3,14.5,23.4c6,2.1,9.4,5.5,5.5,12.8c-3.8,7.2-40,2.6-40,2.6l-1.3-30.6L121,80z"/>
	<path class="st5" d="M138.5,16.6c2.6,2.6,11.9,23.8-1.3,32.3s-9.6-25.3-9.6-25.3L138.5,16.6z"/>
	<path class="st5" d="M131.2,57.9c0,3,2.6,4.7,0.9,9.4s-4.7,4.7-3,7.7c1.7,3,4.5,19.8-8.7,24.5c-10.5,3.7-4.9-11.3-4.9-11.3
		l-1.3-31.9L131.2,57.9z"/>
	<path class="st6" d="M132.9,56.2c-0.9,0.9-1.7,3.8-1.7,4.7c-0.4,1.3-2.1,1.7-2.1,1.7c0,0.4,0.4,0.9-1.3,2.1
		c-1.7,1.3-1.5,1.9-1.5,2.3s-0.5,2.2-2.6,2.6c-7.2,1.3-11.9-6-11.9-6l24.5-44.9c0.9,1.7,9,16.5,2.6,25.1c-2.6,3.4-3.4,4.3-3.4,5.5
		s0.6,6.2,0.2,7c-0.7,1.3-2.3,0.2-3.6,0.6c-1.3,0.4-2.6,0-2.1-1.3"/>
	<path class="st7" d="M125.3,43.8c0.5,0.1,1,0,1.6,0c0.5,0,1.1,0.1,1.6,0.2c0.6,0.1,1.1,0.4,1.6,0.7c0.5,0.3,0.9,0.7,1.4,1.1
		l-1.3,1.1c-0.5-0.8-1.1-1.6-2-2.1c-0.4-0.2-0.9-0.4-1.4-0.6C126.3,44.2,125.8,44,125.3,43.8z"/>
	<path class="st8" d="M126.5,45.1c0.5,0.5,0.8,1.1,1.3,1.6c0.2,0.2,0.5,0.4,0.8,0.5c0.3,0.2,0.6,0.3,0.9,0.4c-0.4,0-0.7,0-1.1-0.1
		c-0.3-0.1-0.7-0.3-0.9-0.6c-0.3-0.3-0.4-0.6-0.6-0.9C126.8,45.8,126.7,45.4,126.5,45.1z"/>
	<path class="st9" d="M132.5,56.6c-0.2,0.1-0.5,0.2-0.8,0.2c-0.3,0-0.5,0-0.8-0.1c-0.3-0.1-0.5-0.3-0.6-0.6c-0.1-0.3-0.1-0.6,0-0.8
		c0,0.3,0,0.5,0.1,0.7c0.1,0.2,0.3,0.4,0.5,0.5C131.5,56.7,132,56.7,132.5,56.6z"/>
	<path class="st10" d="M129.7,52.5c1,3.8-2.1,6.4-6.8,9.4c-3.4,2.1-9.4-4.8-9.4-8.7s3.3-6.6,7.2-7C124.6,45.7,128.5,47.4,129.7,52.5
		z"/>
	<path class="st11" d="M127.8,40c0.7,0,1.4,0,2.2,0.1c0.7,0.1,1.5,0.2,2.2,0.5c1.4,0.5,2.7,1.5,3.3,2.8c-0.6-0.4-1.2-0.8-1.8-1.2
		c-0.6-0.3-1.2-0.6-1.9-0.9c-0.6-0.2-1.3-0.5-2-0.7C129.2,40.5,128.5,40.3,127.8,40z"/>
	<path class="st12" d="M137.2,17.5c0.9,1.7,6.4,12.8-2.6,18.7s-7.2,4.3-8.5,7.7c-1.3,3.4-4.3,9.8-9.8,9.4s8.9-35.7,9.4-35.3
		C126.1,18.3,137.2,17.5,137.2,17.5z"/>
	<path class="st13" d="M126.5,61.3c0.2,0.1,0.4,0.2,0.7,0.3c0.2,0.1,0.5,0.1,0.7,0.2c0.2,0.1,0.5,0.1,0.7,0.1c0.1,0,0.2,0,0.3,0
		c0,0,0.1,0,0.1,0c0,0,0,0,0,0c0,0,0,0,0,0v1.3c-0.1,0-0.1,0-0.2,0c0,0-0.1,0-0.1,0c-0.1,0-0.1-0.1-0.2-0.1
		c-0.1-0.1-0.2-0.1-0.3-0.2c-0.2-0.1-0.4-0.3-0.6-0.5c-0.2-0.2-0.4-0.3-0.6-0.5C126.9,61.6,126.7,61.5,126.5,61.3z"/>
	<path class="st14" d="M115.5,88.1c-0.4,7.7-8.1,27.2-3.4,37.4s-26.8,3-26.8,3l6-48.1L115.5,88.1z"/>
	<path class="st9" d="M127.4,43.4c0.4-0.1,0.9-0.2,1.4-0.2c0.5,0,0.9,0.1,1.4,0.3c0.4,0.2,0.8,0.5,1.2,0.8c0.3,0.3,0.6,0.7,0.8,1.2
		c-0.3-0.3-0.6-0.6-1-0.9c-0.3-0.3-0.7-0.5-1.1-0.7c-0.4-0.2-0.8-0.3-1.2-0.4C128.3,43.5,127.9,43.5,127.4,43.4z"/>
	<path class="st12" d="M119.3,44.7c-0.4,7.2,2.6,11.1,0.9,17s-3.4,9.8-2.1,13.6s4.3,13.2,2.1,19.6s-12.3,13.6-14,3.4
		c-1.7-10.2-10.2-31.9-6.4-37.4S119.3,44.7,119.3,44.7z"/>
	<path class="st15" d="M140.8,16.8c3.8-1.2-28.1-16.2-40-11.1s-13.4,9.6-15.9,10c-2.6,0.4-2.6,2.6-5.1,3.8s-7.7,6.8-10.2,11.5
		s-8.5,1.7-10.6,11.1c-2.1,9.4,3,57.8,9.4,48.1c11.1-17,17-26.8,24.2-20.4s8.1,11.1,10.6,9.8c2.6-1.3,15.3-21.3,17-26.8
		S135.9,18.3,140.8,16.8z"/>
	<path class="st16" d="M111.2,6c0.9,2.6,6.4,3,3.4,5.1s-5.5,1.7-7.7,3.8c-2.1,2.1-19.6,28.9-18.7,25.9s19.6-28.1,17.4-27.6
		c-2.1,0.4-5.1,7.2-6,3.8s3.2-10.8,2.7-11.8C101.9,4.3,110.4,3.4,111.2,6z"/>
	<path class="st16" d="M98.5,6.8C100,8.4,87,17.5,84.9,17c-2.1-0.4-2.1,3-4.3,4.3c-2.1,1.3-2.6,1.3-3.4,3.4s-6,15.3-7.7,16.6
		s-8.5,0.9-6,0c2.6-0.9,6,0,7.7-4.3s0-8.6,0.2-9s4.5-6.3,8.3-8.5s2.8-3.1,3.9-3.4C84.9,15.8,97.3,5.5,98.5,6.8z"/>
	<path class="st16" d="M99.8,32.3c2.1,0.7-5.1,8.5-8.1,12.3S84,54,83.2,55.7c-0.9,1.7-4.7,3.8-6.4,6.4c-1.7,2.6-5.1,6.8-7.2,10.2
		s-3.4,6.4-4.7,11.1c0-5.1,2.1-11.1,5.1-13.6s6.8-9.8,8.9-13.6s5.5-7.2,7.7-8.9c2.1-1.7,3-4.3,3.8-5.1s3.4-3,4.7-4.7
		S98.5,31.9,99.8,32.3z"/>
	<path class="st16" d="M84,56.6c0.6-0.8,1.6-1.4,2.5-1.8c1-0.4,2-0.6,3.1-0.5c1.1,0.1,2.1,0.4,3,0.7l0.7,0.3l0.7,0.4
		c0.2,0.1,0.4,0.3,0.7,0.4l0.6,0.4c0.9,0.6,1.7,1.2,2.5,1.8c0.8,0.6,1.6,1.3,2.3,2c1.5,1.4,2.9,2.8,4.3,4.4l-0.1,0.1
		c-1.7-1.1-3.3-2.5-4.8-3.8l-4.5-4.1l-0.6-0.5c-0.2-0.2-0.4-0.3-0.6-0.4c-0.2-0.1-0.4-0.2-0.7-0.4c-0.2-0.1-0.5-0.2-0.7-0.3
		c-1-0.3-2-0.3-2.9-0.3C87.7,55,85.7,55.5,84,56.6L84,56.6z"/>
	<path class="st16" d="M92.9,57.9c-1.5-2.3,4.7,3.8,5.5,8.9c-2.1-1.3-2.1-0.9-2.1,2.1C94.6,66.4,96.4,63,92.9,57.9z"/>
	<path class="st17" d="M121,118.7c2.1-0.9,9.8-1.7,11.1-2.6c1.3-0.9,7.7-2.1,9.8-2.6c2.1-0.4,9.4-7.2,17-2.1
		c-2.1,3.8-16.2,6.8-16.2,6.8L121,118.7z"/>
	<path class="st4" d="M140.2,157.8c3.8,1.3,8.9-0.9,10.6,0.4c1.7,1.3,9.4-3,9.8-7.7c0.4-4.7,0.9-9.8-3-10.6
		C153.8,139.1,140.2,157.8,140.2,157.8z"/>
	<path class="st18" d="M153.3,143.8c-1.7,2.6-6.4,11.1-9.4,15.3c-3,4.3-23,27.2-26.4,30.2c-12.3,10.6-16.4-2.2-16.2-5.5
		c0.6-10,30.2-39.1,30.2-39.1L153.3,143.8z"/>
	<path class="st19" d="M38.1,148.9c-2.1,6-3.8,9.2-5.1,13.6c-2.8,9.6-10.8,19.4-21.5,35.9C0,211.2-0.4,223.9,39.6,221.8
		c9.4-0.5,38.2,5.2,44.2,1.3c8.5-5.5,64-9,38.1-26.6c-17.2-11.7-13-21.9,1.9-33.8c7.4-5.9,13-14.7,10.8-18.9S38.1,148.9,38.1,148.9z
		"/>
	<path class="st20" d="M143.6,122.9c5.1,3,8.5,9.4,10.6,11.1c2.1,1.7,9.4,6.4,6.8,8.9s-18.5,12.5-23.8,6.8
		c-4.5-4.9-6.2-0.6-11.7,0.6c-5.5,1.3-5.1-4.7-11.5-2.6c-6.4,2.1-12.1,13.4-15.9,10.8s-10.6,0-15.7,2.1c-5.1,2.1-17.9,1.7-20-2.1
		c-2.1-3.8,43-34,43-34L143.6,122.9z"/>
	<g>
		<path class="st6" d="M98.9,101.7c3.1,3.9,6.6,13.7,7,15.6c11.9-2.9,20.8-1,23.6-1c6.2,0,11.1-0.2,13.1-1c2-0.8,8.2-3.9,10.5-3.9
			c3.1-1.2,6.2-2.3,7.4-2.3c1.2,0,2.7-0.8,2.3,0.4s-1.6,2.7-3.5,3.1c-0.8,0.4-1.2,1.2-2,1.2c1.6,0,6.2-0.8,7.8,1.2s0.4,3.1-0.4,3.1
			c1.2,0.8,0.4,3.9-1.2,3.9c0.8,1.2,1.6,3.1-2,4.3c0,1.2,1.2,2.6-4.7,3.1c-4.7,0.4-5.5-0.4-6.6-0.4s-2.7-0.4-3.5-0.8
			c-0.8-0.4-2.7-1.6-5.9-0.4s-33.2,5.1-39,1.6c-5.9-3.5-12.1-20.3-12.1-20.3L98.9,101.7z"/>
		<path class="st9" d="M158.6,117.7c0.5,0.1,1,0.1,1.5,0.1l1.5,0c1,0,1.9,0.1,2.9,0.3c-1,0.2-2,0.2-2.9,0.2c-0.5,0-1-0.1-1.5-0.1
			C159.6,118,159.1,117.9,158.6,117.7z"/>
		<path class="st9" d="M158.6,122.3c0.4-0.2,0.8-0.3,1.2-0.4c0.4-0.1,0.9-0.1,1.3-0.1c0.9,0,1.7,0,2.6,0.2c-0.9,0.2-1.7,0.2-2.5,0.3
			l-1.3,0.1C159.5,122.3,159.1,122.3,158.6,122.3z"/>
		<path class="st9" d="M156.7,125.9c0.4-0.1,0.9-0.1,1.3-0.1c0.4,0,0.8,0,1.3,0.1c0.8,0.1,1.7,0.2,2.5,0.4c-0.4,0.1-0.9,0.1-1.3,0.1
			c-0.4,0-0.8,0-1.3-0.1C158.4,126.2,157.5,126.1,156.7,125.9z"/>
		<path class="st9" d="M151.2,113.8c1.1-0.2,2.1-0.3,3.2-0.4c1.1,0,2.2,0,3.2,0.4c-1.1,0-2.1,0-3.2,0.1
			C153.4,113.9,152.3,113.9,151.2,113.8z"/>
		<path class="st9" d="M106,117.3c-0.3,0.2-0.5,0.5-0.7,0.7c-0.2,0.3-0.5,0.5-0.7,0.8c-0.2,0.3-0.5,0.5-0.7,0.8
			c-0.2,0.3-0.4,0.5-0.6,0.8c0-0.4,0.2-0.7,0.3-1c0.2-0.3,0.4-0.6,0.6-0.9c0.2-0.3,0.5-0.5,0.8-0.7
			C105.3,117.6,105.6,117.4,106,117.3z"/>
	</g>
	<path class="st21" d="M94.2,112.3c3.3,4,18.3,28.5,14,34.9c-4.3,6.4-17.4-16.6-17.4-16.6S88.3,105.1,94.2,112.3z"/>
	<path class="st22" d="M101.9,75.7c1.3,3.8,10.2,15.7,7.7,21.3c-2.6,5.5-7.7,10.6-11.9,15.3s-6.8,11.9-3.4,15.3
		c3.4,3.4,7.2,3.8,10.2,8.5c3,4.7,6.8,11.5,3.4,14c-3.4,2.6-20.8,1.7-23.8,4.7c-3,3-25.1,10.6-36.6,5.5s-15.3-5.5-11.1-14.9
		S66.2,100.8,67,98.7s0.4-14,1.7-17c1.3-3,16.6-23,21.7-18.7S101.9,75.7,101.9,75.7z"/>
	<path class="st21" d="M89.6,160.8c0,1.1,0.2,2.2,0.1,3.3c-0.1,1.1-0.3,2.3-0.9,3.3c-0.5,1-1.3,1.9-2.2,2.6
		c-0.8,0.7-1.8,1.4-2.7,1.9c-0.5,0.3-1,0.5-1.5,0.7c-0.5,0.2-1.1,0.4-1.6,0.5c-0.5,0.2-1.1,0.3-1.6,0.4c-0.5,0.1-1.1,0.2-1.7,0.2
		c-2.2,0.2-4.5,0.1-6.6-0.2l0-0.1c2.2-0.2,4.4-0.3,6.5-0.6c2.2-0.3,4.3-0.6,6.3-1.4c1-0.4,2-0.9,2.7-1.7c0.8-0.8,1.3-1.7,1.7-2.7
		c0.4-1,0.7-2,0.9-3.1c0.1-0.5,0.2-1.1,0.2-1.6C89.3,161.9,89.4,161.3,89.6,160.8L89.6,160.8z"/>
	<path class="st21" d="M99.8,160.8c-0.8,1.6-1.4,3.2-2,4.9c-0.3,0.8-0.7,1.6-0.9,2.5c-0.1,0.4-0.2,0.9-0.2,1.3
		c0,0.4-0.1,0.9-0.1,1.3c0,0.9,0,1.8,0.2,2.6c0.1,0.9,0.1,1.9-0.2,2.8c-0.2,0.5-0.4,0.9-0.7,1.3c-0.3,0.4-0.6,0.7-1,1
		c-0.7,0.6-1.5,1-2.3,1.4l-0.1-0.1c0.6-0.6,1.3-1.2,1.9-1.8c0.3-0.3,0.5-0.6,0.8-1c0.2-0.4,0.4-0.7,0.5-1.1c0.3-0.8,0.3-1.6,0.3-2.5
		c-0.1-0.9,0-1.8,0.2-2.7c0.2-0.9,0.3-1.8,0.5-2.6c0.2-0.9,0.3-1.8,0.5-2.7c0.2-0.9,0.6-1.7,1-2.5C98.6,162.2,99.1,161.4,99.8,160.8
		L99.8,160.8z"/>
	<path class="st21" d="M66.6,166.7c0.7,0.3,1.4,0.4,2.1,0.6c0.7,0.2,1.5,0.3,2.2,0.4c1.5,0.2,2.9,0.7,4.4,0.8c1.5,0.1,3-0.1,4.5-0.2
		c0.7-0.1,1.5-0.2,2.1-0.5c0.7-0.2,1.3-0.5,1.7-1l0.2,0.7c-0.4-0.2-0.8-0.5-1.1-0.8c-0.3-0.3-0.5-0.7-0.7-1.1
		c-0.2-0.4-0.3-0.8-0.4-1.2c-0.1-0.4-0.2-0.8-0.2-1.2l0.1,0c0.2,0.8,0.6,1.5,1,2.1c0.2,0.3,0.5,0.6,0.7,0.8c0.3,0.2,0.6,0.4,0.9,0.5
		l0.5,0.2l-0.3,0.4c-0.3,0.4-0.6,0.7-1,0.9c-0.4,0.2-0.8,0.3-1.1,0.4c-0.8,0.2-1.5,0.3-2.3,0.3c-1.5,0.1-3.1-0.2-4.6-0.2
		c-1.5-0.1-3.1,0-4.5-0.3c-0.7-0.2-1.5-0.3-2.2-0.6C67.9,167.6,67.1,167.3,66.6,166.7L66.6,166.7z"/>
	<path class="st21" d="M84.1,81.7c0.7,1.4,1.3,2.9,1.8,4.4c0.5,1.5,0.9,3,1.3,4.6l0.5,2.3c0.1,0.8,0.3,1.6,0.5,2.3
		c0.3,1.5,0.8,3.1,1.2,4.6c0.4,1.5,0.8,3.1,1.2,4.6l0.5,2.3c0.2,0.8,0.3,1.6,0.4,2.3c0.1,0.8,0.3,1.6,0.4,2.4
		c0.1,0.4,0.1,0.8,0.2,1.2l0.1,1.2c0.2,1.6,0.2,3.2,0.1,4.8h-0.1c-0.2-1.6-0.4-3.1-0.7-4.7c-0.1-0.8-0.3-1.6-0.4-2.3
		c-0.2-0.8-0.3-1.6-0.4-2.3l-0.9-4.7c-0.3-1.5-0.6-3.1-0.8-4.7c-0.3-1.6-0.6-3.1-1-4.6c-0.4-1.5-0.9-3-1.4-4.5
		C85.5,87.8,84.8,84.7,84.1,81.7L84.1,81.7z"/>
	<path class="st21" d="M72.5,89.3c2.2,2.8,10.2,21.3,9.8,30.6C79.3,110.6,66.2,81.3,72.5,89.3z"/>
	<path class="st21" d="M67.5,100c-0.3,1.9-0.8,3.7-1.2,5.6c-0.5,1.9-0.9,3.7-1.5,5.5c-0.6,1.8-1.2,3.6-1.7,5.5
		c-0.5,1.8-1,3.7-1.4,5.6c-0.4,1.9-0.9,3.7-1.3,5.6c-0.5,1.9-0.9,3.7-1.4,5.5c-1,3.7-2.1,7.3-3.4,11l-0.1,0
		c0.7-3.8,1.6-7.5,2.6-11.2c0.5-1.8,1-3.7,1.5-5.5c0.5-1.8,1.1-3.7,1.7-5.5c0.6-1.8,1.1-3.7,1.6-5.5c0.5-1.9,0.8-3.7,1.3-5.6
		c0.4-1.9,1-3.7,1.5-5.5C66.2,103.6,66.7,101.8,67.5,100L67.5,100z"/>
	<path class="st23" d="M129.9,45.5c0.7,0.7,0.4,1.3-0.1,1.8s-1.1,0.2-1.8-0.2c-0.9-0.5-1-2.2-0.5-2.6C128.1,44,129.4,45,129.9,45.5z
		"/>
</g>
<path class="st24" d="M104.4,198.6c-0.3,3.8-1.3,19.1,7.2,25.1c8.5,6,19.1,6.9,25.7,6.9c6.6,0,18.5-1.6,23.5-7.5
	c5-6,7.8-13.8,6.3-24.2S104.4,198.6,104.4,198.6z"/>
<path class="st25" d="M170,187.6l-4.1-0.3c0.5-7.1-1.7-24.9-11.2-35.1c-4.9-5.2-11.2-7.9-18.7-7.9c-11.1,0-19.4,6.6-24.8,19.5
	c-4.2,10.1-5.1,20.9-5.1,23h-4.1c0-2.4,0.9-13.7,5.5-24.6c6-14.4,15.9-22,28.6-22c8.7,0,16,3.1,21.7,9.2
	C169,161.5,170.4,181.5,170,187.6z"/>
<path class="st26" d="M101.8,185.6c-0.3,1.3-2.2,8.8,0,13.8c2.2,5,53.3,9.7,68.1,0.6c2.2-3.1,1.6-9.7,0.3-13.5
	C168.9,182.8,101.8,185.6,101.8,185.6z"/>
<path class="st25" d="M161.5,197.7c-2.3,2-33,6.2-55.9,3.9c12.5,4,51.7,6.3,64.3-1.5c2.2-3.1,1.6-9.7,0.3-13.5
	c-0.1-0.2-0.3-0.4-0.8-0.6l-6.6,2.6C163.4,192.7,164,195.5,161.5,197.7z"/>
<path class="st27" d="M101.6,185.1c-0.3,2.2,6.3,7.5,36.7,6.6s32.3-4.1,32-6.3c-0.3-2.2-16.3-5-34.5-5S101.9,182.9,101.6,185.1z"/>
<path class="st28" d="M106.3,185.4c-0.3,1.8,7.2,5.9,31.5,5.2s28-3.1,27.8-4.8c-0.3-1.8-15.2-4.2-29.8-4.2
	C121.3,181.6,106.6,183.7,106.3,185.4z"/>
<g>
	<ellipse transform="matrix(0.5064 -0.8623 0.8623 0.5064 -99.0699 197.0059)" class="st29" cx="122.5" cy="185" rx="4.3" ry="8"/>
	<g>
		<path class="st28" d="M116.1,181.9c1.3-0.3,2.7-0.3,4.1-0.1c1.4,0.2,2.7,0.7,3.9,1.4c1.2,0.7,2.3,1.5,3.2,2.6
			c0.9,1,1.7,2.3,1.7,3.7c-0.2-0.7-0.6-1.2-1-1.7c-0.4-0.5-0.9-1-1.3-1.4c-1-0.9-2-1.6-3.1-2.3c-1.1-0.6-2.3-1.1-3.6-1.5
			C118.8,182.2,117.5,182,116.1,181.9z"/>
	</g>
</g>
<g>
	
		<ellipse transform="matrix(0.7981 -0.6025 0.6025 0.7981 -79.3236 130.8656)" class="st29" cx="155.6" cy="183.8" rx="8" ry="4.3"/>
	<g>
		<path class="st28" d="M150.3,188.5c0.3-1.3,0.7-2.6,1.5-3.8c0.7-1.2,1.7-2.2,2.8-3.1c1.1-0.8,2.3-1.5,3.6-2
			c1.3-0.4,2.8-0.7,4.1-0.2c-0.7-0.1-1.3,0.1-1.9,0.2c-0.6,0.2-1.2,0.4-1.8,0.7c-1.2,0.6-2.3,1.2-3.3,2c-1,0.8-1.9,1.7-2.8,2.7
			C151.6,186.2,150.9,187.3,150.3,188.5z"/>
	</g>
</g>
<g>
	<ellipse transform="matrix(0.9723 -0.2337 0.2337 0.9723 -39.6242 38.0883)" class="st29" cx="140.9" cy="186.3" rx="8" ry="4.3"/>
	<g>
		<path class="st28" d="M134.1,188.4c0.8-1.1,1.7-2.1,2.9-2.9c1.1-0.8,2.4-1.3,3.8-1.7c1.3-0.3,2.7-0.5,4.1-0.4
			c1.3,0.1,2.8,0.4,3.8,1.4c-0.6-0.3-1.2-0.5-1.9-0.6c-0.6-0.1-1.3-0.1-1.9-0.1c-1.3,0-2.6,0.2-3.8,0.6c-1.2,0.3-2.5,0.8-3.6,1.4
			C136.2,186.8,135.2,187.6,134.1,188.4z"/>
	</g>
</g>
<g>
	<ellipse transform="matrix(0.9723 -0.2337 0.2337 0.9723 -38.9685 36.268)" class="st29" cx="133.6" cy="182.6" rx="8" ry="4.3"/>
	<g>
		<path class="st28" d="M126.8,184.7c0.8-1.1,1.7-2.1,2.9-2.9c1.1-0.8,2.4-1.3,3.8-1.7c1.3-0.3,2.7-0.5,4.1-0.4
			c1.3,0.1,2.8,0.4,3.8,1.4c-0.6-0.3-1.2-0.5-1.9-0.6c-0.6-0.1-1.3-0.1-1.9-0.1c-1.3,0-2.6,0.2-3.8,0.6c-1.2,0.3-2.5,0.8-3.6,1.4
			C128.9,183.1,127.8,183.9,126.8,184.7z"/>
	</g>
</g>
<g>
	<ellipse transform="matrix(0.2113 -0.9774 0.9774 0.2113 -90.9763 257.3264)" class="st29" cx="114" cy="185" rx="4.3" ry="8"/>
	<g>
		<path class="st28" d="M106.9,184c1.2-0.7,2.5-1.2,3.8-1.4c1.4-0.2,2.8-0.1,4.1,0.1c1.4,0.3,2.7,0.7,3.9,1.5
			c1.2,0.7,2.3,1.6,2.8,2.9c-0.4-0.6-0.9-1-1.5-1.3c-0.5-0.4-1.1-0.7-1.7-0.9c-1.2-0.5-2.4-0.9-3.7-1.2c-1.3-0.3-2.6-0.4-3.9-0.3
			C109.5,183.5,108.2,183.7,106.9,184z"/>
	</g>
</g>
<g>
	<ellipse transform="matrix(0.2113 -0.9774 0.9774 0.2113 -80.9023 275.015)" class="st29" cx="130" cy="187.6" rx="3" ry="5.5"/>
	<g>
		<path class="st28" d="M125,186.9c0.8-0.5,1.7-0.9,2.7-1.1c1-0.2,1.9-0.1,2.9,0c1,0.2,1.9,0.5,2.7,1.1c0.8,0.5,1.6,1.2,1.9,2.1
			c-0.6-0.7-1.4-1.1-2.3-1.5c-0.8-0.3-1.7-0.6-2.5-0.8c-0.9-0.2-1.7-0.3-2.6-0.3C126.9,186.7,126,186.8,125,186.9z"/>
	</g>
</g>
<g>
	<linearGradient id="SVGID_1_" gradientUnits="userSpaceOnUse" x1="142.8874" y1="182.7337" x2="153.7921" y2="182.7337">
		<stop  offset="0" style="stop-color:#F4C78C"/>
		<stop  offset="1" style="stop-color:#F4C78C"/>
	</linearGradient>
	<path class="st30" d="M153.8,183.9c-0.3,1.6-3.1,2.4-6,1.7c-3-0.6-5.1-2.5-4.8-4.1c0.3-1.6,3.1-2.4,6-1.7
		C152,180.5,154.1,182.3,153.8,183.9z"/>
	<g>
		<path class="st28" d="M143.4,182c0.8-0.5,1.7-0.9,2.7-1.1c1-0.2,1.9-0.1,2.9,0c1,0.2,1.9,0.5,2.7,1.1c0.8,0.5,1.6,1.2,1.9,2.1
			c-0.6-0.7-1.4-1.1-2.3-1.5c-0.8-0.3-1.7-0.6-2.5-0.8c-0.9-0.2-1.7-0.3-2.6-0.3C145.3,181.8,144.4,181.9,143.4,182z"/>
	</g>
</g>
<g>
	<ellipse transform="matrix(0.9516 -0.3073 0.3073 0.9516 -49.5071 58.3613)" class="st29" cx="160.6" cy="186.4" rx="5.5" ry="3"/>
	<g>
		<path class="st28" d="M156,188.3c0.4-0.9,1-1.6,1.8-2.3c0.7-0.6,1.6-1.1,2.5-1.4c0.9-0.3,1.9-0.5,2.9-0.4c0.9,0,2,0.2,2.7,0.9
			c-0.9-0.3-1.8-0.2-2.7-0.1c-0.9,0.1-1.8,0.3-2.6,0.6c-0.8,0.3-1.6,0.7-2.4,1.1C157.4,187.1,156.7,187.7,156,188.3z"/>
	</g>
</g>
<path class="st31" d="M112.7,160.2c1.1-2.5,2.5-4.9,4.1-7.1c0.8-1.1,1.7-2.1,2.7-3.1c1-1,2.1-1.9,3.2-2.7c2.3-1.6,4.9-2.8,7.7-3.4
	c0.7-0.1,1.4-0.2,2.1-0.3c0.7-0.1,1.4-0.1,2.1-0.1c1.4,0,2.8,0,4.2,0.1c2.8,0.3,5.5,1,8.1,2.2c2.5,1.2,4.9,2.7,6.9,4.7
	c2,1.9,3.7,4.2,5,6.6c1.4,2.4,2.4,4.9,3.2,7.6c-1.1-2.5-2.3-5-3.7-7.2c-1.5-2.3-3.2-4.4-5.2-6.2c-2-1.8-4.3-3.3-6.7-4.3
	c-2.4-1.1-5.1-1.7-7.7-2c-1.3-0.1-2.7-0.2-4-0.1c-1.3,0-2.7,0.1-4,0.4c-1.3,0.3-2.6,0.6-3.8,1.1c-1.2,0.5-2.4,1.2-3.5,1.9
	c-2.2,1.5-4.2,3.3-6,5.4C115.6,155.5,114.1,157.8,112.7,160.2z"/>
</svg>
