<?xml version="1.0" encoding="utf-8"?>
<!-- Generator: Adobe Illustrator 24.0.2, SVG Export Plug-In . SVG Version: 6.00 Build 0)  -->
<svg version="1.1" id="Layer_1" xmlns="http://www.w3.org/2000/svg" xmlns:xlink="http://www.w3.org/1999/xlink" x="0px" y="0px"
	 viewBox="0 0 1195.1 1314.5" style="enable-background:new 0 0 1195.1 1314.5;" xml:space="preserve">
<style type="text/css">
	.st0{display:none;fill:#282023;}
	.st1{fill:url(#SVGID_1_);}
	.st2{fill:url(#SVGID_2_);}
	.st3{fill:url(#SVGID_3_);}
	.st4{fill:url(#SVGID_4_);}
	.st5{fill:url(#SVGID_5_);}
	.st6{fill:#35152D;}
	.st7{fill:url(#SVGID_6_);}
	.st8{fill:#4C1E42;}
	.st9{fill:url(#SVGID_7_);}
	.st10{fill:#663E52;}
	.st11{fill:#F5CBC7;}
	.st12{fill:#754D84;}
	.st13{fill:url(#SVGID_8_);}
	.st14{fill:#606060;}
	.st15{fill:#3C2E3D;}
	.st16{fill:#2B242A;}
	.st17{opacity:0.5;}
	.st18{fill:#201F33;}
	.st19{fill:#DF4426;}
	.st20{fill:url(#SVGID_9_);}
	.st21{fill:url(#SVGID_10_);}
	.st22{fill:#110E10;}
	.st23{fill:#141414;}
	.st24{fill:#22242D;}
	.st25{fill:#80190A;}
	.st26{fill:#AD4915;}
	.st27{fill:#490700;}
	.st28{fill:#E39A65;}
	.st29{fill:#640E00;}
	.st30{fill:#3F3934;}
	.st31{fill:none;stroke:#81392D;stroke-miterlimit:10;}
	.st32{fill:#D3782E;}
	.st33{fill:#544C46;}
	.st34{fill:none;stroke:#EDC344;stroke-width:0.5;stroke-miterlimit:10;}
	.st35{fill:#2F2E3A;}
	.st36{fill:#1E1916;}
	.st37{fill:#352C33;}
	.st38{fill:#564953;}
	.st39{fill:#81392D;}
	.st40{fill:url(#SVGID_11_);}
	.st41{fill:url(#SVGID_12_);}
	.st42{fill:url(#SVGID_13_);}
	.st43{fill:url(#SVGID_14_);}
	.st44{fill:url(#SVGID_15_);}
	.st45{fill:url(#SVGID_16_);}
	.st46{fill:url(#SVGID_17_);}
	.st47{fill:url(#SVGID_18_);}
	.st48{opacity:0.5;fill:#FFFFFF;}
	.st49{fill:#FFFFFF;}
	.st50{opacity:0.5;fill:#B8D1F4;}
	.st51{opacity:0.5;fill:#F5F7FE;}
</style>
<rect x="229.1" y="-11" class="st0" width="1077" height="1030"/>
<g>
	<linearGradient id="SVGID_1_" gradientUnits="userSpaceOnUse" x1="615.4252" y1="4421.855" x2="615.4252" y2="350.8243">
		<stop  offset="0" style="stop-color:#391831"/>
		<stop  offset="0.4613" style="stop-color:#4F2541"/>
		<stop  offset="0.8268" style="stop-color:#5C2C4A"/>
	</linearGradient>
	<path class="st1" d="M1194.5,1206.8c-48.4-227.9-90.1-301.7-122.3-380.9c-15.1,26.6-50.3,7.3-70.9-13.7
		C852.8,660.7,706,506.9,561,350.8c10.7,87.2-40.7,166.5-89.7,233.4C327.8,780,184.9,970,36.3,1153.5l1134.9,158.9L1194.5,1206.8z"
		/>
	<g>
		<linearGradient id="SVGID_2_" gradientUnits="userSpaceOnUse" x1="859.6852" y1="1115.0596" x2="918.7183" y2="1115.0596">
			<stop  offset="0" style="stop-color:#322336"/>
			<stop  offset="7.863051e-02" style="stop-color:#3E273B"/>
			<stop  offset="0.3134" style="stop-color:#5C3347"/>
			<stop  offset="0.5441" style="stop-color:#723B50"/>
			<stop  offset="0.7667" style="stop-color:#7F3F55"/>
			<stop  offset="0.9721" style="stop-color:#834157"/>
		</linearGradient>
		<path class="st2" d="M896,1101.7c8.3,7,12,11.7,14.5,15.7c2.3,4,2.6,6.9,1.5,9.2c-1.1,2.2-3.7,3.7-8.2,4.2
			c-4.7,0.4-10.7,0.2-21.3-2.4c-8.4-7-12.1-11.7-14.5-15.7c-2.3-3.9-2.6-6.9-1.5-9.1c1.2-2.2,3.8-3.7,8.3-4.2
			C879.4,1098.9,885.4,1099.1,896,1101.7z"/>
	</g>
	<g>
		<linearGradient id="SVGID_3_" gradientUnits="userSpaceOnUse" x1="119.1645" y1="845.9206" x2="567.9477" y2="845.9206">
			<stop  offset="0" style="stop-color:#441F39"/>
			<stop  offset="0.1763" style="stop-color:#50253F"/>
			<stop  offset="0.9721" style="stop-color:#834157"/>
		</linearGradient>
		<path class="st3" d="M543.4,563.3c-2.4,7-5.2,13.8-7.9,20.7c-2.8,6.8-5.6,13.6-8.5,20.3c-5.8,13.4-12,26.7-18.4,39.8
			c-12.8,26.2-26.5,52-40.9,77.2c-14.4,25.3-29.5,50.1-45.2,74.5c-15.7,24.4-31.9,48.5-48.6,72.1l-12.6,17.6l-3.2,4.4l-1.8,2.5
			l-1.9,2.6c-2.6,3.4-5.2,6.6-7.6,9.4c-2.4,2.8-4.6,5.4-6.6,7.7c-1,1.2-1.9,2.3-2.8,3.5l-3,4c-4.4,5.8-8.8,11.7-13.3,17.4
			c-17.8,23.1-36.3,45.6-55.4,67.5c-19.1,21.9-39,43.2-59.4,64c-10.3,10.3-20.7,20.6-31.3,30.6c-10.6,10-21.5,19.9-32.8,29.4
			c6.2-13.4,13-26.4,20-39.3c7-12.9,14.2-25.5,21.5-38.1c14.7-25.1,30-49.7,45.5-74c15.5-24.3,31.3-48.3,47.2-72.2l11.9-17.8
			l1.5-2.2l1.8-2.6c1.2-1.8,2.5-3.5,3.8-5.2c2.5-3.3,4.9-6.3,7.1-9.1c2.2-2.8,4.1-5.2,5.8-7.6l1.3-1.8l1.4-2l3.1-4.5l12.5-17.7
			c33.3-47,67.6-93.2,103.4-138.6c17.9-22.7,36.1-45.1,54.8-67.3c9.4-11.1,18.9-22.1,28.6-33c4.8-5.5,9.8-10.9,14.7-16.3
			C533.1,574,538.1,568.6,543.4,563.3z"/>
	</g>
	<g>
		<linearGradient id="SVGID_4_" gradientUnits="userSpaceOnUse" x1="351.2423" y1="889.4832" x2="744.0214" y2="889.4832">
			<stop  offset="0.1453" style="stop-color:#542844"/>
			<stop  offset="0.3534" style="stop-color:#652F4A"/>
			<stop  offset="0.7663" style="stop-color:#93435A"/>
			<stop  offset="1" style="stop-color:#AF4F64"/>
		</linearGradient>
		<path class="st4" d="M724.2,650.5c-0.7,2.8-1.6,5.5-2.5,8.2c-0.9,2.7-1.9,5.4-2.9,8.1l-3,7.9c-1,2.6-1.9,5.2-2.7,7.8l-0.5,0.9
			c-1,1.9-1.9,3.9-2.9,6.1c-1,2.2-2.1,4.6-3.5,7l0.5-0.8c-2.3,5.7-4.4,11.5-7,17.5l-0.9,2.3c-0.3,0.8-0.8,1.8-1.2,2.5l-2.2,4.4
			l-4.3,8.5c-5.7,11.2-11.6,22.4-17.7,33.5c-6.1,11.1-12.3,22.1-18.9,33c-6.5,10.9-13.3,21.7-20.3,32.3l1.1-1.8
			c-2.4,4.5-4.9,8.4-7,11.7c-2.1,3.4-3.9,6.2-5.2,8.7l-0.1,0.2l-0.9,1.3c-9.9,15.2-20.2,30.1-30.9,44.6
			c-10.7,14.5-21.8,28.8-33.1,42.7c-22.7,27.9-46.2,54.6-69.9,81.1l-1.4,1.6c-1.5,1.5-2.5,2.1-3.2,2.6c-0.7,0.5-1.2,0.8-1.6,1
			c-0.4,0.2-0.6,0.3-0.5,0.3c0-0.1,0.3-0.2,1.2-1.1l1.8-2.2c-3.7,4.6-7.6,8.9-11.5,13c-3.9,4.1-7.8,8-11.7,11.8
			c-3.9,3.8-7.7,7.4-11.3,11.1c-3.7,3.6-7.2,7.3-10.6,11.1l-1.3,1.5c-1.2,1.1-1.9,1.6-2.6,2c-0.6,0.4-1.1,0.7-1.5,0.9
			c-0.4,0.2-0.6,0.3-0.7,0.3c-0.1,0,0,0,0.4-0.6l0.8-0.9c-2.6,2.6-5.3,5.2-8,7.7l-8.1,7.5c-5.4,5-11,9.8-16.5,14.6
			c-5.6,4.7-11.2,9.5-16.8,14.1c-5.7,4.7-11.3,9.3-17.1,13.9c3.6-6.5,7.5-12.7,11.4-18.9c3.9-6.2,8-12.3,12.1-18.4
			c4.1-6,8.2-12.1,12.3-18l6.1-9l6-8.9l0.1-0.2l0.7-0.7c1.1-1.1,1.8-1.7,2.4-2.2l1.3-1.1c0.3-0.3,0.5-0.5,0.6-0.6
			c0-0.1-0.1-0.1-0.6,0.4l-1.3,1.5c2.9-5,6.1-9.8,9.3-14.4c3.2-4.6,6.5-9.1,9.8-13.4c3.2-4.3,6.4-8.6,9.4-12.7
			c3-4.2,5.8-8.3,8.4-12.5l0.5-0.8l1.3-1.3c1.5-1.5,2.4-2.1,3.1-2.7l1.5-1.1c0.3-0.2,0.5-0.4,0.5-0.4c-0.1,0-0.3,0.1-1.3,1l-1.4,1.6
			c10.3-14.7,20.9-29.1,31.6-43.4c10.7-14.3,21.6-28.3,32.4-42.3c10.8-14,21.6-27.9,32.3-41.9c10.7-14,21.3-27.9,31.7-42l-1,1.5
			c2.7-4.4,5.4-8.1,7.8-11.3c2.4-3.2,4.4-5.9,6-8.3l1.1-1.8c7.7-9.7,15.2-19.5,22.9-29.3l22.9-29.6c7.7-9.9,15.4-19.8,23.3-29.6
			l5.9-7.3l2.9-3.5c0.6-0.7,0.8-1,1.2-1.6l1.3-1.9l5.4-7.6c1.9-2.6,3.7-5.2,5.7-7.8l0.5-0.8c1.5-1.4,2.9-3.1,4.4-5
			c1.6-1.9,3.2-3.9,5.1-5.9l-0.5,0.9c1.6-2.4,3.4-4.8,5.2-7c1.8-2.3,3.5-4.5,5.3-6.7l5.3-6.6C720.7,655,722.5,652.8,724.2,650.5z"/>
	</g>
	<g>
		<linearGradient id="SVGID_5_" gradientUnits="userSpaceOnUse" x1="540.9943" y1="1119.4015" x2="589.991" y2="1119.4015">
			<stop  offset="0" style="stop-color:#322336"/>
			<stop  offset="0.3717" style="stop-color:#573145"/>
			<stop  offset="0.7583" style="stop-color:#773C52"/>
			<stop  offset="0.9721" style="stop-color:#834157"/>
		</linearGradient>
		<path class="st5" d="M571.8,1110.1c3.5,3.5,5.3,5.9,7.3,8.4c1.7,2.3,2.9,4.3,3.7,6c0.8,1.7,1.2,3.2,1.3,4.4c0.1,1.2-0.2,2.2-0.7,3
			c-0.5,0.8-1.4,1.4-2.6,1.7c-1.2,0.3-2.6,0.5-4.6,0.3c-1.9-0.2-4.1-0.6-6.9-1.4c-3-1-5.9-1.9-10.4-3.9c-3.5-3.6-5.3-6-7.2-8.5
			c-1.7-2.4-2.9-4.3-3.7-6c-0.9-1.7-1.3-3.1-1.4-4.3c-0.1-1.2,0.1-2.1,0.7-2.9c0.5-0.7,1.3-1.3,2.5-1.6c1.2-0.3,2.6-0.4,4.5-0.2
			c1.9,0.2,4.1,0.6,6.9,1.4C564.3,1107.3,567.2,1108.1,571.8,1110.1z"/>
	</g>
	<path class="st6" d="M626.6,495.9c48.7,40.3,3.9,87.9,91.4,109.3c-24.4,61.9,18.5,41.7,16.3,131c-2,83.3-8.2,146.9,44.8,142.9
		c9.7,63.7,111.1,180.8,148.4,274.5l266.3,158.9l0.9-103.3c-48.4-227.9-90.1-301.7-122.3-380.9c-15.1,26.6-50.3,7.3-70.9-13.7
		c-144.4-147.3-298.9-310-440.1-461.6C579.4,396.6,595,469.8,626.6,495.9z"/>
	<g>
		<linearGradient id="SVGID_6_" gradientUnits="userSpaceOnUse" x1="1136.6346" y1="1173.1323" x2="1194.9545" y2="1173.1323">
			<stop  offset="0" style="stop-color:#3C283B"/>
			<stop  offset="0.8534" style="stop-color:#5F3B4E"/>
			<stop  offset="1" style="stop-color:#663E52"/>
		</linearGradient>
		<path class="st7" d="M1189.1,1268.5c-0.8-0.7-1.4-1.7-1.9-2.6c-0.5-0.9-1-1.9-1.4-2.9c-0.8-2-1.6-4-2.3-6.1
			c-1.4-4.1-2.5-8.2-3.6-12.4c-2.2-8.3-4.1-16.7-5.9-25.1c-3.6-16.8-6.6-33.7-9.7-50.5c-3-16.8-5.9-33.7-9-50.4
			c-1.6-8.4-3.2-16.7-5-24.9c-0.9-4.1-1.9-8.1-3-12c-0.6-1.9-1.2-3.8-1.8-5.5c-0.3-0.8-0.7-1.6-1-2.2c-0.2-0.3-0.3-0.6-0.4-0.7
			c-0.1-0.1-0.2-0.2,0.1,0.1l4.9,1.9c-0.6,0-1.2-0.1-1.8-0.2c-0.6-0.2-1.2-0.4-1.7-0.6c-1-0.5-1.6-1.1-2.1-1.6
			c-0.9-1-1.1-1.6-1.4-2.1c-0.4-0.9-0.5-1.3-0.6-1.6c-0.2-0.6-0.2-0.8-0.2-0.7c0,0.1,0.1,0.3,0.3,0.9c0.2,0.3,0.4,0.7,0.9,1.3
			c0.5,0.6,1.4,1.4,2.9,2c1.4,0.5,3,0.5,3.9,0.3c0.9-0.2,1.5-0.5,1.9-0.7c0.7-0.4,0.9-0.6,1.1-0.8c0.3-0.3,0.2-0.2,0.2-0.2
			c0,0.1-0.1,0.2-0.2,0.4c-0.2,0.3-0.5,0.8-0.7,1.2l0.2-7c0.8,1.6,1.3,3,1.7,4.2c0.4,1.3,0.8,2.5,1.1,3.7c0.7,2.4,1.2,4.8,1.8,7.1
			c1.1,4.7,2,9.3,2.8,14c0.9,4.6,1.7,9.3,2.5,13.9l2.2,13.9c2.9,18.5,5.3,37,7.7,55.5l7.1,55.4c1.2,9.2,2.4,18.5,3.9,27.6
			c0.7,4.6,1.5,9.2,2.4,13.7c0.5,2.3,1,4.5,1.6,6.8c0.3,1.1,0.6,2.2,1,3.3c0.4,1.1,0.8,2.2,1.4,3.2c-1.6-1.8-2.6-3.9-3.7-6
			c-1-2.1-1.9-4.3-2.7-6.5c-1.6-4.4-3.1-8.9-4.4-13.4c-2.7-9-5-18.1-7.2-27.2c-4.3-18.2-8-36.6-11.5-54.9
			c-1.8-9.2-3.4-18.4-5.1-27.5l-4.9-27.5l-2.5-13.7c-0.8-4.6-1.6-9.1-2.5-13.6c-0.9-4.5-1.8-9-2.8-13.4c-0.5-2.2-1-4.4-1.6-6.5
			c-0.3-1-0.6-2.1-0.9-3c-0.3-0.9-0.6-1.8-0.9-2.3l-1.8-3.7l2-3.4c0.4-0.6,0.7-1.2,1.2-1.9c0.2-0.3,0.5-0.7,0.8-1.1
			c0.3-0.4,0.7-0.9,1.4-1.6c0.4-0.3,0.8-0.8,1.8-1.3c0.5-0.3,1.2-0.6,2.3-0.9c1.1-0.3,2.8-0.3,4.3,0.3c1.6,0.6,2.6,1.5,3.2,2.2
			c0.6,0.7,0.9,1.3,1.1,1.7c0.4,0.9,0.5,1.3,0.6,1.7c0.1,0.4,0.2,0.6,0.2,0.8c0,0.2,0.1,0.3,0,0.3c0,0,0-0.1-0.3-0.7
			c-0.2-0.3-0.3-0.8-1.1-1.7c-0.4-0.5-1-1-1.9-1.5c-0.5-0.2-1-0.4-1.6-0.6c-0.6-0.1-1.1-0.2-1.7-0.2l4.9,1.9c1.1,1,1.6,1.9,2.2,2.6
			c0.5,0.8,0.8,1.4,1.2,2.1c0.6,1.3,1.1,2.5,1.5,3.7c0.8,2.3,1.5,4.5,2.1,6.7c1.2,4.4,2.1,8.7,2.9,13c1.7,8.6,3,17.1,4.3,25.6
			c2.5,17,4.5,34,6.4,51l5.6,51c1,8.5,1.9,17,3.1,25.4c0.6,4.2,1.3,8.4,2,12.6c0.4,2.1,0.8,4.2,1.4,6.2c0.3,1,0.6,2,0.9,3
			C1188.1,1266.6,1188.5,1267.6,1189.1,1268.5z"/>
	</g>
	<g>
		<path class="st8" d="M1059.4,866c11,14.4,21.3,29.1,31.7,43.8l15.5,22.1c5.1,7.4,10.4,14.7,15.2,22.6c2.4,4,4.6,8.1,6.5,12.4
			c1.9,4.2,3.5,8.5,5.1,12.7l2.3,6.4c0.7,2.1,1.5,4.3,2.3,6.4c1.5,4.3,2.9,8.7,4.2,13c5.1,17.4,8.8,35,13.1,52.5
			c-7-16.7-12.4-33.9-18.8-50.6c-1.6-4.2-3.2-8.3-5-12.4l-1.3-3c-0.4-1-1-2-1.5-3l-3-6c-2-4-3.9-8-5.9-11.9c-1-1.9-2-3.8-3.1-5.7
			c-1.1-1.9-2.2-3.7-3.3-5.6c-2.3-3.7-4.7-7.4-7.2-11.2l-7.3-11.3c-4.9-7.6-9.6-15.3-14.2-23.1
			C1075.4,898.5,1066.8,882.6,1059.4,866z"/>
	</g>
	<g>
		<linearGradient id="SVGID_7_" gradientUnits="userSpaceOnUse" x1="853.1647" y1="1016.9154" x2="1115.9197" y2="1016.9154">
			<stop  offset="0" style="stop-color:#663E52"/>
			<stop  offset="0.1466" style="stop-color:#5F3B4E"/>
			<stop  offset="1" style="stop-color:#3C283B"/>
		</linearGradient>
		<path class="st9" d="M859.4,905.4c1,1.2,2.2,2.3,3.4,3.3c1.2,1,2.5,1.8,3.9,2.5l0,0l0.2,0.2c11.2,10.1,22.2,20.3,33.2,30.4
			c11,10.1,22,20.3,33,30.3l16.6,15l16.7,14.9c2.8,2.4,5.6,4.9,8.4,7.4l8.4,7.4c2.8,2.4,5.6,4.9,8.4,7.4l8.5,7.3l0.3,0.2l0.2,0.2
			c0.8,0.8,1.2,1.4,1.6,1.9c0.4,0.5,0.6,0.9,0.8,1.3l0.5,0.8c0.1,0.2,0.2,0.3,0,0.1l-0.4-0.4c8.9,7.8,17.9,15.6,27,23.3l27.2,23.2
			l3.4,2.9c1.1,0.9,2.2,1.9,3.4,2.9c2.3,1.9,4.6,3.8,6.9,5.7c4.6,3.9,9.2,7.8,13.7,11.7c9,7.8,18,15.7,27.3,23.3
			c-10.8-5.3-21.1-11.7-31.2-18.2l-15-9.8l-7.5-4.9c-2.5-1.7-5-3.5-7.5-5.2l-7.3-5.2l-7.3-5.3c-4.9-3.5-9.7-7.1-14.4-10.8
			c-9.6-7.3-19-14.8-28.2-22.5l-0.2-0.2l-0.2-0.2c-0.8-0.8-1.2-1.4-1.6-1.9c-0.4-0.5-0.6-0.9-0.9-1.2c-0.2-0.3-0.4-0.6-0.6-0.8
			c-0.1-0.2-0.2-0.3,0-0.1l0.4,0.4c-5.7-4.9-11.5-9.7-17.1-14.7c-5.6-5-11.3-10-16.8-15.1l-8.2-7.7c-2.7-2.6-5.4-5.2-8.1-7.9
			c-2.7-2.6-5.4-5.3-8-7.9l-7.9-8.1c-10.5-10.8-20.6-21.9-30.5-33.3c-9.8-11.4-19.3-23.1-28.3-35.2l0.2,0.2c-1.3-1-2.5-2.2-3.5-3.4
			C861,908.2,860.1,906.8,859.4,905.4z"/>
	</g>
	<g>
		<path class="st8" d="M849.8,816.1c16.5,19.3,32.8,38.5,49.6,57.3c16.7,18.9,33.8,37.4,51.3,55.4c17.5,18.1,35.4,35.8,53.7,53.1
			c18.3,17.3,37,34.2,55.9,51.2c-21.4-13.7-41.7-29-61.1-45.3c-19.4-16.3-38-33.7-55.6-52c-17.6-18.3-34.4-37.4-50.1-57.4
			C877.7,858.5,863,837.8,849.8,816.1z"/>
	</g>
	<g>
		<path class="st8" d="M952.2,893.4c12,11,23.7,22,35.7,32.7c11.9,10.7,24.1,21.1,36.5,31.1c12.4,10,25.1,19.8,38.1,29.1
			c13,9.4,26.3,18.4,39.7,27.7c-15.3-5.5-29.9-12.8-44-21.1c-14-8.3-27.4-17.7-40.1-27.9c-12.7-10.3-24.6-21.4-35.7-33.3
			C971.4,919.7,961.1,907,952.2,893.4z"/>
	</g>
	<g>
		<path class="st8" d="M865.6,967.1c15.2,13.7,30.8,26.9,46.8,39.6c16,12.7,32.3,24.9,49,36.6c16.7,11.6,33.8,22.8,51.3,33.1
			c17.4,10.5,35.2,20.3,53.4,29.4l-3.8,8.6c-17.9-6.6-35.5-14.1-52.8-22l-12.9-6l-12.9-6.2l-12.7-6.4l-12.7-6.6
			c-16.8-8.9-33.5-17.9-50-27.3c-16.5-9.4-32.9-18.9-49.3-28.5l5.1-6.6c10.8,11.2,22.1,21.9,33.9,32.1c11.8,10.1,24,19.8,36.8,28.8
			c12.7,9,25.9,17.5,39.5,25.2c3.4,1.9,6.8,3.8,10.2,5.7c3.4,1.8,6.9,3.6,10.4,5.4l10.5,5.2l10.7,4.9l-11-4.1
			c-3.6-1.5-7.3-2.9-10.9-4.5c-3.6-1.6-7.2-3.2-10.8-4.8c-3.5-1.7-7.1-3.4-10.6-5.1c-14-7.1-27.8-14.9-41-23.5
			c-13.2-8.6-26.1-17.8-38.3-27.8c-12.3-9.9-24.1-20.5-35.3-31.6l-22.3-22l27.4,15.3c16.5,9.3,33.1,18.5,49.7,27.6
			c16.6,9.1,33.2,18.2,50,26.8l12.6,6.4l12.7,6.3l12.7,6.2l12.8,6c17.1,8,34.5,15.3,52,22.1l-3.8,8.6c-18.2-9.6-36.1-19.8-53.5-30.7
			c-17.3-11-34.3-22.6-50.7-35c-16.4-12.3-32.4-25.3-47.7-38.9C894.5,996.1,879.8,981.9,865.6,967.1z"/>
	</g>
	<g>
		<path class="st10" d="M742.4,583.3L737,582l0.3-0.5l12.1,13.6l12.2,13.5l12.3,13.4l12.4,13.3c4.1,4.4,8.3,8.8,12.5,13.2l6.3,6.6
			l6.3,6.5c8.5,8.7,16.9,17.3,25.6,25.8l17.1,16.8L833.4,692c-7.5-4.5-14.7-9.4-21.8-14.4c-7.1-5.1-13.9-10.5-20.6-16.1l-4.9-4.3
			l-4.8-4.4l-4.8-4.5l-4.7-4.6c-6.2-6.1-12-12.5-17.6-19.2c6.3,5.9,12.8,11.7,19.3,17.3c3.3,2.8,6.6,5.5,9.9,8.3l5.1,4l5.1,4
			c6.8,5.3,13.8,10.2,21,15.1c7.1,4.8,14.4,9.3,21.8,13.7l-3.5,4.6c-8.7-8.5-17.4-17-25.8-25.9c-4.2-4.4-8.4-8.8-12.5-13.3
			c-4.1-4.5-8.1-9-12.2-13.6c-4-4.5-8-9.2-11.9-13.8l-5.8-7l-5.7-7.1l-5.7-7.1l-5.6-7.2c-3.7-4.8-7.3-9.7-10.9-14.6l-0.6-0.8
			l0.9,0.3L742.4,583.3z"/>
	</g>
	<g>
		<path class="st11" d="M581.7,388.7c-1.4,8.1-0.9,16.4,0.9,24.4c1.8,8,4.7,15.7,8.1,23.1c0.9,1.9,1.7,3.7,2.6,5.6
			c0.4,0.9,1,1.8,1.5,2.7l0.8,1.3l0.8,1.3c2.2,3.4,4.9,6.5,7.7,9.4c5.7,5.8,12.4,10.6,19.1,15.2c3.4,2.3,6.8,4.6,10.2,7.1
			c1.8,1.3,3.3,3.1,4.3,5.1c1,2,1.4,4.3,1.5,6.4c0.1,2.2,0,4.3-0.2,6.4c-0.1,1-0.2,2.1-0.4,3.1c-0.1,1-0.3,2.1-0.5,3.1
			c-0.8,4.1-1.8,8-2.4,12c-0.6,4-1,8-0.1,11.7c0.2,0.9,0.5,1.8,0.9,2.6c0.4,0.8,0.9,1.6,1.5,2.2c1.2,1.3,2.8,2.2,4.5,2.7
			c1.7,0.6,3.6,0.7,5.6,0.6c2,0,4-0.2,6.1-0.3c2.1-0.1,4.3-0.2,6.5,0.1c2.2,0.3,4.4,1,6.4,2.1l0.1,0l0.1,0.1
			c1.9,1.4,3.5,3.4,4.6,5.5c1.1,2.1,1.6,4.4,2.1,6.4l0,0.1l0,0.1c0.5,3,0.6,6.1,0.2,9.1c-0.4,3-1.1,6-2.2,8.8
			c-2.1,5.6-5.3,10.7-8.8,15.4l-0.8-3c10.5,4.3,20.9,8.8,31.2,13.6c10.3,4.7,20.6,9.6,30.8,14.6l2.1,1l-1.1,2.1l-22.4,41.7l-2.7-3.5
			c3.3-0.8,6.9-0.8,10.1,0.2c3.2,0.9,6.1,2.6,8.6,4.6c2.5,2,4.7,4.3,6.5,6.9c1.8,2.6,3.3,5.4,4.5,8.3c2.4,5.8,3.6,11.8,4.3,17.8
			c0.4,3,0.6,6,0.9,8.9c0.2,3,0.5,5.9,0.7,8.9c0.8,11.9,1.1,23.7,1.2,35.6c0,5.9,0,11.9,0,17.8c0,5.9-0.2,11.9-0.4,17.8
			c-0.5,11.8-1.2,23.6-0.6,35.3c0.6,11.6,2.4,23.2,6.9,33.7c1.1,2.6,2.4,5.2,3.9,7.6c1.5,2.4,3.2,4.7,5,6.8
			c3.7,4.1,8.6,7.1,13.8,9.6c2.6,1.3,5.3,2.4,8.1,3.8c2.7,1.4,5.5,3.1,7.8,5.6c2.3,2.4,3.9,5.8,4.2,9.2c0.3,3.5-0.7,6.7-1.7,9.6
			c-0.5,1.4-1,2.8-1.5,4.1c-0.4,1.3-0.7,2.6-0.9,3.9c-0.3,2.6-0.1,5.3,0.9,7.7c0.9,2.5,2.4,4.8,4.2,6.9c1.8,2.1,4,3.9,6.3,5.5
			c2.3,1.7,4.8,3.2,7.3,4.8c2.5,1.5,5.1,3.3,7.5,5.3c2.4,2,4.5,4.3,6.3,7c1.7,2.6,3.1,5.5,3.9,8.6l0.3,1.1l0.2,1.1
			c0.1,0.8,0.3,1.5,0.4,2.3c0.2,1.5,0.4,3,0.5,4.6c0.2,3,0.2,6.1,0.1,9.1c-0.2,6-0.7,11.9-0.7,17.7c0,2.9,0.2,5.8,0.6,8.6
			c0.1,0.7,0.3,1.4,0.4,2.1l0.2,1l0.3,1c0.2,0.7,0.4,1.4,0.6,2c0.2,0.7,0.5,1.3,0.8,1.9c1.1,2.5,2.7,4.8,4.7,6.8c2,2,4.3,3.6,6.8,5
			c1.3,0.7,2.5,1.3,3.9,2c1.3,0.6,2.7,1.3,4,2c2.6,1.4,5.3,3,7.6,5.1c2.4,2,4.4,4.5,5.9,7.2c1.5,2.7,2.5,5.6,3.4,8.4
			c1.9,5.6,3.5,11.3,6.6,16.1c1.5,2.4,3.5,4.5,5.7,6.5c2.1,2,4.5,3.7,6.9,5.5c4.8,3.4,9.8,6.6,14.4,10.5c2.2,2,4.3,4.2,6,6.7
			c1.7,2.5,2.9,5.3,3.5,8.3c1.3,5.9,0.3,12-0.8,17.8c-0.6,2.9-1.2,5.8-1.5,8.7c-0.4,2.9-0.4,5.9,0,8.8c-0.6-2.9-0.6-5.9-0.3-8.9
			c0.3-3,0.8-5.9,1.3-8.8c1-5.8,1.7-11.8,0.4-17.5c-0.7-2.8-1.9-5.5-3.5-7.9c-1.7-2.4-3.7-4.5-5.9-6.4c-4.5-3.8-9.6-6.8-14.5-10.2
			c-4.9-3.4-9.7-7.1-13.2-12.2c-3.4-5.1-5.2-11-7.1-16.5c-1-2.8-2-5.5-3.4-7.9c-1.4-2.4-3.2-4.6-5.4-6.4c-2.1-1.8-4.6-3.3-7.2-4.7
			c-1.3-0.7-2.6-1.3-3.9-1.9c-1.3-0.6-2.7-1.3-4.1-2c-2.7-1.5-5.3-3.2-7.5-5.4c-2.3-2.2-4.1-4.8-5.4-7.6c-0.3-0.7-0.6-1.5-0.9-2.2
			c-0.2-0.7-0.4-1.5-0.7-2.2l-0.3-1.1l-0.2-1.1c-0.1-0.8-0.3-1.5-0.5-2.3c-0.5-3-0.7-6.1-0.8-9.1c-0.1-6,0.4-12,0.5-17.8
			c0.1-2.9,0-5.8-0.2-8.7c-0.1-1.4-0.3-2.8-0.5-4.3c-0.1-0.7-0.3-1.4-0.4-2.1l-0.2-1l-0.3-1c-0.7-2.7-2-5.2-3.5-7.5
			c-1.6-2.3-3.5-4.3-5.7-6.1c-2.2-1.8-4.5-3.3-7.1-4.9c-2.5-1.5-5.1-3.1-7.6-4.8c-2.5-1.8-5-3.7-7.1-6.1c-2.1-2.4-3.9-5.1-5-8.2
			c-1.2-3.1-1.6-6.5-1.1-9.7c0.2-1.6,0.6-3.2,1-4.7c0.5-1.5,1-2.9,1.5-4.2c1-2.7,1.7-5.3,1.4-7.8c-0.2-2.4-1.3-4.7-3.1-6.6
			c-1.8-1.9-4.1-3.4-6.6-4.6c-2.5-1.3-5.2-2.4-8-3.7c-2.7-1.3-5.4-2.8-8-4.5c-2.6-1.7-5-3.8-7.2-6.1c-2.2-2.3-4-4.8-5.6-7.4
			c-1.6-2.6-3.1-5.3-4.3-8.2c-4.9-11.3-6.8-23.4-7.4-35.4c-0.6-12,0.1-23.9,0.6-35.7c0.2-5.9,0.4-11.7,0.4-17.7c0-5.9,0-11.8,0-17.7
			c-0.1-11.8-0.4-23.6-1.2-35.3c-0.9-11.7-1.2-23.7-5.4-34.1c-2.1-5.2-5.3-9.9-9.5-13.3c-2.1-1.7-4.5-3-6.9-3.7
			c-2.5-0.8-5-0.8-7.5-0.2l-5.3,1.3l2.6-4.7l22.6-41.5l1,3.1c-10.1-5.1-20.3-10-30.5-14.7c-10.3-4.7-20.6-9.4-31-13.8l-2.4-1l1.5-2
			c3.4-4.5,6.4-9.2,8.4-14.4c2-5.1,2.9-10.6,2-16l0,0.1c-0.5-2.1-1-4-1.8-5.8c-0.8-1.7-2-3.2-3.5-4.3l0.2,0.1
			c-1.6-0.9-3.3-1.5-5.2-1.8c-1.9-0.3-3.8-0.3-5.8-0.2c-2,0.1-4.1,0.3-6.2,0.2c-1.1,0-2.1,0-3.2-0.2l-0.8-0.1
			c-0.3,0-0.6-0.1-0.8-0.2c-0.6-0.1-1.1-0.3-1.6-0.4c-2.1-0.7-4.3-1.8-5.9-3.6c-0.8-0.9-1.4-1.9-2-2.9c-0.5-1.1-0.9-2.1-1.1-3.2
			c-0.5-2.2-0.6-4.4-0.5-6.5c0.1-2.1,0.4-4.2,0.7-6.3c0.7-4.1,1.7-8.1,2.6-12.1c0.2-1,0.4-2,0.6-3c0.1-1,0.3-2,0.4-3
			c0.2-2,0.4-4,0.3-5.9c-0.1-1.9-0.5-3.8-1.2-5.5c-0.2-0.4-0.4-0.8-0.6-1.2c-0.3-0.4-0.5-0.8-0.8-1.1c-0.3-0.4-0.6-0.7-0.9-1
			l-0.5-0.5c-0.2-0.2-0.4-0.3-0.6-0.5c-3.2-2.4-6.6-4.8-9.9-7.2c-6.7-4.8-13.3-9.8-19.1-15.8c-2.9-3-5.5-6.3-7.7-9.8l-0.8-1.3
			l-0.8-1.4c-0.5-0.9-1-1.8-1.4-2.8c-0.9-1.9-1.7-3.8-2.5-5.7c-3.2-7.6-6.1-15.4-7.7-23.5C580.4,405.1,580.1,396.7,581.7,388.7z"/>
	</g>
	<g>
		<path class="st12" d="M755.1,909.1c-7.2,20.2-16,39.8-25.6,58.9c-9.6,19.1-20,37.9-31,56.2c-11.1,18.3-22.8,36.2-35.2,53.6
			c-12.4,17.4-25.4,34.4-39.5,50.6c10-19,20.8-37.4,31.6-55.8c10.9-18.3,21.8-36.5,32.8-54.7l33.1-54.5
			C732.4,945.4,743.5,927.1,755.1,909.1z"/>
	</g>
	<g>
		<path class="st12" d="M708.9,651.4c-6,20.5-13.8,40.4-22.5,59.9c-8.8,19.4-18.6,38.4-29.5,56.8c-10.8,18.4-22.6,36.3-35.3,53.4
			c-12.8,17.1-26.5,33.5-41.6,48.6c11.2-18.2,22.6-36,33.8-54c11.2-17.9,22.1-36,32.8-54.2c10.7-18.2,21.1-36.5,31.4-55
			C688.3,688.6,698.3,670,708.9,651.4z"/>
	</g>
	<g>
		<path class="st12" d="M480,633.8c-12.3,34.1-26.8,67.5-42.8,100.1c-16,32.6-33.5,64.5-52.3,95.6c-18.9,31.1-39.2,61.2-60.8,90.4
			c-21.7,29.1-44.7,57.3-69.6,83.7c21-29.6,41.8-59.1,61.9-89.1c20.1-30,39.5-60.4,58.3-91.2c18.7-30.8,36.8-62,54.2-93.7
			C446.4,697.9,463.2,665.9,480,633.8z"/>
	</g>
	<g>
		<path class="st12" d="M422,645.3c-13.4,29.2-28.5,57.6-44.5,85.5c-16,27.8-33.1,55.1-51.1,81.8c-18,26.6-36.9,52.7-56.7,77.9
			c-19.9,25.2-40.6,49.8-62.8,73.1c18.3-26.4,36.9-52.5,55.2-78.7c18.3-26.2,36.5-52.5,54.4-79c17.9-26.5,35.5-53.1,53-80
			C387.1,699.1,404.3,672.2,422,645.3z"/>
	</g>
	<g>
		<path class="st12" d="M606.8,916.1c-10.5,20.9-23.2,40.6-36.9,59.6c-13.7,18.9-28.6,37-44.1,54.5c-15.5,17.5-31.6,34.3-48.2,50.7
			c-16.6,16.4-33.3,32.5-51,47.8c14-18.7,28.9-36.6,44.1-54.2c15.2-17.6,30.7-34.9,46.1-52.2c15.4-17.3,30.7-34.7,45.6-52.3
			C577.5,952.3,592.1,934.3,606.8,916.1z"/>
	</g>
	<g>
		<path class="st10" d="M508.9,908.1c-9.4,20.6-20.1,40.7-31.5,60.3c-2.9,4.9-5.8,9.8-8.8,14.6l-9.1,14.4c-3.1,4.8-6.3,9.4-9.4,14.2
			l-9.7,14l-10.1,13.7c-3.4,4.5-6.8,9.1-10.3,13.6l-10.7,13.3c-3.6,4.4-7.3,8.7-10.9,13c-14.8,17.2-30.4,33.8-47,49.2
			c14.5-17.4,28.8-34.9,42.8-52.7l5.2-6.7l5.2-6.7l10.2-13.5l10.1-13.6l9.9-13.7l9.8-13.8c3.2-4.6,6.3-9.3,9.6-14l9.4-14
			c3.1-4.7,6.2-9.4,9.3-14.1C485,946.6,497,927.4,508.9,908.1z"/>
	</g>
	<g>
		<linearGradient id="SVGID_8_" gradientUnits="userSpaceOnUse" x1="240.107" y1="816.2675" x2="645.6001" y2="816.2675">
			<stop  offset="2.793296e-02" style="stop-color:#834157"/>
			<stop  offset="0.8554" style="stop-color:#8F5256"/>
			<stop  offset="1" style="stop-color:#925656"/>
		</linearGradient>
		<path class="st13" d="M625,504.3c-3,15-6.6,29.9-10.7,44.6c-4,14.8-8.6,29.4-13.4,43.9c-9.7,29-20.7,57.6-32.9,85.7
			c-12.2,28.1-25.5,55.6-39.8,82.7c-7.1,13.5-14.5,26.9-22.1,40.2c-7.6,13.3-15.3,26.5-23.4,39.4l-12.2,19.3l-12.4,19.3l-6.2,9.6
			c-2.1,3.2-4.1,6.4-6.3,9.5c-4.3,6.3-8.7,12.5-13,18.8c-4.4,6.2-8.7,12.5-13.2,18.7c-4.4,6.2-8.8,12.4-13.3,18.6
			c-9.2,12.2-18.4,24.3-27.7,36.3c-4.6,6-9.4,12-14.1,18c-4.8,5.9-9.6,11.8-14.5,17.6c-9.7,11.7-19.6,23.3-29.5,34.9
			c-10,11.4-20.2,22.8-30.6,33.9c-10.4,11.2-20.8,22.3-31.8,33c14.2-27.2,29.4-53.5,45-79.6c7.7-13.1,15.5-26.1,23.4-39l11.9-19.3
			c3.9-6.5,7.8-12.9,11.8-19.3c7.9-12.9,15.9-25.6,24-38.4c7.9-12.8,15.7-25.7,23.8-38.4c4-6.4,8-12.7,12.1-19.1
			c2-3.2,4-6.4,5.9-9.6l5.9-9.6l11.8-19.2l11.9-19.1c31.6-51.1,62.1-102.6,91.9-154.7c14.9-26.1,29.6-52.3,44.1-78.8
			c7.3-13.2,14.5-26.5,21.8-39.8C610.2,531.1,617.4,517.7,625,504.3z"/>
	</g>
	<g>
		<path class="st10" d="M654.9,588.1c-7.9,20.4-17.7,40.1-28,59.3c-2.6,4.8-5.2,9.6-7.9,14.4L611,676l-16.4,28.3l-8.3,14.1
			l-8.1,14.2l-8,14.2l-3.9,7.2l-4,7.1c-10.3,19.1-19.9,38.6-28.7,58.7c6.1-21,14.4-41.4,23.9-61.1c2.4-4.9,4.8-9.8,7.3-14.7
			l7.7-14.5c2.6-4.8,5.3-9.6,8-14.3l8.2-14.2c5.6-9.4,11.1-18.8,16.8-28.1l8.5-14c2.8-4.7,5.6-9.3,8.4-14
			C633.4,626,644.4,607.2,654.9,588.1z"/>
	</g>
	<g>
		<path class="st11" d="M610.3,896.4c16.6-32.3,33.6-64.4,49.5-97c16-32.5,31.2-65.5,44.6-99.2l2.5-6.3l2.4-6.3
			c1.6-4.2,3.3-8.4,4.8-12.7l2.3-6.4l1.2-3.2l0.6-1.6c0.1-0.2,0.3-0.7,0.4-1c0.1-0.4,0.4-0.7,0.6-1.1c0.1-0.2,0.2-0.3,0.4-0.5
			l0.5-0.5c0.3-0.3,0.7-0.6,1.1-0.8c0.4-0.3,0.9-0.4,1.3-0.5c0.4-0.1,0.9-0.2,1.4-0.2c1.8,0,3.5,0.9,4.6,2.2c1.1,1.3,1.6,3,1.6,4.6
			c0,0.8-0.2,1.6-0.3,2.1l-0.4,1.7c-3.9,17.8-8.2,35.4-13.1,53c-4.9,17.5-10.3,34.9-16.2,52.1c-3,8.6-6,17.2-9.3,25.7
			c-1.6,4.3-3.3,8.5-4.9,12.7c-0.8,2.1-1.7,4.2-2.5,6.3l-1.3,3.2l-0.6,1.6c-0.1,0.4-0.2,0.7-0.3,1c-0.1,0.6,0.1,1.1,0.4,1.6
			c0.3,0.5,0.7,0.7,1,0.7c0.3,0,0.5,0,0.8-0.4c0.1-0.1,0.2-0.2,0.3-0.4c0,0,0.1-0.2,0.2-0.3l0.2-0.4l0.9-1.5l6.9-11.7
			c4.6-7.8,9.1-15.7,13.6-23.5c4.5-7.9,9-15.8,13.4-23.7l3.3-5.9l0.4-0.7c0-0.1,0.2-0.3,0.3-0.5l0.3-0.5c0.5-0.7,1.2-1.3,2-1.8
			c0.4-0.2,0.9-0.4,1.4-0.5c0.5-0.1,1-0.2,1.5-0.2c0.2,0,0.5,0,0.7,0c0.2,0,0.5,0.1,0.7,0.2c0.5,0.1,0.9,0.3,1.3,0.5
			c1.6,0.8,2.7,2.3,3.2,4c0.1,0.4,0.2,0.8,0.3,1.2c0.1,0.4,0.1,0.8,0.1,1.2c0,0.4,0,0.8-0.1,1.2l-0.1,0.6l-0.1,0.3l-0.1,0.2l-2,6.5
			l-16,52l-4,13l-1,3.3l-0.3,0.8l-0.1,0.4l-0.1,0.2l0,0.1c-0.1,0.4-0.1,0.7-0.1,1c0,0.7,0.3,1.3,0.7,1.7c0.4,0.4,0.9,0.6,1.3,0.6
			c0.4,0,0.8-0.3,1.3-1l2-2.8l4-5.5l8-11.1l4-5.5l0.2-0.3c0.1-0.1,0.2-0.3,0.4-0.4c0.3-0.3,0.5-0.6,0.9-0.8c0.3-0.3,0.7-0.5,1.1-0.7
			c0.2-0.1,0.4-0.2,0.6-0.3c0.2-0.1,0.4-0.1,0.7-0.1c0.9-0.2,1.8,0,2.6,0.2c0.8,0.3,1.5,0.7,2.1,1.3c1.2,1.1,1.9,2.6,2,4.1
			c0.1,0.8,0,1.6-0.2,2.3c-0.2,0.7-0.5,1.5-0.7,1.9l-2.9,6.1l-11.7,24.6L702.8,906l-23.7,49l-11.8,24.5l-6,12.2c-0.5,1-1,2-1.4,3.1
			c-0.4,1-0.7,2.1-0.7,3.3c0,0.6,0.2,1.1,0.5,1.5c0.2,0.2,0.4,0.4,0.6,0.5c0.3,0,0.5,0,0.8-0.2c0.5-0.3,0.8-0.8,0.9-1.4
			c0.1-0.3,0.1-0.6,0-0.8c-0.1-0.3-0.4-0.4-0.7-0.3c0.3,0,0.6,0,0.7,0.3c0.1,0.3,0.1,0.6,0,0.8c-0.2,0.5-0.5,1.1-0.9,1.4
			c-0.2,0.2-0.5,0.3-0.8,0.2c-0.3-0.1-0.5-0.3-0.7-0.5c-0.4-0.5-0.6-1-0.6-1.6c-0.2-2.4,1.1-4.5,1.9-6.5l5.6-12.4l11.3-24.8
			l22.6-49.5l22.8-49.4l11.4-24.7l2.9-6.2c0.3-0.6,0.4-0.9,0.5-1.2c0.1-0.4,0.1-0.7,0.1-1.1c-0.1-0.7-0.4-1.4-0.9-1.8
			c-0.5-0.5-1.1-0.7-1.5-0.5c-0.1,0-0.1,0-0.2,0c-0.1,0-0.1,0.1-0.2,0.1c-0.1,0-0.2,0.1-0.3,0.2c-0.1,0.1-0.2,0.2-0.3,0.4
			c-0.1,0.1-0.1,0.1-0.2,0.2l-0.2,0.3l-3.9,5.6l-7.8,11.1l-3.9,5.6l-1.9,2.8c-0.8,1.2-2.2,2.6-4.2,2.8c-1.9,0.2-3.7-0.6-4.8-1.8
			c-1.2-1.2-1.8-2.8-1.9-4.4c0-0.8,0.1-1.6,0.3-2.3l0.1-0.3l0.1-0.2l0.1-0.4l0.2-0.8l1-3.3l3.9-13l15.7-52.1l2-6.5l0.1-0.2l0-0.1
			l0.1-0.2c0.1-0.2,0-0.3,0.1-0.5c0-0.2,0-0.3,0-0.4c0-0.2,0-0.3-0.1-0.4c-0.2-0.5-0.5-1-0.9-1.2c-0.4-0.2-0.7-0.2-1,0
			c-0.1,0.1-0.3,0.2-0.5,0.5l-0.1,0.2c0,0.1-0.1,0.1-0.2,0.2l-0.4,0.7l-3.3,6c-4.4,7.9-8.9,15.8-13.4,23.7
			c-4.5,7.9-9,15.8-13.6,23.6l-6.9,11.8l-0.9,1.5l-0.2,0.4c-0.1,0.1-0.1,0.2-0.3,0.4c-0.2,0.3-0.5,0.7-0.7,1c-0.3,0.3-0.6,0.6-1,0.9
			c-0.4,0.3-0.8,0.5-1.3,0.7c-0.5,0.2-1,0.3-1.5,0.4c-0.3,0-0.5,0-0.8,0.1c-0.2,0-0.5,0-0.7-0.1c-4-0.6-6.1-4.5-5.7-7.8
			c0.1-0.8,0.4-1.7,0.6-2.3l0.6-1.6l1.3-3.1c0.8-2.1,1.7-4.2,2.5-6.3c1.7-4.2,3.3-8.4,4.9-12.7c3.2-8.5,6.3-17,9.3-25.5
			c5.9-17.1,11.3-34.4,16.3-51.8c5-17.4,9.4-35,13.4-52.6c0.2-1,0.6-2.4,0.6-2.9c0-0.7-0.2-1.3-0.5-1.7c-0.4-0.4-0.9-0.7-1.3-0.7
			c-0.4,0-0.8,0.2-1.1,0.6c-0.1,0.1-0.2,0.2-0.2,0.4c-0.1,0.2-0.1,0.3-0.2,0.6l-0.6,1.6l-1.2,3.2l-2.4,6.4
			c-1.6,4.3-3.3,8.5-4.9,12.7l-2.5,6.3l-2.6,6.3c-13.8,33.6-29.5,66.5-45.9,98.8c-8.3,16.2-16.8,32.2-25.4,48.1l-13,23.9
			L610.3,896.4z"/>
	</g>
	<g>
		<path class="st11" d="M687.7,609.5c-8.4,19.7-17.4,39.2-26.5,58.6c-4.5,9.7-9.3,19.3-13.9,29l-14.3,28.8l-14.6,28.6
			c-5,9.5-9.9,19-15,28.5c-10.1,18.9-20.4,37.7-31.3,56.2c9-19.5,18.4-38.8,27.8-58c2.3-4.8,4.7-9.6,7.1-14.4l7.1-14.4l14.4-28.7
			L643,695l7.3-14.3c2.4-4.8,4.9-9.5,7.4-14.3C667.5,647.3,677.4,628.3,687.7,609.5z"/>
	</g>
	<g>
		<path class="st11" d="M850.4,1088.8c-0.7,3.8-1.9,7.3-3.1,10.8c-1.3,3.5-2.8,6.9-4.4,10.2c-1.6,3.3-3.4,6.6-5.4,9.7
			c-2,3.1-4.1,6.2-6.7,9c0.7-3.8,1.9-7.3,3.1-10.8c1.3-3.5,2.8-6.9,4.4-10.2c1.6-3.3,3.4-6.5,5.4-9.7
			C845.7,1094.7,847.8,1091.6,850.4,1088.8z"/>
	</g>
	<g>
		<path class="st11" d="M772.5,1128.2c4.5-7.6,9.1-15.1,13.5-22.7l3.3-5.7l3.3-5.7l6.4-11.5l3.1-5.8l3.1-5.8l3-5.8l3-5.9
			c3.9-7.9,7.6-15.8,11.1-23.9l4.5,1.9l-2.6,6.2l-1.3,3.1l-0.7,1.6l-0.3,0.8l-0.2,0.4l-0.1,0.2l-0.1,0.1l0,0.1l-0.1,0.1l-0.1,0.1
			c0,0-0.1,0.1-0.2,0.3c-1.8-0.4,3.6,1.5-4.3-0.8c-0.2-1.3-0.1-0.7-0.1-1.1c0-0.3,0-0.2,0.1-0.3l0-0.1l0-0.1l0-0.1l0.1-0.1l0.1-0.2
			l0.2-0.4l0.3-0.8l0.7-1.6l1.3-3.1c0.9-2.1,1.8-4.2,2.8-6.2l4.5,2c-3.3,7.7-6.7,15.3-10.1,22.9c-3.4,7.6-6.9,15.2-10.3,22.9
			c-1.7,3.8-3.5,7.6-5.3,11.4c-1.8,3.8-3.5,7.6-5.3,11.4c-1.8,3.8-3.7,7.5-5.5,11.3c-1.9,3.7-3.8,7.5-5.7,11.2
			c3-7.8,6.2-15.5,9.3-23.3c1.5-3.9,3.1-7.8,4.6-11.7c1.6-3.9,3.1-7.8,4.7-11.6c3.2-7.7,6.3-15.5,9.5-23.2
			c3.2-7.7,6.4-15.4,9.7-23.1l4.5,2c-0.9,2-1.8,4.1-2.7,6.1l-1.3,3.1l-0.6,1.5l-0.3,0.8l-0.1,0.4l-0.1,0.2l0,0.1c0,0,0,0,0,0l0,0
			l0-0.1c0,0,0,0,0-0.2c0-0.4,0.1,0.2-0.1-1.1c-7.9-2.3-2.5-0.4-4.3-0.8c-0.1,0.1-0.2,0.3-0.2,0.3l-0.1,0.1l0,0c0,0,0,0,0,0l0-0.1
			l0.1-0.2l0.2-0.4l0.3-0.8l0.7-1.5l1.3-3.1l2.6-6.2l4.5,1.9c-3.6,8.1-7.4,16.1-11.6,23.9l-3.1,5.9l-3.2,5.8l-3.3,5.7l-3.4,5.7
			l-3.4,5.7l-3.6,5.6c-2.4,3.7-4.8,7.4-7.3,11.1C782.9,1114,777.8,1121.2,772.5,1128.2z"/>
	</g>
	<g>
		<path class="st11" d="M787.1,1000.5c-3.3,11.2-7.2,22.2-11.4,33.1c-4.2,10.9-8.7,21.7-13.4,32.4c-4.8,10.7-9.7,21.2-15.1,31.6
			c-5.3,10.4-11,20.6-17,30.7c4.1-11,8.8-21.7,13.5-32.3c4.6-10.7,9.3-21.4,14-32c4.7-10.6,9.5-21.3,14.4-31.8
			C776.9,1021.5,781.8,1010.9,787.1,1000.5z"/>
	</g>
	<g>
		<path class="st11" d="M576.9,378.6c-1.8,16.1-5.8,32-11,47.5l-4.1,11.5l-4.5,11.3l-4.8,11.2l-5.1,11.1
			c-6.9,14.7-14.1,29.3-21.1,43.9l-5.1,11l-4.9,11.1l-4.6,11.2l-4.3,11.3l-4.4-2c6.1-10.8,12.9-21.2,20-31.3
			c7.1-10.1,14.4-20,21.4-30.1c7.1-10,13.9-20.2,19.9-30.8c6-10.6,11.4-21.6,15.4-33.1l3.4,1.4c-3.6,7.4-7.2,14.8-10.7,22.2
			c-3.5,7.4-6.8,15-10.1,22.5c-3.3,7.5-6.4,15.1-9.6,22.8c-3.1,7.6-6.1,15.3-9,23c2.5-7.9,5.1-15.7,7.9-23.4
			c2.7-7.8,5.7-15.5,8.7-23.2c3-7.7,6.2-15.3,9.4-22.9c3.3-7.6,6.6-15.1,10.2-22.6l3.4,1.4c-3.9,11.8-9,23.2-15,34.1
			c-6,10.9-12.8,21.3-19.8,31.4c-7,10.1-14.3,20.1-21.3,30.2c-7,10.1-13.8,20.3-19.8,30.9l-4.4-2l4.4-11.5l4.7-11.3l5.1-11.1l5.3-11
			c7.1-14.6,14.7-29,21.8-43.5l5.3-10.9l5.1-11l4.8-11.1l4.5-11.3C569.6,410.2,574.2,394.6,576.9,378.6z"/>
	</g>
	<g>
		<path class="st8" d="M610.9,977.6c-7.8,13.5-16.2,26.7-24.8,39.6c-4.3,6.5-8.6,13-13,19.4c-4.4,6.4-9.1,12.7-13.7,19
			c-9.2,12.5-18.7,25-28.3,37.2c-4.8,6.2-9.9,12.1-14.9,18c-5.1,5.9-10.2,11.8-15.5,17.6c4.1-6.7,8.4-13.1,12.7-19.6l6.6-9.6
			c1.1-1.6,2.2-3.2,3.3-4.8l3.3-4.8c8.8-12.9,17.8-25.5,27.1-38l13.9-18.7c4.6-6.3,9.2-12.5,14-18.7
			C591.1,1001.7,600.7,989.5,610.9,977.6z"/>
	</g>
	<g>
		<path class="st11" d="M672.9,540.1c-2.6,5.2-5.3,10.4-8,15.6c-1.3,2.6-2.7,5.1-4.1,7.7c-1.4,2.6-2.8,5.1-4.2,7.7
			c-2.8,5.1-5.6,10.2-8.5,15.2c-2.9,5.1-5.8,10.1-8.7,15.1l-4.2-2.4c1.8-3.3,3.6-6.7,5.4-10.1c1.8-3.4,3.6-6.7,5.3-10.1
			c3.4-6.8,6.9-13.6,10.1-20.5l2.4-5.2l0.6-1.3l0.3-0.6c0.1-0.1,0-0.1,0.1-0.2c0,0,0-0.1,0-0.1c0.1-0.3,0-0.6-0.2-0.7
			c-0.1-0.1-0.1-0.1-0.1-0.1c0,0,0-0.1-0.1,0.1l-0.1,0l-0.2,0.2c-0.1,0.1-0.2,0.3-0.4,0.4c-0.2,0.1-0.3,0.3-0.5,0.4
			c-0.2,0.1-0.4,0.2-0.6,0.3c-0.9,0.3-1.9,0.2-2.6-0.1c-1.5-0.7-2.3-2.4-2.1-3.9c0-0.4,0.1-0.7,0.2-1l0.2-0.7l0.5-1.4l0.2-0.7
			c0.1-0.1,0.1-0.2,0.1-0.2c0-0.1,0-0.1,0-0.2c0-0.3,0-0.5,0-0.8c-0.2-0.5-0.6-0.8-0.9-0.7c-0.2,0-0.4,0.1-0.8,0.5
			c-0.4,0.3-0.7,0.6-1,0.9c-0.7,0.6-1.3,1.3-2,2c-1.3,1.4-2.5,2.9-3.6,4.4c-0.6,0.8-1,1.6-1.6,2.4c-0.2,0.2-0.4,0.4-0.6,0.5
			c-0.2,0.1-0.6,0.2-0.8,0c-0.4-0.3-0.7-0.9-0.3-1.3c-0.3,0.4,0.1,1,0.4,1.1c0.4,0.2,0.8-0.2,1-0.6c0.4-0.8,0.8-1.7,1.3-2.6
			c0.9-1.7,1.9-3.4,3.1-5c0.6-0.8,1.2-1.6,1.8-2.3c0.3-0.4,0.6-0.7,1-1.1c0.3-0.3,0.8-0.9,1.6-1.1c0.7-0.3,1.6-0.2,2.3,0.2
			c0.7,0.4,1.2,0.9,1.5,1.5c0.3,0.6,0.4,1.4,0.4,2c0,0.2,0,0.3-0.1,0.5c0,0.2-0.1,0.4-0.1,0.4l-0.2,0.7l-0.4,1.4l-0.2,0.7
			c0,0.1,0,0.3,0,0.4c0,0.4,0.3,0.8,0.5,0.8c0.1,0,0.1,0,0.1,0c0,0,0,0,0,0c0,0,0,0,0-0.1c0,0,0-0.1,0.1-0.1l0.2-0.3
			c0.4-0.6,1.2-1.2,2.2-1.4c1-0.2,1.9,0.1,2.6,0.6c1.4,1,2.1,2.8,1.8,4.3c0,0.4-0.2,0.8-0.3,1.1l-0.3,0.7l-0.5,1.3l-2.2,5.3
			c-3,7.1-6.1,14.1-9.6,21c-1.7,3.5-3.4,6.9-5.2,10.3c-1.8,3.4-3.7,6.8-5.6,10.1l-4.2-2.4c3-5,6-10,9.1-14.9c3-5,6.2-9.9,9.3-14.8
			c1.5-2.5,3.2-4.9,4.7-7.3c1.6-2.4,3.2-4.9,4.8-7.3C666.3,549.7,669.6,544.9,672.9,540.1z"/>
	</g>
	<path class="st14" d="M630.2,518.4c0.1-3.3,0.2-6.6,0.3-9.9c0.2-5.7,0.3-11.8-1.9-16.9c-1.8-4-4.8-7-7.8-9.8
		c-5.3-5.2-10.7-10.3-16-15.5c-3.4-3.3-6.9-6.6-9.1-11s-3.2-10.1-1.2-14.7"/>
	<g>
		<path class="st12" d="M586.6,540.5c-12.9,34-27.7,67.1-43.6,99.8c-16,32.6-33.2,64.6-51.5,96c-18.3,31.4-37.8,62.1-58.4,92
			c-20.6,29.9-42.4,59-65.7,86.8c19.3-30.7,38.8-61.2,57.9-92c19-30.7,37.7-61.7,55.9-92.9c18.2-31.2,36-62.6,53.5-94.3
			C552.1,604.3,569.2,572.3,586.6,540.5z"/>
	</g>
	<g>
		<path class="st12" d="M200.8,1122.6c2,1.5,3,2.6,3.6,3.4c0.6,0.9,0.7,1.5,0.5,2c-0.2,0.5-0.8,0.8-1.8,0.9c-1.1,0.1-2.5,0-4.9-0.6
			c-2-1.5-3-2.6-3.6-3.4c-0.6-0.9-0.7-1.5-0.5-2c0.2-0.5,0.8-0.8,1.8-0.9C197,1121.9,198.4,1122,200.8,1122.6z"/>
	</g>
	<g>
		<path class="st15" d="M1176,924.4c-4.3,3.1-8.9,5.3-13.5,7.5c-2.3,1-4.7,1.9-7.1,2.9c-2.3,0.9-4.8,1.8-7.1,2.6
			c-9.7,3.2-19.4,6-29.4,8.4c-19.8,5.1-39.9,8.9-60.1,12.7c-20.2,3.6-40.4,7-60.8,10.2c-20.3,3.2-40.8,6.1-61.4,9.5
			c10.4,1,20.9,1.6,31.2,1.6c10.4,0.1,20.9-0.3,31.2-0.9c20.7-1.3,41.5-3.8,62.1-7.6c20.6-3.9,40.9-8.8,60.6-15.8
			c9.8-3.5,19.7-7.5,29-12.4c1.2-0.6,2.3-1.3,3.5-1.9c1-0.6,2.3-1.3,3.4-1.9c2.2-1.4,4.5-2.9,6.6-4.4
			C1168.6,931.8,1172.8,928.4,1176,924.4z"/>
	</g>
	<g>
		<path class="st16" d="M1070.9,966.5l-65.4,5.8c-10.9,1-21.8,1.9-32.8,2.7l-4.1,0.3c-1.4,0.1-2.7,0.1-4.1,0.3l-4.1,0.3l-4.1,0.1
			l-4.1,0.3c-1.4,0-2.7,0-4.1,0c-1.4,0-2.7,0-4.1-0.1l-4.1-0.3c2.7,0.6,5.4,1.4,8,1.7c1.4,0.3,2.7,0.4,4.1,0.6l4.1,0.4
			c1.4,0.1,2.9,0.3,4.1,0.3l4.1,0.3c1.4,0.1,2.9,0.1,4.1,0.1h4.1c11,0,22-0.6,33-1.6s21.9-2.3,32.8-4.1
			C1049.6,971.5,1060.3,969.6,1070.9,966.5z"/>
	</g>
	<g class="st17">
		<path d="M471.1,565.6c15.4-3.9,29.8-7.7,44.1-11.6l21.4-5.8c3.6-0.9,7.2-1.9,10.8-2.8l5.4-1.4l5.4-1.3c7-1.7,13.3-3.4,18.1-5.5
			c1.2-0.5,2.3-1.1,3.4-1.6c1-0.6,2-1.1,2.9-1.7c1.8-1.2,3.6-2.4,5.5-3.9c3.7-2.9,7.5-6.4,11.6-10.5c2-2.1,4.1-4.2,6.3-6.6l3.3-3.6
			c1.2-1.3,2.8-2.9,4.5-4.6c1.8-1.7,3.9-3.6,6.5-5.7c2.6-2,5.7-4.1,9.4-6.2c3.7-2,8.3-4,13.5-5.3c5.2-1.3,11-2,16.8-1.7
			c2.9,0.2,5.7,0.5,8.5,1.1c2.7,0.6,5.3,1.3,7.8,2.2c4.9,1.8,9.2,4,12.9,6.4c1.8,1.2,3.6,2.4,5.1,3.6c1.6,1.2,3.1,2.5,4.4,3.8
			c2.7,2.5,5.1,5,7.3,7.6c2.1,2.5,4,5,5.8,7.6l1.2,1.7l1,1.6l1.8,2.8l2.9,4.6c0.8,1.3,1.5,2.3,2,3c1,1.5,1.5,1.8,0.9,1.2
			c-0.1-0.1-0.2-0.2-0.3-0.2c-0.1-0.1-0.2-0.2-0.3-0.3c-0.1-0.1-0.3-0.2-0.4-0.3c-0.1-0.1-0.3-0.2-0.4-0.2c-0.4-0.2-0.5-0.3-0.4-0.2
			c0.5,0.3,2.4,0.9,5.6,2l5.8,1.9c2.2,0.7,4.9,1.7,7.7,2.8c1.5,0.6,2.9,1.2,4.4,2c1.5,0.7,2.9,1.4,4.3,2.2c2.8,1.5,5.3,3.1,7.7,4.7
			c2.4,1.6,4.6,3.2,6.7,4.9c2.1,1.7,4,3.3,5.8,4.9c1.8,1.6,3.5,3.2,5.1,4.7c1.6,1.5,3,3,4.5,4.6c3,3.2,6.2,6.5,9.3,10.4
			c3.1,3.8,6.2,8,9.1,12.6c2.9,4.6,5.6,9.8,7.8,15.2c2.2,5.4,3.7,10.7,4.8,15.7c1.1,5.1,1.7,9.9,2.1,14.5c0.4,4.6,0.5,8.9,0.5,13
			c0,2,0,4-0.1,6l0,1.4c0,0.2,0,0.7,0,1l0.1,1.2l0.1,1.2l0,1l0,2c0,5.1-0.4,9.2-0.7,13.3c-0.4,4-0.8,7.8-1.2,11.4
			c-0.9,7.3-1.6,14.4-2.3,21.3c-0.7,7-1.2,13.8-1.5,20.6c-0.3,6.8-0.4,13.5-0.2,20.1c0.2,6.6,0.6,13.2,1.5,19.6
			c0.8,6.4,2,12.8,3.6,19c3.2,12.3,8.2,24.1,15.3,34.7c7,10.7,16.3,20.2,27.3,28.2c5.5,4,11.4,7.7,17.5,11c6.2,3.3,12.6,6.3,19.3,9
			c3.3,1.4,6.7,2.6,10.2,3.8c3.5,1.1,6.9,2.3,10.4,3.3c1.8,0.5,3.5,1.1,5.3,1.6l5.3,1.4c3.6,1,7.2,1.8,10.8,2.7
			c-7.4,0.6-14.9,0.9-22.4,0.8c-1.9,0-3.8,0-5.7-0.1l-5.7-0.3c-3.8-0.3-7.6-0.6-11.4-1.1c-3.8-0.4-7.6-1.1-11.4-1.7
			c-3.8-0.8-7.6-1.6-11.4-2.6c-7.5-2-15.1-4.5-22.4-7.7c-14.7-6.3-28.8-15.6-40.7-27.5c-5.9-5.9-11.3-12.5-16.1-19.5
			c-4.7-7-8.9-14.4-12.4-22c-7-15.3-11.6-31.3-14.6-47.3c-1.5-8-2.5-16-3.3-23.9c-0.7-7.9-1.2-15.8-1.5-23.6
			c-0.3-7.8-0.4-15.4-0.5-22.8c0-3.7-0.1-7.3-0.2-10.6c-0.1-3.3-0.3-6.6-0.6-8.8l-0.1-0.7c0-0.1,0-0.3-0.1-0.3l-0.1-0.2l-0.5-1.9
			l-1.4-5c-0.9-3.2-1.9-6.2-2.9-8.8c-2-5.3-4.1-9.3-6.2-11.8c-1-1.2-2.1-2.3-3.5-3.7c-1.4-1.4-2.9-2.8-4.9-4.5l-3-2.5
			c-1.1-0.9-2.2-1.8-3.4-2.7l-3.6-2.8c-1.2-0.9-2.3-1.7-3.3-2.5c-2.1-1.5-3.9-2.5-5.3-3.3c-0.7-0.4-1.3-0.7-1.8-0.8
			c-0.3-0.1-0.5-0.2-0.7-0.2l-0.7-0.2c-0.6-0.2-1.4-0.4-2.7-0.8l-4.7-1.3c-3.8-1-9-2.5-15.2-5.2c-3.2-1.4-6.6-3.1-10.1-5.3
			c-1.8-1.1-3.6-2.3-5.3-3.7c-0.8-0.7-1.7-1.3-2.5-2c-0.8-0.7-1.6-1.4-2.3-2.1c-6-5.6-10.1-11.2-13.2-15.8c-1.5-2.3-2.8-4.5-3.9-6.3
			l-2.8-4.9l-1.9-3.3c-0.3-0.5-0.5-1-0.7-1.3c-0.2-0.3-0.3-0.5-0.2-0.5c0.1,0,0.4,0.2,1,0.5c0.6,0.3,1.6,0.8,3.1,1.3
			c1.5,0.5,3.4,0.9,5.5,0.9c2.1,0.1,4.2-0.3,5.8-0.8c1.6-0.5,2.7-1.1,3.2-1.5c0.5-0.4,0.4-0.5,0-0.4c-0.4,0.1-1.2,0.5-2.2,1.2
			c-1,0.7-2.2,1.5-3.7,2.7l-2.5,1.8l-2.5,1.9c-3.4,2.5-7,5-10.8,7.4c-7.6,4.8-16.2,9.4-25.7,13c-4.8,1.8-9.8,3.3-15,4.3
			c-5.2,1.1-10.3,1.7-15.1,1.9c-4.8,0.2-9.4,0.1-13.7-0.2c-4.3-0.3-8.3-0.8-12.2-1.4l-5.6-0.9l-5.6-1c-3.7-0.6-7.5-1.4-11.3-2.1
			c-7.5-1.5-15.1-3.2-22.7-5.2C500,579.1,484.9,573.8,471.1,565.6z"/>
	</g>
	<g>
		<path class="st18" d="M599.9,330.4c-18.9-14.8-22.8-121.9-94.3-90.4c-34.1,15,26.7,158.1,62.8,120.9
			C587.1,341.8,608.6,337,599.9,330.4z"/>
		<path class="st18" d="M609.5,483.6c-5.7,12.4-5.7,40.9,0,50.5c5.7,9.6,44.7,20,36.1-29.5C637.1,455.1,609.5,483.6,609.5,483.6z"/>
		<path class="st18" d="M593.3,333.2c-2.3,12.6-16.2,7.6-23.8-11.4c-7.6-19-6.6-9.6-4.8,3.8c1.8,13.3,5.7,21.9-1.9,21.9
			c-7.6,0-26.7-21-23.8-10.5c2.9,10.5,29.5,17.1,11.4,18.1c-18.1,0.9-51.4,13.3-29.5,13.3c21.9,0,29.5,3.8,32.4,8.6
			s-15.3,18.1-0.9,15.3c14.3-2.9,22.8,14.3,26.7,21c3.8,6.6,14.3,30.4,30.4,27.6c16.6-3,13.3-51.4,10.5-60s18.1-33.3,6.6-28.6
			c-11.4,4.8-17.1-12.4,4.8-26.7s0-16.2-16.2-0.9c-16.2,15.3-6.6-4.8-8.6-18.1C604.6,293.2,595.2,322.7,593.3,333.2z"/>
		<g>
			<path class="st19" d="M385,429.4c1,2.2,2.6,5.4,13.3,2.9C395.6,429.5,392.5,425.7,385,429.4z"/>
			<path class="st19" d="M428.9,420.7c5.6-3.5,10-5.4,7.4-11.4C432.8,410.7,428.1,412.4,428.9,420.7z"/>
			<path class="st19" d="M556.4,375.1c1,2.2,2.6,5.4,13.3,2.9C567,375.2,563.9,371.4,556.4,375.1z"/>
			<path class="st19" d="M600.3,366.4c5.6-3.5,10-5.4,7.4-11.4C604.2,356.4,599.5,358.1,600.3,366.4z"/>
			<path class="st19" d="M264.7,354c-0.9,2.2-2.3,5.6,6.7,11.8C271.7,362,272.4,357.1,264.7,354z"/>
			<path class="st19" d="M290,373.3c6.3,1.8,10.8,3.8,13.5-2.1C300,369.5,295.7,367.2,290,373.3z"/>
		</g>
		<path d="M590,405.9c-8.9,13.8-18.2,19.7-32.9,20.8c-14.7,1-34,9.7-34,19.1s-16.3,20.9-19,29.6c-2.7,8.8-1.1,21.8-0.3,34.2
			c0.8,12.4,37.3,38.6,18.3,51.5c-16,10.8-54.2,13.9-56.9-35.1c-2.6-49.1-12.6-87.5,6.4-111.4c19.2-23.8,44.1-79.7,55.9-77.7
			C539.3,338.7,590,405.9,590,405.9z"/>
		<path d="M611.8,484.2c-6,13-6,42.9,0,52.9c6,10,46.9,21,38-31C640.8,454.2,611.8,484.2,611.8,484.2z"/>
		<path d="M664.8,7.4c-15.7-8.2,53.9,125.7,7,189.5c-46.9,63.9-89.8,84.9-128.6,92.8c-38.9,8,128.6,123.7,143.7,111.7
			c15-11.9-6-32.9,14-40.9c20-8,65.8-36.9,88.7-10c8.9,45,8,52.9,11,74.9c6-11.9,8.9-35.9,17-28c8,8,21,226.5,15.9,275.3
			c18-41.8,36.9-81.7,55.8-144.7c4,20,8,75.8,6,93.8C905.1,580.9,1082.7,225.8,664.8,7.4z"/>
		<path d="M473.2,277.8c-7-17-52.9-205.5-178.5-210.5c22.9,88.7,65.8,77.9,71.8,130.7c14,11,38,95.7,38,124.8
			C435.4,333.6,473.2,277.8,473.2,277.8z"/>
		<path d="M578,285.7c-21.1-7.5-98.7-50.9-142.6-13c-43.9,38-50.9,101.7-46.9,124.8c4,23.1,52.9,43.9,56.9,28.9
			c4-15,7-28.9,21.9-29.9s1.9,11.9,3,25c8.9,10,33.9,28.9,41.8,31.9s96.8,35.9,116.7,50.9c20,15,81.7,15,102.7,43.9
			s33.2,62.7,42.9,101.4C805,772,786.3,869.3,911.1,887.3c87.6,12.6,155.6-15,181.5,1.9s22.9,53.9-52.9,63.9
			c-75.8,10-164.7,29.9-56.9,25c107.8-4.9,269.3-40.9,171.5-104.8c-97.8-63.9-258.3,0-281.3-74.9C832.6,665.8,893.2,397.5,578,285.7
			z"/>
		<path d="M415.4,383.5c-2.3,13.2-17,8-25-11.9c-8-20-7-10-5.1,4c1.9,14,6,22.9-1.9,22.9c-8,0-28-21.9-25-11c3,11,31,18,11.9,18.9
			c-18.9,1-53.9,14-31,14c22.9,0,31,4,33.9,8.9s-15.9,18.9-1,15.9c15-3,24,15,28,21.9c4,7,15,31.9,31.9,28.9
			c17.5-3.1,14-53.9,11-62.8s18.9-35,7-29.9s-18-13,5.1-28c22.9-15,0-17-17-1c-17,15.9-7-5.1-8.9-18.9
			C427.3,341.5,417.3,372.5,415.4,383.5z"/>
		<path d="M305.5,332.6c-11,7.6-17.6-6.3-9.2-26.2c8.4-19.7,2.1-11.9-6.3-0.6s-11.9,20.5-17.6,14.8c-5.7-5.7-4.1-35.4-9.8-25.4
			c-5.7,9.8,9.2,34.5-4.9,21.9c-14.1-12.6-47.9-28.2-31.7-11.9c16.3,16.3,19,24.6,17.6,30.3c-1.4,5.7-24.6,2.1-11.9,10.6
			c12.7,8.6,6.3,27.6,4.1,35.4c-2.1,7.8-11.9,33.2,2.1,43c14.5,10.2,47.9-28.2,52.2-36.7c4.3-8.4,38.1-11.3,26.2-16.3
			c-11.9-4.9-3.5-21.9,23.2-16.3c26.7,5.6,11.9-11.9-11.3-12.7c-23.2-0.6-1.4-8.4,7.1-19.7C343.6,311.5,314.7,326.2,305.5,332.6z"/>
		<path d="M387.4,320.7c-98.7,30.3-114.8,41.8-120.7,25.9c-6-15.9,17-67.9,64.9-96.8c47.9-28.9,125.5-17.9,169.6,0
			c142.6,57.9-15,69.8-15,69.8S465.3,296.7,387.4,320.7z"/>
		<g>
			<linearGradient id="SVGID_9_" gradientUnits="userSpaceOnUse" x1="394.5013" y1="331.0414" x2="483.3532" y2="331.0414">
				<stop  offset="0" style="stop-color:#000000"/>
				<stop  offset="1" style="stop-color:#000000"/>
			</linearGradient>
			<path class="st20" d="M482,261.3c-13.6,6.1-25.9,13.9-36.6,23.3c-10.7,9.5-19.8,20.5-26.7,32.8c-6.9,12.3-11.7,25.8-14.3,39.9
				c-2.6,14.1-3,28.6-1.4,43.4c-5.7-13.8-7.6-29.3-6.4-44.5c1.3-15.2,5.8-30.3,13.3-43.7c7.6-13.5,18.1-25.1,30.5-34.1
				C452.9,269.6,467.2,263.4,482,261.3z"/>
		</g>
		<linearGradient id="SVGID_10_" gradientUnits="userSpaceOnUse" x1="576.3517" y1="352.948" x2="509.0703" y2="225.6199">
			<stop  offset="0" style="stop-color:#000000"/>
			<stop  offset="1" style="stop-color:#000000"/>
		</linearGradient>
		<path class="st21" d="M601.8,323.6c-19.8-15.4-24-127.7-98.7-94.8c-35.8,15.8,28,165.6,65.8,126.7
			C588.5,335.7,610.9,330.6,601.8,323.6z"/>
		<path d="M682.7,485.2c-14.5,6-20,45.9-15,58.8c5.1,13,10,21,22.9,25c13,4,51.8,21.9,50.9,11c-1-11-18.9-17-26.9-25.9
			c-8-8.9-5.1-28,11.9-35.9C743.6,510.2,716.6,471.2,682.7,485.2z"/>
		<g>
			<path class="st22" d="M632.5,347.5c-0.9,1.6-1.7,3.1-2.5,4.7l-2.3,4.7l-2.3,4.7c-0.8,1.6-1.6,3.2-2.2,4.9
				c1.4-1.2,2.5-2.6,3.5-4.1c1-1.6,1.9-3,2.7-4.5c0.8-1.6,1.4-3.2,1.9-5.1C632,351,632.4,349.3,632.5,347.5z"/>
		</g>
		<g>
			<path class="st22" d="M550.1,386.9l4.4,0.3c1.4,0.1,2.9,0.3,4.1,0.5c1.3,0.3,2.9,0.5,4.1,0.8l4.3,1c-1-1-2.3-1.9-3.8-2.5
				c-1.4-0.6-2.9-1-4.4-1.3c-1.6-0.3-3-0.3-4.5-0.1C552.9,385.8,551.6,386.2,550.1,386.9z"/>
		</g>
		<path d="M588.3,419.6c7,7,43.9,36.9,54.9,42.9c-22.9,8-32.9,8.9-43.9,21.9c-11,13-17.1,46-27.5,47.5c-10.5,1.4-41.5,2.3-44.4,17.4
			c-3,15,72.8,29.9,82.8,17c10-13,7-38.9,15.9-45c8.9-6,57.9-24,61.8-45.9c3.9-21.9-22.9-96.8-93.8-107.8"/>
		<g>
			<path class="st22" d="M643.9,310c-1.9,1.9-4.3,3.5-6.7,4.9c-1.2,0.6-2.3,1.6-3.6,2.3c-1.2,0.8-2.3,1.7-3.4,2.6
				c-2.2,1.9-4.1,4-5.8,6.3c-1.7,2.3-3.2,4.8-4.3,7.4c1.8-2.2,3.6-4.4,5.4-6.3c1.9-1.9,3.9-4,6-5.8c2.1-1.8,4.3-3.4,6.6-5.2
				C640.3,314.6,642.6,312.5,643.9,310z"/>
		</g>
		<path class="st23" d="M595,326.6c-2.3,13.2-17,8-25-11.9c-8-20-7-10-5.1,4c1.9,14,6,22.9-1.9,22.9s-28-21.9-25-11
			c3,11,31,18,11.9,18.9c-18.9,1-53.9,14-31,14s31,4,33.9,8.9c3,4.9-15.9,18.9-1,15.9c15-3,24,15,28,21.9c4,7,15,31.9,31.9,28.9
			c17.5-3.1,14-53.9,11-62.8c-3-8.9,18.9-35,7-29.9s-18-13,5.1-28c22.9-15,0-17-17-1s-7-5.1-8.9-18.9
			C606.9,284.6,596.9,315.6,595,326.6z"/>
		<g>
			<path class="st24" d="M607.8,296.8c-0.5,2.3-0.8,4.7-1,7.1c-0.3,2.5-0.4,4.7-0.5,7.1c-0.1,2.3-0.1,4.7,0,7.1
				c0,1.2,0.1,2.3,0.5,3.6c0.3,1.2,0.9,2.3,1.8,3.2c-1-2.2-0.8-4.5-0.6-6.7c0.3-2.3,0.4-4.7,0.5-7.1c0.1-2.3,0.1-4.8,0-7.1
				C608.2,301.6,608.1,299.3,607.8,296.8z"/>
		</g>
		<g>
			<path class="st24" d="M565.3,315.9c-0.3-1.7-0.3-3.2-0.4-5.1c-0.1-1.6-0.1-3.2-0.1-4.9l-0.5,0.6l1.6-0.4l-1-0.6
				c0.4,2.6,1,5.1,1.9,7.5c0.8,2.5,1.9,4.9,3.1,7.1c1.2,2.3,2.6,4.5,4.1,6.5c1.6,2.1,3.2,4,5.3,5.7c-1.6-2.1-2.9-4.1-4.1-6.3
				c-1.3-2.2-2.5-4.4-3.6-6.7c-1-2.3-1.9-4.5-2.9-7c-0.8-2.3-1.6-4.8-2.2-7.1l-0.3-0.9l-0.8,0.3l-1.6,0.6l-0.5,0.3v0.5
				c0.1,1.7,0.3,3.4,0.6,5.1C564.3,312.6,564.6,314.3,565.3,315.9z"/>
		</g>
		<g>
			<path class="st24" d="M538.7,328.8c0,2.1,0.9,4.1,1.9,6.1c1.2,1.8,2.7,3.4,4.4,4.7c1.7,1.3,3.6,2.3,5.4,3.2
				c1.9,0.9,3.8,1.7,5.8,2.3c-1.6-1.4-3.2-2.6-5.1-3.6c-1.7-1-3.4-2.3-5.1-3.5C543.3,335.4,540.4,332.7,538.7,328.8z"/>
		</g>
		<g>
			<path class="st24" d="M543.9,365.4c-2.5-0.8-5.1-1.3-7.6-1.7c-2.6-0.4-5.2-0.6-7.9-0.8c-2.6-0.3-5.3-0.3-7.9-0.3
				c-1.3,0-2.6,0-3.9,0.1c-0.6,0-1.3,0.1-1.9,0.1s-1.2-0.1-1.7-0.6v0.1l0.4-0.6l-0.6,0.5h-0.1v0.1c0.3,0.6,1,1,1.8,1
				c0.6,0.1,1.3,0.3,1.9,0.3c1.3,0.3,2.6,0.3,3.9,0.5c1.3,0.1,2.6,0.3,3.9,0.4l3.9,0.3c2.6,0.1,5.2,0.3,7.8,0.4
				C538.6,365.4,541.3,365.4,543.9,365.4z"/>
		</g>
		<g>
			<g>
				<path class="st25" d="M605.7,364.1c0.9,1.9,7.6-2.3,5.3-9.2C607.5,357.1,604,360.2,605.7,364.1z"/>
				<g>
					<path class="st26" d="M607.7,357.7c0.3,0.5,0.4,1,0.6,1.6c0.1,0.5,0.3,1,0.3,1.6v0.1c0,0-0.1,0.1,0,0l0.3-0.1
						c0.1,0,0.1,0,0.1,0l-0.3-0.1c-0.3-0.1-0.4-0.3-0.6-0.4c-0.4-0.3-0.9-0.6-1.3-1c0.1,0.6,0.4,1.2,0.8,1.7
						c0.3,0.3,0.4,0.5,0.6,0.6c0.1,0.1,0.1,0.1,0.3,0.1c0.1,0,0.1,0.1,0.3,0.1c0.1,0,0.4-0.1,0.4-0.3c0.3-0.3,0.3-0.3,0.3-0.4
						c0-0.1,0.1-0.3,0.1-0.3c0.1-0.8-0.3-1.4-0.5-1.9C608.7,358.5,608.3,358,607.7,357.7z"/>
				</g>
				<g>
					<path class="st27" d="M606.6,358.4c0.3,0.6,0.6,1,1,1.6c0.3,0.4,0.6,0.8,1,1.4c0.3-0.3,0.3-0.6,0.3-1c-0.1-0.4-0.3-0.6-0.4-1
						C608.1,358.9,607.5,358.5,606.6,358.4z"/>
				</g>
				<g>
					<path class="st28" d="M608.1,357.8c0.3,0.1,0.4,0.3,0.4,0.4c0.1,0.3,0.3,0.4,0.3,0.6c0.3,0.4,0.3,0.8,0.4,1.2
						c0.3,0.8,0.3,1.6,0.1,2.5c0.4-0.3,0.6-0.6,0.6-1.2c0.1-0.5,0-1-0.1-1.6c-0.1-0.5-0.4-0.9-0.6-1.3c-0.1-0.3-0.3-0.4-0.5-0.5
						C608.6,357.8,608.3,357.7,608.1,357.8z"/>
				</g>
				<g>
					<path class="st28" d="M606.4,359.7c-0.1,0.6,0.3,1.3,0.6,1.8s1,0.8,1.7,0.8h0.3v-0.1c0-0.1-0.1-0.3-0.3-0.3
						c-0.1,0-0.1,0-0.1,0.1c0.1,0,0.1,0.1,0,0.1l0.3-0.1c-0.4-0.5-0.6-0.9-1-1.3C607.4,360.4,607,360.2,606.4,359.7z"/>
				</g>
				<g>
					<path class="st29" d="M610.5,355.5C610.5,355.4,610.5,355.5,610.5,355.5c0.1,0.1,0.1,0.1,0.1,0.3s0,0.3,0,0.3
						c0,0.3,0,0.4,0,0.5c0,0.4,0,0.6,0,1c0,0.6-0.1,1.6,0,2.3c0.5-0.6,0.6-1.4,0.6-2.2c0-0.4,0-0.8-0.3-1.2
						c-0.1-0.3-0.3-0.4-0.3-0.6c-0.1-0.1-0.1-0.3-0.3-0.3C610.8,355.5,610.5,355.4,610.5,355.5z"/>
				</g>
				<g>
					<path class="st29" d="M605.8,360.2c-0.6,0.5-0.8,1.4-0.6,2.2s0.6,1.6,1.4,1.9c-0.3-0.6-0.5-1.3-0.6-1.9
						C605.8,361.6,605.8,361,605.8,360.2z"/>
				</g>
			</g>
			<g>
				<path class="st25" d="M572.3,377.3c0.6,2.2-7.5,3-9.8-3.8C566.3,373.1,571.1,373.3,572.3,377.3z"/>
				<g>
					<path class="st26" d="M566.7,373.6c-0.3,0.6-0.3,1.2-0.3,1.8s0.3,1.2,0.8,1.8c0.1,0.1,0.3,0.1,0.3,0.3c0.1,0,0.1,0.1,0.4,0.3
						c0.1,0,0.3,0,0.4-0.3c0.1-0.1,0.1-0.3,0.3-0.3c0-0.1,0.1-0.3,0.1-0.3c0.1-0.3,0.1-0.6,0.1-0.9c0-0.6-0.1-1.3-0.5-1.8
						c-0.1,0.6-0.3,1.2-0.3,1.7c-0.1,0.3-0.3,0.5-0.3,0.8l-0.1,0.3c0,0,0,0,0.1-0.1c0.1-0.1,0.3-0.1,0.3-0.1c0.3,0,0.1,0,0,0
						c0,0-0.1,0-0.1-0.1c-0.3-0.3-0.5-0.8-0.6-1.3C567.1,374.8,566.7,374.4,566.7,373.6z"/>
				</g>
				<g>
					<path class="st27" d="M567.9,373.6c-0.5,0.5-0.8,1.2-0.8,1.9c0,0.3,0.1,0.6,0.3,1c0.3,0.3,0.4,0.6,0.8,0.6c0-0.6,0-1.2-0.1-1.8
						C568,374.9,568.1,374.4,567.9,373.6z"/>
				</g>
				<g>
					<path class="st28" d="M566.5,374c-0.3,0.1-0.4,0.3-0.5,0.6c-0.1,0.3,0,0.5,0,0.6c0,0.5,0.1,0.9,0.3,1.4
						c0.3,0.4,0.5,0.9,0.9,1.2c0.4,0.3,0.9,0.5,1.3,0.5c-0.8-0.5-1.2-1.2-1.6-1.9c-0.3-0.4-0.3-0.8-0.4-1.2
						c-0.1-0.3-0.1-0.4-0.3-0.6C566.3,374.4,566.3,374.2,566.5,374z"/>
				</g>
				<g>
					<path class="st28" d="M568.9,374.4c-0.3,0.6-0.3,1.2-0.3,1.7c-0.1,0.5-0.1,1-0.1,1.7h0.3c0,0.1-0.1,0,0-0.1c0,0-0.1,0-0.3,0
						c0,0-0.1,0.1,0,0.3l0.1,0.1l0.3-0.1c0.5-0.4,0.8-1,0.8-1.7C569.6,375.6,569.4,374.9,568.9,374.4z"/>
				</g>
				<g>
					<path class="st29" d="M563.1,373.8c-0.1-0.1-0.3,0.3-0.3,0.3c0,0.1,0,0.3,0,0.3c0,0.3,0.1,0.4,0.1,0.6c0.1,0.4,0.4,0.6,0.6,1
						c0.5,0.6,1.2,1,1.9,1.3c-0.4-0.6-0.9-1.2-1.4-1.8c-0.3-0.3-0.5-0.5-0.6-0.8c-0.1-0.1-0.3-0.3-0.3-0.4c-0.1-0.1-0.1-0.3-0.3-0.3
						C563.1,373.9,563.1,373.9,563.1,373.8L563.1,373.8z"/>
				</g>
				<g>
					<path class="st29" d="M569.7,374.4c0.5,0.6,0.9,1,1.3,1.7c0.3,0.6,0.6,1.2,0.8,1.9c0.4-0.6,0.3-1.6-0.1-2.3
						C571.1,375.1,570.5,374.4,569.7,374.4z"/>
				</g>
			</g>
		</g>
		<g>
			<g>
				<path class="st25" d="M427.1,424.8c0.9,1.9,7.6-2.3,5.3-9.2C429,417.8,425.4,421.1,427.1,424.8z"/>
				<g>
					<path class="st26" d="M429.1,418.6c0.3,0.5,0.4,1,0.6,1.6c0.1,0.5,0.3,1,0.3,1.6v0.1c0,0-0.1,0.1,0,0l0.3-0.1h0.1l-0.3-0.1
						c-0.3-0.1-0.4-0.3-0.6-0.4c-0.4-0.3-0.9-0.6-1.3-1c0.1,0.6,0.4,1.2,0.8,1.7c0.3,0.3,0.4,0.5,0.6,0.6c0.1,0.1,0.1,0.1,0.3,0.1
						c0.1,0,0.1,0.1,0.3,0.1c0.3,0,0.4-0.1,0.4-0.3c0.3-0.3,0.3-0.3,0.3-0.4c0-0.1,0.1-0.3,0.1-0.3c0.1-0.8-0.3-1.4-0.5-1.9
						C430.2,419.4,429.7,418.7,429.1,418.6z"/>
				</g>
				<g>
					<path class="st27" d="M428.1,419.2c0.3,0.6,0.6,1,1,1.6c0.3,0.4,0.6,0.8,1,1.4c0.3-0.3,0.3-0.6,0.3-1c-0.1-0.4-0.3-0.6-0.4-1
						C429.5,419.8,428.9,419.4,428.1,419.2z"/>
				</g>
				<g>
					<path class="st28" d="M429.5,418.7c0.3,0.1,0.4,0.3,0.4,0.4c0.1,0.3,0.3,0.4,0.3,0.6c0.3,0.4,0.3,0.8,0.4,1.2
						c0.3,0.8,0.3,1.6,0.1,2.5c0.4-0.3,0.6-0.6,0.6-1.2c0.1-0.5,0-1-0.1-1.6c-0.1-0.5-0.4-0.9-0.6-1.3c-0.1-0.3-0.3-0.4-0.5-0.5
						C430,418.7,429.7,418.6,429.5,418.7z"/>
				</g>
				<g>
					<path class="st28" d="M427.8,420.5c-0.1,0.6,0.3,1.3,0.6,1.8c0.4,0.5,1,0.8,1.7,0.8h0.3V423c0-0.1-0.1-0.3-0.3-0.3
						c-0.1,0-0.1,0-0.1,0.1c0.1,0,0.1,0.1,0,0.1l0.3-0.1c-0.4-0.5-0.6-0.9-1-1.3C428.9,421.3,428.4,420.9,427.8,420.5z"/>
				</g>
				<g>
					<path class="st29" d="M431.9,416.4C431.9,416.3,432,416.4,431.9,416.4c0.1,0.1,0.1,0.1,0.1,0.3s0,0.3,0,0.3c0,0.3,0,0.4,0,0.5
						c0,0.4,0,0.6,0,1c0,0.6-0.1,1.6,0,2.3c0.5-0.6,0.6-1.4,0.6-2.2c0-0.4,0-0.8-0.3-1.2c-0.1-0.3-0.3-0.4-0.3-0.6
						c-0.1-0.1-0.1-0.3-0.3-0.3C432.2,416.4,432,416.1,431.9,416.4z"/>
				</g>
				<g>
					<path class="st29" d="M427.3,420.9c-0.6,0.5-0.8,1.4-0.6,2.2c0.1,0.8,0.6,1.6,1.4,1.9c-0.3-0.6-0.5-1.3-0.6-1.9
						C427.2,422.5,427.2,421.7,427.3,420.9z"/>
				</g>
			</g>
			<g>
				<path class="st25" d="M393.6,438.2c0.6,2.2-7.5,3-9.8-3.8C387.7,433.9,392.6,434.1,393.6,438.2z"/>
				<g>
					<path class="st26" d="M388.1,434.5c-0.3,0.6-0.3,1.2-0.3,1.8c0.1,0.6,0.3,1.2,0.8,1.8c0.1,0.1,0.3,0.1,0.3,0.3
						c0.1,0,0.1,0.1,0.4,0.3c0.1,0,0.3,0,0.4-0.3c0.1-0.1,0.1-0.3,0.3-0.3c0-0.1,0.1-0.3,0.1-0.3c0.1-0.3,0.1-0.6,0.1-0.9
						c0-0.6-0.1-1.3-0.5-1.8c-0.1,0.6-0.3,1.2-0.3,1.7c-0.1,0.3-0.3,0.5-0.3,0.8l-0.1,0.3c0,0,0,0,0.1-0.1c0.1-0.1,0.3-0.1,0.3-0.1
						c0.3,0,0.1,0,0,0c0,0-0.1,0-0.1-0.1c-0.3-0.3-0.5-0.8-0.6-1.3C388.5,435.6,388.2,435.2,388.1,434.5z"/>
				</g>
				<g>
					<path class="st27" d="M389.4,434.5c-0.5,0.5-0.8,1.2-0.8,1.9c0,0.3,0.1,0.6,0.3,1c0.3,0.3,0.4,0.6,0.8,0.6c0-0.6,0-1.2-0.1-1.8
						C389.5,435.8,389.6,435.2,389.4,434.5z"/>
				</g>
				<g>
					<path class="st28" d="M387.9,434.8c-0.3,0.1-0.4,0.3-0.5,0.6c-0.1,0.3,0,0.5,0,0.6c0,0.5,0.1,0.9,0.3,1.4
						c0.3,0.4,0.5,0.9,0.9,1.2c0.4,0.3,0.9,0.5,1.3,0.5c-0.8-0.5-1.2-1.2-1.6-1.9c-0.3-0.4-0.3-0.8-0.4-1.2
						c-0.1-0.3-0.1-0.4-0.3-0.6C387.7,435.2,387.7,435.1,387.9,434.8z"/>
				</g>
				<g>
					<path class="st28" d="M390.3,435.3c-0.3,0.6-0.3,1.2-0.3,1.7c-0.1,0.5-0.1,1-0.1,1.7h0.3c0,0.1-0.1,0,0-0.1c0,0-0.1,0-0.3,0
						c0,0-0.1,0.1,0,0.3l0.1,0.1l0.3-0.1c0.5-0.4,0.8-1,0.8-1.7C391,436.5,390.9,435.8,390.3,435.3z"/>
				</g>
				<g>
					<path class="st29" d="M384.6,434.7c-0.1-0.1-0.3,0.3-0.3,0.3c0,0.1,0,0.3,0,0.3c0,0.3,0.1,0.4,0.1,0.6c0.1,0.4,0.4,0.6,0.6,1
						c0.5,0.6,1.2,1,1.9,1.3c-0.4-0.6-0.9-1.2-1.4-1.8c-0.3-0.3-0.5-0.5-0.6-0.8c-0.1-0.1-0.3-0.3-0.3-0.4c-0.1-0.1-0.1-0.3-0.3-0.3
						C384.6,434.8,384.6,434.8,384.6,434.7L384.6,434.7z"/>
				</g>
				<g>
					<path class="st29" d="M391,435.3c0.5,0.6,0.9,1,1.3,1.7c0.3,0.6,0.6,1.2,0.8,1.9c0.4-0.6,0.3-1.6-0.1-2.3
						C392.6,436,392,435.3,391,435.3z"/>
				</g>
			</g>
		</g>
		<g>
			<g>
				<path class="st25" d="M277,371.7c-1,1.9,6.7,4.8,10.9-1.2C284,369.1,279.1,368.1,277,371.7z"/>
				<g>
					<path class="st26" d="M283.5,369.6c-0.3,0.6-0.6,1-1,1.4c-0.4,0.4-0.6,0.9-1,1c0,0-0.1,0-0.1,0.1c0,0-0.3,0,0,0c0,0,0,0,0.1,0
						l0.1,0.1c0.1,0.1,0.1,0.1,0.1,0.1s0-0.1,0-0.3c0-0.3-0.1-0.5-0.1-0.8c0-0.5,0-1,0.1-1.7c-0.5,0.4-0.8,1-0.9,1.6
						c-0.1,0.3-0.1,0.6-0.1,1c0,0.1,0,0.1,0,0.3s0,0.3,0.3,0.3c0.1,0.1,0.1,0.1,0.3,0.3c0.1,0,0.1,0,0.3,0c0.3,0,0.3,0,0.4,0
						s0.3-0.1,0.3-0.1c0.6-0.4,1-1,1.3-1.6C283.5,370.9,283.7,370.1,283.5,369.6z"/>
				</g>
				<g>
					<path class="st27" d="M282.4,369.2c-0.4,0.6-0.5,1.2-0.6,1.7c-0.3,0.5-0.3,1-0.5,1.7c0.4,0,0.6-0.3,1-0.5
						c0.3-0.3,0.4-0.6,0.5-0.9C282.7,370.5,282.7,369.9,282.4,369.2z"/>
				</g>
				<g>
					<path class="st28" d="M283.7,369.9c0.1,0.3,0,0.4-0.1,0.6s-0.3,0.4-0.3,0.5c-0.3,0.4-0.5,0.6-0.6,1c-0.5,0.6-1,1.2-1.9,1.6
						c0.5,0.1,1,0.1,1.4-0.1c0.5-0.3,0.9-0.5,1.2-0.9c0.3-0.4,0.5-0.8,0.6-1.3c0.1-0.3,0.1-0.5,0.3-0.6
						C284,370.4,283.9,370,283.7,369.9z"/>
				</g>
				<g>
					<path class="st28" d="M281.2,369.8c-0.6,0.3-1,0.9-1,1.6c-0.1,0.6,0,1.3,0.4,1.9l0.1,0.3l0.1-0.1c0.1-0.1,0.1-0.3,0-0.3
						c0-0.1-0.1-0.1-0.3,0v0.1c0,0-0.1,0,0,0l0.3,0.1c0.3-0.6,0.3-1,0.3-1.6C281.1,370.9,281.2,370.5,281.2,369.8z"/>
				</g>
				<g>
					<path class="st29" d="M287.1,370.5C287.3,370.5,287.1,370.5,287.1,370.5c0,0.1,0,0.1-0.1,0.3s-0.1,0.1-0.3,0.3
						c-0.1,0.1-0.3,0.3-0.4,0.4c-0.3,0.3-0.6,0.4-0.9,0.6c-0.6,0.4-1.3,0.8-1.9,1.4c0.8,0,1.6-0.3,2.3-0.6c0.3-0.3,0.6-0.5,0.9-0.9
						c0.1-0.3,0.3-0.4,0.3-0.6c0-0.1,0.1-0.3,0.1-0.3C287.3,370.7,287.3,370.5,287.1,370.5z"/>
				</g>
				<g>
					<path class="st29" d="M280.4,369.6c-0.8-0.3-1.7,0.3-2.2,0.8c-0.6,0.6-0.9,1.6-0.6,2.3c0.4-0.6,0.8-1.2,1.2-1.7
						C279.1,370.4,279.6,370,280.4,369.6z"/>
				</g>
			</g>
			<g>
				<path class="st25" d="M247.9,360.6c-1.4,1.8-7.1-4.1-3-10.2C247.6,353.3,250.6,357.3,247.9,360.6z"/>
				<g>
					<path class="st26" d="M247.5,354.1c-0.6,0.1-1.2,0.5-1.6,0.9c-0.4,0.4-0.9,0.9-1,1.7c0,0.1,0,0.3,0,0.3c0,0.1,0,0.1,0,0.3
						s0.1,0.3,0.3,0.3c0.1,0.1,0.3,0.3,0.4,0.3c0.1,0,0.3,0,0.3,0c0.1,0,0.3,0,0.3-0.1c0.3-0.1,0.6-0.3,0.9-0.5
						c0.5-0.4,1-0.9,1.2-1.4c-0.5,0.3-1,0.6-1.6,0.8c-0.3,0.1-0.5,0.3-0.8,0.3h-0.3l0,0l0.3,0.1l0.1,0.1v-0.1v-0.1
						c0-0.4,0.3-0.9,0.6-1.4C246.7,354.9,247.1,354.5,247.5,354.1z"/>
				</g>
				<g>
					<path class="st27" d="M248.3,354.9c-0.6-0.1-1.4,0.1-1.9,0.5c-0.3,0.3-0.5,0.5-0.6,0.8c-0.1,0.3-0.3,0.6-0.1,1
						c0.6-0.5,1-0.8,1.4-1C247.2,355.9,247.8,355.5,248.3,354.9z"/>
				</g>
				<g>
					<path class="st28" d="M247.1,354.1c-0.3-0.3-0.5-0.1-0.6,0c-0.3,0.1-0.4,0.3-0.6,0.4c-0.4,0.3-0.6,0.6-1,1
						c-0.3,0.4-0.4,0.9-0.5,1.4c0,0.5,0.1,1,0.4,1.4c0-0.9,0.3-1.7,0.6-2.3c0.3-0.4,0.5-0.6,0.6-1c0.1-0.3,0.3-0.4,0.4-0.5
						C246.6,354.1,246.9,354.1,247.1,354.1z"/>
				</g>
				<g>
					<path class="st28" d="M248.3,356.3c-0.6,0.3-1,0.5-1.6,0.8s-0.9,0.5-1.4,0.9l0.3,0.3c-0.1,0.1,0-0.1,0,0c0,0,0-0.1-0.1-0.1
						s-0.3,0-0.3,0.1v0.1h0.3c0.6,0.3,1.3,0,1.9-0.4C247.6,357.6,248.2,356.9,248.3,356.3z"/>
				</g>
				<g>
					<path class="st29" d="M245.2,351.1c0-0.1-0.3-0.1-0.3,0c-0.1,0.1-0.3,0.1-0.3,0.3c-0.3,0.1-0.3,0.3-0.4,0.5
						c-0.3,0.3-0.4,0.6-0.5,1c-0.3,0.8-0.1,1.6,0.3,2.3c0.3-0.8,0.4-1.6,0.6-2.2c0.1-0.4,0.3-0.6,0.3-1c0.1-0.3,0.1-0.3,0.3-0.5
						C245,351.5,245,351.1,245.2,351.1z"/>
				</g>
				<g>
					<path class="st29" d="M248.8,356.8c-0.1,0.8-0.3,1.4-0.6,1.9c-0.4,0.5-0.6,1.2-1.2,1.8c0.8-0.1,1.6-0.6,1.9-1.4
						C249.2,358.4,249.2,357.6,248.8,356.8z"/>
				</g>
			</g>
		</g>
		<g>
			<path class="st24" d="M605.8,406.2c0.6-0.9,1.2-1.7,1.8-2.6l1.6-2.5c0.1-0.3,0.3-0.4,0.4-0.5s0.3-0.1,0.1-0.1c-0.1,0-0.1-0.1,0,0
				c0.1,0,0.4,0.3,0.6,0.4c0.9,0.5,1.7,0.8,2.2,1.8c0.3-0.5,0.1-1.2-0.3-1.7c-0.4-0.5-0.6-1-1-1.4c-0.3-0.3-0.3-0.3-0.6-0.6
				c-0.1-0.1-0.3-0.3-0.6-0.3c-0.3-0.1-0.6-0.1-0.9-0.1c-0.6,0.1-0.9,0.5-1.2,0.6c-0.3,0.3-0.4,0.5-0.5,0.6c-0.6,0.9-1,1.9-1.3,2.9
				C605.8,404,605.7,405,605.8,406.2z"/>
		</g>
		<g>
			<path class="st30" d="M622.7,415.5c-0.6,5.4-1.7,11-3.2,16.3l0.4-0.3c-0.6-0.3-1.4-0.8-1.6-1.6l-0.8,0.1c0.1,1.2-0.1,2.3-0.6,3.4
				l0.5-0.3l-1.6-0.5l-0.5-0.3l-0.1,0.5c-0.3,0.9-0.6,1.8-1,2.6l0.6-0.3c-0.5-0.3-0.9-0.6-1.2-1l-1.2-1.8l0.3,2.1l0.4,2.3l0.6-0.5
				c-0.9-0.4-1.8-1-2.6-1.6l-0.4-0.3l-0.3,0.4c-0.5,0.6-0.6,1.6-0.5,2.3l0.8-0.5l-2.3-2.1l-0.3-0.3l-0.3,0.3c-0.5,0.5-0.9,1-1,1.8
				l0.8-0.3l-1.3-1.6l-0.4-0.5l-0.3,0.6l-1,1.9l0.6-0.1l-1.3-1.6l-0.4-0.5l-0.3,0.6c-0.3,0.6-0.9,0.8-1.6,0.8s-1.6-0.3-2.1-0.6
				c-1.3-0.8-2.3-1.9-3.5-3.2c-1-1.2-1.9-2.5-2.9-3.8c-1-1.3-1.9-2.5-3.2-3.6c1,1,2.1,2.3,3,3.8c0.9,1.3,1.8,2.7,2.9,4
				c1,1.3,2.1,2.5,3.5,3.4c0.6,0.5,1.6,0.8,2.3,0.8c0.4,0,0.9,0,1.4-0.3c0.5-0.3,0.9-0.6,1-1l-0.6,0.1l1.3,1.6l0.4,0.5l0.3-0.6
				l1-1.9l-0.6,0.1l1.3,1.6l0.6,0.8l0.3-1c0.1-0.5,0.3-0.9,0.6-1.2h-0.6l2.3,2.1l1,0.9l-0.3-1.4c-0.1-0.6,0-1.2,0.4-1.7l-0.6,0.1
				c0.9,0.6,1.8,1.3,2.9,1.8l0.8,0.4l-0.1-0.9l-0.4-2.3l-0.9,0.3c0.4,0.6,1,1,1.6,1.4l0.4,0.3l0.3-0.3c0.6-0.9,1-1.9,1.2-2.9
				l-0.6,0.3l1.6,0.5l0.4,0.1l0.3-0.3c0.6-1.2,0.9-2.6,0.6-4l-0.8,0.1c0.3,1,1,1.9,2.2,2.1l0.4,0.1l0.1-0.4
				C621.5,426.5,622.3,421.1,622.7,415.5z"/>
		</g>
		<g>
			<path class="st24" d="M598.9,409.9c-1-0.9-1.6-1.8-2.5-2.9c-0.8-1-1.8-1.9-3.4-2.5c-0.8-0.3-1.6-0.3-2.3,0
				c-0.8,0.3-1.6,0.8-1.9,1.6c-0.4,0.8-0.3,1.6-0.3,2.2c0.1,0.6,0.3,1.2,0.4,1.9c0.6-1.2,0.6-2.7,1.2-3.2c0.5-0.6,1.6-0.8,2.3-0.5
				c0.9,0.3,1.8,0.9,2.9,1.7C596.3,409,597.4,409.8,598.9,409.9z"/>
		</g>
		<g>
			<path class="st24" d="M643.3,307.2c-2.9-0.6-5.8-0.4-8.6,0.3c-2.9,0.6-5.4,1.8-8,3.2c-2.6,1.4-4.8,3.2-6.9,5.1
				c-2.1,1.9-4.1,3.9-5.8,6.1c2.3-1.6,4.5-3.2,6.9-4.9c2.3-1.6,4.5-3.2,6.9-4.5c2.3-1.4,4.8-2.6,7.4-3.5
				C637.7,308.1,640.4,307.4,643.3,307.2z"/>
		</g>
		<g>
			<path class="st24" d="M643.9,308.6c-0.1,1-0.4,2.1-1,3c-0.6,0.9-1.3,1.7-2.2,2.3s-1.8,1.3-2.7,1.9l-2.7,1.8
				c-1.8,1.3-3.6,2.6-5.2,4.1c-0.8,0.8-1.6,1.6-2.3,2.5c-0.8,0.9-1.3,1.8-1.8,2.9c1.3-1.8,2.9-3.2,4.5-4.7c1.7-1.4,3.5-2.6,5.3-3.9
				c1.8-1.3,3.6-2.3,5.3-3.9c0.8-0.8,1.6-1.6,2.1-2.6C643.8,310.9,644.1,309.8,643.9,308.6z"/>
		</g>
		<g>
			<path class="st24" d="M632.7,346.6c-0.9,3.6-2.9,6.7-4.7,10c-0.9,1.6-1.8,3.2-2.5,5.2c-0.6,1.8-1,3.8-0.9,5.7
				c0.6-1.8,1.4-3.5,2.3-5.1c0.9-1.6,1.9-3.2,2.9-4.8s1.8-3.4,2.3-5.2C632.8,350.5,633.2,348.4,632.7,346.6z"/>
		</g>
		<g>
			<path class="st24" d="M622.3,383.1c1.4-1.8,2.3-3.8,3.2-6l-0.8-0.1c-0.1,1.2-0.3,2.3-0.4,3.6c-0.3,1.2-0.5,2.3-0.8,3.6
				c-0.6,2.3-1.6,4.5-2.5,6.7l-1.9,4l3.2-3c1.9-1.7,3.5-3.9,4.5-6.2l-1.9-0.4c0,3-0.8,6.1-2.2,8.8l-1,2.2l2.3-0.8
				c1.4-0.5,2.9-1,4.1-1.6l-1-1.3c-1.6,2.6-2.9,5.3-4.3,8l1.3,0.6c0-0.1,0.3-0.3,0.5-0.3c0.3,0,0.6,0.3,0.6,0.4
				c0.3,0.5,0,1.4-0.5,1.9l-0.9,1l1.3-0.1c0.3,0,0.3,0,0.5,0.3s0.3,0.5,0.3,0.9c0,0.3,0,0.6,0,1c-0.1,0.4-0.1,0.6-0.3,1
				c-0.4,1.6-0.9,2.9-1.6,4.3c0.8-1.3,1.6-2.7,1.9-4.1c0.1-0.4,0.3-0.6,0.4-1c0.1-0.4,0.3-0.8,0.1-1.2c0-0.4-0.1-0.9-0.3-1.3
				c-0.1-0.3-0.3-0.4-0.5-0.6s-0.5-0.3-0.8-0.3l0.4,0.9c0.4-0.4,0.6-0.9,0.9-1.4c0.3-0.6,0.3-1.2,0-1.9c-0.3-0.6-0.9-1-1.6-1.2
				c-0.3-0.1-0.6-0.1-1,0.1c-0.4,0.1-0.6,0.4-0.9,0.8l1.3,0.6c1.6-2.6,3.1-5.2,4.7-7.8l1.2-2.1l-2.3,0.6c-1.4,0.4-2.9,0.9-4.1,1.4
				l1.2,1.4c1.6-3,2.3-6.3,2.3-9.7v-4.7l-1.9,4.3c-0.9,2.1-2.3,4.1-3.9,5.7l1.4,1c1-2.3,1.8-4.8,2.3-7.1c0.3-1.2,0.4-2.5,0.5-3.8
				c0.1-1.3,0.3-2.5,0.1-3.8l-0.1-2.9l-0.6,2.9C624.2,379,623.3,381,622.3,383.1z"/>
		</g>
		<g>
			<path class="st24" d="M568,398.3c-2.1-0.6-4.1-1.7-6-2.9l-2.3-1.6l1.9,2.2c0.8,1,1.7,1.9,2.6,2.7s1.9,1.7,2.9,2.3
				c2.1,1.6,4.3,2.9,6.6,3.8l0.3-1.7c-2.3-0.1-4.5-0.6-6.7-1.6l-4.1-1.9l3.1,3.4c2.3,2.5,5.1,4.4,8.3,5.4l-0.1-1.8
				c-1.3,0.6-2.7,1.2-4,1.8l-2.2,1l2.3,0.6c2.9,0.9,5.8,1.7,8.7,2.6l0.5-1.4c-0.4-0.3-0.9-0.1-1.2,0c-0.4,0.3-0.6,0.4-0.8,0.6
				c-0.4,0.5-0.6,1.3-0.3,1.9c0.3,0.6,0.6,1,1.3,1.4c0.5,0.3,1,0.4,1.6,0.4l-0.3-0.9c-0.3,0.3-0.4,0.4-0.5,0.6
				c-0.1,0.3-0.1,0.6,0,0.8c0.1,0.5,0.4,0.8,0.6,1.2c0.3,0.3,0.6,0.6,0.9,0.8c0.3,0.1,0.6,0.4,1,0.6c1.4,0.6,2.9,1.3,4.3,1.6
				c-1.4-0.6-2.7-1.3-4-2.1c-0.3-0.3-0.6-0.4-0.9-0.6c-0.3-0.3-0.5-0.5-0.6-0.6c-0.3-0.3-0.3-0.6-0.4-0.8c0-0.3,0-0.4,0.3-0.5l1-0.8
				l-1.3-0.1c-0.8-0.1-1.6-0.6-1.8-1.2c-0.1-0.3,0-0.5,0.3-0.6c0.3-0.3,0.4-0.3,0.5-0.3l0.5-1.4c-2.9-1-5.7-1.9-8.6-2.9l0.1,1.7
				c1.4-0.6,2.7-1,4-1.7l2.2-1l-2.3-0.8c-2.9-1-5.4-2.9-7.5-4.9l-1,1.6c2.3,1,5.1,1.6,7.5,1.6h4.5l-4.1-1.7
				c-2.2-0.9-4.4-1.9-6.5-3.2c-1-0.6-1.9-1.4-3-2.1c-1-0.8-1.9-1.6-2.9-2.3l-0.5,0.6C563.7,397.1,565.9,397.9,568,398.3z"/>
		</g>
		<path class="st31" d="M600.4,430.5c-1.3-1.9-2.9-4.9-3.5-7.1c0.6,1.3,1.6,2.6,2.7,3.9c0.5,0.6,1.6,0,1.2-0.6
			c-0.3-0.5-0.4-0.9-0.5-1.4c-0.3-0.6,0.6-1.3,1.2-0.8c0.1,0.1,0.3,0.3,0.3,0.3c0.5,0.5,1.4,0,1.2-0.6l-0.5-1.4l0.8,0.1
			c0.4,0.5,1.3,0.3,1.3-0.5l0,0c0-0.6,0.6-1,1.2-0.6l0.6,0.5c0.4,0.3,1,0.1,1-0.5l0.1-0.5c0.1-0.6,0.8-0.8,1.2-0.4l1.9,2.2
			c-0.1-1-0.3-1.3-0.4-2.3c0.6,1.3,1.2,1.8,1.8,3c-0.3-1.6-0.6-1.6-0.8-3c0.8,2.2,2.2,3,3.5,4.9c-0.5-2.1-1-4.3-1.6-6.3
			c-0.3-1,0,0.1,1-0.6c1.3,2.6,0.6,3.2,1,6c0-1.4,0.8-3.2,0.3-4.7c0.9,1.8,1.6,3.6,1.9,5.4c0-1.6-0.3-3.1-0.6-4.5
			c0.5,1.6,1,3,1.6,4.5"/>
		<path class="st31" d="M604.4,434c-0.9-1.7-1.9-4.4-2.5-6.2c0.5,1.2,1.2,2.3,1.9,3.4c0.4,0.5,1,0,0.9-0.6c-0.1-0.4-0.3-0.8-0.4-1.2
			c-0.3-0.6,0.5-1.2,0.9-0.6c0.1,0.1,0.1,0.1,0.3,0.3c0.4,0.5,1,0,0.9-0.6l-0.4-1.3l0.6,0.1c0.3,0.5,1,0.3,0.9-0.4l0,0
			c0-0.5,0.5-0.9,0.8-0.5l0.5,0.5c0.3,0.3,0.8,0.1,0.8-0.4V426c0.1-0.5,0.6-0.6,0.9-0.3l1.4,1.9c-0.1-0.9-0.3-1-0.3-1.9
			c0.4,1,0.9,1.6,1.3,2.7c-0.1-1.3-0.4-1.4-0.6-2.7c0.6,1.9,1.6,2.6,2.5,4.4c-0.4-1.9-0.8-3.6-1.2-5.6c-0.3-0.9,0,0.1,0.8-0.5
			c1,2.3,0.5,2.9,0.6,5.3c0-1.3,0.6-2.9,0.3-4.1c0.6,1.6,1,3.2,1.6,4.8c0-1.3-0.1-2.7-0.5-4c0.4,1.3,0.6,2.7,1,4"/>
		<g>
			<path class="st32" d="M598.6,426.5c0.8,1.4,1.7,2.9,2.9,4l0.3,0.4l-0.3-0.4c-1-1.9-1.9-3.9-2.3-6l-0.3,0.1
				c1.2,1.3,2.2,2.9,3.1,4.4l0.4-0.3c-0.6-1-1-2.3-1.3-3.5l-0.5,0.3c0.6,1,1.4,1.9,2.3,2.7l0.8,0.6l-0.3-1c-0.3-1-0.4-2.1-0.6-3.2
				l-0.6,0.3l1.6,2.6l1.4,2.5l-0.8-2.9l-1-3.4l-0.6,0.3l1.9,3l0.6,1l-0.1-1.3c-0.1-1-0.3-2.2-0.5-3.2l-0.6,0.3
				c0.3,0.5,0.6,0.9,1,1.2c0.4,0.3,0.6,0.6,0.9,1l0.5,0.9l0.3-1c0.1-0.6,0.3-1,0.3-1.8c0-0.6-0.1-1.2-0.3-1.8l-0.6,0.3
				c0.3,0.3,0.4,0.5,0.6,0.8c0.3,0.3,0.4,0.4,0.6,0.6c0.3,0.3,0.3,0.4,0.5,0.6c0.1,0.1,0.3,0.3,0.5,0.4s0.5,0.1,0.8,0l0.3-0.1v-0.3
				c0.3-1.6,0.1-3.2-0.3-4.7l-0.6,0.3c0.5,1.3,1,2.6,1.9,3.9l0.4,0.6l0.3-0.8c0.3-1.4,0.3-2.9-0.3-4.3l-0.5,0.3l2.5,3.9l0.6,1
				l-0.3-1.3l-0.8-4.4l-0.4,0.1c0.6,1.8,1.4,3.5,2.3,5.1l0.4,0.5l-0.1-0.6c-0.3-1.7-0.5-3.4-0.9-5.1l-0.3,0.1l2.6,4.8l-2.5-4.9
				l-0.3-0.6l0.1,0.6c0.3,1.7,0.6,3.2,0.6,5.1l0.3-0.1c-1-1.6-1.8-3.2-2.3-5.1l-0.4,0.1l0.6,4.4l0.5-0.3l-2.5-3.9l-1-1.8l0.6,2.1
				c0.4,1.3,0.4,2.7,0.3,4l0.6-0.1c-0.6-1.2-1.3-2.5-1.8-3.8l-0.6,0.3c0.4,1.6,0.5,3,0.3,4.5l0.3-0.3c0,0-0.3,0-0.3-0.3
				c-0.1-0.3-0.3-0.5-0.5-0.6c-0.3-0.3-0.4-0.5-0.6-0.6c-0.3-0.3-0.3-0.4-0.5-0.6l-1.6-2.6l0.9,2.9c0.3,0.5,0.3,1,0.3,1.6
				c0,0.5-0.1,1-0.3,1.6l0.6-0.1c-0.3-0.5-0.6-1-1-1.3c-0.4-0.3-0.6-0.6-1-1l-0.9-1.3l0.3,1.6c0.3,1,0.4,2.2,0.5,3.2l0.6-0.3l-1.9-3
				l-1.3-1.9l0.6,2.2l1,3.4l0.6-0.3l-1.6-2.6l-1.4-2.3l0.8,2.6c0.3,1,0.5,2.1,0.8,3.2l0.5-0.3c-0.9-0.6-1.6-1.6-2.2-2.5l-0.9-1.4
				l0.4,1.7c0.3,1.3,0.8,2.5,1.4,3.6l0.4-0.3c-0.9-1.6-1.9-3.1-3.2-4.4l-0.4-0.4l0.1,0.6c0.4,2.2,1.6,4.1,2.5,6.1l0.1-0.1
				C600.4,429.2,599.4,427.9,598.6,426.5z"/>
		</g>
		<g>
			<path class="st24" d="M622.9,406.7c-0.6,1.9-1.2,3.9-1.8,5.8l-0.8,3c-0.1,0.5-0.3,1-0.4,1.4c-0.1,0.3-0.1,0.3-0.3,0.3
				c0,0-0.1,0-0.3,0c-0.3,0-0.8-0.3-1.3-0.4s-1-0.3-1.7-0.3c-1-0.1-2.2,0-3.2,0.3c-2.1,0.5-4.1,1.4-5.8,2.3
				c-1.7,0.9-3.5,2.1-5.3,3.1c-1.7,0.9-3.6,1.7-5.4,1.9c-1.9,0.3-3.8-0.1-5.4-1c-0.9-0.4-1.6-1-2.3-1.7c-0.4-0.3-0.8-0.6-1.3-0.9
				s-1-0.4-1.6-0.3c0.5,0,1,0.3,1.4,0.5c0.4,0.3,0.6,0.6,1,1c0.6,0.8,1.4,1.6,2.3,2.2c1.8,1.2,4,1.9,6.2,1.7
				c2.2-0.1,4.3-0.9,6.2-1.8c1.9-0.9,3.6-2.1,5.4-3c1.7-1,3.5-1.8,5.4-2.3c0.9-0.3,1.9-0.4,2.9-0.3c0.5,0,0.9,0.1,1.4,0.3
				c0.3,0.1,0.4,0.1,0.6,0.3s0.6,0.3,0.9,0.3c0.4,0,0.9-0.1,1.2-0.4c0.4-0.3,0.5-0.6,0.6-1c0.3-0.6,0.3-1,0.3-1.6l0.5-3
				C622.4,410.8,622.7,408.8,622.9,406.7z"/>
		</g>
		<g>
			<path class="st30" d="M592.8,421.6c1.3,0.9,2.7,1.6,4.1,2.2l0.4,0.3l-0.3-0.4l-1.8-2.2l-0.3,0.3c0.9,0.6,1.9,0.8,3,0.6h0.3
				l-0.1-0.3l-0.4-1.8l-0.5,0.3c0.8,1,1.9,2.1,3.1,2.7l0.5,0.3v-0.6v-1.9l-0.5,0.3c0.6,0.3,1,0.8,1.6,1.4l0.6,1l0.1-1.2l0.3-3.2
				l-0.6,0.3l2.3,2.1l0.6,0.6v-1l0.3-3.8l-0.5,0.4c0.5,0.1,1,0.6,1,1.2h0.9l0.3-2.3l-0.9,0.3l1.3,2.3l0.6,1.2l0.3-1.3l0.6-2.7h-1
				c0.3,1,0.6,1.9,1.2,2.7l0.6,0.8l0.3-0.9l1-3.6h-0.9l0.5,2.2l0.3,1.2l0.6-1l1.6-2.7l-0.8-0.3l0.3,3.6l0.1,1l0.6-0.9
				c1-1.3,1.9-2.7,2.9-4.1l-0.6-0.3l-0.4,2.7l-0.3,1.6l0.8-1.4l1.6-2.7l-0.5-0.3c-0.4,0.6-0.5,1.4-0.3,2.1l0.1,0.5l0.3-0.4l1.9-2.3
				l-0.3-0.1l0.8,2.5v0.1l0.1-0.1c1.4-0.6,2.5-1.8,3.2-3.2c-0.8,1.3-1.9,2.3-3.4,2.9l0.3,0.1l-0.6-2.6l-0.1-0.3l-0.3,0.3l-1.9,2.3
				l0.4,0.1c-0.3-0.6-0.1-1.2,0.3-1.7l-0.5-0.3l-1.7,2.7l0.6,0.3l0.5-2.7l0.4-1.9l-1,1.8c-0.8,1.4-1.8,2.7-2.9,4l0.8,0.3l-0.3-3.8
				l-0.1-1.6l-0.8,1.4l-1.6,2.7l0.8,0.1l-0.5-2.2l-0.4-1.8l-0.5,1.7l-1,3.6l0.8-0.3c-0.5-0.6-0.9-1.6-1-2.3l-0.4-2.2l-0.5,2.2
				l-0.6,2.7l0.9-0.1l-1.3-2.3l-0.8-1.6l-0.1,1.6l-0.3,2.3h0.9c-0.1-1-0.9-1.8-1.8-1.9l-0.5-0.1v0.5l-0.1,3.8l0.6-0.3l-2.3-2.1
				l-0.6-0.6l-0.1,0.9l-0.3,3.2l0.6-0.3c-0.5-0.6-1-1.3-1.8-1.6l-0.5-0.3v0.6l0.1,1.9l0.5-0.3c-1-0.6-2.2-1.6-2.9-2.5l-0.8-1
				l0.3,1.3l0.5,1.8l0.3-0.3c-0.9,0.3-1.9,0-2.7-0.5l-1-0.6l0.8,0.9l1.8,2.1l0.1-0.3C595.5,423,594.1,422.4,592.8,421.6z"/>
		</g>
		<g>
			<path class="st33" d="M617.5,424.3c0.3,1,0.6,2.1,1,3.1c0.3,1,0.5,1.9,0.6,3.2c0.6-1,0.5-2.3,0.1-3.4
				C618.8,426.1,618.3,425.2,617.5,424.3z"/>
		</g>
		<g>
			<path class="st33" d="M617.5,422c0.4,0.5,0.6,1,1,1.6c0.3,0.5,0.4,1,0.5,1.7l0.3,1.6l0.4-1.6c0.3-0.8,0-1.6-0.3-2.3
				c-0.3-0.6-0.6-1.4-1-1.9l-0.5,0.5c0.6,0.3,1,0.8,1.6,1.4l0.8,1l-0.3-1.3c-0.3-1.3-0.9-2.3-1.6-3.2l-0.3,0.3
				c0.8,0.3,1.6,0.6,1.9,1.4c-0.3-0.8-0.9-1.6-1.8-1.8l-0.5-0.3l0.3,0.5c0.6,1,1,1.9,1.2,3l0.6-0.3c-0.4-0.6-1-1.2-1.7-1.6l-1.6-1
				l1,1.6c0.9,1,1.6,2.3,1.6,3.8h0.5c-0.1-0.6-0.4-1.2-0.6-1.8C618.4,422.9,618,422.4,617.5,422z"/>
		</g>
		<g>
			<path class="st33" d="M603.1,435.4c-0.5-1.6-1-3.1-0.6-4.7l-0.3-0.1c-0.3,1.6-0.3,3,0,4.4l0.4-0.3c-0.5-0.8-0.9-1.6-1.2-2.5
				c-0.3-0.8-0.4-1.7-0.3-2.6l-0.6-0.1c-0.3,1.3-0.4,2.7-0.3,4.1l0.6-0.3c-0.4-0.6-0.9-1.3-1-1.9c-0.3-0.6-0.3-1.4-0.1-1.9l-0.6-0.3
				c-0.3,0.9-0.3,1.7-0.3,2.6l0.6-0.3c-0.9-1.2-1.2-2.9-0.6-4.4l-0.6-0.3c-0.4,1.6-0.5,3.2-0.1,4.8l0.5-0.3c-1-1.3-1.3-3.1-0.9-4.5
				l-0.4-0.1l-0.4,3.4h0.3l-1-3.2l0.9,3.2l0.1,0.5l0.1-0.5l0.5-3.4l-0.4-0.1c-0.5,1.7-0.3,3.6,0.8,5.1l0.8,1l-0.3-1.4
				c-0.3-1.6-0.3-3.1,0.3-4.5l-0.6-0.3c-0.5,1.7-0.3,3.6,0.8,5.1l0.6,0.9v-1c0-0.8,0.1-1.6,0.3-2.5l-0.6-0.3
				c-0.3,0.9-0.3,1.8,0.1,2.5c0.3,0.8,0.8,1.6,1.2,2.1l0.9,1.3l-0.3-1.6c-0.3-1.3-0.3-2.6,0.1-3.8l-0.6-0.1c-0.3,1,0,1.9,0.3,2.9
				c0.4,0.9,0.9,1.7,1.4,2.5l0.6,1l-0.3-1.3c-0.3-1.4-0.4-2.9-0.3-4.3l-0.3-0.1c-0.1,0.8,0,1.7,0.3,2.3
				C602.5,433.9,602.7,434.8,603.1,435.4z"/>
		</g>
		<path class="st31" d="M605.3,431.3c0.5,1,1,2.2,1.9,2.9c-0.3-1.2-0.6-2.3-1-3.5c0.6,1,1.3,1.9,1.9,2.9c-0.3-1-0.5-2.1-0.6-3.1
			c0.6,1,1.4,2.1,2.1,3.2c0.1,0.3,0.3,0.4,0.5,0.3c-0.4-1.4-0.6-2.9-1-4.1c0.5,0.9,1,1.8,1.6,2.6c0.3,0.3,0.4,0.6,0.6,0.6
			c-0.3-1.3-0.5-2.5-0.8-3.8c0.6,0.9,1.2,1.8,1.8,2.7c0.1-0.9,0-1.9-0.3-2.9c0.6,0.6,1,1.8,1.9,1.9c0.3-0.6,0.4-1.4,0.3-2.1"/>
		<g>
			<path class="st32" d="M603.9,431.2c0.6,1.2,1.4,2.3,2.3,3.2l0.3,0.4l-0.3-0.4c-0.8-1.6-1.6-3.2-1.8-4.9l-0.3,0.1
				c1,1,1.8,2.3,2.5,3.6l0.4-0.3c-0.5-0.9-0.8-1.9-1-2.9l-0.5,0.3c0.5,0.8,1,1.6,1.8,2.2l0.6,0.6l-0.3-1c-0.3-0.8-0.3-1.7-0.6-2.6
				l-0.6,0.3l1.2,2.1l1.4,2.5l-0.8-2.9l-0.8-2.7l-0.6,0.3l1.6,2.3l0.6,1l-0.1-1.3c0-0.9-0.3-1.8-0.4-2.7l-0.6,0.3
				c0.3,0.4,0.6,0.6,0.9,1c0.3,0.3,0.5,0.5,0.6,0.9l0.5,0.9l0.3-1c0.1-0.5,0.3-0.9,0.3-1.4c0-0.5-0.1-1-0.3-1.6l-0.6,0.3
				c0.3,0.5,0.6,0.8,0.9,1c0.1,0.3,0.3,0.3,0.4,0.6c0.1,0.1,0.3,0.3,0.4,0.3c0.3,0.1,0.5,0.1,0.6,0l0.3-0.1v-0.3
				c0.3-1.3,0.1-2.6-0.3-3.8l-0.6,0.3c0.4,1,0.9,2.1,1.6,3.1l0.4,0.6l0.3-0.8c0.3-1.2,0.1-2.3-0.3-3.5l-0.5,0.3l2.1,3.1l0.6,1
				l-0.3-1.3l-0.6-3.6l-0.4,0.1c0.5,1.4,1,2.9,1.9,4.1l0.4,0.5l-0.1-0.6c-0.3-1.4-0.4-2.7-0.6-4.1l-0.3,0.1l2.2,3.9l-1.9-4l-0.3-0.6
				l0.1,0.6c0.3,1.3,0.5,2.7,0.6,4.1l0.3-0.1c-0.8-1.3-1.4-2.6-1.8-4l-0.4,0.1l0.6,3.6l0.5-0.3l-1.9-3.2l-1-1.8l0.6,2.1
				c0.3,1,0.4,2.1,0.3,3.2l0.6-0.1c-0.6-1-1-1.9-1.4-3l-0.6,0.3c0.3,1.2,0.4,2.3,0.3,3.6l0.3-0.3l0,0c0,0-0.1-0.1-0.3-0.1
				c-0.1-0.1-0.3-0.4-0.4-0.6c-0.4-0.4-0.6-0.6-0.9-1l-1.7-3.1l1,3.2c0.1,0.4,0.3,0.8,0.3,1.2s-0.1,0.8-0.3,1.3l0.6-0.1
				c-0.3-0.4-0.6-0.8-0.9-1c-0.3-0.3-0.6-0.5-0.8-0.9l-0.9-1.3l0.3,1.6c0.1,0.9,0.4,1.7,0.4,2.6l0.6-0.3l-1.6-2.3l-1.3-1.9l0.6,2.2
				l0.8,2.7l0.6-0.3l-1.2-2.1l-1.4-2.3l0.8,2.6c0.3,0.8,0.4,1.7,0.6,2.6l0.5-0.3c-0.6-0.6-1.3-1.2-1.8-1.9l-0.9-1.4l0.4,1.6
				c0.3,1,0.6,1.9,1.2,2.9l0.4-0.3c-0.6-1.3-1.6-2.5-2.6-3.6l-0.4-0.4l0.1,0.6c0.3,1.8,1.2,3.4,1.9,4.9l0.1-0.1
				C605.3,433.4,604.6,432.3,603.9,431.2z"/>
		</g>
		<path class="st34" d="M602.9,430.1c-0.5-0.8-1-1.6-1.6-2.3c0.6,1.3,1.6,2.3,2.6,3.5c-0.5-1.6-1-2.9-1.9-4.3
			c0.8,1.3,1.8,2.5,2.9,3.6c-0.6-1.6-1.6-2.9-2.3-4.3c1,1.3,2.3,2.7,3.4,4c-0.8-1.7-1.7-3.4-2.5-5.1c1,1.6,1.9,2.9,3,4.4
			c-1-1.6-1.8-3.1-2.5-4.8c1,1.7,2.2,3.4,3.5,4.9c-0.6-1.7-1.2-3.2-1.8-4.9c0.9,1.6,1.9,3.2,3,4.7c-0.5-1.6-1-2.9-1.6-4.4
			c0.6,1.3,1.3,2.5,2.2,3.6c-0.3-1.4-0.4-2.9-0.6-4.1c0.8,1.4,1.6,2.9,2.3,4.1c-0.3-1.6-0.4-2.9-0.6-4.4c0.5,1.2,1.2,2.3,1.8,3.6
			c0-1,0.1-1.9,0.1-3.1c0.9,0.6,1.6,1.6,2.1,2.7c0.4-0.8,1.8-0.5,1.9,0.3"/>
		<path d="M741.6,579c0.9,2.9,1.9-14-8-14s-8.9,13-5.1,15C731.6,577,740.6,576,741.6,579z"/>
		<path d="M722.6,570c2.9,4.1,6-17-8-17c-10.2,0-8.9,11-5.1,15C714.7,566,720.6,567.1,722.6,570z"/>
		<path d="M701.7,560.1c1,4,8-17-4-18c-11.9-1-14.4,6.3-10.6,14.6C691.4,554.5,700.7,556.1,701.7,560.1z"/>
		<path d="M687.7,552c-2.6,1.8,1,42.9,1,42.9s15.7-31.5,14.4-38.6C701.7,549.1,694.7,547.1,687.7,552z"/>
		<path d="M708.6,568c0,0,4,10,4,32.9c6-4.9,15-28,8.9-36.9c-6-8.9-13,0.5-13,2.9"/>
		<path d="M727,581.8c-0.6,5.4,8.6,18.1,5.6,27.1c4-6,14.1-20.1,6.6-35C731.6,559,727.5,577.7,727,581.8z"/>
		<path d="M599.3,563.1c0,3,15-8.9,3-17c-11.9-8-15.9,1.9-15,6C590.4,552.2,599.3,553.1,599.3,563.1z"/>
		<path d="M573.4,560.1c0,3.6,10-11.9,1.9-17c-8-5.1-15-1-14,6C567.5,550.1,573.4,559.2,573.4,560.1z"/>
		<path d="M546.5,562.2c3-5.1,8.9-15.9-1-18.9c-10-3-17,6-13,13c6-3,15,0,14,7"/>
		<path d="M586.4,551.2c-1.9,1.9-8,22.7,4,40.9c1-14,1-18,4-21c3-3,7-10,6-15.9C599.3,549.2,586.4,551.2,586.4,551.2z"/>
		<path d="M564.5,547.2c-5.1,3-13,22.9,8,42.9c-1-11-4.7-28.5,3-36.7C579.4,549.2,564.5,547.2,564.5,547.2z"/>
		<path d="M539.5,549.2c-4.4,5.4-11,26.9,5.1,42.9c0-14,3-38,6-38.9C553.5,552.2,543.5,544.2,539.5,549.2z"/>
		<g>
			<path class="st35" d="M819.9,403.6c0.6,22.2,1.7,44.3,3,66.3c1.3,22,2.9,44,4.4,66.1l2.3,33l1.2,16.5l1,16.5
				c0.6,11,1.4,21.9,1.9,33c0.1,2.9,0.3,5.4,0.3,8.3s0.1,5.4,0.1,8.3c0,2.9,0.1,5.4-0.1,8.3c0,2.9-0.3,5.4-0.4,8.3
				c1.6-5.4,2.5-10.9,3.2-16.3c0.8-5.4,1.2-11,1.7-16.7c0.8-11,1-22.3,1-33.3s-0.3-22.2-0.6-33.2c-0.3-5.6-0.5-11-0.8-16.6l-1-16.6
				c-1.6-22-3.8-44-6.6-66.1c-1.4-11-3-21.9-4.7-32.9C824,425.3,822.3,414.5,819.9,403.6z"/>
		</g>
		<g>
			<path class="st35" d="M790.3,347c-0.1,6.9,0.4,13.5,0.8,20.1c0.5,6.5,1,13,1.6,19.4l1.7,19.3c0.6,6.5,1.3,13.1,2.3,19.7l1.8-0.6
				c-0.6-0.3-1-0.6-1.7-0.9s-1.2-0.6-1.8-0.9c0.3,0.6,0.6,1,1,1.7c0.3,0.6,0.6,1,1,1.7l1,1.6l0.8-2.2c2.2-6.5,3.4-13.2,4-20
				c0.6-6.7,0.4-13.6-0.3-20.2c-0.6-6.7-1.9-13.3-4-19.8C796.7,359.1,794.1,352.8,790.3,347z"/>
		</g>
		<g>
			<path class="st35" d="M891.3,498.1c-0.6,9.7-0.3,19.4,0.3,29s1.2,19,1.8,28.5s1.3,18.9,1.8,28.4c0.5,9.5,0.9,18.9,1.3,28.6
				l1.4-0.3c-0.9-1-1.7-1.9-2.6-2.9c0.4,1.3,0.9,2.5,1.3,3.6l0.6,1.9l0.6-2.3c3-9.3,4.7-19,5.4-28.8c0.8-9.7,0.6-19.6-0.1-29.3
				c-0.8-9.7-2.2-19.3-4.1-28.8C897.1,516.7,894.6,507.5,891.3,498.1z"/>
		</g>
		<g>
			<path class="st36" d="M684.7,18c36.7,28.4,73.2,56.9,106.6,88.6c16.7,15.9,32.6,32.5,47,50.3c7.3,8.9,14.3,18,20.9,27.2
				c6.6,9.3,12.8,18.9,18.7,28.9c11.7,19.7,21.4,40.4,29.1,61.9c3.9,10.8,7.4,21.6,10.2,32.8c1.6,5.4,2.9,11,4.1,16.7
				c0.6,2.9,1.2,5.6,1.8,8.4s1,5.6,1.6,8.4c8,45.2,8.9,91.7,3.2,137.7c9.8-45.3,11.3-92.6,4.5-139c-0.5-2.9-0.9-5.8-1.4-8.7
				c-0.5-2.9-1-5.8-1.6-8.7c-1-5.8-2.3-11.5-3.8-17.1c-2.9-11.4-6.1-22.7-9.8-33.7c-7.6-22.2-17.6-43.5-29.5-63.9
				c-11.9-20.2-25.8-39.3-40.9-57c-15.3-17.7-31.6-34.5-49.1-49.9c-17.4-15.5-35.6-29.9-54.4-43.7C723.4,43.5,704.3,30.5,684.7,18z"
				/>
		</g>
		<g>
			<path class="st36" d="M778.9,125.4c18,29,33.9,59.2,47,90.4c13,31.4,23.4,63.6,31,96.5c7.6,33,12.3,66.6,14.1,100.4
				c1.9,33.8,0.8,67.9-2.9,102c7.6-33.3,11-67.9,10.6-102.1c-0.3-34.5-4.5-68.8-12.3-102.5c-7.6-33.6-18.9-66.5-33.6-97.6
				C818.3,181.6,800.3,152.1,778.9,125.4z"/>
		</g>
		<g>
			<g>
				<path class="st36" d="M665.1,21.3c31.7,33.2,58.8,68.4,81.3,105.4c22.3,37,40.5,75.5,54.4,114.8c13.9,39.4,24.1,79.6,31.1,120.1
					c7.3,40.7,11.5,81.5,14.7,122.6c2.9-41.1,1.7-82.6-3.2-123.7c-5-41.3-14.3-82.1-28.4-122.2c-14.3-39.9-33.4-79-58.4-115.7
					C731.9,85.8,701.5,51.3,665.1,21.3z"/>
			</g>
		</g>
		<g>
			<path class="st24" d="M588.5,375.5c0.4-2.3,0.6-4.8,1-7.1c0.3-2.3,0.6-4.8,0.9-7.1l0.4-3.2l-1.6,2.9c-1.7,2.9-3.2,6-4.3,9.2
				l1.7,0.5c1-3.9,1.8-7.8,1.9-11.9l0.1-2.3l-1.8,1.6l-2.6,2.3l1.7,0.6c-0.3-1.9-0.3-3.9-0.3-5.8c0-1.9,0-3.9,0.1-5.8l0.3-3.2
				l-1.8,2.9c-1.6,2.5-2.7,5.3-3.2,8.2l1.4,0.3c0.5-2.6,0.6-5.2,0.6-7.8c-0.1-2.6-0.3-5.2-0.9-7.6c0.3,2.6,0.3,5.2,0.1,7.6
				c-0.3,2.6-0.6,5.1-1.2,7.5l1.4,0.3c0.6-2.7,1.7-5.2,3.2-7.5l-1.6-0.6c-0.3,1.9-0.3,4-0.3,6s0.1,4,0.3,6.1l0.3,1.9l1.6-1.3
				l2.6-2.3l-1.7-0.8c-0.3,3.9-0.6,7.6-1.7,11.5l1.7,0.5c1-3.1,2.3-6.2,3.8-9.1l-1.2-0.4c-0.1,2.3-0.3,4.8-0.3,7.1
				C588.6,370.5,588.5,373.1,588.5,375.5z"/>
		</g>
		<g>
			<path class="st35" d="M353.9,246c9.8-4.1,20.2-6.6,30.6-7.8s21-1.3,31.5-1c10.5,0.3,21,1.2,31.5,2.6c10.5,1.4,20.9,3.4,31.4,5.6
				c-9.7-4.5-20.1-7.9-30.6-10.2c-10.6-2.3-21.2-3.6-32.1-4c-10.8-0.3-21.6,0.3-32.3,2.3C373,235.7,362.7,239.7,353.9,246z"/>
		</g>
		<g>
			<path class="st24" d="M408.4,311.8c5.8-7.4,11.5-15,17.6-22c6.2-7,12.8-13.6,20.5-18.9c3.8-2.6,7.8-4.9,12-6.7
				c4.1-1.8,8.7-3.2,13.2-4c9.1-1.7,18.7-1,27.3,2.7c-4-2.5-8.6-4.1-13.3-4.9c-4.7-0.8-9.6-0.8-14.4-0.3
				c-9.6,1.3-18.7,5.1-26.7,10.5c-3.9,2.9-7.6,5.8-11,9.2c-3.4,3.4-6.6,6.9-9.5,10.6C418.4,295.8,413.2,303.7,408.4,311.8z"/>
		</g>
		<g>
			<path class="st24" d="M405.2,315.2c1.9-10.1,5.2-20,9.6-29.4c2.2-4.7,4.8-9.2,7.6-13.5c2.8-4.4,5.9-8.5,9.2-12.5l4.1-4.8
				l-2.9,5.7c-2.4,4.7-4.7,9.4-6.9,14.1c-2.3,4.7-4.4,9.5-6.4,14.3l-1.6-0.8c6.6-10.7,14.5-20.5,23.7-29.1l3.9-3.7l-2.4,4.9l-5,10.3
				l-1.5-1.1c9.9-9.5,20.8-17.9,32.5-25.2l5.8-3.6l-4.7,4.9c-4.3,4.4-8.6,8.9-12.9,13.3l-0.9-1.2c8.5-4.5,17.4-8.3,26.5-11.5
				l1.3-0.5l-0.7,1.2c-2,3.3-4.7,6.2-7.9,8.4l-0.3-0.6l16-3.9l0.3-0.1l-0.1,0.2c-0.5,0.9-0.9,2-1,3.1c0,0.5,0,1.1,0.2,1.6
				c0.2,0.5,0.6,0.9,1.1,1.1c-0.5-0.2-1-0.6-1.2-1.1c-0.2-0.5-0.3-1.1-0.2-1.6c0.1-1.1,0.4-2.2,0.9-3.2l0.1,0.2l-15.9,4.4l-1.9,0.5
				l1.6-1.1c3-2.2,5.5-5.2,7.4-8.4l0.6,0.7c-9,3.3-17.7,7.2-26.1,11.8l-4.2,2.3l3.3-3.5c4.2-4.5,8.5-9,12.7-13.4l1.1,1.3
				c-11.5,7.2-22.3,15.7-32,25.1l-3.9,3.8l2.3-4.9l4.9-10.2l1.6,1.1c-9,8.5-16.9,18.1-23.5,28.6l-1.6-0.8c2-4.9,4.2-9.6,6.5-14.4
				c2.3-4.7,4.7-9.4,7.1-14l1.2,0.8c-3.4,3.9-6.5,8-9.3,12.2c-2.9,4.3-5.4,8.7-7.8,13.3C410.9,295.4,407.4,305.2,405.2,315.2z"/>
		</g>
		<g>
			<path class="st24" d="M269.6,321.3c2.7-9.4,6.1-18.5,9.9-27.5c4-8.9,8.5-17.6,13.4-25.9l-1.5-0.8c-3.7,10.7-7,21.8-9.8,32.9
				l2.2,0.7l6.2-13.7l6.1-13.7l-2.4-1c-2.5,6.9-4.8,14-6.5,21.2l-1.7,7l4.1-5.8l25.6-35.5l-2.6-1.4l-7.5,19.9l-4.3,11.6l7-10.4
				c6.1-9,12.6-17.6,19.8-25.6l-2.2-1.5c-2.8,6.1-6.1,12.4-9.5,18.2l2.2,1.4c6.6-9.2,13.9-18,22.1-26l-1.7-1.1
				c-1.6,4.7-4,9.2-7,13.1l1.3,1.1c6-6.1,12.4-11.7,19.1-16.9l-1-0.9l-4.8,8.1l-1.2,2.2l2.1-1.5c4.1-3,8.5-5.7,13.3-7.9
				c4.7-2.2,9.7-3.8,14.7-4.9c-5.1,0.9-10.1,2.4-14.9,4.4c-4.8,1.9-9.3,4.6-13.6,7.5l0.7,0.7l5.2-8l1.8-2.8l-2.8,2
				c-6.9,5-13.5,10.7-19.6,16.7l1.3,1.1c3.2-4,5.8-8.6,7.6-13.5l1.5-4.2l-3.2,3.1c-8.3,8-15.9,16.8-22.8,26l2.2,1.4
				c3.6-5.9,6.8-12,9.7-18.3l3.8-8.1l-6,6.7c-7.3,8.1-14,16.8-20.2,25.9l2.5,1.2l7.5-19.8l4.1-10.8l-6.8,9.5L287.4,293l2.4,1.1
				c1.7-7,3.9-14.1,6.3-21.1l-2.4-1l-5.9,13.7l-5.8,13.7l2.2,0.7c2.6-11.1,5.7-22,9.2-32.9l2.4-7.5l-3.9,6.8
				c-4.9,8.6-9.1,17.3-12.8,26.4C275,302.5,271.9,311.9,269.6,321.3z"/>
		</g>
		<g>
			<path class="st24" d="M574.4,297.5c0.4-6.7,0.5-13.6,0.6-20.5c0-6.9-0.1-13.6-0.3-20.6h-1c-0.1,9.3-1.4,18.4-3.9,27.3l1.6,0.3
				c-0.1-4.5-0.5-8.9-1-13.5c-0.6-4.5-1.4-8.9-2.3-13.2l-0.9-4l-0.8,4.1c-1,4.8-1.7,9.6-2.2,14.5l1.9-0.1
				c-1.3-7.6-2.3-15.3-3.6-22.8l-0.9-5.2l-1,5.1l-2.7,13.1h1.8c-1.6-7.1-3.8-14.1-6.6-20.7l-1.2-3l-0.5,3.2l-1.3,9.3l1.6-0.3
				c-1.9-4.9-4.5-9.5-7.6-13.6l-0.8-1.2l-0.5,1.4c-0.8,2.2-1,4.5-0.6,7l1.3-0.4c-1.8-3.6-4.1-6.9-7-9.7l-0.6-0.6l-0.3,0.9l-2.1,5.7
				l0.9-0.3c-1-1-2.2-2.1-3.5-3c-1.3-0.9-2.7-1.6-4.1-2.1c-2.9-1-6-1.4-8.9-1.7c-3-0.3-6-0.6-9.1-0.5c-3,0.1-6.1,0.5-8.9,1.9
				c2.9-1.2,5.8-1.6,8.9-1.6c3,0,6,0.4,8.9,0.8c3,0.4,6,0.9,8.8,1.9c1.4,0.5,2.7,1.2,3.9,2.1s2.2,1.9,3.4,3l0.6,0.5l0.3-0.6l2.2-5.6
				l-1,0.3c2.7,2.9,4.9,6.1,6.6,9.6l1.9,3.9l-0.6-4.3c-0.3-2.1-0.1-4.3,0.6-6.3l-1.3,0.3c2.9,4.1,5.3,8.8,7.1,13.5l1.2,2.9l0.5-3.1
				l1.4-9.3l-1.7,0.3c2.7,6.7,4.9,13.5,6.3,20.6l0.9,4.3l0.9-4.3l2.9-13.1h-1.9c1.2,7.6,2.5,15.3,3.8,22.8l1.2,7.3l0.6-7.4
				c0.4-4.8,1-9.6,2.1-14.3h-1.8c1,4.3,1.9,8.7,2.3,13.1c0.6,4.4,1,8.9,1.2,13.2l0.3,5.4l1.4-5.2c2.3-9.1,3.6-18.4,3.5-27.7h-1
				c0.4,6.7,0.6,13.6,0.8,20.5C574.5,283.7,574.5,290.6,574.4,297.5z"/>
		</g>
		<g>
			<path class="st35" d="M655.9,325.3c6.3,3.4,12.6,7.1,18.4,11l4.4,3c1.6,1,2.9,2.1,4.3,3.2c1.4,1,2.9,2.2,4.1,3.2
				c1.4,1,2.9,2.2,4.1,3.4c11,9.1,21.1,19,31.2,29.3l30.1,30.8c9.8,10.4,19.3,21,26.8,33.4c-2.5-6.7-5.8-13.2-9.7-19.4
				c-3.9-6.2-8.4-11.9-13-17.6c-4.5-5.6-9.5-11-14.3-16.3c-2.3-2.7-4.9-5.3-7.4-8c-2.5-2.6-5.1-5.3-7.5-7.8
				c-5.1-5.2-10.2-10.2-15.8-15c-1.4-1.2-2.7-2.3-4.1-3.6c-1.4-1.2-2.9-2.3-4.1-3.5l-4.3-3.4l-4.4-3.2c-6-4.1-12.2-8-18.7-11.5
				C669.6,330.2,662.7,327.4,655.9,325.3z"/>
		</g>
		<g>
			<path d="M516.5,545.8c-8,8-5.1,38-1,45c1.9-8.9,11.9-31,13-35.9S522.5,539.9,516.5,545.8z"/>
			<path d="M528.5,562.8c1.3,3.2,7.8-21.6-3.6-22.8c-11.4-1.2-16.3,8.8-14.4,14.8C512.4,560.7,522.5,547.9,528.5,562.8z"/>
			<g>
				<path class="st37" d="M517.6,549c-1.3,1-2.3,2.3-3.1,3.9c-0.8,1.6-1.3,3.1-1.7,4.7c-0.8,3.2-1.2,6.3-1.3,9.7
					c-0.1,3.2,0.1,6.5,0.6,9.7c0.6,3.2,1.6,6.3,2.9,9.3c0.3-3.2,0.3-6.3,0.3-9.6c0-3.1,0.1-6.3,0.3-9.3c0.1-3.1,0.3-6.2,0.4-9.3
					S516.3,551.9,517.6,549z"/>
			</g>
			<g>
				<path class="st38" d="M513.4,556.6c-1,2.9-1.6,6-1.7,9.1c-0.1,3.1,0.1,6.2,1,9.3c0-3.1-0.1-6.2,0-9.2
					C512.8,562.7,513,559.6,513.4,556.6z"/>
			</g>
		</g>
		<g>
			<path d="M502.5,557.9c0.6,4.4,4.9-15.9-3-18.9c-8-3-11.9,5.1-11.9,11.9C492.6,550.9,501.5,551.9,502.5,557.9z"/>
			<path d="M492.6,544.9c-7,6-10,26.9,1.9,43.9c1-8.9,4-35,8.9-38C508.5,547.9,492.6,544.9,492.6,544.9z"/>
			<g>
				<path class="st37" d="M490.1,551.5c-1,1-1.8,2.3-2.3,3.8c-0.5,1.4-0.8,2.9-1,4.4c-0.5,2.9-0.5,5.8-0.3,8.9c0.3,3,1,5.8,2.2,8.6
					c1,2.7,2.6,5.4,4.5,7.6c-0.5-2.9-1-5.7-1.6-8.4c-0.5-2.7-0.9-5.4-1.2-8.2c-0.3-2.7-0.5-5.4-0.6-8.3
					C489.6,557,489.5,554.4,490.1,551.5z"/>
			</g>
			<g>
				<path class="st38" d="M487.5,558.9c-0.8,2.7-1,5.6-0.8,8.4s0.6,5.6,1.7,8.3c-0.3-2.9-0.5-5.4-0.6-8.3
					C487.5,564.4,487.5,561.7,487.5,558.9z"/>
			</g>
		</g>
		<g>
			<path d="M470.2,542.9c-2.5,3.1-6.7,33.3,3.2,47.8c1-10,9.2-35.5,10.6-39.4C485.7,547.3,474.6,537.2,470.2,542.9z"/>
			<path d="M487,557.9c-0.8,4.4,2.9-12.7-5.8-18.3c-8.6-5.6-16.8,7.9-15.8,16.7c5.4-1.8,5.2-11.9,12.2-9.5
				C484.8,549.2,487.6,554.4,487,557.9z"/>
			<g>
				<path class="st37" d="M470.2,549.5c-1.2,3.1-1.8,6.3-2.2,9.5c-0.4,3.2-0.4,6.5-0.3,9.7c0.1,3.2,0.6,6.5,1.6,9.6
					c0.8,3.2,1.9,6.2,3.4,9.2c0-3.2-0.1-6.5-0.3-9.6l-0.6-9.3l-0.6-9.3C470.9,555.8,470.5,552.7,470.2,549.5z"/>
			</g>
			<g>
				<path class="st38" d="M468.3,559.3c-0.6,1.8-0.6,3.8-0.6,5.7c0,1.9,0.1,3.8,0.3,5.7c0.4,3.8,1,7.6,2.2,11.1
					c-0.4-3.8-0.9-7.5-1.2-11.3c-0.3-1.9-0.3-3.8-0.5-5.7C468.3,562.9,468.2,561,468.3,559.3z"/>
			</g>
		</g>
		<g>
			<path class="st37" d="M737.5,573.3c0.5,1.4,0.6,2.9,0.8,4.1c0.1,1.4,0.1,2.9,0,4.1c-0.3,2.9-0.6,5.4-1,8.2
				c-0.5,2.7-1,5.4-1.7,8.3c-0.6,2.9-1.4,5.6-1.9,8.4c1.9-2.2,3.6-4.8,4.9-7.5c1.3-2.7,2.2-5.6,2.7-8.6c0.5-3,0.6-6.1,0.3-9.1
				c-0.3-1.6-0.6-3-1.2-4.5C739.4,575.6,738.6,574.2,737.5,573.3z"/>
		</g>
		<g>
			<path class="st38" d="M740.8,584.4c-0.3,2.3-0.5,4.5-1,6.7c-0.4,2.2-1,4.4-1.7,6.6c1.4-1.9,2.2-4.1,2.7-6.3
				C741.2,589.1,741.4,586.8,740.8,584.4z"/>
		</g>
		<g>
			<path class="st37" d="M718.6,563.7c0.3,1.6,0.6,3,0.6,4.5s0.1,2.9,0.1,4.4c-0.1,2.9-0.6,5.7-1.2,8.6c-0.6,2.9-1.4,5.7-2.2,8.6
				c-0.4,1.6-0.9,2.9-1.2,4.4c-0.4,1.6-0.9,2.9-1,4.5c1-1.2,1.9-2.3,2.9-3.6c0.8-1.3,1.7-2.6,2.3-4.1c1.4-2.9,2.5-5.8,3.2-8.9
				c0.6-3.1,0.9-6.3,0.4-9.6c-0.3-1.6-0.6-3.2-1.3-4.7C720.5,566.3,719.7,564.9,718.6,563.7z"/>
		</g>
		<g>
			<path class="st38" d="M721.7,575.4c-0.3,2.5-0.4,4.9-0.9,7.3c-0.5,2.3-1.2,4.7-1.9,7.1c1.6-1.9,2.3-4.4,2.9-6.9
				C722.2,580.4,722.3,577.8,721.7,575.4z"/>
		</g>
		<g>
			<path class="st37" d="M699.1,552.3c-0.5,3.6-1.2,7.1-2.1,10.6c-0.9,3.5-1.9,6.9-3,10.4c-1,3.5-2.1,7-3,10.5
				c-0.5,1.8-0.9,3.6-1.3,5.4c-0.4,1.8-0.8,3.6-1,5.4c2.1-3.1,3.8-6.3,5.4-9.7c1.6-3.4,2.9-6.9,3.9-10.4c1-3.6,1.9-7.1,2.2-11
				C700.4,559.7,700.4,555.8,699.1,552.3z"/>
		</g>
		<g>
			<path class="st38" d="M698.3,568c-0.9,2.9-1.6,5.8-2.3,8.6c-0.8,2.9-1.7,5.6-2.9,8.4c1.8-2.3,3-5.3,3.8-8
				C697.7,573.9,698.2,571,698.3,568z"/>
		</g>
		<g>
			<path class="st37" d="M541,548.5c-2.5,2.6-4.1,6.1-5.1,9.6c-0.9,3.6-1.2,7.3-0.9,11c0.3,3.6,1.2,7.1,2.3,10.6
				c1.2,3.4,2.9,6.6,4.8,9.6c-0.5-3.6-1.2-7-1.8-10.5c-0.6-3.4-1-6.7-1.4-10.2s-0.3-6.7,0-10.1C539.3,555.3,540,552,541,548.5z"/>
		</g>
		<g>
			<path class="st38" d="M527.2,498.7c-1,3.2-1.3,6.7-1,10.2c0.3,3.4,0.9,6.7,2.3,10c-0.6-3.4-1-6.7-1.3-10
				C526.8,505.4,527,502,527.2,498.7z"/>
		</g>
		<g>
			<path class="st37" d="M564.6,548.1c-2.5,2.5-4.1,5.8-4.7,9.5c-0.6,3.6-0.4,7.3,0.5,10.8c0.9,3.5,2.3,6.7,4.1,9.7
				c1.8,3,3.8,5.8,6.2,8.3c-0.9-3.4-2.2-6.5-3.4-9.7c-1.2-3.1-2.3-6.2-3-9.3c-0.8-3.1-1.2-6.3-1.2-9.5
				C563,554.7,563.6,551.4,564.6,548.1z"/>
		</g>
		<g>
			<path class="st38" d="M560.3,557.9c-0.8,2.9-0.8,6-0.3,8.9c0.5,3,1.6,5.8,3.2,8.4c-1-2.9-1.8-5.7-2.2-8.6
				C560.6,564,560.5,561,560.3,557.9z"/>
		</g>
		<g>
			<path class="st37" d="M587.4,552.9c-1.7,2.6-2.7,5.6-3.2,8.6c-0.6,3-0.8,6.2-0.6,9.2c0.3,3.1,0.6,6.1,1.6,9.1
				c0.9,2.9,2.1,5.8,3.8,8.3c-0.1-3.1-0.5-6-0.8-8.9c-0.3-2.9-0.5-5.8-0.6-8.7c-0.1-2.9-0.3-5.8-0.3-8.7
				C587.1,558.8,587.3,556,587.4,552.9z"/>
		</g>
		<g>
			<path class="st38" d="M584.6,561.3c-1,3.1-1.4,6.5-1,9.7c0.1,1.7,0.4,3.2,0.8,4.9c0.3,0.8,0.4,1.6,0.6,2.3c0.1,0.4,0.3,0.8,0.5,1
				l0.3,0.6c0,0.1,0,0.3,0,0.3s-0.3,0-0.3-0.1c-0.1,0.1,0.1,0.3,0.3,0.3c0.1-0.1,0.1-0.3,0.1-0.3l-0.1-0.6c-0.1-0.4-0.3-0.8-0.3-1.2
				c-0.3-0.8-0.3-1.6-0.4-2.3c-0.3-1.6-0.5-3.2-0.6-4.8C584.2,567.8,584.3,564.5,584.6,561.3z"/>
		</g>
		<g>
			<path class="st24" d="M611,350.6c-1.4,0.3-2.7,1-3.8,1.9c-1,0.9-1.9,2.1-2.7,3.4c-0.6,1.3-1.2,2.7-1.6,4.1s-0.4,2.9-0.3,4.3
				c0.6-1.3,1-2.6,1.7-3.8c0.5-1.2,1-2.3,1.7-3.6c0.6-1,1.3-2.2,2.1-3.2C609.2,352.5,610.1,351.5,611,350.6z"/>
		</g>
		<g>
			<path class="st24" d="M558,371.1c1.6,0,3.2,0,4.7,0.1c1.6,0.1,3,0.4,4.5,0.8c1.6,0.4,2.9,0.8,4.3,1.4c1.4,0.6,2.9,1.3,4.1,2.1
				c-0.9-1.4-2.1-2.6-3.5-3.5c-1.4-0.9-2.9-1.6-4.5-1.9c-1.6-0.4-3.2-0.5-5.1-0.4C561.2,369.8,559.5,370.1,558,371.1z"/>
		</g>
		<g>
			<path class="st39" d="M610,401.8c-0.5,0.6-0.6,1.2-1,1.8c-0.3,0.6-0.5,1.2-0.6,1.9c0.6-0.3,1.2-0.9,1.6-1.6
				C610.1,403.2,610.3,402.4,610,401.8z"/>
		</g>
		<g>
			<path class="st39" d="M591.9,408.6c0.6,0.6,1.3,1,2.1,1.2c0.8,0.3,1.6,0.3,2.3-0.1c-0.6-0.5-1.4-0.6-2.1-0.8
				C593.3,408.8,592.6,408.6,591.9,408.6z"/>
		</g>
		<g>
			<path class="st39" d="M436.4,478.6c-0.5,0.6-0.6,1.2-1,1.8c-0.4,0.6-0.5,1.2-0.6,1.9c0.6-0.3,1.2-0.9,1.6-1.6
				C436.7,480,436.7,479.2,436.4,478.6z"/>
		</g>
		<g>
			<path class="st39" d="M418.3,485.4c0.6,0.6,1.3,1,2.1,1.2s1.6,0.3,2.3-0.1c-0.6-0.5-1.4-0.6-2.1-0.8
				C419.7,485.4,419,485.4,418.3,485.4z"/>
		</g>
		<g>
			<path class="st39" d="M250.1,412.1c-0.8,0-1.4,0-1.9,0.1c-0.6,0.1-1.2,0.3-1.9,0.5c0.6,0.5,1.4,0.6,2.1,0.5
				C248.9,413.2,249.7,412.6,250.1,412.1z"/>
		</g>
		<g>
			<path class="st39" d="M234.4,402.7c-0.3,0.8-0.1,1.6,0.1,2.3c0.3,0.6,0.6,1.4,1.4,1.9c0-0.9-0.3-1.6-0.5-2.3
				C235.2,404,234.9,403.2,234.4,402.7z"/>
		</g>
		<g>
			<path class="st35" d="M564.4,243.3c-1.8-2.9-4.1-5.2-6.7-7.3c-2.6-2.1-5.3-4-8.3-5.6c-5.8-3.2-12.2-5.6-18.9-6.6
				c-6.7-1-13.7-0.6-20.2,1.9c-3.2,1.3-6.1,3.1-8.7,5.4c-2.5,2.3-4.5,5.1-6.1,7.9c4.7-4.5,10.1-8,15.9-9.6c5.8-1.6,12-1.6,18.1-0.6
				c6.1,0.9,12.2,2.9,18,5.2c2.9,1.2,5.8,2.5,8.6,4.1C559.1,239.6,561.8,241.2,564.4,243.3z"/>
		</g>
		<g>
			<linearGradient id="SVGID_11_" gradientUnits="userSpaceOnUse" x1="224.2733" y1="355.9102" x2="244.7897" y2="355.9102">
				<stop  offset="0" style="stop-color:#000000"/>
				<stop  offset="1" style="stop-color:#B26830"/>
			</linearGradient>
			<path class="st40" d="M224.6,303c3.9,3.7,7.7,7.5,11,11.7c1.7,2.1,3.2,4.3,4.6,6.6c0.7,1.1,1.4,2.3,2,3.5
				c0.6,1.2,1.3,2.4,1.7,3.7c0.5,1.3,0.8,2.7,0.6,4.1c-0.2,1.4-0.8,2.8-1.8,3.8c-1,1-2.2,1.8-3.5,2.3c-1.3,0.6-2.6,1-3.9,1.3
				c-1.3,0.3-2.6,0.6-3.9,0.9c-0.6,0.1-1.3,0.3-1.8,0.6c-0.6,0.2-1.2,0.6-1.3,0.9c0,0.1,0,0.3,0.2,0.5c0.1,0.1,0.2,0.2,0.3,0.3
				l0.4,0.3c0.5,0.4,1.1,0.8,1.6,1.3c1,0.9,2.1,1.7,3,2.7c1.9,1.9,3.7,4,5,6.4c1.3,2.4,2.2,5.1,2.4,7.8c0.2,2.8-0.3,5.5-0.8,8.1
				c-0.6,2.6-1.3,5.2-2.1,7.8c-1.5,5.2-3.2,10.3-4.6,15.4c-0.7,2.6-1.4,5.2-2,7.8c-0.6,2.6-1.1,5.3-1.2,7.9c0-2.7,0.4-5.4,0.9-8
				c0.5-2.6,1.1-5.3,1.8-7.8c1.4-5.2,2.9-10.3,4.3-15.5c0.7-2.6,1.4-5.2,2-7.8c0.6-2.6,1-5.2,0.8-7.8c-0.2-2.6-1.1-5.1-2.4-7.4
				c-1.3-2.3-3-4.3-4.9-6.2c-0.9-0.9-1.9-1.8-3-2.7c-0.5-0.4-1-0.8-1.6-1.2l-0.4-0.3c-0.2-0.1-0.3-0.3-0.4-0.4
				c-0.3-0.3-0.5-0.9-0.3-1.4c0.2-0.5,0.5-0.8,0.8-1c0.3-0.2,0.7-0.4,1-0.5c0.7-0.3,1.3-0.4,2-0.6c1.3-0.3,2.6-0.6,3.9-0.9
				c2.5-0.7,5.2-1.5,6.9-3.4c0.9-0.9,1.4-2.1,1.6-3.3c0.2-1.2-0.1-2.5-0.5-3.8c-0.4-1.2-1-2.4-1.6-3.6c-0.6-1.2-1.3-2.4-1.9-3.5
				c-1.4-2.3-2.9-4.5-4.5-6.6C232,310.8,228.3,306.9,224.6,303z"/>
		</g>
		<g>
			<linearGradient id="SVGID_12_" gradientUnits="userSpaceOnUse" x1="334.6543" y1="402.7947" x2="380.0981" y2="402.7947">
				<stop  offset="0" style="stop-color:#000000"/>
				<stop  offset="1" style="stop-color:#B26830"/>
			</linearGradient>
			<path class="st41" d="M360.9,386.8c-0.2-0.3-0.6-0.2-0.7,0c-0.2,0.2-0.2,0.5-0.1,0.8c0.3,0.5,0.8,0.8,1.2,1.2l2.6,2.3l5.2,4.7
				l10.4,9.4l0.4,0.3l-0.4,0.3c-1.6,1.4-3.6,2-5.6,2.4c-2,0.4-3.9,0.5-5.9,0.8c-3.9,0.6-7.8,1.3-11.7,2c-3.9,0.8-7.7,1.6-11.5,2.6
				c-1.9,0.5-3.8,1-5.7,1.6c-1,0.3-1.8,0.6-2.6,1.1c-0.8,0.5-1.3,1.3-1.1,2.1l-0.4-0.2l11.2-0.2l11.2-0.1l-11.2,0.6l-11.2,0.5
				l-0.3,0l-0.1-0.3c-0.2-0.6-0.1-1.2,0.2-1.7c0.3-0.5,0.7-0.9,1.1-1.2c0.8-0.6,1.9-1,2.8-1.3c1.9-0.6,3.8-1.1,5.7-1.6
				c3.8-1,7.7-1.9,11.6-2.7c3.9-0.8,7.8-1.4,11.7-2c2-0.3,3.9-0.5,5.9-0.8c1.9-0.3,3.8-0.9,5.2-2.1l0,0.6l-10.2-9.6l-5.1-4.8
				l-2.5-2.4c-0.4-0.4-0.9-0.8-1.2-1.3c-0.1-0.3-0.1-0.6,0.1-0.8C360.4,386.6,360.8,386.5,360.9,386.8z"/>
		</g>
		<g>
			<linearGradient id="SVGID_13_" gradientUnits="userSpaceOnUse" x1="296.4417" y1="149.5928" x2="388.9597" y2="149.5928">
				<stop  offset="0" style="stop-color:#000000"/>
				<stop  offset="1" style="stop-color:#B26830"/>
			</linearGradient>
			<path class="st42" d="M297.9,67.2c2.8,12.1,7,23.8,12.5,34.8c2.8,5.5,5.9,10.8,9.3,15.9c3.4,5.1,7.1,10,11.1,14.6
				c8,9.3,17.3,17.6,24.8,27.8c3.8,5,7,10.6,9.2,16.5c2.2,5.9,3.4,12.4,2.8,18.8l-0.5-1c3,2.2,5.7,4.8,8,7.7c2.3,2.9,4.4,6,5.9,9.4
				c1.5,3.3,2.7,6.9,3.4,10.5c0.4,1.8,0.5,3.6,1,5.3c0.4,1.7,1.2,3.5,2.7,4.6c-1.6-1-2.5-2.7-3.1-4.4c-0.6-1.8-0.8-3.6-1.3-5.3
				c-0.8-3.5-2.2-6.9-3.8-10c-1.7-3.2-3.7-6.1-6.1-8.8c-2.4-2.7-5-5-7.9-7.1l-0.5-0.4l0-0.6c0.4-6-0.9-12-3.1-17.6
				c-2.2-5.6-5.4-10.9-9-15.7c-7.4-9.8-16.6-18.1-24.7-27.6c-4-4.8-7.7-9.8-11.1-15.1c-3.3-5.3-6.3-10.8-8.9-16.4
				C303.4,91.5,299.8,79.4,297.9,67.2z"/>
		</g>
		<g>
			<linearGradient id="SVGID_14_" gradientUnits="userSpaceOnUse" x1="592.1159" y1="141.288" x2="691.5434" y2="141.288">
				<stop  offset="0" style="stop-color:#000000"/>
				<stop  offset="1" style="stop-color:#B26830"/>
			</linearGradient>
			<path class="st43" d="M662,10.1c9.3,23.6,17.4,47.8,23.5,72.5c3.1,12.3,5.3,25,5.8,37.8c0.5,12.8-0.6,25.7-3.3,38.2
				c-2.8,12.5-7.3,24.7-13.2,36c-6,11.3-13.3,21.9-21.8,31.5c-8.4,9.6-17.9,18.3-28,26c-10.2,7.7-21,14.5-32.2,20.3
				c10.9-6.4,21.5-13.5,31.3-21.5c9.9-7.9,19-16.7,27.2-26.4c16.3-19.2,28.4-42.1,33.8-66.7c2.8-12.3,3.8-24.9,3.4-37.5
				c-0.3-12.6-2.4-25.1-5.2-37.4c-2.8-12.4-6.1-24.6-9.7-36.7C670.1,34.1,666.1,22.1,662,10.1z"/>
		</g>
		<g>
			<linearGradient id="SVGID_15_" gradientUnits="userSpaceOnUse" x1="272.6001" y1="280.71" x2="358.1495" y2="280.71">
				<stop  offset="0" style="stop-color:#B26830"/>
				<stop  offset="1" style="stop-color:#000000"/>
			</linearGradient>
			<path class="st44" d="M273.1,319.4l6.5-21.4l6.5-21.4l0.6,0.2c-1.2,4.7-2.4,9.3-3.2,14c-0.8,4.7-1.2,9.5-0.7,14.2l-0.8-0.2
				l14-23.3l0.7-1.2l0.2,1.4l0.9,8.1l-1-0.1c1.7-5.1,3.7-10.1,6-14.9l0.8-1.7l0.1,1.9l0.3,6.9l-0.9-0.2c3.2-5.6,6.9-10.9,11-15.8
				l0.5-0.6l0.3,0.7c0.9,2.5,1,5.3,0.4,7.9l-0.8-0.3c2.8-5,5.9-9.8,9.3-14.4l0.5-0.7l0.1,0.9l0.4,4.6l-0.6,0
				c0.3-1.8,1.2-3.4,2.4-4.8c1.2-1.4,2.6-2.5,4.1-3.4c3-1.9,6.4-3,9.4-4.7c1.5-0.8,3-1.8,4.2-3c1.3-1.2,2.5-2.4,3.9-3.5
				c1.4-1.1,2.9-2,4.7-2.3c1.7-0.4,3.6-0.2,5,0.9c-1.4-1.1-3.3-1.2-5-0.8c-1.7,0.4-3.3,1.3-4.6,2.4c-1.3,1.1-2.5,2.4-3.8,3.6
				c-1.3,1.2-2.7,2.3-4.2,3.1c-3.1,1.7-6.4,2.9-9.3,4.8c-1.5,0.9-2.8,2-3.9,3.3c-1.1,1.3-1.9,2.9-2.2,4.5l-0.4,2.5l-0.2-2.5
				l-0.4-4.6l0.6,0.2c-3.3,4.6-6.4,9.4-9.1,14.4l-1.6,3l0.8-3.3c0.6-2.4,0.5-5-0.4-7.4l0.7,0.1c-4.1,4.9-7.7,10.2-10.8,15.7
				l-0.8,1.4l-0.1-1.6l-0.3-6.9l0.9,0.2c-2.3,4.8-4.3,9.7-5.9,14.8l-0.7,2.2l-0.2-2.3l-0.9-8.1l0.9,0.2l-14.1,23.3l-0.7,1.1
				l-0.1-1.3c-0.5-4.8-0.1-9.7,0.7-14.5c0.8-4.8,2.1-9.4,3.3-14.1l0.6,0.2l-6.8,21.3L273.1,319.4z"/>
		</g>
		<g>
			<linearGradient id="SVGID_16_" gradientUnits="userSpaceOnUse" x1="393.4203" y1="321.2722" x2="465.2708" y2="321.2722">
				<stop  offset="0" style="stop-color:#B26830"/>
				<stop  offset="1" style="stop-color:#000000"/>
			</linearGradient>
			<path class="st45" d="M397.1,379.9c-1.6-7.7-2.6-15.6-3.1-23.5c-0.5-7.9-0.4-15.8,0.2-23.7l0.6,0l0.4,23.1l-0.7,0
				c0.7-10.6,2-21.2,4-31.7l0.4-2.3l0.4,2.3l2,12l-0.9,0l3.6-21.3l0.3-1.9l0.6,1.8c1,2.9,1.5,6.1,1.3,9.2l-0.9-0.1
				c0.8-7.4,2.9-14.6,6.1-21.4l0.3-0.6l0.4,0.6c1.8,2.5,2.8,5.5,2.7,8.6l-0.8-0.1c2.1-7.7,5.1-15.2,9-22.2l0.3-0.6l0.3,0.6
				c0.7,1.5,0.7,3.2,0.2,4.8l-0.6-0.3c2.4-4.5,5.7-8.5,9.6-11.7l0.5-0.4l0,0.6c0,1-0.5,2-1.3,2.7l-0.6,0.5l0.2-0.8
				c0.7-3.5,2.5-6.7,5.1-9.2c0.6-0.6,1.3-1.2,2.1-1.6c0.8-0.4,1.7-0.7,2.6-0.7c1,0.1,1.8,0.6,2.3,1.4c0.5,0.7,0.7,1.9,0.1,2.7
				l-0.2-0.3l21.3-13.9l-21.1,14.2l-0.9,0.6l0.7-0.9c0.5-0.6,0.3-1.6-0.1-2.2c-0.5-0.7-1.2-1.2-2-1.2c-1.7-0.1-3.2,1-4.4,2.2
				c-2.5,2.4-4.2,5.6-4.9,8.9l-0.5-0.3c0.7-0.6,1.1-1.4,1.1-2.3l0.5,0.2c-3.8,3.2-7.1,7.2-9.4,11.6l-0.6-0.3c0.5-1.4,0.4-3-0.2-4.3
				l0.6,0c-3.8,7-6.8,14.4-8.8,22l-0.8,3.1l0.1-3.2c0-2.9-0.9-5.8-2.6-8.1l0.7-0.1c-3.1,6.7-5.1,13.8-5.9,21.1l-0.9-0.1
				c0.1-3-0.3-6-1.3-8.8l1-0.1l-3.6,21.3l-0.5,2.6l-0.4-2.6l-2-12l0.8,0c-2.1,10.4-3.5,21-4.2,31.6l-0.7,0l-0.3-23.1l0.6,0
				c-0.7,7.9-0.8,15.8-0.4,23.6C394.7,364.3,395.6,372.1,397.1,379.9z"/>
		</g>
		<g>
			<linearGradient id="SVGID_17_" gradientUnits="userSpaceOnUse" x1="491.0622" y1="254.3781" x2="551.8445" y2="254.3781">
				<stop  offset="0" style="stop-color:#B26830"/>
				<stop  offset="1" style="stop-color:#000000"/>
			</linearGradient>
			<path class="st46" d="M551.1,230.8c-1.7-1.6-3.8-2.5-6-3.3c-2.1-0.8-4.4-1.4-6.6-1.9c-4.5-0.9-9.1-1.3-13.6-1.2
				c-4.5,0.1-9.1,0.7-13.4,2.1c-4.3,1.3-8.1,3.8-10.9,7.2c-2.9,3.4-4.9,7.5-6.2,11.8c-0.6,2.2-1.2,4.4-1.4,6.5
				c-0.2,2.2-0.2,4.5,0,6.8c0.3,4.5,1,9.1,2,13.6c0.9,4.5,2,9,3.3,13.4c-3.2-8.6-5.8-17.6-6.8-26.8c-0.2-2.3-0.3-4.7-0.2-7
				c0.2-2.4,0.7-4.7,1.3-7c1.3-4.5,3.4-8.9,6.5-12.5c1.6-1.8,3.4-3.4,5.4-4.7c2-1.3,4.3-2.2,6.5-2.9c4.5-1.4,9.2-1.8,13.9-1.8
				c4.7,0.1,9.3,0.6,13.8,1.8c2.2,0.6,4.5,1.3,6.6,2.2C547.4,228,549.5,229.1,551.1,230.8z"/>
		</g>
		<g>
			<linearGradient id="SVGID_18_" gradientUnits="userSpaceOnUse" x1="296.5869" y1="89.953" x2="339.3981" y2="89.953">
				<stop  offset="0" style="stop-color:#B26830"/>
				<stop  offset="1" style="stop-color:#000000"/>
			</linearGradient>
			<path class="st47" d="M339.2,78.7c-7-1.9-14-3.7-21.1-5.4c-3.5-0.8-7.1-1.6-10.6-2.3l-5.3-1.1c-0.9-0.2-1.8-0.4-2.6-0.5
				c-0.8-0.1-1.7,0-2.1,0.6l0.1-0.4c1,3.7,2,7.4,3.3,11.1c1.3,3.6,2.8,7.2,4.3,10.7c1.6,3.5,3.4,6.9,5.3,10.3c1.9,3.4,4,6.6,6.2,9.8
				c-2.4-3.1-4.6-6.3-6.6-9.5c-2-3.3-3.9-6.7-5.6-10.2c-1.7-3.5-3.2-7.1-4.5-10.7c-1.3-3.6-2.5-7.4-3.4-11.1l-0.1-0.2l0.2-0.2
				c0.4-0.4,0.9-0.7,1.4-0.8c0.5-0.1,1-0.1,1.5-0.1c1,0.1,1.8,0.3,2.7,0.5l5.3,1.1c3.5,0.8,7.1,1.6,10.6,2.5
				C325.4,74.4,332.4,76.4,339.2,78.7z"/>
		</g>
	</g>
</g>
<path class="st48" d="M1200.5,1312.4l-1-0.3c-54.7-203.3-37.4-380.1-189.7-426.6c-123.6-37.7-239.8,125-368.7,141.5
	c-78.3,10.1-106.1-47.8-184.7-56.7c-61.6-6.9-127.1,0-184.3-18.8c-53.3-17.5-87.9-100-191.9-26.6c-68,48-79.3,387.4-79.3,387.4
	H1200.5z"/>
<path class="st49" d="M1198.7,1312.4c-0.8-74.9-11.6-332.4-176.8-382.4c-41.9-12.7-85.5,15.4-115.6,39.9
	c-30.1,24.5-53.3,54-86.4,76.1c-85,56.6-231.3,45.8-300.7-22.1c-24.8-24.3-40.5-54.2-70.6-74.7c-48.2-32.8-129.7-31.2-175.7,3.4
	c-10.8-35.6-30.2-72-69.3-93.1c-39-21.1-87.5-28.7-127.2,11.5c-93.3,112.8-67.1,365-74.2,441.2H1198.7z"/>
<path class="st50" d="M382.7,1312.4c56.8-53,113.8-86.4,170.8-68.9c78.9,24.2,158.5,48.2,239.3,68.9h402.7l5-20.2
	c-0.4-0.1-0.7-0.2-1.1-0.2c-53.3-11.3-120.7-152.4-142.6-114.8c-16.6-31.4-37.5-63-73.3-83.9c-35.8-20.9-90.1-27.9-127-8.1
	c22.2-35.7-8.7-79.8-54.7-99.5s-102.2-20.9-155.4-19.3c-53.2,1.6-107.8,5.2-158.7-6.4c-54.1-12.4-87.2-30.8-104.1-61.4
	c-16.8-30.5-61-48.2-104.6-41.2c-15.8,2.5-29.3,7.2-38,16.1C58.2,985.7,23.1,1188.8,13,1312.4H382.7z"/>
<path class="st50" d="M61.9,1312.4h270.8c48.8-55.2,97.8-90.7,146.6-75.7c87.8,26.9,176.4,53.6,266.6,75.7h453.6
	c-13.8-39.3-0.2-146.4-79.2-190.3c-47.6-26.5-115.7,10.6-137.6,48.2c-16.6-31.4-37.5-63-73.3-83.9c-35.8-20.9-90.1-27.9-127-8.1
	c22.2-35.7-8.7-79.8-54.7-99.5S625.7,958,572.4,959.5s-107.8,5.2-158.7-6.4c-54.1-12.4-87.2-30.8-104.1-61.4
	c-16.8-30.5-96.5-45.7-102.5,51.3c-1,15.9-228,12-147,182C97.9,1204.3,85.2,1266.5,61.9,1312.4z"/>
<g>
	<path class="st51" d="M170.2,1126.8c19.7,0,83.6,32,172,12.3c88.5-19.7,93.4-14.7,118-4.9c24.6,9.8,56.5-4.9,76.2-4.9
		c-32-7.4-67.5-0.8-71.3-27c-2.5-17.2-17.2-12.3-22.1-7.4c-4.9-17.2-32-68.8-90.9-39.3c-2.5-17.2-24.6-32-49.2-14.7
		c-17.2-29.5-95.9-51.6-135.2,7.4c-14.7-12.3-68.8-7.4-76.2,24.6c-2.2-3.9-6.3,20.5-11.5,61c12.4,3.6,25.6,10.2,43.4,10.2
		C145.6,1144,150.5,1126.8,170.2,1126.8z"/>
	<path class="st51" d="M59,1312.4c7.9-68.2,15.3-133.4,21.1-178.7c-11.5-3.4-22.2-4.1-35.2,5.3c-5.4,3.9-10.9,79-16.4,173.4H59z"/>
	<path class="st49" d="M173.9,1118.2c19.7,0,61.4,29.5,163.4,20.9c109-9.2,70.9-109.9,13.5-77.4c-55.8,31.6-62,19.6-83.6-9.8
		c-20.2-27.5-66.4-59-115.5,14.7c-14.7-12.3-54.1-14.7-61.4,17.2c-2-3.6-5.6,16.5-10.2,50.7c12.2,4.6,25.3,9.5,38.4,9.5
		C140.7,1144,154.2,1118.2,173.9,1118.2z"/>
	<path class="st49" d="M58.9,1312.4c8.1-69.5,15.5-134.9,21.3-178c-19.9-7.5-37.5-14-48.8,3.4c-16.6,25.3-24.7,93.7-28.5,174.6H58.9
		z"/>
</g>
<path class="st48" d="M1061.5,1312.4c-9.3-13.6-12.8-25.4-17.7-35.4c-14.3-29.3-56-66.4-147-63c-129.6,4.9-133.9-61.2-145.5-87.4
	c-37-83.1-148.1-141.1-271.5-100.1c-75.1,24.9-113.1,74.5-128.8,134.1c-34.3-33-58.5-89.4-107.2-110.2
	c-58.6-25-115.2-5.5-146.6,13.7c-60.4,36.8-73.2,150.9-77.8,248.3H1061.5z"/>
<path class="st49" d="M1195.5,1312.4v-41.6c-54.8-27.3-108.5-44-140.7-27.7c-69.3,35.1-87.8,13-137-14
	c-35-19.3-106.6,17.5-134.3-7.4c-14.8-13.3-18.4-31.3-24.4-47.9c-23.2-63.4-96.7-117.3-184.8-126.4c-88.1-9.1-183.9,32.7-206,96.3
	c-42.1-32.1-87.2-65.4-145.6-77.3c-58.4-11.9-133,7.5-147.5,50.8c-3.1-25.4-53,61.4-71.9,195.3H1195.5z"/>
<path class="st48" d="M1195.5,1312.4v-63.2c-60.9-14.4-99.9-60.1-148.7-11.2c-19.5,19.5-17.9,48.9-5.6,74.4H1195.5z"/>
<path class="st49" d="M1195.5,1312.4v-13.9c-6.2,4.4-12.3,9-18.5,13.9H1195.5z"/>
</svg>
