<?xml version="1.0" encoding="utf-8"?>
<!-- Generator: Adobe Illustrator 24.0.2, SVG Export Plug-In . SVG Version: 6.00 Build 0)  -->
<svg version="1.1" id="Layer_1" xmlns="http://www.w3.org/2000/svg" xmlns:xlink="http://www.w3.org/1999/xlink" x="0px" y="0px"
	 viewBox="0 0 749 771" style="enable-background:new 0 0 749 771;" xml:space="preserve">
<style type="text/css">
	.st0{fill:#201F33;}
	.st1{fill:url(#SVGID_1_);}
	.st2{fill:#DF4426;}
</style>
<path class="st0" d="M436.2,242.4c14.6-11.4,17.6-94.1,72.8-69.8c26.3,11.6-20.6,122-48.5,93.3C446.2,251.2,429.6,247.5,436.2,242.4
	z"/>
<path class="st0" d="M428.8,360.7c4.4,9.6,4.4,31.6,0,39s-34.5,15.4-27.9-22.8S428.8,360.7,428.8,360.7z"/>
<path class="st0" d="M517,319.5c5.1,11,5.1,19.1,0,28.7c-5.1,9.6-7.4,25-1.5,28.7c5.9,3.7,6.6,18.4,11,23.5
	c4.4,5.1,11,8.8,19.1,13.2s51.5,2.9,53.7,16.9c2.2,14-25,31.6-56.6,14c-31.6-17.6-59.5-26.5-66.9-47.8
	c-7.4-21.3-32.3-58.8-26.5-65.4S517,319.5,517,319.5z"/>
<linearGradient id="SVGID_1_" gradientUnits="userSpaceOnUse" x1="475.5121" y1="771" x2="475.5121" y2="382.924">
	<stop  offset="0" style="stop-color:#26233E"/>
	<stop  offset="1" style="stop-color:#23203A"/>
</linearGradient>
<path class="st1" d="M278.9,657.9c-2.2-38,0.7-191.4,12.5-199.2c11.8-7.7,67.6-26.3,88.2-45.7c20.6-19.4,83.8-46.5,118.3-17
	c1.5,15.5,5.1,24,16.2,20.1c4.4,9.3,5.1,18.5,16.9,25.1c11.8,6.6,61.7-27.5,71.3,2c9.6,29.4,9.6,120.9,27.9,134.8
	s26.5,20.1,37.5,30.2s47.8,75.9,52.9,79S750,771,750,771H201c0,0,36.8-58.9,52.2-72.1C268.6,685.8,278.9,657.9,278.9,657.9z"/>
<path class="st0" d="M389.9,9.4c11.5-6-39.7,92.6-5.1,139.7s66.2,62.5,94.8,68.4c28.7,5.9-94.8,91.1-105.8,82.3
	c-11-8.8,4.4-24.3-10.3-30.1s-48.5-27.2-65.4-7.4c-6.6,33.1-5.9,39-8.1,55.1c-4.4-8.8-6.6-26.5-12.5-20.6S262,463.6,265.7,499.6
	c-13.2-30.9-27.2-60.3-41.2-106.6c-2.9,14.7-5.9,55.9-4.4,69.1C212.7,432,81.9,170.3,389.9,9.4z"/>
<path class="st0" d="M531,208.6c5.1-12.5,39-151.4,131.6-155.1c-16.9,65.4-48.5,57.3-52.9,96.3c-10.3,8.1-27.9,70.6-27.9,91.9
	C558.9,249.7,531,208.6,531,208.6z"/>
<path class="st0" d="M453.8,214.4c15.6-5.5,72.8-37.5,105.1-9.6c32.3,27.9,37.5,75,34.5,91.9c-2.9,16.9-39,32.3-41.9,21.3
	c-2.9-11-5.1-21.3-16.2-22.1s-1.5,8.8-2.2,18.4c-6.6,7.4-25,21.3-30.9,23.5c-5.9,2.2-71.3,26.5-86,37.5c-14.7,11-60.3,11-75.7,32.3
	s-34.7,43.5-41.9,72c-22.6,90.2,1.5,164.6-90.4,177.9c-64.5,9.3-114.7-11-133.8,1.5s-16.9,39.7,39,47c55.9,7.4,121.3,22.1,41.9,18.4
	S-43,694.4,29,647.4c72-47,190.4,0,207.3-55.1C266.3,494.4,221.6,296.8,453.8,214.4z"/>
<path class="st0" d="M573.6,286.5c1.8,9.7,12.5,5.9,18.4-8.8c5.9-14.7,5.1-7.4,3.7,2.9c-1.5,10.3-4.4,16.9,1.5,16.9
	c5.9,0,20.6-16.2,18.4-8.1s-22.8,13.2-8.8,14c14,0.7,39.7,10.3,22.8,10.3c-16.9,0-22.8,2.9-25,6.6c-2.2,3.7,11.8,14,0.7,11.8
	c-11-2.2-17.6,11-20.6,16.2s-11,23.5-23.5,21.3c-12.8-2.3-10.3-39.7-8.1-46.3c2.2-6.6-14-25.7-5.1-22.1c8.8,3.7,13.2-9.6-3.7-20.6
	c-16.9-11,0-12.5,12.5-0.7c12.5,11.8,5.1-3.7,6.6-14C564.8,255.6,572.2,278.4,573.6,286.5z"/>
<path class="st0" d="M654.5,248.9c8.1,5.6,13-4.7,6.8-19.2c-6.2-14.6-1.6-8.8,4.7-0.5c6.2,8.3,8.8,15.1,13,10.9
	c4.2-4.2,3.1-26,7.3-18.7c4.2,7.3-6.8,25.5,3.6,16.1c10.4-9.4,35.3-20.8,23.4-8.8c-12,12-14,18.2-13,22.3c1,4.2,18.2,1.6,8.8,7.8
	c-9.4,6.2-4.7,20.3-3.1,26c1.6,5.7,8.8,24.4-1.6,31.7c-10.7,7.5-35.3-20.8-38.5-27c-3.1-6.2-28.1-8.3-19.2-12s2.6-16.1-17.2-12
	c-19.7,4.2-8.8-8.8,8.3-9.4c17.2-0.5,1-6.2-5.2-14.6C626.5,233.4,647.8,244.3,654.5,248.9z"/>
<path class="st0" d="M594.2,240.2c72.7,22.4,84.5,30.9,88.9,19.1c4.4-11.8-12.5-50-47.8-71.3c-35.3-21.3-92.6-13.1-125,0
	c-105.1,42.6,11,51.5,11,51.5S536.9,222.5,594.2,240.2z"/>
<path class="st0" d="M453.1,269.6c-5.1,5.1-32.3,27.2-40.4,31.6c16.9,5.9,24.3,6.6,32.3,16.2c8.1,9.6,12.5,33.9,20.2,35
	s30.5,1.8,32.7,12.8c2.2,11-53.7,22.1-61,12.5s-5.1-28.7-11.8-33.1c-6.6-4.4-42.6-17.6-45.6-33.8c-2.9-16.2,16.9-71.3,69.1-79.4"/>
<path class="st0" d="M376.7,361.4c10.6,4.4,14.7,33.8,11,43.4c-3.7,9.6-7.4,15.4-16.9,18.4c-9.6,2.9-38.2,16.2-37.5,8.1
	c0.7-8.1,14-12.5,19.8-19.1c5.9-6.6,3.7-20.6-8.8-26.5S351.7,351.2,376.7,361.4z"/>
<path class="st0" d="M553.1,432.7c-1,2.5-5.7-15.9,2.6-16.8c8.4-0.9,12.1,6.5,10.6,10.9S557.5,421.7,553.1,432.7z"/>
<path class="st0" d="M574.4,431.3c-0.5,3.2-3.7-11.8,2.2-14c5.9-2.2,8.8,3.7,8.8,8.8C581.7,426.1,575.1,426.9,574.4,431.3z"/>
<path class="st0" d="M586.9,432c0.9,2.8-2.9-8.1,2.2-12.5s11.8,3.7,11.8,9.6c-3.7-0.7-4.4-7.4-8.8-5.1
	C587.6,426.1,586.1,429.8,586.9,432z"/>
<path class="st0" d="M332.6,430.5c-0.7,2.1-1.5-10.3,5.9-10.3s6.6,9.6,3.7,11C339.9,429.1,333.3,428.3,332.6,430.5z"/>
<path class="st0" d="M345.8,426.9c-2,3.1-4.4-12.5,5.9-12.5c7.5,0,6.6,8.1,3.7,11C351.7,423.9,347.3,424.7,345.8,426.9z"/>
<path class="st0" d="M362.7,424.7c-0.7,2.9-5.9-12.5,2.9-13.2s10.6,4.7,7.8,10.8C370.3,420.5,363.4,421.7,362.7,424.7z"/>
<path class="st0" d="M445,375.4c0,2.2-11-6.6-2.2-12.5s11.8,1.5,11,4.4C451.6,367.3,445,368.1,445,375.4z"/>
<path class="st0" d="M464.1,373.2c0,2.7-7.4-8.8-1.5-12.5c5.9-3.7,11-0.7,10.3,4.4C468.5,365.9,464.1,372.5,464.1,373.2z"/>
<path class="st0" d="M484,374.7c-2.2-3.7-6.6-11.8,0.7-14c7.4-2.2,12.5,4.4,9.6,9.6c-4.4-2.2-11,0-10.3,5.1"/>
<path class="st0" d="M451.6,366.6c1.5,1.5,0.7,22.1-2.9,30.1c-0.7-10.3-0.7-13.2-2.9-15.4c-2.2-2.2-5.1-7.4-4.4-11.8
	S451.6,366.6,451.6,366.6z"/>
<path class="st0" d="M470.7,363.6c3.7,2.2,9.6,16.9-5.9,31.6c0.7-8.1,3.5-21-2.2-27C459.7,365.1,470.7,363.6,470.7,363.6z"/>
<path class="st0" d="M490.6,366.6c3.2,4.1,8.1,19.8-3.7,31.6c0-10.3-2.2-27.9-4.4-28.7C480.3,368.8,487.6,362.9,490.6,366.6z"/>
<path class="st0" d="M373,421c1.9,1.4-0.7,31.6-0.7,31.6s-11.6-23.1-10.6-28.5C362.7,418.8,367.8,417.3,373,421z"/>
<path class="st0" d="M356.1,425.4c0,0-2.9,7.4-2.9,24.3c-4.4-3.7-11-20.6-6.6-27.2c4.4-6.6,9.6,0.4,9.6,2"/>
<path class="st0" d="M344,432.6c0.4,4-6.3,13.4-4.1,20c-2.9-4.4-10.4-14.8-4.8-25.8S343.7,429.5,344,432.6z"/>
<path class="st0" d="M596.4,423.2c1.7,2.1,4.4,22.1-2.2,31.6c-0.7-6.6-6.1-23.5-7.1-26.1C586.1,426.1,593.5,419.5,596.4,423.2z"/>
<path class="st0" d="M582.5,422.4c5.1,4.4,7.4,19.8-1.5,32.3c-0.7-6.6-2.9-25.7-6.6-27.9S582.5,422.4,582.5,422.4z"/>
<path class="st0" d="M561.9,423.9c5.9,5.9,3.7,27.9,0.7,33.1c-1.5-6.6-8.8-22.8-9.6-26.5C552.3,426.9,557.5,419.5,561.9,423.9z"/>
<path class="st0" d="M441.3,244.6c1.8,9.7,12.5,5.9,18.4-8.8s5.1-7.4,3.7,2.9c-1.5,10.3-4.4,16.9,1.5,16.9s20.6-16.2,18.4-8.1
	c-2.2,8.1-22.8,13.2-8.8,14s39.7,10.3,22.8,10.3c-16.9,0-22.8,2.9-25,6.6c-2.2,3.7,11.8,14,0.7,11.8c-11-2.2-17.6,11-20.6,16.2
	c-2.9,5.1-11,23.5-23.5,21.3c-12.8-2.3-10.3-39.7-8.1-46.3s-14-25.7-5.1-22.1c8.8,3.7,13.2-9.6-3.7-20.6c-16.9-11,0-12.5,12.5-0.7
	c12.5,11.8,5.1-3.7,6.6-14C432.5,213.7,439.9,236.5,441.3,244.6z"/>
<g>
	<path class="st2" d="M602.2,318.8c-0.8,1.7-2,4.2-10.3,2.2C593.9,318.9,596.3,316,602.2,318.8z"/>
	<path class="st2" d="M568.3,312.1c-4.3-2.7-7.7-4.2-5.7-8.8C565.2,304.4,568.8,305.7,568.3,312.1z"/>
	<path class="st2" d="M469.8,276.9c-0.8,1.7-2,4.2-10.3,2.2C461.6,277,464,274.1,469.8,276.9z"/>
	<path class="st2" d="M436,270.2c-4.3-2.7-7.7-4.2-5.7-8.8C432.9,262.5,436.5,263.8,436,270.2z"/>
	<path class="st2" d="M695,260.6c0.7,1.7,1.8,4.3-5.2,9.1C689.6,266.8,689,263,695,260.6z"/>
	<path class="st2" d="M675.5,275.5c-4.9,1.4-8.3,2.9-10.4-1.6C667.7,272.6,671.1,270.8,675.5,275.5z"/>
</g>
</svg>
