<?xml version="1.0" encoding="utf-8"?>
<!-- Generator: Adobe Illustrator 24.0.2, SVG Export Plug-In . SVG Version: 6.00 Build 0)  -->
<svg version="1.1" id="Layer_1" xmlns="http://www.w3.org/2000/svg" xmlns:xlink="http://www.w3.org/1999/xlink" x="0px" y="0px"
	 viewBox="0 0 1230.1 1124.8" style="enable-background:new 0 0 1230.1 1124.8;" xml:space="preserve">
<style type="text/css">
	.st0{fill:url(#SVGID_1_);}
	.st1{fill:url(#SVGID_2_);}
	.st2{fill:url(#SVGID_3_);}
	.st3{fill:url(#SVGID_4_);}
	.st4{fill:url(#SVGID_5_);}
	.st5{fill:#EC9A50;}
	.st6{fill:url(#SVGID_6_);}
	.st7{fill:url(#SVGID_7_);}
	.st8{fill:#C67634;}
	.st9{fill:url(#SVGID_8_);}
	.st10{fill:url(#SVGID_9_);}
	.st11{fill:url(#SVGID_10_);}
	.st12{fill:url(#SVGID_11_);}
	.st13{fill:url(#SVGID_12_);}
	.st14{fill:url(#SVGID_13_);}
	.st15{fill:url(#SVGID_14_);}
	.st16{opacity:0.5;fill:#D9E0B6;}
	.st17{fill:url(#SVGID_15_);}
	.st18{fill:url(#SVGID_16_);}
	.st19{fill:url(#SVGID_17_);}
	.st20{fill:url(#SVGID_18_);}
	.st21{fill:url(#SVGID_19_);}
	.st22{fill:url(#SVGID_20_);}
	.st23{fill:url(#SVGID_21_);}
	.st24{fill:url(#SVGID_22_);}
	.st25{opacity:0.6;fill:#E57D28;}
	.st26{fill:#EAC975;}
	.st27{fill:#E8D5AA;}
	.st28{fill:#E8D2A3;}
	.st29{opacity:0.7;fill:#E57D28;}
	.st30{opacity:0.4;fill:#E57D28;}
	.st31{fill:#E57D28;}
	.st32{fill:url(#SVGID_23_);}
	.st33{fill:url(#SVGID_24_);}
	.st34{fill:url(#SVGID_25_);}
	.st35{opacity:0.5;fill:#DCC456;}
	.st36{fill:#FFEFAE;}
	.st37{fill:#7A4601;}
	.st38{fill:#FFFFFD;}
	.st39{fill:#EA832F;}
	.st40{opacity:0.5;fill:#909DD1;}
	.st41{opacity:0.5;fill:#544899;}
	.st42{display:none;fill:#282023;}
	.st43{fill:url(#SVGID_26_);}
	.st44{fill:url(#SVGID_27_);}
	.st45{fill:url(#SVGID_28_);}
	.st46{fill:#F5CBC7;}
	.st47{opacity:0.5;fill:#FFFFFF;enable-background:new    ;}
	.st48{fill:#FFFFFF;}
	.st49{opacity:0.5;fill:#B8D1F4;enable-background:new    ;}
	.st50{opacity:0.5;fill:#F5F7FE;enable-background:new    ;}
</style>
<g>
	<g>
		
			<linearGradient id="SVGID_1_" gradientUnits="userSpaceOnUse" x1="317.9492" y1="336.4342" x2="317.9492" y2="265.3491" gradientTransform="matrix(-0.7749 0.6321 -0.6321 -0.7749 1598.5366 169.6086)">
			<stop  offset="0" style="stop-color:#E48744"/>
			<stop  offset="0.8754" style="stop-color:#DDBC54;stop-opacity:0.2996"/>
			<stop  offset="1" style="stop-color:#DCC456;stop-opacity:0.2"/>
		</linearGradient>
		<path class="st0" d="M1111.4,154.4c7.4-9.5,14.8-15.2,22.1-20.3c7.4-4.9,14.9-8.6,22.7-11.4c7.8-2.8,16-4.8,24.8-5.7
			c9-0.8,18.3-1.1,30,1.6c-3.7,11.4-10.2,19.3-17.3,25.9c-7.2,6.5-15.5,11.3-24.4,14.5c-8.9,3.2-18.3,4.9-28.1,4.5
			C1131.5,163,1121.5,161,1111.4,154.4z"/>
		
			<linearGradient id="SVGID_2_" gradientUnits="userSpaceOnUse" x1="265.495" y1="340.3278" x2="377.6223" y2="319.2881" gradientTransform="matrix(-0.7749 0.6321 -0.6321 -0.7749 1598.5366 169.6086)">
			<stop  offset="0" style="stop-color:#DCC456;stop-opacity:0.2"/>
			<stop  offset="1" style="stop-color:#E4A244"/>
		</linearGradient>
		<path class="st1" d="M1097.2,154.2c-0.6-12.3,3.8-22.5,9.4-31.3c5.8-8.7,13.4-15.7,21.9-21.1c8.5-5.3,17.7-8.9,27.5-10.6
			c9.9-1.6,20-1.8,31.8,1.7c-5,11.2-11.6,18.7-18.1,25.4c-6.6,6.6-13.6,11.7-20.7,16.2c-7.1,4.4-14.5,8.2-22.7,11.4
			C1117.9,149.1,1109.2,152,1097.2,154.2z"/>
		
			<linearGradient id="SVGID_3_" gradientUnits="userSpaceOnUse" x1="296.1775" y1="372.1205" x2="377.0407" y2="327.0847" gradientTransform="matrix(-0.7749 0.6321 -0.6321 -0.7749 1598.5366 169.6086)">
			<stop  offset="0" style="stop-color:#DCC456;stop-opacity:0.2"/>
			<stop  offset="1" style="stop-color:#E4A244"/>
		</linearGradient>
		<path class="st2" d="M1091,150.1c-5.2-9.7-4.7-19.5-2.5-28.1c2.3-8.6,7-16.1,12.8-22c5.8-5.9,12.7-10.4,20.5-13
			c7.9-2.5,16.3-3.8,27-1.8c-0.9,10.9-4.3,18.5-7.7,25.3c-3.6,6.7-7.7,12-12.2,16.6c-4.5,4.6-9.4,8.4-15.3,12
			C1107.5,142.5,1101,145.9,1091,150.1z"/>
		
			<linearGradient id="SVGID_4_" gradientUnits="userSpaceOnUse" x1="252.1202" y1="322.5851" x2="369.2601" y2="300.6047" gradientTransform="matrix(-0.7749 0.6321 -0.6321 -0.7749 1598.5366 169.6086)">
			<stop  offset="0" style="stop-color:#DCC456;stop-opacity:0.2"/>
			<stop  offset="1" style="stop-color:#E4A244"/>
		</linearGradient>
		<path class="st3" d="M1111.3,159.5c-0.4-12.8,5.1-23.6,12-32.5c7.1-8.9,16.2-15.5,25.9-20.3c9.7-4.7,20-7.4,30.6-8
			c10.6-0.5,21.3,0.5,33,5.3c-7,10.7-15.1,17.4-22.9,23.4c-8,5.8-15.9,10.3-23.9,14.1c-8,3.8-15.9,7-24.6,9.8
			C1132.6,154.1,1123.7,156.8,1111.3,159.5z"/>
		
			<linearGradient id="SVGID_5_" gradientUnits="userSpaceOnUse" x1="293.9864" y1="377.1161" x2="395.4843" y2="344.5276" gradientTransform="matrix(-0.7749 0.6321 -0.6321 -0.7749 1598.5366 169.6086)">
			<stop  offset="0" style="stop-color:#DCC456;stop-opacity:0.2"/>
			<stop  offset="1" style="stop-color:#E4A244"/>
		</linearGradient>
		<path class="st4" d="M1080.5,152.4c-4.5-10.3-5-19.4-4.1-28.3c1.1-8.8,4.3-17.3,9.5-24.8c5.2-7.6,12.4-14.1,21.3-18.2
			c8.8-3.9,19.6-5.9,30-1.2c-4.3,10.4-6.9,17.3-9.8,23.9c-2.9,6.4-6,12-9.7,17.4c-3.8,5.4-8.2,10.8-14.1,16.2
			C1097.7,142.6,1091,148.1,1080.5,152.4z"/>
		<path class="st5" d="M1111.2,147c8-9.7,17.5-18.1,27.7-25.5c10.3-7.3,21.3-13.6,33-18.1c-11.1,5.8-21.9,12.2-32,19.6
			C1129.7,130.2,1120.3,138.4,1111.2,147z"/>
		<path class="st5" d="M1121.7,149.9c9.4-6.6,19.7-11.9,30.4-16.2c10.7-4.1,21.9-7.4,33.3-8.8c-11.1,2.9-22.1,6.1-32.6,10.4
			C1142.1,139.4,1131.9,144.5,1121.7,149.9z"/>
		<path class="st5" d="M1105.7,136.7c1-4.5,3-8.7,5.5-12.6c2.5-3.9,5.6-7.4,8.9-10.6c6.7-6.3,14.3-11.5,22.2-16.1
			c-7.1,5.8-14.6,11-21,17.3c-3.3,3.1-6.3,6.5-9,10.1C1109.6,128.5,1107.3,132.4,1105.7,136.7z"/>
		<path class="st5" d="M1090.5,129.4c0.5-6.1,1.9-12,4-17.7c2.1-5.7,4.8-11.2,8.2-16.2c-2.3,5.6-4.6,11.2-6.6,16.8
			C1094,117.9,1092.3,123.6,1090.5,129.4z"/>
	</g>
	
		<linearGradient id="SVGID_6_" gradientUnits="userSpaceOnUse" x1="350.5593" y1="308.9027" x2="853.5862" y2="308.9027" gradientTransform="matrix(-0.7749 0.6321 -0.6321 -0.7749 1598.5366 169.6086)">
		<stop  offset="0" style="stop-color:#DCC456"/>
		<stop  offset="1" style="stop-color:#E4A244"/>
	</linearGradient>
	<path class="st6" d="M1196.3,242.1c5.6,12.6,5.9,21.4-1.3,37.3c-9.7,21.5-34.2,30.8-51.2,37.2c-41.5,15.7-82.6,16.5-120.2,15.2
		C986,330.6,952,318,916.5,315.2c-34.3-2.7-50.7,3.4-79.1,20c-18.6,10.9-45.1,34.8-49.7,64.1c-12,77.1-92.6,21.9-88.7,16.4
		c17.2-24,21.4-48.8,36.6-77.5c18.7-35.3,37.8-71.6,66.9-101.8c29.7-30.7,67.1-52.2,104-69c81.4-37,153.5-49.9,214.2-18
		C1138.9,159.1,1180,205.5,1196.3,242.1z"/>
	
		<linearGradient id="SVGID_7_" gradientUnits="userSpaceOnUse" x1="348.9768" y1="241.3726" x2="520.494" y2="241.3726" gradientTransform="matrix(-0.7749 0.6321 -0.6321 -0.7749 1598.5366 169.6086)">
		<stop  offset="0" style="stop-color:#E4A244"/>
		<stop  offset="1" style="stop-color:#DCC456"/>
	</linearGradient>
	<path class="st7" d="M1197.7,277.2c6.7-12.8,4.2-21.7-3.6-37.8c-26.8-55.1-45.5-69.2-73.2-89.8c-3.3,4.7-4.1,9.5-8.5,14.5
		c-4.1,4.7-9.5,8.5-12.6,13.7c-1.9,3.2-2.8,6.6-4.5,9.9c-4,7.6-11.9,13.2-18.5,19.3c-11.5,10.7-19.9,23.9-27.9,36.9
		c-3.5,5.5-7,11.3-8.1,17c-2,10.9,5.5,18.8,2.7,29.8c-1.3,5.1-4.8,10.6-4.1,15.1c0.8,6,8.2,7.1,12.6,10.4c4.3,3.2,6,8.9,7.7,14.4
		c27.1-2.7,59.4-2.7,86.9-16.3C1162.8,306.4,1185.3,300.9,1197.7,277.2z"/>
	<path class="st8" d="M777.7,409.6c-1.2,2.7-3.9,4.7-6.9,5.5c-3,0.9-6.1,0.6-9,0.2c-3-0.5-5.9-1.5-8.5-3.1c-2.6-1.6-4.8-3.7-6.4-6.2
		c2.1,2.1,4.4,3.8,7,5c2.6,1.2,5.3,2.1,8.1,2.6c2.8,0.5,5.7,0.7,8.4,0.2C773.2,413.3,775.8,411.9,777.7,409.6z"/>
	<path class="st8" d="M751.9,387c-1.7,2.4-4.1,4.3-6.8,5.5c-2.7,1.2-5.9,1.7-8.9,1c-3-0.8-5.7-2.9-7.1-5.5c-1.5-2.6-2.1-5.7-1.8-8.6
		c0.5,2.8,1.4,5.6,3,7.8c1.6,2.2,3.8,3.9,6.4,4.5c2.6,0.7,5.4,0.3,8-0.5C747.2,390.3,749.7,388.9,751.9,387z"/>
	<path class="st8" d="M769.2,357.5c-2.5,1.9-5.1,3.6-8.1,4.8c-2.9,1.2-6.3,1.9-9.6,1.1c-3.3-0.8-6-3.4-7.5-6.2c-1.5-2.9-2.3-6-2.8-9
		l0.3,0l0,1.4l-0.3-1.4l0.3,0c1,2.9,2.1,5.9,3.7,8.4c1.6,2.5,3.8,4.6,6.6,5.3c2.8,0.7,5.8,0.2,8.7-0.6
		C763.5,360.2,766.3,358.8,769.2,357.5z"/>
	<path class="st8" d="M780.7,369.7c-1.9,3.4-4.6,6.4-7.7,8.9c-3,2.4-6.9,4.6-11.2,4.4c-4.1-0.2-8.2-2-10.8-5.3
		c-2.6-3.2-3.7-7.4-3.2-11.3c0.2,3.9,1.6,7.7,4.2,10.4c2.5,2.7,6.2,4.2,9.8,4.4c3.7,0.3,7.1-1.6,10.3-3.7
		C775.4,375.4,778.2,372.7,780.7,369.7z"/>
	<path class="st8" d="M787.9,387.8c-2.3,1.9-4.7,3.7-7.3,5.3c-2.6,1.6-5.4,2.8-8.5,3.4c-3,0.5-6.7,0.3-9-2.2c-2.2-2.4-2.8-5.4-4.3-8
		c2.1,2.1,3.2,5.2,5.3,7c2,1.8,5,1.9,7.8,1.4C777.4,393.7,782.5,390.4,787.9,387.8z"/>
	<path class="st8" d="M766.8,400.2c-2.6,0.9-5,2.2-7.7,3.1c-2.6,1-5.5,1.4-8.4,1.4c-2.9-0.1-5.7-0.7-8.3-2.1
		c-1.3-0.7-2.4-1.6-3.4-2.6c-0.9-1.1-1.8-2.2-2.3-3.5c1.7,2.2,3.9,3.8,6.3,4.9c2.4,1,5.1,1.6,7.7,1.6c2.6,0.1,5.3-0.3,7.9-0.9
		C761.3,401.3,764,400.3,766.8,400.2z"/>
	<path class="st8" d="M743.2,407.4c-2.5,0.7-4.9,1.7-7.4,2.5c-2.5,0.8-5.1,1.5-7.9,1.4c-2.8-0.1-5.5-1.1-7.7-2.7
		c-1.1-0.8-2.1-1.7-3-2.7c-0.4-0.5-0.8-1.1-1.2-1.6c-0.2-0.3-0.3-0.6-0.6-0.6c-0.1,0-0.3,0-0.3,0.1c-0.1,0.1,0,0.3,0.2,0.2
		c-0.1,0.2-0.4,0-0.3-0.2c0-0.2,0.3-0.3,0.5-0.3c0.5,0.1,0.6,0.4,0.9,0.6c0.5,0.5,0.9,0.9,1.4,1.3c1,0.8,2,1.6,3.1,2.2
		c2.2,1.2,4.6,2,7,2.1C732.9,409.8,737.9,407.5,743.2,407.4z"/>
	<path class="st8" d="M731.9,394.2c-1.9,2-4.7,3.1-7.6,3.1c-1.4,0-2.9-0.3-4.2-1c-1.3-0.7-2.3-1.8-2.8-3.1c2.1,1.9,4.5,2.4,7,2.4
		C726.8,395.6,729.3,395,731.9,394.2z"/>
	<path class="st8" d="M782.7,406.4c-2.7,0.9-5.8,0.6-8.4-0.7c-2.6-1.3-4.8-3.6-5.4-6.5c1.8,2.2,3.8,3.8,6.1,4.9
		C777.4,405.3,779.9,405.8,782.7,406.4z"/>
	<path class="st8" d="M791.6,346.8c-2,2.6-5.1,4.3-8.3,5.3c-3.2,1-6.4,1.6-9.9,1.5c-1.7-0.1-3.5-0.5-5.1-1.5c-1.5-1-2.7-2.5-3.3-4.1
		c-0.7-1.6-0.9-3.3-1-5c0-0.8,0-1.7,0.2-2.5c0.2-0.8,1.1-1.6,1.9-1.4c-0.8,0-1.4,0.8-1.5,1.5c-0.1,0.7,0.1,1.6,0.2,2.3
		c0.2,1.6,0.6,3.1,1.4,4.5c1.4,2.8,4.1,4.4,7.2,4.4c3.1,0.1,6.4-0.5,9.5-1.1C786.1,350.1,789.1,348.9,791.6,346.8z"/>
	<path class="st8" d="M763.6,334.6c-3.1,4.1-7.5,7.3-12.4,9.1c-2.5,0.9-5.1,1.5-7.7,1.5c-1.3,0-2.6-0.1-3.9-0.4
		c-1.2-0.3-2.7-0.8-3.3-2c0.9,0.9,2.2,1.1,3.5,1.1c1.2,0.1,2.5,0.1,3.7-0.1c2.5-0.3,4.9-0.9,7.2-1.8
		C755.2,340.4,759.5,337.8,763.6,334.6z"/>
	<path class="st8" d="M786,331c-2.7,2.7-6.3,4.6-10.2,5.3c-3.8,0.8-8.3,0.3-11.5-2.4c-3.2-2.7-4.6-6.9-4.5-10.8c0-2,0.3-4,1.1-5.8
		c0.8-1.8,2.1-3.5,4-4.1c-1.7,1-2.7,2.7-3.2,4.4c-0.6,1.7-0.6,3.6-0.5,5.5c0.2,3.6,1.6,7.3,4.3,9.5c2.7,2.4,6.5,2.9,10.1,2.4
		C779.2,334.5,782.8,333.1,786,331z"/>
	<path class="st8" d="M796.4,329.1c-1,0.8-2.4,1.1-3.7,1.1c-1.3-0.1-2.6-0.5-3.8-1.1c-2.4-1.2-4.2-3.5-5.1-6c-0.9-2.5-1-5.3-0.4-7.8
		c0.6-2.4,1.6-5.2,4.1-6.3c-1.9,1.7-2.4,4.2-2.7,6.6c-0.3,2.4-0.1,4.8,0.7,7c0.7,2.2,2.2,4.1,4.1,5.4
		C791.6,329.2,794,330,796.4,329.1z"/>
	<path class="st8" d="M792.9,287.3c-1.1,1.8-3.1,2.9-5.2,3.3c-2.2,0.4-4.3-0.1-6.3-0.5c-2-0.5-4-1.1-5.9-2.2c-1.8-1.1-3.5-2.7-4-4.8
		l-0.1-0.3l0.2,0c0.4,0,0.8,0,1.3,0c-0.4,0.1-0.8,0.3-1.2,0.4l0.1-0.3c2.2,3.4,6.2,4.5,10,5.4c2,0.4,3.9,1,5.7,0.9
		C789.4,289.2,791.3,288.5,792.9,287.3z"/>
	<path class="st8" d="M783.9,309.1c-2.3,0.8-4.7,1.3-7.2,1.6c-2.5,0.3-5.1,0.2-7.6-0.9c-2.4-1-4.5-3.5-4.6-6.2
		c-0.2-2.7,1-5.2,2.7-6.9c-1.2,2.2-1.8,4.6-1.4,6.8c0.4,2.2,1.9,3.9,4,4.8c2,0.9,4.4,1.1,6.8,1.2C779,309.4,781.4,309.1,783.9,309.1
		z"/>
	<path class="st8" d="M804.9,287.5c-0.3,1.3-1.5,2.2-3,2.4c-1.6,0.1-2.7-1.2-3.5-2c-1.8-1.9-3.1-4.1-4.2-6.4
		c-0.9-2.4-1.7-4.8-1.7-7.5c0.1-2.7,1.7-5.3,4-6.4c-1.8,1.7-2.8,4.1-2.6,6.4c0.2,2.3,1,4.7,1.9,6.9c0.9,2.2,2.1,4.3,3.6,6.3
		c0.7,1,1.4,1.9,2.5,2C802.9,289.1,804.2,288.6,804.9,287.5z"/>
	<path class="st8" d="M811.4,267.3c-2.1,1.9-5.4,2.6-8.2,1.3c-2.9-1.2-4.5-4.3-5-7.2c-0.8-5.9,2-11.7,6.1-15.5
		c-1.5,2.3-2.8,4.8-3.6,7.4c-0.8,2.6-1.1,5.3-0.7,7.8c0.4,2.5,1.6,5,3.9,6.2C806,268.6,808.9,268.6,811.4,267.3z"/>
	<path class="st8" d="M796.3,261.8c-0.1,1.6-1.8,2.5-3.3,2.7c-1.7,0.2-3.2-0.5-4.4-1.6c-1.1-1.1-1.8-2.7-1.8-4.2
		c-0.1-1.5,0.4-3,1.2-4.2c-0.1,1.4-0.1,2.8,0.2,4c0.3,1.2,0.9,2.3,1.7,3.1c0.8,0.8,2,1.3,3.1,1.5
		C794.1,263.2,795.5,262.9,796.3,261.8z"/>
	<path class="st8" d="M801.2,306.6c0,0,0.2-0.2,0.2,0c0,0.1,0,0.2,0,0.3c0,0.2-0.1,0.3-0.3,0.5c-0.3,0.2-0.6,0.4-0.9,0.6
		c-0.6,0.3-1.2,0.7-1.8,0.9c-1.3,0.4-2.7,0.6-4.1,0.5c-2.8-0.2-5.7-2-6.8-4.8c-1.1-2.7-0.9-5.7-0.2-8.3c0.7-2.6,1.8-5.1,3.3-7.3
		c-0.8,2.5-1.6,5-2,7.6c-0.4,2.5-0.4,5.1,0.5,7.3c0.9,2.2,3,3.7,5.4,4.2c1.2,0.2,2.5,0.2,3.7,0c0.6-0.1,1.3-0.3,1.9-0.5
		c0.3-0.1,0.6-0.2,0.9-0.4c0.1-0.1,0.2-0.2,0.3-0.3C801.4,306.7,801.4,306.4,801.2,306.6z"/>
	<path class="st8" d="M817.7,250.9c-2.1,0.3-4.3-0.1-6.1-1.4c-1.9-1.2-3.1-3.3-3.5-5.5c-0.7-4.4,1.2-8.8,4.1-11.7
		c-0.9,1.9-1.6,3.7-2.1,5.7c-0.4,1.9-0.6,3.9-0.3,5.7c0.3,1.8,1.2,3.5,2.6,4.8C813.8,249.7,815.7,250.5,817.7,250.9z"/>
	<path class="st8" d="M1103.6,168.4c-3,1.6-6,3.1-8.7,4.9c-2.7,1.9-5.2,4.1-6.9,6.8c-1.8,2.6-2.4,5.9-3.1,9.2c-0.6,3.3-1,6.6-1.1,10
		c-0.6-3.3-0.6-6.8-0.2-10.2c0.4-3.3,1-6.9,3-9.9c2-3,4.7-5.3,7.7-6.9C1097.2,170.5,1100.4,169.3,1103.6,168.4z"/>
	<path class="st8" d="M1052,214.5c-5.2,3.8-9.8,8.4-12.5,14.1c-1.3,2.8-2.2,5.9-1.3,8.8c0.4,1.4,1.3,2.8,2.3,4
		c0.5,0.6,1,1.2,1.6,1.8c0.6,0.6,1,1.3,1.8,1.5c-0.9,0-1.5-0.7-2.2-1.1c-0.6-0.5-1.3-1-1.9-1.6c-1.2-1.1-2.3-2.5-3-4.1
		c-1.4-3.3-0.4-7,1-10c1.5-3,3.5-5.7,6-7.9C1046.3,217.7,1049,215.8,1052,214.5z"/>
	<path class="st8" d="M1069.6,196.3c-2,2.2-4,4.3-6.1,6.3c-2,2.1-4,4.2-5,6.7c-1.1,2.5-1.2,5.4-1.1,8.3c0,1.5,0.1,2.9,0.5,4.3
		c0.3,1.4,1,2.7,2.3,3.4c-1.5-0.4-2.5-1.8-3.1-3.2c-0.5-1.4-0.8-2.9-1-4.4c-0.4-2.9-0.4-6.1,0.8-9.1c1.3-2.9,3.5-5.1,5.7-7
		C1064.9,199.8,1067.2,198,1069.6,196.3z"/>
	<path class="st8" d="M1108.2,152.1c-0.7-0.1-1.4,0.5-2.1,0.8l-2,1c-1.3,0.7-2.7,1.4-4,2.2c-2.6,1.5-5,3.3-6.9,5.6
		c-1.9,2.2-3.4,4.8-4.1,7.6c-0.8,2.8-1.1,5.8-1.3,8.8l-0.1,0.8l-0.9,0c-2.7-0.1-5.4,1.5-7.6,3.4c-2.2,2-3.8,4.5-5,7.2
		c-2.4,5.4-3.6,11.7-1.6,17.6c-1.4-2.8-1.8-5.9-1.7-9c0.2-3.1,0.9-6.2,2-9.1c1.1-2.9,2.9-5.6,5.2-7.9c2.3-2.1,5.2-4,8.7-4l-0.9,0.8
		c0.3-3,0.6-6.1,1.5-9.1c0.9-3,2.5-5.9,4.7-8.1c2.2-2.3,4.8-4,7.5-5.4c1.4-0.7,2.8-1.3,4.2-1.9l2.1-0.8
		C1106.7,152.5,1107.4,151.9,1108.2,152.1z"/>
	<path class="st8" d="M1088,160c-6.4,2.1-11.9,5.9-16.3,10.8c-2.2,2.4-4,5.1-4.9,8.2c-1,3.1-1.1,6.5-1.2,9.8
		c-0.6-3.3-0.8-6.7-0.1-10.2c0.7-3.4,2.6-6.5,4.9-9.1c2.3-2.5,5-4.7,8-6.4C1081.3,161.6,1084.6,160.4,1088,160z"/>
	<path class="st8" d="M1054.7,181.5c-2.2,2.2-4.5,4.2-6.6,6.5c-2,2.3-3.9,4.7-4.9,7.4c-1.1,2.7-0.9,5.7-0.6,8.7c0.4,3,1.1,6,3.3,8.3
		c-2.7-1.8-4-5-4.6-8.1c-0.6-3-0.9-6.4,0.3-9.6c1.2-3.1,3.3-5.6,5.6-7.7C1049.4,184.9,1052,183.1,1054.7,181.5z"/>
	<path class="st8" d="M1032.6,203c-2.5,2.4-4.9,4.8-7,7.4c-2.1,2.6-4.2,5.4-4.7,8.5c-0.5,3.1,0.6,6.5,2,9.4c1.5,2.9,4.3,5.1,7.8,5.4
		c-1.7,0.2-3.5-0.1-5.1-0.9c-1.6-0.9-2.9-2.2-3.9-3.7c-1.8-3.1-3-6.6-2.5-10.4c0.7-3.8,3.1-6.6,5.5-9.1
		C1026.9,207.1,1029.6,204.8,1032.6,203z"/>
	<path class="st8" d="M1015.1,227.1c-1.9,2.4-3.6,4.9-4.8,7.6c-1.2,2.7-2.2,5.5-2.4,8.4c-0.3,2.9,0.2,5.8,1.7,8.3
		c1.4,2.5,3.9,4.3,6.8,5.4c-3.1-0.3-6.1-2-7.9-4.6c-1.9-2.6-2.6-6-2.3-9.2C1006.8,236.6,1010.3,230.9,1015.1,227.1z"/>
	<path class="st8" d="M1030.5,240.3c-1.7,2.2-3.1,4.5-4,7c-0.9,2.5-1.6,5.1-1.3,7.6c0.2,2.5,1.4,4.9,3.5,6.4c2,1.5,4.8,2.2,7.5,2.2
		c-2.7,0.7-5.7,0.5-8.2-1c-2.6-1.4-4.3-4.4-4.5-7.3c-0.2-3,0.5-5.8,1.8-8.3C1026.5,244.2,1028.3,242,1030.5,240.3z"/>
	<path class="st8" d="M1018.7,262.7c-2,1.9-3.5,4.2-4.1,6.8c-0.6,2.5-0.2,5.1,1.1,7.4c1.2,2.2,3.2,4,5.6,5c2.4,1,5.1,1.2,7.9,0.8
		c-2.6,1.1-5.5,1.3-8.3,0.4c-2.8-0.8-5.2-2.9-6.6-5.5c-1.4-2.6-1.8-5.8-0.8-8.6C1014.3,266.3,1016.3,264.1,1018.7,262.7z"/>
	<path class="st8" d="M1002.8,246.2c-2,2.7-4.1,5.3-5.5,8.2c-1.4,2.9-1.8,6.1-1.2,9.2c0.5,3.1,1.9,6.1,4.2,8.3
		c2.2,2.3,5.2,3.8,8.5,4.6c-3.4,0-6.8-1.3-9.4-3.6c-2.7-2.3-4.4-5.6-5-9c-0.6-3.4-0.1-7.2,1.8-10.2
		C997.9,250.8,1000.3,248.4,1002.8,246.2z"/>
	<path class="st8" d="M1066.5,154.6c-2.5,0.1-4.9,0.8-7.1,1.9c-2.2,1-4.4,2.3-6.5,3.7c-4.1,2.8-8.6,5.3-11.6,9
		c-3.1,3.7-4.4,8.6-5.1,13.4c-0.3,2.4-0.3,4.9,0.1,7.3c0.2,1.2,0.5,2.4,0.9,3.6c0.4,1.1,0.8,2.4,1.9,3.1c-1.2-0.5-1.8-1.8-2.3-2.9
		c-0.5-1.2-0.9-2.4-1.3-3.6c-0.6-2.5-0.8-5.1-0.6-7.6c0.4-5.1,1.8-10.2,5-14.4c1.7-2,3.8-3.6,5.9-5c2.1-1.4,4.2-2.8,6.4-4
		C1056.6,156.6,1061.4,154.1,1066.5,154.6z"/>
	<path class="st8" d="M1088.5,146.2c-3.2,0.8-6.4,1.7-9.3,3.1c-2.9,1.4-5.5,3.3-7.7,5.7c-2.2,2.3-4,5.1-5,8.1c-1,3-1.2,6.4,0.2,9.4
		c-2.1-2.7-2.3-6.5-1.5-9.8c0.8-3.4,2.7-6.4,5-8.9c2.3-2.5,5.2-4.5,8.4-5.7C1081.9,146.8,1085.2,146.3,1088.5,146.2z"/>
	<path class="st8" d="M1030.2,179.9c-2.8,2.3-5.6,4.5-8.2,7.1c-2.5,2.5-4.8,5.3-6.2,8.4c-1.5,3.1-2,6.7-1.4,10
		c0.7,3.4,2.7,6.4,5.3,9c-3-2-5.6-5-6.6-8.7c-1.1-3.7-0.5-7.7,1.1-11.1c1.6-3.4,4.1-6.3,6.9-8.7
		C1023.9,183.6,1027,181.6,1030.2,179.9z"/>
	<path class="st8" d="M1007.2,208.1c-2.1,2.3-4.3,4.5-6.2,7c-1.8,2.4-3.5,5.1-3.9,7.9c-0.5,2.8,0.5,5.7,1.9,8.4c1.4,2.7,3.4,5,5.9,7
		c-2.9-1.3-5.3-3.6-7.1-6.3c-1.7-2.6-3-6-2.4-9.4c0.6-3.3,2.5-6.1,4.6-8.5C1002.2,211.9,1004.6,209.9,1007.2,208.1z"/>
	<path class="st8" d="M991,227.1c-2.9,1.8-5.2,4.3-7,7.1c-1.7,2.8-3.1,5.9-2.9,9c0.1,3.1,2.2,5.8,4.4,8.3c2.2,2.4,4.9,4.5,7.8,6.3
		c-3.2-1.1-6.2-2.9-8.8-5.3c-2.5-2.3-5-5.3-5.2-9.1c-0.1-3.7,1.4-7.1,3.5-9.9C985,230.6,987.8,228.3,991,227.1z"/>
	<path class="st8" d="M974.4,249.7c-2.8,2.3-5.1,5.1-6.6,8.2c-1.5,3.1-2.4,6.6-2,10c0.4,3.4,2,6.6,4.6,8.9c1.3,1.2,2.7,2.2,4.3,3
		c0.8,0.4,1.6,0.8,2.4,1.2c0.7,0.3,2,1,2.1,0.3c0.3,0.2-0.5,0.8-0.9,0.5l-1.3-0.3c-0.9-0.2-1.7-0.5-2.6-0.9
		c-1.7-0.7-3.3-1.6-4.8-2.8c-3-2.3-5-5.9-5.4-9.7c-0.4-3.8,0.6-7.7,2.5-10.8C968.5,254.1,971.1,251.3,974.4,249.7z"/>
	<path class="st8" d="M994.1,269.6c-1.8,2.3-2.7,5.1-3.2,7.9c-0.5,2.8-0.5,5.7,0.2,8.3c0.7,2.7,2.3,5,4.5,6.7
		c1.1,0.8,2.4,1.5,3.7,1.9c0.7,0.2,1.4,0.5,2.1,0.6c0.4,0.1,0.7,0.1,1.1,0.2c0.4,0.1,0.7,0.2,1-0.1c-2.8,0.9-6,0-8.7-1.5
		c-2.7-1.6-4.7-4.3-5.5-7.3c-0.8-3-0.7-6.2,0.1-9.1C990.4,274.4,991.7,271.5,994.1,269.6z"/>
	<path class="st8" d="M1013.7,281.1c-1.2,2.1-2.2,4.3-2.7,6.6c-0.5,2.2-0.3,4.6,1.2,6c1.5,1.5,3.9,2.3,6.1,3.1
		c2.2,0.8,4.6,1.3,7,1.8c-2.4,0.2-4.9,0-7.4-0.5c-2.4-0.6-4.8-1.3-6.9-3.2c-1-1-1.7-2.4-1.8-3.7c-0.1-1.4,0.1-2.7,0.5-3.9
		C1010.5,284.9,1011.9,282.8,1013.7,281.1z"/>
	<path class="st8" d="M1023.1,166.6c-2.9,1.2-5.6,2.9-7.9,4.8c-2.3,2-4.4,4.3-6.1,6.8c-1.6,2.5-2.8,5.4-3.2,8.4
		c-0.4,3-0.1,6.2,1.7,8.8c-2.4-2.2-3.2-5.7-3-9c0.2-3.3,1.4-6.5,3.1-9.2c1.8-2.7,4.1-5.1,6.7-7
		C1017,168.5,1019.9,167.1,1023.1,166.6z"/>
	<path class="st8" d="M999.9,184.2c-2.4,2.1-4.8,4-7,6.1c-2.1,2.2-4.1,4.5-5.1,7.2c-1.2,2.7-0.9,5.6,0.8,8.1c1.6,2.5,3.7,4.9,6.6,6
		c-1.6-0.1-3.1-0.9-4.4-1.8c-1.3-1-2.4-2.1-3.4-3.4c-1-1.2-1.8-2.8-2.1-4.5c-0.3-1.7,0.1-3.5,0.7-5c1.3-3,3.4-5.6,5.9-7.6
		C994.5,187.3,997.1,185.7,999.9,184.2z"/>
	<path class="st8" d="M981.8,200.4c-2.8,2.8-5.5,5.5-8,8.5c-2.4,3-4.6,6.2-5.9,9.7c-1.3,3.5-1.4,7.4-0.2,11c1.1,3.6,3.5,6.8,5.8,10
		c-2.8-2.7-5.5-5.7-7.1-9.5c-1.6-3.8-1.6-8.2-0.1-12c1.4-3.8,3.8-7.2,6.5-10C975.6,205.1,978.6,202.6,981.8,200.4z"/>
	<path class="st8" d="M988.9,166.8c-2.2,1.9-4.5,3.6-6.5,5.6c-2,2-3.7,4.2-4.6,6.7c-0.9,2.5-1.1,5.3-0.2,7.9c0.8,2.6,2.7,4.9,4.6,7
		c-2.4-1.6-4.6-3.7-5.8-6.6c-1.3-2.8-1.2-6.1-0.2-9c1.1-2.9,3.1-5.3,5.4-7.1C983.8,169.5,986.3,168.1,988.9,166.8z"/>
	<path class="st8" d="M973.4,181.5c-6.4,4.7-11.9,10.6-15.4,17.6c-0.9,1.7-1.6,3.5-1.7,5.3c-0.1,1.8,0.5,3.6,1.3,5.3
		c1.7,3.5,4.1,6.7,6.4,10c-2.8-2.8-5.5-5.8-7.6-9.4c-1.1-1.7-1.9-3.8-1.8-6c0.1-2.2,0.9-4.2,1.8-6c1.9-3.6,4.3-6.9,7.2-9.8
		C966.5,185.7,969.8,183.3,973.4,181.5z"/>
	<path class="st8" d="M959.3,229.8c-3.2,2-5.8,4.8-7.9,7.8c-2,3.1-3.7,6.5-4.4,10c-0.4,1.8-0.5,3.6,0,5.2c0.4,1.7,1.5,3.1,2.7,4.5
		c2.6,2.6,5,5.8,8.9,6.5c-1.9,0-3.8-0.8-5.4-1.9c-1.6-1.1-3-2.4-4.4-3.7c-1.4-1.3-2.7-3-3.3-5c-0.6-2-0.5-4.1-0.1-6
		c0.8-3.9,2.6-7.4,5-10.5C952.7,233.8,955.7,231.2,959.3,229.8z"/>
	<path class="st8" d="M962.8,271.5c-2.4,2.9-4.7,5.9-6.6,9c-1.9,3.2-3.6,6.5-4.2,10c-0.7,3.5,0.2,7.1,2.4,9.9
		c2.2,2.8,5.4,4.9,8.5,7.1c-3.4-1.5-6.9-3.3-9.6-6.2c-1.3-1.4-2.4-3.2-2.9-5.2c-0.5-1.9-0.5-4-0.2-5.9c0.7-3.9,2.6-7.4,4.8-10.5
		C957.3,276.7,959.9,274,962.8,271.5z"/>
	<path class="st8" d="M982.3,291.4c-2.3,2.3-4.2,4.7-5.6,7.4c-1.5,2.7-2.6,5.5-2.6,8.8c-0.7-1.5-0.8-3.2-0.6-4.9
		c0.2-1.7,0.8-3.3,1.6-4.7C976.7,295.1,979.2,292.6,982.3,291.4z"/>
	<path class="st8" d="M943,257.3c-1.5,2.8-3.3,5.4-4.7,8.2c-1.4,2.7-2.6,5.6-2.7,8.5c-0.1,2.9,0.9,5.9,2.3,8.5
		c1.5,2.6,3.8,4.8,6.5,6.4c-3-1-5.7-3-7.6-5.7c-1.9-2.7-3-5.9-3-9.3c0.1-3.4,1.5-6.5,3.3-9.2C938.9,262.1,940.9,259.6,943,257.3z"/>
	<path class="st8" d="M948.7,208.2c-2.8,2.7-5.7,5.3-8.3,8.1c-2.6,2.8-5,5.8-6.4,9.2c-1.5,3.4-1.8,7.2-0.7,10.7
		c1.1,3.5,3.8,6.4,6.8,8.9c-3.3-1.9-6.5-4.7-8-8.5c-1.6-3.8-1.3-8.2,0.3-11.9c1.6-3.7,4.2-6.8,7.1-9.5
		C942.3,212.7,945.4,210.4,948.7,208.2z"/>
	<path class="st8" d="M927.5,241.2c-2.3,2.8-4.3,5.8-5.8,8.9c-1.5,3.2-2.7,6.5-3,10c-0.4,3.4,0.4,6.9,2.4,9.7c2,2.7,5.4,4.4,8.9,4.8
		c-3.6,0.4-7.5-1.1-10-4c-2.5-2.9-3.5-6.9-3.1-10.7c0.4-3.7,1.7-7.3,3.6-10.4C922.3,246.3,924.7,243.5,927.5,241.2z"/>
	<path class="st8" d="M951.1,183c-1.8,3.6-3.4,7.1-4.2,10.8c-0.9,3.7-1.1,7.5,0.1,11.4c-2.5-3.3-2.7-7.9-1.8-11.8
		C946.1,189.5,948.1,185.8,951.1,183z"/>
	<path class="st8" d="M938.3,195.5c-5.3,3.9-9.7,8.8-12.4,14.5c-1.4,2.8-2.2,5.9-2.4,9.1c-0.1,3.1,0.6,6.4,2.5,9.1
		c-2.5-2.2-3.7-5.7-3.8-9.1c-0.2-3.4,0.7-6.8,2.1-9.8c1.5-3,3.5-5.8,5.9-8.1C932.6,198.8,935.3,196.8,938.3,195.5z"/>
	<path class="st8" d="M918,224.4c-3,5.1-6.4,10-8.2,15.4c-0.9,2.7-1.4,5.5-0.9,8.2c0.3,1.3,0.8,2.6,1.8,3.6c0.9,1,2.5,1.6,3.2,3
		c-1-1.1-2.5-1.4-3.7-2.4c-1.3-1-2.1-2.4-2.5-3.9c-0.9-3.1-0.4-6.2,0.5-9.1c1-2.9,2.5-5.5,4.2-8C914.1,228.8,916,226.6,918,224.4z"
		/>
	<path class="st8" d="M913.8,269.3c-1.2,2.7-2.7,5.3-3.7,7.9c-1,2.7-1.7,5.4-1.3,8.1c0.4,2.7,1.8,5.2,3.8,7.1c2,2,4.5,3.6,6.9,5.3
		c-2.7-1.1-5.5-2.3-7.8-4.3c-2.4-1.9-4.2-4.8-4.7-7.9c-0.5-3.2,0.4-6.3,1.8-9C910.2,274,911.9,271.6,913.8,269.3z"/>
	
		<linearGradient id="SVGID_8_" gradientUnits="userSpaceOnUse" x1="516.0827" y1="212.3582" x2="612.0765" y2="199.2643" gradientTransform="matrix(-0.7749 0.6321 -0.6321 -0.7749 1598.5366 169.6086)">
		<stop  offset="0" style="stop-color:#E57D28;stop-opacity:0.9"/>
		<stop  offset="0.7575" style="stop-color:#DEB24A;stop-opacity:0.3697"/>
		<stop  offset="1" style="stop-color:#DCC456;stop-opacity:0.2"/>
	</linearGradient>
	<path class="st9" d="M1043.3,433.1c-4.2-12.2-6.1-23.7-7.8-34.8c-1.6-11.2-2.8-22-4-32.5c-1.3-10.5-2.5-20.6-4.6-30.3
		c-2.2-9.8-5.2-19-13-29.4c6.5-0.3,13.1,2,18.8,5.7c5.7,3.7,10.5,8.9,14.2,14.4c7.4,11.3,11.1,24,12.5,36.4
		c1.4,12.4,0.6,24.7-1.9,36.6C1054.8,411,1050.7,422.5,1043.3,433.1z"/>
	
		<linearGradient id="SVGID_9_" gradientUnits="userSpaceOnUse" x1="535.0781" y1="254.9778" x2="636.6073" y2="254.9778" gradientTransform="matrix(-0.7749 0.6321 -0.6321 -0.7749 1598.5366 169.6086)">
		<stop  offset="0" style="stop-color:#E4A244"/>
		<stop  offset="1" style="stop-color:#DCC456;stop-opacity:0.2"/>
	</linearGradient>
	<path class="st10" d="M1018.7,308.4c-4.6,8.6-10.2,14.9-15.5,21l-15.1,16.4c-4.7,5.2-9.1,10.4-13.1,15.9c-2,2.8-3.8,5.6-5.5,9
		c-1.7,3.4-3,7.7-5.2,12.1c-3.2-3.7-5.5-7.7-6.9-12.6c-1.3-4.8-1.5-10.2-0.6-15.1c1.7-10,6.7-18.8,13-25.8
		c6.4-7.1,14.1-12.2,22.3-15.8C1000.4,310.1,1009,308,1018.7,308.4z"/>
	
		<linearGradient id="SVGID_10_" gradientUnits="userSpaceOnUse" x1="528.8273" y1="243.8073" x2="636.9434" y2="243.8073" gradientTransform="matrix(-0.7749 0.6321 -0.6321 -0.7749 1598.5366 169.6086)">
		<stop  offset="0" style="stop-color:#E4A244"/>
		<stop  offset="1" style="stop-color:#DCC456;stop-opacity:0.2"/>
	</linearGradient>
	<path class="st11" d="M968.9,393.9c-2.7-9.8-2.1-19.5,0-28.7c2.2-9.2,6-17.9,11.1-25.8c5.2-7.9,11.5-14.7,18.5-20.4
		c7.1-5.7,14.6-10.6,23.9-14.4c-1.2,10.1-5,18.7-8.9,26.6c-4.1,7.9-8.5,14.9-13,21.7c-4.5,6.8-9.1,13.5-14.1,20.2
		C981.3,379.9,976.1,386.8,968.9,393.9z"/>
	
		<linearGradient id="SVGID_11_" gradientUnits="userSpaceOnUse" x1="524.2123" y1="209.5492" x2="630.1871" y2="209.5492" gradientTransform="matrix(-0.7749 0.6321 -0.6321 -0.7749 1598.5366 169.6086)">
		<stop  offset="0" style="stop-color:#E4A244"/>
		<stop  offset="1" style="stop-color:#DCC456;stop-opacity:0.2"/>
	</linearGradient>
	<path class="st12" d="M1020.4,308.4c8.4,8.8,13.2,20.1,16,31.5c2.7,11.5,3.2,23.3,2.1,34.8c-1.1,11.5-3.8,22.6-7.7,33.3
		c-4.1,10.6-9.1,20.8-16.6,30.3c-2.5-11.9-2.6-23.1-2.4-34.1c0.3-10.9,1.2-21.5,2.2-31.9L1020.4,308.4z"/>
	
		<linearGradient id="SVGID_12_" gradientUnits="userSpaceOnUse" x1="531.3701" y1="187.6599" x2="632.751" y2="187.6599" gradientTransform="matrix(-0.7749 0.6321 -0.6321 -0.7749 1598.5366 169.6086)">
		<stop  offset="0" style="stop-color:#E4A244"/>
		<stop  offset="1" style="stop-color:#DCC456;stop-opacity:0.2"/>
	</linearGradient>
	<path class="st13" d="M1032.7,334.6c7.9,8.1,12,18.7,14.2,29.2c2.1,10.6,2.1,21.5,0.6,31.9c-1.5,10.4-4.5,20.5-8.7,29.9
		c-4.3,9.4-9.5,18.4-17.1,26.7c-2.3-11-2.1-21.3-1.6-31.3c0.6-9.9,1.7-19.5,3.1-28.8c1.4-9.3,2.9-18.5,4.4-27.8
		C1029.3,355,1030.7,345.6,1032.7,334.6z"/>
	
		<linearGradient id="SVGID_13_" gradientUnits="userSpaceOnUse" x1="527.8336" y1="225.3512" x2="629.8373" y2="225.3512" gradientTransform="matrix(-0.7749 0.6321 -0.6321 -0.7749 1598.5366 169.6086)">
		<stop  offset="0" style="stop-color:#E4A244"/>
		<stop  offset="1" style="stop-color:#DCC456;stop-opacity:0.2"/>
	</linearGradient>
	<path class="st14" d="M1011,302.4c8,8.2,12.2,18.9,14.5,29.6c2.2,10.8,2.3,21.8,0.9,32.3c-1.4,10.6-4.4,20.8-8.5,30.4
		c-4.3,9.6-9.4,18.8-17,27.2c-2.3-11.1-2.2-21.6-1.8-31.7c0.5-10.1,1.6-19.8,3-29.3c1.3-9.5,2.8-18.8,4.2-28.3
		C1007.8,323.1,1009.1,313.6,1011,302.4z"/>
	
		<linearGradient id="SVGID_14_" gradientUnits="userSpaceOnUse" x1="531.4346" y1="232.9111" x2="637.0853" y2="232.9111" gradientTransform="matrix(-0.7749 0.6321 -0.6321 -0.7749 1598.5366 169.6086)">
		<stop  offset="0" style="stop-color:#E4A244"/>
		<stop  offset="1" style="stop-color:#DCC456;stop-opacity:0.2"/>
	</linearGradient>
	<path class="st15" d="M981.9,403.4c-5.8-9.7-6.6-19.4-6.3-28.2c0.5-8.8,2.7-16.6,5.7-23.7c3-7.1,6.9-13.3,11.8-19.1
		c5.1-5.9,10.6-11.3,19.3-18.5c7.5,8.6,9.4,18.7,9.6,27.8c0.1,9.2-2.1,17.6-5.3,25.1c-3.3,7.5-7.6,14-13.1,19.9
		C997.9,392.6,991.6,397.8,981.9,403.4z"/>
	<path class="st8" d="M930.5,289.2c-1,4.2-1.5,8.3-0.7,12.3c0.4,2,1.1,3.9,2.2,5.6c1.1,1.7,2.5,3.2,4.3,4.4c-2.1-0.5-4-1.8-5.4-3.6
		c-1.4-1.7-2.3-3.9-2.8-6C927.2,297.4,928.2,292.8,930.5,289.2z"/>
	<path class="st8" d="M905.3,211.8c-1.9,2.8-3.6,5.6-5.1,8.6c-1.5,3-2.8,6-3.5,9.1c-0.7,3.1-0.4,6.4,1.1,9.2
		c1.5,2.9,3.9,5.2,6.5,7.4c-2.9-1.6-5.8-3.7-7.7-6.7c-2-2.9-2.5-6.8-1.7-10.2c0.8-3.4,2.2-6.5,4-9.4
		C900.8,216.8,902.9,214.1,905.3,211.8z"/>
	<path class="st8" d="M900.3,256.8c-2.4,4.4-5.5,8.6-5.5,13.4c0,2.3,0.8,4.6,2.2,6.5c1.4,1.9,3.4,3.5,5.3,5.1
		c-2.3-1-4.6-2.3-6.4-4.3c-1.8-1.9-2.9-4.6-2.9-7.4c0-2.7,1-5.3,2.4-7.5C896.8,260.5,898.5,258.6,900.3,256.8z"/>
	<path class="st8" d="M887.3,236c-1.4,2.9-2.7,5.7-3.9,8.6c-1.1,2.9-2.3,5.9-3,8.8c-0.3,1.5-0.4,2.9,0,4.2c0.4,1.3,1.4,2.4,2.5,3.5
		c2.2,2.2,4.7,4.1,7.2,6c-2.9-1.2-5.6-3-8.1-5c-1.3-1-2.5-2.2-3.2-3.9c-0.7-1.7-0.5-3.5-0.2-5.1c0.8-3.2,2-6.1,3.5-9
		C883.6,241.2,885.3,238.5,887.3,236z"/>
	<path class="st8" d="M888.9,279c-1,2-1.9,3.9-2.5,6c-0.6,2-1,4.1-0.9,6.2c0.1,2,0.7,4,1.9,5.7c1.2,1.7,3,2.9,5,3.8
		c-2.2-0.1-4.5-1.2-6.1-2.9c-1.6-1.7-2.5-4.1-2.6-6.5C883.6,286.6,885.7,282.1,888.9,279z"/>
	<path class="st8" d="M904.8,290.4c-2.3,2.6-4.2,5.3-5.7,8.2c-1.5,2.9-2.5,6-2.4,9.5c-0.8-1.6-0.9-3.4-0.7-5.2
		c0.2-1.8,0.8-3.5,1.5-5.1C899.2,294.7,901.7,291.9,904.8,290.4z"/>
	<path class="st8" d="M874.8,265.5c-0.9,0.8-1.5,2.2-2.2,3.3c-0.6,1.2-1.2,2.4-1.6,3.6c-0.9,2.5-1.5,5-1.4,7.5c0,2.5,0.8,5,2.4,6.9
		c1.6,2,4,3.3,6.6,3.9c-2.7,0.1-5.5-1-7.6-3c-2.1-2-3.1-5-3.2-7.8c0-2.9,0.7-5.6,2-8.1C871.1,269.5,872.6,267,874.8,265.5z"/>
	<path class="st8" d="M882.1,222.8c-3.6,4.7-6.9,9.5-8.8,14.9c-0.9,2.7-1.3,5.5-0.8,8.2c0.4,2.7,2.1,5.3,4.9,6.5
		c-1.5-0.2-2.8-1-4-2.1c-1.1-1.1-1.8-2.6-2.2-4.1c-0.9-3-0.5-6.2,0.5-9.1C873.7,231.4,877.5,226.6,882.1,222.8z"/>
	<path class="st8" d="M864.3,250.7c-1.9,2.4-3.9,4.7-5.7,7.1c-1.7,2.4-3.3,5-4,7.7c-0.9,2.8-0.3,5.5,1.6,7.8c1.8,2.3,4,4.4,6.5,6.2
		c-2.8-1.2-5.3-3.1-7.5-5.3c-1.1-1.1-2-2.6-2.4-4.2c-0.4-1.7-0.2-3.4,0.2-4.9c0.9-3.1,2.6-5.8,4.7-8.1
		C859.6,254.6,861.9,252.6,864.3,250.7z"/>
	<path class="st8" d="M1131.5,238.3c-2.6-2.3-5.6-4.5-9.1-4.7c-1.7-0.1-3.4,0.2-5,0.9c-1.5,0.7-3,1.8-4.5,2.8
		c-1.7,0.9-3.9,0.9-5.7,0.3c-1.8-0.6-3.4-1.6-4.9-2.2c-3-1.4-6.6-0.8-9,1.4c-1.2,1-2,2.6-3.4,4c-1.4,1.4-3.2,2.3-5,2.9
		c-3.7,1.2-7.4,0.7-10.5,1.5c-3.2,0.7-5.8,2.9-7.9,5.5c-2.1,2.6-3.7,5.7-5,8.9c-1.3,3.1-2.3,6.5-1.6,9.5c0.3,1.4,1.4,2.9,1.9,5
		c0.4,2.2-0.2,4.2-1,5.9c-1.6,3.4-3.5,6.2-4,9.5c-0.5,3.2,0,6.8,2.5,8.5c0.6,0.4,1.3,0.7,2.1,0.9c0.8,0.2,1.8,0.3,2.9,1.2
		c1.1,1.1,0.8,2.5,0.6,3.4c-0.3,0.9-0.7,1.8-1,2.6c-1.2,3-1.1,6.8,1,9.3c1,1.3,2.5,2.2,4.1,2.5c1.6,0.5,3.4-0.1,5.3,0.7
		c1,0.6,1.1,1.8,1.1,2.6c0,0.9-0.1,1.8,0.1,2.6c0.5,1.7,2.6,2.3,4.3,1.8c-1.6,0.7-3.9,0.3-4.7-1.6c-0.3-0.9-0.2-1.8-0.3-2.7
		c0-0.9-0.2-1.7-0.9-2c-1.4-0.6-3.3,0-5.2-0.4c-1.8-0.3-3.6-1.2-4.9-2.7c-2.6-2.9-2.8-7.3-1.6-10.7c0.3-0.9,0.6-1.7,0.8-2.4
		c0.2-0.8,0.2-1.4-0.1-1.6c-0.7-0.6-3.2-0.5-4.8-1.8c-1.7-1.1-2.9-3-3.4-4.9c-0.5-1.9-0.5-3.9-0.2-5.7c0.5-3.8,2.7-7,4-10.1
		c0.7-1.5,1.1-3.1,0.8-4.4c-0.3-1.4-1.3-2.8-1.9-4.9c-1-4.1,0.3-7.8,1.6-11.1c1.4-3.3,3.1-6.6,5.5-9.5c2.3-2.8,5.5-5.4,9.3-6.3
		c3.8-0.9,7.3-0.3,10.4-1.3c1.6-0.5,3-1.2,4.1-2.3c1.2-1,2.1-2.6,3.6-3.9c3-2.6,7.5-3,10.9-1.4c1.7,0.7,3.2,1.8,4.7,2.3
		c1.5,0.6,3.2,0.6,4.7-0.1c1.5-0.8,2.9-1.8,4.7-2.5c1.7-0.7,3.6-0.9,5.4-0.7C1126.2,233.3,1129.1,235.9,1131.5,238.3z"/>
	<path class="st8" d="M1185.9,262.7c-2.3,3.4-4.4,6.7-5.9,10.2c-0.7,1.8-1.5,3.7-2.5,5.6c-1,1.9-2.4,3.6-4.2,4.8l-0.8-0.9
		c1-0.5,1.9-1.1,2.9-1.6c-0.7,0.9-1.4,1.7-2.1,2.5l-0.8-0.9c2.5-3,3.4-6.7,5.1-10.5C1179.5,268.1,1182.4,264.8,1185.9,262.7z"/>
	<path class="st16" d="M734.5,414.9c1.2,40.5-9.5,79-27.6,114.8c-18.2,35.8-45,68-76.2,94.3c-3.9,3.2-7.8,6.6-11.9,9.6l-12.3,9.1
		c-4.1,2.9-8.4,5.6-12.6,8.5c-4.4,2.9-8,5.2-12,7.7c-15.8,9.8-32.6,19-50.5,27.1c-35.6,16.3-76,28.9-121,33.1
		c-22.4,2-45.9,1.9-69.6-1.4c-11.8-1.6-23.7-3.9-35.4-7.1c-11.9-3.2-23-7-32.7-11c-20-8-36.3-16.9-50.5-25.2
		c-14.2-8.4-25.8-15.8-36.3-22.7c-5-3.1-10-6.6-14.5-9.2c-4.6-3-9-5.5-14.1-8.1c-10.2-4.9-22.8-9-37.6-11.8
		c-14.7-2.8-31.4-4.6-49.2-6c-17.9-1.6-36.8-2.5-56.9-5.6c10.1-17.7,21.6-32.9,34.6-47.5c13.1-14.4,28.1-27.6,45.8-39
		c17.7-11.3,38.5-20.5,61.8-25.9c5.8-1.3,11.9-2.4,17.9-3.2c6-0.6,12.2-1.4,18.1-1.6c3-0.1,6-0.2,9-0.3l8.7,0.1
		c5.9,0,11.4,0.5,17.1,0.8c22,1.7,42,5.6,59.3,8.9c17.2,3.5,32.3,6.7,44.4,8.5c6.3,1,11.4,1.5,15.9,1.8c4.7,0.3,9.4,0.4,14.3,0.5
		c9.7,0.1,19.9-0.4,30.9-1.4c21.9-2.1,47-6.4,74.6-12.5c13.8-3,28.2-6.3,43.2-9.8c7.9-1.9,14.3-3.1,21.2-4.6l10.2-2.2
		c3.4-0.8,6.8-1.6,10.2-2.4c27.2-6.6,55.2-14.1,85.1-25.2c15-5.5,30.6-11.6,46.7-18.6C698.9,430.7,715.6,422.7,734.5,414.9z"/>
	<path class="st16" d="M780.4,429.5c0.8,18.3-0.8,36.2-3.5,53.8c-2.7,17.7-6.7,35.1-11.9,52.2c-10.4,34.1-25,66.9-43.2,97.7
		c-18.1,30.8-39.6,59.8-63.9,86.2c-24.3,26.5-51.2,50.6-80.4,71.8c-7.3,5.3-14.8,10.4-22.3,15.4c-7.6,4.9-15.3,9.6-23,14.3
		c-7.9,4.4-15.7,8.9-24,13.1c-8.2,4-16.3,8.1-24.4,11.6c-32.4,14.3-63.3,24.6-92.5,34.3c-14.6,4.9-28.9,9.7-42.7,14.7
		c-13.9,5.1-27.7,10.6-41.3,17c-13.6,6.3-27.2,13.4-40.6,22c-13.3,8.7-26.4,18.8-39.9,31.4c-2.1-18.3,0.6-37.2,6.2-55.3
		c5.5-18.3,14.4-35.5,24.8-51.5c10.5-16,22.7-30.7,35.9-44c13.3-13.4,27.4-25.4,41.5-36.3c28.3-21.8,57-39.4,82.6-56
		c6.4-4.2,12.7-8.1,18.7-12.2c5.9-3.9,12.1-8.1,18.2-12.3c6.1-4.2,12.2-8.4,18.2-12.7c6.1-4.2,12.1-8.5,18.1-12.9
		c48.1-34.6,94.5-71.8,141.5-111.7c23.5-20,47.1-40.8,71.4-62.5l37.1-33.3C753.5,452.9,766.3,441.2,780.4,429.5z"/>
	<path class="st16" d="M995,159.3c-5.2,5.3-10.6,9.1-16,12.5c-5.5,3.4-11.1,6.1-16.9,8.5c-11.6,4.5-23.8,7.2-36.9,7.4
		c-3.3,0-6.6-0.1-10.1-0.5c-3.3-0.3-6.1-0.6-9.1-1c-5.9-0.8-11.7-1.7-17.4-2.6l-17.4-2.9c-2.9-0.5-5.8-0.9-8.8-1.1
		c-3-0.3-6-0.5-9.3,0.2c1.4-3.1,4.1-5.7,6.8-7.8c2.8-2.1,5.7-3.8,8.7-5.4c6-3,12.2-5.1,18.4-6.9c6.2-1.6,12.4-2.9,18.6-3.8l8.9-1.2
		c2.6-0.5,5.2-0.9,7.9-1.4c10.8-1.7,22.3-2.9,34.4-2.5c6.1,0.3,12.3,0.8,18.6,2.1C981.9,154.3,988.4,156,995,159.3z"/>
	<path class="st16" d="M1045.3,152.8c-6.2,4-12.3,6.6-18.4,8.7c-6.1,2.1-12.2,3.5-18.3,4.5c-12.3,1.9-24.8,1.8-37.7-0.9
		c-3.2-0.7-6.5-1.6-9.7-2.7c-3.1-1-5.8-1.9-8.6-3c-5.6-2-11-4.2-16.5-6.3l-16.3-6.6c-2.7-1.1-5.5-2.2-8.3-3.1
		c-2.9-0.9-5.7-1.8-9.1-1.9c2.1-2.7,5.2-4.6,8.3-6.1c3.2-1.5,6.4-2.5,9.7-3.3c6.5-1.6,13.1-2.3,19.5-2.7c6.4-0.2,12.8-0.1,18.9,0.4
		l9,0.8c2.6,0.1,5.3,0.2,8,0.4c10.9,0.8,22.4,2.1,34.1,5.2c5.8,1.6,11.8,3.5,17.7,6.1C1033.6,145,1039.5,148,1045.3,152.8z"/>
	<path class="st16" d="M922.9,181.9c-2.6,4.2-6,7.6-9.6,10.6c-3.6,3-7.5,5.5-11.4,7.6c-7.8,4.3-16,7.5-24,9.9l-19.7,5.8
		c-3.1,0.9-6.3,1.9-9.8,3.3c-3.5,1.4-7.3,3.2-12,6.2c-2.5-5.1-2.2-10.9-0.7-16.1c1.7-5.3,4.8-9.9,8.7-13.8c3.9-3.8,8.5-6.7,13.5-8.6
		c1.2-0.5,2.5-0.9,3.8-1.3l3.4-0.9c2.2-0.5,4.3-1,6.4-1.3c8.4-1.5,16.7-2.1,25-2.3C905,180.9,913.2,181.2,922.9,181.9z"/>
	<path class="st16" d="M878.2,208.3c-4.4,7.9-9.6,13.1-14.3,17.7c-4.7,4.6-9.1,8.2-13,11.6c-3.8,3.2-7.5,6.4-11.6,10.1
		c-4,3.7-8.4,7.6-13.2,15.2c-0.9-0.7-1.6-1.5-2.4-2.4c-0.6-0.9-1.2-1.8-1.9-2.8c-1.1-1.9-1.9-4-2.4-6.2c-1-4.4-0.9-9,0-13.3
		c1.8-8.7,6.8-16.4,13.5-22c6.5-5.4,14.1-8.8,21.7-10C862.2,204.9,869.8,205.2,878.2,208.3z"/>
	<path class="st16" d="M821.5,253.7c5.3,8.5,8.3,15.3,11.2,21.8c2.7,6.6,4.8,12,6.6,19.5c1.6,7.4,2.7,16.6-0.2,26.4
		c-1.5,4.7-3.8,9.3-7.4,13.1c-3.5,3.7-8.2,6.5-13.3,6.6c0.3-5.1-0.3-8.8-1.2-12.2c-0.9-3.3-1.9-6.2-2.9-9c-2.1-5.3-4.2-11-5.8-18.2
		c-1.6-7.1-2.5-16.5-0.4-25C810,268.3,813.8,260,821.5,253.7z"/>
	<path class="st16" d="M809,302.9c6.6,10.2,10.1,18.7,13.4,26.8c3.1,8.3,5.4,15,7,24.8c0.7,4.8,1.1,10.3,0.5,16.1
		c-0.6,5.8-2.1,11.5-4.5,16.7c-4.9,10.3-13.2,19.2-25,22.5c-1.9-12-3.2-20.4-4.9-28c-1.5-7.7-3-13.1-4.3-21.7
		c-1.2-8.2-1.8-19.5,1-29.5C794.9,320.5,799.6,310.7,809,302.9z"/>
	<path class="st5" d="M1034.3,316.9c1.9,7.3,3.4,14.7,4.4,22.2c1,7.5,1.4,15,1.3,22.6c-0.2,7.6-0.9,15.1-2.5,22.5
		c-0.8,3.7-1.7,7.4-2.8,11c-0.5,1.8-1.2,3.6-1.8,5.4l-0.9,2.7c-0.1,0.4-0.2,1,0.2,1.1c0.2,0,0.4-0.2,0.5-0.4
		c0.1-0.1,0.2-0.6-0.1-0.4c0.3-0.2,0.3,0.3,0.2,0.4c-0.1,0.2-0.3,0.4-0.5,0.5c-0.7-0.1-0.5-0.9-0.4-1.3l0.7-2.7
		c0.5-1.8,1-3.6,1.4-5.5c0.9-3.6,1.7-7.3,2.3-11c1.2-7.4,1.9-14.8,2-22.3c0.2-7.5-0.2-15-0.9-22.4
		C1036.6,331.7,1035.6,324.3,1034.3,316.9z"/>
	<path class="st5" d="M1029.6,317.6c2.5,13.1,1.4,26.7-1.5,39.7c-3.1,13-8.1,25.5-15,36.9c5.6-12,10.4-24.4,13.2-37.3
		C1029.5,344.1,1030.7,330.9,1029.6,317.6z"/>
	<path class="st5" d="M1022.4,317.9c-1.3,11.5-4.6,22.8-8.9,33.6c-4.5,10.7-10,21-16.8,30.4c5.6-10.1,10.9-20.4,15.2-31.1
		C1016.4,340.2,1019.8,329.2,1022.4,317.9z"/>
	<path class="st5" d="M1013.8,313.8c-5.6,8.1-12.7,14.9-19.1,22.2c-3.3,3.6-6.4,7.3-9.2,11.3c-2.8,3.9-5.3,8.1-7.2,12.6
		c1.2-4.8,3.5-9.2,6.1-13.4c2.7-4.2,5.8-8,9-11.7C1000.1,327.6,1007.1,320.9,1013.8,313.8z"/>
	<path class="st5" d="M1006.3,311.3c-6.5,6.1-13.1,12.1-19.3,18.5c-6.3,6.3-12.2,12.9-18.3,19.5c4.9-7.5,10.8-14.3,17-20.8
		C992.1,322.3,998.8,316.3,1006.3,311.3z"/>
	
		<linearGradient id="SVGID_15_" gradientUnits="userSpaceOnUse" x1="844.1307" y1="513.2036" x2="1325.9468" y2="513.2036" gradientTransform="matrix(-0.7749 0.6321 -0.6321 -0.7749 1598.5366 169.6086)">
		<stop  offset="0" style="stop-color:#E4A244"/>
		<stop  offset="1" style="stop-color:#DCC456;stop-opacity:0.2"/>
	</linearGradient>
	<path class="st17" d="M711.2,422.5c-6.7,11.1-14.8,21.2-23.4,31c-4.4,4.7-8.8,9.6-13.5,14c-2.3,2.3-4.6,4.5-7,6.8l-7.2,6.5
		c-19.5,17.2-40.6,32.4-62.9,46c-22.4,13.4-45.8,25.5-71.3,34.5c-6.4,2.4-12.8,4.4-19.2,6.4c-6.5,1.7-13,3.6-19.6,5l-9.9,2.2
		c-3.3,0.6-6.7,1.1-10,1.7c-6.7,1.2-13.4,1.8-20.2,2.7c-6.8,0.6-13.5,1.2-20.4,1.3c-6.8,0.3-13.6,0.2-20.5,0
		c-13.7-0.5-27.3-1.9-40.8-4.3c-27-4.8-53.5-13.9-77.5-27c-23.9-13.2-43.7-28.8-63.8-42.7c-20-14-40.4-26.4-65.7-32.5
		c12.5-3.4,26.2-3.7,39.4-2c13.3,1.6,26.3,5.2,38.8,9.3c24.9,8.4,47.8,19.5,69.7,27.1c5.5,1.8,10.9,3.6,16.4,5.1l8.2,2.3l8.4,1.9
		l4.2,0.9l4.2,0.8l8.4,1.6c5.7,0.7,11.3,1.7,17,2.1c22.7,2.6,45.7,2.3,68.7,0.5c22.9-2.2,45.9-6.1,68.5-12.1
		c22.4-6.1,45.3-14,67.8-23.1c22.6-8.9,45.1-18.8,67.4-29.6c11.2-5.3,22.1-11.1,33.2-16.9C689.4,435.6,700.3,429.3,711.2,422.5z"/>
	
		<linearGradient id="SVGID_16_" gradientUnits="userSpaceOnUse" x1="854.035" y1="392.6257" x2="1404.0052" y2="392.6257" gradientTransform="matrix(-0.7749 0.6321 -0.6321 -0.7749 1598.5366 169.6086)">
		<stop  offset="0" style="stop-color:#E4A244"/>
		<stop  offset="1" style="stop-color:#DCC456;stop-opacity:0.2"/>
	</linearGradient>
	<path class="st18" d="M714.8,451.7c-4.3,12.8-9.3,25.3-14.6,37.6c-5.3,12.3-11.1,24.4-17.2,36.4c-12.4,23.9-26.6,47.1-43.1,69
		c-4.1,5.5-8.5,10.8-12.8,16.2c-4.5,5.3-9,10.5-13.8,15.6c-9.4,10.3-19.7,19.8-30.3,29.1c-21.8,18.3-46.1,33.8-72.4,45.6
		c-6.6,2.8-13.3,5.6-20.1,8c-6.7,2.6-13.7,4.6-20.7,6.6c-14.1,3.5-28.4,6.6-43.1,7.6c-29.2,2.7-59.3-0.4-87.2-9.9
		c-27.9-9.6-50.9-24.3-73.1-37.7c-22.3-13.5-44-26.2-70.2-33.2c13.3-2.8,27.3-2.7,41-0.9c13.8,1.7,27.2,5.1,40.2,8.8
		c26,7.5,50.4,16.6,73.5,20.3c5.8,0.8,11.5,1.9,17.3,2.1c2.9,0.1,5.7,0.6,8.7,0.6l8.7,0.1c2.9,0.2,5.8-0.2,8.7-0.3
		c2.9-0.3,5.8-0.1,8.7-0.5c5.8-0.6,11.6-1.1,17.3-2.3c5.8-0.9,11.5-2.1,17.2-3.4c2.9-0.5,5.7-1.5,8.5-2.2c2.8-0.8,5.7-1.4,8.5-2.5
		c5.6-1.8,11.3-3.5,16.8-5.7c5.6-2,11-4.4,16.5-6.8c2.8-1.1,5.4-2.5,8.1-3.7c2.7-1.3,5.4-2.5,8.1-3.9c5.3-2.9,10.6-5.6,15.7-8.7
		c10.6-5.8,20.4-12.8,30.3-19.7c19.7-14.5,38.7-30.6,56.9-48.2C643.5,530.6,677,490.1,714.8,451.7z"/>
	
		<linearGradient id="SVGID_17_" gradientUnits="userSpaceOnUse" x1="790.5985" y1="257.6096" x2="1534.9531" y2="257.6096" gradientTransform="matrix(-0.7749 0.6321 -0.6321 -0.7749 1598.5366 169.6086)">
		<stop  offset="0" style="stop-color:#E4A244"/>
		<stop  offset="1" style="stop-color:#DCC456;stop-opacity:0.2"/>
	</linearGradient>
	<path class="st19" d="M249.4,932.9c3.6-7.4,8-14.4,13-21.2c5.1-6.6,10.8-12.9,16.9-18.7c6.1-5.8,12.6-11.2,19.3-16.3
		c6.7-5.1,13.7-9.7,20.7-14.3c14.1-8.9,28.4-17,42.5-24.8c7.1-4,14.2-7.8,21.3-11.6c7.1-3.8,14.2-7.7,21.3-11.4
		c56.8-30.1,112.7-59.2,162.9-94.5c50-35.4,95.1-76.9,126.9-128c16-25.4,28.5-53.4,37.5-83.1c9.1-29.7,14.2-61.1,16.2-93.8
		c10.2,31.2,13.4,65.1,11,98.8c-2.6,33.7-11.2,67.4-25.6,98.9c-1.9,3.9-3.6,7.9-5.6,11.7l-6,11.5l-6.6,11.1c-2.2,3.7-4.7,7.2-7,10.9
		c-9.5,14.4-20.3,27.8-31.7,40.7c-11.4,12.8-23.8,24.6-36.5,35.9c-12.9,11.1-26.3,21.6-40,31.4C544.1,805,483.2,832,422.5,854.8
		c-7.6,2.9-15.2,5.6-22.8,8.4c-7.6,2.7-15.2,5.5-22.9,8.1c-15.3,5.4-30.5,10.3-45.2,15.8C302.1,897.9,273.6,910.6,249.4,932.9z"/>
	
		<linearGradient id="SVGID_18_" gradientUnits="userSpaceOnUse" x1="808.6727" y1="461.3106" x2="1514.6031" y2="461.3106" gradientTransform="matrix(-0.7749 0.6321 -0.6321 -0.7749 1598.5366 169.6086)">
		<stop  offset="0" style="stop-color:#E57D28;stop-opacity:0.8"/>
		<stop  offset="0.7575" style="stop-color:#DEB24A;stop-opacity:0.3455"/>
		<stop  offset="1" style="stop-color:#DCC456;stop-opacity:0.2"/>
	</linearGradient>
	<path class="st20" d="M735.2,432.4c-1.5,18.4-6.7,36.2-13.3,53.3c-6.6,17.2-15.1,33.5-24.5,49.2c-19,31.3-42.3,59.6-68.6,85
		c-3.3,3.2-6.7,6.3-10.1,9.4c-3.4,3.1-6.6,6.2-10,9.1c-6.8,6-13.8,11.8-21,17.5c-14.4,11.3-29.7,21.9-45.8,31.6
		c-32.3,19.3-68.4,35.1-108,44.5c-39.5,9.3-83.1,11.7-125.6,3.3c-21.3-4.3-41.6-10.9-59.4-19c-18.1-7.9-34.1-17-49-26.3
		c-14.8-9.2-28.4-18.8-41.4-28c-12.9-9.2-25.4-18-38.3-26.5c-12.9-8.4-26.1-16.4-40.4-23.4c-14.4-7-29.9-12.6-48.2-17
		c14-12.4,31.9-20.9,50.7-25.8c18.9-5.2,38.4-6.8,57.6-6.6c19.1,0.3,38.1,2.6,55.9,5.8c17.8,3.2,34.6,6.9,50.5,10.6
		c15.8,3.6,30.6,6.8,44.2,9.2c13.7,2.4,25.8,3.7,37.4,4c23.4,0.7,47.2-1.9,72.4-7.4c25.1-5.6,51.4-13.9,78.6-24.2
		c13.6-5,27.4-10.7,41.5-16.5l21.2-9l10.7-4.6c3.5-1.6,6.9-3.2,10.5-4.7c28.1-12.7,56.4-26.7,85-41.7c14.3-7.5,28.6-15.5,43.1-23.9
		C705.5,451.8,720,442.7,735.2,432.4z"/>
	
		<linearGradient id="SVGID_19_" gradientUnits="userSpaceOnUse" x1="780.8179" y1="280.7048" x2="1562.0188" y2="280.7048" gradientTransform="matrix(-0.7749 0.6321 -0.6321 -0.7749 1598.5366 169.6086)">
		<stop  offset="0" style="stop-color:#E4A244"/>
		<stop  offset="1" style="stop-color:#DCC456;stop-opacity:0.2"/>
	</linearGradient>
	<path class="st21" d="M737.9,430.2c2.6,8,3.4,16.7,3.4,25.3c0.1,4.3-0.2,8.6-0.5,12.8c-0.4,4.2-0.7,8.5-1.4,12.7
		c-2.4,16.7-6.5,33-11.2,48.4c-2.5,7.7-4.2,15.3-6.6,23c-2.2,7.6-4.7,15.2-7.3,22.8c-5.4,15.2-11.5,30.3-18.9,45.3
		c-14.7,29.9-34.2,59.7-61.1,86.2l-5.1,4.9l-5.3,4.8c-3.5,3.2-7.1,6.3-11,9.3c-7.5,6-15.4,11.8-23.4,16.8
		c-7.8,5.1-15.7,9.7-23.4,13.8c-7.6,4.2-15.3,7.9-22.5,11.4c-14.7,7-28.4,12.6-40.9,18c-12.7,5.3-23.5,10-34.9,15.4
		c-22.6,10.6-45.4,22.4-68.1,35.9c-22.8,13.5-45.9,28.4-69.5,45.3c-11.7,8.5-23.9,17.3-36.1,26.8c-12.4,9.4-24.6,19.6-38.7,29.9
		c-1.8-17.1-1.2-34.2,1.4-50.8c0.6-4.2,1.2-8.4,2-12.6c0.8-4.1,1.8-8.2,2.8-12.4c1.8-8.4,4.6-16.3,7.2-24.5
		c11.2-32.2,28.2-62.5,49.4-89.9c2.6-3.5,5.4-6.8,8.2-10.1c2.8-3.3,5.6-6.7,8.5-9.9c6.1-6.2,11.9-12.8,18.4-18.6l9.7-8.9
		c3.3-3,6.7-5.6,10.1-8.4c6.7-5.7,13.9-10.7,21.1-15.9c3.6-2.6,7.3-5,11.1-7.3c3.8-2.3,7.5-4.7,11.3-7c7.6-4.4,15.2-8.6,22.5-12.3
		c14.6-7.5,28.5-13.8,41.1-19.5l18.1-8.3c2.9-1.3,5.6-2.6,8.3-4c2.7-1.3,5.3-2.5,7.9-3.8c5.1-2.6,9.7-5,14.4-7.7
		c2.4-1.3,4.7-2.8,7.1-4.2l3.6-2.1l3.6-2.4c9.6-6.1,19.4-13.2,29.5-21c10-7.9,20.4-16.4,31-25.5l32.9-28.5c5.7-5,11.5-9.9,17.4-14.9
		c5.8-5,12.2-10,17.8-15c11.5-9.9,22.9-19.4,34.2-29.5l8.4-7.7c2.8-2.6,5.4-5.3,8.2-8C727.8,442.8,733,437,737.9,430.2z"/>
	
		<linearGradient id="SVGID_20_" gradientUnits="userSpaceOnUse" x1="838.4125" y1="356.3509" x2="1031.4836" y2="356.3509" gradientTransform="matrix(-0.7749 0.6321 -0.6321 -0.7749 1598.5366 169.6086)">
		<stop  offset="0" style="stop-color:#E4A244"/>
		<stop  offset="1" style="stop-color:#DCC456;stop-opacity:0.2"/>
	</linearGradient>
	<path class="st22" d="M722.8,426.2c-5.6,16.1-15,29.8-25.8,42.2c-10.9,12.2-23.6,22.9-37.4,31.7c-13.8,8.8-28.8,15.8-44.6,20.4
		c-15.8,4.5-32.2,7.2-49.1,5.4c13.1-10.9,26-19.4,38.8-28c12.8-8.4,25.4-16.5,38-24.5c12.6-8,25.3-16,38.4-24
		C694.2,441.6,707.4,433.5,722.8,426.2z"/>
	
		<linearGradient id="SVGID_21_" gradientUnits="userSpaceOnUse" x1="847.0983" y1="374.8053" x2="952.3162" y2="374.8053" gradientTransform="matrix(-0.7749 0.6321 -0.6321 -0.7749 1598.5366 169.6086)">
		<stop  offset="0" style="stop-color:#E4A244"/>
		<stop  offset="1" style="stop-color:#DCC456;stop-opacity:0.2"/>
	</linearGradient>
	<path class="st23" d="M704.9,415.1c-4.6,7.7-10.3,14.5-16.5,20.8c-6.2,6.3-13,12-20.2,17.1c-7.2,5.1-14.8,9.6-22.8,13.4
		c-8,3.7-16.3,6.9-25.1,8.7c6.9-5.8,13.9-10.8,20.9-15.8l20.9-14.9l21-14.8C690.2,424.7,697.3,419.7,704.9,415.1z"/>
	
		<linearGradient id="SVGID_22_" gradientUnits="userSpaceOnUse" x1="796.4732" y1="283.3473" x2="897.9272" y2="283.3473" gradientTransform="matrix(-0.7749 0.6321 -0.6321 -0.7749 1598.5366 169.6086)">
		<stop  offset="0" style="stop-color:#E4A244"/>
		<stop  offset="1" style="stop-color:#DCC456;stop-opacity:0.2"/>
	</linearGradient>
	<path class="st24" d="M774,425.6c-0.4,11-0.2,20.9,0.2,31c0.4,10.1,0.8,20.3,0.4,30.9c-0.4,10.6-1.9,21.6-5.5,32.1
		c-3.6,10.4-9.7,20.7-18.9,27c3.1-10.5,4.6-20.2,5.5-30c0.9-9.8,1-19.7,1.5-29.8c0.4-10.2,1.1-20.8,3.4-31.4
		C762.8,444.8,766.7,434,774,425.6z"/>
	<path class="st25" d="M757.8,433.2c0.4,13.1-0.4,26.1-1.6,39.2c-1.5,13-3.3,26.1-6.2,39c-5.7,25.8-14.4,51.3-26.8,75.4
		c-12.4,24-29.1,46.5-49.4,64.7c-20.3,18.1-42.4,33.5-65.1,46.9c-22.8,13.3-46.1,24.9-69.6,35.7l-70.5,30.8
		c-23.3,10.3-46.4,21.1-68.6,33.3c-10.8,6.5-22,12.7-32.3,20.1c-10.8,6.8-20.5,15-30.6,22.9l-2.4-2.5c9.3-8.9,18.3-18.3,28.5-26.3
		c5-4.1,10-8.3,15.3-12c5.3-3.8,10.5-7.7,15.8-11.4c21.5-14.5,43.9-27.4,66.5-39.9l67.9-36c22.4-12,44.3-24.6,65-38.5
		c20.7-13.9,39.2-30.2,55.6-47.8l11.9-13.5c2-2.2,3.7-4.7,5.6-7l2.8-3.5l2.7-3.6c1.8-2.4,3.6-4.7,5.4-7.2c1.7-2.5,3.3-5,5.1-7.4
		c1.8-2.4,3.3-5,5-7.5c1.7-2.5,3.3-5,4.8-7.7c12.8-20.5,23.8-42.7,33.7-65.6c10-23,18.6-46.9,28-71.2L757.8,433.2z"/>
	<path class="st25" d="M698.2,429.2c-28.4,33.3-65.9,58.5-106.4,75.9c-5,2.3-10.2,4.2-15.4,6.1c-5.2,1.8-10.4,3.8-15.7,5.2
		c-5.3,1.5-10.7,2.9-16,4.2c-5.4,1.3-10.8,2.1-16.2,3.2c-10.8,2.1-21.9,3-32.7,4.4l-16.4,1.3c-5.5,0.6-10.9,0.7-16.4,0.9
		c-21.9,1.2-43.8,0.4-65.5-1.7l-16.2-1.9L365,524c-10.7-1.7-21.3-4.2-31.7-6.7c-20.8-5.1-41.2-10.5-61.8-14.3
		c-10.3-1.9-20.7-3.4-31.1-4.1c-10.4-0.8-20.9-0.7-31.4,0.3l-0.6-3.5c21-4.7,43-5.3,64.5-3.6c21.5,1.6,42.7,5.1,63.7,7.9
		c10.5,1.5,20.8,2.9,31.2,3.7l15.5,1.2l15.5,0.4c20.7,0.4,41.4-0.3,61.8-3c10.2-1,20.4-3.1,30.5-4.9c10-2.5,20-4.5,29.8-7.6
		c19.7-5.4,39.1-11.5,58.6-17.6l14.6-4.7l14.5-5.2c4.9-1.6,9.7-3.6,14.5-5.4l7.3-2.8c2.4-0.9,4.9-1.8,7.3-2.8
		c19.4-7.7,38.4-16.5,58.4-25L698.2,429.2z"/>
	<path class="st26" d="M1001.8,293.8c-4.4,0.1-8.7-3.1-10.4-7.4c-1.7-4.3-1-9.6,2.3-12.6c-0.7,4.2-0.4,7.9,1,11.3
		C995.9,288.4,998.3,291.2,1001.8,293.8z"/>
	<path class="st26" d="M1021,297c-2.9,0.5-6.1-0.6-8.3-2.9c-1.1-1.2-1.8-2.7-2.1-4.2c-0.3-1.5,0-3.2,0.8-4.5
		c0.4,2.9,1.6,5.1,3.2,6.9C1016.3,294.2,1018.5,295.5,1021,297z"/>
	<path class="st26" d="M1026.7,282.9c-4.4,0.9-9.4-1.8-11.5-6.1c-2.1-4.3-1.3-9.9,2.1-12.8c-1.6,4.1-1.4,8.2,0.2,11.7
		C1019.3,279.1,1022.5,281.7,1026.7,282.9z"/>
	<path class="st27" d="M975.7,308.6c-1.3-1-1.9-2.6-2.1-4.2c-0.2-1.6,0.1-3.3,0.7-4.7c0.6-1.5,1.5-2.8,2.5-3.9
		c0.5-0.5,1.1-1,1.7-1.5c0.3-0.2,0.6-0.4,0.9-0.6c0.3-0.2,0.8-0.6,1.4-0.4l1.1,0.4l-1,0.1l-0.5,0l0.3-0.5l0.1,0.4
		c-0.2,0.3-0.4,1.2-0.7,1.8l-0.9,1.9c-0.6,1.2-1.2,2.4-1.7,3.5C976.5,303.3,975.8,305.5,975.7,308.6z"/>
	<path class="st26" d="M1014.9,255.6c-2.1-0.6-4-2.1-5.2-4c-1.3-1.9-2-4.1-2.3-6.4c-0.4-4.5,1.1-9,3.7-12.4
		c-0.7,4.3-1.5,8.2-1.1,12.1C1010.5,248.8,1011.9,252.5,1014.9,255.6z"/>
	<path class="st26" d="M1034.6,262.7c-1.8,0.9-4.2,0.4-6-0.8c-1.9-1.2-3-3.3-3.6-5.4c-0.5-2.1-0.3-4.3,0.3-6.2
		c0.6-1.9,1.7-3.6,3.2-5c-0.3,3.9-0.9,7.3-0.1,10.4c0.3,1.5,1,2.9,1.9,4.1C1031.4,261.1,1032.7,262.1,1034.6,262.7z"/>
	<path class="st26" d="M978.1,280.7c-5.6-0.5-10.7-5.2-12.3-11c-0.7-2.9-0.7-6,0.3-8.8c0.9-2.8,2.6-5.3,4.9-6.9
		c-1.2,2.5-1.9,5-2.3,7.5c-0.3,2.5-0.2,4.9,0.5,7.3c0.6,2.3,1.7,4.5,3.2,6.5C973.9,277.4,975.8,279.1,978.1,280.7z"/>
	<path class="st26" d="M960.8,304.8c-2.6-0.7-4.9-2.4-6.5-4.6c-1.7-2.3-2.5-5.1-2.6-7.9c0-2.8,0.8-5.7,2.2-8
		c1.4-2.3,3.3-4.2,5.4-5.8c-1,2.5-2.1,4.7-2.9,7c-0.8,2.3-1.3,4.5-1.2,6.7C955.3,296.7,957.2,301,960.8,304.8z"/>
	<path class="st26" d="M940.9,261.7c-1.2,4.6-2,8.8-1.7,13c0.1,2.1,0.6,4.1,1.2,6.1c0.3,1,0.7,2,1.2,3c0.2,0.5,0.5,1,0.8,1.5
		c0.1,0.3,0.3,0.5,0.4,0.7l0.2,0.4c0,0.1,0.1,0.2-0.1,0.3c-0.1,0-0.2,0-0.2-0.1c0.3,0.1-0.1-0.1-0.3-0.2c-0.3-0.1-0.5-0.3-0.8-0.5
		c-0.5-0.3-1-0.7-1.5-1.1c-0.9-0.8-1.7-1.8-2.3-2.9c-1.3-2.1-2-4.6-2.2-7.1C935.4,269.9,937.3,264.9,940.9,261.7z"/>
	<path class="st26" d="M957.1,262.7c-2.8-0.7-5.6-1.8-7.8-4.1c-2.3-2.3-3.3-5.7-3.2-8.7c0.1-3.1,1.2-6.1,2.8-8.6
		c1.6-2.5,3.6-4.5,6-6.3c-1.2,2.6-2.5,5.1-3.5,7.6c-1,2.5-1.7,4.9-1.7,7.4c-0.1,2.5,0.4,4.9,1.8,6.9
		C952.8,258.9,955,260.7,957.1,262.7z"/>
	<path class="st26" d="M973.4,237.8c-2.6-1.7-4.4-4.5-5.4-7.5c-1-3-1.1-6.3-0.5-9.5c1.3-6.3,5.4-11.6,10.5-14.8
		c-3.2,5.2-6,10.1-7.1,15.5c-0.6,2.7-0.6,5.4-0.3,8.2C971.1,232.5,971.9,235.2,973.4,237.8z"/>
	<path class="st27" d="M992.5,256c-2.4-0.9-4.7-2.1-6.8-3.8c-2-1.7-3.6-4.3-4.2-7.1c-0.5-2.8-0.1-5.7,1-8.1c1.1-2.5,2.9-4.6,5.1-6
		c-2.2,4.6-3.5,9.1-2.6,13.5c0.4,2.1,1.3,4,2.7,5.9C989.1,252.2,990.9,253.9,992.5,256z"/>
	<path class="st27" d="M1007.8,275.7c-2.6-0.4-5-1.8-6.9-3.7c-1.9-1.9-3.3-4.4-4-7c-1.4-5.3-0.1-11.2,3.6-15
		c-1.1,5-1.3,9.7-0.2,14.1C1001.4,268.4,1003.9,272.3,1007.8,275.7z"/>
	<path class="st26" d="M1003.5,236.3c-2.2-1.2-4-3-5.3-5.3c-1.3-2.3-1.9-5-1.6-7.7c0.3-2.7,1.5-5.3,3.2-7.2c1.7-1.9,3.7-3.4,5.9-4.5
		c-1.2,2.2-2.6,4.1-3.6,6.1c-1.1,2-1.8,3.9-2,5.9c-0.2,2,0.1,4.2,0.7,6.2C1001.4,232,1002.4,234.1,1003.5,236.3z"/>
	<path class="st26" d="M1043.8,243.9c-2.4-0.8-4.4-2.9-5.4-5.3c-1.1-2.4-1.4-5.2-0.9-7.9c1.1-5.3,5.2-9.6,9.9-11
		c-3.2,3.8-5.7,7.6-6.5,11.7c-0.4,2-0.4,4.2,0,6.3C1041.4,239.8,1042.3,241.9,1043.8,243.9z"/>
	<path class="st27" d="M1029.3,233c-2.6-0.1-5-1.8-6.5-4.1c-1.5-2.3-2-5.2-1.8-7.8c0.2-2.7,1.1-5.2,2.4-7.4c1.2-2.2,2.8-4.1,4.6-5.8
		c-1.3,4.9-3.2,9.1-3.5,13.5C1024.2,225.6,1025.3,229.9,1029.3,233z"/>
	<path class="st27" d="M994.8,210.5c-2.5,0.1-5-1.7-6.3-4c-1.4-2.4-1.5-5.3-0.8-7.9c0.7-2.6,2-4.8,3.7-6.6c1.7-1.8,3.6-3.3,5.8-4.4
		c-1.1,2.2-2.5,4.1-3.6,6.1c-1.1,1.9-2.1,3.8-2.5,5.8c-0.5,2-0.6,4-0.1,5.9C991.6,207.3,992.7,209.2,994.8,210.5z"/>
	<path class="st26" d="M1019.1,212.6c-1.3-0.6-2.1-1.9-2.8-3c-0.6-1.2-1.2-2.4-1.7-3.8c-0.9-2.6-1-5.8-0.1-8.6
		c0.9-2.8,2.5-5.1,4.3-7.2c0.9-1,1.8-2,2.9-2.8c0.6-0.4,1.1-0.8,1.8-1.1c0.3-0.2,0.6-0.3,1-0.4c0.3-0.1,0.7-0.3,0.4-0.2
		c-0.1-0.1,0-0.2,0.2-0.2c0.2,0.1,0.1,0.3,0,0.4c-0.1,0.2-0.3,0.3-0.4,0.4c-0.2,0.2-0.4,0.5-0.6,0.7c-0.4,0.5-0.8,1-1.1,1.5
		c-0.7,1-1.3,2.2-2,3.3c-1.3,2.2-2.5,4.4-3.2,6.6c-0.8,2.2-0.9,4.5-0.6,6.9c0.2,1.2,0.4,2.5,0.6,3.8
		C1018.1,210.3,1018.3,211.5,1019.1,212.6z"/>
	<path class="st26" d="M981.7,192.1c-2.1-0.8-3.7-2.8-4.4-5c-0.8-2.2-0.7-4.6-0.1-6.9c1.5-4.5,5-7.7,9-9.2
		c-2.3,3.6-4.7,6.7-5.7,10.2c-0.6,1.7-0.7,3.5-0.6,5.3C980.2,188.4,980.6,190.2,981.7,192.1z"/>
	<path class="st26" d="M1008.8,194.8c-1.7-1.8-2.6-4.3-2.9-6.7c-0.3-2.5,0.1-5.1,1-7.5c1.8-4.7,5.7-8.5,10.2-10.2l0.5-0.2l-0.3,0.4
		l-0.3,0.4l0.1-0.5l0.2,0.2c-3,3.7-5.5,7.3-7.1,11.2C1008.6,185.8,1008,190,1008.8,194.8z"/>
	<path class="st26" d="M962.9,216.6c-2.4-1.6-4.1-4.1-5.4-6.6c-0.7-1.3-1.1-2.9-1.1-4.6c0-1.6,0.4-3.1,0.8-4.5
		c1.8-5.5,5.5-10.5,10.5-13.2c-3.1,4.7-5.6,9.3-7.2,14.3c-0.9,2.6-1.2,4.5-0.5,7C960.8,211.6,961.6,214.1,962.9,216.6z"/>
	<path class="st26" d="M939.8,244c-2.8-1.2-5-3.8-6.2-6.8c-1.2-3-1.1-6.5-0.2-9.6c1-3,2.5-5.7,4.3-8.1c1.8-2.4,3.9-4.6,6.5-6.3
		c-1.4,2.7-2.8,5.2-4.1,7.7c-1.3,2.6-2.5,5.1-3.3,7.7C935.1,233.7,936.1,239.2,939.8,244z"/>
	<path class="st28" d="M925.9,226.1c-1.8-2-2.6-4.8-2.6-7.6c0-2.8,0.9-5.5,2.1-7.9c1.3-2.4,2.9-4.5,4.8-6.3c1.8-1.8,4-3.6,6.5-4.4
		c-1.6,2.1-3,4.1-4.4,6.2c-1.4,2.1-2.7,4.1-3.8,6.2C926.2,216.4,924.9,220.9,925.9,226.1z"/>
	<path class="st26" d="M912.7,252.3c-1.9-0.9-3.2-2.9-3.7-4.9c-0.6-2.1-0.4-4.3,0.2-6.3c0.6-2,1.6-3.8,2.8-5.4
		c1.2-1.6,2.5-3,4.1-4.3c-0.7,4-2.6,7.4-3.5,10.7c-0.5,1.6-0.8,3.3-0.8,5C911.7,248.7,911.9,250.4,912.7,252.3z"/>
	<path class="st28" d="M1038.6,194.7c-2.2-3.4-3.1-7.6-2.8-11.8c0.2-4.2,1.8-8.3,4.3-11.7c2.5-3.4,5.9-6.3,9.6-7.9
		c3.6-1.9,7.2-3.3,11.1-4.6c-3.1,2.6-6.5,4.7-9.6,6.9c-3.3,2-6,4.6-8.1,7.6C1038.5,179.2,1036.9,186.9,1038.6,194.7z"/>
	<path class="st26" d="M1046.2,211c-3.2-3.7-4.6-9-3.7-14.1c0.5-2.5,1.5-4.9,3.1-7c0.8-1,1.7-1.9,2.7-2.6c1.1-0.8,2.2-1.1,3-2
		c-0.1,1.3-1.2,2.3-1.7,3.2c-0.6,0.9-1.2,1.9-1.6,2.9c-0.9,2-1.6,4-1.9,6.1C1045.1,201.8,1045.5,206.2,1046.2,211z"/>
	<path class="st26" d="M1059.3,222.7c-2.2-3.7-2.2-8.3-0.9-12.4c1.4-4,4.2-7.7,8.2-9.3c-2,3.7-3.7,6.9-4.8,10.4
		C1060.5,215,1059.9,218.6,1059.3,222.7z"/>
	<path class="st26" d="M1072.9,204.5c-1.7-4.6-1.4-9.9,0.6-14.5c1.1-2.3,2.6-4.4,4.5-6c1.9-1.6,4.2-2.8,6.7-3.1
		c-3.7,3.2-6.2,6.7-8,10.6C1074.9,195.4,1074,199.8,1072.9,204.5z"/>
	<path class="st27" d="M1085.1,195.7c-0.6-2.7-0.2-5.5,0.4-8.1c0.7-2.7,1.5-5,2.6-7.6c1.1-2.5,3.2-5,5.7-6.4c2.4-1.5,5-2.2,7.7-2.7
		c-2.1,1.8-4.3,3.2-6.1,4.9c-1.8,1.7-3.1,3.4-4.1,5.7c-1,2.2-2.1,4.7-3.2,7C1087.1,190.9,1086,193.2,1085.1,195.7z"/>
	<path class="st26" d="M1089,174c-0.5-2.2-0.1-4.6,0.8-6.7c0.8-2.2,2.2-4.1,3.8-5.7c3.3-3.2,7.3-5.3,11.8-6.1
		c-3.1,3.3-6.5,5.7-9.3,8.6C1093.2,166.9,1090.8,170,1089,174z"/>
	<path class="st26" d="M1066.8,187c-0.7-2.5-0.5-5.3,0.3-7.8c0.8-2.6,2.1-4.9,3.7-7c1.7-2,3.5-3.9,5.7-5.3c2.2-1.5,4.7-2.6,7.4-2.6
		c-2.2,1.4-3.9,3-5.6,4.7c-1.6,1.7-3.3,3.5-4.7,5.4C1070.6,178.2,1068.2,182.1,1066.8,187z"/>
	<path class="st26" d="M1066.7,168.9c-0.4-2.6-0.2-5.3,0.7-7.8c0.8-2.6,2.4-4.9,4.4-6.8c2-1.8,4.4-3.2,6.9-4c2.4-0.9,5-1.4,7.6-1.6
		c-4.2,3.1-8.7,5.1-12.1,8.3C1070.7,159.9,1068.6,164.1,1066.7,168.9z"/>
	<path class="st27" d="M926.7,272.9c-2.5-0.2-4.9-1.9-6.3-4.2c-1.5-2.3-2-5-2-7.6c0.1-2.6,0.7-5.1,1.7-7.4c1-2.3,2.3-4.4,4.2-6.1
		c-0.6,2.4-1.1,4.7-1.5,6.9c-0.4,2.3-0.8,4.5-0.8,6.7C921.8,265.5,922.8,269.7,926.7,272.9z"/>
	<path class="st28" d="M918.1,295.8c-4.1-0.6-7.5-4-8.9-8c-1.4-4-0.7-8.8,2.2-11.7c-0.3,4,0,7.4,1.1,10.6
		C913.6,289.9,915.5,292.7,918.1,295.8z"/>
	<path class="st26" d="M935,309.5c-2.9-1.1-4.7-3.8-5.6-6.6c-0.4-1.4-0.6-2.9-0.4-4.4c0.2-1.5,0.7-2.8,1.5-4.2
		c0.7,1.4,0.9,2.8,1.3,4c0.4,1.2,0.6,2.4,1,3.6C933.5,304.3,934.3,306.6,935,309.5z"/>
	<path class="st26" d="M897.3,306.3c-0.7-2.7-0.1-5.2,0.9-7.4c0.6-1.1,1.2-2.2,2.1-3.1c0.4-0.5,0.9-0.9,1.4-1.3
		c0.3-0.2,0.5-0.4,0.8-0.5c0,0,0.4-0.3,0.6-0.2c0.2,0,0.2,0.1,0.2,0.1c0,0.1,0.2,0.2,0.1,0.2c-0.1-0.1,0.2-0.3,0.3,0
		c0,0.2-0.2,0.3-0.3,0.3c-0.1,0-0.2,0-0.2,0.1c0,0.1,0.3-0.1,0.2,0l-0.2,0.9c-0.2,0.6-0.3,1.2-0.5,1.7c-0.4,1.1-0.8,2.2-1.3,3.2
		C900.3,302.4,899.2,304.3,897.3,306.3z"/>
	<path class="st26" d="M890.4,299.1c-1.5-0.2-2.9-1.1-3.8-2.3c-1-1.2-1.6-2.6-1.9-4.1c-0.5-3,0.2-6.1,2.4-8.2
		c0.5,2.9,0.6,5.3,1.1,7.6c0.2,1.2,0.5,2.3,0.8,3.4C889.3,296.6,889.8,297.7,890.4,299.1z"/>
	<path class="st26" d="M888.7,264.6c-2.3,0.1-4.7-1.3-6.2-3.3c-1.5-2-2.2-4.6-2.2-7c0-2.4,0.6-4.7,1.5-6.8c0.9-2.1,2.1-4.2,3.9-5.6
		c-0.6,2.2-1,4.2-1.3,6.4c-0.3,2.1-0.6,4.1-0.6,6.1c0,2,0.3,3.8,1,5.6C885.6,261.6,886.8,263.3,888.7,264.6z"/>
	<path class="st26" d="M901.2,279.6c-3.4-1.5-5.5-5.2-5.9-8.9c-0.2-1.9,0-3.8,0.7-5.5c0.6-1.8,1.8-3.2,3.2-4.4
		c-0.1,1.9-0.5,3.4-0.6,5c-0.1,1.5-0.1,3.1,0.1,4.5C899.1,273.4,899.9,276.2,901.2,279.6z"/>
	<path class="st26" d="M875.9,289.3c-3.4-1.1-5.7-4.5-6.4-8c-0.3-1.8-0.2-3.6,0.3-5.4c0.3-0.9,0.7-1.7,1.1-2.4c0.5-0.7,1-1.3,1.5-2
		c0.3,0.9,0.1,1.8,0.1,2.6c0,0.8-0.1,1.5-0.1,2.3c0.1,1.5,0.2,2.9,0.4,4.3C873.4,283.5,874.4,286.1,875.9,289.3z"/>
	<path class="st28" d="M861.5,277.3c-2.2-0.3-4.2-1.8-5.5-3.8c-1.3-1.9-2-4.4-1.8-6.8c0.3-2.4,1.3-4.6,2.6-6.3
		c1.3-1.8,2.9-3.2,4.8-4.4c-1.5,4.1-3.6,7.6-3.9,11.1c-0.2,1.7,0.1,3.5,0.7,5.2C859,274,860,275.6,861.5,277.3z"/>
	<path class="st26" d="M902.1,242.8c-1.9-1.5-3.6-3.3-4.6-5.7c-0.5-1.2-0.8-2.6-0.8-3.9c0-1.3,0.2-2.6,0.4-3.7c1-4.7,3-9.2,6.5-12.6
		c-1,4.7-2.2,8.9-3.1,13.3c-0.5,2.2-0.8,4.1-0.4,6.1C900.4,238.3,901.3,240.5,902.1,242.8z"/>
	<path class="st26" d="M875.8,250.7c-1.9-1-3.2-2.9-3.8-4.9c-0.7-2.1-0.7-4.3-0.3-6.4c1-4.2,3.5-7.6,6.8-10c-1.1,4-2.7,7.3-3.3,10.7
		c-0.4,1.7-0.5,3.4-0.5,5.1C874.8,247.1,875.1,248.8,875.8,250.7z"/>
	<path class="st26" d="M947.4,203.1c-2-2.7-2.4-6.1-1.8-9.2c0.6-3.1,2.1-6.2,4.9-8c-0.4,3.3-1,5.9-1.5,8.6
		C948.5,197.2,948.2,199.9,947.4,203.1z"/>
	<path class="st26" d="M775.1,410.9c-3,3.1-7.7,4.2-12,3.7c-4.3-0.5-8.4-2.6-11.2-5.7c4,1.4,7.7,2.7,11.5,3.1
		C767.3,412.5,771.1,412.2,775.1,410.9z"/>
	<path class="st26" d="M781.1,405.2c-2,0.9-4.1,0.5-5.9-0.3c-1.8-0.9-3.4-2.4-3.9-4.5c2,0.6,3.5,1.4,5,2.1
		C777.8,403.4,779.3,404,781.1,405.2z"/>
	<path class="st26" d="M738.6,407.2c-2.8,2.5-6.7,3.5-10.5,3.1c-3.7-0.4-7.6-2.3-9.3-5.8c3.5,1.3,6.5,2,9.6,2.3
		C731.6,407.2,734.8,407,738.6,407.2z"/>
	<path class="st26" d="M729.2,393.6c-1.4,2-3.7,2.6-5.8,2.4c-2.1-0.3-4.3-1.4-5.2-3.6c2.3-0.2,3.9-0.1,5.6,0.1
		C725.4,392.7,727,392.9,729.2,393.6z"/>
	<path class="st26" d="M760.3,400.3c-3,2.1-6.5,3.3-10.4,3.2c-1.9-0.1-3.9-0.6-5.5-1.6c-1.6-0.9-3-2.2-4.1-3.7
		c1.9,0.2,3.6,0.8,5.1,1.1c1.6,0.4,3.1,0.6,4.6,0.6C753.3,400.2,756.6,399.8,760.3,400.3z"/>
	<path class="st26" d="M783,389.2c-1.6,1.3-3,2.4-4.6,3.4c-1.6,1-3.5,1.9-5.7,2.3c-2.2,0.3-4.5-0.2-6.3-1.2c-1.8-1-3.4-2.4-4.3-4.2
		c3.7,1.3,7.1,2.4,10.1,1.9c1.6-0.2,3.2-0.7,5-1.3C779,389.6,781,389.1,783,389.2z"/>
	<path class="st26" d="M747.9,388.4c-1.4,1.3-2.9,2.2-4.6,2.9c-1.7,0.7-3.7,1-5.7,0.6c-2-0.4-3.9-1.4-5.2-2.9
		c-1.3-1.4-2.1-3.1-2.5-4.9c3.1,2.1,5.5,4,8.3,4.4C740.9,389,744.2,388.3,747.9,388.4z"/>
	<path class="st26" d="M774.9,373.8c-1.7,2.1-3.7,3.9-6.1,5.3c-2.4,1.4-5.3,2.3-8.3,2.1c-3.1-0.2-5.9-1.9-7.7-4.1
		c-1.8-2.2-2.9-4.7-3.5-7.4c1.9,1.9,3.5,3.9,5.4,5.4c1.9,1.5,3.9,2.4,6.1,2.6c2.2,0.2,4.5-0.3,6.8-1
		C770.1,375.8,772.4,374.7,774.9,373.8z"/>
	<path class="st26" d="M765.7,358.1c-1.7,1.5-3.6,2.7-5.9,3.5c-2.2,0.8-4.8,1-7.3,0.2c-4.9-1.6-8-6-8.7-10.5
		c1.6,1.6,3.1,3.1,4.7,4.4c1.6,1.2,3.3,2.2,5,2.7c1.7,0.6,3.6,0.6,5.6,0.5C761.3,358.7,763.4,358.2,765.7,358.1z"/>
	<path class="st26" d="M787.5,348.9c-3.5,3-8.3,4.6-13.2,3.8c-2.4-0.4-4.9-1.6-6.5-3.6c-0.8-1-1.4-2.2-1.6-3.4
		c-0.2-1.2-0.2-2.2-0.4-3.4c0.9,0.7,1.4,1.9,2,2.8c0.5,0.9,1.2,1.5,1.9,2.1c1.5,1.1,3.2,1.8,5.2,2.1
		C778.9,350,783,349.4,787.5,348.9z"/>
	<path class="st26" d="M758.8,336.7c-1.8,3.2-5,5.3-8.4,6.3c-3.4,1-7.3,1-10.5-0.8c3.5-1,6.5-1.6,9.5-2.5
		C752.4,338.8,755.3,337.7,758.8,336.7z"/>
	<path class="st26" d="M781.3,332.5c-2,1.6-4.4,2.9-7.3,3c-2.9,0.2-5.7-1-7.9-2.7c-2.2-1.8-3.7-4.3-4.4-7c-0.7-2.6-0.6-5.4,0.3-7.8
		c1.1,5,2.9,9.4,6.3,12.1c1.6,1.4,3.6,2.3,5.8,2.7C776.3,333.1,778.8,332.8,781.3,332.5z"/>
	<path class="st26" d="M793.4,328.3c-1.7,0.3-3.6-0.6-4.9-1.8c-1.3-1.3-2.1-2.8-2.8-4.3c-0.6-1.5-1.1-3.2-1.2-4.9
		c-0.1-1.7,0.3-3.6,1.4-4.9c0.3,1.7,0.8,3.1,1.3,4.4c0.5,1.3,1.1,2.7,1.7,4.1c0.6,1.4,1.1,2.7,1.7,4
		C791.3,326.1,792.1,327.2,793.4,328.3z"/>
	<path class="st26" d="M780,308.1c-1.5,0.8-3.1,1.2-4.7,1.3c-1.7,0.1-3.4-0.2-5.1-1c-1.6-0.8-3.1-2.2-3.8-4
		c-0.7-1.7-0.5-3.9,0.7-5.1c0.2,1.7,0.9,2.8,1.7,3.8c0.8,0.9,1.8,1.6,2.9,2.1c1.1,0.6,2.4,1,3.8,1.4
		C776.9,307.1,778.4,307.4,780,308.1z"/>
	<path class="st26" d="M798.6,307.5c-1.5,1-3.5,1.3-5.5,0.6c-1-0.3-1.9-1.1-2.6-2c-0.6-0.9-0.9-1.9-1.2-2.8
		c-0.3-1.8-0.5-3.4-0.4-5.2c0.1-1.8,0.7-3.7,2.1-5c0,1.8,0.3,3.3,0.7,4.8c0.4,1.5,0.7,3.1,1.1,4.6c0.3,1.5,0.6,2.4,1.6,3.2
		C795.4,306.5,796.9,307.1,798.6,307.5z"/>
	<path class="st26" d="M789.2,287.7c-2.4,1.8-5.5,2-8.2,1.2c-2.7-0.8-5.3-2.6-6.3-5.4c2.9,0.7,5,1.4,7.3,2
		C784.3,286.2,786.5,286.7,789.2,287.7z"/>
	<path class="st26" d="M801.6,286.7c-3.2-1.1-5.4-4-6.5-7.2c-1-3.1-1-6.8,1-9.6c0.9,3.2,1.5,5.8,2.4,8.5
		C799.3,281.2,800.4,283.6,801.6,286.7z"/>
	<path class="st26" d="M794.4,261.8c-0.5,0.9-1.6,1.2-2.5,1.2c-1,0-1.8-0.4-2.6-1c-1.4-1.2-2-3-1.2-4.9c1.8,0.8,2.7,1.6,3.5,2.2
		c0.3,0.3,0.7,0.6,1.1,1.1C793.1,260.8,793.6,261.2,794.4,261.8z"/>
	<path class="st26" d="M808.1,267.6c-2,0.4-4.1-0.6-5.5-2.1c-1.5-1.5-2.3-3.6-2.6-5.6c-0.2-2,0-4,0.5-5.8c0.2-0.9,0.5-1.8,0.9-2.7
		c0.4-0.9,1.1-1.9,2.1-2.2c-0.5,0.9-0.4,1.7-0.4,2.5c0,0.8,0.1,1.8,0.1,2.7c0.1,1.8,0.1,3.5,0.3,5c0.2,1.6,0.6,3,1.3,4.4
		C805.5,265.3,806.4,266.5,808.1,267.6z"/>
	<path class="st26" d="M815.6,249.6c-1.6,0.1-3.1-0.9-4.2-2c-1.1-1.2-1.8-2.6-2.2-4.2c-0.7-3-0.1-6.6,2.3-8.6
		c0.2,3.1,0.5,5.4,1.1,7.8c0.2,1.2,0.7,2.3,1.1,3.5C814.1,247.2,814.6,248.3,815.6,249.6z"/>
	<path class="st29" d="M1045.4,154.4c-2.4,0.5-4.5,0.8-6.6,1.2c-2.1,0.3-4.1,0.6-6.1,1c-4.1,0.8-7.7,1.2-11.6,2
		c-7.5,1.2-14.7,2.4-21.8,3.3c-14.2,1.8-27.9,2.8-41.8,3.2c-13.8,0.5-27.5,0.3-41.6-0.5c-3.6-0.3-7-0.4-10.7-0.7
		c-3.7-0.4-7.2-0.5-11-0.8c-3.9-0.5-7.5-0.5-11.6-0.9c-2.1-0.2-4-0.3-6.1-0.3c-2.2-0.2-4.3-0.2-6.7-0.4c3.5-8.4,9.6-15.5,16.2-21.1
		c1.7-1.4,3.4-2.7,5.2-4.1c1.8-1.4,3.6-2.3,5.4-3.5c3.6-2.3,7.4-4.4,11.3-6c15.4-7,31.8-10.3,48.1-10.8c16.3-0.4,32.7,1.9,48.4,7.7
		c3.9,1.3,7.8,3.1,11.6,5.1c3.8,1.8,7.5,4.2,11,6.6C1034.2,140.3,1040.9,146.5,1045.4,154.4z"/>
	<path class="st30" d="M973.8,155.7c-11,8-21.3,13.1-31.4,17.9c-10.1,4.7-20,8.6-30.1,12.2c-10.1,3.5-20.3,6.6-31.1,9.2
		c-10.9,2.5-22.2,4.9-35.8,5.3c5.2-12.6,13.7-22,23.3-29.9c9.6-7.8,20.6-13.7,32.1-17.7c11.6-4,23.8-6.2,36.2-6
		C949.4,147,961.9,149,973.8,155.7z"/>
	<path class="st30" d="M894.2,188.4c-6.2,8.4-11.8,14.5-17,20.6c-5.3,6-10.3,11.5-15.3,17c-5.1,5.5-9.7,10.7-16.1,17.1
		c-3.2,3.1-6.7,6.3-10.8,9c-4.1,2.7-8.8,5-14,5.7c2.2-10.1,3.3-17.8,6.1-26.3c2.5-8.3,7.6-17.4,14.2-24.5
		c6.6-7.2,14.8-12.8,23.9-16.3C874.2,187.2,884.1,185.7,894.2,188.4z"/>
	<path class="st30" d="M813,271.4c4.7,4.3,8.1,8.9,11,13.9c2.9,5,5,10.6,6.2,16.6c0.6,3,0.9,6.2,1,9.4c0,3.2-0.3,6.5-0.8,9.5
		c-1,6.1-2.6,11.3-4.1,15.9l-4.1,11.8c-1.2,3.6-2.3,7.7-3.5,12.1c-1.2,4.4-2.3,9.2-3.8,14.4c-1.5,5.1-3.1,10.6-5.9,16.3
		c-9.1-8.6-14.7-18.2-17.9-29.7c-1.5-5.7-2.2-11.9-1.8-18.3c0.4-6.5,2-12.6,3.7-17.6c1.7-5.1,3.6-9.4,5.2-13.1
		c1.6-3.7,3-6.9,4.4-11.2C805.7,293.2,807.7,282.8,813,271.4z"/>
	<path class="st30" d="M807.9,287.3c2.1,7.9,3.9,15.9,5.5,23.9c1.7,8,3.2,16,4.6,24.1c1.4,8,2.8,16.2,3.1,24.5
		c0.1,4.1,0.1,8.3-0.4,12.4c-0.6,4.1-1.4,8.2-2.9,12c0.7-4,1.2-8.1,1.2-12.1c0.1-4-0.1-8.1-0.6-12.1c-0.9-8-2.4-16-3.8-24
		c-1.4-8.1-2.7-16.1-3.8-24.2C809.7,303.6,808.6,295.5,807.9,287.3z"/>
	<path class="st30" d="M815.5,267c9.1,7,15.4,17.5,18.6,28.6c3.1,11.2,3,23.4-1.2,34.1c1.4-11.3,0.8-22.5-2.2-33.2
		C827.8,285.9,822.6,276,815.5,267z"/>
	<path class="st31" d="M816.3,282.5c6.1,8.7,10.1,19,12.3,29.5c2.1,10.5,2.4,21.5,0.1,31.9c-0.5-10.6-1.5-21-3.6-31.2
		C823.2,302.4,820,292.5,816.3,282.5z"/>
	
		<linearGradient id="SVGID_23_" gradientUnits="userSpaceOnUse" x1="401.1289" y1="434.9351" x2="583.3339" y2="434.9351" gradientTransform="matrix(-0.7749 0.6321 -0.6321 -0.7749 1598.5366 169.6086)">
		<stop  offset="0" style="stop-color:#E4A244"/>
		<stop  offset="1" style="stop-color:#DCC456;stop-opacity:0.2"/>
	</linearGradient>
	<path class="st32" d="M1031,146.1c-19.5-1.4-34.9-2.6-49.8-2.5c-14.8,0-28.4,0.7-41.8,2.3c-13.4,1.7-26.8,4.3-41.1,7.9
		c-14.5,3.5-29.2,8.4-47.8,14.4c2.8-19.5,14.5-36,29.3-48.4c15-12.3,33.8-20.2,53.6-22.6c19.7-2.4,39.9,0.8,57.4,9.1
		C1008.2,114.7,1023.5,127.8,1031,146.1z"/>
	
		<linearGradient id="SVGID_24_" gradientUnits="userSpaceOnUse" x1="490.0258" y1="445.2433" x2="637.0384" y2="445.2433" gradientTransform="matrix(-0.7749 0.6321 -0.6321 -0.7749 1598.5366 169.6086)">
		<stop  offset="0" style="stop-color:#E57D28;stop-opacity:0.7"/>
		<stop  offset="0.7575" style="stop-color:#DEB24A;stop-opacity:0.3212"/>
		<stop  offset="1" style="stop-color:#DCC456;stop-opacity:0.2"/>
	</linearGradient>
	<path class="st33" d="M944.4,161c-9.3,12.4-18.7,20.1-28.1,27.1c-9.4,6.8-19,12-29,16.3c-10,4.3-20.4,7.5-31.8,9.6
		c-11.6,1.9-23.7,3.3-39.1,1.4c3.8-15.2,11.6-26,20.5-35.3c9-9.1,19.7-16.1,31.2-20.9c11.5-4.8,23.9-7.7,36.7-7.9
		C917.7,151.3,930.9,153.2,944.4,161z"/>
	
		<linearGradient id="SVGID_25_" gradientUnits="userSpaceOnUse" x1="655.2856" y1="359.6644" x2="763.6066" y2="359.6644" gradientTransform="matrix(-0.7749 0.6321 -0.6321 -0.7749 1598.5366 169.6086)">
		<stop  offset="0" style="stop-color:#E4A244"/>
		<stop  offset="1" style="stop-color:#DCC456;stop-opacity:0.2"/>
	</linearGradient>
	<path class="st34" d="M813.5,279.7c12.8,7.4,20.7,16.4,27,26.4c6.1,10,9.9,21.3,11.2,33.3c1.2,12-0.1,24.6-5.1,36.4
		c-5.1,11.6-13.1,22.9-26.9,28.8c-5.6-13.7-8.8-23.4-11.6-32.9c-2.7-9.4-4.4-18.1-5.3-27.3c-0.9-9.2-1.1-18.9,0.2-29.5
		C804.5,304.2,806.6,292.7,813.5,279.7z"/>
	<path class="st35" d="M1024.1,312c7.6,6.8,14.2,14.1,19.9,22.6c5.7,8.5,9.8,18.4,12.1,28.3c0.6,2.5,1.1,5,1.5,7.5
		c0.4,2.7,0.7,5.5,0.8,8c0.2,5.2-0.1,10.3-0.7,15.3c-0.7,5-1.7,10.1-3.3,15c-1.7,4.8-3.8,9.9-7.8,13.3c1.2-4.9,1.1-9.6,0.9-14.4
		c-0.2-4.8-0.5-9.5-0.9-14.2c-0.4-4.7-0.9-9.4-1.5-13.9c-0.3-2.3-0.6-4.4-1.1-6.5c-0.5-2.3-1-4.6-1.6-6.9
		c-2.1-9.1-4.7-17.7-8.2-26.5C1030.8,330.9,1026.7,321.8,1024.1,312z"/>
	<path class="st35" d="M1017.2,318.2c4.5,4.7,7.7,9.9,10.3,15.3c2.6,5.4,4.5,11.2,5.6,17.2c1.1,6,1.5,12.2,0.7,18.4
		c-0.8,6.2-2.6,12.4-6.5,17.7c-2-6.2-3.2-11.7-4.5-17.2c-1.3-5.5-2.5-10.8-3.5-16.3c-1-5.5-1.9-11-2.5-16.8
		C1016.4,330.6,1016.2,324.7,1017.2,318.2z"/>
	<g>
		
			<ellipse transform="matrix(0.2924 -0.9563 0.9563 0.2924 521.9374 1274.375)" class="st36" cx="1122.1" cy="284.5" rx="10.5" ry="17.6"/>
		<path class="st8" d="M1106.8,275c1.4-1.1,3.1-2,5.3-2.5c4-1,8.8-0.7,13.5,0.7c4.7,1.4,8.8,3.9,11.6,7c2.9,3.2,4,6.7,3,9.9
			c-1,3.2-3.8,5.5-8,6.5c-4,1-8.8,0.7-13.5-0.7l0,0c-10.1-3.1-16.5-10.5-14.6-16.9C1104.5,277.4,1105.5,276.1,1106.8,275z
			 M1135.7,292c1-0.8,1.6-1.7,1.9-2.8c0.7-2.2-0.2-4.8-2.5-7.4c-2.4-2.7-6.1-4.9-10.4-6.2c-4.3-1.3-8.5-1.5-12.1-0.7
			c-3.3,0.8-5.5,2.5-6.2,4.7c-1.5,4.8,4.4,11,12.8,13.6l0,0c4.3,1.3,8.5,1.5,12.1,0.7C1133.2,293.5,1134.6,292.9,1135.7,292z"/>
	</g>
	
		<ellipse transform="matrix(0.4067 -0.9135 0.9135 0.4067 407.2856 1197.9531)" class="st37" cx="1126" cy="285.4" rx="7.9" ry="6.3"/>
	<circle class="st38" cx="1124.8" cy="282.3" r="1.8"/>
	<path class="st35" d="M1030.4,148.1c-7-3.2-13.2-6.6-19.4-9.9c-6.1-3.3-12.1-6.4-18.2-9.5c-6.1-3.1-12.1-6.1-18.4-9.1
		c-6.2-3.1-12.6-6.1-19.4-9.9c7.5-2,15.2-1.8,22.7-0.6c7.5,1.3,14.7,3.7,21.5,7.2c6.7,3.4,13,7.9,18.4,13.2
		C1022.9,134.7,1027.5,140.9,1030.4,148.1z"/>
	<path class="st35" d="M1014.8,137.7c-9.8-0.8-19-2.9-28-4.4c-9-1.6-17.6-2.8-26.1-2.9c-8.5-0.1-17.1,0.9-25.7,2.7
		c-8.6,1.9-17.2,4.7-26.3,8.3c5.5-8.2,13.6-14.5,22.7-18.7c9.1-4.2,19.3-6.5,29.5-6.3c10.3,0.1,20.2,2.7,29.1,6.4
		C999,126.6,1007.2,131.5,1014.8,137.7z"/>
	<path class="st35" d="M811.7,302.7c6.8,4.2,12.1,10.2,16.4,16.8c4.2,6.6,7.4,14,9.3,21.6c1.9,7.6,2.7,15.6,2,23.4
		c-0.7,7.8-2.5,15.6-6.5,22.5c-1.8-7.8-3-14.9-4.5-21.9c-1.4-7-2.9-13.8-4.6-20.6c-1.7-6.8-3.6-13.5-5.7-20.3
		C816.1,317.3,813.8,310.4,811.7,302.7z"/>
	<path class="st39" d="M1192.5,248c-7.1-7.4-12.6-16.2-17.7-25c-5.1-8.8-9.7-17.7-15-26.1c-5.2-8.4-11.2-16.1-18.3-22.8
		c-7.1-6.6-15.5-12-25.4-14.8c10.3-0.1,20.6,4.3,28.9,10.6c8.4,6.3,15.2,14.5,20.8,23.3c5.4,8.8,9.8,18.1,13.9,27.3
		C1183.8,229.8,1187.8,238.9,1192.5,248z"/>
</g>
<path class="st40" d="M1162.8,954.4c74.1-104.3-28.6-274-102.4-253.6c-115.5,32-68.9-102.2-156.9-156.9
	C773.1,463,596,716.7,442.6,754.5c-142.7,35.1-157.9-160.5-257.1-112.2c-206.7,100.8-75.9,452.1-75.9,452.1l933.8,5.8
	C1043.4,1100.2,1143.5,981.6,1162.8,954.4z"/>
<path class="st41" d="M840.1,699c-162.8,185.1-220.9,91.1-317.9,32c-261.7-159.5-360.8,331.3-361.3,348.6
	c156.3,4.6,882.4,20.5,882.4,20.5s67.4-136.5,82.1-207.8C1198.6,536.5,930.4,596.4,840.1,699z"/>
<rect x="-191.9" y="-11" class="st42" width="1498" height="1134.7"/>
<g>
	
		<linearGradient id="SVGID_26_" gradientUnits="userSpaceOnUse" x1="866.9138" y1="205.7378" x2="918.7183" y2="205.7378" gradientTransform="matrix(1 0 0 -1 0 1314)">
		<stop  offset="0" style="stop-color:#322336"/>
		<stop  offset="7.863051e-02" style="stop-color:#3E273B"/>
		<stop  offset="0.3134" style="stop-color:#5C3347"/>
		<stop  offset="0.5441" style="stop-color:#723B50"/>
		<stop  offset="0.7667" style="stop-color:#7F3F55"/>
		<stop  offset="0.9721" style="stop-color:#834157"/>
	</linearGradient>
	<path class="st43" d="M896,1101.7l3.2,2.1l2.4,1.7l4.7,3.4l0.3,0.2l0.2,0.2l0.4,0.3l0.8,0.7l1.6,1.3c0.3,0.2,0.6,0.5,0.8,0.6
		l0.6,0.6c0.4,0.4,0.9,0.8,1.2,1.1l1,1c0.3,0.3,0.5,0.6,0.8,0.9c0.5,0.6,0.9,1.1,1.2,1.6c0.5,0.9,0.7,1.6,0.4,2.2
		c-0.2,0.5-0.9,0.9-1.9,1c-0.3,0-0.5,0.1-0.9,0.1c-0.3,0-0.7,0-1.1-0.1c-0.4,0-0.7,0-1.2-0.1l-1.4-0.2c-0.4-0.1-1-0.2-1.6-0.3
		c-0.6-0.1-1.1-0.2-1.8-0.4l-2-0.5l-1-0.3l-0.5-0.1c-0.2,0-0.3-0.1-0.6-0.2l-5.5-1.8l-2.8-0.9l-3.6-1.3l-3.2-2.1l-2.4-1.7l-4.7-3.4
		c-0.2-0.2-0.3-0.2-0.5-0.4l-0.4-0.3l-0.8-0.7l-1.7-1.3c-0.6-0.5-1-0.8-1.4-1.2c-0.4-0.4-0.9-0.8-1.2-1.1l-1-1
		c-0.3-0.3-0.5-0.6-0.8-0.9c-0.2-0.3-0.5-0.6-0.7-0.8c-0.2-0.3-0.3-0.5-0.5-0.7c-0.5-0.9-0.6-1.6-0.4-2.1c0.3-0.5,0.9-0.8,2-0.9
		c0.5-0.1,1.2-0.1,1.9,0c0.4,0,0.7,0,1.2,0.1l1.4,0.2c0.4,0.1,1,0.2,1.6,0.3l0.8,0.2c0.3,0,0.7,0.2,1,0.2l2,0.5l1,0.3l0.5,0.1
		l0.3,0.1l0.3,0.1l5.5,1.8l2.8,0.9L896,1101.7z"/>
</g>
<g>
	
		<linearGradient id="SVGID_27_" gradientUnits="userSpaceOnUse" x1="550.5317" y1="201.7295" x2="589.991" y2="201.7295" gradientTransform="matrix(1 0 0 -1 0 1314)">
		<stop  offset="0" style="stop-color:#322336"/>
		<stop  offset="0.3717" style="stop-color:#573145"/>
		<stop  offset="0.7583" style="stop-color:#773C52"/>
		<stop  offset="0.9721" style="stop-color:#834157"/>
	</linearGradient>
	<path class="st44" d="M571.8,1110.1l2.6,2l2,1.5l3.9,3l2.8,2.3c0.5,0.4,0.8,0.7,1.2,1c0.3,0.3,0.8,0.7,1,0.9l0.9,0.8
		c0.3,0.3,0.5,0.4,0.7,0.7c0.5,0.5,0.8,0.8,1,1.1c0.5,0.6,0.7,1,0.6,1.2c-0.1,0.2-0.6,0.2-1.3,0c-0.2-0.1-0.4-0.1-0.6-0.2
		c-0.2-0.1-0.5-0.2-0.8-0.3l-0.9-0.4l-1.1-0.5c-0.3-0.2-0.8-0.4-1.2-0.6s-0.8-0.4-1.4-0.7l-3.2-1.8l-4.3-2.5l-2.2-1.3l-2.8-1.7
		l-2.6-2l-2-1.6l-3.9-3.1l-2.8-2.3c-0.5-0.4-0.8-0.7-1.2-1s-0.7-0.6-1-0.9l-0.9-0.8l-0.7-0.7c-0.2-0.2-0.5-0.4-0.6-0.6
		c-0.2-0.2-0.3-0.4-0.4-0.5c-0.5-0.6-0.7-1-0.5-1.2c0.1-0.2,0.6-0.1,1.3,0.1c0.4,0.1,0.8,0.3,1.4,0.6c0.3,0.1,0.5,0.2,0.9,0.4
		l1.1,0.5c0.3,0.1,0.8,0.4,1.2,0.6s0.8,0.4,1.4,0.7l3.2,1.8l4.3,2.5l2.2,1.3L571.8,1110.1z"/>
</g>
<g>
	
		<linearGradient id="SVGID_28_" gradientUnits="userSpaceOnUse" x1="1137.6501" y1="227.7266" x2="1168.6543" y2="227.7266" gradientTransform="matrix(1 0 0 -1 0 1314)">
		<stop  offset="0" style="stop-color:#3C283B"/>
		<stop  offset="0.8534" style="stop-color:#5F3B4E"/>
		<stop  offset="1" style="stop-color:#663E52"/>
	</linearGradient>
	<path class="st45" d="M1161.3,1114.4c-2.4-3.8-4-8-5.6-12c-1.5-4-2.8-8-4.2-11.8c-1.3-3.8-2.7-7.5-4.3-10.9
		c-1.6-3.4-3.3-6.6-5.3-9.6l0.9,1.1c0.4,0.4,0.9,0.8,1.4,1.1c0.6,0.3,1.2,0.6,1.8,0.7c1.2,0.3,2.2,0.1,2.9,0c1.3-0.4,1.7-0.7,2-1
		s0.5-0.4,0.7-0.8c0-0.1,0.1-0.2,0.2-0.3l0.1-0.2c0.1-0.1,0.1-0.2,0.1-0.3c0.1-0.4,0.5-1.1,0.5-2.5l-0.4-2.4c1.3,4,2.2,8.1,2.9,12.1
		c0.7,4.1,1.1,8.1,1.3,12.2c0.2,4.1,0.2,8.1,0,12.1c-0.2,4.1-0.5,8.1-1.3,12.3c-2.3-3.6-4-7.3-5.6-11.1c-1.6-3.7-3-7.5-4.3-11.2
		s-2.5-7.4-3.7-11s-2.4-7.2-3.6-10.7l-0.4-1.1v-1.2c0-1.7,0.5-2.8,0.7-3.5l0.3-0.5l0.2-0.4c0.2-0.3,0.3-0.6,0.5-0.8
		c0.7-0.9,1.3-1.6,2.1-2.3c0.9-0.7,1.9-1.4,3.8-2c1-0.2,2.3-0.4,3.9-0.1c0.7,0.2,1.6,0.5,2.3,0.9c0.7,0.4,1.3,0.9,1.9,1.4l0.5,0.5
		l0.4,0.7c2.7,4,4.7,8.5,6.1,12.9c1.4,4.5,2.2,9,2.5,13.5s0.2,8.8-0.1,13.1C1162.5,1105.7,1162.1,1110,1161.3,1114.4z"/>
</g>
<g>
	<path class="st46" d="M850.4,1088.8c-0.1,2.6-0.7,4.9-1.4,7.2c-0.7,2.3-1.6,4.5-2.6,6.6s-2.2,4.2-3.6,6.1c-1.4,2-2.9,3.8-4.9,5.5
		c0.1-2.6,0.7-4.9,1.4-7.2c0.7-2.3,1.6-4.5,2.6-6.6s2.2-4.2,3.6-6.1C846.9,1092.3,848.4,1090.5,850.4,1088.8z"/>
</g>
<path class="st47" d="M1160.3,1123.7c-22.5-117.2-48.3-207-150.5-238.2c-123.6-37.7-239.8,125-368.7,141.5
	c-78.3,10.1-106.1-47.8-184.7-56.7c-61.6-6.9-127.1,0-184.3-18.8c-53.3-17.4-90-76.5-188,28.5c-22.8,24.4-40.7,82.7-54,143.7H1160.3
	z"/>
<path class="st48" d="M1220.1,1121c-51-40-18-151-145-97c-41.3,17.6-70-66-146-37c-36.9,14.1-53.8,37-87.8,59.1
	c-87.2,56.6-237.4,45.8-308.6-22.1c-25.4-24.3-41.6-54.2-72.5-74.7c-49.4-32.8-133.2-31.2-180.3,3.4c-9.9-22.8-36-39-63.9-27.8
	c-42,17-4.7,99.8-130,104c-60,2-88,61-81,95L1220.1,1121z"/>
<path class="st49" d="M1020.9,1123.7c-10.4-11.5-22.6-21.9-37.3-30.5c-35.8-20.9-90.1-27.9-127-8.1c22.2-35.7-8.7-79.8-54.7-99.5
	s-102.2-20.9-155.4-19.3c-53.2,1.6-107.8,5.2-158.7-6.4c-54.1-12.4-87.2-30.8-104.1-61.4c-16.8-30.5-61-48.2-104.6-41.2
	c-15.8,2.5-29.3,7.2-38,16.1C136.3,937.7,80,1031.8,49.2,1123.7H1020.9z"/>
<path class="st49" d="M1123.1,1123.7c-0.9-0.5-1.8-1.1-2.7-1.6c-24.9-13.8-55.4-10.3-81.9,1.6H1123.1z"/>
<path class="st49" d="M952.8,1123.7c-11.6-14.2-25.6-27-43.2-37.3c-35.8-20.9-90.1-27.9-127-8.1c22.2-35.7-8.7-79.8-54.7-99.5
	S625.7,958,572.4,959.5s-107.8,5.2-158.7-6.4c-54.1-12.4-87.2-30.8-104.1-61.4c-16.8-30.5-96.5-45.7-102.5,51.3
	c-1,15.9-226.8,12-147.6,180.7H952.8z"/>
<g>
	<path class="st50" d="M670.1,1123.7c-6.7-4.9-15.8-3.4-22.6,0H670.1z"/>
	<path class="st50" d="M639,1123.7c-11.7-33.4-58.8-111.7-155.8-63.2c-4.3-29.8-42.5-55.3-85-25.5c-29.8-51-165.8-89.3-233.9,12.8
		c-25.5-21.3-119.1-12.8-131.8,42.5c-2.2-3.9-5.5,8.6-9.6,33.4L639,1123.7L639,1123.7z"/>
	<path class="st48" d="M577.8,1123.7c3-44.2-41.8-83.7-96.7-52.6c-96.5,54.6-107.2,34-144.6-17c-34.9-47.6-114.8-102-199.8,25.5
		c-25.5-21.3-93.5-25.5-106.3,29.8c-1.6-2.7-3.6,2.5-6.1,14.3L577.8,1123.7L577.8,1123.7z"/>
</g>
<g>
	<path class="st48" d="M828.8,1123.7c-23.8-25.6-62.8-44.1-120.4-15.3c-4-28.2-40.2-52.3-80.5-24.1
		c-28.2-48.3-156.9-84.5-221.3,12.1c-22-18.3-97.4-13.3-119.8,27.3H828.8z"/>
</g>
<g>
	<path class="st48" d="M1231.2,1123.7c-24.2-23.1-62.1-37.8-116.5-10.6c-4-28.3-40.5-52.6-80.9-24.3c-28.3-48.5-157.8-85-222.5,12.1
		c-21.2-17.7-92-13.7-117.5,22.8H1231.2z"/>
	<path class="st48" d="M1182.7,1123.7c-16.9-13-42.1-16.3-70.1-0.5c-0.3,0.2-0.6,0.3-0.9,0.5H1182.7z"/>
	<path class="st48" d="M772.3,1123.7c-17.4-7.6-41.8-9.4-61,0H772.3z"/>
</g>
</svg>
