<?xml version="1.0" encoding="utf-8"?>
<!-- Generator: Adobe Illustrator 24.0.2, SVG Export Plug-In . SVG Version: 6.00 Build 0)  -->
<svg version="1.1" id="Layer_1" xmlns="http://www.w3.org/2000/svg" xmlns:xlink="http://www.w3.org/1999/xlink" x="0px" y="0px"
	 viewBox="0 0 513 644" style="enable-background:new 0 0 513 644;" xml:space="preserve">
<style type="text/css">
	.st0{fill:#5D3453;}
	.st1{fill:#192B41;}
	.st2{fill:#0D1220;}
	.st3{fill:#0F2036;}
	.st4{opacity:0.2;fill:none;stroke:url(#SVGID_1_);stroke-width:2;stroke-miterlimit:10;}
	.st5{opacity:0.2;fill:none;stroke:url(#SVGID_2_);stroke-width:2;stroke-miterlimit:10;}
	.st6{opacity:0.2;fill:none;stroke:url(#SVGID_3_);stroke-width:2;stroke-miterlimit:10;}
	.st7{opacity:0.2;fill:none;stroke:url(#SVGID_4_);stroke-width:2;stroke-miterlimit:10;}
	.st8{opacity:0.2;fill:none;stroke:url(#SVGID_5_);stroke-width:2;stroke-miterlimit:10;}
	.st9{opacity:0.2;fill:none;stroke:url(#SVGID_6_);stroke-width:2;stroke-miterlimit:10;}
	.st10{opacity:0.2;fill:none;stroke:url(#SVGID_7_);stroke-width:2;stroke-miterlimit:10;}
	.st11{opacity:0.5;fill:#15122B;}
	.st12{fill:#EE7430;}
	.st13{fill:none;stroke:#0D1220;stroke-width:3.6296;stroke-miterlimit:10;}
	.st14{opacity:0.5;fill:none;stroke:#15122B;stroke-width:2.3095;stroke-miterlimit:10;}
	.st15{opacity:0.5;fill:none;stroke:#15122B;stroke-width:2.7388;stroke-miterlimit:10;}
	.st16{fill:none;stroke:#0D1220;stroke-width:2.4482;stroke-miterlimit:10;}
	.st17{opacity:0.5;}
	.st18{fill:none;stroke:#15122B;stroke-width:2.3095;stroke-miterlimit:10;}
	.st19{fill:none;stroke:#EE7430;stroke-width:3.3411;stroke-miterlimit:10;}
</style>
<g>
	<rect x="350.36" y="120.02" class="st0" width="16.17" height="77.37"/>
	<rect x="348.05" y="115.4" class="st1" width="20.79" height="4.62"/>
	<g>
		<path class="st2" d="M174.95,354.24c1.48,4.69,7.55,6.95,11.07,10.03c3.81,3.33,7.51,6.88,11.54,9.96
			c4.09,3.13,8.45,6.75,13.24,8.8c5.42,2.32,9.6,3.26,13.45,8.06c6.7,8.36,10.51,17.48,19.42,23.95c9.66,7,3.14,16.49,4.05,26.35
			c0.96,10.41,5.39,18.42,4.18,29.27c-1.21,10.91-0.77,22.52-4.97,32.55c-3.38,8.07-8.02,24.09-17.09,28.2
			c-3.4,1.54-2.66-0.77-5.51-0.34c-1.64,0.25-4.42,2.29-6.13,3.06c-4.48,2.03-8.9,2.63-13.86,2.34c-5.8-0.34-9.43-3.09-14.78-4.67
			c-6.96-2.05-8.52-0.94-12.95,3.45c-7.01,6.95-24.17,7.13-26.21,21.05c2.3-3.37,4.27-3.14,7.45-5.13c2.8-1.75,4.96-5.69,8.29-6.58
			c2.72-0.72,6.49,0.21,9.5-0.28c3.41-0.55,6.77-2.47,10.15-2.91c6.96-0.9,11.84,5.42,18.81,5.91c6.95,0.49,13.32-4.92,19.37-4.29
			c-3.03,6.72-11.36,10.3-17.01,14.21c-2.25,1.56-6.99,4.46-8.39,6.81c-1.67,2.78-0.42,4.51-0.59,7.67
			c-0.43,8.08-6.21,13.18-7.76,20.38c-1.04,4.85,1.52,10.48,4.17,14.57c3.92-8.9,1.08-18.43,6.89-27.03
			c1.87-2.77,3.85-4.93,5.55-7.65c1.9-3.03,1.71-3.97,5.11-5.71c5.12-2.61,11.55-2.84,17-4.23c5.99-1.52,10.66-4.57,15.79-7.9
			c3.56-2.31,10.29-10.11,14.2-10.6c4.3-0.54,7.95,6,10.88,7.42c2.17,1.05,4.59,0.78,7.42,1.48c3.03,0.75,4.58,2.52,7.54,3.42
			c3.77,1.14,4.84-0.65,7.8,2.37c1.72,1.76,2.6,4.92,4.29,6.96c3.38,4.09,6.38,9.88,10.48,13.22c-3.17-7.44-6.49-19.08-12.43-24.25
			c-7.55-6.58-15.91-8.86-20.32-18.57c-3.29-7.24-5.57-16.71-4.87-24.62c0.85-9.78,1.08-18.57,7.9-24.9
			c8.24-7.66,10.39-11.55,24.25-12.7c-11.14-4.83-20.84-4.47-29.96,4.05c-1.67-4.91,1.34-8.1,3.43-12.14
			c2.42-4.68,3.07-9.69,4.59-14.68c3.3-10.79,4.24-15.44,0.42-26.21c-1.98-5.59-1.61-9.23-1.16-14.86
			c0.51-6.3-1.19-11.87-1.77-18.07c-0.5-5.28-1.12-11.26-0.61-16.56c0.47-4.84,2.99-8.73,4.92-13.21
			c4.63-10.76,15.61-26.43,9.67-38.76L174.95,354.24z"/>
	</g>
	<path class="st3" d="M257.66,54.18l205.87,256.37l-205.87-0.24l-207.54,0.24L257.66,54.18 M13.68,322.96h243.98l240.51,0.29
		l-241-306.93L13.68,322.96z"/>
	<g>
		<polygon class="st1" points="257.23,59.45 257.23,323.25 470.12,323.25 		"/>
		<polygon class="st0" points="257.23,59.45 257.23,323.25 44.34,323.25 		"/>
		<linearGradient id="SVGID_1_" gradientUnits="userSpaceOnUse" x1="255.168" y1="299.3243" x2="255.168" y2="297.3243">
			<stop  offset="0.514" style="stop-color:#192B41"/>
			<stop  offset="0.5276" style="stop-color:#222C43"/>
			<stop  offset="0.5691" style="stop-color:#382F49"/>
			<stop  offset="0.6181" style="stop-color:#49314E"/>
			<stop  offset="0.6787" style="stop-color:#543351"/>
			<stop  offset="0.7638" style="stop-color:#5B3453"/>
			<stop  offset="1" style="stop-color:#5D3453"/>
		</linearGradient>
		<line class="st4" x1="103.17" y1="298.32" x2="407.17" y2="298.32"/>
		<linearGradient id="SVGID_2_" gradientUnits="userSpaceOnUse" x1="259.168" y1="268.8243" x2="259.168" y2="266.8243">
			<stop  offset="0.514" style="stop-color:#192B41"/>
			<stop  offset="0.5276" style="stop-color:#222C43"/>
			<stop  offset="0.5691" style="stop-color:#382F49"/>
			<stop  offset="0.6181" style="stop-color:#49314E"/>
			<stop  offset="0.6787" style="stop-color:#543351"/>
			<stop  offset="0.7638" style="stop-color:#5B3453"/>
			<stop  offset="1" style="stop-color:#5D3453"/>
		</linearGradient>
		<line class="st5" x1="132.17" y1="267.82" x2="386.17" y2="267.82"/>
		<linearGradient id="SVGID_3_" gradientUnits="userSpaceOnUse" x1="260.668" y1="238.3244" x2="260.668" y2="236.3244">
			<stop  offset="0.514" style="stop-color:#192B41"/>
			<stop  offset="0.5276" style="stop-color:#222C43"/>
			<stop  offset="0.5691" style="stop-color:#382F49"/>
			<stop  offset="0.6181" style="stop-color:#49314E"/>
			<stop  offset="0.6787" style="stop-color:#543351"/>
			<stop  offset="0.7638" style="stop-color:#5B3453"/>
			<stop  offset="1" style="stop-color:#5D3453"/>
		</linearGradient>
		<line class="st6" x1="153.17" y1="237.32" x2="368.17" y2="237.32"/>
		<linearGradient id="SVGID_4_" gradientUnits="userSpaceOnUse" x1="260.168" y1="207.8244" x2="260.168" y2="205.8244">
			<stop  offset="0.514" style="stop-color:#192B41"/>
			<stop  offset="0.5276" style="stop-color:#222C43"/>
			<stop  offset="0.5691" style="stop-color:#382F49"/>
			<stop  offset="0.6181" style="stop-color:#49314E"/>
			<stop  offset="0.6787" style="stop-color:#543351"/>
			<stop  offset="0.7638" style="stop-color:#5B3453"/>
			<stop  offset="1" style="stop-color:#5D3453"/>
		</linearGradient>
		<line class="st7" x1="177.17" y1="206.82" x2="343.17" y2="206.82"/>
		<linearGradient id="SVGID_5_" gradientUnits="userSpaceOnUse" x1="260.668" y1="177.3244" x2="260.668" y2="175.3244">
			<stop  offset="0.514" style="stop-color:#192B41"/>
			<stop  offset="0.5276" style="stop-color:#222C43"/>
			<stop  offset="0.5691" style="stop-color:#382F49"/>
			<stop  offset="0.6181" style="stop-color:#49314E"/>
			<stop  offset="0.6787" style="stop-color:#543351"/>
			<stop  offset="0.7638" style="stop-color:#5B3453"/>
			<stop  offset="1" style="stop-color:#5D3453"/>
		</linearGradient>
		<line class="st8" x1="201.17" y1="176.32" x2="320.17" y2="176.32"/>
		<linearGradient id="SVGID_6_" gradientUnits="userSpaceOnUse" x1="261.168" y1="146.8244" x2="261.168" y2="144.8244">
			<stop  offset="0.514" style="stop-color:#192B41"/>
			<stop  offset="0.5276" style="stop-color:#222C43"/>
			<stop  offset="0.5691" style="stop-color:#382F49"/>
			<stop  offset="0.6181" style="stop-color:#49314E"/>
			<stop  offset="0.6787" style="stop-color:#543351"/>
			<stop  offset="0.7638" style="stop-color:#5B3453"/>
			<stop  offset="1" style="stop-color:#5D3453"/>
		</linearGradient>
		<line class="st9" x1="221.17" y1="145.82" x2="301.17" y2="145.82"/>
		<linearGradient id="SVGID_7_" gradientUnits="userSpaceOnUse" x1="256.668" y1="116.3243" x2="256.668" y2="114.3243">
			<stop  offset="0.514" style="stop-color:#192B41"/>
			<stop  offset="0.5276" style="stop-color:#222C43"/>
			<stop  offset="0.5691" style="stop-color:#382F49"/>
			<stop  offset="0.6181" style="stop-color:#49314E"/>
			<stop  offset="0.6787" style="stop-color:#543351"/>
			<stop  offset="0.7638" style="stop-color:#5B3453"/>
			<stop  offset="1" style="stop-color:#5D3453"/>
		</linearGradient>
		<line class="st10" x1="238.17" y1="115.32" x2="275.17" y2="115.32"/>
	</g>
	<path class="st1" d="M404.63,374.06H105.55c-14.67,0-26.56-11.89-26.56-26.56v0h352.2v0C431.19,362.17,419.3,374.06,404.63,374.06z
		"/>
	<rect x="78.99" y="347.5" class="st2" width="352.2" height="5.77"/>
	<path class="st3" d="M328.42,400.62H186.38c-14.67,0-26.56-11.89-26.56-26.56v0h195.16v0
		C354.98,388.73,343.09,400.62,328.42,400.62z"/>
	<path class="st2" d="M271.64,159.22h-29.88c-4.71,0-8.53-3.82-8.53-8.53l0,0h46.94l0,0C280.17,155.4,276.35,159.22,271.64,159.22z"
		/>
	<path class="st3" d="M271.62,158.22h-29.86c-4.71,0-8.53-3.82-8.53-8.53l0,0h46.93l0,0C280.15,154.4,276.33,158.22,271.62,158.22z"
		/>
	<rect x="159.82" y="374.06" class="st2" width="195.16" height="5.77"/>
	<path class="st11" d="M275.3,324.15h-45.04v-45.93c0-9.89,2.82-20.3,12.7-24.25c5.77-2.31,10.77-2.46,14.43-2.5
		c9.88-0.11,17.9,8.01,17.9,17.9V324.15z"/>
	<path class="st2" d="M256.45,61.82l202.95,258.74H256.45H53.5L256.45,61.82 M256.45,47.24l-9.24,11.78L32.8,332.64l449.2,1.01
		L265.68,59.02L256.45,47.24L256.45,47.24z"/>
	<path class="st11" d="M256.82,104.24l172.14,219.01h40.33L256.82,58.48l0,0L44.34,323.25h40.33L256.82,104.24"/>
	<polygon class="st11" points="192.17,220.32 165.59,248.19 159.82,283.99 210.63,280.53 	"/>
	<polygon class="st11" points="326.17,220.32 299.55,248.19 293.77,283.99 344.58,280.53 	"/>
	<polygon class="st11" points="256.82,98.07 248.74,111.93 232.57,146.57 270.68,143.11 	"/>
	<g>
		<g>
			<g>
				<path class="st2" d="M326.94,223.44c0.58,0,1.17,0.29,1.5,0.88l13.62,24.43c0.14,0.25,0.22,0.54,0.22,0.83v25.34
					c0,0.95-0.77,1.71-1.71,1.71h-27.23c-0.95,0-1.71-0.77-1.71-1.71v-25.34c0-0.29,0.07-0.58,0.22-0.83l13.62-24.43
					C325.78,223.73,326.36,223.44,326.94,223.44 M326.94,219.81c-1.94,0-3.72,1.05-4.67,2.74l-13.62,24.43
					c-0.44,0.79-0.68,1.69-0.68,2.6v25.34c0,2.95,2.4,5.34,5.34,5.34h27.23c2.95,0,5.34-2.4,5.34-5.34v-25.34
					c0-0.91-0.23-1.81-0.68-2.6l-13.62-24.43C330.67,220.86,328.88,219.81,326.94,219.81L326.94,219.81z"/>
			</g>
			<g>
				<polygon class="st12" points="326.94,221.63 311.62,249.14 311.62,276.64 342.27,276.64 342.27,249.14 				"/>
			</g>
			<g>
				<line class="st13" x1="326.94" y1="221.63" x2="326.94" y2="276.64"/>
			</g>
			<line class="st13" x1="311.62" y1="261.17" x2="342.27" y2="261.17"/>
		</g>
		<polyline class="st14" points="326.46,222.5 341.12,249.35 341.12,277.06 		"/>
		<line class="st15" x1="324.95" y1="225.1" x2="324.95" y2="277.06"/>
		<line class="st14" x1="309.94" y1="263.21" x2="343.43" y2="263.21"/>
	</g>
	<g>
		<g>
			<g>
				<path class="st2" d="M191.84,224.01c0.77,0,1.54,0.38,1.96,1.15l13.08,23.46c0.19,0.33,0.28,0.71,0.28,1.1v24.67
					c0,1.24-1.01,2.25-2.25,2.25h-26.16c-1.24,0-2.25-1.01-2.25-2.25v-24.67c0-0.38,0.1-0.76,0.28-1.1l13.08-23.46
					C190.3,224.39,191.07,224.01,191.84,224.01 M191.84,220.38c-2.13,0-4.1,1.16-5.14,3.02l-13.08,23.46
					c-0.49,0.87-0.74,1.86-0.74,2.86v24.67c0,3.24,2.64,5.88,5.88,5.88h26.16c3.24,0,5.88-2.64,5.88-5.88v-24.67
					c0-1-0.26-1.99-0.74-2.86l-13.08-23.46C195.94,221.53,193.97,220.38,191.84,220.38L191.84,220.38z"/>
			</g>
			<g>
				<polygon class="st12" points="191.84,221.63 176.51,249.14 176.51,276.64 207.17,276.64 207.17,249.14 				"/>
			</g>
			<g>
				<line class="st13" x1="191.84" y1="221.63" x2="191.84" y2="276.64"/>
			</g>
			<line class="st13" x1="176.51" y1="261.17" x2="207.17" y2="261.17"/>
		</g>
		<polyline class="st14" points="191.36,222.5 206.01,249.35 206.01,277.06 		"/>
		<line class="st15" x1="189.84" y1="225.1" x2="189.84" y2="277.06"/>
		<line class="st14" x1="174.83" y1="263.21" x2="208.32" y2="263.21"/>
	</g>
	<g>
		<g>
			<g>
				<path class="st2" d="M256.61,105.51l10.96,35.01h-21.91L256.61,105.51 M256.61,97.31l-2.34,7.47l-10.96,35.01l-0.99,3.18h3.33
					h21.91h3.33l-0.99-3.18l-10.96-35.01L256.61,97.31L256.61,97.31z"/>
			</g>
			<g>
				<polygon class="st12" points="256.61,105.51 245.65,140.52 267.56,140.52 				"/>
			</g>
			<g>
				<line class="st16" x1="256.61" y1="105.51" x2="256.61" y2="140.52"/>
			</g>
			<g class="st17">
				<line class="st18" x1="255.45" y1="105.51" x2="255.45" y2="140.52"/>
			</g>
			<line class="st16" x1="247.58" y1="130.68" x2="264.9" y2="130.68"/>
			<line class="st14" x1="247.58" y1="131.56" x2="266.06" y2="131.56"/>
		</g>
	</g>
	<line class="st14" x1="257.18" y1="108.55" x2="267.13" y2="141.16"/>
	<g>
		<g>
			<path class="st12" d="M275.3,324.15h-35.8v-57.18c0-8.56,6.94-15.5,15.5-15.5h4.8c8.56,0,15.5,6.94,15.5,15.5V324.15z"/>
		</g>
		<path class="st1" d="M241.96,268.75c0-9.08,5.2-16.42,15.2-17.42c0,0-0.04,0.14-0.77,0.14c-9.89,0-17.23,4.86-17.9,17.2v52.65
			h3.46V268.75z"/>
		<path class="st11" d="M274.14,269.4c0-9.5-7.32-17.26-16.6-17.93c0.71-0.09,1.43-0.14,2.16-0.14c9.89,0,17.9,8.06,17.9,18v55.09
			h-3.46V269.4z"/>
	</g>
	<path class="st3" d="M472.56,347.5H39.73c-14.67,0-26.56-11.89-26.56-26.56v0h485v0.95C498.17,336.04,486.7,347.5,472.56,347.5z"/>
	<g>
		<g>
			<path class="st19" d="M119,599.41c9.81,0.06,19.63,0.1,29.44,0.13"/>
			<path class="st19" d="M119,570.37c9.81-0.06,19.63-0.1,29.44-0.13"/>
			<path class="st19" d="M119,541.32c9.81,0.03,19.63,0.05,29.44,0.07"/>
			<path class="st19" d="M119,512.28c9.81-0.09,19.63-0.15,29.44-0.2"/>
			<path class="st19" d="M148.04,483.23c0.4,46.42,0.4,92.72,0,139.1"/>
			<path class="st19" d="M118.36,483.23c0.5,46.42,0.5,92.72,0,139.1"/>
		</g>
		<g>
			<path class="st19" d="M119,482.6c9.81,0.09,19.63,0.15,29.44,0.2"/>
			<path class="st19" d="M119,453.55c9.81-0.03,19.63-0.05,29.44-0.07"/>
			<path class="st19" d="M119,424.51c9.81,0.06,19.63,0.1,29.44,0.13"/>
			<path class="st19" d="M119,395.46c9.81-0.06,19.63-0.1,29.44-0.13"/>
			<path class="st19" d="M119,366.42c9.81,0.03,19.63,0.05,29.44,0.07"/>
			<path class="st19" d="M119,337.37c9.81-0.09,19.63-0.15,29.44-0.2"/>
			<line class="st19" x1="148.04" y1="308.32" x2="148.04" y2="511.65"/>
			<line class="st19" x1="118.36" y1="308.32" x2="118.36" y2="511.65"/>
		</g>
	</g>
	<line class="st14" x1="350.36" y1="138.49" x2="366.52" y2="158.12"/>
	<path class="st3" d="M209.48,282.84h-35.8c-2.55,0-4.62-2.07-4.62-4.62l0,0h45.04l0,0C214.1,280.77,212.03,282.84,209.48,282.84z"
		/>
	<path class="st3" d="M344.58,282.84h-35.8c-2.55,0-4.62-2.07-4.62-4.62l0,0h45.04l0,0C349.2,280.77,347.13,282.84,344.58,282.84z"
		/>
	<path class="st2" d="M293.32,150.69h-72.9c-4.71,0-8.53-3.82-8.53-8.53v0h89.96v0C301.86,146.87,298.04,150.69,293.32,150.69z"/>
	<path class="st1" d="M293.32,149.69h-72.9c-4.71,0-8.53-3.82-8.53-8.53v0h89.96v0C301.86,145.87,298.04,149.69,293.32,149.69z"/>
</g>
</svg>
