<?xml version="1.0" encoding="utf-8"?>
<!-- Generator: Adobe Illustrator 24.0.2, SVG Export Plug-In . SVG Version: 6.00 Build 0)  -->
<svg version="1.1" id="Layer_1" xmlns="http://www.w3.org/2000/svg" xmlns:xlink="http://www.w3.org/1999/xlink" x="0px" y="0px"
	 viewBox="0 0 313 364" style="enable-background:new 0 0 313 364;" xml:space="preserve">
<style type="text/css">
	.st0{fill:url(#SVGID_1_);}
	.st1{fill:url(#SVGID_2_);}
	.st2{fill:url(#SVGID_3_);}
	.st3{fill:url(#SVGID_4_);}
	.st4{fill:url(#SVGID_5_);}
	.st5{fill:#462211;}
	.st6{fill:#F3DD16;}
	.st7{fill:url(#SVGID_6_);}
	.st8{fill:url(#SVGID_7_);}
	.st9{fill:url(#SVGID_8_);}
	.st10{fill:url(#SVGID_9_);}
	.st11{fill:#E2DDC3;}
	.st12{opacity:0.2;fill:url(#SVGID_10_);}
	.st13{fill:none;stroke:#000000;stroke-miterlimit:10;}
	.st14{fill:url(#SVGID_11_);}
	.st15{fill:url(#SVGID_12_);}
	.st16{fill:url(#SVGID_13_);}
	.st17{fill:#E44A26;}
	.st18{opacity:0.1;}
	.st19{fill:#FFFFFF;}
</style>
<g>
	<linearGradient id="SVGID_1_" gradientUnits="userSpaceOnUse" x1="155.846" y1="215.3059" x2="303.6467" y2="215.3059">
		<stop  offset="0" style="stop-color:#F6FBD4"/>
		<stop  offset="1" style="stop-color:#EAE3D5"/>
	</linearGradient>
	<path class="st0" d="M285.1,126.7c15.2,22.3,26.9,61.3,10.7,91.3c-16.1,30.1-86,91.3-91.9,111.8c1.6-42.4-12.4-91.9-14-101.5
		c-1.6-9.7,11.3-33.3,1.6-57.5c-9.7-24.2-26.3-26.3-34.4-27.9c-8.1-1.6,19.3-38.7,55.9-41.4S270.1,104.7,285.1,126.7z"/>
	<linearGradient id="SVGID_2_" gradientUnits="userSpaceOnUse" x1="214.2544" y1="108.7098" x2="286.9894" y2="129.8857">
		<stop  offset="0" style="stop-color:#E95A2A"/>
		<stop  offset="1" style="stop-color:#E44A26"/>
	</linearGradient>
	<path class="st1" d="M210.8,115.8c7-4,16-3,19,1c-1-4-3.9-8,1-4c6,5,8.4,10.4,8,6c-1-10,7,4,10,7c-3-18,9,7,9,5c0-16,12,2,12,0
		c-1-7-3-14,0-10s10,18,9,14s-2-13,2-8c4,5,9,6,4-1c0,0-12-11-31-15s-34-2-38,0S210.8,115.8,210.8,115.8z"/>
	<linearGradient id="SVGID_3_" gradientUnits="userSpaceOnUse" x1="204.5855" y1="152.6008" x2="204.5855" y2="9.8347">
		<stop  offset="0" style="stop-color:#E44A26"/>
		<stop  offset="0.2285" style="stop-color:#E85529"/>
		<stop  offset="0.6323" style="stop-color:#F17330"/>
		<stop  offset="1" style="stop-color:#FB9438"/>
	</linearGradient>
	<path class="st2" d="M286.1,126.7c-14.5-9.7-49.4-22.5-67.7-14.5c-10.7,4.7-10.9,8.3-19.7,14.7c-11,8-22,13-30.3,17
		c-31.2,15.2-61.3,8.1-36-2.7c14-5.4,17.7-10.7,18.8-12.9c0-7-4.3-31.7,4.8-46.7s19.3-22.6,22-29.6c2.7-7,18.8-45.7,23.1-41.9
		c4.3,3.8,10.2,44.6,11.3,47.3c6.4-6.4,49.4-43.5,56.4-39.8s-14,55.3-9.1,68.2C264.6,98.7,286.1,126.7,286.1,126.7z"/>
	<linearGradient id="SVGID_4_" gradientUnits="userSpaceOnUse" x1="100.1303" y1="263.6597" x2="206.0866" y2="263.6597">
		<stop  offset="0" style="stop-color:#FB9438"/>
		<stop  offset="0.3677" style="stop-color:#F17330"/>
		<stop  offset="0.7715" style="stop-color:#E85529"/>
		<stop  offset="1" style="stop-color:#E44A26"/>
	</linearGradient>
	<path class="st3" d="M192.8,173.8c0,1,7,19-3.1,48.6c-3.4,10-10.9,23.2-30.3,25.7c-21.5,2.7-40.6,21.7-46.7,42.4
		c-9.8,33.4-18.3,37.1-7.5,48.4c10.7,11.3,33.3,14,50.5,14.5c17.2,0.5,42.7-2.1,49.1-25.6c5.8-21-9.6-54.3-5-92.6
		C205.8,185.8,192.8,173.8,192.8,173.8z"/>
	<linearGradient id="SVGID_5_" gradientUnits="userSpaceOnUse" x1="7.71" y1="324.3446" x2="124.1812" y2="324.3446">
		<stop  offset="0" style="stop-color:#EC602F"/>
		<stop  offset="0.4089" style="stop-color:#E8552B"/>
		<stop  offset="1" style="stop-color:#E44A26"/>
	</linearGradient>
	<path class="st4" d="M122.3,342.1c-13.5-11.7-24.7-23.6-25.3-32.2c-0.5-8.6-36-34.9-58-4.3S-5,350.2,16.5,353.4
		c21.5,3.2,75.2,5.4,84.4,3.2C110,354.5,130.4,349.1,122.3,342.1z"/>
	<path class="st5" d="M220.7,264.2c-1.1,11.3-7.5,67.2-7.5,72c0,4.8,6.4,19.3,0,19.9c-6.4,0.5-24.6,3.1-16.9-11.6s9.9-6.1,11.5-34.1
		c1.6-27.9,0-48.4,0-48.4l0-3.2l2.4,3.7l0.6-3.7l2,2l1-3l1,4l1-2l1,4l1-5l0.8,2.5l2.2-1.5L220.7,264.2z"/>
	<path class="st5" d="M232.5,273.4c-1.6,5.4-14,76.8-8.6,80.1c5.4,3.2,23.4,4.6,23.1-1.1c-0.5-10.2-15.6-7.5-15.6-14.5
		c0-19.9,15.6-68.8,15.6-68.8l-2.2,1.8l-0.2-1l-1.8,2l-1-3l-2,3l-1-2l-1.6,2.1l-0.4-3.1l-1.5,3.7l-0.5-1.7l-0.9,1.6l-1.1-1.6
		L232.5,273.4z"/>
	<path class="st5" d="M204.5,107.3c-3.2-1.1-10.5-1.5-14.8-1.5c-4.3,0-13,1-13.7,8c-1,9.7,4.4,10.7,8.7,8c4.3-2.7,4.4-4.4,10-8
		C199,111.1,204.5,107.3,204.5,107.3z"/>
	<path class="st6" d="M187.8,117.8c-2.6,2.5-3,4.5-5.6,4.6s-5.3-2.2-4.4-5.7c0.6-2.3,2.9-3.9,7-3.9c2.9,0,4.1,0,6,0
		C192.8,112.9,189.8,115.9,187.8,117.8z"/>
	<ellipse transform="matrix(0.9979 -6.547704e-02 6.547704e-02 0.9979 -7.406 12.0825)" cx="180.6" cy="119" rx="2.2" ry="3.8"/>
	<path class="st5" d="M153,117.6c-1.6-3.2-6.2-15.9,0.7-13.7c7,2.1,8,11,7,15C158.6,127.7,153,117.6,153,117.6z"/>
	<path class="st6" d="M160.8,117.8c0,2-0.7,4.3-2.8,4.4c-2.1,0.1-3.2-2.4-4.2-4.4c-0.8-1.7-1-2-2-5c-0.4-1.3,4.1-0.5,5,0
		C158.8,113.8,160.8,113.8,160.8,117.8z"/>
	<ellipse transform="matrix(0.974 -0.2267 0.2267 0.974 -22.7045 38.3894)" cx="155.8" cy="118" rx="2" ry="3.9"/>
	<path class="st5" d="M162.2,353.6c4.9-4.5,17.1-17.9,21.9-9.3c4.8,8.6,3.2,10.7,1.6,11.3S158,357.5,162.2,353.6z"/>
	<path class="st5" d="M210.8,50.8c-0.4-7.5-6-42-10.5-41c-2.6,0.6-8.1,8.9-11.8,18.5c5.6-6.9,6.3-6.5,6.3-2.5s-2,15,1,10s3,8,4,10
		c1-4,6-9,7-5C207.8,45.8,211.4,62.1,210.8,50.8z"/>
	<path class="st5" d="M219.6,50.9c7.3-8.1,40-35.4,48.1-34.1c6,1,1.4,17.7-0.8,24.3c0.6-4.7,2.8-16.3-0.2-12.3s-1,0,0-4s-2-1-5,1
		s-7.3,6.5-4,1c2-3.3-11,10-9.4,4.1c0.9-3.3-5.6,7.9-6.6,5.9c1-2-1-2-4,2c-1,1.4-7,11-6.3,4.9c0.7-5.5-7.8,7.6-5.7,4.1
		C228.8,42.8,219.6,50.9,219.6,50.9z"/>
	<linearGradient id="SVGID_6_" gradientUnits="userSpaceOnUse" x1="168.802" y1="154.603" x2="168.802" y2="110.1298">
		<stop  offset="0" style="stop-color:#F6FBD4"/>
		<stop  offset="1" style="stop-color:#EAE3D5"/>
	</linearGradient>
	<path class="st7" d="M213.8,114.8c-8,6-10,7-18,13c-11.4,8.5-33.6,19.9-55.2,22.7c-5.7,1.6-20.7-0.1-15.8,2.3c10,5,43-1,61-13
		c17.4-11.6,19.1-13.1,22-17C213.8,114.8,213.8,114.8,213.8,114.8z"/>
	
		<linearGradient id="SVGID_7_" gradientUnits="userSpaceOnUse" x1="234.9471" y1="84.5" x2="234.9471" y2="36.8125" gradientTransform="matrix(0.9869 -0.1616 0.1616 0.9869 11.5268 31.8927)">
		<stop  offset="0.1564" style="stop-color:#ECE7D5"/>
		<stop  offset="0.2481" style="stop-color:#ECE6CA"/>
		<stop  offset="0.4109" style="stop-color:#EEE5AB"/>
		<stop  offset="0.6259" style="stop-color:#EFE27A"/>
		<stop  offset="0.8819" style="stop-color:#F2DF37"/>
		<stop  offset="1" style="stop-color:#F3DD16"/>
	</linearGradient>
	<path class="st8" d="M259.7,28.6c-1.8,2.8-4,7.2-4,7.2s2.9,0.6,11.3-3.8c-6.2,4.7-5.1,7.7-5.7,9.3c4.2-1.1,3.6,0.4,0.3,3.5
		c-3.4,3.1-9.3,7.1-5.8,5.7c3.5-1.4,9.7-1.8-0.4,3.3c3.9-0.4,7,1.6,0.7,4.6c-6.3,3-5.9,4-1.8,2.8c4.2-1.1,0.5,2.8-1.8,2.8
		c3,0.2,1.7,1.5-3.8,2.1c4,1.4,9.8,8.6,2.4,6c0.5,2.8,7.1,7.7,0.7,4.6c-6.4-3.1-15.6-12.4-15.4-21.3
		C236.5,46.4,248.1,31.4,259.7,28.6z"/>
	<linearGradient id="SVGID_8_" gradientUnits="userSpaceOnUse" x1="65.5221" y1="338.6473" x2="107.7986" y2="337.1628">
		<stop  offset="0.1844" style="stop-color:#EEEBD5"/>
		<stop  offset="0.3597" style="stop-color:#EEEACA"/>
		<stop  offset="0.6707" style="stop-color:#EFE7AC"/>
		<stop  offset="1" style="stop-color:#EFE385"/>
	</linearGradient>
	<path class="st9" d="M99.2,316.6c6.2,8.5,14.4,19,21,23.6c6.6,4.6,5.5,7.7-2.5,11.1s-24.6,11.3-61.3,5.4
		c10.7-1.8,21.8-0.4,14.8-3.4s-16-2-18-10c9,5,17.5,5.3,23.7,1.2c-7.5-2.3-13.7-4.2-14.7-7.2c8,0,15,3,21-1c-9-3-8-6-8-8
		c6,2,12,4,16,2c-4-4-5-6-5-9c6,3,12,6,15,6C99.3,323.3,99.2,316.6,99.2,316.6z"/>
	<linearGradient id="SVGID_9_" gradientUnits="userSpaceOnUse" x1="249.3731" y1="212.6642" x2="308.7757" y2="212.6642">
		<stop  offset="0" style="stop-color:#F6FBD4"/>
		<stop  offset="3.206629e-02" style="stop-color:#F4F7D4"/>
		<stop  offset="0.1854" style="stop-color:#EEECD5"/>
		<stop  offset="0.4009" style="stop-color:#EBE5D5"/>
		<stop  offset="1" style="stop-color:#EAE3D5"/>
	</linearGradient>
	<path class="st10" d="M297.5,151.4c11.5,19.9,11.3,20.4,11.3,37.4c-3-9-6.5-7.1-5,3c1.5,10.1,5,10,2,18c-2-7-3.4-8.2-5.2-3.1
		s1.2,6.1-2.8,18.1c0-5-3.9-6.4-4.9-1.7c-1.1,4.7-0.1,6.7-8.1,16.7c1-7-4.2-3.8-7.6,3.6c-3.4,7.4,1.6,6.4-8.4,17.4c1-8-4.3-7-7.1,0
		s-0.9,6-3.9,13c0-4-4.4-4-8.2,0C245.8,277.8,297.5,151.4,297.5,151.4z"/>
	<g>
		<path class="st11" d="M285.5,147.5c2.1,2.3,4.2,4.6,6.2,7c2,2.4,3.9,4.9,5.5,7.8c1.7,2.8,2.6,6.2,3.1,9.4c0.5,3.2,0.7,6.3,1,9.4
			l1.2,12.4l-5.5-11.4c-0.5-1.1-1.1-2.3-1.8-3.1c-0.2-0.2-0.3-0.4-0.4-0.5c-0.1-0.1-0.2-0.2-0.2-0.2c0,0,0,0,0.1,0
			c0.1,0,0.1,0,0.2,0c0.2,0,0.5,0,0.7-0.2c0.4-0.3,0.3-0.4,0.3-0.3c-0.1,0.2-0.2,0.7-0.2,1.2c0,0.6,0,1.2,0,1.8
			c0.1,1.2,0.3,2.5,0.5,3.8c0.2,1.3,0.6,2.5,1,3.8c0.4,1.2,0.9,2.4,1.4,3.8c0.3,0.7,0.5,1.4,0.6,2.2c0.1,0.8,0.2,1.6,0.1,2.3
			c-0.2,1.5-0.6,2.9-1,4.2l-0.8,2.4l-0.8-2.4c-0.4-1.1-0.8-2.1-1.3-3.1c-0.2-0.5-0.5-1-0.8-1.4c-0.1-0.2-0.3-0.4-0.4-0.5
			c-0.1,0-0.1-0.1-0.1-0.1c0,0,0,0,0,0c0,0,0,0-0.1,0c-0.1,0.1-0.1,0.1-0.2,0.2c-0.1,0.2-0.2,0.4-0.3,0.6c-0.2,0.5-0.4,1-0.5,1.5
			c-0.3,1-0.5,2.1-0.4,3.1c0.1,1.1,0.3,2.2,0.4,3.4c0.1,1.2,0.1,2.4,0,3.6c-0.2,2.4-0.6,4.7-1.1,7l-1.7,7.8l-1-8
			c-0.1-0.9-0.5-1.8-0.9-2.2c-0.2-0.2-0.4-0.3-0.5-0.2c0,0,0.1,0,0,0.1c-0.1,0.1-0.2,0.4-0.3,0.8l-0.1,0.6l-0.1,0.8
			c-0.1,1-0.1,2.2-0.3,3.5c-0.4,2.6-1.5,4.9-2.7,7c-1.2,2.1-2.5,4-3.8,5.9l-4.8,6.8l0.4-8.5c0-0.5,0-1.1-0.1-1.4c0-0.1-0.1-0.2,0,0
			c0.1,0.1,0.2,0.2,0.4,0.4c0.2,0.1,0.5,0.2,0.7,0.2c0.4,0,0.4-0.1,0.4,0c-0.1,0-0.2,0.1-0.4,0.3c-0.3,0.3-0.7,0.7-1,1.1
			c-0.7,0.9-1.3,1.9-1.8,3c-0.5,1.1-1,2.2-1.2,3.3c-0.3,1.1-0.3,1.9-0.4,3.6c-0.1,0.9-0.2,1.8-0.6,2.6c-0.3,0.8-0.7,1.6-1,2.3
			c-0.8,1.4-1.6,2.5-2.5,3.7c-0.9,1.1-1.8,2.2-2.7,3.2l-4.8,5.4l0.5-7.1c0.1-0.9,0.1-1.8-0.1-2.4c0-0.1-0.1-0.2-0.1-0.3
			c0,0,0-0.1,0,0c0.1,0,0.2,0.1,0.3,0.1c0.1,0.1,0.2,0,0.1,0c0,0,0,0-0.1,0c0,0-0.1,0.1-0.1,0.1c-0.1,0-0.2,0.2-0.4,0.2
			c-0.3,0.2-0.6,0.5-0.8,0.8c-0.6,0.7-1.1,1.5-1.5,2.4c-0.2,0.4-0.4,0.9-0.6,1.4c-0.2,0.5-0.4,1-0.5,1.5c-0.3,1-0.6,1.9-0.7,2.9
			c-0.1,1.1-0.4,2.4-0.8,3.5c-0.4,1.1-0.8,2.2-1.3,3.2l-2.3,5.2l0-5.6c0-0.7-0.2-1.2-0.5-1.5c-0.4-0.3-1.2-0.4-1.9-0.3
			c-1.5,0.3-3.1,1.3-4.4,2.4l-0.4-0.3c1.1-1.5,2.4-2.8,4.3-3.6c0.9-0.3,2.1-0.5,3.3,0c0.6,0.3,1.1,0.8,1.4,1.3
			c0.2,0.3,0.3,0.6,0.4,0.8c0.1,0.3,0.1,0.6,0.2,0.8l-2.3-0.3c0.3-1,0.6-2.1,0.8-3.1c0.2-1,0.3-1.9,0.3-3.1c0-1.1,0.2-2.4,0.5-3.6
			c0.3-1.2,0.5-2.2,1-3.4c0.4-1.2,1-2.3,1.7-3.4c0.4-0.6,0.8-1.1,1.4-1.6c0.3-0.3,0.6-0.5,1-0.7c0.2-0.1,0.4-0.2,0.6-0.3
			c0.2-0.1,0.5-0.2,0.7-0.2c0.5-0.2,1.1-0.2,1.7-0.1c0.7,0.1,1.3,0.4,1.8,0.8c0.6,0.4,0.8,0.8,1.1,1.2c0.2,0.4,0.4,0.8,0.6,1.2
			c0.5,1.6,0.5,2.9,0.5,4.2l-4.3-1.7c1.6-2.1,3.3-4.2,4.4-6.2c0.3-0.5,0.5-1,0.6-1.4c0.2-0.4,0.2-0.8,0.2-1.3c0-1,0-2.9,0.5-4.5
			c0.4-1.6,1-3,1.7-4.3c0.7-1.4,1.5-2.6,2.5-3.9c0.5-0.6,1.1-1.2,1.8-1.8c0.4-0.3,0.8-0.6,1.3-0.9c0.5-0.3,1.2-0.6,2.3-0.5
			c0.5,0,1.1,0.2,1.6,0.5c0.5,0.3,0.9,0.7,1.1,1.1c0.5,0.7,0.6,1.4,0.7,1.9c0.2,1.1,0.1,1.9,0,2.7l-4.4-1.6c1.3-1.7,2.7-3.5,3.8-5.3
			c1.1-1.8,2.1-3.6,2.5-5.4c0.2-0.9,0.3-2,0.5-3.2l0.2-0.9c0.1-0.3,0.2-0.7,0.3-1.1c0.3-0.7,0.6-1.5,1.3-2.2c0.7-0.7,1.9-1.2,3-0.9
			c1.1,0.2,1.8,0.9,2.3,1.5c1,1.3,1.3,2.7,1.3,4l-2.7-0.3c0.7-2.1,1.3-4.3,1.7-6.5c0.1-1.1,0.3-2.2,0.2-3.3c0-1.1-0.2-2.2-0.2-3.4
			c-0.1-1.2,0.1-2.5,0.5-3.7c0.2-0.6,0.4-1.1,0.7-1.7c0.1-0.3,0.3-0.6,0.5-0.9c0.1-0.1,0.3-0.3,0.4-0.4c0.2-0.1,0.4-0.3,0.7-0.3
			c0.6-0.2,1.1,0.1,1.4,0.3c0.3,0.2,0.6,0.5,0.7,0.8c0.4,0.5,0.7,1,1,1.6c0.6,1.1,1,2.1,1.5,3.2l-1.7,0.1c0.3-1.3,0.6-2.6,0.6-3.8
			c0-1.2-0.4-2.3-1-3.4c-0.6-1.1-1.3-2.4-2-3.7c-0.6-1.3-1.2-2.7-1.6-4c-0.4-1.4-0.8-2.8-1-4.3c-0.1-0.7-0.2-1.5-0.2-2.3
			c0-0.8,0-1.7,0.4-2.8c0.2-0.5,0.5-1.3,1.5-1.9c0.5-0.3,1.1-0.4,1.7-0.4c0.3,0,0.5,0,0.7,0.1c0.2,0.1,0.4,0.1,0.6,0.2
			c0.7,0.3,1.1,0.7,1.5,1c0.4,0.3,0.7,0.7,0.9,1c1,1.3,1.7,2.7,2.3,4l-4.3,1.1c-0.2-3.1-0.4-6.2-0.6-9.2c-0.3-3-0.9-5.7-2.1-8.4
			c-1.2-2.7-2.7-5.4-4.3-8c-1.6-2.7-3.2-5.3-4.7-8.1L285.5,147.5z"/>
	</g>
	
		<linearGradient id="SVGID_10_" gradientUnits="userSpaceOnUse" x1="165.0829" y1="142.3212" x2="165.0829" y2="112.3736" gradientTransform="matrix(0.9951 9.866992e-02 -9.866992e-02 0.9951 3.2801 -10.9158)">
		<stop  offset="0" style="stop-color:#F6FBD4;stop-opacity:0"/>
		<stop  offset="1" style="stop-color:#EAE3D5"/>
	</linearGradient>
	<path class="st12" d="M160.8,121.8c3.9-1.6,6.7,1.9,11.6,0.6c4.9-1.3,6.3,2.4,0.6,6s-12.6,6.5-17,9.6c-4.5,3.1-16.2,10.8-22.2,5.8
		c-3.9-1.3,7-5,16-14C154,125.6,155.8,123.8,160.8,121.8z"/>
	<path class="st5" d="M123.4,153c3.8,1.6,4.3-1.1,5.4-0.5c1.1,0.5,4.8,0.5,7,0c2.1-0.5,7-2.7,3.8-4.8c-3.2-2.1-12.7-9.6-18.8-4.8
		C115.9,146.6,123.4,153,123.4,153z"/>
	<path class="st13" d="M128.2,147.6c1.1,1.1,3.8,3.2,6.4,3.8"/>
	<path class="st13" d="M121.3,148.7c1.1,1.6,4.3,3.8,5.9,3.8"/>
	<g>
		<path class="st5" d="M177.2,107.3c1.2-2.1,3.4-3.6,5.7-4.4c2.3-0.8,4.8-0.8,7.2-0.7c4.8,0.2,9.5,1.3,14.1,2.1l0,0.1
			c-4.7-0.5-9.4-1.4-14.1-1.4c-2.4,0-4.7,0.3-6.9,0.9C181,104.5,178.9,105.6,177.2,107.3L177.2,107.3z"/>
	</g>
	<g>
		<path class="st5" d="M160.2,106.4c-0.8-0.7-1.5-1.5-2.3-2.3c-0.7-0.7-1.4-1.5-2.3-2.1c-0.8-0.6-1.8-0.9-2.9-0.9
			c-1,0-2.1,0.3-3,0.8l-0.1-0.1c0.9-0.6,1.9-1.1,3.1-1.2c1.1-0.1,2.3,0.2,3.3,0.7c1,0.5,1.9,1.2,2.6,2.1
			C159.4,104.3,159.9,105.3,160.2,106.4L160.2,106.4z"/>
	</g>
	<g>
		<linearGradient id="SVGID_11_" gradientUnits="userSpaceOnUse" x1="172.2208" y1="139.409" x2="191.7282" y2="142.3199">
			<stop  offset="0" style="stop-color:#E44A26"/>
			<stop  offset="0.2285" style="stop-color:#E85529"/>
			<stop  offset="0.6323" style="stop-color:#F17330"/>
			<stop  offset="1" style="stop-color:#FB9438"/>
		</linearGradient>
		<path class="st14" d="M192.3,135.4c-0.8,2-2,3.7-3.5,5.2c-1.5,1.5-3.3,2.7-5.2,3.6c-3.8,1.8-8.2,2.5-12.3,2.1
			c4.1-0.4,8.2-1.3,11.9-3C186.8,141.6,190.1,138.9,192.3,135.4z"/>
	</g>
	<linearGradient id="SVGID_12_" gradientUnits="userSpaceOnUse" x1="213.2143" y1="111.3347" x2="237.4474" y2="111.3347">
		<stop  offset="0" style="stop-color:#F6FBD4"/>
		<stop  offset="1" style="stop-color:#EAE3D5"/>
	</linearGradient>
	<path class="st15" d="M213.2,114.8c3.6-3,6.6-8,7.6-12c0,4-2,11,2,7s15-7,10-4s-6,4-3,5s13,4,4,3s-3,0-1,2s6,3-6,4"/>
	<linearGradient id="SVGID_13_" gradientUnits="userSpaceOnUse" x1="186.7752" y1="249.4051" x2="206.2467" y2="249.4051">
		<stop  offset="0" style="stop-color:#EAE3D5"/>
		<stop  offset="1" style="stop-color:#F6FBD4"/>
	</linearGradient>
	<path class="st16" d="M201.3,206.8c-0.5,10,0.7,19.9-5.5,25c-11,9-12,8,3,1c-3,4-8,14-12,15c9-4,21-13,17-6s-13.1,11.7-8.6,9.8
		s7.6-1.8,3.6,3.2s-10,7-6,6s10-4,8-1s-9,6-6,5s8-4,7-1s-7,8-9,9s-3.3,3.2,6.3,1.1s7.7-4.1,4.7-0.1s-10,8-7,7s7-4,6-1s-6,7-3,6
		s7-1,5,1s-6,6-3,5s4,0,4-2s0-49,0-49l-3-34"/>
	<path class="st17" d="M201.8,297.8c3-1,6-9,6-5s-2,6-4,7c2,0,5-3,7-1c-4,3-7,3-9,6c5-2,8-1,10,1c-6,3-10,6-11,9c4,1,6,3,9,1
		c-1,3-2,4-6,4c5,3,7,10,6,11s0-5-7-4c2,3,4,8,2,10c-2-2-3-3-5-3s2.1,4,3,7c2,7-5-3-10-1"/>
	<g class="st18">
		<path class="st5" d="M240.8,45.8c-0.8,2-1.6,3.9-1.9,5.9c-0.3,2-0.3,3.9,0.1,5.9c0.4,1.9,1,3.8,1.9,5.7c0.4,0.9,0.9,1.8,1.4,2.8
			c0.5,0.9,1,1.8,1.5,2.8c-0.8-0.7-1.6-1.4-2.3-2.2c-0.7-0.8-1.4-1.6-1.9-2.6c-0.6-0.9-1.1-1.9-1.5-2.9c-0.4-1-0.7-2.1-0.9-3.2
			c-0.4-2.2-0.3-4.5,0.3-6.6C238,49.2,239.3,47.3,240.8,45.8z"/>
	</g>
	<ellipse class="st19" cx="179.3" cy="117.8" rx="0.5" ry="1"/>
	<ellipse class="st19" cx="154.3" cy="116.8" rx="0.5" ry="1"/>
</g>
</svg>
