<?xml version="1.0" encoding="utf-8"?>
<!-- Generator: Adobe Illustrator 24.0.2, SVG Export Plug-In . SVG Version: 6.00 Build 0)  -->
<svg version="1.1" id="Layer_1" xmlns="http://www.w3.org/2000/svg" xmlns:xlink="http://www.w3.org/1999/xlink" x="0px" y="0px"
	 viewBox="0 0 239 315" style="enable-background:new 0 0 239 315;" xml:space="preserve">
<style type="text/css">
	.st0{fill:#687831;}
	.st1{fill:#97B13D;}
	.st2{fill:#BDD657;}
	.st3{fill:#996A4A;}
	.st4{fill:#697B33;}
	.st5{fill:#98B23E;}
	.st6{fill:#805E45;}
	.st7{fill:#F2F22F;}
	.st8{fill:#EDD815;}
	.st9{fill:#562B0E;}
	.st10{fill:url(#SVGID_1_);}
	.st11{fill:url(#SVGID_2_);}
	.st12{fill:url(#SVGID_3_);}
	.st13{fill:url(#SVGID_4_);}
	.st14{fill:url(#SVGID_5_);}
	.st15{fill:url(#SVGID_6_);}
	.st16{fill:url(#SVGID_7_);}
	.st17{fill:url(#SVGID_8_);}
	.st18{fill:url(#SVGID_9_);}
	.st19{fill:url(#SVGID_10_);}
	.st20{fill:url(#SVGID_11_);}
	.st21{fill:url(#SVGID_12_);}
	.st22{fill:url(#SVGID_13_);}
	.st23{fill:#171516;}
	.st24{fill:url(#SVGID_14_);}
	.st25{fill:url(#SVGID_15_);}
	.st26{fill:url(#SVGID_16_);}
	.st27{fill:url(#SVGID_17_);}
	.st28{fill:url(#SVGID_18_);}
	.st29{fill:url(#SVGID_19_);}
	.st30{fill:url(#SVGID_20_);}
	.st31{fill:url(#SVGID_21_);}
	.st32{fill:url(#SVGID_22_);}
	.st33{fill:url(#SVGID_23_);}
	.st34{fill:url(#SVGID_24_);}
	.st35{fill:url(#SVGID_25_);}
	.st36{fill:url(#SVGID_26_);}
	.st37{fill:url(#SVGID_27_);}
	.st38{fill:url(#SVGID_28_);}
	.st39{fill:url(#SVGID_29_);}
	.st40{fill:url(#SVGID_30_);}
	.st41{fill:url(#SVGID_31_);}
	.st42{fill:#F6DC85;}
	.st43{fill:url(#SVGID_32_);}
	.st44{fill:#EC5617;}
	.st45{fill:url(#SVGID_33_);}
	.st46{fill:url(#SVGID_34_);}
	.st47{fill:url(#SVGID_35_);}
	.st48{fill:url(#SVGID_36_);}
</style>
<g>
	<path class="st0" d="M95.8,133.1c-0.3-0.1-0.6-0.2-0.9-0.2c1.3-0.6,2.3-1.7,2.8-3.2c0.9-2.8-0.7-5.8-3.5-6.6s-5.8,0.7-6.6,3.5
		c-0.1,0.4-0.2,0.7-0.2,1.1c-0.6-0.8-1.5-1.4-2.5-1.7c-2.8-0.9-5.8,0.7-6.6,3.5c-0.1,0.3-0.2,0.6-0.2,1c-0.6-2.1-2.3-3.8-4.5-4.5
		c-3.6-1.1-7.4,0.9-8.5,4.5c-0.7,2.4-0.1,4.9,1.5,6.6c-1.3,0.8-2.4,2.1-2.9,3.8c-1.1,3.6,0.9,7.4,4.5,8.5c1.1,0.3,2.3,0.4,3.3,0.2
		c0.5,2.3,2.2,4.2,4.6,4.9c3.6,1.1,7.4-0.9,8.5-4.5c0-0.1,0-0.2,0.1-0.3c0.1,0,0.2,0.1,0.2,0.1c2.8,0.9,5.8-0.7,6.6-3.5
		c0.4-1.3,0.3-2.6-0.3-3.8c0.4,0.3,0.9,0.5,1.5,0.7c2.8,0.9,5.8-0.7,6.6-3.5C100.2,136.9,98.6,133.9,95.8,133.1z"/>
	<path class="st1" d="M94.9,132.9c1.3-0.6,2.3-1.7,2.8-3.2c0.9-2.8-0.7-5.8-3.5-6.6s-5.8,0.7-6.6,3.5c-0.1,0.4-0.2,0.7-0.2,1.1
		c-0.6-0.8-1.5-1.4-2.5-1.7c-2.8-0.9-5.8,0.7-6.6,3.5c-0.1,0.3-0.2,0.6-0.2,1c-0.6-2.1-2.3-3.8-4.5-4.5c-3.6-1.1-7.4,0.9-8.5,4.5
		c-0.1,0.3-0.2,0.7-0.2,1c0.9,2.7,3.6,5,6.2,4.5c-1.2,2.3,0.1,4.8,3.6,5.3c1.2,4.6,7.1,2.7,7.2,0.6c1.8,1.1,3.4,1,5.6,0.7
		c2.2-0.4,5.3-5.2,4.5-7.6c1.2,0.2,2.6-0.7,3.9-1.9C95.4,133,95.2,132.9,94.9,132.9z"/>
	<path class="st2" d="M87.5,126.6c-0.1,0.4-0.2,0.7-0.2,1.1c-0.6-0.8-1.5-1.4-2.5-1.7c-2.8-0.9-5.8,0.7-6.6,3.5
		c-0.1,0.3-0.2,0.6-0.2,1c-0.6-2.1-2.3-3.8-4.5-4.5c-1.7-0.5-3.4-0.3-4.9,0.4c-0.3,1-0.4,2.2,0.2,3.2c1,1.9,4.7,5.2,8.2,2.5
		c1.6,1.6,8.2,2.5,8.7-2.6c1.4,0.4,7.3-1.2,6.1-6.5C89.8,123.3,88.1,124.6,87.5,126.6z"/>
</g>
<path class="st3" d="M55.4,275.3c33-13.6,20.3-10.1,40.9-22.8c15.6-9.6,10.4-30.6,13.3-36.1c2.8-5.6,5-18.2,5-23.8
	c0-5.6,4.4-21.2,1.3-23.8c-3.1-2.6-10-5.3-10-9c0-3.7-1.3-12.9-4.6-15.9c-3.3-3-14.9-8.9-11.1-12.6c3.7-3.7,2.9-8.3,6-10.4
	c3.2-2,9-10,2.5-14.7c-6.5-4.7-13.7-5.3-16.3-2.2c-2.6,3.1-5.4,5-5,2c0.4-3-1.3-3.5-4.6-3.8c-1.7-0.1-3.5-1.1-4.9-2.3l5-2.5
	c0.6,0.3,1.4,0.6,2.5,0.7c4.5,0.6,7.8,0.8,12.3,0.5c4.5-0.3,9.3-2.7,11.9-1.2c1.2,0.7,3.4,2.1,5.6,3.9c0.4,0.5,0.9,0.9,1.4,1.3
	c0.4,0.3,0.8,0.6,1.2,0.9c-0.1,0-0.2,0-0.2-0.1c1.6,1.5,2.8,3.2,3.2,4.7c1.1,4.1-12.3,17.9-10.7,20.3c1.7,2.4,1.7,5.8,8,12
	c6.3,6.2,5.2,9.2,7.9,13.9c2.8,4.7,9.9,7.2,10.6,12.4c0.7,5.2,0.9,16.1,5.7,15.6c11.4,3.8,33.5,0.3,34.4-3.4c1-3.7,17-3.4,11.1-18.7
	c-1.8-9.4-12.4-18.9-16.3-29.1c-0.8-2.1-0.3-5.7,4-8.6c4.9-3.3,11.3,0.5,10.8-6.2c-0.5-6.7-1.6-5.2,1.9-11.1
	c3.6-5.9,9.9-6.2,7.3-1.2c-2.6,5-4.3,6.3-4.7,12.1c-0.4,5.8-2.5,4.4-6.6,6.5c-4.1,2-10.8,3.4-9.2,7.7c1.6,4.3,9.5,3.2,10.3,10.7
	c0.9,7.5,12.7,19.3,11.5,25.4c-1.2,6.1-7.7,10.7-5.7,14.8c2,4.1,6.8,9.2-0.4,9.5c-7.3,0.3-19.9,4.7-26.3,5c-6.3,0.3-14.5-5-17.9,0.4
	c-3.4,5.4-3.2,9.5-6.6,16.7c-3.4,7.2-7.7,7.9-8.1,15.6c-0.4,7.6,3.8,12.5,0.6,22.9c-3.2,10.4-7,10.1-1.8,18.7
	c4.3,7.1,7.6,10.3,5.9,15.3c0.6-6.3-10.2-15.6-14-10.9c-6,7.4-12.5,1.5-8.4,16.8c-10-25.3-30.9-12.6-26.6-14.8
	C98.9,266.1,55.4,275.3,55.4,275.3z"/>
<g>
	<path class="st1" d="M227.5,57.3c0-3.3-1-6.3-2.7-8.8c0.4-1.6,0.6-3.2,0.6-4.9c0-10.7-8.6-19.3-19.3-19.3c-6.3,0-12,3.1-15.5,7.8
		l-0.2-0.1c0.4-1.1,0.6-2.3,0.6-3.5c0-6.2-5-11.2-11.2-11.2c-3.2,0-6,1.3-8.1,3.4c0.2-1,0.4-2,0.4-3.1c0-7.6-6.1-13.7-13.7-13.7
		c-4.9,0-9.2,2.6-11.6,6.5c-3.4,0.7-6.1,3.4-6.8,6.8c-1.2-0.4-2.4-0.6-3.7-0.6c-3.9,0-7.3,2-9.3,5l-2.3,0.6
		c-1.4-6-6.8-10.5-13.3-10.5c-3.1,0-6,1.1-8.3,2.8c-2.5-5-7.8-8.5-13.8-8.5c-6.9,0-12.8,4.5-14.7,10.8c-1.6-1.9-4-3.1-6.7-3.1
		c-4.4,0-8,3.2-8.7,7.5c-1.5-1.2-3.3-1.8-5.4-1.8c-4.8,0-8.8,3.9-8.8,8.8c0,0.7,0.1,1.4,0.3,2.1c-1.2-0.7-2.6-1-4.1-1
		c-3.2,0-5.9,1.7-7.5,4.2c-1-0.2-2-0.3-3.1-0.3c-8.5,0-15.4,6.9-15.4,15.4S22.2,64,30.7,64c3.6,0,6.9-1.2,9.5-3.3c0,0.2,0,0.3,0,0.5
		c0,7.6,6.1,13.7,13.7,13.7c1.5,0,2.9-0.2,4.2-0.7L69,84.7L137,95c0.6,7.9,7.3,14.2,15.4,14.2c5.5,0,10.3-2.9,13-7.2
		c3.5,5.2,9.4,8.6,16.1,8.6c10.7,0,19.3-8.6,19.3-19.3c0-0.1,0-0.3,0-0.4c9.8-0.9,17.5-9.1,17.5-19.2c0-0.1,0-0.2,0-0.3
		C223.7,69,227.5,63.6,227.5,57.3z"/>
	<path class="st2" d="M206.1,24.3c-6.3,0-12,3.1-15.5,7.8l-0.2-0.1c0.4-1.1,0.6-2.3,0.6-3.5c0-6.2-5-11.2-11.2-11.2
		c-3.2,0-6,1.3-8.1,3.4c0.2-1,0.4-2,0.4-3.1c0-7.6-6.1-13.7-13.7-13.7c-4.9,0-9.2,2.6-11.6,6.5c-3.4,0.7-6.1,3.4-6.8,6.8
		c-1.2-0.4-2.4-0.6-3.7-0.6c-3.9,0-7.3,2-9.3,5l-2.3,0.6c-1.4-6-6.8-10.5-13.3-10.5c-3.1,0-6,1.1-8.3,2.8c-2.5-5-7.8-8.5-13.8-8.5
		c-6.9,0-12.8,4.5-14.7,10.8c-1.6-1.9-4-3.1-6.7-3.1c-4.4,0-8,3.2-8.7,7.5c-1.5-1.2-3.3-1.8-5.4-1.8c-4.8,0-8.8,3.9-8.8,8.8
		c0,0.7,0.1,1.4,0.3,2.1c-1.2-0.7-2.6-1-4.1-1c-2.6,0-4.9,1.2-6.5,3c0.5,2,1.9,3.7,5.5,3.4c7-0.7,8.4-2.8,7-7
		c1.4,2.8,2.8,2.8,5.6,0.7c0,6.3,3.5,9.1,9.1,9.8c5.6,0.7,10.5-1.4,11.9-4.2c3.5,2.8,13.3-2.8,11.9-7c3.5,5.6,8.4,2.8,9.8-0.7
		c-0.7,6.3,5.6,12.6,11.2,13.3c5.6,0.7,16.1-2.8,14.7-11.2c5.6,3.5,8.4,0.7,9.1-2.1c4.2,2.1,14.7,2.8,14-7c3.5,2.8,9.1,0.7,9.8-4.2
		c4.9,4.9,4.2,8.4,11.9,7c2.1,6.3,8.4,11.9,15.4,5.6c-3.5,10.5,2.8,23.1,12.6,16.1c6.3,7.7,16.8,1.4,16.1-4.9
		c2.8,2.3,9.3,5.9,14.7,2.4C224.6,32.2,216.2,24.3,206.1,24.3z"/>
	<path class="st0" d="M227.5,57.3c0-1.5-0.2-3-0.6-4.4c-4.3,0.3-8.4,5.2-7.8,10c-8.4-2.8-13.3,2.8-14,7.7c-2.8-2.8-5.6,0-8.4,2.8
		c-7-4.2-10.5,2.1-9.8,7c-3.5-0.7-5.6-0.7-7.7,7c-2.8-2.8-5.6-4.2-10.5,0c5.6-13.3-2.1-24.5-8.4-28.1s-19.6,0-21.7,7
		c-5.6-11.2-18.2-4.9-20.3,0c0-3.5-6.3-7.7-9.1-1.4c0-5.6-6.3-9.1-11.2-9.8c-4.9-0.7-12.6,2.8-13.3,9.1c-1.4-0.7-3.5-3.5-4.9,2.1
		c-3.5-3.5-13.3-2.1-18.9,0c0-7-7.7-9.8-13.3-9.1c1.4-14.7-14-12.6-17.5-9.1c0.8-6.9-2.9-10.6-7.1-12.7c-4.4,2.7-7.3,7.6-7.3,13.1
		c0,8.5,6.9,15.4,15.4,15.4c3.6,0,6.9-1.2,9.5-3.3c0,0.2,0,0.3,0,0.5c0,7.6,6.1,13.7,13.7,13.7c1.5,0,2.9-0.2,4.2-0.7L69,84.7
		L137,95c0.6,7.9,7.3,14.2,15.4,14.2c5.5,0,10.3-2.9,13-7.2c3.5,5.2,9.4,8.6,16.1,8.6c10.7,0,19.3-8.6,19.3-19.3c0-0.1,0-0.3,0-0.4
		c9.8-0.9,17.5-9.1,17.5-19.2c0-0.1,0-0.2,0-0.3C223.7,69,227.5,63.6,227.5,57.3z"/>
</g>
<g>
	<path class="st4" d="M20.8,63.5c0.3,0.1,0.6,0.2,0.9,0.2c1.3-4.1,5.6-6.7,9.9-5.7c2.8,0.6,5,2.6,6.1,5.1c1.2-1.3,3.1-1.9,4.9-1.5
		c2.4,0.5,4.1,2.6,4.2,5c0.9-0.5,1.9-0.6,3-0.4c1.7,0.4,3,1.7,3.4,3.3c3-2,6.7-2.9,10.6-2.1c3.1,0.7,5.7,2.3,7.5,4.6
		c1.9-2.7,5.3-4.2,8.8-3.4c1.3,0.3,2.5,0.9,3.6,1.7c0,0,0,0,0,0c0.5-2.4,2.9-3.9,5.3-3.4c1.5,0.3,2.7,1.4,3.2,2.7
		c2.5-2.1,5.9-3.1,9.4-2.4c3.9,0.8,6.8,3.7,8,7.2c1.9-0.7,4.1-0.9,6.2-0.5c5.9,1.3,9.6,7.1,8.3,13c-0.5,2.4-1.8,4.5-3.6,6
		c3.3,2.5,5,6.7,4.1,11c-0.9,4.3-4.4,7.5-8.5,8.4c0,0,0,0,0,0.1c-1.3,5.8-7,9.6-12.8,8.4c0.5,1.9,0.5,4,0.1,6.1
		c-1.6,7.3-8.8,12-16.1,10.4c-5.6-1.2-9.6-5.7-10.5-11c-1.2,0.3-2.5,0.3-3.7,0c-3.7-0.8-6.4-4-6.7-7.6c-1.8,1.2-4.1,1.6-6.4,1.1
		c-3.4-0.7-5.9-3.4-6.5-6.6c-2.3,0.9-4.9,1.1-7.5,0.5c-4.4-0.9-7.8-3.9-9.5-7.7c-0.6,0-1.2-0.1-1.8-0.2c-3.9-0.9-6.6-4.3-6.7-8.1
		c-3.6-1.1-6.1-4.4-6.1-8.1c-0.5,0-0.9,0-1.4-0.1c-2.3-0.5-3.9-2.4-4.1-4.5c0,0,0,0,0,0c-5.9-1.3-9.6-7.1-8.3-13
		C9.1,65.9,15,62.2,20.8,63.5z"/>
	<path class="st5" d="M20.8,63.5c0.3,0.1,0.6,0.2,0.9,0.2c1.3-4.1,5.6-6.7,9.9-5.7c2.8,0.6,5,2.6,6.1,5.1c1.2-1.3,3.1-1.9,4.9-1.5
		c2.4,0.5,4.1,2.6,4.2,5c0.9-0.5,1.9-0.6,3-0.4c1.7,0.4,3,1.7,3.4,3.3c3-2,6.7-2.9,10.6-2.1c3.1,0.7,5.7,2.3,7.5,4.6
		c1.9-2.7,5.3-4.2,8.8-3.4c1.3,0.3,2.5,0.9,3.6,1.7c0,0,0,0,0,0c0.5-2.4,2.9-3.9,5.3-3.4c1.5,0.3,2.7,1.4,3.2,2.7
		c2.5-2.1,5.9-3.1,9.4-2.4c3.9,0.8,6.8,3.7,8,7.2c1.9-0.7,4.1-0.9,6.2-0.5c5.9,1.3,9.6,7.1,8.3,13c-0.5,2.4-1.8,4.5-3.6,6
		c3.3,2.5,5,6.7,4.1,11c-0.9,4.3-4.4,7.5-8.5,8.4c0,0,0,0,0,0.1c-0.1,0.4-0.2,0.7-0.3,1.1c-1.6-0.1-3-0.6-3.8-1.7
		c-0.6,2.9-4.2,8.1-10,4.5c-1.2,2.8-7.5,6.8-14.9,2.2s-6.9-6.9-7.3-8.2c-2.8,1.8-9.1-2.6-6.2-7.4c-4.2-0.3-5.9-0.7-5-4.7
		c-3.2,6.5-10.3,8.6-14.7,6.5c-4.4-2.2-9.5-6.3-7-12.4c-4-0.9-6-3.1-4.8-5.9c-2.6,0.7-3.4,1.7-4.9-2.3c-1.2,8.2-15.3,3.9-11.3-3.7
		c-4.5,1.4-10.4-4.7-7.1-8.8c-3.1,0.3-6.7-1.1-7.2-5.8C14.1,63.7,17.4,62.7,20.8,63.5z"/>
	<path class="st2" d="M74.9,69c1.6-0.7,3.3-0.9,5.1-0.5c1.3,0.3,2.5,0.9,3.6,1.7c0,0,0,0,0,0c0.5-2.4,2.9-3.9,5.3-3.4
		c1.5,0.3,2.7,1.4,3.2,2.7c2.5-2.1,5.9-3.1,9.4-2.4c3.9,0.8,6.8,3.7,8,7.2c1.9-0.7,4.1-0.9,6.2-0.5c5.9,1.3,9.6,7.1,8.3,13
		c-0.5,2.4-1.8,4.5-3.6,6c1.8,1.3,3.1,3.1,3.8,5.2c-1.8,0.4-4,0.2-6-1.3c-3.6,2.8-12.2,3.4-11.8-3.8c-3.8-2-3.5-3.2-3-5.5
		c-2.3-0.5-6.3-4.4-3.9-6.9c-2.4-2.9-4.7-3.4-3.4-6.8c-2.5,3.1-6.2,3.5-8.6,0.6C86.2,78,73.8,79.7,74.9,69z"/>
	<path class="st2" d="M20.8,63.5c0.3,0.1,0.6,0.2,0.9,0.2c1.3-4.1,5.6-6.7,9.9-5.7c2.8,0.6,5,2.6,6.1,5.1c1.2-1.3,3.1-1.9,4.9-1.5
		c2.4,0.5,4.1,2.6,4.2,5c0.9-0.5,1.9-0.6,3-0.4c1.7,0.4,3,1.7,3.4,3.3c3-2,6.7-2.9,10.6-2.1c2.4,0.5,4.6,1.7,6.3,3.3
		c-0.1,3-0.6,6-3.3,6.7c-0.2,6.6-3.1,11.4-7.7,10.4s-8.7-4.3-8-7.8c-4.3,0.3-6.1-6.5-4.5-8.5c-0.3-1.3-4.9,0.2-4-3.9
		c-3.1,0.5-4.4,0.9-4.9-2.3c-1.7,2.1-5.2,4.3-7.3,0.2c-1.1,2.2-5.6,3.6-8,0.7c-0.7,3.2-7.6,6.5-8.6-1.9
		C15.9,63.3,18.4,62.9,20.8,63.5z"/>
</g>
<g>
	<path class="st0" d="M222.6,92c-0.6-0.2-1.1-0.3-1.7-0.4c2.4-1.2,4.3-3.3,5.2-6c1.6-5.2-1.3-10.8-6.6-12.4s-10.8,1.3-12.4,6.6
		c-0.2,0.7-0.3,1.4-0.4,2.1c-1.2-1.4-2.8-2.6-4.7-3.2c-5.2-1.6-10.8,1.3-12.4,6.6c-0.2,0.6-0.3,1.2-0.4,1.8
		c-1.2-3.9-4.2-7.2-8.5-8.5c-6.7-2.1-13.9,1.7-16,8.4c-1.4,4.5-0.1,9.2,2.9,12.5c-2.5,1.6-4.5,4-5.4,7c-2.1,6.7,1.7,13.9,8.4,16
		c2.1,0.6,4.2,0.7,6.2,0.3c1,4.2,4.2,7.8,8.6,9.2c6.7,2.1,13.9-1.7,16-8.4c0-0.2,0.1-0.3,0.1-0.5c0.2,0.1,0.3,0.1,0.5,0.2
		c5.2,1.6,10.8-1.3,12.4-6.6c0.8-2.4,0.5-4.9-0.5-7.1c0.8,0.6,1.7,1,2.7,1.3c5.2,1.6,10.8-1.3,12.4-6.6
		C230.8,99.2,227.8,93.6,222.6,92z"/>
	<path class="st1" d="M220.9,91.6c2.4-1.2,4.3-3.3,5.2-6c1.6-5.2-1.3-10.8-6.6-12.4s-10.8,1.3-12.4,6.6c-0.2,0.7-0.3,1.4-0.4,2.1
		c-1.2-1.4-2.8-2.6-4.7-3.2c-5.2-1.6-10.8,1.3-12.4,6.6c-0.2,0.6-0.3,1.2-0.4,1.8c-1.2-3.9-4.2-7.2-8.5-8.5
		c-6.7-2.1-13.9,1.7-16,8.4c-0.2,0.7-0.3,1.3-0.4,2c1.7,5.2,6.8,9.5,11.6,8.4c-2.3,4.2,0.2,9,6.8,10c2.3,8.6,13.3,5.1,13.5,1.2
		c3.3,2,6.3,2,10.5,1.3c4.2-0.7,10-9.8,8.4-14.3c2.2,0.3,4.9-1.4,7.4-3.7C221.9,91.8,221.4,91.7,220.9,91.6z"/>
	<path class="st2" d="M207,79.7c-0.2,0.7-0.3,1.4-0.4,2.1c-1.2-1.4-2.8-2.6-4.7-3.2c-5.2-1.6-10.8,1.3-12.4,6.6
		c-0.2,0.6-0.3,1.2-0.4,1.8c-1.2-3.9-4.2-7.2-8.5-8.5c-3.2-1-6.5-0.6-9.3,0.7c-0.5,2-0.7,4.1,0.3,5.9c1.9,3.6,8.9,9.7,15.4,4.8
		c3.1,2.9,15.4,4.8,16.4-4.9c2.6,0.8,13.7-2.2,11.4-12.2C211.3,73.5,208.2,76,207,79.7z"/>
</g>
<g>
	<path class="st0" d="M72.3,103.8c-0.6-0.2-1.1-0.3-1.7-0.4c2.4-1.2,4.3-3.3,5.2-6c1.6-5.2-1.3-10.8-6.6-12.4
		c-5.2-1.6-10.8,1.3-12.4,6.6c-0.2,0.7-0.3,1.4-0.4,2.1c-1.2-1.4-2.8-2.6-4.7-3.2c-5.2-1.6-10.8,1.3-12.4,6.6
		c-0.2,0.6-0.3,1.2-0.4,1.8c-1.2-3.9-4.2-7.2-8.5-8.5c-6.7-2.1-13.9,1.7-16,8.4c-1.4,4.5-0.1,9.2,2.9,12.5c-2.5,1.6-4.5,4-5.4,7
		c-2.1,6.7,1.7,13.9,8.4,16c2.1,0.6,4.2,0.7,6.2,0.3c1,4.2,4.2,7.8,8.6,9.2c6.7,2.1,13.9-1.7,16-8.4c0-0.2,0.1-0.3,0.1-0.5
		c0.2,0.1,0.3,0.1,0.5,0.2c5.2,1.6,10.8-1.3,12.4-6.6c0.8-2.4,0.5-4.9-0.5-7.1c0.8,0.6,1.7,1,2.7,1.3c5.2,1.6,10.8-1.3,12.4-6.6
		C80.5,111,77.5,105.4,72.3,103.8z"/>
	<path class="st1" d="M70.6,103.4c2.4-1.2,4.3-3.3,5.2-6c1.6-5.2-1.3-10.8-6.6-12.4c-5.2-1.6-10.8,1.3-12.4,6.6
		c-0.2,0.7-0.3,1.4-0.4,2.1c-1.2-1.4-2.8-2.6-4.7-3.2c-5.2-1.6-10.8,1.3-12.4,6.6c-0.2,0.6-0.3,1.2-0.4,1.8
		c-1.2-3.9-4.2-7.2-8.5-8.5c-6.7-2.1-13.9,1.7-16,8.4c-0.2,0.7-0.3,1.3-0.4,2c1.7,5.2,6.8,9.5,11.6,8.4c-2.3,4.2,0.2,9,6.8,10
		c2.3,8.6,13.3,5.1,13.5,1.2c3.3,2,6.3,2,10.5,1.3c4.2-0.7,10-9.8,8.4-14.3c2.2,0.3,4.9-1.4,7.4-3.7
		C71.6,103.6,71.1,103.5,70.6,103.4z"/>
	<path class="st2" d="M56.8,91.5c-0.2,0.7-0.3,1.4-0.4,2.1c-1.2-1.4-2.8-2.6-4.7-3.2c-5.2-1.6-10.8,1.3-12.4,6.6
		c-0.2,0.6-0.3,1.2-0.4,1.8c-1.2-3.9-4.2-7.2-8.5-8.5c-3.2-1-6.5-0.6-9.3,0.7c-0.5,2-0.7,4.1,0.3,5.9c1.9,3.6,8.9,9.7,15.4,4.8
		c3.1,2.9,15.4,4.8,16.4-4.9c2.6,0.8,13.7-2.2,11.4-12.2C61,85.3,57.9,87.8,56.8,91.5z"/>
</g>
<path class="st6" d="M181.3,181.3c2,4.1,6.8,9.2-0.4,9.5s-19.9,4.7-26.3,5c-6.3,0.3-14.5-5-17.9,0.4c-3.4,5.4-3.2,9.5-6.6,16.7
	c-3.4,7.2-7.7,7.9-8.1,15.6s3.8,12.5,0.6,22.9c-3.2,10.4-7,10.1-1.8,18.7c4.3,7.1,7.6,9.7,5.9,14.7c0,0,0-5.9-5.3-8.8
	c-3.3-1.8-10.4-7.7-8.7-11c1.7-3.3,0.7-5.4-1-3.7c-1.7,1.7-6.2,0.1-0.8-7.6s8.4-5,7.2-11c-1.9-9.1,0.2-7.8-2.2-14.8
	c-2-5.7-0.2-12.4,6.8-15.1c6.5-2.4,10.2-16.7,5.8-15.4c-4.4,1.3,2.8-11.4,12.9-9.6c10.1,1.8,0,5,11.7,5.1
	c11.8,0.1,12.3-6.5,17.7-5.7c5.4,0.7,9.9,2.3,11.3-0.1C183.4,184.6,181.3,181.3,181.3,181.3z"/>
<g>
	<circle class="st7" cx="135.7" cy="51.6" r="7.3"/>
	<g>
		<path class="st8" d="M131,47.5c-0.2,1.4,0.1,2.6,0.4,3.7c0.3,1.1,0.8,2.1,1.4,2.9c0.6,0.8,1.3,1.5,2.3,1.9c1,0.5,2.2,0.7,3.7,1
			c-1.1,0.9-2.6,1.4-4.2,1.2c-1.6-0.2-3.2-1.1-4.2-2.4c-1-1.3-1.4-2.9-1.4-4.4c0-0.8,0.2-1.5,0.5-2.2
			C129.9,48.5,130.4,47.9,131,47.5z"/>
	</g>
</g>
<g>
	<circle class="st7" cx="165.1" cy="92.2" r="7.3"/>
	<g>
		<path class="st8" d="M160.5,88.2c-0.2,1.4,0.1,2.6,0.4,3.7c0.3,1.1,0.8,2.1,1.4,2.9c0.6,0.8,1.3,1.5,2.3,1.9c1,0.5,2.2,0.7,3.7,1
			c-1.1,0.9-2.6,1.4-4.2,1.2c-1.6-0.2-3.2-1.1-4.2-2.4c-1-1.3-1.4-2.9-1.4-4.4c0-0.8,0.2-1.5,0.5-2.2
			C159.3,89.2,159.9,88.5,160.5,88.2z"/>
	</g>
</g>
<g>
	<circle class="st7" cx="115.2" cy="89.8" r="5.9"/>
	<g>
		<path class="st8" d="M111.2,86.8c0,1.2,0.3,2,0.6,2.8c0.3,0.8,0.7,1.5,1.1,2.1c0.4,0.6,0.9,1.1,1.6,1.5c0.7,0.4,1.6,0.7,2.8,1.1
			c-0.9,0.8-2,1.3-3.4,1.2c-1.3-0.1-2.6-0.9-3.4-2c-0.8-1.1-1.1-2.4-1-3.6c0.1-0.6,0.2-1.2,0.5-1.8C110.2,87.5,110.6,87,111.2,86.8z
			"/>
	</g>
</g>
<g>
	<circle class="st7" cx="72.5" cy="106.8" r="5.9"/>
	<g>
		<path class="st8" d="M68.4,103.8c0,1.2,0.3,2,0.6,2.8c0.3,0.8,0.7,1.5,1.1,2.1c0.4,0.6,0.9,1.1,1.6,1.5c0.7,0.4,1.6,0.7,2.8,1.1
			c-0.9,0.8-2,1.3-3.4,1.2c-1.3-0.1-2.6-0.9-3.4-2c-0.8-1.1-1.1-2.4-1-3.6c0.1-0.6,0.2-1.2,0.5-1.8C67.4,104.5,67.9,104,68.4,103.8z
			"/>
	</g>
</g>
<g>
	<circle class="st7" cx="89" cy="38.4" r="5.9"/>
	<g>
		<path class="st8" d="M84.9,35.4c0,1.2,0.3,2,0.6,2.8c0.3,0.8,0.7,1.5,1.1,2.1c0.4,0.6,0.9,1.1,1.6,1.5c0.7,0.4,1.6,0.7,2.8,1.1
			c-0.9,0.8-2,1.3-3.4,1.2c-1.3-0.1-2.6-0.9-3.4-2c-0.8-1.1-1.1-2.4-1-3.6c0.1-0.6,0.2-1.2,0.5-1.8C83.9,36.1,84.4,35.6,84.9,35.4z"
			/>
	</g>
</g>
<g>
	<circle class="st7" cx="61.6" cy="19.9" r="4.4"/>
	<g>
		<path class="st8" d="M58.6,17.7c0.1,1,0.4,1.5,0.7,2.1c0.3,0.5,0.6,1,0.8,1.4c0.3,0.4,0.5,0.7,1,1c0.4,0.3,1.1,0.6,2,1.1
			c-0.6,0.8-1.5,1.2-2.6,1.2c-1.1,0-2.2-0.7-2.8-1.5C57.1,22,56.8,21,56.9,20c0.1-0.5,0.2-1,0.5-1.4C57.7,18.2,58.1,17.8,58.6,17.7z
			"/>
	</g>
</g>
<g>
	<circle class="st7" cx="131.1" cy="80" r="4.4"/>
	<g>
		<path class="st8" d="M128.1,77.8c0.1,1,0.4,1.5,0.7,2.1c0.3,0.5,0.6,1,0.8,1.4c0.3,0.4,0.5,0.7,1,1c0.4,0.3,1.1,0.6,2,1.1
			c-0.6,0.8-1.5,1.2-2.6,1.2c-1.1,0-2.2-0.7-2.8-1.5c-0.6-0.9-0.9-1.9-0.8-2.9c0.1-0.5,0.2-1,0.5-1.4
			C127.2,78.3,127.6,77.9,128.1,77.8z"/>
	</g>
</g>
<g>
	<circle class="st7" cx="39.2" cy="90.6" r="4.4"/>
	<g>
		<path class="st8" d="M36.2,88.4c0.1,1,0.4,1.5,0.7,2.1c0.3,0.5,0.6,1,0.8,1.4c0.3,0.4,0.5,0.7,1,1c0.4,0.3,1.1,0.6,2,1.1
			c-0.6,0.8-1.5,1.2-2.6,1.2c-1.1,0-2.2-0.7-2.8-1.5c-0.6-0.9-0.9-1.9-0.8-2.9c0.1-0.5,0.2-1,0.5-1.4C35.3,88.9,35.7,88.5,36.2,88.4
			z"/>
	</g>
</g>
<g>
	<circle class="st7" cx="179.7" cy="44.9" r="5.9"/>
	<g>
		<path class="st8" d="M175.7,41.9c0,1.2,0.3,2,0.6,2.8c0.3,0.8,0.7,1.5,1.1,2.1c0.4,0.6,0.9,1.1,1.6,1.5c0.7,0.4,1.6,0.7,2.8,1.1
			c-0.9,0.8-2,1.3-3.4,1.2c-1.3-0.1-2.6-0.9-3.4-2c-0.8-1.1-1.1-2.4-1-3.6c0.1-0.6,0.2-1.2,0.5-1.8
			C174.7,42.6,175.1,42.1,175.7,41.9z"/>
	</g>
</g>
<g>
	<circle class="st7" cx="132.6" cy="17.8" r="5.9"/>
	<g>
		<path class="st8" d="M128.5,14.8c0,1.2,0.3,2,0.6,2.8c0.3,0.8,0.7,1.5,1.1,2.1c0.4,0.6,0.9,1.1,1.6,1.5c0.7,0.4,1.6,0.7,2.8,1.1
			c-0.9,0.8-2,1.3-3.4,1.2c-1.3-0.1-2.6-0.9-3.4-2c-0.8-1.1-1.1-2.4-1-3.6c0.1-0.6,0.2-1.2,0.5-1.8C127.5,15.5,128,15,128.5,14.8z"
			/>
	</g>
</g>
<g>
	<circle class="st7" cx="38.4" cy="51.5" r="7.4"/>
	<g>
		<path class="st8" d="M33.7,47c-0.2,1.4,0.1,2.6,0.4,3.7c0.3,1.1,0.8,2.1,1.4,3c0.6,0.9,1.3,1.5,2.2,2c0.9,0.5,2.1,0.8,3.6,1.1
			c-1.1,0.9-2.6,1.4-4.3,1.2c-1.6-0.2-3.2-1.3-4-2.6c-0.9-1.4-1.3-2.9-1.2-4.5c0.1-0.8,0.2-1.5,0.5-2.2C32.5,48,33,47.4,33.7,47z"/>
	</g>
</g>
<g>
	<circle class="st7" cx="18.4" cy="128.1" r="5.9"/>
	<g>
		<path class="st8" d="M14.5,125.1c-0.1,1.2,0.2,2.1,0.5,2.9c0.3,0.8,0.8,1.5,1.3,2.1c0.5,0.6,1,1,1.8,1.4c0.8,0.4,1.7,0.7,2.9,1.1
			c-0.9,0.8-2.1,1.3-3.4,1.2c-1.3-0.1-2.7-0.7-3.6-1.8c-0.9-1.1-1.3-2.4-1.3-3.7c0-0.7,0.2-1.3,0.5-1.9
			C13.4,125.8,13.9,125.3,14.5,125.1z"/>
	</g>
</g>
<g>
	<g>
		<circle class="st7" cx="191.8" cy="119.5" r="4.4"/>
		<g>
			<path class="st8" d="M188.8,117.3c0.1,1,0.4,1.5,0.7,2.1c0.3,0.5,0.6,1,0.8,1.4c0.3,0.4,0.5,0.7,1,1c0.4,0.3,1.1,0.6,2,1.1
				c-0.6,0.8-1.5,1.2-2.6,1.2c-1.1,0-2.2-0.7-2.8-1.5c-0.6-0.9-0.9-1.9-0.8-2.9c0.1-0.5,0.2-1,0.5-1.4
				C187.9,117.8,188.3,117.4,188.8,117.3z"/>
		</g>
	</g>
	<g>
		<path class="st9" d="M152.4,177.6c0.7,1,1.3,1.9,1.6,3.1c0.1,0.6,0.2,1.2,0,2c-0.1,0.7-0.6,1.6-1.4,2.1c-0.4,0.3-0.8,0.4-1.2,0.5
			c-0.4,0.1-0.7,0.1-1.1,0.1c-0.8,0-1.5-0.4-2-0.7c-0.2-0.2-0.4-0.3-0.5-0.4c-0.1-0.1-0.2-0.2-0.4-0.2c-0.3-0.1-0.9,0.1-1.4,0.4
			c0.1-0.6,0.3-1.2,1-1.6c0.3-0.2,0.8-0.3,1.2-0.3c0.4,0,0.7,0.1,0.9,0.1c0.5,0.1,0.8,0.1,1,0c0.2-0.1,0.6-0.2,0.6-0.3
			c0.1-0.1,0.2-0.2,0.3-0.5c0.1-0.3,0.2-0.7,0.3-1.1C151.7,179.9,151.7,178.8,152.4,177.6z"/>
	</g>
	<linearGradient id="SVGID_1_" gradientUnits="userSpaceOnUse" x1="141.0122" y1="174.4319" x2="173.5381" y2="174.4319">
		<stop  offset="0.1243" style="stop-color:#E56210"/>
		<stop  offset="1" style="stop-color:#651516"/>
	</linearGradient>
	<path class="st10" d="M141,151.5c4.7,2.1-2-8.9,2-9.7c4-0.8,15.5,0.8,23.6,15c8.1,14.2,7,33.8,6.7,50.3
		C171.1,168.7,139.9,151,141,151.5z"/>
	
		<linearGradient id="SVGID_2_" gradientUnits="userSpaceOnUse" x1="496.0616" y1="129.3494" x2="479.8219" y2="106.3586" gradientTransform="matrix(-0.9994 -3.581569e-02 -3.581569e-02 0.9994 640.4789 28.3705)">
		<stop  offset="0.1043" style="stop-color:#FFD540;stop-opacity:0"/>
		<stop  offset="0.4078" style="stop-color:#FFD540"/>
		<stop  offset="0.8531" style="stop-color:#E36D15"/>
	</linearGradient>
	<path class="st11" d="M147.2,144.5c-0.5-1.6-4.4-8-2.1-12.4c2.2-4.3,7.7-7.6,8.7-9c3.3-0.6,4-2.2,6.3-3.4c-0.7-0.1-2.5-0.1-2.5-0.1
		s-16.1,2-17.6,6.6c-1.6,4.6-2,6.4-1.3,9C140.6,141.2,147.6,145.9,147.2,144.5z"/>
	
		<linearGradient id="SVGID_3_" gradientUnits="userSpaceOnUse" x1="476.8183" y1="110.2744" x2="483.089" y2="110.2744" gradientTransform="matrix(-0.9994 -3.581569e-02 -3.581569e-02 0.9994 640.4789 28.3705)">
		<stop  offset="0" style="stop-color:#E36D15"/>
		<stop  offset="1" style="stop-color:#FFD540"/>
	</linearGradient>
	<path class="st12" d="M153.8,123.1c3.3-0.6,4-2.2,6.3-3.4c-0.7-0.1-2.5-0.1-2.5-0.1S153,121.4,153.8,123.1z"/>
	<linearGradient id="SVGID_4_" gradientUnits="userSpaceOnUse" x1="166.4375" y1="238.765" x2="188.1412" y2="238.765">
		<stop  offset="0" style="stop-color:#651516"/>
		<stop  offset="0.8757" style="stop-color:#E56210"/>
	</linearGradient>
	<path class="st13" d="M166.4,184.3c2,5,24.6,74.8,21.4,104c-2.1,19.2-8.2-22.7-8.9-29.1C175.7,229.6,166.4,184.3,166.4,184.3z"/>
	<linearGradient id="SVGID_5_" gradientUnits="userSpaceOnUse" x1="162.714" y1="133.3899" x2="133.9113" y2="183.0143">
		<stop  offset="0.1469" style="stop-color:#E36D15"/>
		<stop  offset="0.4992" style="stop-color:#FFD540"/>
		<stop  offset="0.8503" style="stop-color:#FFD540;stop-opacity:0"/>
	</linearGradient>
	<path class="st14" d="M160.4,119.7c-0.7-1.2-4.1-1.8-6.9-0.9c-3.9-2-8.3-2.2-12.7-0.9c-4.5,1.2-6-1.1-6.8-3.5
		c0,1.2-1.3,3.2,0.8,4.9c-1.9,0.4-3.1,3.4-7.3,2.1c1.1,1.4,3.4,2.9,5.7,1.6c-3.3,2.7-6.4,4.4-5.3,12.1c0.8-2.3,2.4-2.7,4.3-2.2
		c-1,2.5-8,22-2,31c5.9,9,18.4,16.2,22.5,18.9c4.1,2.7,11.9,11.3,12.5,19.5c3.2-4.5,16.1-42.6-19.2-59.2
		c-3.4-1.1-12.7-13.9,0.7-19.9c5.6-0.7,4.9,0.4,7-0.4s3.1-2.4,4.3-2.6C159,119.8,160.4,119.7,160.4,119.7z"/>
	<linearGradient id="SVGID_6_" gradientUnits="userSpaceOnUse" x1="123.2069" y1="121.8797" x2="135.2792" y2="121.8797">
		<stop  offset="0.1469" style="stop-color:#E36D15"/>
		<stop  offset="0.5922" style="stop-color:#FFD540"/>
		<stop  offset="0.8957" style="stop-color:#FFD540;stop-opacity:0"/>
	</linearGradient>
	<path class="st15" d="M135.3,120.8c-1.4,0.8-8.6,3.9-12.1,1.5C124.9,119.6,135.3,120.8,135.3,120.8z"/>
	
		<linearGradient id="SVGID_7_" gradientUnits="userSpaceOnUse" x1="502.1534" y1="114.3334" x2="513.8171" y2="114.3334" gradientTransform="matrix(-0.9994 -3.581569e-02 -3.581569e-02 0.9994 640.4789 28.3705)">
		<stop  offset="0.1043" style="stop-color:#FFD540;stop-opacity:0"/>
		<stop  offset="0.4078" style="stop-color:#FFD540"/>
		<stop  offset="0.8531" style="stop-color:#E36D15"/>
	</linearGradient>
	<path class="st16" d="M134.7,121.7c-1.1,1.3-7.8,6.5-11.9,5.4C123.5,124,134.7,121.7,134.7,121.7z"/>
	<linearGradient id="SVGID_8_" gradientUnits="userSpaceOnUse" x1="175.8985" y1="320.8908" x2="175.8985" y2="180.1349">
		<stop  offset="5.586592e-02" style="stop-color:#E36D15"/>
		<stop  offset="0.5084" style="stop-color:#FFD540"/>
		<stop  offset="0.933" style="stop-color:#FFD540;stop-opacity:0"/>
	</linearGradient>
	<path class="st17" d="M174.8,284.5c-0.3,3.9-1.2,20.9,0.1,30.2h7.3c8.1-22.6-12.6-129.2-14.5-134.6
		C167.7,180.1,176.8,253.2,174.8,284.5z"/>
	
		<linearGradient id="SVGID_9_" gradientUnits="userSpaceOnUse" x1="499.2676" y1="109.1139" x2="511.4096" y2="109.1139" gradientTransform="matrix(-0.9994 -3.581569e-02 -3.581569e-02 0.9994 640.4789 28.3705)">
		<stop  offset="9.380475e-03" style="stop-color:#FFD540;stop-opacity:0"/>
		<stop  offset="0.3087" style="stop-color:#FFD540"/>
		<stop  offset="0.8531" style="stop-color:#E36D15"/>
	</linearGradient>
	<path class="st18" d="M137.6,118.9c-1.5,0.7-8.9,3-12.2,0.3C127.4,116.7,137.6,118.9,137.6,118.9z"/>
	
		<linearGradient id="SVGID_10_" gradientUnits="userSpaceOnUse" x1="781.4063" y1="-188.273" x2="793.5483" y2="-188.273" gradientTransform="matrix(-0.8851 -0.4654 -0.4654 0.8851 743.8651 650.694)">
		<stop  offset="0.1026" style="stop-color:#FFD540;stop-opacity:0"/>
		<stop  offset="0.5187" style="stop-color:#FFD540"/>
		<stop  offset="0.8531" style="stop-color:#E36D15"/>
	</linearGradient>
	<path class="st19" d="M140.2,119.8c-1.6,0-9.4-1.2-11.1-5C131.9,113.4,140.2,119.8,140.2,119.8z"/>
	<linearGradient id="SVGID_11_" gradientUnits="userSpaceOnUse" x1="172.2145" y1="310.4561" x2="172.2145" y2="185.1802">
		<stop  offset="0.1243" style="stop-color:#E56210"/>
		<stop  offset="1" style="stop-color:#651516"/>
	</linearGradient>
	<path class="st20" d="M168,185.2c1.1,5.3,14,92.5,5.4,120.6c-5.6,18.5-3.9-23.8-3.4-30.2C172.4,245.9,168,185.2,168,185.2z"/>
	<linearGradient id="SVGID_12_" gradientUnits="userSpaceOnUse" x1="169.7008" y1="295.9708" x2="169.7008" y2="185.1802">
		<stop  offset="5.586592e-02" style="stop-color:#E36D15"/>
		<stop  offset="0.5084" style="stop-color:#FFD540"/>
		<stop  offset="0.933" style="stop-color:#FFD540;stop-opacity:0"/>
	</linearGradient>
	<path class="st21" d="M168,185.2c1.1,5.3,10.5,78.1,1.9,106.1c-5.6,18.5-3.9-23.8-3.4-30.2C168.8,231.4,168,185.2,168,185.2z"/>
	<linearGradient id="SVGID_13_" gradientUnits="userSpaceOnUse" x1="132.4463" y1="176.0667" x2="177.2934" y2="176.0667">
		<stop  offset="0.1243" style="stop-color:#E56210"/>
		<stop  offset="1" style="stop-color:#651516"/>
	</linearGradient>
	<path class="st22" d="M138.9,147.2c-3.6-2.5-5.4,2.6-6.1,7.2c-1.1,7.7-0.9,16.1,18.8,26.5c22.4,11.8,26.1,26.4,25.6,24.5
		C166.3,160.5,155,158.2,138.9,147.2z"/>
	<path class="st23" d="M146.1,121.9c1-1,2-2.3,4.8-1.1c-0.6,0.4-1.6,1.7-2.8,1.1C146.8,121.3,145.5,122.5,146.1,121.9z"/>
	<linearGradient id="SVGID_14_" gradientUnits="userSpaceOnUse" x1="153.5953" y1="188.0893" x2="169.6257" y2="188.0893">
		<stop  offset="0" style="stop-color:#651516"/>
		<stop  offset="0.8757" style="stop-color:#E56210"/>
	</linearGradient>
	<path class="st24" d="M153.6,167c7.4,4.7,14.9,19.7,15.7,31.5c0.8,11.8,0.2,18.4-4.5-4.7C160.2,170.6,153.6,167,153.6,167z"/>
	<linearGradient id="SVGID_15_" gradientUnits="userSpaceOnUse" x1="124.8688" y1="126.5962" x2="134.9484" y2="126.5962">
		<stop  offset="0.1469" style="stop-color:#E36D15"/>
		<stop  offset="0.5922" style="stop-color:#FFD540"/>
		<stop  offset="0.8957" style="stop-color:#FFD540;stop-opacity:0"/>
	</linearGradient>
	<path class="st25" d="M134.9,121.5c-0.5,1.6-5.9,9.6-10.1,10.2C124.3,128.6,134.9,121.5,134.9,121.5z"/>
	
		<linearGradient id="SVGID_16_" gradientUnits="userSpaceOnUse" x1="247.7177" y1="561.0281" x2="255.5364" y2="554.6667" gradientTransform="matrix(0.8856 -0.4645 0.4645 0.8856 -350.0034 -247.5114)">
		<stop  offset="0.1469" style="stop-color:#E36D15"/>
		<stop  offset="0.5922" style="stop-color:#FFD540"/>
		<stop  offset="0.8957" style="stop-color:#FFD540;stop-opacity:0"/>
	</linearGradient>
	<path class="st26" d="M133.8,122.7c0.3,1.6-0.8,11.3-4.2,13.7C127.6,133.9,133.8,122.7,133.8,122.7z"/>
	<linearGradient id="SVGID_17_" gradientUnits="userSpaceOnUse" x1="163.1806" y1="202.6025" x2="178.7137" y2="202.6025">
		<stop  offset="6.703911e-02" style="stop-color:#FFD540;stop-opacity:0"/>
		<stop  offset="0.4916" style="stop-color:#FFD540"/>
		<stop  offset="0.9441" style="stop-color:#E36D15"/>
	</linearGradient>
	<path class="st27" d="M163.2,176.9c7.2,5,15.2,28.9,15.5,40.7c0.3,11.8-0.7,18.4-4.2-4.9S163.2,176.9,163.2,176.9z"/>
	<linearGradient id="SVGID_18_" gradientUnits="userSpaceOnUse" x1="159.6354" y1="198.0296" x2="175.7772" y2="198.0296">
		<stop  offset="0" style="stop-color:#651516"/>
		<stop  offset="0.8757" style="stop-color:#E56210"/>
	</linearGradient>
	<path class="st28" d="M159.6,173.1c7.2,5,15.6,27.4,16,39.2c0.4,11.8-0.5,18.4-4.3-4.9C167.6,184.1,159.6,173.1,159.6,173.1z"/>
	<linearGradient id="SVGID_19_" gradientUnits="userSpaceOnUse" x1="155.7366" y1="193.5533" x2="173.3278" y2="193.5533">
		<stop  offset="6.703911e-02" style="stop-color:#FFD540;stop-opacity:0"/>
		<stop  offset="0.4916" style="stop-color:#FFD540"/>
		<stop  offset="0.9441" style="stop-color:#E36D15"/>
	</linearGradient>
	<path class="st29" d="M155.7,168.2c7.4,4.7,16.4,28.2,17.3,40c0.8,11.8,0.2,18.4-4.5-4.7C163.9,180.3,155.7,168.2,155.7,168.2z"/>
	
		<linearGradient id="SVGID_20_" gradientUnits="userSpaceOnUse" x1="148.9357" y1="186.0535" x2="170.2014" y2="186.0535" gradientTransform="matrix(1 -7.133434e-03 7.133434e-03 1 -4.8164 -4.5206)">
		<stop  offset="6.703911e-02" style="stop-color:#FFD540;stop-opacity:0"/>
		<stop  offset="0.4916" style="stop-color:#FFD540"/>
		<stop  offset="0.9441" style="stop-color:#E36D15"/>
	</linearGradient>
	<path class="st30" d="M145.3,155.9c7.8,4.1,18.8,26.7,20.6,38.4c1.8,11.7,1.7,18.3-4.8-4.4C154.5,167.2,145.3,155.9,145.3,155.9z"
		/>
	
		<linearGradient id="SVGID_21_" gradientUnits="userSpaceOnUse" x1="108.6315" y1="110.811" x2="110.2681" y2="125.9105" gradientTransform="matrix(0.9983 5.860420e-02 -5.860420e-02 0.9983 36.429 39.3698)">
		<stop  offset="6.703911e-02" style="stop-color:#FFD540;stop-opacity:0"/>
		<stop  offset="0.4916" style="stop-color:#FFD540"/>
		<stop  offset="0.9441" style="stop-color:#E36D15"/>
	</linearGradient>
	<path class="st31" d="M134.8,147.4c-0.6,2.2-2.6,16.3,4,22.4c6.5,6,4.5,0,3.2-1.9"/>
	
		<linearGradient id="SVGID_22_" gradientUnits="userSpaceOnUse" x1="279.4412" y1="754.9759" x2="281.5126" y2="774.0867" gradientTransform="matrix(0.7869 -0.6171 0.6171 0.7869 -542.0538 -255.3749)">
		<stop  offset="6.703911e-02" style="stop-color:#FFD540;stop-opacity:0"/>
		<stop  offset="0.4916" style="stop-color:#FFD540"/>
		<stop  offset="0.9441" style="stop-color:#E36D15"/>
	</linearGradient>
	<path class="st32" d="M140,166.8c1,2,8.9,13.9,17.8,14.1s3.4-3,1.1-3.5"/>
	
		<linearGradient id="SVGID_23_" gradientUnits="userSpaceOnUse" x1="249.1871" y1="902.9295" x2="256.3694" y2="921.0347" gradientTransform="matrix(0.678 -0.7351 0.7351 0.678 -689.1559 -259.4871)">
		<stop  offset="6.703911e-02" style="stop-color:#FFD540;stop-opacity:0"/>
		<stop  offset="0.4916" style="stop-color:#FFD540"/>
		<stop  offset="0.9441" style="stop-color:#E36D15"/>
	</linearGradient>
	<path class="st33" d="M140.8,166.3c1.3,1.8,11,12.3,19.8,11.1s2.8-3.5,0.5-3.7"/>
	
		<linearGradient id="SVGID_24_" gradientUnits="userSpaceOnUse" x1="347.1603" y1="870.2896" x2="354.3425" y2="888.3947" gradientTransform="matrix(0.6681 -0.6302 0.6002 0.6314 -609.0842 -164.1859)">
		<stop  offset="6.703911e-02" style="stop-color:#FFD540;stop-opacity:0"/>
		<stop  offset="0.4916" style="stop-color:#FFD540"/>
		<stop  offset="0.9441" style="stop-color:#E36D15"/>
	</linearGradient>
	<path class="st34" d="M143,163.6c1,1.7,8.8,11.4,16.8,10.6s2.8-3,0.8-3.2"/>
	
		<linearGradient id="SVGID_25_" gradientUnits="userSpaceOnUse" x1="-1732.6858" y1="476.7744" x2="-1719.1008" y2="511.0196" gradientTransform="matrix(-0.8714 0.2899 0.2718 0.8277 -1466.6841 334.8579)">
		<stop  offset="6.703911e-02" style="stop-color:#FFD540;stop-opacity:0"/>
		<stop  offset="0.4916" style="stop-color:#FFD540"/>
		<stop  offset="0.9441" style="stop-color:#E36D15"/>
	</linearGradient>
	<path class="st35" d="M170.9,221.1c-1.2,13,5.1,33.7,0.6,40.3s-4,1.1-3.2-0.9"/>
	
		<linearGradient id="SVGID_26_" gradientUnits="userSpaceOnUse" x1="-1718.2478" y1="515.9152" x2="-1710.6925" y2="550.6956" gradientTransform="matrix(-0.8714 0.2899 0.2718 0.8277 -1466.6841 334.8579)">
		<stop  offset="0.4916" style="stop-color:#FFD540"/>
		<stop  offset="0.9441" style="stop-color:#E36D15"/>
	</linearGradient>
	<path class="st36" d="M173.8,257.6c1.2,7.1,4.5,31.9,0,38.6s-4,1.1-3.2-0.9"/>
	
		<linearGradient id="SVGID_27_" gradientUnits="userSpaceOnUse" x1="-1782.5946" y1="704.4305" x2="-1775.0393" y2="739.2108" gradientTransform="matrix(-0.796 0.458 0.4316 0.7567 -1547.3762 520.0372)">
		<stop  offset="0.4916" style="stop-color:#FFD540"/>
		<stop  offset="0.9441" style="stop-color:#E36D15"/>
	</linearGradient>
	<path class="st37" d="M177.3,230c2.6,6.7,10.8,30.4,7.7,37.8c-3,7.4-3.7,1.9-3.3-0.2"/>
	
		<linearGradient id="SVGID_28_" gradientUnits="userSpaceOnUse" x1="-1113.9003" y1="1574.9022" x2="-1110.7722" y2="1594.1271" gradientTransform="matrix(4.008437e-02 0.9175 0.8705 -3.472316e-02 -1182.1305 1242.7844)">
		<stop  offset="0.2452" style="stop-color:#FFD540;stop-opacity:0"/>
		<stop  offset="0.6298" style="stop-color:#FFD540"/>
		<stop  offset="0.9441" style="stop-color:#E36D15"/>
	</linearGradient>
	<path class="st38" d="M140.9,163.7c1.9-0.5,14.2-2,19.4,4.1c5.2,6.1,0,4.1-1.7,2.9"/>
	
		<linearGradient id="SVGID_29_" gradientUnits="userSpaceOnUse" x1="106.9996" y1="114.1805" x2="122.916" y2="124.215" gradientTransform="matrix(0.9983 5.860420e-02 -5.860420e-02 0.9983 36.429 39.3698)">
		<stop  offset="6.703911e-02" style="stop-color:#FFD540;stop-opacity:0"/>
		<stop  offset="0.4916" style="stop-color:#FFD540"/>
		<stop  offset="0.9441" style="stop-color:#E36D15"/>
	</linearGradient>
	<path class="st39" d="M135.3,153.6c0.3,2.2,3.6,15.9,11.7,17.8c8.2,2,4.1-2.3,2.2-3.4"/>
	
		<linearGradient id="SVGID_30_" gradientUnits="userSpaceOnUse" x1="113.2517" y1="109.9277" x2="126.0049" y2="128.3829" gradientTransform="matrix(0.9983 5.860420e-02 -5.860420e-02 0.9983 36.429 39.3698)">
		<stop  offset="6.703911e-02" style="stop-color:#FFD540;stop-opacity:0"/>
		<stop  offset="0.4916" style="stop-color:#FFD540"/>
		<stop  offset="0.9441" style="stop-color:#E36D15"/>
	</linearGradient>
	<path class="st40" d="M135.9,154.8c0.8,2,7.2,14,15.5,13.1s3.4-3.6,1.3-3.9"/>
	
		<linearGradient id="SVGID_31_" gradientUnits="userSpaceOnUse" x1="106.9463" y1="111.202" x2="127.7029" y2="116.6518" gradientTransform="matrix(0.9983 5.860420e-02 -5.860420e-02 0.9983 36.429 39.3698)">
		<stop  offset="6.703911e-02" style="stop-color:#FFD540;stop-opacity:0"/>
		<stop  offset="0.4916" style="stop-color:#FFD540"/>
		<stop  offset="0.9441" style="stop-color:#E36D15"/>
	</linearGradient>
	<path class="st41" d="M136.4,154.6c1.1,1.7,9.3,11.4,16.9,8.8s2.5-4,0.5-3.9"/>
	<g>
		<path class="st42" d="M162.6,190.6c0.5,1,0.8,2.1,1.2,3.1c0.3,1,0.6,2.1,0.9,3.2c0.3,1.1,0.5,2.1,0.8,3.2l0.4,1.6
			c0.1,0.3,0.1,0.5,0.2,0.8c0,0.1,0.1,0.3,0.2,0.3c0,0.1,0.1-0.1,0.2-0.2c0,0.1,0,0.1,0,0.2c0,0.1,0,0.2-0.2,0.2
			c-0.2-0.1-0.3-0.2-0.4-0.3c-0.2-0.2-0.3-0.5-0.4-0.7c-0.2-0.5-0.5-1-0.6-1.5c-0.4-1-0.7-2.1-1-3.2
			C163.1,195,162.7,192.9,162.6,190.6z"/>
	</g>
	
		<linearGradient id="SVGID_32_" gradientUnits="userSpaceOnUse" x1="108.8364" y1="109.3184" x2="124.5524" y2="113.6862" gradientTransform="matrix(0.9983 5.860420e-02 -5.860420e-02 0.9983 36.429 39.3698)">
		<stop  offset="0.1043" style="stop-color:#FFD540;stop-opacity:0"/>
		<stop  offset="0.4078" style="stop-color:#FFD540"/>
		<stop  offset="0.8531" style="stop-color:#E36D15"/>
	</linearGradient>
	<path class="st43" d="M138.1,155.1c1.7,2,4.7,5.4,11.8,4.9c8.7-0.6,1.4-4.1-0.4-3.7"/>
	<g>
		<path class="st42" d="M170.1,205.2c0.4,1,0.7,2.1,0.9,3.2c0.3,1.1,0.5,2.1,0.7,3.2c0.2,1.1,0.4,2.2,0.5,3.2l0.2,1.6
			c0,0.3,0.1,0.5,0.2,0.8c0,0.1,0.1,0.3,0.1,0.3c0,0.1,0.2-0.1,0.2-0.2c0,0.1,0,0.1,0,0.2c0,0.1-0.1,0.2-0.2,0.2
			c-0.2-0.1-0.2-0.2-0.3-0.3c-0.2-0.2-0.3-0.5-0.4-0.8c-0.2-0.5-0.4-1.1-0.5-1.6c-0.3-1.1-0.5-2.1-0.7-3.2
			C170.4,209.6,170.1,207.4,170.1,205.2z"/>
	</g>
	<g>
		<path class="st42" d="M176.6,213.4c0.3,1.1,0.5,2.2,0.7,3.2c0.2,1.1,0.3,2.2,0.4,3.3c0.1,1.1,0.2,2.2,0.3,3.3l0.1,1.6
			c0,0.3,0,0.5,0.1,0.8c0,0.1,0.1,0.3,0.1,0.3c0,0.1,0.2-0.1,0.2-0.2c0,0.1,0,0.1,0,0.2c0,0.1-0.1,0.2-0.2,0.2
			c-0.2-0.1-0.2-0.2-0.3-0.4c-0.1-0.3-0.2-0.5-0.3-0.8c-0.2-0.5-0.3-1.1-0.4-1.6c-0.2-1.1-0.4-2.2-0.5-3.3
			C176.5,217.8,176.4,215.6,176.6,213.4z"/>
	</g>
	<g>
		<path class="st42" d="M163.7,180.7c1.1,2.2,2,4.4,2.8,6.7c0.9,2.2,1.7,4.5,2.4,6.8c0.7,2.3,1.4,4.6,1.9,7c0.5,2.4,1,4.8,1,7.2
			c-0.1-0.6-0.2-1.2-0.4-1.8l-0.4-1.7c-0.3-1.2-0.6-2.3-0.9-3.5c-0.7-2.3-1.4-4.6-2.1-6.9l-2.2-6.9l-1.1-3.4L163.7,180.7z"/>
	</g>
	<g>
		<path class="st42" d="M158.6,176.2c2,3.5,3.6,7.3,4.9,11.1c0.6,1.9,1.2,3.9,1.6,5.9c0.4,2,0.7,4,0.7,6.1c-0.4-2-0.9-3.9-1.5-5.9
			c-0.6-1.9-1.2-3.8-1.8-5.8c-0.6-1.9-1.3-3.8-2-5.7C159.9,180,159.3,178.1,158.6,176.2z"/>
	</g>
	<g>
		<path class="st44" d="M182.6,293.6c0.6,1.9,0.7,3.9,0.6,5.9c-0.1,2-0.4,3.9-1.1,5.8c-0.1-2,0-3.9,0.1-5.9
			C182.3,297.5,182.4,295.6,182.6,293.6z"/>
	</g>
	<g>
		<path class="st44" d="M180.8,275.7c0.8,2.9,1.1,5.9,1.3,8.8c0.2,3,0.1,6-0.1,8.9c-0.2,3-0.5,6-1.3,8.9c-0.2,0.7-0.4,1.5-0.7,2.2
			c-0.1,0.2-0.2,0.4-0.3,0.5c-0.1,0.2-0.3,0.4-0.7,0.4c-0.4-0.1-0.5-0.3-0.6-0.5c-0.1-0.2-0.2-0.4-0.2-0.6c-0.4-1.5-0.5-3-0.6-4.5
			c0.3,1.5,0.5,2.9,1,4.3c0.1,0.2,0.1,0.3,0.2,0.5c0.1,0.1,0.2,0.2,0.2,0.2c0,0,0.1-0.1,0.2-0.2c0.1-0.1,0.2-0.3,0.2-0.4
			c0.3-0.7,0.4-1.4,0.6-2.1c0.5-2.9,0.8-5.8,1-8.8c0.2-2.9,0.3-5.9,0.3-8.9c0-1.5,0-3-0.1-4.4C181.2,278.6,181,277.1,180.8,275.7z"
			/>
	</g>
	<g>
		<path class="st44" d="M170.1,266.5c0.6,2.7,0.8,5.4,0.9,8.2c0.1,2.7-0.1,5.5-0.4,8.2c-0.4,2.7-0.7,5.4-1.7,8.1
			c-0.1,0.3-0.3,0.7-0.5,1c-0.1,0.2-0.2,0.3-0.4,0.5c-0.1,0.1-0.4,0.4-0.8,0.3c-0.3-0.1-0.4-0.3-0.5-0.5c-0.1-0.2-0.2-0.3-0.2-0.5
			c-0.1-0.3-0.2-0.7-0.3-1c-0.2-1.4-0.3-2.7-0.3-4.1c0.2,1.3,0.4,2.7,0.8,4c0.1,0.3,0.2,0.6,0.3,0.9c0.1,0.3,0.3,0.6,0.4,0.6
			c0,0,0.2-0.2,0.4-0.5c0.1-0.3,0.3-0.6,0.4-0.9c0.8-2.5,1.1-5.3,1.4-7.9c0.3-2.7,0.5-5.4,0.6-8.1c0.1-1.4,0.1-2.7,0-4.1
			C170.3,269.2,170.2,267.8,170.1,266.5z"/>
	</g>
	<g>
		<path class="st9" d="M153.3,187.2c-0.2-0.3-0.5-0.5-0.8-0.7c-0.3-0.2-0.6-0.4-1-0.6c-0.3-0.2-0.7-0.5-1-1
			c-0.1-0.1-0.2-0.3-0.2-0.5c-0.1-0.2-0.1-0.4-0.1-0.6c0-0.2,0.1-0.5,0.2-0.8c0.1-0.2,0.2-0.4,0.4-0.6l2,2.2c0-0.1,0-0.1,0.1-0.2
			c0-0.1,0-0.2,0-0.3c0-0.1-0.1-0.2-0.2-0.1c-0.1,0.2,0,0.5,0.1,0.8c0.1,0.3,0.2,0.7,0.4,1C153.2,186.4,153.4,186.8,153.3,187.2z"/>
	</g>
	
		<linearGradient id="SVGID_33_" gradientUnits="userSpaceOnUse" x1="468.8372" y1="-30.1577" x2="476.2912" y2="-15.307" gradientTransform="matrix(0.6949 2.639307e-02 -3.451387e-02 0.7663 -191.4724 163.4661)">
		<stop  offset="6.703911e-02" style="stop-color:#FFD540;stop-opacity:0"/>
		<stop  offset="0.4916" style="stop-color:#FFD540"/>
		<stop  offset="0.9441" style="stop-color:#E36D15"/>
	</linearGradient>
	<path class="st45" d="M135.3,148.2c-0.4,1.4-1.6,10.4,3,14.1s3.1,0,2.1-1.2"/>
	
		<linearGradient id="SVGID_34_" gradientUnits="userSpaceOnUse" x1="617.4464" y1="240.9387" x2="624.9003" y2="255.7894" gradientTransform="matrix(0.6799 -0.1461 0.1558 0.7511 -320.9395 61.5879)">
		<stop  offset="6.703911e-02" style="stop-color:#FFD540;stop-opacity:0"/>
		<stop  offset="0.4916" style="stop-color:#FFD540"/>
		<stop  offset="0.9441" style="stop-color:#E36D15"/>
	</linearGradient>
	<path class="st46" d="M135.2,148c0,1.4,1,10.4,6.4,12.9c5.4,2.5,3-0.8,1.8-1.7"/>
	
		<linearGradient id="SVGID_35_" gradientUnits="userSpaceOnUse" x1="692.5452" y1="649.0777" x2="699.9991" y2="663.9284" gradientTransform="matrix(0.5919 -0.365 0.398 0.6557 -530.1351 -19.0923)">
		<stop  offset="6.703911e-02" style="stop-color:#FFD540;stop-opacity:0"/>
		<stop  offset="0.4916" style="stop-color:#FFD540"/>
		<stop  offset="0.9441" style="stop-color:#E36D15"/>
	</linearGradient>
	<path class="st47" d="M135.5,150c0.5,1.4,4.5,9.5,10.4,10c5.9,0.6,2.5-1.8,1.1-2.2"/>
	
		<linearGradient id="SVGID_36_" gradientUnits="userSpaceOnUse" x1="645.3833" y1="960.4354" x2="652.8372" y2="975.2861" gradientTransform="matrix(0.4769 -0.5062 0.5546 0.5299 -701.8406 -29.747)">
		<stop  offset="6.703911e-02" style="stop-color:#FFD540;stop-opacity:0"/>
		<stop  offset="0.4916" style="stop-color:#FFD540"/>
		<stop  offset="0.9441" style="stop-color:#E36D15"/>
	</linearGradient>
	<path class="st48" d="M135.1,149.6c0.8,1.2,6.8,8,12.6,7s2-2.4,0.5-2.4"/>
</g>
</svg>
