<?xml version="1.0" encoding="utf-8"?>
<!-- Generator: Adobe Illustrator 24.0.2, SVG Export Plug-In . SVG Version: 6.00 Build 0)  -->
<svg version="1.1" id="Layer_1" xmlns="http://www.w3.org/2000/svg" xmlns:xlink="http://www.w3.org/1999/xlink" x="0px" y="0px"
	 viewBox="0 0 419 339" style="enable-background:new 0 0 419 339;" xml:space="preserve">
<style type="text/css">
	.st0{fill:url(#SVGID_1_);}
	.st1{opacity:0.3;}
	.st2{fill:#7C2A28;}
	.st3{opacity:0.8;fill:url(#SVGID_2_);}
	.st4{fill:url(#SVGID_3_);}
	.st5{fill:#FAF7E4;}
	.st6{fill:#4A5362;}
	.st7{opacity:0.5;}
	.st8{fill:#A5A1A0;}
	.st9{opacity:0.5;fill:#A5A1A0;}
	.st10{fill:#EAEAD8;}
	.st11{fill:url(#SVGID_4_);}
	.st12{fill:url(#SVGID_5_);}
	.st13{fill:url(#SVGID_6_);}
	.st14{fill:#A64B3E;}
	.st15{fill:#EBEBEB;}
	.st16{fill:#EBEBEA;}
	.st17{fill:url(#SVGID_7_);}
	.st18{fill:url(#SVGID_8_);}
	.st19{fill:url(#SVGID_9_);}
	.st20{fill:url(#SVGID_10_);}
	.st21{fill:url(#SVGID_11_);}
	.st22{fill:#ECEBEB;}
	.st23{fill:#A8271A;}
	.st24{opacity:0.2;fill:#A5A1A0;}
	.st25{fill:#DBD8CA;}
	.st26{fill:#A9B8EA;}
	.st27{fill:url(#SVGID_12_);}
	.st28{fill:url(#SVGID_13_);}
	.st29{fill:url(#SVGID_14_);}
	.st30{fill:url(#SVGID_15_);}
	.st31{fill:url(#SVGID_16_);}
	.st32{fill:url(#SVGID_17_);}
	.st33{fill:url(#SVGID_18_);}
	.st34{fill:url(#SVGID_19_);}
	.st35{fill:url(#SVGID_20_);}
	.st36{fill:url(#SVGID_21_);}
	.st37{fill:url(#SVGID_22_);}
	.st38{fill:none;stroke:url(#SVGID_23_);stroke-miterlimit:10;}
	.st39{fill:url(#SVGID_24_);}
	.st40{fill:url(#SVGID_25_);}
	.st41{fill:url(#SVGID_26_);}
</style>
<g>
	
		<linearGradient id="SVGID_1_" gradientUnits="userSpaceOnUse" x1="13.1065" y1="-321.9814" x2="71.305" y2="-321.9814" gradientTransform="matrix(0.962 -0.2732 0.2732 0.962 188.6553 482.7609)">
		<stop  offset="0" style="stop-color:#BC6353"/>
		<stop  offset="0.6347" style="stop-color:#BC6153"/>
		<stop  offset="0.8631" style="stop-color:#BB5A52"/>
		<stop  offset="1" style="stop-color:#B95151"/>
	</linearGradient>
	<path class="st0" d="M131.8,153.9c-2.6,1.8-10.7,11.9-11.4,14.2c-0.7,2.3-6.8,9.6-3.7,11.8c1.6,1.1,2.5,0.6,3.3-0.4
		c-0.3,1.7-2.3,4.8-0.4,5.9s3.8-0.3,4.7-1.9c-0.7,2.3-0.3,2.7,0.3,3c0.6,0.3,2.7,1.3,5-2.7c0.5,0.9,2.2,3.3,4.7,0
		c2.5-3.3,8.6-10,9.6-11.1c1-1.1,10.1-7.6,11.4-10.3c1.7-2.3,4.7-5.5,6.6-6.3c1.9-0.8,7-3.8,7-3.8l-11.3-16.6
		c-1.6,1-7.8,5.6-11.5,7.4c-3.7,1.8-13.4,4.3-15.4,5.4c-2,1.1-10.1,21.4-5.4,13c4.3-1.5,6.2-3.1,6.4-5c1.2,2.3,3,3.3,6.1,3"/>
	<g class="st1">
		<path class="st2" d="M125.3,161.4c0.6-0.4,1.2-0.8,1.8-1.1c0.6-0.3,1.2-0.7,1.9-0.9c0.6-0.3,1.3-0.6,1.7-1.1
			c0.5-0.5,0.7-1.2,0.7-1.8l0-1.1l0.7,1c0.3,0.5,0.7,0.9,1.1,1.3c0.4,0.4,0.9,0.7,1.3,0.9c0.5,0.2,1,0.4,1.6,0.6
			c0.6,0.1,1.2,0.2,1.8,0.3l0,0.1c-0.6,0.2-1.2,0.3-1.9,0.3c-0.6,0-1.3-0.1-1.9-0.4c-0.6-0.2-1.2-0.7-1.6-1.2
			c-0.4-0.5-0.8-1.1-1-1.7l0.7-0.1c-0.2,0.8-0.7,1.4-1.1,1.9c-0.5,0.5-1,1.1-1.6,1.6c-0.6,0.5-1.3,0.8-1.9,1
			C126.8,161.3,126.1,161.4,125.3,161.4L125.3,161.4z"/>
	</g>
	<g class="st1">
		<path class="st2" d="M130.3,164.6c-0.4,0.8-0.8,1.6-1.3,2.4c-0.3,0.4-0.5,0.7-0.8,1.1c-0.3,0.4-0.6,0.7-0.9,1l0-0.1
			c-0.7,0.9-1.3,1.7-1.8,2.7c-0.3,0.5-0.5,0.9-0.8,1.4c-0.3,0.5-0.6,0.9-0.8,1.3c-0.5,1-1.1,1.9-1.8,2.7c-0.7,0.8-1.4,1.7-2.2,2.4
			l-0.1-0.1c0.4-1,0.9-1.9,1.5-2.9c0.5-0.9,1.1-1.8,1.7-2.7c0.6-1,1.4-1.7,2.1-2.5c0.7-0.8,1.3-1.7,1.6-2.7l0-0.1
			c0.2-0.4,0.4-0.8,0.7-1.2c0.3-0.4,0.5-0.7,0.8-1.1C128.9,165.8,129.5,165.2,130.3,164.6L130.3,164.6z"/>
	</g>
	<g class="st1">
		<path class="st2" d="M133.8,167.6c0,0.5-0.1,0.9-0.2,1.4c-0.2,0.4-0.4,0.9-0.6,1.2c-0.2,0.4-0.5,0.8-0.7,1.1
			c-0.2,0.4-0.6,0.7-0.8,1l0-0.1c-0.3,0.6-0.7,1.2-1,1.8c-0.3,0.6-0.6,1.2-0.9,1.8c-0.3,0.6-0.6,1.2-0.9,1.8
			c-0.4,0.6-0.7,1.2-1.2,1.7l0.1-0.2c-0.2,0.5-0.4,0.9-0.7,1.3c-0.3,0.4-0.5,0.7-0.8,1.1c-0.6,0.7-1.2,1.4-1.9,2l-0.1-0.1
			c0.4-0.8,0.8-1.6,1.2-2.4l0.6-1.2c0.2-0.4,0.4-0.8,0.6-1.1l0-0.1l0.1-0.1c0.4-0.4,0.8-1,1.2-1.5c0.4-0.5,0.8-1.1,1.2-1.6
			c0.4-0.5,0.8-1.1,1.1-1.7c0.3-0.6,0.5-1.2,0.6-1.9l0-0.1c0.4-0.9,0.9-1.6,1.4-2.3C132.8,169,133.3,168.4,133.8,167.6L133.8,167.6z
			"/>
	</g>
	<g class="st1">
		<path class="st2" d="M137.9,171.1c-0.2,0.7-0.5,1.2-0.8,1.8c-0.3,0.6-0.7,1.1-1.1,1.6c-0.4,0.5-0.9,0.9-1.3,1.4
			c-0.4,0.5-0.7,1.1-1,1.6c-0.6,1.2-1.3,2.2-2,3.3c-0.4,0.5-0.7,1-1.1,1.5c-0.4,0.5-0.8,1-1,1.6l-0.1,0c-0.1-0.7,0.2-1.4,0.4-2
			c0.3-0.6,0.6-1.2,0.9-1.7c0.3-0.5,0.7-1.1,1.1-1.6c0.4-0.5,0.8-1,1.3-1.5c0.4-0.5,0.9-1,1.2-1.5c0.3-0.5,0.6-1.1,0.9-1.7
			C136,172.9,136.9,171.9,137.9,171.1L137.9,171.1z"/>
	</g>
</g>
<linearGradient id="SVGID_2_" gradientUnits="userSpaceOnUse" x1="132.25" y1="312.0859" x2="406.25" y2="312.0859">
	<stop  offset="0.2561" style="stop-color:#AED879;stop-opacity:0"/>
	<stop  offset="0.2815" style="stop-color:#ADD778;stop-opacity:4.211080e-02"/>
	<stop  offset="0.5749" style="stop-color:#A6CA73;stop-opacity:0.529"/>
	<stop  offset="0.8588" style="stop-color:#A3C671"/>
</linearGradient>
<path class="st3" d="M406.3,310.1c-49,0-127-8.2-274,3.3c147,4.9,235,3.3,235,3.3l-85.3-3.3L406.3,310.1z"/>
<linearGradient id="SVGID_3_" gradientUnits="userSpaceOnUse" x1="-2856.25" y1="237.6833" x2="1113.25" y2="237.6833">
	<stop  offset="9.056152e-02" style="stop-color:#E8EFF9"/>
	<stop  offset="0.2847" style="stop-color:#CED8F3"/>
	<stop  offset="0.4966" style="stop-color:#BAC6EE"/>
	<stop  offset="0.706" style="stop-color:#ADBCEB"/>
	<stop  offset="0.9082" style="stop-color:#A9B8EA"/>
</linearGradient>
<path class="st4" d="M207.8,136.5c-73,64-70.6,60.1-74,36c-3-21-9.2-13.7-23-1C72,207,55.3,273.8,0.6,307.5v31.4h159.1
	c-15.4-35.4-15.1-71.7,7.1-91.4c29.3-26.1,50.3-44.4,52-67C220.8,154.5,215.3,149.8,207.8,136.5z"/>
<path class="st5" d="M207.3,91.6c-4.1,4.8-11.5,12.1-15.6,15s-21.3,14-26.1,21c-4.8,7-22.9,9.2-23.3,13.7
	c-0.3,4.5,12.4,20.4,15,22.6c6.1-1.9,18.2-8.6,24.2-10.5c6.1-1.9,9.6-6.7,12.4-6.7s10.8-7.6,15.9-7.6c5.1-2.5,12.7-14.7,14.7-15.9
	c1.9-1.3,2.9-1.6,6.4-5.7c3.5-4.1,6.7-6.4,7-7.6C238.2,108.5,207.3,91.6,207.3,91.6z"/>
<path class="st6" d="M262.1,176.8c-3.7,10.4-23.8,46.1-31.8,62.2c-3.7,7.4,2.2,25.2,7.4,55.5c-6.7,0.7-34-5.2-32.6,11.8
	c0.7,7.7,51.8,11,51.8-2.2c0-18.5,5.2-51.8-1.5-60.7c15.5-14.1,34-34.8,36.3-46.6C293.9,185,262.1,176.8,262.1,176.8z"/>
<path class="st6" d="M281.7,173c1.5,10.9,0.1,51.8,0.4,69.8c0.1,8.3,13.6,21.3,32.2,45.8c-2.3,1.6-2.6,5.8-11.5,7.3
	c-5.5,0.9-16.4,2.7-11.1,11.1c2.1,3.4,6.6,3.5,20.7,3c33.3-8.1,26.3-16,23.4-21.7c-8.5-16.4-19.3-48.4-29.3-53.2
	c7.3-19.6,14.2-46.6,10.7-58.1C313.7,165.6,281.7,173,281.7,173z"/>
<path class="st5" d="M229.1,243.4c-0.6,9.1,4.2,25.6,8.5,50.7c-6.7,0.7-34-5.2-32.6,11.8c0.7,7.7,51.8,11,51.8-2.2
	c0-18.3,5-50.9-1.2-60.3H229.1z"/>
<path class="st5" d="M335.8,288c-8.2-15.7-18.4-45.7-28-52.4c-0.8,0.4-1.6,0.5-2.5,0.6c-1.9,0.2-3.7,0.2-5.5,0.6
	c-2.7,0.7-5.5,1.4-8.1,2.3c-2.3,0.8-4.4,1.7-6.7,2.3c-0.9,0.3-1.9,0.6-2.8,1c0.2,8.3,13.6,21.3,32.2,45.8c-2.3,1.6-2.6,5.8-11.5,7.3
	c-5.5,0.9-16.4,2.7-11.1,11.1c2.1,3.4,6.6,3.5,20.7,3C345.7,301.5,338.7,293.7,335.8,288z"/>
<g>
	<path class="st5" d="M325,117.6c5.1,5.1,32.1,92,31.2,100.2s-8.6,4.8-11.2,3.5c-2.2,4.1-9.6,11.5-30.9,13.1s-22.3-2.2-36.6,0
		s-27.1-4.1-34.7-8c-7.6-3.8-17.8-2.2-8.6-14c9.2-11.8,36.3-62.8,35-66.6c-1.3-3.8,22-21,22-21L325,117.6z"/>
	<g class="st7">
		<path class="st8" d="M293.4,133.7c0.2,3.6,0.1,7.3,0,10.9c-0.1,3.6-0.3,7.2-0.5,10.9c-0.2,3.6-0.5,7.2-0.9,10.8
			c-0.4,3.6-0.8,7.2-1.5,10.8c0.2-1.8,0.3-3.6,0.4-5.4c0.1-1.8,0.2-3.6,0.3-5.4l0.6-10.8l0.7-10.8L293.4,133.7z"/>
	</g>
	<g class="st7">
		<path class="st8" d="M286.4,191.4l-3,9.8c-1,3.3-2,6.5-3.1,9.8c-1.1,3.3-2.2,6.5-3.4,9.7c-1.2,3.2-2.3,6.5-3.9,9.5
			c0.6-1.6,1.1-3.2,1.7-4.9l1.6-4.9c1-3.3,2.1-6.5,3.1-9.8c1.1-3.2,2.2-6.5,3.3-9.7C283.8,197.8,285,194.6,286.4,191.4z"/>
	</g>
	<g class="st7">
		<path class="st8" d="M301.7,132.8c0.3,8,0.2,15.9,0.1,23.9c-0.1,8-0.4,15.9-0.8,23.9c-0.4,8-0.8,15.9-1.6,23.9
			c-0.4,4-0.8,7.9-1.3,11.9c-0.3,2-0.6,3.9-1,5.9c-0.4,2-0.8,3.9-1.6,5.8c0.7-1.9,1-3.9,1.3-5.8c0.3-2,0.5-3.9,0.7-5.9
			c0.4-4,0.7-7.9,1-11.9c0.5-7.9,1-15.9,1.3-23.9c0.4-8,0.7-15.9,1-23.9l0.4-11.9C301.5,140.8,301.6,136.8,301.7,132.8z"/>
	</g>
	<g class="st7">
		<path class="st8" d="M309.3,130.6c1.4,2.2,1.8,4.9,2.3,7.4c0.5,2.6,0.7,5.1,0.9,7.7c0.2,2.6,0.3,5.2,0.3,7.7c0,2.6,0,5.2-0.4,7.7
			c0-1.3-0.1-2.6-0.2-3.9c-0.1-1.3-0.1-2.6-0.2-3.9l-0.5-7.7c-0.2-2.6-0.4-5.1-0.7-7.7c-0.1-1.3-0.3-2.5-0.5-3.8
			C310.1,133,309.8,131.7,309.3,130.6z"/>
	</g>
	<g class="st7">
		<path class="st8" d="M313.8,180.6l0.7,11.9l0.7,11.9l0.6,11.9l0.3,5.9c0.1,2,0.2,4,0.3,5.9c-0.7-3.9-1-7.9-1.4-11.8
			c-0.3-4-0.5-7.9-0.8-11.9c-0.2-4-0.3-7.9-0.4-11.9C313.7,188.5,313.6,184.5,313.8,180.6z"/>
	</g>
	<g class="st7">
		<path class="st8" d="M336.4,170.7c0.9,4.3,1.5,8.6,2.2,12.9c0.7,4.3,1.2,8.6,1.9,13l1.7,13c0.3,2.2,0.6,4.3,0.9,6.5
			c0.3,2.2,0.6,4.3,1.2,6.4c-0.8-2-1.2-4.2-1.7-6.3c-0.4-2.1-0.8-4.3-1.2-6.4c-0.7-4.3-1.3-8.6-2-13c-0.5-4.3-1.1-8.7-1.6-13
			L336.4,170.7z"/>
	</g>
</g>
<path class="st9" d="M327.2,119.8c0,0,1.5,3.8,1.5,3.7c0,0-10.4,3.7-22.9,7.4c-7.7,2.3-9.6,2.2-16.3,3c-4.5,4.9-14.8,11.8-18.5,17
	c-6.6,9.2-7.4,9.6-7.4,9.6l-2.2-3.7l23.7-25.9L327.2,119.8z"/>
<path class="st10" d="M231.3,61.1c24.1-16,27.8-0.5,47.8,11.3c10.9,6.4,28.6,21.2,34.7,24.3c6.1,3.2,24.2,17.8,14.3,27.4
	c-2.2-1.6,1.3-4.5-4.8-0.6c-6.1,3.8-16.6,3.2-19.1,5.7c-2.5,2.5-9.6,3.8-12.7,3.2c-3.2-0.6-3.2-0.3-6.1,3.5s-17.5,15-18.2,17.5
	c-0.6,2.5-2.2,8.9-6.1,6.1s-6.1-12.1-10.5-20.4s-12.4-18.2-21.3-23.9c-8.9-5.7-24.2-18.2-29.3-18.8c5.7-10.2,8.3-19.1,17.2-22.3
	C226.2,71,221.9,67.3,231.3,61.1z"/>
<g>
	<linearGradient id="SVGID_4_" gradientUnits="userSpaceOnUse" x1="209.9785" y1="129.2442" x2="224.2139" y2="158.0088">
		<stop  offset="0" style="stop-color:#BC6353"/>
		<stop  offset="0.6347" style="stop-color:#BC6153"/>
		<stop  offset="0.8631" style="stop-color:#BB5A52"/>
		<stop  offset="1" style="stop-color:#B95151"/>
	</linearGradient>
	<path class="st11" d="M231.8,125.1c-4.1,1.9-7.6,1.3-11.5,2.5c-3.8,1.3-10.6,3.5-13.1,4.3c-4,3-11.4,13.1-5,11c3-1,8.2-5.1,8.2-5.1
		s-8.6,10.8-9.9,12.4c-1.3,1.6-6.8,6.5-4.5,9.6c2,2.5,5.1-1.3,8.8-5.3c1.3-1.4,5.3-4,6.5-5.9c-1.3,3.2-9.6,16.6-8.6,18.2
		c0.9,1.5,3.9,1.6,5-0.7c0-0.1,0.1,0,0.1,0c0,1.4,1.1,1.2,2.9,0.3c1.9-1,7.6-3.8,9.6-5.4c-3.2,3.2-4.1,4.8-3,6.8
		c1,1.9,2.7-0.5,3.3-1.4c0.6-1,4.9-3.7,8.4-9.7c7.6-9.2,6.2-7.5,7.5-9.1c1.3-1.6,6.1-11.2,6.1-11.2L231.8,125.1z"/>
	<g class="st1">
		<path class="st2" d="M221.3,150l-3.1,4.4c-1,1.4-2,2.9-3.2,4.3c-2.4,2.7-4.9,5.1-7.3,7.8c1.8-3.1,4.2-5.8,6.5-8.4
			c1.1-1.3,2.2-2.8,3.3-4.1C218.8,152.5,220,151.2,221.3,150z"/>
	</g>
	<g class="st1">
		<path class="st2" d="M224.3,156.8c-0.4,1-1,1.8-1.6,2.5c-0.7,0.7-1.4,1.4-2.4,1.8c0.4-1,1-1.8,1.6-2.5
			C222.7,157.9,223.4,157.3,224.3,156.8z"/>
	</g>
	<g class="st1">
		<path class="st2" d="M219.1,130.2c-1.3,1.5-2.7,2.9-4.2,4.1c-1.5,1.3-3,2.5-4.6,3.7c0.5-0.9,1.1-1.6,1.8-2.4
			c0.7-0.7,1.4-1.4,2.1-2C215.8,132.3,217.3,131.1,219.1,130.2z"/>
	</g>
</g>
<linearGradient id="SVGID_5_" gradientUnits="userSpaceOnUse" x1="224.0779" y1="79.8013" x2="238.1638" y2="40.0989">
	<stop  offset="0.1574" style="stop-color:#BC6353"/>
	<stop  offset="0.6227" style="stop-color:#BC6153"/>
	<stop  offset="0.7902" style="stop-color:#BB5A53"/>
	<stop  offset="0.9093" style="stop-color:#BA4F52"/>
	<stop  offset="1" style="stop-color:#B93F51"/>
</linearGradient>
<path class="st12" d="M226.7,45.9c0.1-1.4,1.7-6.6,4.7-6.9s4.5,0.8,5.4,2.9c0.9,2.1,0,8-4.9,12.8c0.9,2.1,2.9,6.7,6.3,7.4
	c-1.2,3.6-5.3,22.4-6.5,22.9s-7.4-5.9-7.4-5.9L226.7,45.9z"/>
<linearGradient id="SVGID_6_" gradientUnits="userSpaceOnUse" x1="197.5208" y1="58.4994" x2="210.838" y2="21.6991">
	<stop  offset="0" style="stop-color:#B95F51"/>
	<stop  offset="0.8426" style="stop-color:#BC6353"/>
</linearGradient>
<path class="st13" d="M186.7,28.9c-1.7,1.8-6.4,6.9-5.2,11.3c1.2,4.4,3.3,10,1.6,11.1c-1.6,1-1.7,5.4,5.4,16.2s33.1-9.3,33.1-9.3
	l1-27.5l-17.7-9.7L186.7,28.9z"/>
<g>
	<path class="st14" d="M191.8,54.9c-0.6,1.1-1.7,2-3.1,2.2c-0.7,0.1-1.4,0-2-0.2c-0.6-0.3-1.1-0.7-1.5-1.2c0.6,0.2,1.2,0.4,1.7,0.5
		c0.6,0.1,1.1,0.1,1.6,0C189.6,56,190.6,55.5,191.8,54.9z"/>
</g>
<g>
	<path class="st14" d="M213.3,48.5c-0.4,0.7-0.9,1.3-1.5,1.9c-0.6,0.5-1.3,1-2,1.3c-0.8,0.3-1.6,0.5-2.4,0.5c-0.8,0-1.6-0.3-2.3-0.8
		c0.8,0.1,1.5,0.1,2.2,0.1c0.7-0.1,1.4-0.3,2-0.6C210.7,50.2,212,49.4,213.3,48.5z"/>
</g>
<g>
	<path class="st14" d="M213.9,51.4c-0.2,0.6-0.7,1.1-1.3,1.5c-0.3,0.2-0.6,0.3-0.9,0.4c-0.3,0.1-0.6,0.1-1,0.2
		c0.3-0.1,0.6-0.2,0.9-0.3c0.3-0.1,0.6-0.3,0.8-0.5c0.3-0.2,0.5-0.4,0.7-0.6C213.4,51.9,213.7,51.7,213.9,51.4z"/>
</g>
<g>
	<path class="st14" d="M189.5,58.5c-0.3,0.4-0.9,0.6-1.4,0.7c-0.3,0-0.5,0-0.8-0.1c-0.3-0.1-0.5-0.2-0.7-0.3
		c0.3,0.1,0.5,0.1,0.7,0.1c0.2,0,0.5,0,0.7,0c0.2,0,0.5-0.1,0.7-0.1C189,58.7,189.3,58.6,189.5,58.5z"/>
</g>
<path class="st15" d="M190.8,64c-1.9,0.5-7.6,8.8,2.4,26.9c5.6,10,18.5,20.7,28.9-1.5c2.3-5,10.4-10.4,10.6-20.9
	c0.1-3.1-3.5-18.6-6.2-22.6c1.1-6.4,6.1-9.2,9.7-5.6c-0.6-4.6-0.4-14.7-6.2-19.2c-5.7-4.5-8.6-5.6-13.8-6.5
	c-5.2-0.9-15.8-2.7-25.2,6.7c-15.5,15.5-5.9,13.3-3.7,10.2c3.7-5.3,17.2-6.7,19.5-7c2.3-0.3,5-2.1,13.5,10.5
	c0.3,4,3.3,12.5-0.2,18.1s-4.4,5-8.5,4.4c-2.5,3.1-2.3,5.9-5.5,8.2c-2.1,1.6-10.1,4.7-11.9-1.1C193.4,61.9,190.8,64,190.8,64z"/>
<g>
	<path class="st14" d="M202.1,29.7c-2.1,0.6-4.2,1.1-6.2,1.7c-1,0.3-2.1,0.6-3.1,0.8c-1,0.3-2,0.6-3,1c0.8-0.8,1.8-1.3,2.8-1.8
		c1-0.5,2-0.8,3.1-1.1c1.1-0.3,2.1-0.5,3.2-0.6C199.9,29.7,201,29.6,202.1,29.7z"/>
</g>
<g>
	<path class="st14" d="M199.5,33.6c-0.7,0.1-1.3,0.2-2,0.3c-0.7,0.1-1.3,0.2-1.9,0.4c-0.6,0.1-1.3,0.3-1.9,0.5
		c-0.6,0.2-1.2,0.5-1.8,0.8c1-0.9,2.4-1.3,3.6-1.6C196.9,33.7,198.2,33.5,199.5,33.6z"/>
</g>
<path class="st16" d="M213.2,35.4c-0.6-1.1-4.2-1.7-5.8-1.3c-1.6,0.3-3.4,0.1-4-0.4c0,0.7-1.8,0.8-2.7,0.1c-0.3,0.1-0.3,1.8-1.1,1.5
	c-0.8-0.3-2,0.2-0.5,1.3c1.5,1.1,3,2.2,3.9,1.8s3.7-2.6,6.7-2.2C210.6,36.3,214.7,38.2,213.2,35.4z"/>
<path class="st16" d="M182.4,45.1c0.1-0.6,0.7-2.4,2.2-3.7c1.5-1.3,2.8-1.5,2.8-2.3s0.8-0.7,1-0.1c0.5-0.5,0.1-2.1,1.1-1.5
	c1,0.6,1,1.6,1.5,1.1c0.5-0.5,0.8-1.4,1-0.8c0.3,0.6,0.6,2.2-0.5,3s-5.1,1.8-6.4,2.8C183.8,44.5,181.9,47.4,182.4,45.1z"/>
<g>
	<linearGradient id="SVGID_7_" gradientUnits="userSpaceOnUse" x1="185.1883" y1="50.1233" x2="187.8841" y2="50.1233">
		<stop  offset="0" style="stop-color:#52422A"/>
		<stop  offset="0.4291" style="stop-color:#4A2B13"/>
	</linearGradient>
	<polygon class="st17" points="185.4,50.7 187.4,49.2 187.9,51.1 	"/>
</g>
<g>
	<linearGradient id="SVGID_8_" gradientUnits="userSpaceOnUse" x1="208.7791" y1="43.8035" x2="211.9848" y2="43.8035">
		<stop  offset="0" style="stop-color:#52422A"/>
		<stop  offset="0.4291" style="stop-color:#4A2B13"/>
	</linearGradient>
	<path class="st18" d="M211.7,43.3c-0.4,0.3-0.9,0.6-1.3,0.8c-0.2,0.1-0.5,0.3-0.7,0.4c-0.3,0.1-0.5,0.3-0.9,0.3l0.1-2
		c0.1,0.1,0.3,0.1,0.6,0.2c0.2,0,0.5,0.1,0.7,0.1C210.7,43.2,211.2,43.2,211.7,43.3z"/>
</g>
<path class="st1" d="M215.3,61c0.7,0-1,0-4-1c-3.6-1.2-2.7-2.2-10.7,2.4c-1.5,0-3.9-0.9-6.6,0.3c-2.3,1-3.7,1.3-4.7,4.3
	c4-2,3.9,0,7-1s3.8-2.1,4.5-2.1c0.7,0,4.5,0.8,7.2-0.3C210.5,62.5,212.3,61,215.3,61z"/>
<linearGradient id="SVGID_9_" gradientUnits="userSpaceOnUse" x1="208.1045" y1="47.7424" x2="207.8705" y2="43.9589">
	<stop  offset="0" style="stop-color:#52422A"/>
	<stop  offset="0.4291" style="stop-color:#4A2B13"/>
</linearGradient>
<path class="st19" d="M205.8,46.3c0.6,1.4,2.1,2.1,3.3,1.5s1.7-2.1,1.1-3.4c-0.6-1.4-2.1-2.1-3.3-1.5
	C205.7,43.4,205.2,45,205.8,46.3z"/>
<linearGradient id="SVGID_10_" gradientUnits="userSpaceOnUse" x1="186.3926" y1="50.8973" x2="190.9059" y2="50.8973">
	<stop  offset="0" style="stop-color:#52422A"/>
	<stop  offset="0.4291" style="stop-color:#4A2B13"/>
</linearGradient>
<path class="st20" d="M186.6,51.8c0.5,1.2,1.9,1.8,3,1.3c1.1-0.5,1.6-1.9,1.1-3.1c-0.5-1.2-1.9-1.8-3-1.3
	C186.6,49.2,186.1,50.6,186.6,51.8z"/>
<ellipse transform="matrix(0.9191 -0.394 0.394 0.9191 -0.7379 86.173)" class="st16" cx="209.5" cy="44.9" rx="1" ry="0.5"/>
<ellipse transform="matrix(0.9191 -0.394 0.394 0.9191 -4.4637 79.2413)" class="st16" cx="190.8" cy="50.5" rx="1" ry="0.5"/>
<g>
	<path class="st14" d="M229,48c0-0.9,0.2-1.7,0.6-2.5c0.3-0.8,0.7-1.5,1.4-2.2c0.2-0.2,0.4-0.3,0.7-0.4c0.2-0.1,0.5-0.2,0.7-0.2
		c0.5-0.1,1.1,0.1,1.5,0.4c0.8,0.6,1,1.6,1,2.4c-0.4-0.7-0.8-1.5-1.4-1.8c-0.3-0.1-0.6-0.2-0.9-0.1c-0.2,0-0.3,0.1-0.5,0.2
		c-0.1,0.1-0.2,0.2-0.4,0.3c-0.5,0.5-1,1.2-1.4,1.8C229.8,46.5,229.4,47.2,229,48z"/>
</g>
<linearGradient id="SVGID_11_" gradientUnits="userSpaceOnUse" x1="196.8481" y1="61.0406" x2="202.8039" y2="44.5824">
	<stop  offset="0" style="stop-color:#B43227"/>
	<stop  offset="0.8426" style="stop-color:#A54637"/>
</linearGradient>
<path class="st21" d="M194.7,42.3c-0.8,0.4,0.9,2.1,0.8,2.8c0,0.7-2.5,11.1-1,13.9c1.5,2.8,5.5,3.2,7.3,1.7s7-3,5.4-5.1
	c-1.6-2.1-2.5-0.3-3.5-0.9C202.4,53.8,198.6,40.2,194.7,42.3z"/>
<path class="st22" d="M215.3,61c0.7,0-1-1-4-2c-3.6-1.2-2.7-2.2-10.7,2.4c-1.5,0-3.9-0.9-6.6,0.3c-2.3,1-3.7,2.3-4.7,5.3
	c4-2,3.9-1,7-2s3.8-2.1,4.5-2.1c0.7,0,4.5,0.8,7.2-0.3C210.5,61.5,212.3,61,215.3,61z"/>
<path class="st23" d="M199.9,60.6c-1.9,0-3.7-0.6-5.3-1.5c1.6,2.7,5.5,3,7.2,1.6c0.2-0.1,0.4-0.3,0.6-0.4
	C201.6,60.5,200.8,60.6,199.9,60.6z"/>
<g class="st7">
	<path class="st8" d="M199.4,71.9c0.4-0.7,1-1.2,1.6-1.7c0.6-0.5,1.4-0.9,2.1-1.1c0.8-0.2,1.6-0.4,2.4-0.2c0.8,0.1,1.6,0.5,2.2,1.1
		c-0.8-0.2-1.5-0.3-2.2-0.3c-0.7,0-1.4,0.2-2.1,0.4C202.1,70.4,200.8,71.1,199.4,71.9z"/>
</g>
<path class="st24" d="M236.5,40.6c-0.6-4.6-0.4-14.7-6.2-19.2c-0.9-0.7-1.7-1.3-2.4-1.8l0.1,2l-4.3,4.3l3.1,21.7L231,61l-1.9,15.2
	c0,0-10.5,12.6-10.8,12.8c-0.2,0.1-6.1,8.8-16.2,11.6c0,0.7,11.4,8.3,20.3-11c2.3-5,10.4-10.4,10.6-20.9c0.1-3.1-3.5-18.6-6.2-22.6
	C227.8,39.8,232.9,36.9,236.5,40.6z"/>
<path class="st5" d="M237.3,58c4.3-4.1,12.6-6.7,20-1.5c7.4,5.2,27.4,31.5,34.8,46.6c8.5,17.4-5.6,22.6-50,44
	c-7.4,1.5-21.5-22.2-13.3-24.4c8.1-2.2,22.9-14.8,32.6-18.5c-5.9-0.6-16.6-18-18.1-25.5"/>
<path class="st25" d="M243.6,76.1c0,0-0.3,0.5-0.7,1.4l0.3,1.2c1.5,7.6,12.3,24.9,18.1,25.5c-9.6,3.7-24.4,16.3-32.6,18.5
	c-1.8,0.5-2.5,2.1-2.4,4.2c2.8-0.2,5.8-1.7,8.4-4.2c3.7-3.7,31.1-18.5,43.7-18.5C258.4,99.1,245,79.9,243.6,76.1z"/>
<path class="st26" d="M198.3,149c3-1,14.1-12.2,13-12c-1.1,0.2-5-1-7,2S198.3,149,198.3,149z"/>
<g>
	
		<linearGradient id="SVGID_12_" gradientUnits="userSpaceOnUse" x1="23.8914" y1="-336.6924" x2="50.6016" y2="-311.4049" gradientTransform="matrix(0.962 -0.2732 0.2732 0.962 188.6553 482.7609)">
		<stop  offset="0" style="stop-color:#BC6353"/>
		<stop  offset="0.6347" style="stop-color:#BC6153"/>
		<stop  offset="0.8631" style="stop-color:#BB5A52"/>
		<stop  offset="1" style="stop-color:#B95151"/>
	</linearGradient>
	<path class="st27" d="M139.2,145.6c-3.6,1.1-7.2,2.2-8.4,2.8c-2,1.1-10,6.9-10.1,9c-0.4,6.5-3.4,9.5-1.4,11.5c1.2,1.2,5,2,6-7
		c0.1-1.2,0.8-0.7,1.9-1.2c0.7-0.3,1.4-0.6,1.9-0.9c1.7-1,3.8-1.2,5.7-0.6c0.9,0.3,1.9,0.4,3.1,0.2"/>
	<g class="st1">
		<path class="st2" d="M118.8,167.5c-0.1,0.5,0.3,0.9,0.7,1.1c0.4,0.2,0.9,0.3,1.3,0.3c0.9-0.1,1.6-0.8,2.2-1.6
			c0.6-0.8,1.1-1.7,1.4-2.7c0.4-1,0.6-2,0.7-3.1l0-0.1l0.1,0c1.3-0.5,2.6-1.2,3.7-1.9c1.1-0.7,2.1-1.7,2.2-2.9l0.2-1.8l0.8,1.6
			c0.5,1,1.2,1.9,2.2,2.4c0.5,0.3,1,0.5,1.6,0.6c0.6,0.1,1.2,0.2,1.8,0.2l0,0.1c-0.6,0.1-1.2,0.2-1.8,0.2c-0.6,0-1.3-0.1-1.9-0.4
			c-0.6-0.2-1.2-0.6-1.7-1.1c-0.5-0.5-0.8-1-1.2-1.6l1-0.2c-0.1,0.8-0.5,1.6-1.1,2.2c-0.5,0.6-1.2,1-1.8,1.4c-1.3,0.7-2.7,1.1-4,1.5
			l0.1-0.1l-0.6,3.2c-0.2,1.1-0.5,2.1-1.1,3.1c-0.6,0.9-1.6,1.8-2.9,1.9c-0.6,0-1.2-0.2-1.7-0.6C118.8,168.7,118.4,168,118.8,167.5
			L118.8,167.5z"/>
	</g>
</g>
<linearGradient id="SVGID_13_" gradientUnits="userSpaceOnUse" x1="-418.75" y1="251.6833" x2="130.75" y2="251.6833">
	<stop  offset="0" style="stop-color:#E8EFF9;stop-opacity:0"/>
	<stop  offset="1" style="stop-color:#E8EFF9"/>
</linearGradient>
<path class="st28" d="M26.3,338.9c10.1-8.8,18.2-19.6,25.2-31c7.2-11.7,13.2-24.1,18.9-36.6c5.7-12.5,11-25.2,16.6-37.7
	c5.6-12.5,11.5-24.9,18.5-36.8c7-11.8,15.1-23,25.3-32.3c-10.2,9.2-18.4,20.4-25.5,32.2c-7,11.8-13,24.2-18.7,36.7
	c-5.7,12.5-11,25.2-16.7,37.6c-5.7,12.5-11.7,24.8-18.9,36.6c-7.1,11.5-15.3,22.5-25.6,31.3H26.3z"/>
<linearGradient id="SVGID_14_" gradientUnits="userSpaceOnUse" x1="-406.75" y1="261.1833" x2="135.2968" y2="261.1833">
	<stop  offset="0" style="stop-color:#E8EFF9;stop-opacity:0"/>
	<stop  offset="1" style="stop-color:#E8EFF9"/>
</linearGradient>
<path class="st29" d="M63.6,338.9c0.7-1.3,1.5-2.6,2.2-4c6.6-12.3,12-25.1,17.1-38.1c5.1-13,9.7-26.1,14.6-39.1
	c4.9-13,10-26,15.9-38.5c5.9-12.6,12.7-24.8,21.3-35.7c-8.6,10.9-15.5,23.1-21.5,35.7c-6,12.6-11.1,25.5-16.1,38.5
	c-4.9,13-9.7,26.1-14.8,39c-5.1,12.9-10.5,25.7-17.1,38c-0.8,1.4-1.6,2.8-2.4,4.2H63.6z"/>
<linearGradient id="SVGID_15_" gradientUnits="userSpaceOnUse" x1="-359.3577" y1="263.6833" x2="138.75" y2="263.6833">
	<stop  offset="0" style="stop-color:#E8EFF9;stop-opacity:0"/>
	<stop  offset="1" style="stop-color:#E8EFF9"/>
</linearGradient>
<path class="st30" d="M94,338.9c6-24.3,9.9-49.2,15.2-73.7c2.9-13.5,6.2-27,10.7-40c2.2-6.5,4.9-13,7.9-19.2c1.5-3.1,3.2-6.1,5-9.1
	c1.8-2.9,3.8-5.8,5.9-8.5c-2.1,2.7-4.1,5.6-5.9,8.5c-1.8,3-3.5,6-5,9.1c-3.1,6.2-5.7,12.6-8,19.1c-4.6,13.1-7.9,26.5-10.9,40
	c-5.4,24.5-9.4,49.4-15.5,73.7H94z"/>
<linearGradient id="SVGID_16_" gradientUnits="userSpaceOnUse" x1="-315.3577" y1="248.6833" x2="191.75" y2="248.6833">
	<stop  offset="0" style="stop-color:#E8EFF9;stop-opacity:0"/>
	<stop  offset="1" style="stop-color:#E8EFF9"/>
</linearGradient>
<path class="st31" d="M118,338.9c1-7.3,2-14.6,3-21.9c2-14.8,4.1-29.6,7-44.3c2.9-14.7,6.5-29.2,11.5-43.3
	c5.1-14,11.6-27.6,20.3-39.8c8.6-12.2,19.4-22.9,31.8-31.2c-12.4,8.3-23.3,19-31.9,31.2c-8.7,12.2-15.4,25.7-20.5,39.8
	c-5.1,14.1-8.8,28.6-11.7,43.3c-2.9,14.7-5.1,29.5-7.1,44.3c-1,7.3-2,14.6-3,21.9H118z"/>
<g>
	<linearGradient id="SVGID_17_" gradientUnits="userSpaceOnUse" x1="74.0276" y1="196.7736" x2="214.4128" y2="196.7736">
		<stop  offset="0" style="stop-color:#E8EFF9"/>
		<stop  offset="1" style="stop-color:#E8EFF9;stop-opacity:0.3"/>
	</linearGradient>
	<path class="st32" d="M214.3,176c-3-1-6.2-1.6-9.3-1.6c-3.2,0-6.3,0.5-9.3,1.6c-6,2-11.3,5.6-16.4,9.4c-5.1,3.8-10,7.9-15.1,11.6
		c-5.2,3.7-10.7,7.1-16.6,9.5c-3,1.2-6.1,2.1-9.2,2.7c-3.2,0.6-6.4,0.8-9.5,1c-6.4,0.3-12.8,0.2-19.1-0.1c-3.2-0.2-6.3-0.3-9.5-0.4
		c-3.2-0.1-6.3,0-9.5,0.6c-3.1,0.5-6.2,1.5-8.9,3.1c-2.8,1.6-5.2,3.7-7.3,6c2.1-2.4,4.5-4.6,7.2-6.2c2.7-1.7,5.8-2.8,8.9-3.4
		c3.2-0.6,6.4-0.7,9.5-0.7c3.2,0,6.4,0.1,9.5,0.2c6.3,0.2,12.7,0.4,19,0c3.2-0.2,6.3-0.4,9.4-1c3.1-0.6,6.1-1.5,9-2.7
		c5.9-2.3,11.3-5.6,16.5-9.3c5.2-3.7,10.1-7.7,15.2-11.5c5.1-3.7,10.5-7.3,16.7-9.3c3.1-1,6.3-1.4,9.5-1.3
		C208.1,174.2,211.3,174.9,214.3,176z"/>
</g>
<linearGradient id="SVGID_18_" gradientUnits="userSpaceOnUse" x1="54.3273" y1="215.97" x2="215.7915" y2="215.97">
	<stop  offset="0" style="stop-color:#E8EFF9"/>
	<stop  offset="1" style="stop-color:#E8EFF9;stop-opacity:0.3"/>
</linearGradient>
<path class="st33" d="M215.8,178.5c-3.8,0.4-7.6,1.3-11.2,2.7c-3.6,1.4-6.9,3.4-10,5.7c-6.3,4.5-11.6,10.1-16.9,15.7
	c-5.3,5.6-10.6,11.2-16.7,16.1c-6,4.9-13,8.8-20.6,10.7c-3.8,1-7.7,1.5-11.6,1.5c-3.9,0-7.7,0-11.6,0.1c-7.7,0.2-15.4,0.6-23.1,1.6
	c-7.6,1-15.2,2.7-22.2,5.9c-3.5,1.6-6.8,3.7-9.7,6.2c-2.9,2.5-5.4,5.5-7.5,8.7c2-3.3,4.5-6.3,7.4-8.9c2.9-2.6,6.1-4.8,9.6-6.5
	c7-3.4,14.7-5.1,22.3-6.3c7.7-1.1,15.4-1.5,23.1-1.7c3.9-0.1,7.7-0.1,11.6-0.2c3.8-0.1,7.6-0.6,11.3-1.5c7.4-1.9,14.2-5.7,20.2-10.5
	c6-4.8,11.3-10.4,16.7-15.9c5.4-5.5,10.8-11.1,17.2-15.6c3.2-2.2,6.6-4.1,10.2-5.5C208.1,179.6,211.9,178.8,215.8,178.5z"/>
<linearGradient id="SVGID_19_" gradientUnits="userSpaceOnUse" x1="31.3273" y1="243.47" x2="205.7915" y2="243.47">
	<stop  offset="0" style="stop-color:#E8EFF9"/>
	<stop  offset="1" style="stop-color:#E8EFF9;stop-opacity:0.3"/>
</linearGradient>
<path class="st34" d="M205.8,205.5c-4.1,0.4-8.1,1.4-11.9,3c-3.8,1.6-7.3,3.8-10.5,6.3c-6.5,5-12.1,11.1-17.8,17
	c-5.7,6-11.5,11.9-18.3,16.6c-6.8,4.8-14.7,8.1-23,9.1c-2.1,0.2-4.1,0.4-6.2,0.4l-6.2,0c-4.1,0.1-8.2,0.2-12.3,0.4
	c-8.2,0.4-16.4,1.1-24.5,2.3c-8.1,1.3-16.2,3.1-23.8,6.2c-3.8,1.6-7.5,3.4-10.8,5.8c-1.7,1.2-3.2,2.5-4.7,4
	c-1.4,1.5-2.7,3.1-3.9,4.8c1.1-1.7,2.4-3.4,3.8-4.9c1.4-1.5,3-2.9,4.6-4.1c3.3-2.5,7-4.4,10.8-6.1c7.6-3.2,15.7-5.1,23.9-6.5
	c8.1-1.4,16.4-2.1,24.6-2.5c4.1-0.2,8.2-0.3,12.4-0.4c4.1-0.1,8.2,0.1,12.3-0.5c8.1-1,15.9-4.2,22.5-8.9
	c6.7-4.7,12.5-10.5,18.3-16.4c5.7-5.9,11.4-11.9,18.1-16.9c3.3-2.4,6.9-4.6,10.8-6.1C197.6,206.7,201.6,205.8,205.8,205.5z"/>
<linearGradient id="SVGID_20_" gradientUnits="userSpaceOnUse" x1="-51.25" y1="282.7836" x2="160.2478" y2="282.7836">
	<stop  offset="0" style="stop-color:#E8EFF9;stop-opacity:0"/>
	<stop  offset="1" style="stop-color:#E8EFF9"/>
</linearGradient>
<path class="st35" d="M136.3,271.4c-8.8,3.1-18.2,4.2-27.5,4.9c-9.3,0.7-18.7,1.1-28,2.6c-9.3,1.5-18.3,4.2-27.1,7.5
	c-8.8,3.3-17.3,7.1-25.9,10.8c-8.6,3.7-17.2,7.3-26,10.7c-0.4,0.2-0.8,0.3-1.3,0.5v0.6c0.5-0.2,1-0.4,1.5-0.6
	c8.7-3.4,17.4-6.9,26-10.6c8.6-3.6,17.2-7.4,26-10.7c8.7-3.3,17.7-6,27-7.4c4.6-0.8,9.3-1.2,13.9-1.5l14-1.1
	c9.3-0.8,18.8-1.9,27.6-5.2c4.4-1.7,8.6-3.8,12.5-6.5c3.9-2.6,7.4-5.7,10.7-9.1C153,263,145.1,268.3,136.3,271.4z"/>
<linearGradient id="SVGID_21_" gradientUnits="userSpaceOnUse" x1="-187.25" y1="312.9073" x2="146.75" y2="312.9073">
	<stop  offset="0" style="stop-color:#E8EFF9;stop-opacity:0"/>
	<stop  offset="1" style="stop-color:#E8EFF9"/>
</linearGradient>
<path class="st36" d="M127.2,298c-6.9,1.8-14,2.8-21.1,3.7c-7.1,0.9-14.2,1.8-21.2,3.3c-3.5,0.8-7,1.6-10.4,2.7
	c-3.4,1.1-6.8,2.3-10.1,3.7c-6.6,2.8-12.8,6.5-19.2,9.6c-6.4,3.2-12.9,6.1-19.7,8.4c-6.7,2.3-13.7,4.2-20.7,5.3
	c-1.4,0.2-2.8,0.4-4.1,0.6v0.9c1.4-0.2,2.9-0.4,4.3-0.6c7.1-1.2,14.1-3,20.8-5.4c6.8-2.4,13.3-5.3,19.8-8.5
	c6.5-3.1,12.6-6.9,19.1-9.7c3.3-1.4,6.6-2.6,10-3.7c3.4-1.1,6.9-2,10.4-2.7c7-1.5,14.1-2.5,21.2-3.4c7.1-1,14.2-2,21.1-3.9
	c6.9-1.9,13.6-4.8,19.5-8.8C140.8,293.4,134.1,296.2,127.2,298z"/>
<linearGradient id="SVGID_22_" gradientUnits="userSpaceOnUse" x1="-184.25" y1="329.1833" x2="149.75" y2="329.1833">
	<stop  offset="0" style="stop-color:#E8EFF9;stop-opacity:0"/>
	<stop  offset="1" style="stop-color:#E8EFF9"/>
</linearGradient>
<path class="st37" d="M90.3,338.9c6.7-1.3,13.5-2.5,20.2-3.9c6.9-1.5,13.8-3.3,20.5-5.8c6.6-2.5,13-5.8,18.9-9.7
	c-5.9,3.9-12.3,7.1-18.9,9.5c-6.6,2.4-13.5,4.1-20.5,5.5c-6.9,1.4-13.9,2.6-20.9,4c-0.7,0.1-1.4,0.3-2.2,0.4H90.3z"/>
<linearGradient id="SVGID_23_" gradientUnits="userSpaceOnUse" x1="63.663" y1="312.0859" x2="63.663" y2="312.0859">
	<stop  offset="0" style="stop-color:#E8EFF9;stop-opacity:0"/>
	<stop  offset="1" style="stop-color:#E8EFF9"/>
</linearGradient>
<path class="st38" d="M63.7,312.1"/>
<linearGradient id="SVGID_24_" gradientUnits="userSpaceOnUse" x1="133.2354" y1="254.47" x2="201.137" y2="254.47">
	<stop  offset="0" style="stop-color:#E8EFF9;stop-opacity:0"/>
	<stop  offset="1" style="stop-color:#E8EFF9"/>
</linearGradient>
<path class="st39" d="M200.8,170.5c-4.8,6-9.4,12.2-13.8,18.5c-4.4,6.3-8.7,12.7-12.8,19.3c-8.1,13.1-15.6,26.6-21.8,40.7
	c-6.3,14-11.5,28.6-14.8,43.6c-1.7,7.5-2.9,15.1-3.3,22.8c-0.5,7.7-0.4,15.4,0.5,23.1c-1.1-7.6-1.3-15.4-1-23.1
	c0.4-7.7,1.5-15.4,3.1-23c3.1-15.1,8.4-29.8,14.6-43.9c6.4-14.1,13.8-27.6,22.1-40.7c4.1-6.5,8.5-12.9,13-19.1
	C191.1,182.5,195.8,176.4,200.8,170.5z"/>
<linearGradient id="SVGID_25_" gradientUnits="userSpaceOnUse" x1="166.4299" y1="207.47" x2="212.181" y2="207.47">
	<stop  offset="0" style="stop-color:#E8EFF9;stop-opacity:0"/>
	<stop  offset="1" style="stop-color:#E8EFF9"/>
</linearGradient>
<path class="st40" d="M211.8,174.5l-4.8,8.8l-4.8,8.8c-3.2,5.9-6.6,11.6-10.1,17.3c-3.6,5.7-7.3,11.2-11.4,16.5
	c-4.1,5.3-8.6,10.3-13.9,14.5c1.2-1.2,2.4-2.3,3.6-3.5c1.1-1.2,2.3-2.4,3.4-3.7c1.1-1.3,2.2-2.5,3.2-3.8c1-1.3,2.1-2.6,3.1-4
	c4-5.3,7.7-10.9,11.2-16.6c3.6-5.6,6.9-11.4,10.3-17.2C204.9,186,208.2,180.1,211.8,174.5z"/>
<linearGradient id="SVGID_26_" gradientUnits="userSpaceOnUse" x1="-0.25" y1="306.2385" x2="142.7413" y2="306.2385">
	<stop  offset="0" style="stop-color:#E8EFF9;stop-opacity:0"/>
	<stop  offset="1" style="stop-color:#E8EFF9"/>
</linearGradient>
<path class="st41" d="M132.2,338.9c0.1-6.9,0.5-13.7,1.3-20.6c0.8-7.6,1.9-15.1,3.5-22.5c1.5-7.5,3.4-14.8,5.3-22.2
	c-2,7.3-4,14.7-5.6,22.2c-1.6,7.4-2.8,15-3.7,22.5c-0.8,6.8-1.2,13.7-1.4,20.6H132.2z"/>
</svg>
