<?xml version="1.0" encoding="utf-8"?>
<!-- Generator: Adobe Illustrator 24.0.2, SVG Export Plug-In . SVG Version: 6.00 Build 0)  -->
<svg version="1.1" id="Layer_1" xmlns="http://www.w3.org/2000/svg" xmlns:xlink="http://www.w3.org/1999/xlink" x="0px" y="0px"
	 viewBox="0 0 3969 2150.3" style="enable-background:new 0 0 3969 2150.3;" xml:space="preserve">
<style type="text/css">
	.st0{fill:#23203A;}
	.st1{fill:#2E2E4C;}
</style>
<path class="st0" d="M2705,260.8l256,224.5l49,144c0,0,117,83,129,92s78,300,184,317c106,17,229,247,229,247l192,389l46,2l178,474
	h-485.1l-272.7-573.4l-29.6-361.2l-272-273.2l-161.1-338.7L2705,260.8z"/>
<path class="st1" d="M3633,1822.3c0,0-110.3-232.2-131.5-308.5c-64-230-203.1-280-220.1-314.5c-34.6-70-69.3-99.6-94-126.5
	s-79.2-24.2-81.6-53.8c-2.5-29.6-42.1-86.1-61.8-107.6c-19.8-21.5-2.5-48.4,0-78s-22.3-32.3-32.2-45.7c-9.9-13.5-19.8-40.4-47-67.3
	c-27.2-26.9-66.8-96.9-86.6-129.2c-19.8-32.3-79.2-166.8-94-180.3s-64.3-137.2-84.1-156.1c-19.8-18.8-32.2,5.4-59.4,35
	s-111.3,102.3-148.4,150.7c-37.1,48.4-119.3,123.9-161.4,218.9c-13,29.4,11.8,0.9-30.2,57.4c-90.7,0-30.2,86.1-120.9,114.8
	c-31.5,10-40,113.5-67.2,186.1S1949.3,1169,1932,1236.3c-17.3,67.3-209.4,187.3-209.4,233.1S1339.1,1643,1302,1675.3
	c-3.6,3.1-275,64-275,64S914.1,1911.2,833,1962c-134.5,84.3-251.7,161.2-276,188.3h3233C3784.2,2139.2,3633,1822.3,3633,1822.3z
	 M3126.7,1604.8c-16.3,21.1-14,45.4-10.7,59.2c-1.6,4-3.3,7.7-5.2,11l-37-26l-33.1-47l-63.9,36l-16,37.1h-549.1l-36.9-17.9
	l-61.7,5.9l-69.1-25.7l-29.2,37.8c-13.3-3.6-25.6-7.5-36.8-11.8c0,0-67.8-51.9-67.8-84c0-18.9,21.2-54.5,14-72
	c-5.9-14.6,32.4-58.8,24.3-92.6c-9.9-41.3,29.6-165,29.6-165c10.8-26.6,20.6-52.7,27.6-68.2c16.8-37,51.5-80.7,75-99.7
	c23.5-19.1-7.6-42.1,9.6-67c17.3-24.9,24.4,5.1,41.9-13.7c14.6-15.7,20-52.3,35-78.5c0,0,73.8-131.2,188.5-136.3
	c46.9-2.1,71.6,47.3,179.3,55.9c100.7,8.1,139.3,80.4,139.3,80.4c6.8,10,12.1,20.7,19.3,27.4c12.5,11.6,43.2,22.6,31.8,41.2
	s7,23.9,25.8,41.4c18.8,17.4,20.2,53.7,39,71.2s42.8,10.6,56.2,46.4c13.4,35.9,31.4,29.2,43.9,40.8c0.5,0.5,0.9,0.9,1.4,1.4
	l18.5,47.9c0.1,1.5,0.1,3,0.2,4.5c0.3,8.1,4,14.3,9.1,19.6c0,0,19.8,59.9,26.3,92.2c8.8,44.1-8.8,81.6,31.6,134.5
	C3193.5,1512.3,3144.3,1582.4,3126.7,1604.8z"/>
</svg>
