<?xml version="1.0" encoding="utf-8"?>
<!-- Generator: Adobe Illustrator 24.0.2, SVG Export Plug-In . SVG Version: 6.00 Build 0)  -->
<svg version="1.1" id="Layer_1" xmlns="http://www.w3.org/2000/svg" xmlns:xlink="http://www.w3.org/1999/xlink" x="0px" y="0px"
	 viewBox="0 0 3969 5243.6" style="enable-background:new 0 0 3969 5243.6;" xml:space="preserve">
<style type="text/css">
	.st0{fill:url(#SVGID_1_);}
	.st1{fill:url(#SVGID_2_);}
	.st2{fill:#201F33;}
	.st3{fill:url(#SVGID_3_);}
	.st4{fill:#DF4426;}
</style>
<linearGradient id="SVGID_1_" gradientUnits="userSpaceOnUse" x1="1985" y1="-4566.166" x2="1985" y2="-9292.9658" gradientTransform="matrix(1 0 0 1 0 9292.9658)">
	<stop  offset="0" style="stop-color:#55486C"/>
	<stop  offset="0.7933" style="stop-color:#2A2742"/>
</linearGradient>
<rect x="1" class="st0" width="3968" height="4726.8"/>
<linearGradient id="SVGID_2_" gradientUnits="userSpaceOnUse" x1="-237.7491" y1="-4423.7378" x2="2530.1892" y2="-5388.4268" gradientTransform="matrix(1 0 0 1 0 9292.9658)">
	<stop  offset="4.522319e-02" style="stop-color:#563456"/>
	<stop  offset="0.6667" style="stop-color:#353456"/>
	<stop  offset="0.9437" style="stop-color:#2A2742"/>
</linearGradient>
<path class="st1" d="M2140.5,3495.3l-95.5,105.5l-213,87c0,0-151.3,149.7-187.5,153.5c-44.4,4.6-169,149-169,149l-295,97l-394,164
	L585,4271.8l-545,455l1695.1-0.1l419.4-1093.4L2140.5,3495.3z"/>
<path class="st2" d="M2647.5,3743.2c14.6-11.4,17.6-94.1,72.8-69.8c26.3,11.6-20.6,122-48.5,93.3
	C2657.4,3752,2640.8,3748.3,2647.5,3743.2z"/>
<path class="st2" d="M2640.1,3861.5c4.4,9.6,4.4,31.6,0,39s-34.5,15.4-27.9-22.8C2618.8,3839.5,2640.1,3861.5,2640.1,3861.5z"/>
<g>
	<path class="st2" d="M2728.3,3820.3c5.1,11,5.1,19.1,0,28.7s-7.4,25-1.5,28.7s6.6,18.4,11,23.5s11,8.8,19.1,13.2
		s51.5,2.9,53.7,16.9s-25,31.6-56.6,14s-59.5-26.5-66.9-47.8s-32.3-58.8-26.5-65.4C2666.6,3825.5,2728.3,3820.3,2728.3,3820.3z"/>
	
		<linearGradient id="SVGID_3_" gradientUnits="userSpaceOnUse" x1="2686.7495" y1="-5021.2656" x2="2686.7495" y2="-5409.2061" gradientTransform="matrix(1 0 0 1 0 9292.9658)">
		<stop  offset="0" style="stop-color:#26233E"/>
		<stop  offset="1" style="stop-color:#23203A"/>
	</linearGradient>
	<path class="st3" d="M2490.2,4158.7c-2.2-38,0.7-191.4,12.5-199.2c11.8-7.8,67.6-26.3,88.2-45.7c20.6-19.4,83.8-46.5,118.3-17
		c1.5,15.5,5.1,24,16.2,20.1c4.4,9.3,5.1,18.5,16.9,25.1c11.8,6.6,61.7-27.5,71.3,2s9.6,120.9,27.9,134.8s26.5,20.1,37.5,30.2
		s47.8,75.9,52.9,79c5.1,3.1,29.4,83.7,29.4,83.7h-549.1c0,0,36.8-58.9,52.2-72.1C2479.8,4186.4,2490.2,4158.7,2490.2,4158.7z"/>
	<path class="st2" d="M2601.2,3510.2c11.5-6-39.7,92.6-5.1,139.7c34.5,47,66.2,62.5,94.8,68.4c28.7,5.9-94.8,91.1-105.8,82.3
		c-11-8.8,4.4-24.3-10.3-30.1c-14.7-5.8-48.5-27.2-65.4-7.4c-6.6,33.1-5.9,39-8.1,55.1c-4.4-8.8-6.6-26.5-12.5-20.6
		s-15.4,166.8-11.8,202.9c-13.2-30.9-27.2-60.3-41.2-106.6c-2.9,14.7-5.9,55.9-4.4,69.1C2424,3932.8,2293.2,3671.1,2601.2,3510.2z"
		/>
	<path class="st2" d="M2742.3,3709.4c5.1-12.5,39-151.4,131.6-155.1c-16.9,65.4-48.5,57.3-52.9,96.3c-10.3,8.1-27.9,70.6-27.9,91.9
		C2770.2,3750.5,2742.3,3709.4,2742.3,3709.4z"/>
	<path class="st2" d="M2665.1,3715.2c15.6-5.5,72.8-37.5,105.1-9.6s37.5,75,34.5,91.9c-2.9,16.9-39,32.3-41.9,21.3
		s-5.1-21.3-16.2-22.1c-11-0.7-1.5,8.8-2.2,18.4c-6.6,7.4-25,21.3-30.9,23.5s-71.3,26.5-86,37.5s-60.3,11-75.7,32.3
		s-34.7,43.5-41.9,72c-22.6,90.2,1.5,164.6-90.4,177.9c-64.5,9.3-114.7-11-133.8,1.5s-16.9,39.7,39,47
		c55.9,7.4,121.3,22.1,41.9,18.4c-79.4-3.7-198.5-30.1-126.4-77.2c72-47,190.4,0,207.3-55.1
		C2477.5,3995.2,2432.8,3797.6,2665.1,3715.2z"/>
	<path class="st2" d="M2784.9,3787.3c1.8,9.7,12.5,5.9,18.4-8.8c5.9-14.7,5.1-7.4,3.7,2.9c-1.5,10.3-4.4,16.9,1.5,16.9
		s20.6-16.2,18.4-8.1c-2.2,8.1-22.8,13.2-8.8,14c14,0.7,39.7,10.3,22.8,10.3s-22.8,2.9-25,6.6s11.8,14,0.7,11.8
		c-11-2.2-17.6,11-20.6,16.2c-2.9,5.1-11,23.5-23.5,21.3c-12.8-2.3-10.3-39.7-8.1-46.3s-14-25.7-5.1-22.1c8.8,3.7,13.2-9.6-3.7-20.6
		s0-12.5,12.5-0.7s5.1-3.7,6.6-14C2776.1,3756.4,2783.4,3779.2,2784.9,3787.3z"/>
	<path class="st2" d="M2865.8,3749.7c8.1,5.6,13-4.7,6.8-19.2c-6.2-14.6-1.6-8.8,4.7-0.5c6.2,8.3,8.8,15.1,13,10.9s3.1-26,7.3-18.7
		s-6.8,25.5,3.6,16.1c10.4-9.4,35.3-20.8,23.4-8.8s-14,18.2-13,22.3c1,4.2,18.2,1.6,8.8,7.8c-9.4,6.2-4.7,20.3-3.1,26
		c1.6,5.7,8.8,24.4-1.6,31.7c-10.7,7.5-35.3-20.8-38.5-27c-3.1-6.2-28.1-8.3-19.2-12c8.9-3.7,2.6-16.1-17.2-12
		c-19.7,4.2-8.8-8.8,8.3-9.4c17.2-0.5,1-6.2-5.2-14.6C2837.7,3734.2,2859.1,3745.1,2865.8,3749.7z"/>
	<path class="st2" d="M2805.5,3741c72.7,22.4,84.5,30.9,88.9,19.1s-12.5-50-47.8-71.3s-92.6-13.1-125,0c-105.1,42.6,11,51.5,11,51.5
		S2748.2,3723.3,2805.5,3741z"/>
	<path class="st2" d="M2664.4,3770.4c-5.1,5.1-32.3,27.2-40.4,31.6c16.9,5.9,24.3,6.6,32.3,16.2c8.1,9.6,12.5,33.9,20.2,35
		s30.5,1.8,32.7,12.8s-53.7,22.1-61,12.5s-5.1-28.7-11.8-33.1c-6.6-4.4-42.6-17.6-45.6-33.8c-2.9-16.2,16.9-71.3,69.1-79.4"/>
	<path class="st2" d="M2587.9,3862.2c10.6,4.4,14.7,33.8,11,43.4s-7.4,15.4-16.9,18.4s-38.2,16.2-37.5,8.1s14-12.5,19.8-19.1
		s3.7-20.6-8.8-26.5C2543.1,3880.6,2562.9,3852,2587.9,3862.2z"/>
	<path class="st2" d="M2764.3,3933.5c-1,2.5-5.7-15.9,2.6-16.8c8.4-0.9,12.1,6.5,10.6,10.9C2776,3932,2768.7,3922.5,2764.3,3933.5z"
		/>
	<path class="st2" d="M2785.6,3932.1c-0.5,3.2-3.7-11.8,2.2-14s8.8,3.7,8.8,8.8C2793,3926.9,2786.4,3927.7,2785.6,3932.1z"/>
	<path class="st2" d="M2798.1,3932.8c0.9,2.8-2.9-8.1,2.2-12.5c5.1-4.4,11.8,3.7,11.8,9.6c-3.7-0.7-4.4-7.4-8.8-5.1
		C2798.9,3926.9,2797.4,3930.6,2798.1,3932.8z"/>
	<path class="st2" d="M2543.8,3931.3c-0.7,2.1-1.5-10.3,5.9-10.3s6.6,9.6,3.7,11C2551.2,3929.9,2544.6,3929.1,2543.8,3931.3z"/>
	<path class="st2" d="M2557,3927.7c-2,3.1-4.4-12.5,5.9-12.5c7.5,0,6.6,8.1,3.7,11C2562.9,3924.7,2558.5,3925.5,2557,3927.7z"/>
	<path class="st2" d="M2574,3925.5c-0.7,2.9-5.9-12.5,2.9-13.2c8.8-0.7,10.6,4.7,7.8,10.8C2581.5,3921.3,2574.7,3922.5,2574,3925.5z
		"/>
	<path class="st2" d="M2656.3,3876.2c0,2.2-11-6.6-2.2-12.5s11.8,1.5,11,4.4C2662.9,3868.1,2656.3,3868.9,2656.3,3876.2z"/>
	<path class="st2" d="M2675.4,3874c0,2.7-7.4-8.8-1.5-12.5s11-0.7,10.3,4.4C2679.8,3866.7,2675.4,3873.3,2675.4,3874z"/>
	<path class="st2" d="M2695.2,3875.5c-2.2-3.7-6.6-11.8,0.7-14c7.4-2.2,12.5,4.4,9.6,9.6c-4.4-2.2-11,0-10.3,5.1"/>
	<path class="st2" d="M2662.9,3867.4c1.5,1.5,0.7,22.1-2.9,30.1c-0.7-10.3-0.7-13.2-2.9-15.4c-2.2-2.2-5.1-7.4-4.4-11.8
		C2653.3,3865.9,2662.9,3867.4,2662.9,3867.4z"/>
	<path class="st2" d="M2682,3864.4c3.7,2.2,9.6,16.9-5.9,31.6c0.7-8.1,3.5-21-2.2-27C2671,3865.9,2682,3864.4,2682,3864.4z"/>
	<path class="st2" d="M2701.8,3867.4c3.2,4.1,8.1,19.8-3.7,31.6c0-10.3-2.2-27.9-4.4-28.7
		C2691.6,3869.6,2698.9,3863.7,2701.8,3867.4z"/>
	<path class="st2" d="M2584.2,3921.8c1.9,1.4-0.7,31.6-0.7,31.6s-11.6-23.1-10.6-28.5S2579.1,3918.1,2584.2,3921.8z"/>
	<path class="st2" d="M2567.3,3926.2c0,0-2.9,7.4-2.9,24.3c-4.4-3.7-11-20.6-6.6-27.2s9.6,0.4,9.6,2"/>
	<path class="st2" d="M2555.3,3933.4c0.4,4-6.3,13.4-4.1,20c-2.9-4.4-10.4-14.8-4.8-25.8C2551.9,3916.6,2555,3930.3,2555.3,3933.4z"
		/>
	<path class="st2" d="M2807.7,3924c1.7,2.1,4.4,22.1-2.2,31.6c-0.7-6.6-6.1-23.5-7.1-26.1S2804.7,3920.3,2807.7,3924z"/>
	<path class="st2" d="M2793.7,3923.2c5.1,4.4,7.4,19.8-1.5,32.3c-0.7-6.6-2.9-25.7-6.6-27.9
		C2781.9,3925.4,2793.7,3923.2,2793.7,3923.2z"/>
	<path class="st2" d="M2773.1,3924.7c5.9,5.9,3.7,27.9,0.7,33.1c-1.5-6.6-8.8-22.8-9.6-26.5
		C2763.6,3927.7,2768.7,3920.3,2773.1,3924.7z"/>
</g>
<path class="st2" d="M2652.6,3745.4c1.8,9.7,12.5,5.9,18.4-8.8c5.9-14.7,5.1-7.4,3.7,2.9c-1.4,10.3-4.4,16.9,1.5,16.9
	s20.6-16.2,18.4-8.1c-2.2,8.1-22.8,13.2-8.8,14c14,0.7,39.7,10.3,22.8,10.3s-22.8,2.9-25,6.6s11.8,14,0.7,11.8
	c-11-2.2-17.6,11-20.6,16.2c-2.9,5.1-11,23.5-23.5,21.3c-12.8-2.3-10.3-39.7-8.1-46.3s-14-25.7-5.1-22.1c8.8,3.7,13.2-9.6-3.7-20.6
	s0-12.5,12.5-0.7s5.1-3.7,6.6-14C2643.9,3714.5,2651.1,3737.3,2652.6,3745.4z"/>
<g>
	<path class="st4" d="M2813.4,3819.6c-0.8,1.7-2,4.2-10.3,2.2C2805.2,3819.7,2807.6,3816.8,2813.4,3819.6z"/>
	<path class="st4" d="M2779.5,3812.9c-4.3-2.7-7.7-4.2-5.7-8.8C2776.5,3805.2,2780.1,3806.5,2779.5,3812.9z"/>
	<path class="st4" d="M2681.1,3777.7c-0.8,1.7-2,4.2-10.3,2.2C2672.9,3777.8,2675.3,3774.9,2681.1,3777.7z"/>
	<path class="st4" d="M2647.2,3771c-4.3-2.7-7.7-4.2-5.7-8.8C2644.2,3763.3,2647.8,3764.6,2647.2,3771z"/>
	<path class="st4" d="M2906.2,3761.4c0.7,1.7,1.8,4.3-5.2,9.1C2900.8,3767.6,2900.3,3763.8,2906.2,3761.4z"/>
	<path class="st4" d="M2886.7,3776.3c-4.9,1.4-8.3,2.9-10.4-1.6C2879,3773.4,2882.3,3771.6,2886.7,3776.3z"/>
</g>
</svg>
