<?xml version="1.0" encoding="utf-8"?>
<!-- Generator: Adobe Illustrator 24.0.2, SVG Export Plug-In . SVG Version: 6.00 Build 0)  -->
<svg version="1.1" id="Layer_1" xmlns="http://www.w3.org/2000/svg" xmlns:xlink="http://www.w3.org/1999/xlink" x="0px" y="0px"
	 viewBox="0 0 1104.7 890" style="enable-background:new 0 0 1104.7 890;" xml:space="preserve">
<style type="text/css">
	.st0{fill:url(#SVGID_1_);}
	.st1{fill:#0B3C68;}
	.st2{fill:#030D4C;}
	.st3{fill:none;stroke:#030D4C;stroke-width:1.7831;stroke-miterlimit:10;}
	.st4{fill:url(#SVGID_2_);}
	.st5{fill:#082E51;}
	.st6{fill:#0D325B;}
	.st7{fill:#0E2455;}
	.st8{fill:url(#SVGID_3_);}
	.st9{fill:url(#SVGID_4_);}
	.st10{fill:#040E4D;}
	.st11{fill:#0A2E5B;}
	.st12{fill:#040E3F;}
	.st13{fill:#FFFFFF;}
	.st14{fill:#030B4B;}
	.st15{fill:#0E3451;}
	.st16{fill:none;stroke:url(#SVGID_5_);stroke-miterlimit:10;}
</style>
<g id="Слой_1">
	
		<linearGradient id="SVGID_1_" gradientUnits="userSpaceOnUse" x1="552.35" y1="3414" x2="552.35" y2="4304" gradientTransform="matrix(1 0 0 -1 0 4304)">
		<stop  offset="0" style="stop-color:#005E85"/>
		<stop  offset="0.9164" style="stop-color:#004A70"/>
	</linearGradient>
	<rect class="st0" width="1104.7" height="890"/>
	<g>
		<path class="st1" d="M725.3,80.8c0.5-20,2.9-38.6,1.2-59.2c-0.4-4.7-1.1-15.5-2.7-23.8h-9.6c-0.4,6.3,0.3,14.7,0.3,18.8
			c-0.1,20.1-0.8,39.3,0,58.9c0.9,21.2,0.8,42.5,1.9,63.5c1.4,27.4-2.6,47.4-6.1,73.7c-4.9,36.5,1.6,74.7-2.6,111.5
			c-2.9,25.4-14.8,39.4-16.5,66.4c-1.6,26,0.3,56,1.7,81.9c1.3,23.8,0.1,44.3,0.1,68.1c0,14.9,2.2,41.4,9.8,50.4
			c0.7-2.5,2.1-3.2,2.9-4.7l6.9-12.5c0,1.7,2.2-32.3,3.2-51.1c1-20.1-0.2-40.1-0.2-60.1c0-17.4,6.3-33.8,5.9-50.6
			c-0.2-7.9-3.3-14.9-3-24.2c0.2-9.2,3.2-16.4,4.4-24.7c2.8-19.4-4.7-30.8-4.4-51c0.3-17.9,6.2-37.2,7.8-55.6
			c3.8-41.4,1.2-80.3,1-122.3C727.2,116.2,724.8,98.8,725.3,80.8z"/>
	</g>
	<g>
		<path class="st1" d="M101.7,391.5c-4.9-19.1,8.8-24.5,10-46.1c1.2-20.8-7.7-32.5-7.5-53.1c0.2-22.1,0.9-43.8,0.3-66.1
			c-0.6-24.1-3-47.3-3.9-71.3c-0.9-23.4,2.4-44.6,3-67.4c0.7-25.5,0.7-53.1,0-78.6c-0.1-3.3-0.2-7.1-0.3-11.1h-17
			c-0.2,2-0.4,3.9-0.5,5.9c-1.2,23.2,0.2,45.5-2,68.3c-2,20,0.8,37.2,1.3,57.8c0.4,19.7-0.6,38.9-0.7,58.3
			c-0.2,39.5,0.5,75,4.4,113.1c3.2,31.3,1.9,67.5-0.3,99.5c-1.1,15.8-4.3,32.3-6.1,48c-1.8,15.7-5.9,35.8-12,45.3l7.4,16.7
			c3.3,0.4,4.6-4.2,7.5-4.6s5.6,2.4,8.3,3c5.8,1.1,9.9,0.5,12.6-11.4c2.4-10.7,0.1-21.4,3-31.5c3.6-12.4,7.7-11,6.6-25.2
			C114.5,425,105.8,407.5,101.7,391.5z"/>
	</g>
	<g>
		<path class="st1" d="M229.3,434.5c-3.7-40.9-0.1-84.4-5-125.5c-2.7-23.2-3.8-44-3.4-67.3c0.4-23.3-8.5-39.9-10.1-63.4
			c-3.1-46.8-6.9-93.1-8.3-140.6c-0.3-12.1-1.5-25.8-3.3-39.9H184c-1.3,13.8-3,27.1-1.7,43.1c3.9,47.4,11.2,96.2,12.9,143.8
			c0.4,11.4-1.1,21.4-2.3,32.3c-1.7,15.7,0.5,25.1,2.7,41.3c3,21.9,8.8,45,9.6,67.3c0.6,17.9-1.1,38.4-2.7,56.1
			c-1.9,20.2-1,38.1,0,58.5c1.7,32.7-0.6,72.9-1.8,102.5l23,1.5c2.4,4.8,13.6-2.9,15.9-10.6c1.9-6.2-0.6-21.2-1.2-28.1
			C236.3,481.8,231.5,458.9,229.3,434.5z"/>
	</g>
	<g>
		<path class="st1" d="M354.2,455.3c3.3-43.5-1.3-89.5-3.1-133.8c-1.6-40.8,0.4-80.1-3.4-120.4C344,162,341.9,116,343,76
			c0.7-24.4,2.3-52.6,0-78.2h-10.3c0.4,28.5-2.2,58.3-5.2,84.6c-2.6,22.4-7.2,50.7-5.9,73.4c1.2,20.7,8.5,40.6,11.2,60.9
			c2.5,18.7-0.7,40.4-1.8,59.7c-1,18.2-1.1,39.6-0.1,58.1c1.2,21.6,2.6,35.5-0.6,57.3c-3.1,21.4-2.4,41.3-2.8,62.6
			c-0.2,7.5-0.3,19.4-2.5,26c-3,9-9.4,10.3-12.8,18.2c-4.5,10.4-8.7,43.5-8.1,56.5c1.1-1.6,0.5-2.4,1-4.4l23.9-5.2
			c7.2,19.2,25.9-13.9,28.1-29.5C359.6,497.8,352.7,474.9,354.2,455.3z"/>
	</g>
	<g>
		<path class="st1" d="M811.6-2.2c2,9.6,4.3,19,6.1,26.8c-0.6-9.1-1.5-18.1-2.7-26.8H811.6z"/>
	</g>
	<g>
		<path class="st1" d="M866.2,508.3c0.7-46.6-6.7-95.2-11-142.3c-4-43.3-4.3-85.3-10.5-128c-6-41.3-16.6-81.8-17.9-124.4
			c-0.9-31.5-1.3-54-8.1-84.9c-0.3-1.3-0.6-2.7-0.9-4.1c2,29.7,1.1,60.8-0.3,88.4c-1.2,24-4.2,54.4-1.5,78.6
			c2.4,21.9,10.9,42.7,14.8,64.1c3.6,19.8,1.7,43,1.7,63.7c0,19.5,1.2,42.2,3.4,61.9c2.5,22.9,4.7,37.7,2.8,61.1
			c-1.9,23,0.1,44.1,0.9,66.9c0.3,8,0.9,20.7-1,27.8c-2.5,9.8-8.8,11.6-11.7,20.2c-3.9,11.4-6.1,46.9-4.8,60.7
			c1-1.8,0.4-2.6,0.8-4.8l23.5-7.1c8.3,20,25-16.4,26.3-33.2C874.1,553.2,865.9,529.3,866.2,508.3z"/>
	</g>
	<g>
		<path class="st1" d="M571.9,339.1c2.5-38.3-2.7-75.1-4.6-113.5c-1.8-37.2,1.6-74.9,1.6-112c0-35.1,1.8-80.8-3.7-115.8h-2.6
			c-0.6,15.9,1.1,33,1,48.6c-0.1,19.9-0.9,40.6-2.5,60.3c-3.1,38.4-3.5,78.5-4.4,117.4c-0.4,19.9,1.9,38.5,2.3,58.1
			c0.4,18.5-3.1,30.4-3.8,47.7c-0.7,17.6-2.6,34.3-2.1,51.7c0.5,17.7,2.1,34.6,2.1,52.9c0,31-5.9,70.2-1.5,100.4h18.2
			c7.6-23.4,1.2-69.2-0.9-97.3C568.6,404.1,569.7,372.5,571.9,339.1z"/>
	</g>
	<g>
		<path class="st1" d="M1006.6,436.6c0.7-21.3-1.9-41.7-2.8-63.2c-0.9-21.2-5.6-35.7-5.1-58.3c0.6-23.9,3.7-46.6,3.1-71
			c-1.1-47.6-1.7-96.6-5.8-143.5c-2.1-24-3.2-49.3-3.3-73.7c0-9.4,0.5-19.2,0.9-29.1H987c-2.7,36.8-1.3,77.9-1.3,111.2
			c0,45.3,4.5,91.3,2.1,136.8c-2.5,46.9-9.4,91.9-6.1,138.7c2.9,40.8,4.3,79.5,1.1,120.6c-2.7,34.3-11.3,90.3-1.1,118.9h24.2
			c5.8-36.9-2-84.8-2-122.7C1003.8,478.9,1005.9,458.3,1006.6,436.6z"/>
	</g>
	<g>
		<g>
			<path class="st2" d="M360.9,325.9c2.2,3.6,2.2,10.9,2.2,13.7c0,2.9,5.8,7.2,8.7,8c2.9,0.7,9-1.8,9.8-6.9
				c0.7-5.1-1.4-18.8-2.9-20.3c-1.4-1.4-14.5-3.6-16.6-1.4C359.8,321.2,360.9,325.9,360.9,325.9z"/>
			<path class="st2" d="M371.4,346.5c0,0.7,0.7,2.2,0,4.3c-0.7,2.2,2.9,1.4,5.1,0.7c2.2-0.7,5.8-4.3,4.3-6.5
				S371.4,346.5,371.4,346.5z"/>
			<path class="st2" d="M376.5,322.6c2.9,3.6,4.3,21,0,29.7c2.9,1.4,10.1,4.3,11.6-9.4S376.5,322.6,376.5,322.6z"/>
			<path class="st2" d="M357.6,326.2c-1.4,2.9-5.1,21.7,2.2,27.5c7.2,5.8,10.1,0.7,11.6-1.4s-7.2-30.4-9.4-29.7
				C359.8,323.3,357.6,326.2,357.6,326.2z"/>
			<path class="st2" d="M363.4,313.2c2.9-0.9,8-5.8,20.3-1.4c9.8,3.4,9.4,10.1,10.1,12.3c0.7,2.2,6.5,16.6,4.3,21
				s-10.1,10.1-19.5,8.7c4.3-0.7,8-1.4,9.4-3.6s-0.7-13.7-5.8-18.1c-5.1-4.3-11.6-13-17.4-10.1s-3.6,8-8,11.6
				c-4.3,3.6-5.8,23.2,2.2,18.8c-0.7,2.2-4.3,2.2-6.5-0.7c-2.2-2.9-2.2-8.7-1.4-12.3c0.7-3.6,3.6-10.9,3.6-13
				S356.2,315.4,363.4,313.2z"/>
			<path class="st2" d="M373.9,334.6c-0.8,0-0.4-2.1,1.2-3.2s3.2,0,3.2,1.1S376.4,334.6,373.9,334.6z"/>
			<path class="st2" d="M364.5,333.1c2.1-0.4,3.3,0.9,3.1,1.9c-0.2,1-1.7,1-3.1,1S360.9,333.8,364.5,333.1z"/>
			<path class="st2" d="M369.6,333.8c0.7,1.4,0,5.1,0,5.1s0,1.4,1.4,0.7"/>
			<path class="st2" d="M373.9,342.5c-0.7,0.7-2.2,0.7-2.9,0.7c-0.7,0,0.7-0.7,1.4-0.7C373.2,342.5,373.9,342.5,373.9,342.5z"/>
			<path class="st2" d="M369.6,349.8c-1.4,0-13.7,0-15.9,8c-2.2,8,20.3,11.6,24.6,12.3c4.3,0.7,19.5-1.4,18.8-5.8
				c-0.7-4.3-6.5-10.9-8.7-12.3L369.6,349.8z"/>
			<path class="st2" d="M382.6,367.8c0,2.3-2.9,12.3-2.9,14.5s-4.3,14.5,1.4,12.3c5.8-2.2,8-8,7.2-12.3c-0.7-4.3,3.6-8,2.9-12.3
				C390.6,365.7,382.6,367.1,382.6,367.8z"/>
			<path class="st2" d="M372.5,375.1c-2.2-0.7-7.2-2.9-6.5-0.7c0.7,2.2,8.8,19,15.2,20.3c3.6,0.7,2.2-4.3,2.2-5.1
				c0-0.7,0-2.9-0.7-4.3C381.4,382.9,372.5,375.1,372.5,375.1z"/>
			<path class="st2" d="M367.4,374.3c0-1.4,2.9-12.3,7.2-12.3c4.3,0,3.6,0.7,2.9,1.4c-0.7,0.7-2.9,3.6-2.2,3.6s2.2-2.9,2.9-2.9
				c0.7,0,2.9,0,0.7,2.2s-2.2,2.9-2.9,3.6c-0.7,0.7-3.6,3.6-4.3,5.1C371,376.5,367.4,375.1,367.4,374.3z"/>
			<path class="st2" d="M370.8,353.1c1.9-2.8-11.7,8.6-6,8.6C370.7,361.7,370.3,354,370.8,353.1z"/>
			<path class="st2" d="M371.7,351.9c1-2.4,5.8,8,3.6,8.7C373.2,361.3,370.3,355.5,371.7,351.9z"/>
			<path class="st2" d="M370.3,355.8c0,1.2-3,6.6-4.4,11.5"/>
			<path class="st2" d="M371,355.5c0,2.9,1.8,6.7,0.5,8.4"/>
			<path class="st2" d="M360.9,364.9c-1.4,0.7-7.2,5.8-13.7,5.8c1.4-3.6,5.8-13.7,8-13.7S360.9,364.9,360.9,364.9z"/>
			<path class="st2" d="M355.8,367.1c0,2.9,0,23.9-1.4,26s-16.6,44.1-13,68c2.2,1.4,2.2,0,2.9,0.7c0.7,0.7,1.4,0.7,2.9,1.4
				c1.4,0.7,2.9,0,4.3,1.4s3.6,1.4,5.1,1.4s3.6-1.4,4.3,0c0.7,1.4,1.4,1.4,2.9,1.4s3.6,0,4.3,0.7c0.7,0.7,2.2,0,2.9,0
				c0.7,0,1.4,0,2.9,0s1.4-0.7,2.9-0.7s2.2,0,3.6,0s2.2-0.7,3.6-0.7s2.9,0,4.3,0s0-0.7,2.2-1.4c2.2-0.7,2.2,0,3.6,0s2.2-1.4,2.9-1.4
				c0.7,0,2.9-1.4,3.6-2.2c0.7-0.7,1.4-2.2,2.9-2.2c1.4,0,3.6-0.7,3.6-1.4c0-0.7,0.7-2.9,1.4-2.9c0.7,0,2.2,0,2.2-1.4s0-2.2,0.7-2.9
				c0.7-0.7-21.7-37.6-23.2-53.5s5.8-36.9-7.2-37.6C368.1,359.2,355.8,367.1,355.8,367.1z"/>
			<path class="st2" d="M368.9,465.5c1.4,2.9,3.6,19.5,2.9,25.3s-1.4,14.5-0.7,16.6c0.7,2.2,2.9,8,1.4,10.1
				c-1.4,2.2-10.9,9.4-13.7,9.4c-2.9,0-7.2-1.4-5.8-3.6s10.1-10.9,10.1-12.3s-2.9-23.2-3.6-26c-0.7-2.9-1.4-20.3-2.9-21.7
				C355.1,461.9,368.9,465.5,368.9,465.5z"/>
			<path class="st2" d="M392,463.3c1.4,2.2,7.4,13.2,8.7,15.9c3.3,6.7,5.1,13.7,6.5,15.9s5.1,4.3,5.1,8s-1.4,8-1.4,10.1
				s-2.2,8-5.8,8c-3.6,0-6.5-1.4-6.5-2.9c0-1.4,1.4-2.9,1.4-5.1s0.7-9.4,1.4-11.6c-0.7-3.6-8.7-16.6-12.3-19.5s-12.3-13.7-13-16.6
				C375.4,462.6,392,463.3,392,463.3z"/>
			<path class="st2" d="M357.3,376.5c-1.4,2.2-6.5,7.2-8.7,8c-2.2,0.7-13-8-13.7-10.1c-0.7-2.2,2.9-3.6,5.1-5.8
				c2.2-2.2,3.6,4.3,5.8,5.1c1.4-1.4,4.3-5.1,4.3-5.1s4.3-5.1,6.5-3.6C358.7,366.4,357.3,376.5,357.3,376.5z"/>
			<path class="st2" d="M354.8,392c1.8,1.2,17.7,6.3,28.5,4.1"/>
			<path class="st2" d="M395.6,364.9c0.7,3.6-2.2,28.9-1.4,32.6c0.7,3.6,6.5,33.3,10.9,37.6c-1.4,2.9-14.5,14.5-22.4,13
				c-0.7-5.1,0.6-56.2,1-57.8s-0.4-23.2,4.7-24.7C393.5,364.2,395.6,364.9,395.6,364.9z"/>
			<path class="st2" d="M340.6,370.7c0-2.3-2.2-5.1-3.6-5.1s-4.3-0.7-5.1,0.7c-0.7,1.4-1.4,2.2-0.7,2.9c0.7,0.7,1.4,1.4,2.2,1.4
				c0.7,0,0-2.9,0.7-2.9s2.2,0,2.2,0s0,0.7-0.7,0.7s-2.2,0-0.7,0.7c1.4,0.7,2.2,0,2.9,0s0,2.9-0.7,3.6
				C336.3,373.6,340.6,372.9,340.6,370.7z"/>
			<path class="st2" d="M334.1,367.8c-1.4-0.3-4.3,0.7-5.1,4.3s-1.4,7.2,2.9,8.7c4.3,1.4,5.8-4.3,5.8-6.5S337.7,368.6,334.1,367.8z"
				/>
			<g>
				<path class="st2" d="M333.9,387.5c-2,0-3.5,0.7-5,5.7c-1.2,4-2,9.7,0,12.1c2.2,0.5,7.7,1,9.7,0c1-1.7,2-6.9,0.2-11.9
					C337.5,389.6,336.4,387.5,333.9,387.5z"/>
				<ellipse class="st2" cx="333.8" cy="402.6" rx="3.1" ry="3.7"/>
				<path class="st2" d="M337.4,406.6h-7.2c-0.7,0-1.2-0.6-1.2-1.2l0,0h9.7l0,0C338.6,406,338.1,406.6,337.4,406.6z"/>
				<rect x="330.4" y="387" class="st2" width="6.7" height="1.5"/>
				<rect x="330.4" y="383.6" class="st2" width="6.7" height="2.2"/>
				<path class="st2" d="M336.1,383.6h-4.5l0,0c0-1.2,1-2.2,2.2-2.2l0,0C335.1,381.3,336.1,382.3,336.1,383.6L336.1,383.6z"/>
				<polygon class="st2" points="338.4,387 329.2,387 330.4,385.8 337.1,385.8 				"/>
				<polygon class="st2" points="336.9,407.3 330.7,407.3 331.4,406.6 336.1,406.6 				"/>
				<rect x="330.7" y="407.3" class="st2" width="6.2" height="1.2"/>
				<path class="st2" d="M340.6,410.3H327l0,0c0-1,0.8-1.7,1.7-1.7h10.2C339.8,408.6,340.6,409.4,340.6,410.3L340.6,410.3z"/>
				<rect x="327" y="410.3" class="st2" width="13.6" height="5.9"/>
				<path class="st2" d="M342.8,418.5h-18.1l0,0c0-1.2,1-2.2,2.2-2.2h13.6C341.8,416.3,342.8,417.2,342.8,418.5L342.8,418.5z"/>
				<path class="st2" d="M336.6,384.6c0.5,0,1.5,0,1.7,0s2,1,2.2,3s3,22.3,3,23.3s-0.2,2.5-1.5,2.5c-0.7,0-3.5,0-3.7,0"/>
				<path class="st2" d="M330.9,384.6c-0.5,0-1.5,0-1.7,0s-2,1-2.2,3s-3,22.3-3,23.3s0.2,2.5,1.5,2.5c0.7,0,3.5,0,3.7,0"/>
				<ellipse class="st2" cx="333.9" cy="374.8" rx="5.2" ry="7.7"/>
			</g>
			<g>
				<path class="st2" d="M365.5,406.1c0.1,2.5-0.2,2.5,0.4,3.7c-0.1,1.6,0.8,4.3,1.3,4.8c0.3,2.1,0.5,2.4,1.4,2.9
					c0.5,1.8,1.7,3.8,3.1,4.3c0.5,1.8,2.7,3.4,3.5,3.3c1,1.7,12,8.5,22.4,0.1c2.5-0.6,1.8-1.8,2.8-2.5c1-0.4,2.8-4.1,3-4.7
					c0.9-1,1.8-4.3,1.7-4.9c0.6-1,1.2-2.6,1.1-3.9c0.2-0.6,0.4-2.8,0.1-3.4c0.4-0.7,1.1-3.9-0.6-4.6c-1.6-0.7-13,0-13.9,1.1
					c-1.8-0.1-3.6,0.6-4.6,0.7s-6.2-0.8-7.1,0.2s-3.8,0.5-4.5,0.5c-0.8,0.1-2.2,0.9-3.2,1s-4.1-0.1-4.8,0.6
					C366.9,406.1,365.5,404.7,365.5,406.1z"/>
				<path class="st3" d="M368,405.9c-0.5-1.9-2.4-9.4,0.8-15.9c3.2-6.5,9.3-9.1,14.9-9.8c8.6-1.2,12.7,2,15.4,4.8
					c3,3.1,5.5,9,5.5,16.5"/>
				<path class="st2" d="M368.1,403.3c3.5-2.6,6.5-5.8,9.4-5.8s5.1-2.2,8-2.9s5.1-0.7,6.5,0.7c1.4,1.4,4.3,1.4,7.2,2.2
					c2.9,0.7,5.1,0.7,5.1,2.2c0,1.4,0,4.3-2.2,5.1c-2.2,0.7-26,3.6-29.7,3.6S365.2,405.5,368.1,403.3z"/>
			</g>
		</g>
		
			<radialGradient id="SVGID_2_" cx="333.5" cy="3896.5" r="20.5" gradientTransform="matrix(1 0 0 -1 0 4304)" gradientUnits="userSpaceOnUse">
			<stop  offset="0" style="stop-color:#E89400"/>
			<stop  offset="1" style="stop-color:#E99200;stop-opacity:0"/>
		</radialGradient>
		<circle class="st4" cx="333.5" cy="407.5" r="20.5"/>
	</g>
	<g>
		<path class="st5" d="M267.6-2.2c-3.6,13-7.6,29.4-7.9,31.1c-1.4,6.8-6.2,21.2-9.2,27.3c-1.8,3.7-9.9,27.2-11.7,30.8
			c-1.6,3.3-3,7-4.7,10.4c-1.9,3.8-3.4,4.6-5.8,7.7c-2.3,3-3.9,8.6-5.2,12.3c-2.5,7.4-3.9,17-11,19.5c-5.1,1.8-9.4,4.1-11.3-3.8
			c-1.3-5.3-1.4-12-1.3-17.6c0.1-14.1-0.5-29.2,1.1-43.1c1.4-11.7,6.8-50.4,6.5-74.7H187c-3.1,18.1-5.9,41.2-6,46.2
			c-0.4,15.4-0.5,29.1-5.7,43.4c-4.7,13-9.9,25-12.8,38.9c-2.8,13.4,0.6,24.1,3.5,37.1c2.5,11.6,4.5,28.6,1.4,39.8l-4.8,26.2
			c-0.9,3-6,22.8-12.3,16.9c-1.2-1.1-1.2-8.6-1.4-10.3c-0.5-4.4-0.3-9.1-1.2-13.4c-0.8-3.9-2.2-7.5-2.7-11.5
			c-0.8-6.9-0.4-13.3-0.4-20.1c0-8.6-1-17-2-25.5c-0.9-8.2-0.4-14.8,0.2-22.8c0.6-8.5,0.1-16.6,1.7-25c1.4-7.7,3.6-14.9,6.1-22.2
			c1.6-4.7,4.3-7.6,6.4-11.9c1.8-3.6,2-7.7,2.8-11.6c1.8-8,5.2-14.5,7.8-22.6c6.2-18.8,9.4-38,10.3-51.7H174
			c-1.1,8.4-2.1,16.9-2.7,17.8c-1.1,1.7-7.5,17.3-8.3,18.9c-1.8,3.6,0.2,8.3,0,12c-0.1,4.4-2.5,5.9-3.3,9.9c-0.9,4.2-0.5,6.4-2.7,10
			c-1.8,2.9-4.4,5.2-5.9,8.3c-1.6,3.1-2.3,6.5-4,9.7c-2.4,4.5-4.4,12.9-8.3,15.6c-3.8-7.8,1.4-17.9,1.5-26.6c0.2-16.6-3.4-33.8-9-49
			c-3.5-9.5-9.1-17.9-13.5-26.7h-11c1.6,5.6,4.2,11.2,7.9,17.1c8.8,14.3,12.1,33.3,8.9,50.6c-3.1,16.4-1.7,33.5,0,50.1
			c0.7,6.5-0.8,12.7-0.6,19.3c0.2,7.8,1.9,15.1,1.9,22.9c0,4.8,1.4,12-0.1,16.4c-2.8,7.9-8.5-3.8-11.1-7.5
			c-4.4-6.3-8.2-13.7-12.3-20.4c-2.9-4.8-6.3-10.9-7.7-16.5c-1.6-6.5-1.6-13.6-3.4-20.1c-1.8-6.3-6.1-11.5-6.6-18
			c-0.5-6,1.2-11.5,0.8-17.7c-0.4-5.5-1.6-11.1,0.2-16.6c2.3-6.7,7.5-11,8.3-18.7c0.7-6.4,0.1-13.9-1.1-20c-1.3-6.5-3.2-12.2-5-18.4
			c-0.2-0.8-0.4-1.7-0.6-2.5h-9.5c2.3,12.2,10,22.5,7.9,35.6C83.8,39,81,62.3,74.3,58.8c-1.8-1-3-4.8-4.3-6.5
			c-2.7-3.5-5.2-6.5-7.4-10.6c-2.8-5.2-5.2-11.2-7-17.1c-1.7-5.4-3.1-10.5-5.7-15.3C48,5.9,45.6,1.6,43.2-2.5h-2.8
			c0.7,1.5,1.4,2.8,1.8,3.6c3.8,7.1,8.7,13,10.2,21.4c1.3,7.3,0.8,13.7,3.4,20.7c3.2,8.6,8.5,15,13.2,22.3c2.2,3.3,5,7.3,4.7,11.9
			c-0.3,3.9-1.5,5.5-0.9,9.7c2.1,14.8,7.1,30.4,11.2,44.7c4.1,14.2,12.4,28.8,20.1,40.7c3.9,6.1,9.1,9,13.7,14
			c4.8,5.3,5.1,12.3,6.8,19.4c2.9,11.8,5.5,27.1,4.9,39.4c-0.3,5.9,2,9.9,1.9,15.7c-0.1,5.9,0.9,15.3,0.6,21
			c-0.3,7.5,7.6,80.3,4.1,85.6c-3.4,5.2-0.4,60.3-3,66.1c-5.8,13.1-4.1,61.2-7.6,77.3c-2.5,11.4-12.5,131.8-2,129.1l55.6,3.8
			c5.1-1.3-0.4-158.8,2.6-161.7c4-3.9,6.1-76.9,5.5-83.2c-0.9-9.3,2.2-114.5,6.2-123.6c4.4-9.9,10.3-16.9,11.1-28.8
			c0.6-9.8,1-19.7,1.9-29.5c0.8-8.6,3.5-16.3,2.3-25.1c-1.3-9.8-3.1-18.7-0.8-28.6c1.3-5.5,4.7-8,7.1-12.8c2.5-5,5.1-8.5,8.8-12.4
			c7.1-7.5,7-19.4,13.6-27.6c3.3-4,3.2-7.8,4.8-13c1.8-5.7,4.4-11.7,7.5-16.4c3.9-5.9,17.9-56.5,22.5-83.8h-4.6V-2.2z"/>
	</g>
	<path class="st6" d="M0,629c12-1,162-44,282-84s235-78,402,6c97.1,48.8,183.7,129.2,253.3,125.6C1007,673,956.9,880,956.9,880H44
		L0,629z"/>
	<path class="st7" d="M0,411c246,0,289,241,505.6,277.1C815.7,739.8-2,730-2,730L0,411z"/>
	<path class="st5" d="M794.2,414c0-20-12.7-72-18.7-97c-5.9-25,4.2-104,0-118s-1.7-112-5.1-127c-2.9-12.6,0.9-52.8,3.7-74.2h-43.6
		c3.3,26.9,5.8,87.8,10.2,111.2c5.1,27-2.5,145,0.8,159s-3.4,271,0,343s45.8,50,57.6,49s8.5-44,0-71S794.2,434,794.2,414z"/>
	<path class="st5" d="M543.4,99.5c6.3-12.8,8-73.8,8.5-101.7h-54.5c-0.6,15.6-0.6,36.4,1.4,54.7c3.9,35,16.4,123,11.7,146
		s-2.3,88-2.3,115s0.8,108-1.6,142c-2.3,34,0,209-9.4,237s43.1,12,43.1,12c-1.6-14,3.9-289,0-318s7.8-184,7.8-202
		S535.6,115.5,543.4,99.5z"/>
	<g>
		<g>
			<path class="st5" d="M985,257c-12.6,22.1-10.7-11.4-11.9-22.9c-1.7-16.5-6.5-28.5-3.8-44.8c2.4-14.7-0.9-29.1,3.7-43.7
				c25.2-80.1,35.1-122.6,39-147.7h-12.9c-3.6,16.7-8.9,36.4-17.1,57.2c-3,7.4-23.5,81.4-26.6,87.4c-3.6,7-3.9,5.2-3.2,15.6
				c0.6,8.5,3.2,37.5-4.5,42.9c-4.1,2.8-12.3-23.3-19.1-43.3c2.8-17.2,7.2-36.6,14.9-50.2c6.3-11.2,26.7-43.3,32.2-109.6h-5.4
				c-18.6,76.9-24.8,76.7-30.3,87.2c-4.7,9-11.3,25.8-15.8,34.9c-4.1,8.3-6.6,18.4-10.9,26.8c-2.9,5.8-8.8,20.9-13.7,16.5
				c-2.8-2.5-4.4-18.2-5.4-22.4c-3.9-17-8.2-30.3-5.7-47.9c2.2-15.6-1.6-33.3,1.5-48.7L885-2h-20.6c-1.2,9.2-2.6,18.4-3.7,28
				c-3.1,26.1,9.8,48.9,5.2,73.8c-3.3,18.3-3.1,23,0.6,42c1.8,9.3-1.3,10.7-1.4,20.4C850.3,175.1,797.8,60.8,774.9-2h-4.3
				c10.1,64,17.6,77.8,22.5,87.2c8.3,15.8,25,72,67.8,99.2c16.4,10.4,5.7,44.9,5,63.5c-0.4,11.1,8.4,51-3.8,51.3
				c-4.4,0.1-13.2-20.2-17-24c-7.6-7.7-29.1-41.9-36-51c-8-10.6-37.4-75-43-87C741.2,84.4,714.8,26.1,699.6-2h-7.5
				c11.6,37.4,45.3,124.1,63.9,149.2c6.3,8.5,18,54,54.2,115.6c10.2,17.4,25.5,30.6,37.7,46.7c10.4,13.7,21.4,19.2,22.7,39.5
				c0.5,8.2,0.2,16.3,3.2,23.6c3.1,7.6,12,11.3,13.2,20.2c1,7.4-4.5,15.1-4.3,22.7c0.2,7.4,4.4,17.2,6.5,23.6
				c5,15,9.3,29.4,12.1,45.8c1.4,8.3,2.4,15.8-0.1,23.9c-3.5,11-4.1,9.3-3,21.4c1.3,14.9-4.4,31.5-4.9,47.3
				c-0.2,7.1-1.4,15.5-0.6,22.3c1.1,9.5,6.4,12.2,7.9,20.8c1.3,7.5-2.1,43.2-0.3,51.2s4.5,16.7,8,23.2l31.4,1.1
				c4.3-6.3,11.8-10.8,13.6-19.6c1.3-6.7,1.7-48.5,2-55.9c0.7-20.9-7.9-34.4-8.7-54.3c-0.4-9.8,1.3-18.6,0-28.3
				c-1.2-9.2-3.4-15.4-1-24.8c1.8-7.1,5.4-12.4,7.2-19.8c1.5-6.6,2.4-14.1,4.3-20.8c4.2-15.1,12.7-28.2,12.9-45.4
				c0.2-14.9-1.4-29.7-0.9-45.1c1-27.5,3-61.7,13.7-86.2C1014,224,1025,232,1062,160c34.6-67.4,36.5-70.8,32-78
				C1020,193,993.8,241.5,985,257z M945.4,273.3c-0.8,8.2-0.8,12.7-3.3,19.7c-2.1,5.9-4.1,8.1-5.5,15.3c-4.3,21.7,4.1,39.1,1.9,60.7
				c-1.1,11.3,0.4,25.2-3.8,35.4c-5.7,14-11.4,14.1-16.2,1.4c-3.8-10.2-5.3-19.8-6.1-31.1c-0.5-6.9,0-11.9-2.8-17.9
				c-2.4-5.2-7-6.7-8.3-13.4c-1.1-5.1,0.3-12,0-17.3c-0.4-6.4-2-10.1-3.3-15.8c-2.9-12.6-1.7-19.3-0.1-31.5
				c2.3-17.5-4.1-47.9,4.2-60.7c5.6-8.7,12.2-12.5,16.9-23.8c1.8-4.2,3.3-8.6,4.6-13c2.7,19.1,7.7,39.4,17.8,55.1
				C949.6,248.9,946.9,258.1,945.4,273.3z"/>
		</g>
	</g>
	
		<linearGradient id="SVGID_3_" gradientUnits="userSpaceOnUse" x1="446.8631" y1="3658.5022" x2="960.5709" y2="3658.5022" gradientTransform="matrix(1 0 0 -1 0 4304)">
		<stop  offset="0" style="stop-color:#005E85"/>
		<stop  offset="1" style="stop-color:#005570"/>
	</linearGradient>
	<path class="st8" d="M447,693c-2-12,18-63,54-76c14.4-5.2,22,18,43-12c13-18.6,25-29,46-22s15,33,30,31s30-7,47,14s29,15,46,10
		s40-10,57,0s33,21,56,19s33-5,53,6s26,14,49,15s46.1,0.4,23,16C896,731,447,693,447,693z"/>
	
		<linearGradient id="SVGID_4_" gradientUnits="userSpaceOnUse" x1="0" y1="3634.0833" x2="419" y2="3634.0833" gradientTransform="matrix(1 0 0 -1 0 4304)">
		<stop  offset="0" style="stop-color:#005E85"/>
		<stop  offset="1" style="stop-color:#005570"/>
	</linearGradient>
	<path class="st9" d="M419,698c-4-6-9-9-16-9s-15,4-21,2s-30-20-45-21s-19,7-30,5s-24-14-36-16s-21,3-27,0s-26.7-28-43-28
		c-25,0-31,8-47,0c-8.2-4.1-34-28-58-30s-82,14.3-96,33.7C0,653.4,0.5,739,0.5,739L419,698z"/>
	<path class="st10" d="M245-2.2c2.3,23.1,11.5,125.1,8,221c-4,109,1,220,0,256s6,220-10,236s55,0,55,0c-4-20-2-229,0-273
		s-10.8-288.1,1-314c8.7-19.2,7.3-104.7,6.8-126H245z"/>
	<path class="st11" d="M0,657.8C26,671,34,694,113,678s128-22,198-1s93,22,152,5s163-43,242-6c128.2,60,235,10,399.7-46.3
		c0,55.7,0.3,231.3,0.3,231.3H0V657.8z"/>
	<g>
		<path class="st12" d="M1107.6,662.9c-0.3-0.7-0.6-1.3-0.9-1.9c-2.7-6.2-5.6-9.3-14.2-11c-25.9-5-33.1-28.4-32.9-31.4
			c0.1-3,3.8,5.4,5.3,7.6c1.5,2.2,1.2-0.2,1.8-3.9c0.6-3.7,5.7,5.7,7.2,7.9s0.7-3.1,0.3-6c4.5,2.8,19.5,17.3,26.6,20.2
			c-1.9-1.1-5-7.1-7.2-10.6c5.1,3,9.9,4.9,14,6v-60c-4.1-3.1-7.6-5.4-8.3-6.2c-1.4-1.5,3.1-0.6,8.3-0.2v-0.1
			c-5.4-1.8-18.3-13.8-33.8-13.7c-5.3,0-27.7,2.5-35.2,4.2c-7.5,1.8-24.3-2.2-33.8-5.6c-9.5-3.3-27.4-4-29.8-4.2
			c-6.8-0.7-27.2,4.5-33,6s-22.6,3-23.9,2c-1.3-1,5.7-2.1,12.9-2c-3.8-5.4-20.1-2.3-21.4-3.3s6.9-5.8,6.1-6.9
			c-5.3,0.2-23.9,7.9-25.3,6.9c-1.3-1,5.7-5.7,9.6-7.5c-8.1-2.3-15.7,6.6-16.8,7.4s0-7.8-1.3-8.2c-1.3-0.4-4,12.6-5.8,12.9
			s-1.2-7.6-2-9.3c0.4,6.5-11.2,20.3-13.7,20s4.2-7.8,1.8-7.5c-2.3,0.4-6.2,6.3-8,6.6c-1.8,0.3,3.2-6.5,4.3-10.8
			c-4.9-0.4-15.3,17.3-16.5,17.5s1.1-8.5,2.6-14.2c-2-1.5-10.9,10.7-12.7,18.7c-1.5-2.2,0.1-10.8,0.8-14.5
			c-5.3,0.2-10.2,19.5-11.1,20.9c-1,1.3-1.4-1.6-3.8-5.4c-1.1,4.4,5.9,15.2,6.4,22.3c-1.8-7.5-13.1-15.3-16-14.3
			c-2.8,1,1.9,12.3-2.6,18.3c0.1-3-0.2-6.9-6.5-13.1s-6.3-2-6.2-1.4s0.8,13-0.5,16.2s-0.8,10.3-1.1,19.9c-6.1,6.9-4.9,26.5-2.4,30.9
			c-1,1.3-3.4,8.9-3.1,10.7c0.3,1.8,0.3,5.9-1.6,9.2c-1.9,3.3,0.1,9.1,1.4,9.3c4,0.9,14.5-1.3,15-1.4c0.6-0.1,0.8-2.5,2.6-2.8
			s-1.2,3.8,1.7,3.3s11.2-1.1,11-10.1c-0.3-12.5,17.5-14.7,20.4-15.1c2.9-0.4,7.6,2.4,10.6,6.7c0.4,2.9-19.7,35.3-21.1,37.9
			s-5.2,5-8.1,9.6c-2.9,4.6-2.8,8.8-8.9,23.5c-1.7,4.2-7.7,4.2-10.7,4c-3-0.1-6.2-1.4-7.2,3.5s-1.1,4.4-3.3,5.9s-1.4,10.4,2,12.9
			c3.3-1.7,7.4-2.3,9.5-0.3c2-2.7,10.4-2.2,14.2-4.6c3-4,5.9-4.5,9.5-8c3.6-3.6,4.8-7.9,5.5-11s2.5-11.1,6.3-13.5s4.7-4.3,8.6-10.3
			c3.9-6,31.6-36,33.1-37.4s4,3,5.8,6.9c1.2-3.8-3.1-12.7,0.5-12s10.8,7.9,13.4,12.9c-1.6-2.7-0.2-13.1,1.8-15.8s0.7,4.7,2,9.3
			c2.7-5.8,5.9-12.3,7.3-14.9s1.4,1.6,2.3,3.2c2.5-3.4,1.3-6.8,1.5-13.4c2.6,1.4,12.8,32.7,13,38.1c0.2,5.3-3,11.8-2.7,17.8
			c0.3,5.9,0.5,18.5,0.1,20.3c-0.3,1.8-7.4,2.3-10.2,3.4s-4.9,7.3-6.3,9.3c-1.5,2-0.6,3.7,1,6.4s2.4,3.8,5.6,5.1
			c0.8-2.5,4.8-0.1,7.5,1.8c1.5-2,7.7-4.2,9.2-2.6s2,1.5,2.9-0.4c6.2-2.2,6.7-2.8,9.5-8s-0.7-12.5-1.2-15.4
			c-0.4-2.9-0.3-5.9,1.3-7.4s2.9,3.1,4.6,6.5c2.4-4-1.4-12.9-1.1-14.8s2.2,2.7,3.5,3.1c0.2-2.4-2.3-7.4-4-10.7s-4.9-23.8-2.5-35.5
			s-0.1-23.9,0.2-25.8c0.3-1.8,4.6,2.9,7.7,7.2c1.2-8-3.2-9.1-6.3-14c4.3,0.5,3.1-3.1,6.2-5.9s2.6,7.4,4,9s2.3-2.3,4.1-6.2
			s1.6,2.7,2.4,3.8c0.8,1.1,1.5-2,3.1-3.5c-1,4.9,4.5,7.8,0.2,20c-0.9,2.5-2.8,5.2-2.2,5.1c0.6-0.1,2.3-0.4,4.1-0.6
			c0.5,3.5,5,9.4,5.9,7.5s-1.3-0.4-0.5-3.5c1.7,3.3,8.3,7.1,10.5,6.2s-0.2-1.2-1.7-3.3c2.4,0.2,17.3,7.5,18.3,10.3
			s-0.1,10.8-4.4,14.4s-16.6,4.9-19.4,6s-3.6,7.7-4.2,11.4s4.2,7.7,6.8,5.5c2.7-2.2,4.3-3.1,5.1-2s8.9-0.8,10.4-2.2
			c1.6-1.4,5-2.6,9-3.8s16.4-25.8,18.2-29.7s-0.4-6.5-1.3-8.8c-9.8-5.1-14.5-8.5-17.6-17c-2.5-7,5.4-27.2,11.3-27.5
			c5.9-0.3,2.8,14.5,4.3,16.1s3.2-2.3,5.2-5c0,4.2,5,13,8,13.1s-2.5-4.4-1.7-6.9s9.4,6.9,12,7.7c2.5,0.8,1.1-0.8-3.3-6.1
			c3,3.7,34.3,9.1,48,16.5c13.7,7.5,14.4,23.5,14.8,26.4s-5.1,2-6.4,5.2s0.6,11.9,0.8,13c0.2-2.4,4.9,0.4,6.2,1.4
			c1.7-0.9,5.5,0.9,8,1.2c0.2-0.4,0.4-0.8,0.6-1.1L1107.6,662.9L1107.6,662.9z"/>
		<path class="st13" d="M801.1,645.8c1-1.4,2.2,6.2-1.9,11.1C798.9,654.5,796.7,651.9,801.1,645.8z"/>
	</g>
	<g>
		<path class="st2" d="M480.1,95.9c-0.9,5.7-1.9,15.5-3.6,18.5c-0.8,1.4-2,0-3,1.8c-0.9,1.7-1.9,7.5-2.4,10.1
			c-2.5,12.9-5.6,32.1-9.8,40.1c-4.2,8-10.9,6.7-12.8-10c-1-8.2,1-12.4,0.7-19.7c-0.2-6.5-2.1-16.6-2.9-23.1c-1-9.3-1.8-14.9-0.8-24
			c0.7-6.5,1.1-12.5,1.4-19.7c0.4-8.7,0.8-13.2,2.3-20.7c1.8-9,3.6-12.5,5.9-19.3c1-3,1.7-7.7,2.9-10.1c1.3-2.5,3.1-2.8,4.4-5.2
			c2.5-4.5,4.5-5.3,7-8.5c1.3-1.6,2.1-5.4,3.3-7.5c0.1-0.2,0.3-0.5,0.4-0.7h-64.9c-0.9,5.7-1.9,10.5-4.4,13.4
			c-2.8,3.3-7.7-1.3-9.9-7.2c-0.7-2-1.4-4-2.1-6.2h-11.6c0.5,2.5,1.1,5,1.8,7.4c2.7,9.5,2.9,18.4,5,28.6c2.3,11.3,6.4,18.7,7.5,32.3
			c0.4,5.7,0.1,10,1.1,15.2c1.3,6.8,4.1,10.7,5.8,16.8c2.5,9.3,3.7,22.5,5.3,33.3c1.6,10.3,2.9,21,3.9,32.2c0.2,2.6,0.7,5.4,0.8,8.1
			c0,2.7-0.5,5.5-0.5,7.2c0.1,6.2,1.3,12,1.1,18.5c-0.1,1.9-0.1,4.1-0.5,5.8c-0.6,2.4-1.8,2-2.1,3.3c-1,3.4-0.4,14.1-1.8,15.9
			c-2.9,3.8-9.1-21.6-10.1-27.6c-2.1-11.7-3.2-24.9-5-36.9s-4-23.8-5-36.8c-1-13.1-1.8-24.4-4.4-35.8c-1.2-5.4-6.9-30-8.6-15.6
			c-1.3,10.8,3.8,34.6,5.4,44.4c2,11.6,2.9,24,4.6,36.2c1,7.1,3.4,15.9,3.4,23.4c0.1,6.3-0.9,12.5-0.6,19.7
			c0.8,16.8,4.9,23.4,8.6,34.2c7.3,21.5,9.4,55.6,8,84.9l0.8,29.4c-0.2,7.6,0.1,16.3,0.3,23.9c0.2,7.5,1.8,16.1,1.6,23.3
			c-0.2,9.6-1.8,13.5-0.6,24c1,8.4,2.5,15.5,2.8,24.5c0.3,7.6,0.1,16.5-0.3,23.9c-0.2,3.3-0.1,7.2-0.9,10c-1.6,5.5,1.6,6.7,0.3,9.9
			c-1.7,4-2.9,7.7-2.2,14.1c0.9,8.5,0.9,15.1,0.6,23.9c-0.3,8.9,0.7,16.1,0.8,24.9c0.1,7.7-0.4,15.7-0.8,23.3
			c-0.9,17-5.6,30.6-7.2,47.2C398,626.4,395,724,392,737c-3.3,14.3,16.7-10.8,21.1-7.2c3.1,2.5,6.2,5.2,9.2,7.8
			c3.8,3.2,5.7,2.7,9.5,1.6c3.4-0.9,7,2.2,10.5,1.7c5.1-0.7,8.8-0.9,13.3-10.3L476,743c3.5-1.6-3.9-24.2-5.4-33.6
			c-1.4-9.1-7.5-59.2-9.4-67.3c-1.9-8.3-1.5-15.7-1.9-24.4c-0.4-8.4-1.3-15.9,0.1-24.3c-2.3-7.4-2.5-8.2-3.1-17.6
			c-0.5-7.1-2-13.5-2.2-20.1c-0.1-6.9,1.4-16.6,0.5-23.7c-0.9-8.1-4.6-13.7-4.3-22.9c0.4-9.7,3.5-13.5,5.1-19.7
			c1.7-6.9,0.2-18.5-0.8-25.8c-0.9-7.1-3.8-17.4-3.4-24.7c0.6-11.2,4.8-13.1,3.4-26.5c-1.1-10.7-4.7-16.5-5.9-27.2
			c-0.4-4-0.7-8.2-0.5-12.6c0.4-7.3,1.1-6.2,2.6-10.7c6.6-20.5,3-35.5-1.1-56.4c-2.2-11.2-2.1-17.6-0.7-29.5
			c1.3-10.9,1.1-20.5,0.9-31.9c-0.2-10.8,1.2-19.1,0.8-29.9c-0.1-4.6-1-11.9,0.8-13.7c1.3-1.3,3.4,4.8,5,3.8
			c1.2-0.8,3.9-6.7,4.8-9.6c1.6-5.3,1-11.5,1.9-17.3c1.1-6.8,3.4-7,4.8-12.9c1.3-5.3,1.6-12.6,2.7-18.4c2.9-15.7,5.9-19.1,10.9-28.4
			c6-11,6.1-27.6,3.3-46.3L480.1,95.9z"/>
	</g>
	<path class="st7" d="M1105,674c0,0-58.3,16.4-143,44c-172,56-256,55-327,16c-66-36.3-139-55-248-19c-60.2,19.9-143,52-306,79
		c0,9,99,96,99,96h925V674z"/>
	<path class="st14" d="M102,802C56,690,57,584,56,564s11-156,7-177s6-99,7-126S68.6-0.1,68.6-0.1L0,0v774L102,802z"/>
	<path class="st2" d="M688,799c-12-8-28-285-20-326s-8-126,4-274c4.1-50.5,36.3-181.7,72.2-198.8c-26.3,0-93.6,0-99.9,0
		C644.3,18,621,79,622,99C612,80,549.1,0.2,519.1,0.2s-71.7,0-71.7,0S499,35,528,64s59,80,68,108s17,87,15,154c-1,34.8-5,132-9,170
		s15,256-13,291L688,799z"/>
	<path class="st6" d="M0,734c0,0,46.3,42.4,101,48c136,14,257.3-45.9,371-43c156,4,296,117,451,83c101.2-22.2-31,68-31,68H0V734z"/>
	<path class="st14" d="M1107.6,769c-0.5-16.7-0.4-40.4,0-68.6V0C1046.9,0,947,0,947,0s64.3,83.8,66,141c2.2,73,25,152,0,311
		c-8.2,51.9-21,265-121,395c-42.2,54.9,195.4-46.7,215.6-55.4V769z"/>
	<path class="st14" d="M1107,713C961,818,868.6,885.1,709,833c-242-79-297-51-435-8C130,869.9,77,886,0,883c0,6.3,0,7,0,7h1105
		L1107,713z"/>
	<g>
		<g>
			<path class="st15" d="M628,934.7c0.6,0,0.6-1,0-1S627.4,934.7,628,934.7L628,934.7z"/>
		</g>
	</g>
	
		<linearGradient id="SVGID_5_" gradientUnits="userSpaceOnUse" x1="-0.5" y1="3859" x2="1105.2" y2="3859" gradientTransform="matrix(1 0 0 -1 0 4304)">
		<stop  offset="0" style="stop-color:#005E85"/>
		<stop  offset="0.9164" style="stop-color:#FFFFFF"/>
	</linearGradient>
	<rect class="st16" width="1104.7" height="890"/>
</g>
<g id="референс">
</g>
</svg>
