<?xml version="1.0" encoding="utf-8"?>
<!-- Generator: Adobe Illustrator 24.0.2, SVG Export Plug-In . SVG Version: 6.00 Build 0)  -->
<svg version="1.1" xmlns="http://www.w3.org/2000/svg" xmlns:xlink="http://www.w3.org/1999/xlink" x="0px" y="0px"
	 viewBox="0 0 1280 1024" style="enable-background:new 0 0 1280 1024;" xml:space="preserve">
<style type="text/css">
	.st0{fill:url(#фон_1_);stroke:#FFFFFF;stroke-miterlimit:10;}
	.st1{fill:#020202;}
	.st2{fill:url(#SVGID_1_);}
	.st3{fill:none;stroke:#020202;stroke-miterlimit:10;}
	.st4{opacity:0.1;}
	.st5{fill:#FFFFFF;}
</style>
<g id="референс">
</g>
<g id="общий_вид">
	<linearGradient id="фон_1_" gradientUnits="userSpaceOnUse" x1="640" y1="1024" x2="640" y2="-9.094947e-13">
		<stop  offset="0" style="stop-color:#314E6D"/>
		<stop  offset="7.778031e-02" style="stop-color:#334A68"/>
		<stop  offset="0.6718" style="stop-color:#3F2E48"/>
		<stop  offset="1" style="stop-color:#43243C"/>
	</linearGradient>
	<rect id="фон" class="st0" width="1280" height="1024"/>
	<path class="st1" d="M570,1024c-1-11-13-48-17-53s-2-14-9-18s-27,3-30-4s-25-66-31-66s-18,5-18-4s-17-70-10-87s10-48,7-52
		c-3,12-4,23-7,23s-6,7-9,2s-5-25-10-27s0-39,7-47s18-24,16-26s-2-13,0-16s-2-19-6-21c-2-1-8-22-19-22s-10,8-12,12s-3,8-7,12
		s-9,16-11,20s-12,24-18,32s-17,48-21,55s-7,57-20,65s-24,1-18,13c-1,4-11,10-15,7s-14-4-12-14c-6,1-16,5-18,14s-10,42-13,41
		s-6-3-8,2s-4.8,81.3-14,88c-11,8,3,64-2,71C265,1025,570,1024,570,1024z"/>
	<path class="st1" d="M1108.5,1024.5c-22-23-14-55-19-62c15-4-55.5-54.5-48.5-56.5s17-9,25-9c-7-14-7-30-16-33s-19-24-19-26
		s-4-5-4-8s-9-13-13-14s-2-10-7-16s-8-5-8-7s-4-9-5-10s-6-11-13-2s-8,7-16,19s-11,8-13,13s-11,23-21,22s-15-6-24,5s-39,19-45,27
		c-11,1-27,4-30,8s-12,8-22,10s-6,4-15,6s-38,15-46,22s-55,38-69,42s-105,64-121,69C575,1024,1108.5,1024.5,1108.5,1024.5z"/>
	<path class="st1" d="M815,1024c-1-11-19-48-17-56s-1-48-5-45s-14,5-17-6s13-24.7,0-18.9s-11-2.1,0-13.1s37-67,26-63s-14,11-20,8
		s-11,11-15,11s-11,14-17,11s-2,6-28,19s-45,40-48,30s5-23,0-29s-5-6,3-13s12-19,21-19s17-10,16-18c9-10,15-23,16-28
		c11-2,38-13,47-15s0-7-2-14s10-13,14-24c11-8,23-15,27-24c15-5,17,0,26-5s19-11,19-16s0-17,6-16c2-8,4-9,0-10s-20-15-9-15
		s32-2,42-20s29-39,37-43c-6-6-13-18-15-24c-9,4-17,7-28,4s-21-13-30-12c-8-5-5-6-11-5c-5-5-9-18-14-7s-16,22-30,29s-49,12-50,23
		c-9,4-38,15-52,15c-9-8-17,4-29,8s-37,11-41,6s-18-28-30-23s-9,12-17,11s-32-1-38,7s-3,21-9,21s-23,0-23,8s9,38,18,43s3-9,6-2
		s10,14,16,14c-1,4-1,17,6,20c-2,7-4,14,0,17c-6-1-16,23-25,27c6,6,10,14,5,15s-20,20-26,33c-13,1-17,4-22,9s-18,23-8,19
		c-7,9-140,156-148,176C362,1024,815,1024,815,1024z"/>
	<path class="st1" d="M280.9,1024c4.6-21.5-13.4-88.5-16.4-123.5s-34-41-36-71c-13,5-11-32-16-46s-29,12-32,0s9-72,13-82
		c-21-10-56-14-53-32s32,1,46-10s21-32,47-27c10-24,0-15,1-26c-14,0-52-9-68-5s-30,19-47,11s-54-11-52-40c-11-3-15-33-25-48
		c-5,5-2,26-13,7s14-42,28-45c2-24-16-15-16-56s29,8,27-12s-18-62-7-86s-32-53-40-65s1-52,12-60s-33-5-33-5l-1,822L280.9,1024z"/>
	<radialGradient id="SVGID_1_" cx="1082.5" cy="201.5" r="42.5" gradientUnits="userSpaceOnUse">
		<stop  offset="0" style="stop-color:#FCF9BC"/>
		<stop  offset="0.857" style="stop-color:#FCF9BC;stop-opacity:0.143"/>
		<stop  offset="1" style="stop-color:#FCF9BC;stop-opacity:0"/>
	</radialGradient>
	<circle class="st2" cx="1082.5" cy="201.5" r="42.5"/>
	<rect x="409.5" y="569" class="st1" width="13.5" height="69"/>
	<rect x="401.5" y="607.5" class="st1" width="8" height="51"/>
	<rect x="451.5" y="593.5" class="st1" width="8" height="51"/>
	<rect x="423.5" y="486.5" class="st1" width="17" height="145"/>
	<rect x="440.5" y="543.5" class="st1" width="13" height="93"/>
	<rect x="896.5" y="467.6" class="st1" width="14.4" height="111.4"/>
	<rect x="833.7" y="447.6" class="st1" width="11.7" height="111.4"/>
	<rect x="769.4" y="333.3" class="st1" width="14.2" height="143.7"/>
	<rect x="866.5" y="424.5" class="st1" width="17" height="145"/>
	<rect x="883.5" y="481.5" class="st1" width="13" height="93"/>
	<path class="st3" d="M455.5,644.5C460,650,495,665,524,649"/>
	<path class="st3" d="M232,613c14,9,59.5,53.5,173.5,39.5"/>
	<g class="st4">
		<path class="st5" d="M1142.5,210.4c-25.9,1-51.7,1.6-77.6,2.1c-12.9,0.3-25.9,0.5-38.8,0.7c-12.9,0.2-25.9,0.4-38.8,0.5l-38.8,0.4
			l-19.4,0.1l-4.9,0l-2.4,0c-0.8,0-1.5,0-2.3,0c-1.5,0.1-3,0.2-4,0.4c-0.2,0.1-0.4,0.1-0.5,0.1c0,0,0,0,0.2-0.1
			c0.2-0.1,0.5-0.3,1-1.1c0.2-0.4,0.4-1,0.5-1.6c0-0.6-0.1-1.2-0.3-1.6c-0.3-0.8-0.6-1-0.7-1.1c-0.3-0.2-0.2-0.1,0-0.1
			c0.3,0.1,0.9,0.3,1.4,0.5c0.6,0.2,1.2,0.3,1.9,0.4c0.7,0.1,1.3,0.1,2,0.2c0.3,0,0.7,0,1,0l1.2,0c3.3,0,6.5,0,9.8,0.1
			c6.5,0.1,13,0.2,19.4,0.5c12.9,0.4,25.9,0.8,38.8,1.5c51.7,2.3,103.4,6.2,155,9.4c12.9,0.8,25.8,1.6,38.7,2.5
			c12.9,0.9,25.8,1.6,38.8,3.2l2.5,0.3c0.8,0.1,1.7,0.3,2.6,0.6c0.4,0.1,0.9,0.3,1.4,0.5c0.5,0.2,0.9,0.5,1.5,1
			c0.2,0.2,0.5,0.6,0.7,1c0.2,0.4,0.3,1,0.2,1.5c-0.1,0.5-0.3,0.9-0.5,1.3c-0.2,0.3-0.5,0.6-0.7,0.8c-1,0.8-2,1.1-2.9,1.3
			c-0.5,0.1-1,0.2-1.5,0.2l-1.3,0l-4.8,0.1c-6.5,0.1-12.9,0.2-19.4,0.3c-12.9,0.3-25.9,0.6-38.8,1c-25.9,0.8-51.7,1.7-77.6,2.6
			l-38.8,1.3l-19.4,0.7l-19.4,0.7c-6.5,0.3-12.9,0.6-19.3,0.9c-3.2,0.2-6.5,0.3-9.6,0.6c-1.5,0.1-3.1,0.3-4.5,0.5
			c-1.5,0.2-2.9,0.5-4,0.8c-0.3,0.1-0.5,0.2-0.6,0.2c-0.1,0.1-0.2,0.1-0.1,0c0.1-0.1,0.2-0.2,0.5-0.4c0.2-0.3,0.6-0.8,0.7-1.5
			c0.2-0.7,0.1-1.5-0.1-2c-0.2-0.5-0.4-0.8-0.4-0.9c-0.2-0.3-0.2-0.2-0.1-0.2c0.1,0.1,0.3,0.2,0.5,0.3c0.4,0.2,1,0.5,1.6,0.7
			c0.6,0.2,1.2,0.5,1.8,0.6c0.3,0.1,0.6,0.2,0.9,0.2l0.4,0.1l0.5,0.1c1.5,0.2,2.9,0.4,4.5,0.6c6.2,0.7,12.7,1.1,19.1,1.5l38.7,2.2
			c12.9,0.8,25.9,1.6,38.8,2.7c6.5,0.5,13,1.1,19.5,1.9l2.4,0.3l1.2,0.1l1.3,0.2c1.8,0.3,3.6,0.6,5.5,1.2c1,0.3,2,0.7,3.2,1.4
			c0.6,0.4,1.3,0.8,2.1,1.6c0.4,0.4,0.8,0.9,1.2,1.6c0.4,0.7,0.7,1.6,0.9,2.6c0.1,1,0,2.1-0.4,3c-0.3,0.9-0.7,1.5-1.1,2
			c-0.8,1-1.5,1.5-2.2,1.9c-1.3,0.8-2.4,1.2-3.5,1.5c-2.1,0.6-4,0.9-6,1c-0.9,0.1-2,0.1-2.8,0.1l-2.4,0l-9.7,0l-19.4,0
			c-25.9,0-51.7,0-77.6-0.2l-19.4-0.1l-19.4-0.2c-12.9-0.1-25.9-0.3-38.8-0.5c-25.9-0.4-51.8-0.9-77.6-1.6l0-1
			c25.9-1,51.7-1.9,77.6-2.6l38.8-1.1c12.9-0.4,25.9-0.7,38.8-1c25.9-0.7,51.7-1.1,77.6-1.6l19.4-0.3l9.7-0.1l2.4,0
			c0.8,0,1.4,0,2.1-0.1c1.3-0.1,2.6-0.3,3.6-0.6c0.5-0.1,0.9-0.3,1-0.4c0,0-0.1,0-0.4,0.4c-0.2,0.2-0.4,0.5-0.5,1
			c-0.2,0.5-0.3,1.1-0.2,1.8c0.2,1.3,0.8,1.9,0.9,2.1c0.2,0.2,0.2,0.2,0.1,0.1c-0.2-0.1-0.7-0.3-1.2-0.5c-1.1-0.3-2.5-0.6-3.9-0.8
			l-1.1-0.1l-1.2-0.1l-2.4-0.3c-6.3-0.7-12.7-1.2-19.1-1.8c-12.8-1.1-25.7-1.9-38.6-2.7c-12.9-0.8-25.8-1.7-38.8-2.6
			c-6.5-0.5-12.9-1-19.6-1.8c-1.6-0.2-3.4-0.5-5.1-0.7c-0.2,0-0.4-0.1-0.7-0.1c-0.3-0.1-0.6-0.1-0.8-0.2c-0.5-0.1-1-0.3-1.5-0.4
			c-0.9-0.3-1.8-0.6-2.7-1c-0.9-0.4-1.8-0.8-2.8-1.4c-0.5-0.3-1-0.6-1.5-1c-0.6-0.4-1.2-0.9-1.9-1.8c-0.3-0.5-0.7-1.1-1-2
			c-0.3-0.9-0.4-2.1-0.1-3.2c0.3-1.1,0.8-2,1.3-2.6c0.5-0.6,1-1,1.4-1.3c0.8-0.6,1.5-0.9,2.1-1.1c0.6-0.3,1.1-0.4,1.6-0.6
			c2-0.6,3.8-0.8,5.5-1.1c1.7-0.2,3.4-0.4,5.1-0.5c3.4-0.2,6.5-0.3,9.8-0.4c6.5-0.2,13-0.4,19.5-0.6c13-0.4,25.9-0.6,38.8-0.8
			c12.9-0.2,25.9-0.3,38.8-0.4c25.9-0.1,51.8,0,77.7,0.1l38.8,0.2l19.4,0.1l4.9,0l0.6,0l0.3,0l0.2,0c0.3,0,0.6,0,0.9-0.1
			c0.6-0.1,1.2-0.4,1.5-0.6c0.1-0.1,0.1-0.1,0.1-0.1c0,0,0,0-0.1,0.2c0,0.1,0,0.3,0,0.3c0,0.1,0,0.1,0,0c-0.2-0.2-0.8-0.5-1.5-0.7
			c-0.7-0.2-1.4-0.4-2.1-0.5l-2.3-0.4c-6.3-0.9-12.8-1.4-19.2-2c-6.4-0.5-12.9-1-19.3-1.4c-12.9-0.8-25.8-1.5-38.7-2.1
			c-51.7-2.3-103.4-2.8-155.1-4.2c-12.9-0.3-25.8-0.7-38.8-1.1l-19.4-0.5c-3.2-0.1-6.4-0.2-9.6-0.2l-1.2,0c-0.5,0-0.9,0-1.4,0
			c-0.9,0-1.9-0.1-2.8-0.3c-0.9-0.1-1.9-0.3-2.9-0.6c-1-0.3-2-0.6-3.1-1.1c-0.3-0.1-0.6-0.3-0.9-0.5c-0.3-0.2-0.7-0.5-1.1-0.9
			c-0.4-0.4-1-0.9-1.4-2.1c-0.2-0.6-0.4-1.3-0.4-2.2c0-0.8,0.3-1.6,0.6-2.2c0.7-1.1,1.3-1.6,1.8-1.9c0.5-0.3,0.9-0.5,1.3-0.7
			c0.7-0.3,1.3-0.5,1.8-0.6c2.1-0.5,3.9-0.6,5.7-0.6c0.9,0,1.8,0,2.6,0l2.4,0l4.9,0l19.4,0.1l38.8,0.4c12.9,0.1,25.9,0.3,38.8,0.5
			c12.9,0.2,25.9,0.4,38.8,0.7c25.9,0.5,51.7,1.2,77.6,2.1V210.4z"/>
	</g>
	<g class="st4">
		<path class="st5" d="M344,308.8c-17.3,0.6-34.5,1.1-51.8,1.4c-8.6,0.2-17.3,0.4-25.9,0.5c-8.6,0.1-17.3,0.3-25.9,0.3l-25.9,0.3
			l-12.9,0.1l-3.2,0l-1.6,0c-0.5,0-1,0-1.5,0c-1,0-2,0.1-2.6,0.3c-0.2,0-0.3,0.1-0.3,0.1c0,0,0,0,0.1-0.1c0.1-0.1,0.3-0.2,0.6-0.7
			c0.2-0.3,0.3-0.7,0.3-1.1c0-0.4-0.1-0.8-0.2-1c-0.2-0.5-0.4-0.6-0.5-0.7c-0.2-0.2-0.1-0.1,0,0c0.4,0.2,1.4,0.5,2.2,0.6
			c0.4,0.1,0.9,0.1,1.3,0.1l0.7,0l0.8,0c2.2,0,4.4,0,6.5,0.1c4.3,0.1,8.6,0.2,13,0.3c8.6,0.3,17.3,0.5,25.9,1
			c34.5,1.6,68.9,4.1,103.4,6.3c8.6,0.6,17.2,1,25.8,1.6c8.6,0.6,17.2,1.1,25.9,2.1c1.1,0.1,2.2,0.2,3.4,0.6c0.6,0.2,1.2,0.4,1.9,1
			c0.2,0.2,0.3,0.4,0.5,0.7c0.1,0.3,0.2,0.7,0.1,1c-0.1,0.7-0.5,1.1-0.8,1.3c-0.7,0.5-1.3,0.7-2,0.9c-0.6,0.1-1.3,0.1-1.8,0.1
			l-3.2,0c-4.3,0.1-8.6,0.1-12.9,0.2l-25.9,0.7c-17.2,0.5-34.5,1.1-51.7,1.7l-51.7,1.8c-4.3,0.2-8.6,0.4-12.9,0.6l-6.4,0.4
			c-1,0.1-2,0.2-3,0.3c-1,0.1-1.9,0.3-2.7,0.5c-0.3,0.1-0.7,0.3-0.5,0.2c0,0,0.2-0.1,0.3-0.3c0.2-0.2,0.4-0.5,0.5-1
			c0.1-0.5,0.1-1,0-1.3c-0.1-0.3-0.2-0.5-0.3-0.6c-0.1-0.2-0.1-0.1-0.1-0.1c0.1,0,0.2,0.1,0.3,0.2c0.3,0.2,0.7,0.3,1.1,0.5
			c0.4,0.2,0.8,0.3,1.2,0.4c0.2,0.1,0.4,0.1,0.6,0.2l0.2,0.1l0.3,0c1,0.1,2,0.3,3,0.4c4.2,0.4,8.5,0.7,12.8,1
			c17.2,1,34.4,1.8,51.7,3.2c4.3,0.4,8.6,0.8,13,1.3c2.1,0.3,4.4,0.4,7,1.3c0.7,0.2,1.3,0.5,2.2,0.9c0.4,0.2,0.9,0.5,1.4,1
			c0.5,0.5,1.2,1.3,1.4,2.8c0.1,0.7,0,1.4-0.2,2c-0.2,0.6-0.5,1-0.8,1.3c-0.5,0.7-1,1-1.5,1.3c-0.9,0.5-1.6,0.8-2.3,1
			c-1.4,0.4-2.7,0.6-4,0.7c-0.6,0-1.3,0.1-1.8,0l-1.6,0l-6.5,0l-12.9,0c-17.3,0-34.5,0-51.8-0.1c-34.5-0.2-69-0.6-103.5-1.6l0-0.7
			c34.5-1.3,69-2.3,103.5-3.1c17.3-0.4,34.5-0.7,51.8-1.1l12.9-0.2l6.5-0.1l1.6,0c0.5,0,0.9,0,1.4,0c0.9-0.1,1.7-0.2,2.4-0.4
			c0.3-0.1,0.6-0.2,0.6-0.3c0,0,0,0-0.2,0.2c-0.1,0.1-0.2,0.3-0.4,0.6c-0.1,0.3-0.2,0.8-0.1,1.2c0.1,0.9,0.5,1.2,0.6,1.4
			c0.1,0.1,0.1,0.1,0.1,0.1c-0.1-0.1-0.5-0.2-0.8-0.3c-1.5-0.5-3.6-0.7-5.7-0.9c-4.2-0.5-8.5-0.8-12.8-1.2
			c-17.1-1.4-34.3-2.2-51.6-3.6c-4.3-0.3-8.6-0.7-13-1.2c-1.1-0.1-2.2-0.3-3.4-0.5l-0.5-0.1l-0.5-0.1c-0.3-0.1-0.7-0.2-1-0.3
			c-0.6-0.2-1.2-0.4-1.8-0.7c-0.6-0.3-1.2-0.5-1.8-0.9c-0.3-0.2-0.7-0.4-1-0.7c-0.4-0.3-0.8-0.6-1.2-1.2c-0.2-0.3-0.5-0.7-0.7-1.3
			c-0.2-0.6-0.3-1.4-0.1-2.1c0.2-0.7,0.5-1.3,0.9-1.7c0.3-0.4,0.6-0.6,0.9-0.8c1.1-0.7,1.8-0.9,2.5-1.1c1.3-0.4,2.5-0.6,3.7-0.7
			c1.2-0.1,2.3-0.2,3.4-0.3c2.2-0.1,4.4-0.2,6.5-0.3c4.3-0.2,8.7-0.3,13-0.4c8.6-0.2,17.3-0.4,25.9-0.5c8.6-0.1,17.3-0.2,25.9-0.2
			c17.3-0.1,34.5,0,51.8,0.1l25.9,0.1l12.9,0.1l3.2,0c0.6,0,1,0,1.4-0.1c0.4-0.1,0.8-0.2,1-0.4c0.1-0.1,0.1-0.1,0,0
			c0,0.2,0.1,0.3,0,0.2c-0.1-0.1-0.5-0.3-1-0.5c-0.9-0.3-1.9-0.4-3-0.6c-4.2-0.6-8.5-0.9-12.8-1.3c-4.3-0.3-8.6-0.7-12.9-0.9
			c-8.6-0.5-17.2-1-25.8-1.4c-17.2-0.8-34.5-1.2-51.7-1.6l-25.9-0.6l-12.9-0.3l-12.9-0.3l-25.9-0.7l-12.9-0.3
			c-2.1-0.1-4.3-0.1-6.4-0.1l-0.8,0c-0.3,0-0.6,0-0.9,0c-0.6,0-1.2-0.1-1.9-0.2c-1.3-0.2-2.5-0.4-4-1.1c-0.4-0.2-0.8-0.4-1.4-0.9
			c-0.3-0.3-0.6-0.6-1-1.4c-0.2-0.4-0.3-0.9-0.2-1.4c0-0.5,0.2-1.1,0.4-1.4c0.4-0.8,0.9-1.1,1.2-1.3c0.3-0.2,0.6-0.3,0.8-0.5
			c0.5-0.2,0.9-0.3,1.2-0.4c1.4-0.3,2.6-0.4,3.8-0.4c0.6,0,1.2,0,1.7,0l1.6,0l3.2,0l12.9,0.1l25.9,0.3c8.6,0.1,17.3,0.2,25.9,0.3
			c8.6,0.1,17.3,0.3,25.9,0.5c17.3,0.4,34.5,0.8,51.8,1.4V308.8z"/>
	</g>
	<g class="st4">
		<path class="st5" d="M614.8,107.8c-12.2,0.3-24.5,0.5-36.7,0.7l-36.7,0.5c-24.5,0.3-48.9,0.5-73.4,0.7l-36.7,0.2l-18.3,0.1l-9.2,0
			c-1.5,0-3,0-4.5,0.1c-0.7,0-1.5,0.1-2.1,0.2l-0.4,0.1c0,0-0.1,0-0.1,0c0.1,0,0,0.1,0.6-0.3c1.7-0.8-0.2-5-0.3-3.8
			c-0.2-0.1-0.2-0.1-0.2-0.1c0,0,0.2,0,0.3,0.1c1.2,0.2,2.8,0.3,4.2,0.4c1.5,0.1,2.9,0.1,4.5,0.1l9.2,0c6.1,0,12.2,0.1,18.4,0.1
			c12.2,0.1,24.5,0.3,36.7,0.5c48.9,0.9,97.8,2.4,146.7,3.6l36.7,0.8c12.2,0.3,24.5,0.5,36.7,1c1.5,0.1,3.1,0.1,4.6,0.2
			c0.8,0.1,1.6,0.1,2.3,0.2c0.4,0.1,0.8,0.1,1.2,0.2c0.2,0.1,0.4,0.1,0.7,0.2c0.2,0.1,0.3,0.1,0.7,0.5c0.4,0.8-0.3,1.5-0.4,1.5
			c-0.4,0.2-0.6,0.3-0.8,0.3c-0.2,0.1-0.4,0.1-0.6,0.1c-0.4,0.1-0.8,0.1-1.2,0.2c-0.8,0.1-1.6,0.1-2.4,0.1l-4.6,0l-18.3,0.2
			l-36.7,0.5L488,119.2l-18.3,0.3c-6.1,0.2-12.3,0.2-18.2,0.5c-0.7,0.1-1.5,0.1-2.2,0.2c-0.3,0-0.7,0.1-1,0.1
			c-0.1,0-0.3,0.1-0.3,0.1c0,0-0.1,0,0,0c0,0,0,0,0.4-0.2c0.2,0.3,1.7-2.1,0.6-3.5c-0.6-0.8-0.7-0.6-0.8-0.7c-0.1-0.1,0,0,0.1,0
			c0.2,0.1,0.5,0.1,0.9,0.2c0.7,0.1,1.4,0.2,2.1,0.3c1.5,0.2,2.9,0.4,4.3,0.4c1.5,0.1,3,0.1,4.5,0.2c6.1,0.2,12.2,0.3,18.3,0.4
			c24.4,0.4,48.9,0.8,73.4,1.5c6.1,0.2,12.2,0.4,18.4,0.6c3.1,0.1,6.1,0.2,9.3,0.6c0.8,0.1,1.6,0.2,2.5,0.4c0.5,0.1,0.9,0.2,1.6,0.4
			c0.2,0.1,0.4,0.2,0.7,0.3c0.2,0.3,0.9,0.2,1.5,1.9c0.5,2.3-1,3.2-1.2,3.4c-0.4,0.3-0.6,0.4-0.8,0.5c-0.8,0.3-1.2,0.4-1.7,0.5
			c-0.5,0.1-0.9,0.1-1.3,0.2c-0.8,0.1-1.7,0.2-2.5,0.2c-1.6,0.1-3.2,0.1-4.8,0.1l-4.6,0l-9.2,0l-18.3,0l-73.4-0.3
			c-48.9-0.3-97.8-0.7-146.8-1.5l0-0.6c48.9-1.1,97.8-1.8,146.8-2.3l73.4-0.7l18.3-0.1l9.2-0.1l4.6,0c1.5,0,3-0.1,4.4-0.2
			c0.7-0.1,1.4-0.1,2.1-0.2c0.3,0,0.7-0.1,1-0.2c0.3,0,0.6-0.1,0.5-0.1c0,0-0.1,0-0.3,0.2c0,0-1.4,0.8-1,2.9
			c0.6,1.5,1.1,1.4,1.1,1.5c0.1,0.1,0.2,0.1,0.2,0.1c0,0-0.3-0.1-0.6-0.1c-0.6-0.1-1.3-0.2-2-0.3c-2.9-0.3-5.9-0.4-9-0.5l-18.3-0.6
			l-73.4-1.8c-6.1-0.2-12.2-0.3-18.4-0.6c-1.5-0.1-3.1-0.1-4.6-0.2c-1.6-0.1-3.2-0.3-4.8-0.5c-0.8-0.1-1.6-0.2-2.4-0.4
			c-0.4-0.1-0.9-0.2-1.4-0.3c-0.3-0.1-0.5-0.2-1-0.4c-0.3-0.2-0.5-0.2-1.2-1.1c-1.3-1.5,0.4-4.2,0.8-4c0.5-0.3,0.7-0.4,0.9-0.5
			c0.2-0.1,0.4-0.1,0.5-0.2c0.3-0.1,0.5-0.1,0.8-0.2c0.5-0.1,0.9-0.1,1.3-0.2c0.8-0.1,1.6-0.2,2.4-0.2c6.3-0.4,12.4-0.3,18.5-0.4
			l18.4-0.2c24.5-0.2,48.9-0.2,73.4-0.2l73.4,0.3l36.7,0.2l18.3,0.1l4.6,0c0.8,0,1.5,0,2.2-0.1c0.4,0,0.7-0.1,1.1-0.1
			c0.2,0,0.3-0.1,0.5-0.1c0.1,0,0.3-0.1,0.3-0.1c0.1-0.1-0.5,0.4-0.2,1c0.2,0.3,0.2,0.2,0.2,0.2c-0.1,0-0.2-0.1-0.4-0.1
			c-0.3-0.1-0.7-0.1-1-0.2c-0.7-0.1-1.5-0.2-2.2-0.2l-4.6-0.2c-24.4-1-48.9-1.4-73.3-1.7c-48.9-0.6-97.9-0.5-146.8-0.8l-36.7-0.3
			l-18.3-0.2l-9.2-0.1c-1.5,0-3.1,0-4.7-0.1c-1.6-0.1-3.1-0.2-4.9-0.5c-0.2-0.1-0.5-0.1-0.8-0.2c-0.2-0.1-0.3-0.1-0.7-0.3
			c-0.2,1.2-2.3-3.3-0.4-4.2c0.7-0.5,0.9-0.5,1.1-0.6c0.2-0.1,0.3-0.1,0.5-0.1c0.3-0.1,0.5-0.1,0.7-0.1c0.9-0.1,1.7-0.2,2.5-0.2
			c1.6-0.1,3.1-0.1,4.7-0.1l9.2,0l18.3,0.1l36.7,0.2c24.5,0.2,48.9,0.4,73.4,0.7l36.7,0.5c12.2,0.2,24.5,0.4,36.7,0.7V107.8z"/>
	</g>
</g>
<g id="Слой_1">
	<g>
		<rect x="654.5" y="270.5" class="st1" width="32" height="361"/>
		<rect x="652.5" y="506.5" class="st1" width="23" height="137"/>
		<rect x="729.5" y="490.5" class="st1" width="24" height="118"/>
		<rect x="751.5" y="438.5" class="st1" width="14" height="165"/>
		<rect x="717.5" y="372.5" class="st1" width="24" height="244"/>
		<rect x="602.5" y="343.5" class="st1" width="23" height="91"/>
		<rect x="591.5" y="430.5" class="st1" width="61" height="210"/>
		<rect x="530.5" y="490.5" class="st1" width="22" height="159"/>
		<rect x="556.5" y="427.5" class="st1" width="12" height="237.5"/>
		<rect x="569.5" y="392.5" class="st1" width="17" height="229"/>
		<rect x="581.5" y="299.5" class="st1" width="13" height="137"/>
		<rect x="630.5" y="382.5" class="st1" width="24" height="90"/>
		<polygon class="st1" points="740.9,389.5 717.3,389.5 712,380.5 747,380.5 		"/>
		<polygon class="st1" points="674.9,523.5 651.3,523.5 646,517 681,517 		"/>
		<polygon class="st1" points="752.9,505.5 729.3,505.5 724,496.5 759,496.5 		"/>
		<polygon class="st1" points="765.3,450 751.2,450 748,443.5 769,443.5 		"/>
		<rect x="703" y="306.5" class="st1" width="16" height="135"/>
		<polygon class="st1" points="718.8,318 702.7,318 699,311.5 723,311.5 		"/>
		<polygon class="st1" points="568.7,440 555.9,440 553,433.5 572,433.5 		"/>
		<polygon class="st1" points="586.7,404 569.8,404 566,397.5 591,397.5 		"/>
		<polygon class="st1" points="552.4,509.7 530.9,509.7 526,502 558,502 		"/>
		<polygon class="st1" points="654.7,396 630.5,396 625,389.5 661,389.5 		"/>
		<polygon class="st1" points="625.9,355 602.3,355 597,348.5 632,348.5 		"/>
		<polygon class="st1" points="594.5,310 581,310 578,306.5 598,306.5 		"/>
		<polygon class="st1" points="724.6,421.5 684.1,421.5 675,412.5 735,412.5 		"/>
		<polygon class="st1" points="685.5,291.5 654.5,291.5 647.5,282.5 693.5,282.5 		"/>
		<polygon class="st1" points="685.5,411.5 654.5,411.5 647.5,402.5 693.5,402.5 		"/>
		<polygon class="st1" points="652.5,430.5 591.5,430.5 582.5,418.5 662.5,418.5 		"/>
		<rect x="684.5" y="421.5" class="st1" width="40" height="210"/>
		<g>
			<path class="st1" d="M769,438.5h-21.5c0,0,3.5-5,6.5-13c1.7-4.5,4.3-25,4.3-25s3.1,20.9,4.7,25C766,433.5,769,438.5,769,438.5z"
				/>
		</g>
		<g>
			<path class="st1" d="M723,306.5h-24.5c0,0,4-6.6,7.4-17.3c1.9-6,4.9-33.2,4.9-33.2s3.6,27.8,5.3,33.2
				C719.6,299.9,723,306.5,723,306.5z"/>
		</g>
		<g>
			<path class="st1" d="M598,301.5h-20c0,0,3.3-6.3,6-16.3c1.6-5.7,4-31.3,4-31.3s2.9,26.1,4.3,31.3
				C595.2,295.3,598,301.5,598,301.5z"/>
		</g>
		<g>
			<path class="st1" d="M572,430.5h-19c0,0,3.1-6.3,5.7-16.3c1.5-5.7,3.8-31.3,3.8-31.3s2.8,26.1,4.1,31.3
				C569.3,424.3,572,430.5,572,430.5z"/>
		</g>
		<g>
			<path class="st1" d="M591,392.5h-25c0,0,4.1-8.4,7.6-21.7c2-7.6,5.1-41.8,5.1-41.8s3.6,34.9,5.4,41.8
				C587.5,384.1,591,392.5,591,392.5z"/>
		</g>
		<g>
			<path class="st1" d="M558,496h-32c0,0,5.2-9.5,9.7-24.6c2.5-8.6,6.5-47.4,6.5-47.4s4.6,39.6,6.9,47.4
				C553.5,486.5,558,496,558,496z"/>
		</g>
		<g>
			<path class="st1" d="M759.3,490.5h-34.8c0,0,5.7-8.1,10.5-21c2.7-7.3,7-40.5,7-40.5s5,33.8,7.5,40.5
				C754.4,482.4,759.3,490.5,759.3,490.5z"/>
		</g>
		<g>
			<path class="st1" d="M681,511.5h-35c0,0,5.7-8.1,10.6-21c2.8-7.3,7.1-40.5,7.1-40.5s5.1,33.8,7.6,40.5
				C676.1,503.4,681,511.5,681,511.5z"/>
		</g>
		<g>
			<path class="st1" d="M748,372.5h-37.5c0,0,6.1-8,11.3-20.9c3-7.3,7.6-40.1,7.6-40.1s5.4,33.5,8.1,40.1
				C742.8,364.5,748,372.5,748,372.5z"/>
		</g>
		<g>
			<path class="st1" d="M661,382.5h-36.5c0,0,5.9-7.3,11-19c2.9-6.6,7.4-36.5,7.4-36.5s5.3,30.5,7.9,36.5
				C655.9,375.2,661,382.5,661,382.5z"/>
		</g>
		<g>
			<path class="st1" d="M632,343.5h-35.5c0,0,5.8-9.5,10.7-24.8c2.8-8.6,7.2-47.7,7.2-47.7s5.1,39.9,7.7,47.7
				C627,334,632,343.5,632,343.5z"/>
		</g>
		<g>
			<path class="st1" d="M695,270.5h-49.5c0,0,8.1-10.6,15-27.5c3.9-9.6,10-53,10-53s7.2,44.3,10.7,53
				C688.1,259.9,695,270.5,695,270.5z"/>
		</g>
	</g>
</g>
<g id="Режим_изоляции">
	<polygon class="st1" points="440.3,503 422.1,503 418,495.4 445,495.4 	"/>
	<g>
		<path class="st1" d="M445,491.5h-26.6c0,0,4.3-6.8,8-17.6c2.1-6.1,5.4-33.9,5.4-33.9s3.8,28.3,5.8,33.9
			C441.3,484.7,445,491.5,445,491.5z"/>
	</g>
	<polygon class="st1" points="453.5,557 440,557 437,549.4 457,549.4 	"/>
	<g>
		<path class="st1" d="M457,545.5h-19.7c0,0,3.2-4.7,5.9-12.1c1.6-4.2,4-23.4,4-23.4s2.9,19.5,4.3,23.4
			C454.3,540.8,457,545.5,457,545.5z"/>
	</g>
	<polygon class="st1" points="423.3,583 409.2,583 406,575.4 427,575.4 	"/>
	<g>
		<path class="st1" d="M427,571.5h-20.7c0,0,3.4-4.7,6.2-12.1c1.6-4.2,4.2-23.4,4.2-23.4s3,19.5,4.5,23.4
			C424.1,566.8,427,571.5,427,571.5z"/>
	</g>
	<polygon class="st1" points="409.7,618 401,618 399,613 412,613 	"/>
	<g>
		<path class="st1" d="M412,609.2h-13c0,0,2.1-3.2,3.9-8.3c1-2.9,2.6-15.9,2.6-15.9s1.9,13.3,2.8,15.9
			C410.2,606,412,609.2,412,609.2z"/>
	</g>
	<polygon class="st1" points="459.7,604 451,604 449,599 462,599 	"/>
	<g>
		<path class="st1" d="M462,595.2h-13c0,0,2.1-3.2,3.9-8.3c1-2.9,2.6-15.9,2.6-15.9s1.9,13.3,2.8,15.9
			C460.2,592,462,595.2,462,595.2z"/>
	</g>
	<polygon class="st1" points="883.3,441 865.1,441 861,433.4 888,433.4 	"/>
	<g>
		<path class="st1" d="M888,429.5h-26.6c0,0,4.3-6.8,8-17.6c2.1-6.1,5.4-33.9,5.4-33.9s3.8,28.3,5.8,33.9
			C884.3,422.7,888,429.5,888,429.5z"/>
	</g>
	<polygon class="st1" points="896.5,495 883,495 880,487.4 900,487.4 	"/>
	<g>
		<path class="st1" d="M900,483.5h-19.7c0,0,3.2-4.7,5.9-12.1c1.6-4.2,4-23.4,4-23.4s2.9,19.5,4.3,23.4
			C897.3,478.8,900,483.5,900,483.5z"/>
	</g>
	<polygon class="st1" points="911.4,486.5 895.6,486.5 892,477.5 915.4,477.5 	"/>
	<g>
		<path class="st1" d="M915.4,470.7H892c0,0,3.8-5.7,7.1-14.9c1.9-5.2,4.7-28.7,4.7-28.7s3.4,24,5.1,28.7
			C912.2,464.9,915.4,470.7,915.4,470.7z"/>
	</g>
	<polygon class="st1" points="845.7,461 832.9,461 830,455.5 849,455.5 	"/>
	<g>
		<path class="st1" d="M849,450.7h-19c0,0,3.1-5.7,5.7-14.9c1.5-5.2,3.8-28.7,3.8-28.7s2.8,24,4.1,28.7
			C846.3,444.9,849,450.7,849,450.7z"/>
	</g>
	<polygon class="st1" points="784,350.6 768.5,350.6 765,343.5 788,343.5 	"/>
	<g>
		<path class="st1" d="M788,337.3h-23c0,0,3.7-7.4,7-19.3c1.8-6.7,4.6-37.1,4.6-37.1s3.3,31,5,37.1C784.8,329.9,788,337.3,788,337.3
			z"/>
	</g>
	<rect x="842" y="474" class="st1" width="28.4" height="97.6"/>
	<polygon class="st1" points="870.4,474 842,474 837.8,468.4 875,468.4 	"/>
	<rect x="768.8" y="390.7" class="st1" width="26.8" height="203.3"/>
	<polygon class="st1" points="795.6,390.7 768.8,390.7 764.8,383.4 800,383.4 	"/>
	<path class="st1" d="M814.8,500.4c9,0,17.1,5.9,23.2,15.6v-21h-47v22C797.1,506.8,805.5,500.4,814.8,500.4z"/>
</g>
</svg>
