<?xml version="1.0" encoding="utf-8"?>
<!-- Generator: Adobe Illustrator 24.0.2, SVG Export Plug-In . SVG Version: 6.00 Build 0)  -->
<svg version="1.1" id="Layer_1" xmlns="http://www.w3.org/2000/svg" xmlns:xlink="http://www.w3.org/1999/xlink" x="0px" y="0px"
	 viewBox="0 0 3969 1316.7" style="enable-background:new 0 0 3969 1316.7;" xml:space="preserve">
<style type="text/css">
	.st0{opacity:0.5;fill:#FFFFFF;enable-background:new    ;}
	.st1{fill:#FFFFFF;}
</style>
<path class="st0" d="M3969.1,773c-132.5,245-427.1,231.2-693.6,136.9c-206.5-73.1-478.6,139.9-692.7,165.3
	c-160,19-196.8-125.7-372.8-151.7s-413.4,137.7-588,89.7c-138.4-38.1-158.9-129.8-410.5-23.9c-194.1,81.8-350-148.5-496.6-187.4
	C584.6,767.3,494,823,417,831.7C305.5,844.4,71.9,900.8-0.1,536.3V1084v258.9l3969.2-66.2C3969.1,1276.7,3969.1,780.9,3969.1,773z"
	/>
<path class="st1" d="M3969.1,1336.7c0-20.3-0.1-489.6-0.1-497.5c-119.2,170.5-427,264.8-693.5,170.5
	c-206.5-73.1-482.4,95.2-696.5,120.6c-160,19-193-81-369-107s-412.4,89-587,41c-138.4-38.1-159.9-81.1-411.5,24.8
	c-194.1,81.7-382.2-201.1-528.8-240c-130.4-34.5-230.9,39.7-382.3,59.6C188.8,921.3,22.3,894.2,0,658.4l-0.1,724.6L3969.1,1336.7
	L3969.1,1336.7z"/>
</svg>
