<?xml version="1.0" encoding="utf-8"?>
<!-- Generator: Adobe Illustrator 24.0.2, SVG Export Plug-In . SVG Version: 6.00 Build 0)  -->
<svg version="1.1" id="Layer_9" xmlns="http://www.w3.org/2000/svg" xmlns:xlink="http://www.w3.org/1999/xlink" x="0px" y="0px"
	 viewBox="0 0 3969 1458" style="enable-background:new 0 0 3969 1458;" xml:space="preserve">
<style type="text/css">
	.st0{fill:#FFFFFF;}
	.st1{fill:#F0F4FC;}
	.st2{fill:#A5ACEF;}
	.st3{fill:#E8EFF9;}
</style>
<g>
	<g>
		<path class="st0" d="M512.1,556.7c-2.6,1-4.9,2.4-7.1,3.9c-13.8-19.5-39.6-27.8-62.8-18.5c-2.1,0.9-4.2,1.8-6.1,2.9
			c-0.8-3.7-2-7.4-3.4-11.1c-14.9-37.2-57.2-55.3-94.4-40.3c-20.9,8.4-35.7,25.3-42.1,45.2c-4.6,6.5-8.1,13.7-10.3,21.4
			c-5.3,0.1-10.6,1.2-15.8,3.2c-14.1,5.7-23.8,17.6-27.2,31.3c-11,12.4-14.8,30.4-8.3,46.9c9.2,23.4,35.7,34.9,59.1,25.7
			c11.7-4.6,20.4-13.5,25-24.1c18.6,10.9,41.8,13.5,63.5,5c8.5-3.3,15.9-8.1,22.3-13.9c11.9,24.7,41,36.4,66.9,26.2
			c11.9-4.7,21.2-13.3,26.9-23.7c8.4,4.7,18.7,5.8,28.3,2c12-4.7,19.6-15.6,20.8-27.6c9.4-9,12.9-23.2,7.8-36.1
			C548.2,558.1,529,549.9,512.1,556.7z"/>
		<path class="st0" d="M902.4,402.9c-0.1,0-0.3,0.1-0.4,0.1c-5.2-18.2-23.1-30.2-42.4-27.6c-9,1.2-16.9,5.5-22.7,11.6
			c-7.2-8-17.1-13.3-28.1-14.4c-3.8-12.8-16.5-21.3-30.2-19.4c-9.4,1.3-17,7.2-20.9,15c-9.6-6.2-21.5-9.2-33.7-7.5
			c-22.9,3.2-39.9,21.4-42.5,43.3c-3.9-2-8.4-2.9-13.1-2.2c-12.1,1.7-20.5,12.8-18.8,24.9c1.7,12.1,12.8,20.5,24.9,18.8
			c6.1-0.8,11.2-4.1,14.7-8.6c10.1,15.7,28.7,24.9,48.5,22.2c12.4-1.7,23.1-7.9,30.8-16.7c9.3,12.8,25.1,20.2,41.8,17.8
			c12.2-1.7,22.6-8.3,29.4-17.5c8.1,7.1,19.1,10.8,30.7,9.2c8.3-1.1,15.6-4.8,21.2-10.1c4.6,3.8,10.7,5.8,17.1,4.9
			c12.1-1.7,20.5-12.8,18.8-24.9C925.6,409.6,914.5,401.2,902.4,402.9z"/>
		<path class="st0" d="M3969.1,599.7c0-0.3,0-0.6-0.1-0.8c0,0,0-0.1,0.1-0.1v-70.2c-14.4-22.7-41.9-35-69.6-28.8
			c-7.7,1.7-14.8,4.7-21,8.7c-6.6-17.5-25.2-28-44-23.8c-12.9,2.9-22.7,11.9-27.2,23.3c-16.1-34.3-54.3-54.1-92.9-45.5
			c-27.6,6.2-48.9,25.5-58.7,49.9c-3.8-1-7.7-1.4-11.8-1.2c-16,0.8-29.2,11.2-34.3,25.4c-14-9-31.5-12.6-49-8.7
			c-3.3,0.7-6.4,1.7-9.4,2.9c0-0.2,0-0.3,0-0.5c-1.1-21.3-19.2-37.7-40.5-36.6c-16.1,0.8-29.3,11.3-34.4,25.6
			c-8.8-6.2-19.6-9.6-31.1-9c-6.9,0.4-13.4,2.1-19.2,4.9c-9.7-26.6-35.8-45-65.6-43.5c-20.9,1.1-39.1,11.8-50.4,27.5
			c-7-3.2-14.8-4.8-23-4.3c-16.4,0.8-30.5,9.5-38.9,22.3c-8.4-6.1-18.4-10.2-29.4-11.8c-14.8-2.1-29.1,0.9-41.2,7.6
			c-15.5-13.1-35.7-20.5-57.5-19.4c-5,0.3-10,1-14.7,2.1c-4-7.1-11.7-11.7-20.4-11.3c-4.5,0.2-8.7,1.8-12.1,4.4
			c-10.7-11.3-26.1-18-42.8-17.1c-23.3,1.2-42.4,16.6-49.4,37.4c-4.3-1-8.8-1.4-13.4-1.1c-12.4,0.6-23.4,5.7-31.7,13.7
			c-6.4-8.6-16.8-13.9-28.2-13.3c-7.9,0.4-15.1,3.6-20.5,8.5c-6.3-5.5-14.6-8.7-23.6-8.3c-18.3,0.9-32.3,16.5-31.4,34.7
			s16.5,32.3,34.7,31.4c7.9-0.4,15.1-3.6,20.5-8.5c6.3,5.5,14.6,8.7,23.6,8.3c0.6,0,1.2-0.1,1.8-0.1c0,1.3-0.1,2.6,0,3.9
			c0,1,0.1,1.9,0.2,2.8c-6.5,6.4-10.4,15.4-10,25.2c0.8,18.3,16.3,32.4,34.5,31.6c9.8-0.4,18.5-5.1,24.2-12.2c0.9,0,1.9,0,2.8,0
			c8.6-0.4,16.5-2.9,23.4-7c10.2,16.3,28.6,26.8,49.2,25.9c6.6-0.3,13-1.8,18.8-4.2c14.5,27.4,43.8,45.5,76.9,44.1
			c22.5-1,42.4-10.9,56.7-26.1c4.5,0.8,9.2,1.1,14,0.9c29.1-1.3,52.9-21.2,60.6-47.7c2.9,0.4,6,0.6,9,0.4c5.3-0.2,10.4-1.3,15.1-3.1
			c3.9,1.4,8.1,2,12.4,1.8c1.3-0.1,2.5-0.2,3.7-0.4c10.2,25.4,35.5,42.8,64.4,41.5c14.5-0.6,27.6-5.9,38.1-14.3
			c9.1,7.4,20.8,11.6,33.5,11.1c5.1-0.2,10-1.2,14.6-2.9c0,0.9,0,1.8,0.1,2.8c2.1,48,42.8,85.1,90.7,83c16.7-0.7,32.1-6.2,44.9-14.9
			c19.9,20.8,49.9,31.1,80.2,24.6c26.8-5.8,47.9-23.6,59-46.5c11.6,6.3,25.4,8.7,39.4,5.7c16.7-3.6,30.2-14.3,37.9-28.1
			c8.8,10,22.7,15,36.6,12c12.6-2.7,22.3-11.3,27-22.3c13.8,8.3,30.6,11.5,47.5,7.8c28.6-6.2,48.8-30.2,51.4-57.9V599.7z"/>
		<path class="st0" d="M1614,478.2c-0.1,0-0.3,0.1-0.4,0.1c-5.1-18.2-22.9-30.4-42.2-27.8c-9,1.2-16.9,5.4-22.8,11.5
			c-7.1-8-17.1-13.4-28-14.6c-3.7-12.9-16.4-21.4-30.1-19.6c-9.4,1.2-17,7-21,14.9c-9.6-6.3-21.4-9.3-33.7-7.7
			c-22.9,3-40.1,21.2-42.8,43c-3.9-2-8.4-2.9-13-2.3c-12.1,1.6-20.6,12.7-19,24.8c1.6,12.1,12.7,20.6,24.8,19
			c6.1-0.8,11.3-4,14.7-8.6c10.1,15.7,28.6,25.1,48.3,22.5c12.4-1.6,23.2-7.8,30.9-16.5c9.2,12.8,24.9,20.3,41.7,18.1
			c12.3-1.6,22.7-8.1,29.5-17.3c8.1,7.1,19.1,10.9,30.6,9.4c8.3-1.1,15.6-4.7,21.3-10c4.6,3.8,10.7,5.8,17,5
			c12.1-1.6,20.6-12.7,19-24.8C1637.1,485.2,1626.1,476.7,1614,478.2z"/>
	</g>
	<g>
		<polygon class="st1" points="363.1,493.7 583.7,350.3 694.1,416.5 771.3,394.4 793.3,405.4 827,404.8 882.2,404.8 926.3,393.8 
			1036.6,283.5 1114.5,339.3 1169,305.5 1400.7,393.8 1599.2,327.6 1820.5,449.6 1830.3,515.8 1907.5,559.9 2019,758.4 
			1929.6,758.4 1841.9,890.2 363.7,901.2 		"/>
		<polygon class="st2" points="584.4,349.7 617.5,382.8 650.5,393.8 661.6,415.9 694.7,415.9 727.8,449 771.9,449 816,471 
			893.2,415.9 915.3,449 959.4,437.9 959.4,460 970.5,493.1 816,603.4 540.2,702.7 771.9,482 716.7,493.1 694.7,437.9 650.5,449 
			628.5,393.8 584.4,393.8 		"/>
		<polygon class="st2" points="1036.6,283.5 1037.3,306.2 1014.6,327.6 1036.6,349.7 1014.6,360.7 1014.6,371.7 926.3,393.8 		"/>
		<polygon class="st2" points="1169,305.5 1180,373 1169,384 1191.1,406.1 1158,417.1 1180,450.2 1025.6,395 1069.7,384 
			1113.9,338.6 		"/>
		<polygon class="st2" points="1599.2,327.6 1444.8,404.8 1466.9,415.9 1422.7,460 1466.9,504.1 1544.1,526.2 1566.1,592.4 
			1753.7,614.4 1687.5,526.2 1687.5,382.8 1643.4,382.8 1610.3,415.9 1610.3,360.7 1588.2,360.7 		"/>
		<polygon class="st0" points="1036.6,283.5 1114.5,339.3 1037.3,295.1 		"/>
		<polygon class="st0" points="1599.2,327.6 1588.2,360.7 1610.3,360.7 1610.3,415.9 1643.4,382.8 1697.3,382.8 		"/>
		<polygon class="st0" points="959.4,437.9 869.9,493.1 893.2,415.9 915.3,449 		"/>
		<polygon class="st0" points="584.4,349.7 462.4,427.5 505.9,415.9 505.9,426.9 550,393.8 561.1,404.8 584.4,393.8 		"/>
		<polygon class="st2" points="1830.3,515.8 1852.3,559.9 1852.3,581.9 1841.3,604 1896.5,581.9 1874.4,604 1962.7,659.2 
			1907.5,559.9 		"/>
	</g>
	<g>
		<path class="st3" d="M1973.7,780.5l208.4-143.4h22.1l22.1-11l10.4-0.6l22.1-11h33.1l44.1-22.1l55.2-11l22.1-11l44.1,22.1
			l33.7-10.4l43.5-0.6l11-22.1h11l44.1-33.1c0,0,20.8,9.8,22.1,11c1.2,1.2,11-11,11-11h11l33.1-11l33.1,11l33.1-22.1h22.1l33.1-33.1
			l67.4,44.1l55.2,22.1c0,0,33.1,31.9,55.2,33.1l22.1-11l44.1,22.1l31.9-9.8l22.1,11l44.1-11l44.1,33.1c0,0,65-31.9,66.2-33.1
			c1.2-1.2,22.1,11,22.1,11l23.9-22.7l53.3,55.8l99.9-32.5l43.5,86.4l112.2,110.9H1973.7z"/>
		<polygon class="st2" points="2492.8,580.1 2492.8,602.2 2470.1,615 2448,637.1 2392.9,692.3 2481.1,681.2 2503.2,703.3 
			2536.3,659.2 2569.4,659.2 		"/>
		<polygon class="st2" points="2601.9,524.9 2569.4,605.2 2602.5,583.2 2624.5,583.2 2646.6,593 2723.8,570.9 2657.6,539 
			2679.1,513.9 2646,524.9 2634.9,524.9 2623.9,536 		"/>
		<polygon class="st2" points="2811.4,482 2922.4,537.8 2878.2,550.1 2845.2,539 2834.7,547 2789.8,583 2779,515.8 2768.5,524.9 
			2712.2,524.9 2745.3,502.9 2767.3,502.9 2800.4,469.8 		"/>
		<polygon class="st2" points="2934,592.4 2967.1,581.3 3000.2,558 3043.7,581.9 2977.5,626.1 2966.5,615 2977.5,593 2944.4,615 
			2900.3,626.1 		"/>
		<polygon class="st2" points="3209.8,592.4 3175.5,624.2 3131.4,646.3 3109.3,701.4 3175.5,646.3 3197.5,646.3 3198.2,616.3 
			3209.2,616.3 		"/>
		<polygon class="st2" points="3451.9,581.9 3352.6,615 3330.5,637.1 3407.7,626.1 3407.7,637.1 3440.8,604 3451.9,604 		"/>
		<polygon class="st0" points="2492.2,580.7 2492.2,602.8 2470.1,613.8 2448,635.9 2459.1,591.7 		"/>
		<polygon class="st0" points="2602.5,525.6 2580.4,580.7 2558.3,602.8 2580.4,547.6 		"/>
		<polygon class="st0" points="2999.6,558.7 2966.5,580.7 2933.4,591.7 2977.5,569.7 		"/>
		<polygon class="st0" points="3209.2,591.7 3176.1,624.8 3132,646.9 3165.1,613.8 		"/>
		<polygon class="st2" points="2414.9,569.7 2403.9,624.8 2359.8,615 2359.8,637.1 2293.6,681.2 2293.6,624.8 2227.4,670.2 
			2194.3,659.2 2205.3,669 2150.2,681.2 2194.3,637.1 2204.7,636.5 2226.8,625.5 2237.8,624.2 2259.9,613.2 2293,613.2 
			2337.1,591.1 2392.3,580.1 		"/>
		<polygon class="st0" points="2337.7,591.7 2304.6,646.9 2315.7,604 2326.7,604 		"/>
		<polygon class="st0" points="2161.2,670.2 2084,703.3 2183.3,637.1 2194.3,637.1 		"/>
		<polygon class="st0" points="3297.4,559.9 3275.4,604 3275.4,593 3253.3,615 3275.4,581.9 		"/>
		<polygon class="st0" points="2801,471.6 2834.1,515.8 2834.1,504.7 2878.2,515.8 		"/>
	</g>
</g>
</svg>
