<?xml version="1.0" encoding="utf-8"?>
<!-- Generator: Adobe Illustrator 24.0.2, SVG Export Plug-In . SVG Version: 6.00 Build 0)  -->
<svg version="1.1" id="Layer_8" xmlns="http://www.w3.org/2000/svg" xmlns:xlink="http://www.w3.org/1999/xlink" x="0px" y="0px"
	 viewBox="0 0 3969 1458" style="enable-background:new 0 0 3969 1458;" xml:space="preserve">
<style type="text/css">
	.st0{fill:#FFFFFF;}
	.st1{fill:url(#SVGID_1_);}
	.st2{opacity:0.2;fill:url(#SVGID_2_);}
	.st3{opacity:0.2;fill:url(#SVGID_3_);}
	.st4{opacity:0.2;fill:url(#SVGID_4_);}
	.st5{fill:url(#SVGID_5_);}
	.st6{opacity:0.2;fill:url(#SVGID_6_);}
	.st7{fill:#D7E1FF;}
	.st8{fill:#BCC6DD;}
	.st9{fill:#898CCC;}
	.st10{fill:#A9B8EA;}
	.st11{opacity:0.5;fill:#898CCC;}
	.st12{opacity:0.3;fill:url(#SVGID_7_);}
	.st13{opacity:0.2;fill:url(#SVGID_8_);}
	.st14{opacity:0.3;fill:url(#SVGID_9_);}
	.st15{opacity:0.2;fill:url(#SVGID_10_);}
	.st16{opacity:0.2;fill:url(#SVGID_11_);}
	.st17{opacity:0.3;fill:url(#SVGID_12_);}
	.st18{fill:url(#SVGID_13_);}
	.st19{fill:url(#SVGID_14_);}
	.st20{fill:url(#SVGID_15_);}
	.st21{fill:url(#SVGID_16_);}
	.st22{fill:#9EAADD;}
	.st23{fill:url(#SVGID_17_);}
	.st24{fill:#7D85B2;}
	.st25{fill:#B8DD9F;}
	.st26{fill:#A7C490;}
	.st27{opacity:0.2;fill:url(#SVGID_18_);}
	.st28{fill:#ABB6F4;}
	.st29{fill:url(#SVGID_19_);}
	.st30{fill:url(#SVGID_20_);}
	.st31{fill:url(#SVGID_21_);}
	.st32{fill:url(#SVGID_22_);}
	.st33{fill:url(#SVGID_23_);}
	.st34{fill:url(#SVGID_24_);}
	.st35{fill:url(#SVGID_25_);}
	.st36{fill:url(#SVGID_26_);}
	.st37{fill:url(#SVGID_27_);}
	.st38{fill:#FBFF90;}
	.st39{fill:#686D96;}
	.st40{fill:#9AA9D6;}
	.st41{fill:url(#SVGID_28_);}
	.st42{opacity:0.3;fill:url(#SVGID_29_);}
	.st43{opacity:0.4;fill:url(#SVGID_30_);}
	.st44{fill:url(#SVGID_31_);}
	.st45{opacity:0.5;fill:url(#SVGID_32_);}
	.st46{fill:url(#SVGID_33_);}
	.st47{opacity:0.4;fill:url(#SVGID_34_);}
	.st48{opacity:0.5;fill:url(#SVGID_35_);}
	.st49{fill:none;stroke:#A4BFE0;stroke-miterlimit:10;}
	.st50{fill:none;stroke:#A9B8EA;stroke-linecap:round;stroke-miterlimit:10;}
	.st51{fill:none;stroke:#A9B8EA;stroke-width:2;stroke-linecap:round;stroke-miterlimit:10;}
	.st52{fill:none;stroke:#D7E1FF;stroke-width:3;stroke-linecap:round;stroke-miterlimit:10;}
	.st53{fill:none;stroke:#F0F4FC;stroke-width:2;stroke-linecap:round;stroke-miterlimit:10;}
	.st54{fill:none;stroke:#F0F4FC;stroke-width:3;stroke-linecap:round;stroke-miterlimit:10;}
	.st55{fill:none;stroke:#E6EDFF;stroke-width:3;stroke-linecap:round;stroke-miterlimit:10;}
	.st56{fill:none;stroke:#E6EDFF;stroke-width:2;stroke-linecap:round;stroke-miterlimit:10;}
</style>
<g>
	<path class="st0" d="M705.1,570.9c-15.1,0-29.2,4.3-41.1,11.8c-23.3-27.5-58-44.9-96.8-44.9c-18.6,0-36.3,4-52.3,11.2
		c-22.3-28.8-53.6-50.3-89.7-60.3L197.7,217.9L109.4,262L3.3,136.7v819.2c24.8,7.9,51.1,12.1,78.5,12.1
		c105.9,0,196.9-63.5,237.2-154.5c18.9,7.2,39.3,11.1,60.7,11.1c47.8,0,91-19.6,122.1-51.3c19.1,11.5,41.5,18.2,65.5,18.2
		c49.7,0,92.7-28.6,113.5-70.1c7.7,2.6,15.9,4,24.4,4c42.6,0,77.2-34.6,77.2-77.2S747.7,570.9,705.1,570.9z"/>
	<path class="st0" d="M3969.1,388.7c-11.6,14.9-19,33.3-20.6,53.3c-69.5,15-121.7,76.9-121.7,150.9c0,10.9,1.1,21.5,3.3,31.7
		c-31,13.2-59,32.3-82.4,55.9c-30.2-27-70.2-43.5-113.9-43.5c-55,0-104,26-135.3,66.4c-15.9-7.2-33.6-11.2-52.3-11.2
		c-70.1,0-126.9,56.8-126.9,126.9c0,70.1,56.8,126.9,126.9,126.9c24,0,46.4-6.6,65.5-18.2c31,31.6,74.3,51.3,122.1,51.3
		c21.4,0,41.8-3.9,60.7-11.1c40.2,91,131.3,154.5,237.2,154.5c12.7,0,25.2-0.9,37.4-2.7V388.7z"/>
	<linearGradient id="SVGID_1_" gradientUnits="userSpaceOnUse" x1="2210.751" y1="990.0942" x2="2210.751" y2="654.8702">
		<stop  offset="0.2011" style="stop-color:#C8D1F8"/>
		<stop  offset="0.3074" style="stop-color:#D4DCFA"/>
		<stop  offset="0.4948" style="stop-color:#E3EBFD"/>
		<stop  offset="0.648" style="stop-color:#E8F0FE"/>
		<stop  offset="0.7142" style="stop-color:#E3EBFC"/>
		<stop  offset="0.7962" style="stop-color:#D3DCF6"/>
		<stop  offset="0.8865" style="stop-color:#BAC3EB"/>
		<stop  offset="0.9823" style="stop-color:#97A0DD"/>
		<stop  offset="1" style="stop-color:#9099DA"/>
	</linearGradient>
	<path class="st1" d="M1870.7,758.4H1981h22.1l-11,5.5l0,0l11,5.5h275.8l1109.3,110.3c0,0,793,44.1-6.1,88.2
		c-90.8,5-104.2,22.1-104.2,22.1H685.5c0,0-11-88.2,11-88.2c209.6,0,562.6-66.2,562.6-66.2L1870.7,758.4z"/>
	<linearGradient id="SVGID_2_" gradientUnits="userSpaceOnUse" x1="1675.8405" y1="786.0165" x2="2006.7775" y2="786.0165">
		<stop  offset="0" style="stop-color:#ABB6F4"/>
		<stop  offset="2.518158e-02" style="stop-color:#A6AFEE"/>
		<stop  offset="0.1176" style="stop-color:#969CDB"/>
		<stop  offset="0.211" style="stop-color:#8C90D0"/>
		<stop  offset="0.3065" style="stop-color:#898CCC"/>
	</linearGradient>
	<polygon class="st2" points="1984.7,769.5 1940.6,802.6 1885.4,802.6 1830.3,813.6 1675.8,791.5 1697.9,769.5 2006.8,758.4 	"/>
	<linearGradient id="SVGID_3_" gradientUnits="userSpaceOnUse" x1="1995.7462" y1="802.5633" x2="2635.5576" y2="802.5633">
		<stop  offset="0" style="stop-color:#ABB6F4"/>
		<stop  offset="2.518158e-02" style="stop-color:#A6AFEE"/>
		<stop  offset="0.1176" style="stop-color:#969CDB"/>
		<stop  offset="0.211" style="stop-color:#8C90D0"/>
		<stop  offset="0.3065" style="stop-color:#898CCC"/>
	</linearGradient>
	<polygon class="st3" points="1995.7,769.5 2061.9,813.6 2117.1,813.6 2161.2,835.7 2227.4,824.6 2635.6,824.6 2414.9,780.5 
		2183.3,769.5 	"/>
	<linearGradient id="SVGID_4_" gradientUnits="userSpaceOnUse" x1="1437.29" y1="890.8132" x2="1437.29" y2="826.9609">
		<stop  offset="0" style="stop-color:#ABB6F4"/>
		<stop  offset="2.518158e-02" style="stop-color:#A6AFEE"/>
		<stop  offset="0.1176" style="stop-color:#969CDB"/>
		<stop  offset="0.211" style="stop-color:#8C90D0"/>
		<stop  offset="0.3065" style="stop-color:#898CCC"/>
	</linearGradient>
	<path class="st4" d="M1642.7,846.7c22.1,0,33.1,22.1-11,22.1c-22.1,0-33.1,0-44.1,0s33.1,11-22.1,11c-55.2,0-143.4,0-143.4,0
		s11,11-22.1,11c-33.1,0-187.5-11-187.5-11l275.8-22.1L1642.7,846.7z"/>
	<linearGradient id="SVGID_5_" gradientUnits="userSpaceOnUse" x1="1605.976" y1="923.9069" x2="1605.976" y2="923.9069">
		<stop  offset="0" style="stop-color:#FFFFFF;stop-opacity:0.1"/>
		<stop  offset="0.2692" style="stop-color:#D7EAFF;stop-opacity:0.3359"/>
		<stop  offset="0.7989" style="stop-color:#80BDFF;stop-opacity:0.8"/>
		<stop  offset="1" style="stop-color:#80BDFF"/>
	</linearGradient>
	<line class="st5" x1="1539.8" y1="923.9" x2="1672.2" y2="923.9"/>
	<linearGradient id="SVGID_6_" gradientUnits="userSpaceOnUse" x1="1608.121" y1="830.1414" x2="1857.0802" y2="830.1414">
		<stop  offset="0" style="stop-color:#ABB6F4"/>
		<stop  offset="2.518158e-02" style="stop-color:#A6AFEE"/>
		<stop  offset="0.1176" style="stop-color:#969CDB"/>
		<stop  offset="0.211" style="stop-color:#8C90D0"/>
		<stop  offset="0.3065" style="stop-color:#898CCC"/>
	</linearGradient>
	<path class="st6" d="M1845,813.6c29.4,11,0,22.1-33.1,22.1s-22.1,11-44.1,11c-22.1,0-132.4,0-154.4,0c-22.1,0,33.1-33.1,33.1-33.1
		H1845z"/>
	<g>
		<g>
			<g>
				<path class="st7" d="M1600.2,802.6c33.1,0,121.3,0,143.4,0c-22.1-11-66.2-22.1,11-22.1s220.6-11,187.5-22.1
					c-15.7-5.2-42.9-12.8-66.2-22.1c-55.2-22.1-54.6,5.8-66.2,0c-22.1-11-66.2-77.2-88.2-66.2c-22.1,11-109.3-97-132.4-88.2
					c-87,33.1-88.2-77.2-187.5-44.1c-99.3,33.1-121.3-88.2-187.5-44.1c-82.1,54.7-110.3,99.3-198.6,88.2
					c-81.8-10.2-144.5-67.5-187.5-33.1C772.8,593,695.6,615,618.4,703.3C872.1,659.2,1600.2,802.6,1600.2,802.6z"/>
				<g>
					<g>
						<g>
							<path class="st8" d="M1742.7,802.9c-2.6-1.1-5.2-2.2-7.8-3.2l-7.9-3c-2.6-1-5.3-2.1-7.9-3.2c-2.6-1.2-5.2-2.3-7.7-4.1
								c-0.6-0.5-1.2-1-1.8-1.7c-0.3-0.4-0.5-0.9-0.6-1.5c-0.1-0.6,0.1-1.4,0.5-1.8c0.7-0.9,1.5-1.3,2.2-1.6
								c0.7-0.3,1.5-0.6,2.2-0.8c2.9-0.8,5.7-1.1,8.6-1.4c5.7-0.6,11.4-0.8,17.1-0.8c11.4,0,22.7,0.6,34,0.4
								c11.3-0.1,22.6-0.7,33.9-1.4l33.9-2.4c11.3-0.8,22.5-1.8,33.8-2.7c5.6-0.4,11.3-1,16.9-1.4c5.6-0.5,11.3-1,16.9-1.7
								c5.6-0.6,11.2-1.2,16.8-2.1c5.6-0.8,11.2-1.7,16.6-3.4l0.1,0.3c-2.6,1.1-5.4,1.9-8.1,2.7c-2.8,0.7-5.5,1.4-8.3,1.9
								c-5.6,1.1-11.2,2.1-16.8,2.9c-11.2,1.6-22.5,2.9-33.8,4c-11.3,1-22.6,1.7-33.9,2.3c-11.3,0.6-22.6,1-34,1.2
								c-11.3,0.2-22.6,0.4-34,0.7l-17,0.5c-5.7,0.2-11.3,0.3-17,0.6c-5.6,0.2-11.3,0.5-16.8,1c-2.8,0.3-5.6,0.6-8.2,1.3
								c-0.6,0.2-1.3,0.4-1.8,0.6c-0.6,0.2-1.1,0.5-1.2,0.8c-0.1,0.1-0.1,0.1-0.1,0.2c0,0.1,0,0.2,0.2,0.4c0.3,0.4,0.7,0.8,1.2,1.2
								c2.1,1.6,4.6,2.9,7.1,4.1c2.5,1.2,5.1,2.4,7.7,3.6c2.6,1.2,5.1,2.4,7.7,3.6c2.6,1.2,5.1,2.5,7.6,3.9L1742.7,802.9z"/>
						</g>
					</g>
				</g>
			</g>
		</g>
		<path class="st9" d="M1444.9,649.8c3.1-4.8,10.5-8.1,14.7-9.4c4.2-1.3,21.3-6.1,23-7.8c5.9-0.2,23-1.3,26-1.9c2.7-3.6,4.7-4,5.1-3
			c0.8-0.2,1.3-1.1,1.7-0.8c0.4,0.2-0.1,3.3-0.5,4.1c0.2,0.8,2.5,4.4,3,6.1c0.4,1.7,0.2,4,0.4,4.4s4.4,5.5,4.7,6.3
			c0.2,0.8-1.1,1.9-1.7,2.1c-0.6,0.2-2.3,1.1-2.5,1.3c-0.4,0.2-1.5-0.2-2.1-0.6c-0.6-0.4-3-1.3-3.4-1.9c-0.4,0-1.5,0-1.9,0.6
			s-0.8,0.4-1.5,1.1s-2.3,1.7-3.4,1.7c-1.1,0-3.6,1.7-4.7,2.3s-5.9,3.4-7.2,5.1c-1.3,1.7,2.1,3.4,3,4.4c0.8,1.1,4.9,3.4,5.3,5.1
			c0.4,1.7,0.2,2.5-1.9,5.3c-0.4,1.1-1.5,3.4-2.3,4.2c-0.8,0.8-2.5,3.4-3.8,3.2s-2.3-4.2-1.1-4.4c0.4-1.1,0.6-1.9,1.3-1.9
			c0.6-1.1,2.3-4,3.4-3.8c-0.8-1.1-2.1-1.9-3.2-2.1c-1.1-0.2-4.7-2.3-5.1-2.7c-0.4-0.4-2.3-1.7-2.1-0.8c0.2,0.8,0.6,6.3,0.4,8
			c0.4,1.7,0.6,2.7,0.8,3.4c0.2,0.6,1.3,2.7,1.7,2.7c0,0,1.7-1.7,3-0.6s2.7,1.9,1.9,3c-0.8,1.1-8,1.1-8.2,0.4
			c-0.2-0.6-0.8-0.4-0.6-1.5c-0.2-0.6-1.1-2.7-1.7-2.7s-1.1-1.7-1.1-2.7c0-1.1-0.2-6.3-0.6-7.4c-0.4-1.1-1.3-4-1.3-4.9
			c-0.6,0-10.6-0.6-15,1.5c0,1.3,0,9.1-0.4,11c-0.4,1.9,0.4,1.5-1.1,3.6c-1.5,2.1-0.2,7.6,0.6,8.5c0.8,0.8,2.5,2.7,3.8,3.4
			s2.5-0.2,3.6,0.2c1.1,0.4,2.3,1.3,2.5,1.9s0.6,1.1,0,1.5s-4.2,1.9-5.5,1.3s-1.9-0.6-2.7-0.6c-0.2-0.6-1.3-2.3-2.7-2.5
			s-1.3,0-2.1-1.1c-0.8-1.1-3-3.4-3.6-3.8c-0.6-0.4-0.4-2.7,0.2-4.9c0.6-2.1-0.2-7-1.3-8.5c-1.1-1.5-2.7-4.4-4.2-4
			c-1.5,0.4-4.9,5.5-6.3,7c-1.5,1.5-6.3,5.7-7.2,7.4c-0.8,1.7-2.3,3.2-2.7,5.5c-0.4,2.3-1.1,5.3-0.6,5.3s1.7-0.6,3,0.8
			s1.5,2.1,1.3,3c-0.2,0.8-7.4,1.3-7.4,0.6s-0.6-0.8-0.8-1.9c-0.2-1.1,0.4-7.4,0.2-8.5c0.2-2.1,1.1-5.1,1.1-5.7s0,0.4-2.1-0.2
			c-2.1-0.6-12.5-2.5-2.5-4.2c9.9-1.7,9.1-13.1,10.6-15.6S1440.5,652.1,1444.9,649.8z"/>
		<path class="st10" d="M1449.9,868.5c-33.1,0-55.2-11,11-11c66.2,0,232.3,11.6,188.1-10.4c-44.1-22.1,65-10.5,99.3-12.3
			c23.3-1.2,44.1-9.8,54.5-10.4c22-1.3,77.2,0,44.1-11c-33.1-11-77.8-33.7-122-22.7c-44.1,11-55.2,22.1-87.6-10.4
			s-55.9-48.6-122-44.7c-31.3,1.8-26.4-21.4-15.3-32.5c11-11,13.9-20.6-8.2-20.6c-11,0-9.8,15.9-42.9,15.9
			c-33.1,0-68.9-37.3-85.8-40.4c-56.2-10.4-78-17.7-111.9-43.2c-44.1-33.1-115.2-110.3-198.6-44.1
			c-134.4,106.7-181.4,55.2-276.4,32.5C572,554.4,600.5,692,357.8,825.6c-135.6,74.6,661.3,20.2,661.3,20.2L1449.9,868.5z"/>
		<path class="st11" d="M1482.1,695.9c1.2-8.6,7.4-7.4,20.8-7.4c2.1,0,3.8-0.5,5.1-1.2c-1.5-3-6.4-4.9-16.1-4.9
			c-11,0-9.8,15.9-42.9,15.9c-17.1,0-34.8-9.9-50.4-20c12.4,10.1,16,13.7,19.7,20c12.3,20.8,25.7,15.9,31.9,13.5
			c6.1-2.5,12.3-6.1,20.8-4.9S1480.9,704.5,1482.1,695.9z"/>
		<linearGradient id="SVGID_7_" gradientUnits="userSpaceOnUse" x1="382.6504" y1="702.3934" x2="708.9962" y2="702.3934">
			<stop  offset="9.175177e-02" style="stop-color:#898CCC"/>
			<stop  offset="0.9604" style="stop-color:#898CCC;stop-opacity:0"/>
		</linearGradient>
		<path class="st12" d="M708.7,593c-82.1,0-110.3,39.2-181.4,106.6c-81.5,77.3-104.2,87-144.6,111.5
			c52.7,1.2,163.6,10.5,204.7-104.2C629,590.5,714.8,593,708.7,593z"/>
		<linearGradient id="SVGID_8_" gradientUnits="userSpaceOnUse" x1="1311.5034" y1="680.8185" x2="1132.5238" y2="530.8397">
			<stop  offset="3.960593e-02" style="stop-color:#D7E1FF;stop-opacity:0"/>
			<stop  offset="0.6993" style="stop-color:#D7E1FF"/>
		</linearGradient>
		<path class="st13" d="M1120.5,545.2c36.8-1.2,79.2,27.5,101.7,46.6c40.4,34.3,63.7,50.3,110.3,60.1
			c-30.6,3.7-9.7,128.7-156.9-57.6C1150.1,561.9,1135.2,547.6,1120.5,545.2z"/>
		<linearGradient id="SVGID_9_" gradientUnits="userSpaceOnUse" x1="1497.5037" y1="820.8572" x2="1461.8414" y2="695.9227">
			<stop  offset="3.960593e-02" style="stop-color:#898CCC;stop-opacity:0"/>
			<stop  offset="0.9082" style="stop-color:#898CCC"/>
		</linearGradient>
		<path class="st14" d="M1515.2,735.2c-12.5,0.8-28.8,4.5-60.1,23.3c-24.5,14.7-52.6,46.6-66.1,66.2c-12.3,27,71.1-31.9,176.5-33.1
			C1604,791.1,1615.7,729,1515.2,735.2z"/>
		<linearGradient id="SVGID_10_" gradientUnits="userSpaceOnUse" x1="1042.0164" y1="744.5552" x2="855.5964" y2="598.9708">
			<stop  offset="0.1483" style="stop-color:#D7E1FF;stop-opacity:0"/>
			<stop  offset="1" style="stop-color:#D7E1FF"/>
		</linearGradient>
		<path class="st15" d="M1036,670.2c-54-10.8-104.8-31.6-141-35.5c-45.4-4.9-73-19.9-96.2-25.1c15.5,5.7,56.5,74.6,115.9,104.8
			C991.9,753.5,1085.1,680,1036,670.2z"/>
		<linearGradient id="SVGID_11_" gradientUnits="userSpaceOnUse" x1="1669.6274" y1="805.7133" x2="1792.1543" y2="805.7133">
			<stop  offset="3.960593e-02" style="stop-color:#D7E1FF;stop-opacity:0"/>
			<stop  offset="0.6993" style="stop-color:#D7E1FF"/>
		</linearGradient>
		<path class="st16" d="M1792.2,795.2c-28.1-9.8-45.9-8.2-63.7-4.9c-19.6,3.7-41.7,13.5-58.8,11c19.6,9.8-12.6,36.9,61.4,12.3
			C1764.1,802.6,1779.9,792.7,1792.2,795.2z"/>
		<linearGradient id="SVGID_12_" gradientUnits="userSpaceOnUse" x1="1035.9489" y1="627.5464" x2="966.6573" y2="569.4824">
			<stop  offset="3.960593e-02" style="stop-color:#898CCC;stop-opacity:0"/>
			<stop  offset="0.6993" style="stop-color:#898CCC"/>
		</linearGradient>
		<path class="st17" d="M1021.2,594.2c-28.2,19.5-73.5,42.9-106.6,42.9c110.3,33.1,113.6-0.7,137.2-31.9
			C1124.2,509.6,1049.4,574.7,1021.2,594.2z"/>
	</g>
	<linearGradient id="SVGID_13_" gradientUnits="userSpaceOnUse" x1="2273.3655" y1="868.7507" x2="2273.3655" y2="868.7507">
		<stop  offset="0" style="stop-color:#FFFFFF;stop-opacity:0.1"/>
		<stop  offset="0.2692" style="stop-color:#D7EAFF;stop-opacity:0.3359"/>
		<stop  offset="0.7989" style="stop-color:#80BDFF;stop-opacity:0.8"/>
		<stop  offset="1" style="stop-color:#80BDFF"/>
	</linearGradient>
	<line class="st18" x1="2212.7" y1="868.8" x2="2334" y2="868.8"/>
	<linearGradient id="SVGID_14_" gradientUnits="userSpaceOnUse" x1="1760.4132" y1="857.7195" x2="1760.4132" y2="857.7195">
		<stop  offset="0" style="stop-color:#FFFFFF;stop-opacity:0.1"/>
		<stop  offset="0.2692" style="stop-color:#D7EAFF;stop-opacity:0.3359"/>
		<stop  offset="0.7989" style="stop-color:#80BDFF;stop-opacity:0.8"/>
		<stop  offset="1" style="stop-color:#80BDFF"/>
	</linearGradient>
	<line class="st19" x1="1683.2" y1="857.7" x2="1837.6" y2="857.7"/>
	<linearGradient id="SVGID_15_" gradientUnits="userSpaceOnUse" x1="2036.1941" y1="791.5321" x2="2036.1941" y2="791.5321">
		<stop  offset="0" style="stop-color:#FFFFFF;stop-opacity:0.1"/>
		<stop  offset="0.2692" style="stop-color:#D7EAFF;stop-opacity:0.3359"/>
		<stop  offset="0.7989" style="stop-color:#80BDFF;stop-opacity:0.8"/>
		<stop  offset="1" style="stop-color:#80BDFF"/>
	</linearGradient>
	<line class="st20" x1="1981" y1="791.5" x2="2091.4" y2="791.5"/>
	<linearGradient id="SVGID_16_" gradientUnits="userSpaceOnUse" x1="2080.3191" y1="769.4696" x2="2080.3191" y2="769.4696">
		<stop  offset="0" style="stop-color:#FFFFFF;stop-opacity:0.1"/>
		<stop  offset="0.2692" style="stop-color:#D7EAFF;stop-opacity:0.3359"/>
		<stop  offset="0.7989" style="stop-color:#80BDFF;stop-opacity:0.8"/>
		<stop  offset="1" style="stop-color:#80BDFF"/>
	</linearGradient>
	<line class="st21" x1="2025.2" y1="769.5" x2="2135.5" y2="769.5"/>
	<g>
		<path class="st22" d="M1017.5,845.6c35.9,1.2,71.9,2.8,107.8,4.3c35.9,1.7,71.8,3.3,107.7,5.1l53.9,2.8l53.8,3l53.8,3.1l26.9,1.6
			l26.9,1.7l-0.1,2.5c-4.9-0.1-9.8-0.3-14.6-0.9c-2.4-0.3-4.9-0.6-7.3-1.1c-2.4-0.5-4.8-1-7.2-1.9c-0.6-0.2-1.2-0.5-1.8-0.8
			c-0.6-0.4-1.2-0.7-1.7-1.6c-0.3-0.5-0.3-1.2,0-1.7c0.3-0.5,0.6-0.8,0.9-1c0.6-0.4,1.2-0.7,1.8-0.9c2.4-0.9,4.9-1.2,7.3-1.6
			c4.9-0.6,9.7-0.9,14.6-1.1c19.4-0.8,38.8,0,58.2,0.5c19.4,0.5,38.7,1.1,58.1,1.3c19.4,0.3,38.7,0.5,58.1-0.1
			c9.6-0.4,19.3-0.7,28.7-2.1c2.3-0.4,4.7-0.8,6.8-1.6c1-0.4,2-0.8,2.6-1.3c0.3-0.2,0.3-0.4,0.3-0.4c0,0,0-0.1,0-0.2
			c0,0,0-0.1-0.1-0.2c0-0.1-0.1-0.1-0.1-0.2c-0.4-0.6-1.3-1.4-2.2-2c-0.9-0.6-1.9-1.2-3-1.7c-2.1-1.1-4.4-2.2-6.5-3.6
			c-1.1-0.7-2.1-1.4-3.1-2.3c-0.3-0.2-0.5-0.5-0.8-0.7c-0.3-0.2-0.5-0.5-0.7-0.9c-0.5-0.6-0.9-1.4-1.1-2.5c0-0.3,0-0.6,0-0.9
			c0-0.3,0.1-0.6,0.2-0.8c0.1-0.3,0.2-0.5,0.4-0.7c0.1-0.2,0.3-0.5,0.5-0.6c0.3-0.3,0.7-0.6,1-0.8c0.3-0.2,0.7-0.4,1-0.6
			c1.3-0.6,2.6-1,3.8-1.3c5-1.1,9.9-1.3,14.8-1.5c9.8-0.3,19.5-0.1,29.2,0.2l14.5,0.5l14.5,0.6c9.7,0.4,19.4,0.8,29,0.7
			c9.6-0.2,19.2-1.7,28.6-3.7c4.7-1,9.4-2.2,14.1-3.3c4.7-1.1,9.5-2.3,14.3-2.6l0,0.4c-4.8,0.5-9.5,1.9-14.1,3.1
			c-4.7,1.3-9.3,2.6-14.1,3.8c-9.4,2.3-19.1,4.1-28.8,4.5c-9.7,0.4-19.4,0.1-29.1-0.1l-29-0.7c-9.7-0.2-19.3-0.3-29,0.1
			c-4.8,0.2-9.6,0.6-14.1,1.6c-1.1,0.3-2.2,0.6-3,1c-0.2,0.1-0.4,0.2-0.6,0.3c-0.2,0.1-0.3,0.2-0.4,0.3c-0.1,0.2-0.1,0.2-0.1,0.3
			c0.1,0.1,0.1,0.4,0.4,0.8c0.1,0.2,0.3,0.3,0.5,0.5c0.2,0.2,0.3,0.4,0.6,0.5c0.8,0.7,1.7,1.3,2.7,2c1,0.6,2,1.2,3,1.8l3.2,1.7
			c1.1,0.6,2.2,1.2,3.3,2c1.1,0.8,2.2,1.5,3.1,2.9c0.5,0.7,1,1.6,0.9,2.8c-0.1,1.2-0.8,2.2-1.4,2.8c-1.3,1.1-2.6,1.6-3.8,2.1
			c-2.5,0.8-4.9,1.3-7.4,1.7c-4.9,0.7-9.8,1.1-14.6,1.4c-4.9,0.3-9.7,0.4-14.6,0.5c-19.4,0.2-38.8-0.4-58.2-1
			c-19.4-0.7-38.7-1.5-58.1-2.1c-9.7-0.3-19.4-0.5-29.1-0.6c-9.7-0.1-19.4-0.1-29,0.4c-4.8,0.3-9.6,0.6-14.4,1.3
			c-2.4,0.4-4.7,0.8-6.9,1.6c-0.5,0.2-1,0.4-1.4,0.7c-0.2,0.1-0.3,0.3-0.3,0.3c0,0.1,0,0,0,0c0.1,0.2,0.5,0.5,1,0.8
			c0.5,0.3,1,0.5,1.5,0.7c2.2,0.8,4.5,1.3,6.9,1.7c2.4,0.4,4.7,0.7,7.1,0.9c4.8,0.5,9.6,0.6,14.4,0.6l-0.1,2.5l-26.9-1.2l-26.9-1.2
			l-53.9-2.6l-53.9-2.6l-53.9-2.8c-35.9-1.9-71.8-4.1-107.7-6.2c-35.9-2.2-71.8-4.5-107.6-7L1017.5,845.6z"/>
	</g>
	<linearGradient id="SVGID_17_" gradientUnits="userSpaceOnUse" x1="535.4977" y1="1195.7659" x2="1130.5782" y2="608.5867">
		<stop  offset="0.3797" style="stop-color:#FFFFFF"/>
		<stop  offset="0.6546" style="stop-color:#F0F4FF"/>
		<stop  offset="1" style="stop-color:#D7E1FF"/>
	</linearGradient>
	<path class="st23" d="M65.1,958.1c0,0,595.9,21,750.1-66.2c58.4-33,342-11,386.1-11c44.1,0,231.7,11,209.6,0
		c-22.1-11,121.3-11,154.4-11c33.1,0,0-11-33.1-11c-33.1,0-77.2-33.1-110.3-22.1c-33.1,11-33.1,11-55.2,0
		c-22.1-11-143.2-122.4-264.6-78.3c-79,28.7-165.5,22.1-198.6,0c-33.1-22.1-99.5-87.1-242.9-32c-143.4,55.2-198.4,76.1-330.8,43
		C228.5,744.1,197.5,858.8,65.1,958.1z"/>
	<g>
		<path class="st24" d="M815.2,891.7l11.8-1.8l3-0.4l3-0.3l5.9-0.6c4-0.4,7.9-0.9,11.9-1.2l11.9-0.9c7.9-0.7,15.9-1.1,23.8-1.6
			l11.9-0.7l11.9-0.5c31.8-1.4,63.5-2.4,95.3-2.7c7.9-0.1,15.9-0.1,23.8-0.1l23.8,0l47.7,0c31.8-0.1,63.5-0.5,95.3-0.8
			c7.9-0.1,15.9-0.1,23.9,0.1c7.9,0.1,15.9,0.3,23.8,0.6l47.6,1.4c15.9,0.5,31.7,1,47.6,1.3c15.9,0.3,31.7,0.7,47.6,0.4
			c4-0.1,7.9-0.1,11.8-0.3c2-0.1,3.9-0.2,5.8-0.4c1.9-0.2,3.9-0.4,5.6-0.8c0.4-0.1,0.8-0.2,1.1-0.4c0.1-0.1,0.2-0.1,0.2-0.1
			c0,0-0.1,0-0.1,0.1l-0.1,0.2c-0.1,0.2-0.2,0.5-0.2,0.8c0.1,0.6,0.2,0.6,0.2,0.7c0,0-0.1-0.1-0.2-0.2c-0.3-0.2-0.6-0.3-1.2-0.6
			c-0.5-0.3-1-0.6-1.6-1.1c-0.1-0.1-0.3-0.3-0.4-0.5l-0.2-0.3c-0.1-0.1-0.1-0.2-0.2-0.4c-0.3-0.5-0.5-1.3-0.3-2.1
			c0.2-0.8,0.5-1.3,0.9-1.6c0.3-0.3,0.7-0.6,1-0.8c0.6-0.4,1.1-0.6,1.7-0.8c2.1-0.8,4.1-1.2,6.1-1.6c2-0.4,4-0.7,6-0.9
			c8-1,15.9-1.5,23.9-1.9c8-0.4,15.9-0.7,23.8-0.9c31.8-0.8,63.6-0.6,95.3,0.1v0.4c-31.8,0.7-63.5,1.3-95.2,2.6
			c-7.9,0.3-15.8,0.7-23.7,1.3c-7.9,0.5-15.8,1.2-23.6,2.2c-1.9,0.3-3.9,0.6-5.8,1c-1.9,0.4-3.8,0.8-5.4,1.4c-0.4,0.2-0.7,0.3-1,0.5
			c-0.1,0.1-0.2,0.1-0.2,0.2c0,0,0.1-0.1,0.2-0.4c0.1-0.3,0-0.6-0.1-0.6c0,0,0,0,0,0c0,0,0,0,0,0c0,0,0,0,0.1,0.1
			c0.2,0.2,0.5,0.4,0.8,0.6c0.3,0.2,0.9,0.4,1.4,0.8c0.3,0.2,0.6,0.4,0.9,0.7c0.1,0.1,0.2,0.2,0.3,0.3c0.1,0.1,0.2,0.2,0.3,0.4
			c0.1,0.2,0.2,0.3,0.2,0.5c0.1,0.2,0.1,0.5,0.1,0.7c0,0.2,0,0.5-0.1,0.8c-0.1,0.3-0.2,0.5-0.3,0.7c-0.1,0.2-0.2,0.4-0.3,0.5
			c-0.1,0.1-0.3,0.3-0.3,0.3c-0.4,0.4-0.8,0.5-1.1,0.7c-0.6,0.3-1.2,0.5-1.8,0.6c-2.2,0.6-4.2,0.8-6.2,1c-2,0.2-4,0.3-6,0.5
			c-4,0.2-8,0.3-12,0.4c-8,0.1-15.9,0.1-23.9,0c-8-0.1-15.9-0.3-23.8-0.5c-15.9-0.5-31.8-1.1-47.6-1.7l-47.6-2
			c-15.9-0.6-31.7-1.5-47.6-1.6c-31.8-0.3-63.5-0.4-95.3-0.1l-23.8,0.4l-23.8,0.6l-47.6,1.3l-47.6,1.1l-23.8,0.6
			c-7.9,0.2-15.9,0.4-23.8,0.7l-11.9,0.4l-11.9,0.4c-7.9,0.3-15.9,0.6-23.8,1l-11.9,0.6c-4,0.2-7.9,0.5-11.9,0.8l-5.9,0.4l-3,0.2
			l-3,0.3l-11.8,1.3L815.2,891.7z"/>
	</g>
	<g>
		<path class="st25" d="M1012.7,858.3c9.5-0.6,19.2,0.2,28.5,2.8c9.2,2.6,17.9,7.1,25.7,12.7l1.5,1.1c0.2,0.2,0.5,0.3,0.7,0.6
			c0.2,0.2,0.5,0.5,0.5,1.1c-0.1,0.6-0.5,0.8-0.8,1c-0.3,0.2-0.6,0.3-0.9,0.4c-0.6,0.2-1.2,0.3-1.8,0.4c-2.4,0.3-4.8,0.4-7.2,0.5
			c-4.8,0.1-9.6,0-14.4,0c-9.6-0.2-19.1-0.5-28.7-0.8c-19.1-0.6-38.2-1.1-57.3-0.6c-9.5,0.2-19.1,0.7-28.6,1.9
			c-4.7,0.6-9.5,1.3-14.1,2.5c-2.3,0.6-4.6,1.3-6.8,2.3c-2.2,0.9-4.3,2.1-6,3.8c1.7-1.7,3.8-2.9,6-3.9c2.2-1,4.5-1.7,6.8-2.4
			c4.6-1.3,9.3-2.1,14.1-2.8c9.5-1.3,19.1-1.8,28.6-2.2c19.1-0.6,38.3-0.1,57.4,0.4c9.6,0.3,19.1,0.7,28.7,0.9
			c4.8,0.1,9.6,0.2,14.3,0.1c2.4-0.1,4.8-0.1,7.1-0.5c0.6-0.1,1.2-0.2,1.7-0.3c0.3-0.1,0.5-0.2,0.8-0.3c0.2-0.1,0.4-0.3,0.4-0.3
			c0-0.1-0.1-0.3-0.3-0.5c-0.2-0.2-0.4-0.3-0.7-0.5l-1.4-1.1c-3.8-2.8-7.9-5.4-12.1-7.6c-4.2-2.2-8.7-4-13.2-5.3
			C1031.9,858.8,1022.3,857.8,1012.7,858.3z"/>
	</g>
	<g>
		<path class="st25" d="M959.4,869.4c-18.6-2.8-37.4-3.6-56.1-3.2c-18.8,0.4-37.5,2-56,4.9c-9.3,1.4-18.5,3.2-27.6,5.4
			c-9.1,2.2-18.1,4.8-26.8,8.3c-4.3,1.7-8.6,3.7-12.6,6.2c-2,1.2-3.9,2.6-5.5,4.2c-1.6,1.6-3.1,3.5-3.6,5.6c-0.1,0.6-0.2,1,0,1.5
			c0.2,0.4,0.5,0.8,1,1.2c0.8,0.7,1.9,1.2,2.9,1.7c2.1,0.9,4.4,1.6,6.6,2.1c4.5,1.2,9.1,2,13.7,2.8c9.2,1.6,18.5,3,27.8,4.5
			c9.3,1.5,18.5,3.1,27.6,5.6c2.3,0.7,4.5,1.4,6.7,2.3c1.1,0.5,2.2,0.9,3.2,1.6c1,0.7,2,1.6,2.3,3c0.2,1.3-0.4,2.6-1,3.6
			c-0.7,1-1.6,1.8-2.5,2.6c-1.8,1.6-3.8,2.9-5.7,4.2c-8,5-16.4,9.2-24.7,13.5c-16.6,8.6-33.3,17.4-48.5,28.4
			c-3.8,2.8-7.5,5.7-10.9,8.8c-3.5,3.1-6.8,6.5-9.7,10.2c-2.9,3.7-5.5,7.6-7.3,12c-1.9,4.3-2.8,9-2.9,13.7c0-4.7,1-9.4,2.8-13.7
			c1.8-4.4,4.3-8.4,7.2-12.1c2.9-3.7,6.2-7.1,9.6-10.3c3.5-3.2,7.1-6.1,10.9-8.9c15.2-11.1,31.9-19.9,48.5-28.6
			c8.3-4.4,16.7-8.6,24.6-13.6c2-1.3,3.9-2.6,5.6-4.1c0.8-0.8,1.7-1.6,2.3-2.5c0.6-0.9,1.1-2,0.9-3c-0.2-1-1-1.8-1.9-2.4
			c-0.9-0.6-2-1.1-3.1-1.5c-2.1-0.9-4.4-1.6-6.6-2.2c-9-2.5-18.3-4-27.5-5.5c-9.3-1.5-18.6-2.8-27.8-4.4c-4.6-0.8-9.2-1.7-13.8-2.9
			c-2.3-0.6-4.6-1.3-6.8-2.2c-1.1-0.5-2.2-1-3.1-1.8c-0.5-0.4-0.9-0.9-1.2-1.5c-0.1-0.2-0.1-0.3-0.2-0.5c0-0.2-0.1-0.4,0-0.5
			c0-0.4,0.1-0.6,0.1-1c0.6-2.4,2.1-4.4,3.8-6.1c1.7-1.7,3.7-3,5.7-4.3c4-2.5,8.3-4.4,12.7-6.2c8.8-3.5,17.8-6,27-8.2
			c9.1-2.2,18.4-3.9,27.7-5.3c18.6-2.8,37.3-4.4,56.1-4.7C922.1,865.4,940.9,866.4,959.4,869.4z"/>
	</g>
	<g>
		<path class="st26" d="M805,979.7c2.9,0,5.9-0.1,8.8,0.6c0.4,0.1,0.7,0.2,1.1,0.5c0.2,0.1,0.4,0.3,0.5,0.5c0.1,0.2,0.2,0.5,0.1,0.8
			c-0.3,0.9-1,1.3-1.6,1.8c-1.2,0.9-2.6,1.5-3.9,2.2c-5.3,2.5-10.8,4.6-16.2,6.9c-5.4,2.3-10.8,4.5-15.8,7.2c-2.5,1.4-5,2.9-7,4.8
			c-1,0.9-1.8,2-2,3.1c-0.2,1,0.4,2.1,1.4,2.9c1,0.9,2.2,1.6,3.5,2.2c1.3,0.6,2.6,1.1,4,1.6c2.7,0.9,5.5,1.6,8.4,2.2
			c5.7,1.3,11.4,2.2,17.2,3c11.6,1.6,23.2,2.8,34.8,4c-11.7-0.4-23.4-1.1-35-2.5c-5.8-0.7-11.6-1.5-17.4-2.7
			c-2.9-0.6-5.7-1.3-8.6-2.2c-1.4-0.5-2.8-1-4.2-1.6c-1.4-0.6-2.7-1.4-4-2.5c-0.6-0.6-1.2-1.2-1.6-2c-0.4-0.8-0.6-1.8-0.4-2.7
			c0.3-1.8,1.5-3.1,2.6-4.2c2.3-2.1,4.9-3.6,7.5-5c5.3-2.7,10.7-4.9,16.2-7c5.5-2.1,11-4,16.3-6.3c1.3-0.6,2.7-1.2,3.9-1.9
			c0.6-0.4,1.2-0.8,1.4-1.3c0.2-0.4-0.6-0.8-1.2-1c-1.3-0.4-2.8-0.6-4.3-0.8C807.9,979.9,806.4,979.8,805,979.7z"/>
	</g>
	<g>
		<path class="st7" d="M2525.2,824.6c22.1-11-33.1-33.1-154.4-33.1c-112.5,0-88.2-11-121.3-11c-22.1,0-44.1-11,0-22.1
			c6.2-1.5,13.2-8.8,22.1-11c44.1-11,44.1-22.1,77.2-11c66.2,22.1,55.2-66.2,176.5-22.1c69.5,25.3,121.3,11,165.5,0
			c44.1-11,158.8-119.9,308.9-77.2c150.8,42.9,196.9-18.6,231.7-22.1c110.3-11,141,172.2,198.6,143.4
			c110.3-55.2,99.3,11,231.7,121.3c42.4,35.3-772.2-55.2-871.5-44.1C2690.7,846.7,2525.2,824.6,2525.2,824.6z"/>
		<polygon class="st7" points="2357.7,725.3 2370.6,780.5 2344.8,780.5 		"/>
		<polygon class="st7" points="2335.9,703.2 2348.8,758.4 2323.1,758.4 		"/>
		<polygon class="st7" points="2316.9,714.3 2329.8,769.5 2304,769.5 		"/>
		<polygon class="st7" points="2295.2,714.3 2308,769.5 2282.3,769.5 		"/>
		<polygon class="st7" points="2280.7,725.3 2293.6,769.5 2267.8,769.5 		"/>
		<polygon class="st7" points="2372.1,714.3 2385,769.5 2359.2,769.5 		"/>
		<polygon class="st7" points="2781.2,637 2794.1,692.3 2768.3,692.3 		"/>
		<polygon class="st7" points="2757.8,659.1 2767.5,714.3 2748.1,714.3 		"/>
		<polygon class="st7" points="2744.9,648.1 2754.6,703.3 2735.3,703.3 		"/>
		<polygon class="st7" points="2722.9,659.1 2732.5,714.3 2713.2,714.3 		"/>
		<polygon class="st7" points="2703.3,681.2 2712.9,736.4 2693.6,736.4 		"/>
		<polygon class="st7" points="2689.8,670.1 2699.4,725.3 2680.1,725.3 		"/>
		<polygon class="st7" points="2681.2,681.2 2690.9,736.4 2671.5,736.4 		"/>
		<polygon class="st7" points="2800.1,615 2809.8,670.2 2790.4,670.2 		"/>
		<polygon class="st7" points="2813.6,626 2823.2,681.2 2803.9,681.2 		"/>
		<polygon class="st7" points="2824.6,604 2834.3,670.2 2814.9,670.2 		"/>
		<polygon class="st7" points="2835.6,615 2845.3,670.2 2826,670.2 		"/>
		<polygon class="st7" points="2846.7,593 2856.3,648.1 2837,648.1 		"/>
		<polygon class="st7" points="2857.7,604 2867.4,659.2 2848,659.2 		"/>
		<polygon class="st7" points="2868.7,604 2878.4,659.2 2859.1,659.2 		"/>
		<polygon class="st7" points="2877.3,593 2887,648.1 2867.6,648.1 		"/>
		<polygon class="st7" points="2888.3,593 2898,648.1 2878.7,648.1 		"/>
		<polygon class="st7" points="2899.4,604 2909,659.2 2889.7,659.2 		"/>
		<polygon class="st7" points="2912.9,604 2922.5,659.2 2903.2,659.2 		"/>
		<polygon class="st7" points="2921.4,615 2931.1,670.2 2911.8,670.2 		"/>
		<polygon class="st7" points="2934.9,604 2944.6,659.2 2925.3,659.2 		"/>
		<polygon class="st7" points="2954.5,593 2964.2,648.1 2944.9,648.1 		"/>
		<polygon class="st7" points="2968,604 2977.7,659.2 2958.3,659.2 		"/>
		<g>
			<path class="st8" d="M2525.9,824.8c1.4-0.8,2.8-1.8,3.7-3.1c0.4-0.6,0.7-1.4,0.7-2.1c0-0.7-0.3-1.5-0.7-2.1
				c-0.8-1.3-2.1-2.3-3.4-3.2c-1.3-0.9-2.8-1.7-4.3-2.4c-5.9-2.8-12.3-4.6-18.7-6.3c-12.8-3.2-25.9-5.3-39-7.3
				c-6.6-1-13.1-1.9-19.7-2.6c-6.6-0.8-13.2-1.4-19.8-1.9c-13.2-0.9-26.5-1.2-39.8-1.1c-13.3,0.1-26.6,0.4-39.9,0.2l-10-0.1l-10-0.3
				c-3.3-0.1-6.7-0.3-10-0.5l-5-0.3c-1.7-0.1-3.3-0.3-5-0.4l-5-0.5l-5-0.6c-3.3-0.4-6.6-1-9.9-1.6c-1.6-0.4-3.3-0.7-4.9-1.1
				c-1.6-0.4-3.3-0.8-4.9-1.3c-3.2-0.9-6.3-2-9.5-2.8c-3.1-0.8-6.4-1.2-9.7-1.5c-3.3-0.2-6.6-0.3-9.9-0.5c-3.3-0.3-6.7-0.8-9.9-1.6
				c-3.2-0.8-6.5-1.9-9.2-3.9l0.2-0.2c1.4,0.9,2.9,1.5,4.5,2c1.6,0.5,3.2,0.9,4.8,1.2c3.2,0.6,6.5,0.9,9.8,1c3.3,0.1,6.6,0,10,0.1
				c3.3,0.2,6.8,0.4,10.1,1.2c3.3,0.7,6.5,1.7,9.7,2.6c1.6,0.4,3.2,0.8,4.8,1.2c1.6,0.3,3.2,0.6,4.8,0.9c1.6,0.3,3.3,0.5,4.9,0.7
				c1.6,0.3,3.3,0.4,4.9,0.6l4.9,0.6l4.9,0.4l4.9,0.4l5,0.3c3.3,0.2,6.6,0.4,9.9,0.6l9.9,0.5l9.9,0.3c13.3,0.4,26.5,0.5,39.8,1
				c13.3,0.4,26.6,1.1,39.8,1.8c6.6,0.4,13.3,0.7,19.9,1.2c6.6,0.5,13.3,1.1,19.9,1.8c6.6,0.8,13.2,1.8,19.8,3
				c6.6,1.2,13.1,2.7,19.5,4.5c3.2,0.9,6.4,1.9,9.6,3.1c3.1,1.1,6.3,2.5,9.2,4c1.5,0.8,2.9,1.7,4.3,2.7c1.3,1,2.7,2.2,3.5,3.8
				c0.4,0.8,0.7,1.7,0.7,2.6c0,0.9-0.4,1.8-1,2.5c-1.1,1.4-2.6,2.2-4.1,2.9L2525.9,824.8z"/>
		</g>
	</g>
	<g>
		<linearGradient id="SVGID_18_" gradientUnits="userSpaceOnUse" x1="2359.8757" y1="873.0528" x2="3540.5823" y2="873.0528">
			<stop  offset="0" style="stop-color:#ABB6F4"/>
			<stop  offset="2.518158e-02" style="stop-color:#A6AFEE"/>
			<stop  offset="0.1176" style="stop-color:#969CDB"/>
			<stop  offset="0.211" style="stop-color:#8C90D0"/>
			<stop  offset="0.3065" style="stop-color:#898CCC"/>
		</linearGradient>
		<path class="st27" d="M2371.3,822c0,0-55.2,11,77.2,33.1c-11,22.1,242.7,22.1,441.2,22.1c-11,11-66.2,22.1,132.4,44.1
			c131.6,14.6,518.5-33.1,518.5-33.1l-805.3-55.2l-342-11H2371.3z"/>
		<path class="st28" d="M3626.4,887.5c0,0-906.6,33.6-728.1-11c44.1-11-29.3-11-66.2-11c-121.3,0-77.2,0-198.6,0
			s-198.6-22.1-176.5-22.1s-198.6-11-33.1-33.1s170.4-14.7,190,3.7s107.9,29.4,196.1-14.7c79.3-39.6,229.8-159.4,507.4,8.6
			C3349,826.8,3427.9,755.1,3626.4,887.5z"/>
		<polygon class="st28" points="2600.5,736.2 2622.6,830.7 2578.4,830.7 		"/>
		<polygon class="st28" points="2567.4,726.7 2589.5,821.3 2545.4,821.3 		"/>
		<polygon class="st28" points="2545.4,743.9 2567.4,838.4 2523.3,838.4 		"/>
		<polygon class="st28" points="2512.3,721.8 2534.3,816.4 2490.2,816.4 		"/>
		<polygon class="st28" points="2479.2,743.9 2501.2,838.4 2457.1,838.4 		"/>
		<polygon class="st28" points="2644.6,743.9 2666.7,838.4 2622.6,838.4 		"/>
		<polygon class="st28" points="2666.7,736.2 2688.8,830.7 2644.6,830.7 		"/>
		<polygon class="st28" points="2683.2,748 2699.8,842.6 2666.7,842.6 		"/>
		<linearGradient id="SVGID_19_" gradientUnits="userSpaceOnUse" x1="2850.0415" y1="833.0515" x2="2850.0415" y2="716.9002">
			<stop  offset="0" style="stop-color:#ABB6F4"/>
			<stop  offset="0.1118" style="stop-color:#A7B1EF"/>
			<stop  offset="0.2501" style="stop-color:#9AA1E0"/>
			<stop  offset="0.3831" style="stop-color:#898CCC"/>
		</linearGradient>
		<polygon class="st29" points="2850,716.9 2865.5,833.1 2834.6,833.1 		"/>
		<polygon class="st28" points="2705.3,759.8 2721.9,854.4 2688.8,854.4 		"/>
		<polygon class="st28" points="2727.4,748 2743.9,842.6 2710.8,842.6 		"/>
		<polygon class="st28" points="2760.5,736.2 2777,830.7 2743.9,830.7 		"/>
		<polygon class="st28" points="2782.5,740.4 2799.1,818.9 2766,818.9 		"/>
		<polygon class="st28" points="2804.6,711 2821.1,809.1 2788,809.1 		"/>
		<polygon class="st28" points="2826.6,733 2843.2,831.1 2810.1,831.1 		"/>
		<polygon class="st28" points="2892.8,710.4 2909.4,828.6 2876.3,828.6 		"/>
		<polygon class="st28" points="2925.9,677.4 2942.5,795.5 2909.4,795.5 		"/>
		<polygon class="st28" points="2937,688.4 2953.5,806.6 2920.4,806.6 		"/>
		<polygon class="st28" points="2970.1,681 2986.6,799.2 2953.5,799.2 		"/>
		<polygon class="st28" points="3003.1,659 3019.7,777.2 2986.6,777.2 		"/>
		<polygon class="st28" points="3036.2,699.6 3052.8,799.2 3019.7,799.2 		"/>
		<polygon class="st28" points="3058.3,670 3074.9,766.1 3041.8,766.1 		"/>
		<polygon class="st28" points="3047.3,681 3063.8,766.1 3030.7,766.1 		"/>
		<polygon class="st28" points="3080.4,681 3096.9,755.1 3063.8,755.1 		"/>
		<polygon class="st28" points="3102.4,690.3 3119,766.1 3085.9,766.1 		"/>
		<polygon class="st28" points="3014.2,681 3030.7,799.2 2997.6,799.2 		"/>
		<polygon class="st28" points="3124.5,677.4 3141,762.5 3107.9,762.5 		"/>
		<polygon class="st28" points="3157.6,699.4 3174.1,777.2 3141,777.2 		"/>
		<polygon class="st28" points="3146.6,681 3163.1,766.1 3130,766.1 		"/>
		<polygon class="st28" points="3190.7,703.1 3207.2,788.2 3174.1,788.2 		"/>
		<polygon class="st28" points="3510.6,776.6 3527.1,861.7 3494,861.7 		"/>
		<polygon class="st28" points="3532.6,810.3 3549.2,876.4 3516.1,876.4 		"/>
		<polygon class="st28" points="3521.6,799.2 3538.2,865.4 3505.1,865.4 		"/>
		<polygon class="st28" points="3554.7,810.3 3571.3,876.4 3538.2,876.4 		"/>
		<polygon class="st28" points="3488.5,788.2 3505.1,854.4 3472,854.4 		"/>
		<polygon class="st28" points="3229.3,732.5 3240.3,799.2 3218.3,799.2 		"/>
		<polygon class="st28" points="3262.4,754.6 3273.4,821.3 3251.4,821.3 		"/>
		<polygon class="st28" points="3251.4,732.5 3262.4,799.2 3240.3,799.2 		"/>
		<polygon class="st28" points="3284.4,765.6 3295.5,832.3 3273.4,832.3 		"/>
		<linearGradient id="SVGID_20_" gradientUnits="userSpaceOnUse" x1="3026.5413" y1="817.1176" x2="3026.5413" y2="700.9662">
			<stop  offset="0" style="stop-color:#ABB6F4"/>
			<stop  offset="0.1118" style="stop-color:#A7B1EF"/>
			<stop  offset="0.2501" style="stop-color:#9AA1E0"/>
			<stop  offset="0.3831" style="stop-color:#898CCC"/>
		</linearGradient>
		<polygon class="st30" points="3026.5,701 3042,817.1 3011.1,817.1 		"/>
		<linearGradient id="SVGID_21_" gradientUnits="userSpaceOnUse" x1="3059.6348" y1="844.0828" x2="3059.6348" y2="727.9314">
			<stop  offset="0" style="stop-color:#ABB6F4"/>
			<stop  offset="0.1118" style="stop-color:#A7B1EF"/>
			<stop  offset="0.2501" style="stop-color:#9AA1E0"/>
			<stop  offset="0.3831" style="stop-color:#898CCC"/>
		</linearGradient>
		<polygon class="st31" points="3059.6,727.9 3075.1,844.1 3044.2,844.1 		"/>
		<linearGradient id="SVGID_22_" gradientUnits="userSpaceOnUse" x1="3077.2861" y1="866.1452" x2="3077.2861" y2="749.9939">
			<stop  offset="0" style="stop-color:#ABB6F4"/>
			<stop  offset="0.1118" style="stop-color:#A7B1EF"/>
			<stop  offset="0.2501" style="stop-color:#9AA1E0"/>
			<stop  offset="0.3831" style="stop-color:#898CCC"/>
		</linearGradient>
		<polygon class="st32" points="3077.3,750 3099.3,866.1 3055.2,866.1 		"/>
		<linearGradient id="SVGID_23_" gradientUnits="userSpaceOnUse" x1="2829.0835" y1="853.8883" x2="2829.0835" y2="766.7955">
			<stop  offset="0" style="stop-color:#ABB6F4"/>
			<stop  offset="0.1118" style="stop-color:#A7B1EF"/>
			<stop  offset="0.2501" style="stop-color:#9AA1E0"/>
			<stop  offset="0.3831" style="stop-color:#898CCC"/>
		</linearGradient>
		<polygon class="st33" points="2829.1,766.8 2845.6,853.9 2812.6,853.9 		"/>
		<linearGradient id="SVGID_24_" gradientUnits="userSpaceOnUse" x1="3011.0989" y1="855.114" x2="3011.0989" y2="755.8329">
			<stop  offset="0" style="stop-color:#ABB6F4"/>
			<stop  offset="0.1118" style="stop-color:#A7B1EF"/>
			<stop  offset="0.2501" style="stop-color:#9AA1E0"/>
			<stop  offset="0.3831" style="stop-color:#898CCC"/>
		</linearGradient>
		<polygon class="st34" points="3011.1,755.8 3022.1,855.1 3000.1,855.1 		"/>
		<linearGradient id="SVGID_25_" gradientUnits="userSpaceOnUse" x1="2790.4741" y1="844.0828" x2="2790.4741" y2="744.8016">
			<stop  offset="0" style="stop-color:#ABB6F4"/>
			<stop  offset="0.1118" style="stop-color:#A7B1EF"/>
			<stop  offset="0.2501" style="stop-color:#9AA1E0"/>
			<stop  offset="0.3831" style="stop-color:#898CCC"/>
		</linearGradient>
		<polygon class="st35" points="2790.5,744.8 2801.5,844.1 2779.5,844.1 		"/>
		<linearGradient id="SVGID_26_" gradientUnits="userSpaceOnUse" x1="2989.0364" y1="799.9578" x2="2989.0364" y2="700.6768">
			<stop  offset="0" style="stop-color:#ABB6F4"/>
			<stop  offset="0.1118" style="stop-color:#A7B1EF"/>
			<stop  offset="0.2501" style="stop-color:#9AA1E0"/>
			<stop  offset="0.3831" style="stop-color:#898CCC"/>
		</linearGradient>
		<polygon class="st36" points="2989,700.7 3000.1,800 2978,800 		"/>
		<polygon class="st28" points="2738.4,724.4 2754.9,842.6 2721.9,842.6 		"/>
		<g>
			<linearGradient id="SVGID_27_" gradientUnits="userSpaceOnUse" x1="2933.9631" y1="854.8065" x2="2933.9631" y2="711.7079">
				<stop  offset="0" style="stop-color:#ABB6F4"/>
				<stop  offset="2.518158e-02" style="stop-color:#A6AFEE"/>
				<stop  offset="0.1176" style="stop-color:#969CDB"/>
				<stop  offset="0.211" style="stop-color:#8C90D0"/>
				<stop  offset="0.3065" style="stop-color:#898CCC"/>
			</linearGradient>
			<path class="st37" d="M2999.9,795.2c0-0.2,0.1-0.4,0.1-0.6h-0.5l-65.1-82.9l-65.9,82.9h-0.6c0,4,3.2,7.2,7.2,7.2h10.7
				c0,4,3.2,7.2,7.2,7.2h14.8c0,4,3.2,7.2,7.2,7.2h17.9c0,0.5,0,0.9,0,1.4c-0.3,3-0.2,6.1-1.4,8.9c-0.9,2.2-2.2,6.6-4.7,7.7
				c-0.9,0.4-0.7-0.2-1.5-0.1c-0.4,0.1-1.2,0.6-1.7,0.8c-1.2,0.6-2.4,0.7-3.8,0.6c-1.6-0.1-2.6-0.8-4-1.3c-1.9-0.6-2.3-0.3-3.5,0.9
				c-1.9,1.9-6.6,1.9-7.1,5.7c0.6-0.9,1.2-0.9,2-1.4c0.8-0.5,1.4-1.5,2.3-1.8c0.7-0.2,1.8,0.1,2.6-0.1c0.9-0.2,1.8-0.7,2.8-0.8
				c1.9-0.2,3.2,1.5,5.1,1.6c1.9,0.1,3.6-1.3,5.3-1.2c-0.8,1.8-3.1,2.8-4.6,3.9c-0.6,0.4-1.9,1.2-2.3,1.9c-0.5,0.8-0.1,1.2-0.2,2.1
				c-0.1,2.2-1.7,3.6-2.1,5.5c-0.3,1.3,0.4,2.9,1.1,4c1.1-2.4,0.3-5,1.9-7.4c0.5-0.8,1-1.3,1.5-2.1c0.5-0.8,0.5-1.1,1.4-1.6
				c1.4-0.7,3.1-0.8,4.6-1.2c1.6-0.4,2.9-1.2,4.3-2.2c1-0.6,2.8-2.8,3.9-2.9c1.2-0.1,2.2,1.6,3,2c0.6,0.3,1.3,0.2,2,0.4
				c0.8,0.2,1.2,0.7,2.1,0.9c1,0.3,1.3-0.2,2.1,0.6c0.5,0.5,0.7,1.3,1.2,1.9c0.9,1.1,1.7,2.7,2.9,3.6c-0.9-2-1.8-5.2-3.4-6.6
				c-2.1-1.8-4.3-2.4-5.5-5.1c-0.9-2-1.5-4.5-1.3-6.7c0.2-2.7,0.3-5.1,2.1-6.8c2.2-2.1,2.8-3.1,6.6-3.5c-3-1.3-5.7-1.2-8.2,1.1
				c-0.5-1.3,0.4-2.2,0.9-3.3h14.5c4,0,7.2-3.2,7.2-7.2h13.5c4,0,7.2-3.2,7.2-7.2h11C2996.5,801.9,2999.6,799,2999.9,795.2
				L2999.9,795.2L2999.9,795.2z"/>
			<g>
				<g>
					<polygon class="st38" points="2953.4,767.6 2949.2,775.1 2949.2,782.6 2957.5,782.6 2957.5,775.1 					"/>
				</g>
			</g>
			<g>
				<g>
					<polygon class="st38" points="2916.6,767.6 2912.4,775.1 2912.4,782.6 2920.8,782.6 2920.8,775.1 					"/>
				</g>
			</g>
		</g>
		<g>
			<g>
				<g>
					<path class="st39" d="M2868.5,794.6l-0.6,0l0,0c0.1,1.8,0.8,3.6,2.1,4.9c1.3,1.3,3,2,4.8,2c1.8,0,3.7-0.1,5.5-0.1l5.5-0.1
						l0.5,0l0,0.5c0,2,1,4,2.6,5.2c0.8,0.6,1.7,1,2.7,1.2c0.2,0,0.5,0.1,0.7,0.1l0.7,0l1.6,0c4.4,0,8.7-0.1,13.1-0.1l0.9,0l0,0.9
						c0,2.3,1.3,4.5,3.3,5.5c1,0.5,2.1,0.8,3.2,0.8l3.8,0l15.3-0.1l15.3,0.1l3.8,0c1.2,0,2.3-0.3,3.2-0.8c2-1.1,3.3-3.3,3.3-5.5
						l0-0.9l0.9,0c4.1,0,8.3,0.1,12.4,0.1c1.1,0,2,0,2.9-0.2c0.9-0.2,1.8-0.7,2.5-1.3c1.5-1.2,2.4-3.1,2.4-5l0-0.5l0.5,0
						c3.6,0,7.2,0.2,10.9,0.2c1.7,0.1,3.5-0.5,4.8-1.7c1.3-1.1,2.2-2.8,2.5-4.6l0,0l0,0l0.1,0l0,0.1l-0.1-0.1l0,0l0,0l0.1-0.6l0,0
						l-0.5,0l0.5,0l0,0l0,0l0,0.6l0,0l0.1,0.1l0,0.1l-0.1,0l-0.1,0l0,0c-0.1,1.8-0.9,3.6-2.3,4.9c-1.3,1.3-3.2,2-5.1,2
						c-3.6,0.1-7.2,0.2-10.9,0.2l0.5-0.5c0,2.2-1,4.5-2.6,6c-0.8,0.8-1.8,1.3-2.9,1.6c-1.1,0.3-2.3,0.4-3.3,0.4
						c-4.1,0-8.3,0.1-12.4,0.1l0.9-0.9c0,2.9-1.6,5.7-4.1,7.1c-1.2,0.7-2.7,1.1-4.1,1.1l-3.8,0l-15.3,0.1l-15.3-0.1l-3.8,0
						c-1.4,0-2.9-0.3-4.1-1.1c-2.5-1.4-4.2-4.2-4.1-7.1l0.9,0.9c-4.4,0-8.7-0.1-13.1-0.1l-1.6,0l-0.9-0.1c-0.3-0.1-0.6-0.1-0.9-0.2
						c-1.2-0.3-2.2-0.8-3.2-1.5c-1.9-1.5-2.9-3.8-2.9-6.2l0.5,0.5l-5.5-0.1c-1.8,0-3.7-0.1-5.5-0.1c-1.9-0.1-3.7-1-5-2.4
						c-1.3-1.4-2-3.3-1.9-5.1l0,0l0,0L2868.5,794.6z"/>
				</g>
			</g>
		</g>
		<g>
			<path class="st40" d="M3628,888.6c-52.5,2.6-105,4.6-157.5,6.5l-78.8,2.5c-26.3,0.8-52.5,1.4-78.8,2.1
				c-52.5,1.2-105.1,1.9-157.6,2.3c-52.5,0.4-105.1,0.3-157.6-1c-26.3-0.7-52.5-1.6-78.8-3.6c-6.6-0.5-13.1-1.1-19.6-2
				c-3.3-0.4-6.5-0.9-9.8-1.5c-3.2-0.6-6.5-1.3-9.6-2.6c-0.8-0.3-1.6-0.7-2.3-1.2c-0.4-0.3-0.7-0.6-1-1c-0.3-0.4-0.5-0.9-0.6-1.5
				c0-0.6,0.2-1.1,0.5-1.5c0.3-0.4,0.6-0.7,0.9-1c0.7-0.6,1.4-1.1,2.1-1.5c3-1.6,6.1-2.7,9.2-3.8c3.1-1,6.3-1.9,9.5-2.7
				c3.2-0.8,6.3-1.6,9.4-2.7c1.5-0.5,3.1-1.1,4.3-1.9c0.3-0.2,0.6-0.4,0.8-0.6c0.1-0.2,0.1-0.2,0.1-0.3c-0.1-0.1-0.3-0.4-0.7-0.5
				c-0.3-0.2-0.7-0.3-1-0.4c-1.5-0.5-3.1-0.8-4.7-1.1c-1.6-0.3-3.2-0.5-4.8-0.6c-6.5-0.6-13.1-1-19.6-1.2
				c-13.1-0.4-26.2-0.3-39.4-0.3l-78.8,0.5c-26.3,0.1-52.5,0.2-78.8,0.1l-39.4-0.1c-13.1,0-26.3-0.1-39.4-0.5
				c-13.1-0.4-26.3-1.2-39.4-2.2c-13.1-1-26.2-2.3-39.3-4c-13.1-1.6-26.1-3.6-39-6.1c-6.5-1.3-12.9-2.6-19.3-4.3
				c-3.2-0.8-6.4-1.7-9.5-2.8c-1.5-0.6-3.1-1.1-4.5-2.1c-0.2-0.1-0.4-0.3-0.5-0.5c-0.1-0.1-0.1-0.3-0.1-0.4c0-0.2,0.1-0.3,0.2-0.4
				c0.4-0.3,0.9-0.4,1.3-0.4c0.8-0.1,1.7-0.1,2.5-0.1v0.4c-0.8,0-1.6,0-2.4,0.2c-0.4,0.1-0.8,0.2-1,0.3c-0.1,0.1-0.1,0.1,0,0.2
				c0.1,0.1,0.2,0.2,0.4,0.3c1.3,0.8,2.9,1.4,4.4,1.9c3.1,1,6.3,1.8,9.5,2.6c6.4,1.5,12.8,2.7,19.3,3.9c12.9,2.2,25.9,3.9,39,5.4
				c26.1,2.9,52.3,4.4,78.5,5.1c13.1,0.4,26.2,0.4,39.4,0.3l39.4-0.1c26.3-0.1,52.5,0,78.8,0.1l78.8,0.6c13.1,0.1,26.3,0.3,39.4,0.9
				c6.6,0.3,13.1,0.6,19.7,1.3c1.6,0.2,3.3,0.4,4.9,0.7c1.6,0.3,3.3,0.6,4.9,1.1c0.4,0.1,0.8,0.3,1.2,0.5c0.4,0.2,0.8,0.5,1.2,1
				c0.1,0.1,0.2,0.3,0.2,0.5c0,0.2,0.1,0.4,0,0.6c0,0.4-0.2,0.6-0.4,0.9c-0.3,0.4-0.7,0.7-1.1,1c-1.5,1-3.1,1.5-4.7,2.1
				c-3.1,1.1-6.4,1.9-9.5,2.7c-3.2,0.8-6.3,1.7-9.4,2.6c-3.1,1-6.2,2.1-9,3.6c-0.7,0.4-1.4,0.8-1.9,1.3c-0.6,0.5-1,1.1-1,1.6
				c0,0.5,0.5,1.1,1.1,1.5c0.6,0.4,1.3,0.8,2,1.1c3,1.2,6.2,1.9,9.4,2.5c3.2,0.6,6.5,1.1,9.7,1.5c6.5,0.8,13,1.4,19.6,1.9
				c13.1,1,26.2,1.5,39.3,1.9c13.1,0.4,26.2,0.7,39.4,0.8c52.5,0.6,105,0.1,157.6-0.5c26.3-0.3,52.5-0.8,78.8-1.3l78.8-1.6
				c105-2.1,210.1-4.7,315.1-7.2L3628,888.6z"/>
		</g>
		<linearGradient id="SVGID_28_" gradientUnits="userSpaceOnUse" x1="2770.8667" y1="844.0828" x2="2770.8667" y2="766.8641">
			<stop  offset="0" style="stop-color:#ABB6F4"/>
			<stop  offset="0.1118" style="stop-color:#A7B1EF"/>
			<stop  offset="0.2501" style="stop-color:#9AA1E0"/>
			<stop  offset="0.3831" style="stop-color:#898CCC"/>
		</linearGradient>
		<polygon class="st41" points="2770.9,766.9 2779.4,844.1 2762.3,844.1 		"/>
		<linearGradient id="SVGID_29_" gradientUnits="userSpaceOnUse" x1="3373.6003" y1="858.1939" x2="3170.386" y2="842.062">
			<stop  offset="0.1669" style="stop-color:#898CCC;stop-opacity:0"/>
			<stop  offset="0.8175" style="stop-color:#898CCC"/>
		</linearGradient>
		<path class="st42" d="M3329.8,816.6c-24.5,8.6-45.6,24.1-72.3,45.4c-47.8,38-114,34.3-68.6,34.3c293,0,163.9-60.4,196.1-71.1
			C3451.2,803.1,3377.5,799.9,3329.8,816.6z"/>
		<linearGradient id="SVGID_30_" gradientUnits="userSpaceOnUse" x1="3246.8748" y1="946.7088" x2="3160.48" y2="547.5088">
			<stop  offset="0.2272" style="stop-color:#D7E1FF;stop-opacity:0"/>
			<stop  offset="0.6993" style="stop-color:#D7E1FF"/>
		</linearGradient>
		<path class="st43" d="M3089.6,722.2c-15.5-3.2,32.2,6.6,58.8,28.2c39.2,31.9,33.1,66.2,14.7,104.2c-51,105.4,99.3-55.2,166.3-41.9
			C3303.3,803.2,3209.7,736.9,3089.6,722.2z"/>
		<linearGradient id="SVGID_31_" gradientUnits="userSpaceOnUse" x1="3115.8955" y1="809.7634" x2="3115.8955" y2="722.6707">
			<stop  offset="0" style="stop-color:#ABB6F4"/>
			<stop  offset="0.1118" style="stop-color:#A7B1EF"/>
			<stop  offset="0.2501" style="stop-color:#9AA1E0"/>
			<stop  offset="0.3831" style="stop-color:#898CCC"/>
		</linearGradient>
		<polygon class="st44" points="3115.9,722.7 3132.4,809.8 3099.4,809.8 		"/>
		<linearGradient id="SVGID_32_" gradientUnits="userSpaceOnUse" x1="2404.7551" y1="850.9771" x2="2414.3093" y2="800.684">
			<stop  offset="0.3064" style="stop-color:#D7E1FF;stop-opacity:0"/>
			<stop  offset="0.8679" style="stop-color:#D7E1FF"/>
		</linearGradient>
		<path class="st45" d="M2458.4,808c10.7-3.9-84.6,6.1-94.5,16c-4.4,4.4,59,8.5,72.5,6.1C2449.8,827.6,2411.8,825.2,2458.4,808z"/>
		<linearGradient id="SVGID_33_" gradientUnits="userSpaceOnUse" x1="3134.8972" y1="855.114" x2="3134.8972" y2="777.8954">
			<stop  offset="0" style="stop-color:#ABB6F4"/>
			<stop  offset="0.1118" style="stop-color:#A7B1EF"/>
			<stop  offset="0.2501" style="stop-color:#9AA1E0"/>
			<stop  offset="0.3831" style="stop-color:#898CCC"/>
		</linearGradient>
		<polygon class="st46" points="3134.9,777.9 3143.5,855.1 3126.3,855.1 		"/>
		<linearGradient id="SVGID_34_" gradientUnits="userSpaceOnUse" x1="3600.5442" y1="865.1448" x2="3574.8611" y2="883.1379">
			<stop  offset="0" style="stop-color:#D7E1FF"/>
			<stop  offset="0.7322" style="stop-color:#D7E1FF;stop-opacity:0"/>
		</linearGradient>
		<path class="st47" d="M3565.2,850.9c30.6,14.7,51.7,31.3,60.2,35.9c-10.1,0.5-49.2,2.1-49.2,2.1L3565.2,850.9z"/>
		<linearGradient id="SVGID_35_" gradientUnits="userSpaceOnUse" x1="3426.1982" y1="791.6945" x2="3432.4399" y2="858.1704">
			<stop  offset="0" style="stop-color:#D7E1FF"/>
			<stop  offset="0.5465" style="stop-color:#D7E1FF;stop-opacity:0"/>
		</linearGradient>
		<path class="st48" d="M3370.5,807.4c18.2-3.1,55.2-6.4,107.7,8.1c23.2,5.9-13.6,1-21,7.2c-5.3,4.4-20,9.4-56.4-7.4
			C3385,808,3370.5,807.4,3370.5,807.4z"/>
	</g>
	<g>
		<polygon class="st0" points="3714,857.8 3698.5,765.6 3680,857.8 		"/>
		<path class="st0" d="M3680.1,815.6h7.7c21.6-2.2,38.6-22.6,38.6-47.5c0-26.4-19-47.7-42.4-47.7s-42.4,21.4-42.4,47.7
			C3641.5,793,3658.5,813.4,3680.1,815.6z"/>
		<ellipse class="st0" cx="3734" cy="743.3" rx="38.2" ry="53.5"/>
		<circle class="st0" cx="3665.2" cy="705.1" r="45.9"/>
		<circle class="st0" cx="3711.1" cy="689.8" r="30.6"/>
		<circle class="st0" cx="3726.4" cy="812.1" r="30.6"/>
		<line class="st49" x1="3695.4" y1="705.1" x2="3695.4" y2="834"/>
		<line class="st49" x1="3676.5" y1="713.8" x2="3694.9" y2="732.2"/>
		<line class="st49" x1="3722.5" y1="732.2" x2="3694.9" y2="759.8"/>
		<line class="st49" x1="3667.3" y1="759.8" x2="3694.9" y2="787.4"/>
	</g>
	<polygon class="st7" points="1387.2,526.8 1400.1,570.9 1374.3,570.9 	"/>
	<polygon class="st7" points="1367,515.8 1378,559.9 1355.9,559.9 	"/>
	<polygon class="st7" points="1344.9,504.7 1355.9,548.8 1333.9,548.8 	"/>
	<polygon class="st7" points="1311.8,493.7 1322.8,537.8 1300.8,537.8 	"/>
	<polygon class="st7" points="1300.8,758.4 1311.8,802.6 1289.7,802.6 	"/>
	<polygon class="st7" points="1333.9,780.5 1344.9,835.7 1322.8,835.7 	"/>
	<polygon class="st7" points="1322.8,758.4 1333.9,813.6 1311.8,813.6 	"/>
	<polygon class="st7" points="1256.7,725.3 1267.7,780.5 1245.6,780.5 	"/>
	<polygon class="st7" points="1234.6,736.4 1245.6,791.5 1223.6,791.5 	"/>
	<polygon class="st7" points="1344.9,791.5 1355.9,846.7 1333.9,846.7 	"/>
	<polygon class="st7" points="1367,780.5 1378,857.7 1355.9,857.7 	"/>
	<polygon class="st7" points="1411.1,813.6 1422.1,857.7 1400.1,857.7 	"/>
	<polygon class="st7" points="1433.2,824.6 1444.2,868.8 1422.1,868.8 	"/>
	<polygon class="st7" points="1212.5,471.6 1223.6,515.8 1201.5,515.8 	"/>
	<polygon class="st7" points="1179.4,493.7 1190.5,537.8 1168.4,537.8 	"/>
	<polygon class="st7" points="1196,482.7 1201.5,526.8 1190.5,526.8 	"/>
	<polygon class="st7" points="1185,471.6 1190.5,537.8 1179.4,537.8 	"/>
	<polygon class="st7" points="1521.4,548.8 1532.4,593 1510.4,593 	"/>
	<polygon class="st7" points="1532.4,537.8 1543.5,593 1521.4,593 	"/>
	<polygon class="st7" points="1256.7,460.6 1267.7,504.7 1245.6,504.7 	"/>
	<polygon class="st7" points="1328.4,504.7 1333.9,548.8 1322.8,548.8 	"/>
	<polygon class="st7" points="1240.1,460.6 1245.6,504.7 1234.6,504.7 	"/>
	<polygon class="st7" points="1251.1,449.6 1256.7,515.8 1245.6,515.8 	"/>
	<line class="st50" x1="1985.3" y1="803.2" x2="2007.4" y2="803.2"/>
	<line class="st51" x1="1907.5" y1="870" x2="1929.6" y2="870"/>
	<line class="st51" x1="1753.1" y1="901.8" x2="1775.1" y2="901.8"/>
	<line class="st51" x1="2096.3" y1="858.9" x2="2118.3" y2="858.9"/>
	<line class="st51" x1="2271.5" y1="879.8" x2="2293.6" y2="879.8"/>
	<line class="st51" x1="2205.3" y1="802.6" x2="2227.4" y2="802.6"/>
	<line class="st52" x1="1907.5" y1="825.9" x2="1951" y2="825.9"/>
	<line class="st51" x1="2381.8" y1="901.8" x2="2448" y2="901.8"/>
	<line class="st50" x1="2690.7" y1="912.9" x2="2756.9" y2="912.9"/>
	<line class="st50" x1="2304.6" y1="846.7" x2="2370.8" y2="846.7"/>
	<line class="st53" x1="1873.9" y1="790.9" x2="1910.6" y2="790.9"/>
	<line class="st53" x1="2111.6" y1="790.9" x2="2168" y2="790.9"/>
	<line class="st54" x1="2020.9" y1="847.3" x2="2077.3" y2="847.3"/>
	<line class="st53" x1="1797.8" y1="891.4" x2="1840" y2="891.4"/>
	<line class="st55" x1="2203.5" y1="890.2" x2="2259.9" y2="890.2"/>
	<line class="st56" x1="1609" y1="891.4" x2="1665.4" y2="891.4"/>
	<line class="st55" x1="2527.8" y1="891.4" x2="2570" y2="891.4"/>
	<line class="st54" x1="2768.5" y1="890.2" x2="2799.9" y2="890.2"/>
</g>
</svg>
