<?xml version="1.0" encoding="utf-8"?>
<!-- Generator: Adobe Illustrator 24.0.2, SVG Export Plug-In . SVG Version: 6.00 Build 0)  -->
<svg version="1.1" id="Layer_1" xmlns="http://www.w3.org/2000/svg" xmlns:xlink="http://www.w3.org/1999/xlink" x="0px" y="0px"
	 viewBox="0 0 2220 1079" style="enable-background:new 0 0 2220 1079;" xml:space="preserve">
<style type="text/css">
	.st0{opacity:0.5;}
	.st1{opacity:0.5;fill:#FFFFFF;enable-background:new    ;}
	.st2{fill:#FFFFFF;}
	.st3{opacity:0.7;}
</style>
<g class="st0">
	<path class="st1" d="M1170,89.5c-16.5,4-31.8,17.5-54.5,7.2c-22.7-10.3-43.2-14.5-63.8-7.2c-20.5,7.2-64.8,23.7-103.9-7.2
		c25.7-10.3,20.5-37,41.2-25.7c0-26.8,25.7-27.8,35-18.5c16.5-23.7,37.9-4.5,37.5,5.5c11.4-8,24.3,2.7,20.1,18.2
		c4-9.3,13.3-10.3,18.5-3c14.5-18.5,37-4,30.8,14.5C1143.2,69,1142.2,84.3,1170,89.5z"/>
	<path class="st2" d="M1170,89.5c-37,3-31.8,17.5-54.5,7.2c-22.7-10.3-41.2-21.6-61.8-14.5c-20.5,7.2-66.8,30.8-106,0
		c29.8-7.2,28.8-36,49.3-24.7c0-26.8,20.5-27.8,29.8-18.5c22.6-20.5,40.1,2,37,12.3c11.4-8,21.6-5.2,17.5,10.3
		c4-9.3,16.5-8.2,21.6-1c14.5-18.5,37,0,30.8,18.5C1146.3,75,1142.2,84.3,1170,89.5z"/>
</g>
<g class="st0">
	<path class="st2" d="M1799.8,51.3c-39.4-7.7-49.6,13.8-78.6,7.8c-3.3-0.7-7.2-2.8-10.1-4c-6,5.6-15.7,9.4-26.7,9.4
		c-13.6,0-25.3-5.8-30.5-14c-3.3,2.4-7.3,3.9-11.7,3.9c-8.3,0-12.7-4.7-28.6-5.7c-6.3-0.4-11.5-5.1-11.5-11.5s5.1-11.5,11.5-11.5
		c4,0,7.4,2,9.5,5c1.9-8.9,9.8-15.5,19.2-15.5c2.5,0,4.7,0.4,6.8,1.2c0.6-12.6,15.3-22.8,33.4-22.8c15.8,0,29,7.8,32.5,18.3
		c1.8-0.5,3.7-0.7,5.6-0.7c11,0,20.2,7.8,22.4,18.2c2.7-1.6,5.8-2.6,9.3-2.7C1770.2,25.9,1787.4,47.4,1799.8,51.3z"/>
	<path class="st1" d="M1824.1,34.7c0,4.4-2.7,8.7-5,11.1c-4.7,4.6-13,6-18.9,6c-3,0-22.2-10.9-71.5,6.7c-3.2,1.1-14.6-2.1-17.5-3.4
		c-6,5.6-15.7,9.4-26.7,9.4c-13.6,0-25.3-5.8-30.5-14c-3.3,2.4-7.3,3.9-11.7,3.9c-8.3,0-12.7-4.7-28.6-5.7
		c-6.3-0.4-11.5-5-11.5-11.5s3.3-12.2,9.5-13.5c3.4-0.7,7.4,0.7,10.1,3.4c5.3-21.5,25-12.7,27-10.8c0-16.9,14.5-27.4,29.3-27.4
		c15.6,0,33.1,12.2,36.7,22.5c6.1-8.2,26-9.1,30.4,5.4C1747.7,9.5,1756.9,4,1768,4c12.6,0,22.9,7,23.3,15.9c1.5-0.6,3.1-0.9,4.7-0.9
		c6.6,0,12.1,4.6,13.4,10.9c1.4-2.2,3.9-3.6,6.6-3.6C1820.5,26.4,1824.1,30.2,1824.1,34.7z"/>
</g>
<g class="st0">
	<path class="st2" d="M360.9,74c2.4,0.1,4.6,0.8,6.4,1.8c1.5-7.2,7.9-12.6,15.5-12.6c1.3,0,2.6,0.2,3.9,0.5
		c2.4-7.2,11.5-12.6,22.5-12.6c12.5,0,22.7,7,23.1,15.8c1.5-0.6,3-0.8,4.7-0.8c6.5,0,12,4.6,13.2,10.8c1.4-2.1,3.8-3.5,6.6-3.5
		c4.4,0,8,3.5,8,8c0,4.4-3.5,7.6-8,8c-11,0.7-14.1,4-19.9,4c-3,0-5.8-1-8.1-2.7c-3.6,5.7-11.7,9.7-21.1,9.7
		c-7.5,0-14.3-2.6-18.5-6.5c-2,0.9-4.7,2.3-7,2.8c-20.1,4.2-27.1-10.7-54.4-5.4C336.6,88.5,348.5,73.5,360.9,74z"/>
	<path class="st1" d="M316.7,73.9c1.9,0,3.6,1,4.6,2.5c0.9-4.3,4.7-7.5,9.3-7.5c1.1,0,2.3,0.2,3.3,0.6c0.3-6.2,7.4-11,16.2-11
		c7.6,0,14.1,3.8,15.8,8.8c3.1-10.1,16.8-9.4,21-3.7c2.5-7.1,14.6-15.6,25.4-15.6c10.3,0,20.3,7.2,20.3,18.9
		c1.4-1.4,14.9-7.5,18.7,7.5c1.8-1.8,4.7-2.8,7-2.4c4.3,0.9,6.6,5,6.6,9.3c0,4.4-3.5,7.6-8,8c-11,0.7-14.1,4-19.9,4
		c-3,0-5.8-1-8.1-2.7c-3.6,5.7-11.7,9.7-21.1,9.7c-7.5,0-14.3-2.6-18.5-6.5c-2,0.9-9.9,3.1-12.1,2.3c-34.1-12.2-47.5-4.7-49.5-4.7
		c-4,0-9.8-0.9-13.1-4.2c-1.6-1.6-3.5-4.6-3.5-7.6C311.1,76.4,313.6,73.9,316.7,73.9z"/>
</g>
<g class="st0">
	<path class="st2" d="M730.5,13.5c2.8,0.1,5.5,0.9,7.7,2.2c1.8-8.6,9.5-15.1,18.6-15.1c1.6,0,3.2,0.2,4.7,0.6
		c2.9-8.7,13.9-15.1,27-15.1c15,0,27.2,8.4,27.8,18.9c1.7-0.7,3.6-1,5.6-1c7.8,0,14.4,5.5,15.9,12.9c1.7-2.6,4.6-4.2,7.9-4.2
		c5.3,0,9.5,4.3,9.5,9.5s-4.3,9.2-9.5,9.5c-13.2,0.8-16.9,4.8-23.9,4.8c-3.6,0-7-1.2-9.7-3.2c-4.3,6.9-14.1,11.6-25.3,11.6
		c-9.1,0-17.1-3.1-22.2-7.8c-2.4,1.1-5.6,2.8-8.4,3.3c-24.1,5-32.6-12.9-65.3-6.5C701.4,30.9,715.7,12.9,730.5,13.5z"/>
	<path class="st1" d="M677.5,13.3c2.3,0,4.4,1.2,5.5,3c1.1-5.2,5.6-9,11.1-9c1.4,0,2.7,0.3,4,0.7c0.4-7.4,8.9-13.2,19.4-13.2
		c9.2,0,16.9,4.5,18.9,10.6c3.7-12.1,20.2-11.3,25.2-4.5c3-8.5,17.5-18.7,30.5-18.7c12.3,0,24.4,8.7,24.4,22.7c1.7-1.7,18-9,22.4,9
		c2.3-2.3,5.6-3.4,8.4-2.8c5.2,1,7.8,6,7.8,11.2c0,5.3-4.3,9.2-9.5,9.5c-13.2,0.8-16.9,4.8-23.9,4.8c-3.6,0-7-1.2-9.7-3.2
		c-4.3,6.9-14.1,11.6-25.3,11.6c-9.1,0-17.1-3.1-22.2-7.8c-2.4,1.1-11.9,3.7-14.5,2.8c-40.9-14.6-56.9-5.6-59.5-5.6
		c-4.8,0-11.8-1.1-15.7-5c-2-2-4.2-5.5-4.2-9.2S673.8,13.3,677.5,13.3z"/>
</g>
<g>
	<path class="st2" d="M858.4,42.8c-61.4-12-77.3,21.6-122.5,12.1c-5.1-1.1-11.3-4.2-15.7-6.3c-9.5,9-24.6,14.7-41.7,14.7
		c-21.2,0-39.5-9-47.6-21.9c-5.1,3.9-11.4,6.1-18.2,6.1c-13,0-20-7.4-44.8-9c-9.9-0.7-17.9-8-17.9-17.9s8-17.9,17.9-17.9
		c6.2,0,11.6,3.1,14.8,7.9c2.9-13.9,15.1-24.3,29.8-24.3c3.8,0,7.3,0.7,10.6,1.9c1-19.7,23.9-35.5,52.1-35.5
		c24.7,0,45.3,12.1,50.7,28.4c2.8-0.7,5.8-1.1,8.8-1.1c17.1,0,31.5,12.1,34.9,28.3c4.1-2.3,9.1-3.9,14.4-4
		C812.1,3.4,838.9,37.1,858.4,42.8z"/>
	<path class="st1" d="M896.4,16.9c0,6.9-4.1,13.5-7.9,17.2c-7.3,7.3-20.4,9.4-29.5,9.4c-4.7,0-34.7-16.8-111.6,10.5
		c-4.9,1.8-22.8-3.2-27.2-5.2c-9.5,9-24.6,14.7-41.7,14.7c-21.2,0-39.5-9-47.6-21.9c-5.1,3.9-11.4,6.1-18.2,6.1c-13,0-20-7.4-44.8-9
		c-9.9-0.7-17.9-8-17.9-17.9c0-9.9,5-19.2,14.7-21.1c5.3-1.1,11.6,1.1,15.8,5.3c8.4-33.7,38.9-20,42.1-16.8
		c0-26.4,22.6-42.6,45.7-42.6c24.4,0,51.6,19.2,57.3,35.1c9.4-12.8,40.4-14.2,47.4,8.5c3.8-11.5,18.3-19.9,35.5-19.9
		c19.6,0,35.7,11,36.4,24.8c2.3-0.9,4.8-1.3,7.4-1.3c10.3,0,18.9,7.2,20.9,16.9c2.2-3.4,6.1-5.6,10.4-5.6
		C890.6,4.2,896.4,10,896.4,16.9z"/>
</g>
<g>
	<path class="st2" d="M1881.5,96.8c-2.3,0.1-4.4,0.8-6.3,1.8c-1.5-7-7.7-12.3-15.1-12.3c-1.3,0-2.6,0.1-3.8,0.5
		c-2.4-7.1-11.3-12.3-22-12.3c-12.2,0-22.1,6.8-22.5,15.4c-1.4-0.5-3-0.8-4.6-0.8c-6.3,0-11.7,4.5-12.9,10.5
		c-1.4-2.1-3.8-3.4-6.4-3.4c-4.3,0-7.8,3.5-7.8,7.8c0,4.3,3.5,7.5,7.8,7.8c10.7,0.7,13.8,3.9,19.3,3.9c2.9,0,5.7-1,7.8-2.6
		c3.5,5.6,11.4,9.4,20.6,9.4c7.3,0,13.9-2.5,18-6.3c1.9,0.9,4.6,2.3,6.8,2.7c19.6,4.1,26.5-10.5,53-5.2
		C1905.2,110.8,1893.6,96.3,1881.5,96.8z"/>
	<path class="st1" d="M1924.6,96.6c-1.9,0-3.5,0.9-4.5,2.4c-0.9-4.2-4.6-7.3-9.1-7.3c-1.1,0-2.2,0.2-3.2,0.6
		c-0.3-6-7.2-10.8-15.8-10.8c-7.5,0-13.7,3.7-15.3,8.6c-3-9.8-16.4-9.2-20.5-3.6c-2.5-6.9-14.3-15.2-24.8-15.2
		c-10,0-19.8,7.1-19.8,18.5c-1.4-1.4-14.5-7.3-18.2,7.3c-1.9-1.9-4.6-2.7-6.8-2.3c-4.2,0.9-6.3,4.8-6.3,9.1c0,4.3,3.5,7.5,7.8,7.8
		c10.7,0.7,13.8,3.9,19.3,3.9c2.9,0,5.7-1,7.8-2.6c3.5,5.6,11.4,9.4,20.6,9.4c7.3,0,13.9-2.5,18-6.3c1.9,0.9,9.7,3,11.8,2.3
		c33.2-11.8,46.2-4.6,48.3-4.6c3.9,0,9.6-0.9,12.8-4.1c1.6-1.6,3.4-4.4,3.4-7.4C1930,99,1927.5,96.6,1924.6,96.6z"/>
</g>
<g class="st3">
	<path class="st1" d="M855.3,51.9c17.9,4.9,21.2,2.4,27.7,7.4c6.5,4.9,15.5,6.5,24.5,0c9-6.5,14.7,1.6,26.1,1.6
		c7.4,0,9-5.7,15.5-5.7s27.7,10.6,57.1,4.1c29.3-6.5,30.9-4.9,39.1-1.6c8.2,3.3,18.8-1.6,25.2-1.6c-10.6-2.4-22.4-0.3-23.6-9
		c-0.8-5.7-5.7-4.1-7.4-2.4c-1.6-5.7-10.6-22.8-30.2-13.1c-0.8-5.7-8.1-10.6-16.3-4.9c-5.7-9.8-31.8-17.1-44.8,2.4
		c-4.9-4.1-22.8-2.4-25.2,8.1c-3.3-5.7-17.9-11.4-26.9-1.6c-6.5-2.4-8.1,1.6-8.1,4.9c-3.3-1.6-13.1-0.8-15.5,5.7
		C870,52.8,857.7,52.8,855.3,51.9z"/>
	<path class="st2" d="M881.4,59.3c7.1,4,12.6,6.1,21.6-0.4c9-6.5,17.5,2,28.9,2c7.4,0,11.8-8.5,18.3-8.5s20.4,9.8,54.2,6.9
		c36.1-3.1,23.5-36.4,4.4-25.6c-18.5,10.5-20.6,6.5-27.7-3.3c-6.7-9.1-22-19.5-38.3,4.9c-4.9-4.1-17.9-4.9-20.4,5.7
		c-3.3-5.7-17.9-12.2-26.9-2.4c-6.5-2.4-9.8,2.4-9.8,5.7c-3.3-1.6-10.6-2.7-12.2,4.1C872.8,51.5,875.7,56,881.4,59.3z"/>
</g>
<g class="st0">
	<path class="st2" d="M1220.5,51.1c2.4,0.1,4.6,0.8,6.4,1.8c1.5-7.2,7.9-12.6,15.5-12.6c1.3,0,2.6,0.2,3.9,0.5
		c2.4-7.2,11.5-12.6,22.5-12.6c12.5,0,22.7,7,23.1,15.8c1.5-0.6,3-0.8,4.7-0.8c6.5,0,12,4.6,13.2,10.8c1.4-2.1,3.8-3.5,6.6-3.5
		c4.4,0,8,3.5,8,8s-3.5,7.6-8,8c-11,0.7-14.1,4-19.9,4c-3,0-5.8-1-8.1-2.7c-3.6,5.7-11.7,9.7-21.1,9.7c-7.5,0-14.3-2.6-18.5-6.5
		c-2,0.9-4.7,2.3-7,2.8c-20.1,4.2-27.1-10.7-54.4-5.4C1196.1,65.6,1208.1,50.6,1220.5,51.1z"/>
	<path class="st1" d="M1176.2,51c1.9,0,3.6,1,4.6,2.5c0.9-4.3,4.7-7.5,9.3-7.5c1.1,0,2.3,0.2,3.3,0.6c0.3-6.2,7.4-11,16.2-11
		c7.6,0,14.1,3.8,15.8,8.8c3.1-10.1,16.8-9.4,21-3.7c2.5-7.1,14.6-15.6,25.4-15.6c10.3,0,20.3,7.2,20.3,18.9
		c1.4-1.4,14.9-7.5,18.7,7.5c1.8-1.8,4.7-2.8,7-2.4c4.3,0.9,6.6,5,6.6,9.3c0,4.4-3.5,7.6-8,8c-11,0.7-14.1,4-19.9,4
		c-3,0-5.8-1-8.1-2.7c-3.6,5.7-11.7,9.7-21.1,9.7c-7.5,0-14.3-2.6-18.5-6.5c-2,0.9-9.9,3.1-12.1,2.3c-34.1-12.2-47.5-4.7-49.5-4.7
		c-4,0-9.8-0.9-13.1-4.2c-1.6-1.6-3.5-4.6-3.5-7.6C1170.7,53.5,1173.2,51,1176.2,51z"/>
</g>
<g class="st0">
	<path class="st2" d="M1354.5,58.8c3.7,0.1,7.1,1.2,10,2.8c2.4-11.2,12.3-19.6,24.2-19.6c2.1,0,4.1,0.3,6.1,0.7
		c3.7-11.3,18-19.7,35.1-19.7c19.5,0,35.4,10.9,36.1,24.6c2.3-0.9,4.7-1.3,7.3-1.3c10.2,0,18.7,7.2,20.7,16.8
		c2.2-3.3,6-5.5,10.3-5.5c6.9,0,12.4,5.5,12.4,12.4s-5.5,11.9-12.4,12.4c-17.1,1.1-22,6.2-31,6.2c-4.7,0-9.1-1.5-12.6-4.2
		c-5.6,8.9-18.3,15.1-32.9,15.1c-11.8,0-22.3-4-28.9-10.2c-3.1,1.4-7.3,3.6-10.9,4.3c-31.3,6.5-42.3-16.7-84.9-8.4
		C1316.7,81.4,1335.2,58.1,1354.5,58.8z"/>
	<path class="st1" d="M1285.6,58.6c3,0,5.7,1.5,7.2,3.9c1.4-6.7,7.3-11.7,14.5-11.7c1.8,0,3.5,0.3,5.1,0.9
		c0.5-9.6,11.6-17.2,25.2-17.2c11.9,0,22,5.9,24.6,13.8c4.8-15.7,26.3-14.7,32.8-5.9c3.9-11.1,22.8-24.3,39.7-24.3
		c16,0,31.7,11.3,31.7,29.5c2.2-2.2,23.3-11.7,29.1,11.7c2.9-2.9,7.3-4.4,10.9-3.7c6.7,1.3,10.2,7.7,10.2,14.6
		c0,6.9-5.5,11.9-12.4,12.4c-17.1,1.1-22,6.2-31,6.2c-4.7,0-9.1-1.5-12.6-4.2c-5.6,8.9-18.3,15.1-32.9,15.1
		c-11.8,0-22.3-4-28.9-10.2c-3.1,1.4-15.5,4.9-18.9,3.6c-53.2-18.9-74-7.3-77.3-7.3c-6.3,0-15.3-1.5-20.4-6.5
		c-2.6-2.6-5.5-7.1-5.5-11.9S1280.8,58.6,1285.6,58.6z"/>
</g>
<g class="st0">
	<path class="st2" d="M730.8,56c3.7,0.1,7.1,1.2,10,2.8c2.4-11.2,12.3-19.6,24.2-19.6c2.1,0,4.1,0.3,6.1,0.7
		c3.7-11.3,18-19.7,35.1-19.7c19.5,0,35.4,10.9,36.1,24.6c2.3-0.9,4.7-1.3,7.3-1.3c10.2,0,18.7,7.2,20.7,16.8
		c2.2-3.3,6-5.5,10.3-5.5c6.9,0,12.4,5.5,12.4,12.4s-5.5,11.9-12.4,12.4c-17.1,1.1-22,6.2-31,6.2c-4.7,0-9.1-1.5-12.6-4.2
		c-5.6,8.9-18.3,15.1-32.9,15.1c-11.8,0-22.3-4-28.9-10.2c-3.1,1.4-7.3,3.6-10.9,4.3c-31.3,6.5-42.3-16.7-84.9-8.4
		C693,78.6,711.5,55.3,730.8,56z"/>
	<path class="st1" d="M661.9,55.8c3,0,5.7,1.5,7.2,3.9c1.4-6.7,7.3-11.7,14.5-11.7c1.8,0,3.5,0.3,5.1,0.9
		c0.5-9.6,11.6-17.2,25.2-17.2c11.9,0,22,5.9,24.6,13.8c4.8-15.7,26.3-14.7,32.8-5.9c3.9-11.1,22.8-24.3,39.7-24.3
		c16,0,31.7,11.3,31.7,29.5c2.2-2.2,23.3-11.7,29.1,11.7c2.9-2.9,7.3-4.4,10.9-3.7c6.7,1.3,10.2,7.7,10.2,14.6
		c0,6.9-5.5,11.9-12.4,12.4c-17.1,1.1-22,6.2-31,6.2c-4.7,0-9.1-1.5-12.6-4.2c-5.6,8.9-18.3,15.1-32.9,15.1
		c-11.8,0-22.3-4-28.9-10.2c-3.1,1.4-15.5,4.9-18.9,3.6c-53.2-18.9-74-7.3-77.3-7.3c-6.3,0-15.3-1.5-20.4-6.5
		c-2.6-2.6-5.5-7.1-5.5-11.9S657.1,55.8,661.9,55.8z"/>
</g>
<g class="st0">
	<path class="st2" d="M522.6,16.7c5.1,0.2,10,1.7,14,3.9c3.4-15.7,17.3-27.5,34-27.5c2.9,0,5.8,0.4,8.5,1
		c5.2-15.8,25.3-27.6,49.3-27.6c27.4,0,49.7,15.3,50.6,34.5c3.2-1.2,6.6-1.9,10.3-1.9c14.3,0,26.2,10.1,29,23.6
		c3.1-4.7,8.4-7.7,14.4-7.7c9.6,0,17.4,7.8,17.4,17.4s-7.8,16.8-17.4,17.4c-24.1,1.5-30.9,8.7-43.5,8.7c-6.6,0-12.7-2.2-17.7-5.9
		C663.7,65.3,645.9,74,625.3,74c-16.6,0-31.3-5.6-40.5-14.3c-4.3,2-10.3,5.1-15.3,6.1c-44,9.2-59.4-23.5-119.1-11.8
		C469.4,48.5,495.4,15.7,522.6,16.7z"/>
	<path class="st1" d="M425.8,16.5c4.2,0,8,2.2,10.1,5.4c2-9.5,10.3-16.5,20.3-16.5c2.5,0,5,0.5,7.2,1.3
		c0.7-13.5,16.3-24.1,35.4-24.1c16.8,0,30.9,8.2,34.5,19.4c6.7-22,36.9-20.7,46-8.2c5.5-15.5,32-34.2,55.7-34.2
		c22.5,0,44.5,15.8,44.5,41.5c3.1-3.1,32.8-16.4,40.9,16.4c4.1-4.1,10.2-6.2,15.3-5.1c9.5,1.9,14.3,10.9,14.3,20.5
		c0,9.6-7.8,16.8-17.4,17.4c-24.1,1.5-30.9,8.7-43.5,8.7c-6.6,0-12.7-2.2-17.7-5.9c-7.9,12.5-25.6,21.2-46.2,21.2
		c-16.6,0-31.3-5.6-40.5-14.3c-4.3,2-21.7,6.8-26.5,5.1c-74.7-26.6-103.9-10.2-108.5-10.2c-8.8,0-21.5-2.1-28.6-9.2
		c-3.6-3.6-7.7-10-7.7-16.8S419.1,16.5,425.8,16.5z"/>
</g>
<g>
	<path class="st2" d="M918.6-0.1c5.1,0.2,10,1.7,14,3.9c3.4-15.7,17.3-27.5,34-27.5c2.9,0,5.8,0.4,8.5,1
		c5.2-15.8,25.3-27.6,49.3-27.6c27.4,0,49.7,15.3,50.6,34.5c3.2-1.2,6.6-1.9,10.3-1.9c14.3,0,26.2,10.1,29,23.6
		c3.1-4.7,8.4-7.7,14.4-7.7c9.6,0,17.4,7.8,17.4,17.4s-7.8,16.8-17.4,17.4c-24.1,1.5-30.9,8.7-43.5,8.7c-6.6,0-12.7-2.2-17.7-5.9
		c-7.9,12.5-25.6,21.2-46.2,21.2c-16.6,0-31.3-5.6-40.5-14.3c-4.3,2-10.3,5.1-15.3,6.1c-44,9.2-59.4-23.5-119.1-11.8
		C865.4,31.6,891.4-1.2,918.6-0.1z"/>
	<path class="st1" d="M821.8-0.4c4.2,0,8,2.2,10.1,5.4c2-9.5,10.3-16.5,20.3-16.5c2.5,0,5,0.5,7.2,1.3c0.7-13.5,16.3-24.1,35.4-24.1
		c16.8,0,30.9,8.2,34.5,19.4c6.7-22,36.9-20.7,46-8.2c5.5-15.5,32-34.2,55.7-34.2c22.5,0,44.5,15.8,44.5,41.5
		c3.1-3.1,32.8-16.4,40.9,16.4c4.1-4.1,10.2-6.2,15.3-5.1c9.5,1.9,14.3,10.9,14.3,20.5c0,9.6-7.8,16.8-17.4,17.4
		c-24.1,1.5-30.9,8.7-43.5,8.7c-6.6,0-12.7-2.2-17.7-5.9c-7.9,12.5-25.6,21.2-46.2,21.2c-16.6,0-31.3-5.6-40.5-14.3
		c-4.3,2-21.7,6.8-26.5,5.1c-74.7-26.6-103.9-10.2-108.5-10.2c-8.8,0-21.5-2.1-28.6-9.2c-3.6-3.6-7.7-10-7.7-16.8
		S815.1-0.4,821.8-0.4z"/>
</g>
<g>
	<path class="st2" d="M1105.4-0.1c5.1,0.2,10,1.7,14,3.9c3.4-15.7,17.3-27.5,34-27.5c2.9,0,5.8,0.4,8.5,1
		c5.2-15.8,25.3-27.6,49.3-27.6c27.4,0,49.7,15.3,50.6,34.5c3.2-1.2,6.6-1.9,10.3-1.9c14.3,0,26.2,10.1,29,23.6
		c3.1-4.7,8.4-7.7,14.4-7.7c9.6,0,17.4,7.8,17.4,17.4s-7.8,16.8-17.4,17.4c-24.1,1.5-30.9,8.7-43.5,8.7c-6.6,0-12.7-2.2-17.7-5.9
		c-7.9,12.5-25.6,21.2-46.2,21.2c-16.6,0-31.3-5.6-40.5-14.3c-4.3,2-10.3,5.1-15.3,6.1c-44,9.2-59.4-23.5-119.1-11.8
		C1052.3,31.6,1078.3-1.2,1105.4-0.1z"/>
	<path class="st1" d="M1008.6-0.4c4.2,0,8,2.2,10.1,5.4c2-9.5,10.3-16.5,20.3-16.5c2.5,0,5,0.5,7.2,1.3
		c0.7-13.5,16.3-24.1,35.4-24.1c16.8,0,30.9,8.2,34.5,19.4c6.7-22,36.9-20.7,46-8.2c5.5-15.5,32-34.2,55.7-34.2
		c22.5,0,44.5,15.8,44.5,41.5c3.1-3.1,32.8-16.4,40.9,16.4c4.1-4.1,10.2-6.2,15.3-5.1c9.5,1.9,14.3,10.9,14.3,20.5
		c0,9.6-7.8,16.8-17.4,17.4c-24.1,1.5-30.9,8.7-43.5,8.7c-6.6,0-12.7-2.2-17.7-5.9c-7.9,12.5-25.6,21.2-46.2,21.2
		c-16.6,0-31.3-5.6-40.5-14.3c-4.3,2-21.7,6.8-26.5,5.1c-74.7-26.6-103.9-10.2-108.5-10.2c-8.8,0-21.5-2.1-28.6-9.2
		c-3.6-3.6-7.7-10-7.7-16.8S1001.9-0.4,1008.6-0.4z"/>
</g>
<g>
	<path class="st2" d="M1334.7-5.2c5.1,0.2,10,1.7,14,3.9c3.4-15.7,17.3-27.5,34-27.5c2.9,0,5.8,0.4,8.5,1
		c5.2-15.8,25.3-27.6,49.3-27.6c27.4,0,49.7,15.3,50.6,34.5c3.2-1.2,6.6-1.9,10.3-1.9c14.3,0,26.2,10.1,29,23.6
		c3.1-4.7,8.4-7.7,14.4-7.7c9.6,0,17.4,7.8,17.4,17.4s-7.8,16.8-17.4,17.4c-24.1,1.5-30.9,8.7-43.5,8.7c-6.6,0-12.7-2.2-17.7-5.9
		c-7.9,12.5-25.6,21.2-46.2,21.2c-16.6,0-31.3-5.6-40.5-14.3c-4.3,2-10.3,5.1-15.3,6.1c-44,9.2-59.4-23.5-119.1-11.8
		C1281.6,26.5,1307.6-6.2,1334.7-5.2z"/>
	<path class="st1" d="M1238-5.5c4.2,0,8,2.2,10.1,5.4c2-9.5,10.3-16.5,20.3-16.5c2.5,0,5,0.5,7.2,1.3c0.7-13.5,16.3-24.1,35.4-24.1
		c16.8,0,30.9,8.2,34.5,19.4c6.7-22,36.9-20.7,46-8.2c5.5-15.5,32-34.2,55.7-34.2c22.5,0,44.5,15.8,44.5,41.5
		c3.1-3.1,32.8-16.4,40.9,16.4c4.1-4.1,10.2-6.2,15.3-5.1c9.5,1.9,14.3,10.9,14.3,20.5c0,9.6-7.8,16.8-17.4,17.4
		c-24.1,1.5-30.9,8.7-43.5,8.7c-6.6,0-12.7-2.2-17.7-5.9c-7.9,12.5-25.6,21.2-46.2,21.2c-16.6,0-31.3-5.6-40.5-14.3
		c-4.3,2-21.7,6.8-26.5,5.1c-74.7-26.6-103.9-10.2-108.5-10.2c-8.8,0-21.5-2.1-28.6-9.2c-3.6-3.6-7.7-10-7.7-16.8
		S1231.2-5.5,1238-5.5z"/>
</g>
<g>
	<path class="st2" d="M1356.5-8.6c7.6,0.3,14.8,2.5,20.8,5.8c5-23.3,25.6-40.7,50.3-40.7c4.3,0,8.6,0.6,12.6,1.5
		c7.8-23.4,37.4-40.8,73-40.8c40.6,0,73.5,22.7,74.9,51.1c4.7-1.8,9.8-2.8,15.2-2.8c21.2,0,38.8,15,42.9,34.9
		c4.6-6.9,12.5-11.4,21.3-11.4c14.3,0,25.8,11.5,25.8,25.8s-11.5,24.8-25.8,25.8c-35.6,2.2-45.7,12.9-64.4,12.9
		c-9.8,0-18.8-3.2-26.2-8.7c-11.6,18.6-37.9,31.4-68.4,31.4c-24.5,0-46.2-8.3-60-21.2c-6.4,2.9-15.2,7.5-22.6,9
		c-65.1,13.6-87.9-34.8-176.3-17.4C1277.8,38.4,1316.3-10.1,1356.5-8.6z"/>
	<path class="st1" d="M1213.3-9c6.2,0,11.8,3.2,15,8c2.9-14,15.2-24.4,30-24.4c3.7,0,7.3,0.7,10.7,1.9c1-19.9,24.1-35.7,52.3-35.7
		c24.8,0,45.7,12.2,51.1,28.7c10-32.5,54.6-30.6,68.1-12.2c8.2-23,47.4-50.5,82.4-50.5c33.2,0,65.8,23.4,65.8,61.3
		c4.6-4.6,48.5-24.2,60.5,24.2c6.1-6.1,15.1-9.1,22.7-7.6c14,2.8,21.2,16.1,21.2,30.3c0,14.3-11.5,24.8-25.8,25.8
		c-35.6,2.2-45.7,12.9-64.4,12.9c-9.8,0-18.8-3.2-26.2-8.7c-11.6,18.6-37.9,31.4-68.4,31.4c-24.5,0-46.2-8.3-60-21.2
		c-6.4,2.9-32.1,10.1-39.2,7.5c-110.5-39.3-153.7-15.1-160.5-15.1c-13,0-31.8-3-42.4-13.6c-5.4-5.4-11.4-14.8-11.4-24.8
		S1203.3-9,1213.3-9z"/>
</g>
<g>
	<path class="st1" d="M1409.4,49.7c-15.2,4.2-18,2.1-23.6,6.3c-5.5,4.2-13.2,5.5-20.8,0c-7.6-5.5-12.5,1.4-22.2,1.4
		c-6.3,0-7.6-4.9-13.2-4.9c-5.5,0-23.6,9-48.5,3.5c-25-5.5-26.4-4.2-33.3-1.4c-6.9,2.8-16-1.4-21.5-1.4c9-2.1,19-0.3,20.1-7.6
		c0.7-4.9,4.9-3.5,6.3-2.1c1.4-4.9,9-19.4,25.7-11.1c0.7-4.9,6.9-9,13.9-4.2c4.9-8.3,27-14.6,38.1,2.1c4.2-3.5,19.4-2.1,21.5,6.9
		c2.8-4.9,15.2-9.7,22.9-1.4c5.5-2.1,6.9,1.4,6.9,4.2c2.8-1.4,11.1-0.7,13.2,4.9C1396.9,50.4,1407.4,50.4,1409.4,49.7z"/>
	<path class="st2" d="M1387.3,55.9c-6,3.4-10.8,5.2-18.4-0.4c-7.6-5.5-14.9,1.7-24.6,1.7c-6.3,0-10.1-7.3-15.6-7.3
		c-5.5,0-17.3,8.3-46.1,5.9c-30.8-2.6-20-31-3.8-21.9c15.8,8.9,17.5,5.5,23.6-2.8c5.7-7.7,18.7-16.6,32.6,4.2
		c4.2-3.5,15.2-4.2,17.3,4.9c2.8-4.9,15.2-10.4,22.9-2.1c5.5-2.1,8.3,2.1,8.3,4.9c2.8-1.4,9-2.3,10.4,3.5
		C1394.5,49.4,1392.1,53.2,1387.3,55.9z"/>
</g>
</svg>
