<?xml version="1.0" encoding="utf-8"?>
<!-- Generator: Adobe Illustrator 24.0.2, SVG Export Plug-In . SVG Version: 6.00 Build 0)  -->
<svg version="1.1" id="Layer_4" xmlns="http://www.w3.org/2000/svg" xmlns:xlink="http://www.w3.org/1999/xlink" x="0px" y="0px"
	 viewBox="0 0 3969 485.6" style="enable-background:new 0 0 3969 485.6;" xml:space="preserve">
<style type="text/css">
	.st0{fill:#FFFFFF;}
	.st1{fill:none;stroke:#A4BFE0;stroke-miterlimit:10;}
</style>
<g>
	<g>
		<path class="st0" d="M512.9,392c0,1.2,1,2.1,2.1,2.1s2.1-1,2.1-2.1s-1-2.1-2.1-2.1S512.9,390.9,512.9,392z"/>
		<circle class="st0" cx="397.2" cy="354.8" r="3.6"/>
		<path class="st0" d="M3969.1,145.3c-3.6,5.2-6.3,11-8,17.2l-3.7,1.8c-8.9-6.1-19.6-9.7-31.2-9.7c-13.8,0-26.4,5.1-36,13.4
			c-6.1-1.6-12.5-2.4-19.1-2.4c-42.6,0-77.2,34.6-77.2,77.2l-17.3,60.6c-34.4-14-76.9-23.1-129.8-23.4c0-2-0.4-4.3-1.1-6.8
			c-0.9,1-1.9,2.4-2.9,4.1c-0.2-4.1-1.5-8.3-4.1-12.4c-1.2,3.6-2.4,9.2-2.5,15.2c-0.3,0-0.7,0-1,0c-1.5-2.1-3.7-3.4-6.7-3.6
			c0.1,1.1,0.4,2.4,0.7,3.8c-36.1,1.1-76.8,6-122.7,16c1.1-3.2,0.9-7-1.1-11.6c-1.5,1-3.1,2.5-4.6,4.3c-0.4-4.3-2.4-8.6-6.7-12.9
			c-1.3,2.6-2.6,6.1-3.3,10c0-0.1,0-0.1-0.1-0.2c-1.5,1-3.1,2.5-4.6,4.2l0,0c-0.4-4.3-2.4-8.6-6.7-12.9c-2.1,4.1-4.1,10.7-4.1,17.5
			c-2.5-3.2-6.3-5.2-12.3-5.5c0.8,4.4,3.4,10.9,8.3,15.4c-36.4,9.4-75.9,21.8-118.6,37.5c-8.3,3.1-16,6-23.4,9
			c-3-3-7.1-4.8-11.7-4.8c-3.2,0-6.2,0.9-8.8,2.6c1.9-4,2.9-8.8,2.9-14c0-14.2-8.2-25.8-18.3-25.8c-9.3,0-16.9,9.7-18.1,22.2
			c-1.1-0.6-2.4-0.9-3.7-0.9c-5.1,0-9.3,5.1-9.3,11.4c0,0.3,0,0.5,0,0.8c-1.3-0.3-2.6-0.5-4-0.5c-8.7,0-15.7,7-15.7,15.7
			s7,15.7,15.7,15.7c1,0,2-0.1,2.9-0.3c-1.6,1.9-2.6,4.4-2.6,7.2c0,0.1,0,0.3,0,0.4c-33.8,14.3-66.6,26.7-116.5,37.7
			c1.4-3.4,1.3-7.4-0.8-12.4c-1.5,1-3.1,2.5-4.6,4.3c-0.4-4.3-2.4-8.6-6.7-12.9c-2.1,4.1-4.1,10.7-4.1,17.5
			c-1.1-1.5-2.6-2.7-4.4-3.6c-0.7-0.9-1.6-1.9-2.5-2.8c-0.3,0.5-0.5,1.1-0.8,1.6c-1.4-0.3-2.9-0.6-4.6-0.6c0.4,2.1,1.2,4.6,2.4,7.2
			c-0.6,2.3-1,4.8-1.1,7.4c-0.5,0.1-1,0.2-1.5,0.3c-1.9-1.8-4.5-3-8-3.5c-0.2-0.8-0.5-1.6-0.9-2.5c-1.5,1-3.1,2.5-4.6,4.3
			c-0.1-1.1-0.3-2.2-0.6-3.3c0.2,0,0.3,0.1,0.5,0.1c1.1,0,2.1-0.9,2.1-2s-0.9-2.1-2-2.1c-0.7,0-1.3,0.3-1.7,0.8l-0.1-0.3
			c-0.1,0-0.2,0-0.4,0c-0.5-0.9-1-1.8-1.7-2.7c1.8-1.4,4-2.6,6.4-3.8c7.9,3.3,11.5,1.5,18.5-6.7c-4.3-1.3-13-2.7-18.2,5.9l-0.2,0.1
			c-1.6,0.7-3.1,1.5-4.5,2.3c0.1-0.2,0.2-0.4,0.2-0.6c0.1-0.3,0.2-0.9,0-1.3c0.1,0,0.2,0,0.3,0c1,0,1.8-0.8,1.9-1.8
			c0-1-0.8-1.8-1.8-1.9c-1,0-1.8,0.8-1.9,1.8c0,0.8,0.5,1.6,1.3,1.8l-0.4,0.2c0.1,0.1,0.1,0.4-0.1,0.9c-0.2,0.7-0.7,1.5-1.4,1.9l0,0
			c-0.3,0.2-0.5,0.4-0.8,0.6c-0.7-0.9-1.5-1.8-2.4-2.8c-1.1,2.3-2.3,5.2-3,8.6c-0.8,1.3-1.4,2.6-1.8,4c0-1.4,0-2.7,0-4.1
			c1-1,1.7-2.1,2.2-2.9c-0.7-0.1-1.4-0.1-2-0.1c0.5-5.7,1.5-10.9,3-15.3h0.1c0.9-2,4-1.9,5.8-1.7c0.3,0,0.5,0,0.7,0v-0.3
			c0,1.7,1.3,3.2,3,3.2s3.2-1.3,3.2-3s-1.3-3.2-3-3.2s-3.2,1.3-3.2,3v-0.3c-0.2,0-0.4,0-0.7,0c-1.5-0.1-4-0.2-5.5,1
			c0.9-2.6,1.8-4.9,2.9-7c7.6,4,11.3,2.5,19-5.2c-4.2-1.6-12.6-3.8-18.5,4.3c1.3-2.6,2.7-5,4-6.9l0,0c0-0.1,0.1-0.2,0.1-0.2
			c1.6-2.5,3.1-4.4,4.2-5.8c0.5-0.7,0.9-1.2,1.2-1.6c7.8-2.7,9.2-6.5,9-17.2c-4.2,1.9-11.8,6.7-9.6,16.9c-0.3,0.4-0.7,0.9-1.1,1.5
			c-0.9,1.1-2,2.5-3.2,4.3c0.2-1.6-0.1-3-0.1-3.3l-0.3,0.1c0.5-0.4,0.8-0.9,0.8-1.6c0-1.1-0.9-2.1-2-2.1s-2.1,0.9-2.1,2
			s0.9,2.1,2,2.1c0.4,0,0.7-0.1,1-0.3c0.1,0.6,0.5,2.8-0.4,4.7c-2.5,3.8-5.3,8.8-7.4,15c0.9-6.6,0.1-11.2-0.6-15
			c-0.3-1.5-0.5-2.8-0.6-4.1c4.3-7,3.1-10.8-3.7-18.9c-2,4.1-5.1,12.7,3.2,19.3c0.1,1.2,0.3,2.5,0.6,3.8c0.6,3.3,1.3,7.1,0.9,12.3
			c-0.5-2.6-1.7-4.9-3.6-6.9l0,0l0,0c-0.9-0.9-2-1.7-3.2-2.4c-1.2-8.2-4.6-10.3-15.1-12.2c1.1,4.5,4.3,12.9,14.8,12.7
			c0.6,0.3,1.1,0.7,1.6,1.1c-1.5-0.4-3.1-0.1-4.4,0.3c-0.2-0.9-1-1.6-2-1.7c-1.1,0-2.1,0.9-2.1,2s0.9,2.1,2,2.1s2-0.8,2.1-1.9
			c1.7-0.5,4-0.9,5.9,0.4c2.6,2.6,3.8,5.9,3.6,9.8c-0.2,1.2-0.4,2.5-0.8,3.9h0.1c-1,3.7-1.7,7.9-2.1,12.4c-0.4,0-0.7,0-1,0
			c-0.7-2-1.5-3.7-2.4-5.3c-0.3-0.8-0.5-2.3-0.6-3.6c-0.1-1-0.2-2-0.4-2.6c0.9-0.2,1.6-1,1.7-2c0-1.1-0.9-2.1-2-2.1s-2.1,0.9-2.1,2
			s0.8,2,1.9,2.1c0.2,0.6,0.3,1.6,0.4,2.7c0.1,0.7,0.2,1.4,0.3,2c-0.3-0.5-0.6-0.9-1-1.3c0.1-0.3,0.2-0.5,0.2-0.7
			c-0.3,0-0.5,0.1-0.7,0.1c-2.4-2.9-5.2-5-7.9-6.5c-0.2-0.5-0.4-1-0.6-1.4c-0.2,0.3-0.4,0.5-0.7,0.8c-0.3-0.1-0.5-0.3-0.8-0.4
			c-3.1-8.1-6.8-9.3-17.7-8.7c2.1,4,7,11.3,16.9,9c0.4,0.2,0.8,0.4,1.1,0.6c-1.3,1.6-2.1,2.9-2.4,4.2c-1.3,0.1-2.4,1.1-2.7,2.3
			c-0.1-0.1-0.3-0.1-0.5-0.1c-0.6,0-1.1,0.5-1.1,1.1c0,0.4,0.2,0.7,0.5,0.9l-0.3-0.1c-0.1,0.2-0.2,0.7-0.2,1.3c-0.5-0.8-1-1.4-1.4-2
			c-0.3-0.4-0.5-0.7-0.6-0.9c1.2-5.4-2.8-8.1-5-9.2c-0.3,5.7,0.4,7.8,4.4,9.4c0.1,0.3,0.4,0.6,0.7,1.1c0.6,0.8,1.4,1.9,2.2,3.3v0.1
			l0,0c0.6,0.9,1.2,2,1.8,3.2c-3.1-3.8-7.4-2.8-9.6-2c4,4.2,6,5.2,10.1,3.2c0.5,1.1,0.9,2.2,1.3,3.5c-0.8-0.5-2-0.4-2.7-0.4
			c-0.1,0-0.3,0-0.4,0v0.3c0-0.9-0.8-1.7-1.7-1.7s-1.7,0.8-1.7,1.7c0,0.7,0.5,1.3,1.1,1.6c-4.2-0.6-8.3-1.2-12.3-1.8
			c0.4-1.7,1.3-4.7,2.7-6.7c-1.2,0.8-2.1,2.1-2.8,3.4c0.1-2.5-0.3-5.3-0.6-5.9c0.1,1-0.5,3.9-0.9,5.9c-0.6-2.2-1.5-4.1-2.6-5.5
			c1.3,2.4,1.4,6.3,1.4,8.4c-1.7-0.2-3.3-0.5-4.9-0.7c0.5-1.4,1.4-3.1,3.1-4.9c-2.1,0.8-3.5,2.2-4.3,3.5c0.6-2.2,1.7-5,3.4-7.7
			c-2.7,2.2-4.4,5.2-5.4,7.6c0.7-3.7,2.2-9.4,5.4-13.8c-2,1.7-5.3,6-7.1,11.4c0-3.2,0.4-7.2,2-11.4c-2.1,2.8-3.1,5.2-3.7,7.8
			c-1.8-3.6-4.1-6.5-5.6-7.7c2.7,3.7,4.2,8.4,5,12c0,0.2,0,0.4,0,0.6c-0.9-2.1-2.4-4.4-4.9-6.4c1.7,2.6,2.8,5.5,3.4,7.7
			c-102.1-15.7-169.2-32.1-212.5-29.9c-53.7,2.8-84.6,17.2-132.4,28c-0.1-1.8-0.6-3.8-1.5-6c-1.3,0.9-2.8,2.3-4.2,3.8
			c-0.3-3.9-2.1-7.7-6-11.6c-1.6,3.1-3.1,7.8-3.6,12.9c-0.2-1.6-0.6-3.3-1.4-5.1c-1.3,0.9-2.8,2.3-4.2,3.8c-0.3-3.9-2.1-7.7-6-11.6
			c-1.9,3.7-3.7,9.6-3.7,15.8c-2.2-2.9-5.7-4.7-11.1-4.9c0.5,2.8,1.8,6.5,4.1,9.8c-21.4,3-46.5,5.1-77.1,5.5c-0.6-3.3-2.6-6-7.3-7.6
			c-0.1,1.2-0.1,2.6,0.1,4.1c-2.3-1.7-5.2-2.6-9.2-2.3c0.7,1.7,1.8,3.8,3.3,5.8c-6.8,0-13.8-0.2-21.1-0.4c0-0.8,0.2-1.6,0.4-2.4
			c0.6-1.2,2-1.6,3-1.9c0.4-0.1,0.7-0.2,0.9-0.3c0,0.2,0,0.5,0.1,0.7c0.4,0.8,1.4,1.2,2.2,0.8c0.8-0.4,1.2-1.4,0.8-2.2
			c-0.4-0.8-1.4-1.2-2.2-0.8c-0.5,0.2-0.8,0.6-0.9,1.1l-0.2-0.3c-0.1,0.1-0.5,0.2-0.9,0.3c-0.7,0.2-1.7,0.5-2.5,1.1
			c0.8-2.4,2.3-4.9,4.4-7.5c6.7-0.4,8.6-2.9,10.7-11.2c-3.5,0.6-10.1,2.5-10.9,10.4l-0.2,0.2c-0.9,1-1.6,2.1-2.3,3.1
			c0-0.1,0-0.2,0-0.3c0-0.3-0.2-0.7-0.4-0.9c0.1,0,0.1,0,0.2,0c0.7-0.3,1-1.2,0.7-1.9c-0.3-0.7-1.2-1-1.9-0.7s-1,1.2-0.7,1.9
			c0.3,0.6,0.9,0.9,1.6,0.8l-0.2,0.4c0.1,0,0.2,0.3,0.3,0.7c0.1,0.5,0,1.3-0.3,1.8l0,0c-1.4,2.5-2.1,4.9-2.3,7.3c-0.4,0-0.7,0-1.1,0
			c-2.2-5-3.5-9.8-4.1-14.1h0.1c-0.1-1.7,2.2-2.6,3.5-3.2c0.2-0.1,0.4-0.2,0.5-0.2l-0.1-0.3c0.6,1.2,2,1.8,3.3,1.2
			c1.2-0.6,1.8-2,1.2-3.3c-0.6-1.2-2-1.8-3.3-1.2c-1.2,0.6-1.8,2-1.2,3.3l-0.1-0.3c-0.1,0.1-0.3,0.1-0.5,0.2
			c-1.1,0.4-2.8,1.2-3.5,2.4c-0.2-2-0.4-3.9-0.4-5.7c6.7,0.2,8.8-2.2,11.6-10.3c-3.5,0.3-10.1,1.6-11.6,9.1c0-2.2,0.2-4.2,0.4-5.9
			l0,0c0-0.1,0-0.1,0-0.2c0.3-2.3,0.7-4.2,1-5.6c0.1-0.7,0.3-1.2,0.3-1.7c4.5-4.6,4.2-7.8,0.4-15.3c-2.3,2.8-6,8.8-1,15.3
			c-0.1,0.4-0.2,0.9-0.3,1.5c-0.2,1-0.5,2.3-0.7,3.9c-0.4-1.1-1-1.9-1.2-2.1l-0.2,0.2c0.2-0.4,0.3-1,0-1.4c-0.4-0.8-1.4-1.2-2.2-0.8
			c-0.8,0.4-1.2,1.4-0.8,2.2c0.4,0.8,1.4,1.2,2.2,0.8c0.2-0.1,0.5-0.3,0.6-0.5c0.3,0.4,1.3,1.8,1.3,3.4c-0.4,3.4-0.7,7.7-0.1,12.7
			c-1.6-4.7-3.7-7.5-5.5-9.9c-0.7-1-1.4-1.9-1.9-2.7c0.6-6.4-1.6-8.6-9.2-12.1c0,3.6,0.8,10.7,8.9,12.6c0.5,0.8,1.1,1.7,1.8,2.6
			c1.5,2,3.3,4.4,4.8,8.1c-1.2-1.6-2.8-2.7-4.8-3.4l0,0l0,0c-1-0.3-2-0.5-3.2-0.6c-3.7-5.4-6.8-5.7-14.9-3.4c2.3,2.8,7.5,7.7,14.8,4
			c0.5,0,1,0.1,1.4,0.2c-1.1,0.3-2.1,1-2.9,1.7c-0.5-0.6-1.2-0.8-1.9-0.5c-0.8,0.4-1.2,1.4-0.8,2.2c0.4,0.8,1.4,1.2,2.2,0.8
			c0.8-0.3,1.1-1.2,0.9-2c1-0.9,2.6-2,4.3-1.8c2.8,1,4.8,2.9,6,5.9c0.3,0.9,0.5,1.8,0.7,2.8h0.1c0.7,3.6,1.8,7.4,3.6,11.4
			c-1.6-1.9-3.2-3.3-5-4.5c-0.5-0.4-1.1-1.4-1.7-2.3c-0.5-0.7-0.9-1.3-1.2-1.7c0.6-0.5,0.8-1.2,0.4-1.9c-0.4-0.8-1.4-1.2-2.2-0.8
			c-0.8,0.4-1.2,1.4-0.8,2.2c0.3,0.8,1.2,1.1,2,0.9c0.3,0.4,0.8,1.1,1.2,1.8c0.3,0.4,0.5,0.8,0.8,1.1c-3.9-2.1-7.9-2.7-11.3-2.7
			c-4.9-4.6-8.1-4.2-15.5,0c2.9,2.1,8.9,5.6,15.1,0.6c3-0.1,6.7,0.4,10.3,2.1c-2.3,0-4.5,1.4-5.6,2.1c-0.2,0.2-0.5,0.3-0.6,0.4
			l0.1,0.3c-0.6-1.2-2-1.8-3.3-1.2c-1.2,0.5-1.7,1.9-1.3,3.1c-6.6-0.3-13.4-0.7-20.5-1.2c0.4-1.7,1.3-4.5,2.6-6.3
			c-1.2,0.8-2.1,2.1-2.8,3.4c0.1-2.5-0.3-5.3-0.6-5.9c0.1,1-0.5,3.9-0.9,5.9c-0.6-2.2-1.5-4.1-2.6-5.5c1.2,2.3,1.4,6,1.4,8.2
			c-1.7-0.1-3.3-0.2-5-0.3c0.5-1.4,1.4-3.3,3.2-5.1c-2.1,0.8-3.5,2.2-4.3,3.5c0.6-2.2,1.7-5,3.4-7.7c-2.7,2.2-4.4,5.2-5.4,7.6
			c0.3-1.6,0.8-3.7,1.5-5.8c0.3-0.6,0.7-1.2,1.1-1.8c-0.2,0.2-0.4,0.4-0.6,0.5c0.9-2.3,2-4.6,3.5-6.7c-2,1.6-5.1,5.8-7,11
			c0,0.1-0.1,0.2-0.1,0.3c0-0.8,0-1.6,0.1-2.4c0.9-2.9,2.2-6.1,4.2-8.8c-1,0.8-2.3,2.3-3.6,4.2c0.3-1.4,0.7-2.8,1.2-4.3
			c-1.9,2.5-2.9,4.6-3.5,6.9c-0.6-2.3-1.6-4.4-3.5-6.9c0.5,1.5,0.9,2.9,1.2,4.3c-1.3-1.9-2.6-3.4-3.6-4.2c2,2.7,3.3,5.9,4.2,8.8
			c0.1,0.8,0.1,1.6,0.1,2.4c0-0.1-0.1-0.2-0.1-0.3c-1.8-5.1-5-9.3-7-11c1.5,2.1,2.6,4.4,3.5,6.7c-0.2-0.2-0.4-0.4-0.6-0.5
			c0.4,0.6,0.7,1.2,1.1,1.8c0.7,2.1,1.2,4.2,1.5,5.8c-1-2.4-2.7-5.4-5.4-7.6c1.7,2.7,2.8,5.6,3.4,7.7c-0.8-1.3-2.2-2.7-4.3-3.5
			c1.4,1.4,2.2,2.8,2.8,4.1c-1.5-0.1-3.1-0.2-4.6-0.4c0.1-2.1,0.4-4.8,1.4-6.5c-1,1.4-2,3.3-2.6,5.5c-0.4-2-0.9-4.9-0.9-5.9
			c-0.3,0.6-0.7,3.4-0.6,5.9c-0.7-1.2-1.6-2.5-2.6-3.2c0-0.3,0-0.7,0-1c-1.1,0.3-2.5,0.9-3.8,1.6c0.7-2.7,0.5-5.8-1.2-9.4
			c-2.2,2.1-4.9,5.7-6.4,9.9c-0.8-2.5-2.7-4.6-6.4-6.1c-0.3,1.9-0.4,4.6,0.2,7.3c-2.7-0.3-5.4-0.5-8.2-0.8c0-0.1,0.1-0.2,0.1-0.4
			c0-0.7-0.6-1.2-1.2-1.2s-1.2,0.6-1.2,1.2v0.1l0,0v-0.4c-0.1,0-0.2,0-0.3,0c-0.5-0.1-1.5-0.2-2.5,0c1.2-1.3,2.6-2.1,3.9-2.6v-0.1
			c3.7,0.9,5.7-1.9,6.6-3.4c-4.1-0.4-5.7,0.1-6.9,3c-1.3,0.5-3,1.5-4.4,3.2l0,0v-0.1c0.1-0.4,0.1-1,0.2-1.1c0.3-0.1,0.5-0.4,0.5-0.8
			c0-0.5-0.4-0.8-0.8-0.8c-0.5,0-0.8,0.4-0.8,0.8c0,0.3,0.2,0.6,0.5,0.7c-0.1,0.2-0.1,0.6-0.2,1.1v0.1c-0.6-0.1-1.2-0.1-1.7-0.2
			c-0.1-0.5-0.2-0.9-0.3-1.4l0,0c-0.1-0.5-0.2-1-0.2-1.5c0-1.5,0.4-2.7,1.4-3.7c0.7-0.4,1.6-0.2,2.2,0c0.1,0.3,0.4,0.5,0.8,0.5
			c0.5,0,0.8-0.4,0.8-0.8s-0.4-0.8-0.8-0.8c-0.3,0-0.6,0.2-0.7,0.5c-0.3-0.1-0.7-0.2-1.1-0.2c0.1-0.1,0.2-0.1,0.3-0.2l0,0
			c3.9,0,5.1-3.2,5.6-4.9c-4,0.6-5.4,1.4-6,4.4c-1.3,0.7-2.2,1.6-2.7,2.7c0-1.5,0.3-2.7,0.5-3.7c0.1-0.6,0.2-1.2,0.3-1.7l0,0
			c3.1-2.5,2-5.8,1.3-7.4c-2.8,3.1-3.3,4.6-1.7,7.4h-0.2c0,0.5-0.2,1-0.3,1.6c-0.3,1.2-0.6,2.6-0.5,4.6c-0.7-1.9-1.5-3.5-2.3-4.7
			c-0.3-0.7-0.2-1.5-0.1-1.7c0.1,0,0.1,0,0.2,0c0.5,0,0.8-0.4,0.8-0.8c0-0.5-0.4-0.8-0.8-0.8c-0.5,0-0.8,0.4-0.8,0.8
			c0,0.3,0.1,0.5,0.3,0.6l-0.3-0.1c0,0.1-0.1,0.4-0.1,0.7c-0.3-0.5-0.6-0.9-0.8-1.2c-0.2-0.3-0.4-0.6-0.5-0.7
			c0.8-3.8-2.1-5.7-3.7-6.5c-0.2,4.1,0.3,5.6,3.2,6.8h-0.1c0.1,0.2,0.3,0.4,0.6,0.8c0.4,0.6,1,1.4,1.6,2.3c0,0,0,0,0,0.1l0,0
			c0.4,0.6,0.7,1.2,1.1,2c-2.2-2.4-5.2-1.7-6.7-1.2c2.9,3,4.3,3.7,7.2,2.3c0.3,0.7,0.6,1.5,0.9,2.3c-0.6-0.2-1.3-0.2-1.8-0.2
			c-0.1,0-0.2,0-0.3,0v0.3c0-0.7-0.6-1.2-1.2-1.2c-0.7,0-1.2,0.6-1.2,1.2s0.6,1.2,1.2,1.2c0.7,0,1.2-0.5,1.2-1.2v0.3
			c0.1,0,0.2,0,0.3,0c0.7,0,1.8-0.1,2.1,0.6l0,0c0.2,0.8,0.4,1.6,0.6,2.4c-1-0.1-1.9-0.2-2.9-0.3c-0.1-0.1-0.2-0.1-0.4-0.1
			c-0.1,0-0.2,0-0.3,0.1c-0.8-0.1-1.5-0.2-2.3-0.3c-2-2-4.6-1.6-6.1-1.2c0.2,0.2,0.3,0.4,0.5,0.5c-2.4-0.3-4.7-0.5-7.1-0.8
			c0.7-3,2.2-7.4,4.7-11.2c-3.2,2.5-5.1,5.5-6.3,8.2c0-0.3,0-0.6-0.1-0.8c1-4.6,3-10.5,6.4-15.2c-1.9,1.6-4.8,5.2-7.1,9.8
			c-0.7-3.3-2-6.3-4.5-9.8c2-1.1,2.4-2.7,2.2-6.3c-1.6,0.8-4.4,2.7-3.7,6.5c-0.1,0.2-0.3,0.4-0.5,0.7c-0.2,0.3-0.5,0.7-0.8,1.2
			c0-0.3-0.1-0.6-0.1-0.7l-0.3,0.1c0.2-0.1,0.3-0.4,0.3-0.6c0-0.5-0.4-0.8-0.8-0.8c-0.5,0-0.8,0.4-0.8,0.8c0,0.5,0.4,0.8,0.8,0.8
			c0.1,0,0.2,0,0.2,0c0.1,0.2,0.2,1-0.1,1.7c-0.9-1.2-1.8-2.2-2.6-2.9c0.6-1.9-0.2-3.4-2.4-5.9c-0.7,1.6-1.8,4.9,1.3,7.4l0,0
			c0.1,0.5,0.2,1.1,0.3,1.7c0.2,1,0.5,2.2,0.5,3.7c-0.5-1.1-1.4-2.1-2.7-2.7c-0.6-3-2-3.8-6-4.4c0.5,1.7,1.7,4.8,5.6,4.9l0,0
			c0.1,0.1,0.2,0.1,0.3,0.2c-0.4,0-0.8,0.1-1.1,0.2c-0.1-0.3-0.4-0.5-0.7-0.5c-0.5,0-0.8,0.4-0.8,0.8s0.4,0.8,0.8,0.8
			c0.4,0,0.6-0.2,0.8-0.5c0.6-0.2,1.5-0.4,2.2,0c1,1,1.5,2.2,1.4,3.7c-0.1,0.5-0.1,1-0.2,1.5l0,0c-0.2,0.7-0.3,1.4-0.4,2.2
			c-0.2-0.1-0.4-0.2-0.6-0.3c0.2,0.2,0.4,0.4,0.5,0.6c-0.1,0.8-0.2,1.6-0.2,2.5c-0.3-0.8-0.7-1.5-1.1-2.2l0,0
			c-0.1-0.3-0.2-0.9-0.3-1.4c-0.1-0.4-0.1-0.8-0.2-1.1c0.3-0.1,0.5-0.4,0.5-0.7c0-0.2-0.1-0.4-0.2-0.5c0.1-0.3,0.2-0.6,0.4-0.8
			c-0.2,0.2-0.3,0.5-0.5,0.7c-0.1-0.1-0.3-0.2-0.5-0.2c-0.5,0-0.8,0.4-0.8,0.8c0,0.3,0.2,0.6,0.5,0.8c-0.1,0.2-0.2,0.4-0.3,0.6
			c-0.9-0.9-1.8-1.6-2.7-2c0-0.5-0.1-0.9-0.1-1.2c-0.1,0.2-0.2,0.5-0.3,1c-0.3-0.1-0.5-0.3-0.8-0.4c-1.3-2.9-2.8-3.3-6.9-3
			c0.2,0.4,0.5,0.8,0.8,1.3c-1.1-0.1-2.4,0.1-3.5,1.1c0.3-0.5,0.5-1,0.8-1.4l0,0l0,0c0.5-0.8,0.9-1.4,1.2-1.8
			c0.2-0.3,0.4-0.5,0.4-0.6l-0.1-0.1c2.3-0.9,2.7-2.1,2.5-5.3c-1.2,0.6-3.5,2.1-2.9,5.1l0,0c-0.1,0.1-0.2,0.3-0.4,0.6
			c-0.2,0.2-0.4,0.5-0.6,0.8c0-0.2-0.1-0.3-0.1-0.4l-0.3,0.1c0.2-0.1,0.3-0.3,0.3-0.5c0-0.4-0.3-0.6-0.6-0.6s-0.6,0.3-0.6,0.6
			s0.3,0.6,0.6,0.6h0.1c0,0.2,0.2,0.8-0.1,1.3c-0.6,0.9-1.2,2-1.7,3.4c0-1.4-0.2-2.4-0.4-3.3c-0.1-0.5-0.2-0.9-0.2-1.3h-0.2
			c1.2-2.2,0.8-3.3-1.3-5.8c-0.6,1.3-1.4,3.9,1,5.8h-0.1c0,0.4,0.1,0.9,0.2,1.3c0.2,0.7,0.3,1.6,0.4,2.6c-0.4-0.8-1.1-1.4-2-1.9
			c-0.5-2.3-1.6-2.9-4.7-3.4c0.4,1.3,1.4,3.8,4.4,3.8v0.1h0.1c-0.3,0-0.5,0.1-0.7,0.1c-0.1-0.2-0.3-0.3-0.5-0.3
			c-0.4,0-0.6,0.3-0.6,0.6s0.3,0.6,0.6,0.6s0.5-0.2,0.6-0.4l0,0c0.5-0.2,1.2-0.3,1.8,0c0.8,0.7,1.1,1.7,1.1,2.8
			c0,0.4-0.1,0.8-0.2,1.2l0,0c-0.1,0.4-0.2,0.9-0.3,1.3c-0.4-0.1-0.8-0.1-1.2-0.2c0,0,0,0,0-0.1c-0.1-0.4-0.1-0.7-0.2-0.9
			c0.2-0.1,0.3-0.3,0.3-0.5c0-0.4-0.3-0.6-0.6-0.6c-0.4,0-0.6,0.3-0.6,0.6c0,0.3,0.2,0.5,0.4,0.6l0,0c0,0.1,0.1,0.4,0.2,0.7l0,0
			c-1.1-1.3-2.4-2-3.4-2.4c-1-2.2-2.2-2.5-5.4-2.3c0.7,1.2,2.2,3.4,5.2,2.7v0.1c0.9,0.4,1.9,0.9,2.7,1.8c-0.8-0.1-1.6-0.2-2.3-0.3
			c-0.1-0.1-0.3-0.1-0.4-0.1c-0.1,0-0.1,0-0.2,0c-29-3.9-60.6-8.6-95-14.4c-132.4-22.1-228.2,26.9-242.7,33.1l-337.5,20.2
			c-11-9.4-2.4-50-41.2-42.2c-22.9,4.6-44,7.3-63.3,8.8c0.1-0.1,0.2-0.2,0.2-0.4c0-0.3-0.2-0.5-0.5-0.5c-0.2,0-0.3,0.1-0.4,0.2
			l-0.1-0.3c0,0-0.1,0-0.2,0s-0.1,0-0.2,0c0.4-0.4,1-0.7,1.6-1.1h0.1l0,0c1.6,0.6,2.4,0.1,3.9-1.8c-1-0.3-2.9-0.5-4.1,1.4l-0.1-0.2
			h-0.1c-0.2,0.1-0.4,0.2-0.6,0.3l0,0c0.2-0.1,0.3-0.2,0.3-0.4c0-0.2-0.2-0.4-0.4-0.4s-0.4,0.2-0.4,0.4c0,0.2,0.1,0.3,0.3,0.4
			l-0.3,0.1c0,0.1-0.1,0.3-0.2,0.4l0,0c-0.4,0.3-0.8,0.7-1,1l0,0l0,0c-0.1,0.2-0.3,0.3-0.4,0.5c0-1.5,0.3-2.8,0.6-3.9l0,0
			c0.1-0.3,0.8-0.3,1.1-0.3h0.2v-0.3c0,0.4,0.3,0.7,0.7,0.7c0.4,0,0.7-0.3,0.7-0.7c0-0.4-0.3-0.7-0.7-0.7c-0.4,0-0.7,0.3-0.7,0.7
			v-0.3h-0.1c-0.2,0-0.6,0-0.9,0.1c0.1-0.4,0.3-0.7,0.4-1.1c1.6,0.7,2.4,0.3,4.1-1.4c-0.8-0.3-2.4-0.6-3.6,0.4
			c0.2-0.3,0.3-0.6,0.5-0.9l0,0l0,0c0.4-0.6,0.7-1,0.9-1.4c0.2-0.2,0.3-0.4,0.3-0.5l-0.1-0.1c1.7-0.7,2-1.5,1.8-3.9
			c-0.9,0.5-2.6,1.6-2.1,3.8l-0.1-0.1c-0.1,0.1-0.2,0.2-0.3,0.4c-0.1,0.1-0.2,0.3-0.3,0.4v-0.1l-0.3,0.1c0.1-0.1,0.2-0.2,0.2-0.4
			c0-0.3-0.2-0.5-0.5-0.5s-0.5,0.2-0.5,0.5s0.2,0.5,0.5,0.5l0,0c0.1,0.3,0.1,0.7-0.1,1c-0.4,0.6-0.7,1.3-1.1,2.1
			c0-0.8-0.2-1.5-0.3-2.1c-0.1-0.3-0.1-0.6-0.2-0.9h-0.2c0.9-1.6,0.6-2.5-1-4.3c-0.4,0.9-1,2.8,0.7,4.3h-0.1c0,0.3,0.1,0.6,0.2,1
			c0.1,0.5,0.2,1,0.3,1.6c-0.3-0.5-0.8-0.9-1.4-1.2l0,0c-0.2-1-0.6-1.5-1.4-1.9c0.4-0.7,0.8-1.5,1.3-2.2c-0.8,0.6-1.5,1.3-2.1,2
			c-0.4-0.1-0.8-0.2-1.2-0.2c0.1,0.3,0.2,0.7,0.4,1.1c-0.7,0.9-1.4,1.8-1.9,2.6c-0.3,0-0.6,0-1,0c1.1-4.2,3-9.2,6-13.3
			c-1.9,1.6-4.8,5.2-7.1,9.8c-0.2-0.9-0.4-1.9-0.7-2.8c0.2-0.3,0.3-0.6,0.5-0.8c-0.3,0-0.5,0-0.8-0.1c-0.8-2-1.9-4.1-3.6-6.3
			c0.8,2.1,1.3,4.2,1.7,6.2c-1.2,0-2.2,0.1-3,0.4c-1.3-2-2.6-3.8-3.7-5c1.1-1.3,1.6-2.8,1.9-3.9c-5.5,0.8-7.4,1.9-8.1,6
			c-0.7,0.4-1.3,0.8-1.8,1.3l0,0l0,0c-0.8,0.8-1.4,1.7-1.8,2.8c0-2.3,0.4-4,0.7-5.5c0.2-0.8,0.3-1.5,0.4-2.2c4.2-3.4,2.8-7.8,1.8-10
			c-3.7,4.2-4.4,6.2-2.3,9.9h-0.1c-0.1,0.7-0.2,1.4-0.4,2.2c-0.4,1.8-0.8,3.9-0.7,6.8c-1-2.8-2.2-5.1-3.3-6.9
			c-0.4-0.9-0.2-2-0.1-2.4c0.1,0.1,0.3,0.1,0.4,0.1c0.6,0,1.1-0.5,1.1-1.1s-0.5-1.1-1.1-1.1s-1.1,0.5-1.1,1.1c0,0.4,0.2,0.7,0.5,0.9
			l-0.3-0.1c-0.1,0.2-0.2,0.7-0.2,1.3c-0.5-0.7-0.9-1.4-1.3-1.9c-0.3-0.4-0.5-0.7-0.6-0.9c1.2-5.2-2.7-7.8-4.9-8.9
			c-0.3,5.5,0.4,7.6,4.3,9.1c0.1,0.2,0.4,0.6,0.7,1c0.6,0.8,1.3,1.8,2.1,3.1v0.1l0,0c0.5,0.9,1.1,1.9,1.7,3c-3-3.6-7.1-2.7-9.3-1.9
			c3.9,4.1,5.8,5,9.8,3.1c0.5,1,0.9,2.1,1.3,3.3c-0.4-0.2-0.8-0.3-1.2-0.3c0.2-0.3,0.4-0.6,0.6-0.8c-0.3,0.2-0.5,0.5-0.8,0.8
			c-0.4,0-0.8,0-1.2,0c-0.1,0-0.3,0-0.4,0v0.3c0-0.9-0.7-1.6-1.6-1.6s-1.6,0.7-1.6,1.6s0.7,1.6,1.6,1.6s1.6-0.7,1.6-1.6v0.3
			c0.1,0,0.2,0,0.4,0c0.2,0,0.4,0,0.6,0c-1,1.2-2.1,2.8-3,4.7c-0.4-2.1-1.2-3.9-2.9-6.1c0.6,1.7,1,3.4,1.3,5
			c-0.8-0.9-1.7-1.4-2.6-1.8c-1-1.4-2-2.6-2.7-3.2c0.7,0.9,1.2,1.9,1.7,2.9c-1.8-0.4-3.6-0.1-4.8,0.2c1.7,2.2,3,3.5,4.4,4.1
			c0.6,1.3,1.1,2.6,1.4,3.6c-0.7-1-1.7-2.1-3.4-2.7c1.4,1.4,2.1,2.8,2.5,3.9c-1.3,0-2.6-0.1-3.9-0.1c0-1.8,0.2-4.3,1.1-6
			c-0.8,1.1-1.6,2.6-2,4.3c-0.3-1.5-0.7-3.8-0.7-4.6c-0.2,0.5-0.5,2.7-0.4,4.6c-0.6-1-1.3-2.1-2.2-2.7c0.9,1.2,1.5,3,1.9,4.3
			c-47.9-2.1-82.8-12.5-109.2-20.6c-84.4-25.9-157.5-46.8-227.5-49.9c1.5-6.3,4.7-16.4,10.3-25c-6.8,5.4-10.9,11.9-13.4,17.5
			c0-0.6-0.1-1.2-0.1-1.8c2.2-9.8,6.3-22.4,13.8-32.7c-4.2,3.5-10.4,11.2-15.3,21.1c-1.5-7.2-4.3-13.7-10-21.4
			c4.2,11.6,5.4,22.6,5.4,31.2c-5-14.5-14-26.4-19.4-31c8.8,12.1,13,27.6,14.8,37.7c-2.8-6.5-7.5-14.8-14.8-20.8
			c4.7,7.5,7.6,15.2,9.3,21c-2.3-3.6-6-7.3-11.8-9.5c4.5,4.6,7,9.4,8.4,13.1c-4.5,0.1-9,0.2-13.5,0.4c0-1.8,0.1-4,0.2-6.2
			c0.9-0.7,1.7-1.4,2.4-2c-0.7-0.3-1.4-0.6-2.1-0.9c0.5-4.4,1.5-8.9,3.3-12.3c-2.3,3-4.3,7-5.9,11.4c-0.7-0.2-1.3-0.4-1.9-0.5
			c-0.9-4.7-1.7-9.9-1.6-12c-0.6,1.3-1.4,6.2-1.6,11.6c-0.9,0-1.7,0.2-2.6,0.5c-1.5-2.1-3.2-3.9-5.2-5.2c1.3,1.8,2.4,3.9,3.4,6.1
			c-1.2,0.8-2.4,1.9-3.7,3.4c-3.9,0.4-8.4,1.7-12.6,4.7c0.3-0.5,0.5-1,0.8-1.6c0.4-0.8,0.9-1.7,1.2-2.2c1,0.2,1.9-0.3,2.2-1.3
			c0.3-1-0.2-2.1-1.2-2.4s-2.1,0.2-2.4,1.2c-0.3,0.8,0.1,1.7,0.8,2.2c-0.3,0.5-0.7,1.3-1.1,2.1c-0.6,1.1-1.2,2.4-1.7,2.9
			c-1.2,1-2.4,2.2-3.5,3.5c-0.4,0.1-0.7,0.1-1.1,0.2c1.1-4.1,1.8-7.9,2-11.5h0.1c0.1-1.2,0.3-2.3,0.5-3.4c1-3.5,3-6.1,6.1-7.5
			c2-0.5,3.8,0.5,5.1,1.5c-0.2,0.9,0.3,1.9,1.3,2.2c1,0.3,2.1-0.2,2.4-1.2s-0.2-2.1-1.2-2.4c-0.9-0.3-1.7,0.1-2.2,0.8
			c-1-0.7-2.2-1.4-3.6-1.6c0.5-0.2,1.1-0.3,1.7-0.4c9,3.3,14.3-3,16.6-6.5c-9.6-1.6-13.2-0.8-16.7,5.9c-1.3,0.2-2.4,0.6-3.5,1.1l0,0
			l0,0c-2.2,1.1-3.9,2.7-5.2,4.8c1.2-4.6,3-7.6,4.5-10.2c0.6-1.1,1.2-2.1,1.7-3.1c9.1-3.2,9.1-11.5,8.6-15.7c-8.4,5-10.6,7.8-9,15.1
			c-0.5,1.1-1.1,2.1-1.8,3.3c-1.8,3-3.9,6.7-5.1,12.5c0-6-0.8-11-1.8-15c-0.2-1.9,0.8-3.7,1.1-4.1c0.2,0.2,0.5,0.4,0.8,0.5
			c1,0.3,2.1-0.2,2.4-1.2s-0.2-2.1-1.2-2.4s-2.1,0.2-2.4,1.2c-0.2,0.6-0.1,1.2,0.2,1.6l-0.3-0.2c-0.2,0.3-0.8,1.4-1.1,2.7
			c-0.5-1.8-1-3.4-1.4-4.6c-0.2-0.7-0.4-1.2-0.5-1.6c5-8.1-0.1-14.6-3.1-17.5c-3.4,9.1-3.4,12.8,2.5,17.5c0.1,0.4,0.3,1,0.6,1.8
			c0.5,1.6,1.2,3.7,1.8,6.3c0,0.1,0,0.1,0,0.2l0,0c0.5,2.1,1,4.4,1.3,7c-2.4-7.8-9.1-9.1-13.4-9.2c3-4.3,4.8-9.5,4.8-15.2
			c0-14.7-11.9-26.6-26.6-26.6c-5.5,0-10.6,1.7-14.8,4.5c-3.1-2.8-7.3-4.5-11.8-4.5c-9.8,0-17.7,7.9-17.7,17.7c0,0.2,0,0.4,0,0.6
			c-10.1,2.9-17.8,15.4-17.8,30.4c0,12.6,5.4,23.5,13.2,28.3c-2.7,3.1-4.3,7.1-4.3,11.5c0,3.2,0.9,6.3,2.4,8.9
			c-1.3-1-2.7-1.8-3.9-2.4c1.2,0.8,2.4,2,3.5,3.3c-0.8,0.3-1.5,0.5-2.3,0.8c0-0.2,0.1-0.4,0.2-0.7c-0.2,0.3-0.4,0.6-0.6,0.8
			c-0.9,0.3-1.9,0.7-2.8,1c-0.2-1.8-0.4-3.8-0.3-5.9c-0.8,2.1-1.2,4.4-1.3,6.5c-0.4,0.2-0.9,0.3-1.3,0.5c-1-4.1-1.8-9-1.3-13.8
			c-1,2.8-1.8,8.5-1,14.6c-0.3,0.1-0.5,0.2-0.8,0.3c-1.6-3.2-3.1-7.1-3.9-11.7c-0.5,4.4-0.1,7.7,0.9,11c-4.3-2.9-8.6-4.5-11.1-5
			c3.9,1.7,7.4,4.4,10.3,7.1c-0.7,0.3-1.4,0.5-2.2,0.8c-1.3-0.5-2.6-0.8-4.1-1.1c0.9,0.5,1.8,1,2.7,1.6
			c-24.2,8.6-49.7,17.3-78.2,25.1c1.1-3.1,2.6-6.2,4.6-9c-1.9,1.6-4.7,5.1-7,9.6h-0.1c-0.7-3.3-2-6.3-4.6-9.8
			c1.3,3.7,2,7.2,2.3,10.4c-0.4,0.1-0.9,0.2-1.3,0.4c-2.3-5-5.5-8.9-7.5-10.7c2.5,3.5,4.2,7.5,5.4,11.2c-0.6,0.2-1.2,0.3-1.8,0.5
			c-1-1.4-2.2-2.7-3.6-3.8c0.9,1.4,1.6,2.8,2.2,4.1c-1.7,0.4-3.5,0.9-5.2,1.3c0.3-1.4,0.7-2.6,1.2-3.7c-0.8,1.1-1.6,2.4-2.2,3.9
			c-0.4,0.1-0.8,0.2-1.2,0.3c1.3-3,2.2-6,2.7-8.5c-8.2,0.3-13.5,3.1-16.9,7.5c0-9.4-2.8-18.3-5.6-24c-5.9,5.9-8.6,11.8-9.1,17.7
			c-2.1-2.4-4.4-4.4-6.4-5.8c-3.7,8.8-2.8,15.4,0.9,20.7c-6.8,1.3-13.9,2.5-21.1,3.7c-0.3-0.3-0.7-0.5-1.2-0.5
			c-0.6,0-1.2,0.4-1.5,0.9c-1.1,0.2-2.1,0.3-3.2,0.5c0.4-1.1,0.8-2.1,1.2-3.1c4.1,2,6.1,1.1,10.1-3.2c-2.2-0.8-6.5-1.8-9.6,2
			c0.6-1.2,1.2-2.3,1.8-3.2l0,0v-0.1c0.8-1.4,1.6-2.5,2.2-3.3c0.3-0.5,0.6-0.8,0.7-1.1c4-1.6,4.7-3.7,4.4-9.4
			c-2.2,1.1-6.2,3.8-5,9.2c-0.1,0.2-0.4,0.5-0.7,0.9c-0.4,0.5-0.9,1.2-1.4,2c0-0.7-0.1-1.2-0.2-1.4l-0.3,0.1
			c0.3-0.2,0.5-0.5,0.5-0.9c0-0.6-0.5-1.1-1.1-1.1s-1.1,0.5-1.1,1.1s0.5,1.1,1.1,1.1c0.2,0,0.3,0,0.4-0.1c0.1,0.4,0.3,1.5-0.1,2.5
			c-1.2,1.9-2.4,4.3-3.4,7.2c0.2-3-0.3-5.2-0.7-7.1c-0.2-0.8-0.3-1.6-0.4-2.3h-0.1c2.2-3.8,1.4-5.9-2.4-10.2
			c-1,2.3-2.5,6.9,1.9,10.3c0.1,0.7,0.2,1.4,0.4,2.2c0.3,1.6,0.7,3.4,0.7,5.7c-0.4-1.1-1-2.1-1.9-2.9l0,0l0,0
			c-0.5-0.5-1.2-0.9-1.9-1.3c-0.8-4.3-2.7-5.4-8.4-6.2c0.7,2.4,2.5,6.8,8,6.7c0.2,0.1,0.4,0.2,0.6,0.4c-0.7,0-1.3,0.1-1.9,0.3
			c-0.2-0.4-0.6-0.7-1.1-0.7c-0.6,0-1.1,0.5-1.1,1.1s0.5,1.1,1.1,1.1c0.5,0,1-0.4,1.1-0.9c0.9-0.3,2.1-0.5,3.2,0.1
			c1.2,1.2,1.9,2.6,2,4.4c-3,0.4-6,0.9-9.1,1.3c-0.3-0.2-0.6-0.3-0.9-0.4c-1.8-4.2-3.9-4.8-9.7-4.3c1.2,2.1,3.9,6,9.1,4.7
			c0.1,0.1,0.2,0.1,0.4,0.2c-74,9.9-167.5,10.6-294.9-8.6c2.6-2.5,4.7-5,6.2-7c-5.4-0.3-9.8,0.9-13.5,3.1c0.8-2,1.3-3.8,1.6-5.3
			c-5.2,1.5-8.6,3.8-10.8,6.7c-0.2,0-0.3-0.1-0.5-0.1c2.2-1.8,4.2-3.7,5.6-5.4c-4-2.2-7.5-2-10.7-0.2c3.6-5.8,5.8-12.2,6.7-16.5
			c-5,1.9-8.5,4.8-11.1,8.3c-0.1-2.1-0.3-4-0.7-5.5c-6.4,5.4-8.1,10.9-7.5,16.3c-0.8-0.1-1.7-0.3-2.5-0.4c1.8-3.7,2.9-7.8,3.4-10.9
			c-4.5,0.2-7.4,2.3-9.2,5.5c0-6.8-1.5-13.4-3.1-17.5c-1.6,2.2-2.8,4.4-3.6,6.6c-2.6,0.2-5.4,1.4-7.4,4.8l-0.2,0.1
			c-1,0.5-1.9,1-2.8,1.6c0-0.1,0-0.1,0.1-0.2c0.1-0.2,0.1-0.6,0-0.9h0.1c0.7,0,1.3-0.6,1.3-1.3c0-0.7-0.6-1.3-1.3-1.3
			s-1.3,0.6-1.3,1.3c0,0.6,0.4,1,0.9,1.2l-0.4,0.2c0.1,0.2-0.2,1.4-0.9,1.9l0,0c-1.6,1.2-2.8,2.4-3.7,3.8c-0.5-0.1-1-0.2-1.5-0.3
			c0.1-4.4,0.8-8.2,1.8-11.6h0.1c0.5-1.4,2.6-1.3,3.9-1.2c0.2,0,0.4,0,0.5,0v-0.6c-0.1,0-0.3,0-0.5,0c-1,0-2.6-0.1-3.6,0.6
			c0.5-1.7,1.1-3.2,1.7-4.6c5.3,2.5,7.7,1.4,12.8-4c-2.8-1-8.4-2.3-12.3,2.8c0.8-1.6,1.6-3.1,2.3-4.3l0,0c0-0.1,0-0.1,0.1-0.2
			c1.1-1.7,2-3.1,2.8-4.1c0.4-0.5,0.7-0.9,0.9-1.2c5.2-2,6.1-4.6,5.7-11.9c-2.8,1.4-7.9,4.8-6.3,11.7c-0.2,0.3-0.4,0.6-0.8,1.1
			c-0.5,0.7-1.2,1.6-1.9,2.7c0-0.9-0.1-1.7-0.2-1.9l-0.4,0.1c0.4-0.3,0.6-0.7,0.6-1.1c0-0.8-0.6-1.4-1.4-1.4s-1.4,0.6-1.4,1.4
			s0.6,1.4,1.4,1.4c0.2,0,0.4-0.1,0.6-0.2c0.1,0.4,0.4,1.9-0.2,3.2c-1.5,2.5-3.2,5.7-4.6,9.7c0.3-4.1-0.3-7-0.8-9.5
			c-0.2-1.1-0.4-2-0.5-2.9l0,0c2.8-4.8,1.8-7.4-3-12.9c-1.3,2.9-3.2,8.7,2.4,13.1c0.1,0.9,0.3,1.8,0.5,2.7c0.4,2.1,1,4.5,0.9,7.8
			c-0.4-1.6-1.3-2.9-2.5-4.1l0,0l0,0c-0.7-0.6-1.4-1.2-2.3-1.6c-1-5.5-3.4-6.9-10.6-8c0.8,3,3.1,8.7,10.2,8.5c0.3,0.2,0.7,0.4,1,0.6
			c-1-0.1-1.9,0.1-2.7,0.3c-0.2-0.6-0.7-1-1.3-1c-0.8,0-1.4,0.6-1.4,1.4s0.6,1.4,1.4,1.4c0.7,0,1.3-0.5,1.4-1.2
			c1.1-0.4,2.7-0.7,4,0.1c1.8,1.7,2.7,4,2.6,6.6c-0.1,0.8-0.2,1.7-0.4,2.6h0.1c-0.7,2.8-1.1,6-1.2,9.4c-0.1,0-0.1,0-0.2,0
			c-0.2-0.6-0.4-1.2-0.7-1.8c0.6-1.7,1.1-3.4,1.4-4.8c-1.1,0-2.2,0.2-3.2,0.3c0-0.2-0.1-0.4-0.1-0.6c-0.1-0.7-0.2-1.4-0.3-1.8
			c0.6-0.2,1-0.7,1-1.3c0-0.8-0.6-1.4-1.4-1.4s-1.4,0.6-1.4,1.4c0,0.7,0.5,1.3,1.2,1.4c0.1,0.4,0.2,1.1,0.4,1.9
			c0,0.2,0.1,0.4,0.1,0.7c-0.1,0-0.2,0-0.2,0c-2.4-3-5.4-4.8-7.6-5.8c-0.1-0.3-0.3-0.6-0.4-0.9c0.4-1.3,0.7-2.5,1-3.6
			c-1.2,0-2.3,0.2-3.3,0.4c-0.4-0.3-0.8-0.6-1.2-0.8c-0.3-0.6-0.6-1.3-0.8-1.8c-0.4,0.4-0.8,0.8-1.2,1.2c-1.6-0.3-3.6-0.2-6.3,0
			c0.6,1.1,1.6,2.7,3.1,4c-1,0.7-1.9,1.6-2.6,2.5c0-6.8-2-13.4-4.1-17.5c-4.3,4.3-6.3,8.6-6.7,12.9c-1.6-1.8-3.2-3.2-4.6-4.3
			c-2.1,4.9-2.1,8.8-0.9,12.1c-2.2-0.5-4.5-0.9-6.7-1.4c1.2-3.1,1.9-6.4,2.2-9c-3.8,0.2-6.2,2.2-7.7,5.3c0-6.6-1.3-12.9-2.6-16.8
			c-2.7,4.1-3.9,8.3-4.1,12.4c-1-1.7-2-3.1-2.9-4.1c-0.8,3.1-1.1,5.7-1,8.1c-0.4,0.1-0.8,0.3-1.1,0.4c-1-0.2-2.1-0.5-3.1-0.7
			c-0.4-3.1-1.4-5.9-2.4-7.9c-1.6,1.6-2.7,3.2-3.3,4.8c1.3-4,3.2-8.8,6-13.1c-4.9,3.9-7.9,8.6-9.7,12.6c0-0.4-0.1-0.8-0.1-1.3
			c1.6-7.1,4.6-16.2,10-23.6c-3,2.5-7.5,8.1-11.1,15.3c-1.1-5.2-3.1-9.9-7.2-15.5c3.1,8.4,3.9,16.4,3.9,22.6
			c-3.6-10.5-10.1-19.1-14-22.4c5.6,7.7,8.6,17.3,10.2,24.5c-0.3-0.1-0.5-0.1-0.8-0.2c-1.9-3.8-4.7-7.9-8.4-11.3
			c0.8-2.3,1.4-4.4,1.8-6.3c-8.2,0.3-13.5,3.1-16.9,7.5c0-8.4-2.3-16.5-4.8-22.2c0.3,0,0.5,0.1,0.7,0.1v-0.6c-0.2,0-0.5-0.1-1-0.1
			l0,0c-0.2-0.4-0.4-0.8-0.6-1.2c-0.3,0.3-0.6,0.6-0.9,0.9c-2.1-0.3-5.2-0.4-7.7,1.1c3.8-4.7,8.5-7.6,12.7-9.5
			c11.3,3.1,17.3-5.2,19.8-9.8c-12.5-1.1-16.8,0.3-20.6,9.5c-4.5,2-9.5,5.4-13.4,10.7c0.2-0.8,0.3-1.6,0.4-2.5
			c0.2-1.1,0.4-2.3,0.6-3c1.3-0.1,2.3-1.1,2.3-2.4s-1.1-2.4-2.4-2.4s-2.4,1.1-2.4,2.4c0,1.1,0.8,2.1,1.9,2.3c-0.2,0.7-0.4,1.8-0.5,3
			c-0.2,1.6-0.5,3.3-0.9,4.2c-1.5,2.3-2.7,4.9-3.6,8c-0.2-0.1-0.4-0.3-0.6-0.4c-0.2-5.8-0.9-11.1-2-15.9h0.1
			c-0.3-1.6-0.6-3.1-0.8-4.5c-0.1-4.5,1.4-8.2,4.4-11.1c2.2-1.4,4.8-0.9,6.8-0.3c0.1,1.3,1.1,2.3,2.4,2.3s2.4-1.1,2.4-2.4
			s-1.1-2.4-2.4-2.4c-1.2,0-2.1,0.8-2.3,1.9c-1.5-0.5-3.4-0.8-5.3-0.4c0.6-0.5,1.3-0.9,2-1.3c12.2,0.6,16.1-9,17.5-14.1
			c-12.2,1.8-16.1,4.1-17.7,13.6c-1.4,0.8-2.6,1.7-3.7,2.7l0,0l0,0c-2.3,2.2-3.8,5-4.4,8.1c-0.4-6.2,0.6-10.7,1.4-14.5
			c0.3-1.5,0.6-2.9,0.8-4.3c9.7-7.4,6.5-17.3,4.3-22.1c-8.1,9.2-9.7,13.5-4.9,21.7c-0.2,1.4-0.5,2.9-0.8,4.6
			c-1,4.5-2.1,9.8-1.2,17.7c-2.3-7.5-5.4-13.5-8.2-18c-1-2.2-0.4-4.8-0.3-5.5c0.4,0.2,0.8,0.3,1.2,0.3c1.3,0,2.4-1.1,2.4-2.4
			s-1.1-2.4-2.4-2.4s-2.4,1.1-2.4,2.4c0,0.8,0.4,1.4,0.9,1.9l-0.3-0.1c-0.1,0.4-0.5,2.1-0.3,4c-1.4-2.1-2.6-3.8-3.6-5.2
			c-0.5-0.7-0.9-1.2-1.2-1.7c1.7-7-0.6-11.8-3.8-15.1c0-0.8,0-1.6,0-2.5c0-34.7-17.6-63.6-41-70.2c0-0.5,0-0.9,0-1.4
			c0-22.6-18.3-41-41-41c-10.5,0-20,3.9-27.2,10.4c-9.8-6.6-21.5-10.4-34.2-10.4c-5.1,0-10.1,0.6-14.9,1.8c0.1-1.9,0.2-3.7,0.2-5.6
			c0-26.5-11.5-50-29.2-64.5c7.2-9.1,11.5-20.5,11.5-33c0-29.4-23.8-53.2-53.2-53.2c-10.9,0-21.1,3.3-29.6,9c-6.3-5.6-14.5-9-23.6-9
			c-19.6,0-35.4,15.9-35.4,35.4c0,0.4,0,0.8,0,1.2c-6.9,2-13.3,6.2-18.6,12.1l-7.4-3.7c5.7-8.1,9-17.9,9-28.5
			c0-15.3-6.9-29-17.8-38.1v474.7h3965.8V145.3H3969.1z M354.3,316c1.2,0.8,2.7,1.5,4.4,2.1c0.3,0.5,0.7,1.1,1.3,1.8
			c1.2,1.7,2.9,3.9,4.6,6.8c0,0.1,0.1,0.2,0.1,0.3l0,0c1.4,2.3,2.9,5.1,4.4,8.2c-5.2-7.7-12.5-7.7-17.8-6.6
			C352.6,324.6,353.6,320.4,354.3,316z M339.8,360.9c0-2.7-0.3-5.3-0.8-7.8c0.8-1,1.5-2,2.2-3c2.3,2.7,4.3,4.7,6.3,6
			C344,356.9,341.5,358.6,339.8,360.9z M360.8,365.2c-0.2-0.4-0.4-0.8-0.6-1.2c-2.7,2.7-3.9,5.4-4.1,8.1c-1-1.1-2-2-2.9-2.7
			c-0.3,0.8-0.6,1.6-0.8,2.3c-2.7-0.4-5.5-0.8-8.3-1.1c4-3.7,6.3-8.8,7.5-12.9c2.5,0.4,5.3-0.1,8.8-1.5c4.5,2.2,8,4.8,10.5,7.6
			c-1.5-0.5-3.1-0.3-4.3-0.1c-0.7,0.1-1.2,0.2-1.5,0.1l-0.1,0.3c-0.4-0.6-1.1-0.9-1.9-0.9C361.9,363.2,361,364.1,360.8,365.2z
			 M374.2,376.2c-1.2-0.3-2.5-0.6-3.7-0.9c-0.4-0.1-0.7-0.2-1.1-0.3c0.5-1.3,0.9-2.5,1.1-3.5c-3,0.1-5.1,0.9-6.6,2.3
			c-0.4-0.1-0.7-0.2-1.1-0.2c-0.1-2.2-0.6-4.3-1.2-6.2c0.4,0.4,1,0.6,1.5,0.6c1.3,0,2.4-1.1,2.4-2.4c0-0.4-0.1-0.8-0.3-1.1
			c0.4,0,0.9,0,1.5-0.1c1.6-0.2,3.7-0.5,5.3,0.7l0,0c1.3,1.6,2.2,3.3,2.9,5.1C374.3,372.3,374.1,374.3,374.2,376.2z M375.1,369.2
			c-1.5-3.6-4.2-6.8-7.9-9.6l0,0c-0.8-0.5-1.4-1.5-1.6-2.3c-0.2-0.6-0.1-1,0-1.1l-0.4-0.2c0.9-0.2,1.5-1,1.5-2
			c0-1.2-0.9-2.1-2.1-2.1s-2.1,0.9-2.1,2.1s0.9,2.1,2.1,2.1c0.1,0,0.3,0,0.4,0c-0.2,0.5-0.1,1.2,0,1.5s0.2,0.6,0.3,0.9
			c-1.6-1-3.3-2-5.2-2.9H360c-4.4-8-11.6-8.9-16.9-8.2c2.8-4.6,5.2-9.6,7.1-15.1c7.1,7,11.3,8.1,19.3,4.2c1.1,2.5,2.2,5.3,3.1,8.3
			c-1.6-1.5-4.6-1.5-6.4-1.4c-0.3,0-0.6,0-0.8,0v0.3c0-2-1.6-3.6-3.6-3.6s-3.6,1.6-3.6,3.6s1.6,3.6,3.6,3.6s3.6-1.6,3.6-3.6v0.3
			c0.2,0,0.5,0,0.8,0c2-0.1,5.7-0.2,6.7,2.2h0.1c1.7,5.8,2.8,12.5,3,20.1C375.7,367.1,375.4,368.1,375.1,369.2z M382.9,370.9
			c-1.7-1.9-3.4-3.5-5.1-4.8c1-3.4,2.5-6.4,4.2-8.9l0,0c2.3-2.7,6-2.8,8.6-2.5C385.7,360.1,383.4,365.5,382.9,370.9z M414,385.7
			c-1.1-0.8-2.4-1.5-3.9-2.1c0.5,0.5,0.9,1,1.4,1.5c-0.9-0.2-1.9-0.4-2.8-0.7c1.7-2.6,3-5.3,4-7.9c2,3.4,3.5,6.8,4.6,9.9
			C416.2,386.2,415.1,385.9,414,385.7z M495,402.9c-0.3-0.1-0.5-0.1-0.8-0.2c0-0.6,0-1.2-0.1-1.8c1.1-0.1,2-1,2-2.1v0.3
			c0.1,0,0.4,0,0.7-0.1c1-0.2,2.9-0.5,4.5,0.1C498.6,400,496.6,401.2,495,402.9z M496.7,398.4c-0.3,0-0.5,0.1-0.6,0.1v0.3
			c0-1.2-1-2.1-2.1-2.1c-0.1,0-0.3,0-0.4,0c-0.1-0.5-0.2-0.9-0.3-1.3c0.3-0.6,0.5-1.2,0.8-1.9c0.1,0,0.2,0,0.3-0.1
			c2.4,1,5.1,2.7,7.3,5.2C499.8,397.9,497.7,398.3,496.7,398.4z M504.5,404.7c0.1-0.3,0.2-0.5,0.3-0.8c0.1,0.3,0.2,0.6,0.3,0.9
			C504.9,404.8,504.7,404.8,504.5,404.7z M508.8,405.5c0.1-0.2,0.2-0.3,0.4-0.5c0.9-0.7,2.1-0.5,3-0.4c0.3,0,0.6,0.1,0.8,0.1
			c-0.1,0.2-0.1,0.4-0.1,0.6c0,0.5,0.2,0.9,0.6,1.1C511.9,406.1,510.3,405.8,508.8,405.5z M514.7,406.6c0.6-0.2,1-0.7,1-1.4
			c0-0.8-0.6-1.4-1.4-1.4c-0.5,0-0.9,0.2-1.1,0.6l-0.1-0.3c-0.1,0-0.5,0-0.9-0.1c-0.6-0.1-1.4-0.2-2.2-0.1c1.5-1.6,3.5-3,6.1-4.3
			c0.6,0.2,1.2,0.4,1.7,0.6c-0.4,2.6-0.4,4.9,0,6.9C516.8,407,515.8,406.8,514.7,406.6z M1116.6,356c3.3-4.7,5.3-10.6,5.3-17
			c0-0.7,0-1.4-0.1-2.1c2.3,3.4,5.2,4.5,10.3,4.2c2.8,2.7,4.8,5.4,6,8.2c-1-0.6-2.2-0.9-3.1-1c-0.5-0.1-1-0.2-1.1-0.3l-0.2,0.3
			c-0.2-0.5-0.6-1-1.2-1.2c-1-0.3-2.1,0.2-2.4,1.2s0.2,2.1,1.2,2.4s2.1-0.2,2.4-1.2c0.1-0.3,0.1-0.6,0.1-0.9
			c0.3,0.1,0.7,0.2,1.1,0.2c1.2,0.2,2.9,0.5,3.8,1.8c0.1,0.3,0.2,0.6,0.3,0.9C1131.6,352.8,1124.1,354.3,1116.6,356z M1139.7,351.4
			c-0.6-2.1-1.6-4.1-3.1-6.2l0,0c-0.5-0.5-0.6-1.4-0.6-2.1c0-0.5,0.2-0.8,0.2-0.8l-0.3-0.3c0.7,0,1.4-0.4,1.7-1.1
			c0.3-0.9-0.2-1.8-1.1-2.1c-0.9-0.3-1.8,0.2-2.1,1.1c-0.3,0.9,0.2,1.8,1.1,2.1c0.1,0,0.2,0,0.2,0c-0.3,0.3-0.3,0.9-0.3,1.1
			s0,0.3,0,0.5c-0.9-1.1-1.9-2.2-3.1-3.3l-0.1-0.1c-1.5-7.6-7.4-9.8-11.7-10.4c-0.3-0.9-0.6-1.8-1-2.7c4.1-1.8,7.7-4.6,10.4-8.1
			c4,8.1,6.8,10.3,14.2,9.3c0.2,2.1,0.3,4.4,0.3,6.8c-1-1.4-3.1-2.1-4.4-2.5c-0.2-0.1-0.4-0.1-0.6-0.2l-0.1,0.3
			c0.5-1.5-0.3-3.1-1.8-3.6s-3.1,0.3-3.6,1.8s0.3,3.1,1.8,3.6s3.1-0.3,3.6-1.8l-0.1,0.3c0.2,0.1,0.4,0.1,0.6,0.2
			c1.6,0.5,4.4,1.2,4.5,3.3h0.1c-0.1,4.4-0.8,9.3-2.3,14.6C1141.3,351.2,1140.5,351.3,1139.7,351.4z M1157.6,349.1
			c-4.3,0.5-8.5,1-12.8,1.6c1.1-1.3,2.3-2.5,3.6-3.4l0,0c3.1-1.9,6.8,0,8.5,0.9c0.4,0.2,0.6,0.3,0.8,0.4l0.1-0.3
			C1157.6,348.5,1157.6,348.8,1157.6,349.1z M1163.2,348.5c-0.2-1-0.9-1.8-1.9-2.1c-1.5-0.5-3.1,0.3-3.6,1.8l0.1-0.3
			c-0.1,0-0.4-0.2-0.7-0.3c-1.3-0.7-4.1-2.1-6.9-1.7c4-2.5,8.2-3.5,11.8-3.9c1.9,1.2,3.7,1.9,5.4,2.1c0.5,1.4,0.8,2.7,1.2,4
			C1166.8,348.2,1165,348.3,1163.2,348.5z M1556.8,413.7c0.3,0.1,0.7,0.1,1,0.1c0.3,1.1,0.6,2.2,0.7,3.1
			C1558.1,415.9,1557.5,414.8,1556.8,413.7z M1559.3,413.5c0.2,0,0.3-0.1,0.5-0.1c0,0.6,0,1.1,0,1.6
			C1559.6,414.5,1559.5,414,1559.3,413.5z M1562.3,412.8c0.1,0.1,0.3,0.1,0.5,0.1c-0.1,0.2,0,0.5,0,0.7c-0.2-0.1-0.4-0.2-0.6-0.4
			C1562.2,413.1,1562.2,413,1562.3,412.8z M1561.6,416c0-0.2,0-0.3,0-0.5c0.1-0.5,0.2-1,0.4-1.6c0.2,0.1,0.4,0.2,0.6,0.4
			C1562.2,414.8,1561.9,415.4,1561.6,416z M1562.6,418.3c0.3-0.2,0.5-0.5,0.5-0.9c0-0.1,0-0.3-0.1-0.4c0.2,0,0.4,0,0.6-0.1
			c0.7-0.1,1.6-0.2,2.3,0.3c0.3,0.3,0.5,0.7,0.7,1.1C1565.3,418.3,1564,418.3,1562.6,418.3z M1562.9,416.6c0.2-0.6,0.4-1.2,0.6-1.8
			c0.6,0.4,1.1,0.9,1.6,1.4c-0.5-0.1-1.1,0-1.5,0.1c-0.2,0-0.5,0.1-0.6,0.1L1562.9,416.6C1562.9,416.7,1562.9,416.7,1562.9,416.6z
			 M1567.4,418.3c-0.7-1.4-1.9-2.7-3.4-3.8l0,0c-0.1-0.1-0.2-0.1-0.2-0.2c0.4-1.1,1-2.2,1.7-3.3c-0.9,0.7-1.6,1.4-2.1,2.2l-0.2-0.1
			h-0.1c0.4-0.1,0.7-0.5,0.7-0.9c0-0.5-0.4-0.9-0.8-0.9c0.5-1.2,1-2.4,1.7-3.6c0.8,0,1.6,0.2,1.9,0.9l0,0c0.3,1.2,0.7,2.5,0.9,3.9
			c-0.7-1-1.5-1.9-2.4-2.5c1.3,1.8,2.3,4.3,2.9,6.4c0,0.7,0.1,1.4,0.1,2.2C1567.7,418.3,1567.6,418.3,1567.4,418.3z M1570.5,411.8
			c-0.1,0.5-0.2,1-0.3,1.4c-0.5-2.4-1-5.5-0.9-6.7c-0.4,0.8-0.9,4.3-0.7,7.5c-0.1-0.2-0.3-0.4-0.4-0.7c-0.2-1.2-0.4-2.5-0.6-3.6l0,0
			c-0.1-0.7-0.3-1.4-0.3-2c-0.1-2,0.6-3.7,2-5c1-0.6,2.2-0.3,3.1-0.1c0.1,0.5,0.5,0.8,1,0.8c0.6,0,1.1-0.5,1.1-1.1s-0.5-1.1-1.1-1.1
			c-0.5,0-0.9,0.3-1,0.7c-0.5-0.2-1.2-0.3-1.8-0.3c0.2-0.1,0.4-0.2,0.6-0.4c2.6,0,4.3-0.9,5.5-2.2c1.1,1.7,2,3.5,2.7,5.3
			c-0.8,0.6-1.4,1.4-2,2.5c-0.6-0.6-1.2-1.2-1.9-1.8c0.5,0.9,1,1.7,1.5,2.6c-1.3,0.6-2.9,1.5-4.5,3c0.3-1.4,0.7-2.7,1.2-3.8
			c-0.5,0.7-1,1.5-1.4,2.3l0,0c0-0.6-0.5-1.1-1.1-1.1s-1.1,0.5-1.1,1.1c0,0.5,0.3,0.9,0.7,1C1570.7,410.8,1570.6,411.2,1570.5,411.8
			z M1575.4,412c-0.8-0.1-2-0.3-3.2,0.1c0-0.1,0-0.1,0-0.2c1.5-1.6,3.3-2.7,4.9-3.4c0.4,0.8,0.8,1.6,1.1,2.4
			c-0.2-0.1-0.3-0.1-0.5-0.1c-0.7,0-1.2,0.4-1.5,1c-0.6-0.4-1.3-0.7-2-1C1574.7,411.1,1575.1,411.6,1575.4,412z M1571.1,412
			L1571.1,412c0.1-0.7,0.2-1.3,0.3-1.6c0.2,0,0.3-0.1,0.5-0.2C1571.6,410.8,1571.3,411.4,1571.1,412z M1571.9,418.3
			c0-1.4,0-3.4,0.2-5.5c1.2-0.5,2.6-0.2,3.4-0.1c0.2,0,0.3,0,0.4,0.1c1.5,2.1,2.3,4.1,2.7,5.4
			C1576.3,418.2,1574.1,418.2,1571.9,418.3z M1578.7,413.7c0.2-0.1,0.4-0.3,0.5-0.5c0.2,0.7,0.4,1.3,0.6,2
			C1579.4,414.7,1579.1,414.2,1578.7,413.7z M1578.5,408.5c0.8,0.1,1.5,0.1,2.2-0.1c0.8,2.4,1.3,4.7,1.6,6.6
			C1581.5,413,1580.2,410.7,1578.5,408.5z M1582.7,407.7c0.5-0.3,1-0.7,1.4-1c0.2,1.9,0.3,3.7,0.3,5.3
			C1584,410.4,1583.4,409,1582.7,407.7z M1587.4,413.5c0-0.3,0-0.6-0.1-0.8c0.1-0.3,0.2-0.7,0.2-1c0.1,0.2,0.3,0.3,0.5,0.5
			C1587.8,412.6,1587.6,413.1,1587.4,413.5z M1588.7,417.7c0.3-1.2,0.7-2.9,1.4-4.8c0.3,0,0.5,0,0.8-0.1l-0.1,0.2
			c0.6,0.3,1.3,0.7,1.9,1.2c-0.4,0-0.8,0-1.1,0.1c-0.1,0-0.1,0-0.2,0v0.3c0-0.4-0.3-0.7-0.7-0.7c-0.4,0-0.7,0.3-0.7,0.7
			s0.3,0.7,0.7,0.7c0.4,0,0.7-0.3,0.7-0.7v0.3c0,0,0.1,0,0.3,0c0.4-0.1,1.4-0.2,1.9,0.4c0.4,0.6,0.7,1.3,0.9,2.2
			C1592.5,417.5,1590.6,417.6,1588.7,417.7z M1595,413.5c-0.2,0.7-0.3,1.6-0.4,2.4c-0.1-0.3-0.3-0.6-0.4-0.8l0,0
			c-0.1-0.1-0.1-0.5-0.2-0.8c0-0.3-0.1-0.5-0.1-0.7c0.1-0.1,0.2-0.2,0.2-0.4c0-0.3-0.2-0.5-0.5-0.5s-0.5,0.2-0.5,0.5
			c0,0.2,0.1,0.4,0.3,0.4l-0.1,0.1c0,0,0,0.1,0.1,0.3c-0.8-0.8-1.7-1.3-2.4-1.6l0,0c-0.2-0.3-0.3-0.6-0.5-0.8c0.3-0.8,0.6-1.6,1-2.4
			c0.5,0.4,1.1,0.7,2,0.7l0,0c-0.2,0-0.4,0.1-0.5,0.1c-0.1-0.1-0.2-0.2-0.3-0.2c-0.3,0-0.5,0.2-0.5,0.5s0.2,0.5,0.5,0.5
			c0.2,0,0.3-0.1,0.4-0.3v0.1c0.3-0.1,0.8-0.2,1.2,0c0.6,0.6,0.8,1.3,0.8,2.2C1595.1,413,1595,413.2,1595,413.5L1595,413.5z
			 M1595.7,417.3c0.1-0.2,0.2-0.3,0.3-0.5c0.2-0.2,0.6-0.1,0.8-0.1c0.1,0,0.2,0,0.3,0c0,0.2,0.1,0.4,0.3,0.4
			C1596.8,417.2,1596.2,417.3,1595.7,417.3z M2390.2,413.4c1-0.2,1.8-0.9,2.9-2.3c0.5,0.9,0.9,1.9,1.3,2.8
			C2393,413.8,2391.6,413.6,2390.2,413.4z M2396,409.9c-0.2-0.3-0.6-0.5-0.9-0.5c-0.7,0-1.2,0.6-1.2,1.2c0,0.7,0.6,1.2,1.2,1.2
			c0.3,0,0.6-0.1,0.8-0.3c0,0.8,0,1.7,0,2.5c-0.9-1.7-2.1-3.4-3.6-4.4c0.2,0.3,0.4,0.6,0.6,0.9c-1.4-0.3-3.7-0.3-5,2l-0.1-0.1
			l-0.1,0.1c-0.2,0.1-0.5,0.2-0.7,0.4c-0.1,0-0.2,0-0.2,0c0.2-0.1,0.4-0.3,0.4-0.5c0-0.3-0.3-0.6-0.6-0.6s-0.6,0.3-0.6,0.6
			c0,0.2,0.1,0.4,0.3,0.5c-0.8-0.1-1.5-0.2-2.3-0.3c0.1-0.8,0.3-1.5,0.5-2.2l0,0c0.2-0.5,1.1-0.5,1.6-0.5c0.1,0,0.2,0,0.2,0v-0.3
			c0,0.5,0.4,1,1,1c0.5,0,1-0.4,1-1s-0.4-1-1-1c-0.5,0-1,0.4-1,1v-0.3h-0.2c-0.4,0-0.9,0-1.3,0.1c0.2-0.6,0.4-1.2,0.7-1.7
			c2,0.9,3.2,0.6,5-1.2c1.1,1,2.7,1.6,4.8,1.1v0.1c0.3,0.1,0.7,0.3,1.1,0.5C2396.2,408.7,2396.1,409.3,2396,409.9z M2397.8,414.1
			c-0.2-1-0.4-2.1-0.6-3.2c0.5-0.1,1.1-0.1,1.7,0C2398.4,411.9,2398.1,413,2397.8,414.1z M2397,410.3c-0.1-0.6-0.2-1.2-0.3-1.8
			c0.8,0.5,1.6,1.1,2.3,1.8C2398.3,410.1,2397.6,410.2,2397,410.3z M2399.3,414.5c0.1-1.1,0.2-2.2,0.4-3.3c0.2,0.1,0.3,0.2,0.4,0.4
			c0.6,0.9,1.1,2,1.4,3.2C2400.8,414.7,2400.1,414.6,2399.3,414.5z M2406.4,401.2L2406.4,401.2L2406.4,401.2c0.6-1,1.2-1.8,1.6-2.4
			c0.3-0.4,0.5-0.6,0.6-0.8h-0.1c0.3-0.1,0.6-0.3,0.9-0.4c0.5,1.4,0.9,2.7,1.2,4.1c-1.1-0.2-2.5-0.3-3.8,0.4
			c-0.2-0.2-0.3-0.4-0.5-0.7C2406.3,401.3,2406.4,401.3,2406.4,401.2z M2405.8,402.7c-0.2,0.2-0.4,0.3-0.5,0.5
			c0.1-0.3,0.3-0.5,0.4-0.8C2405.7,402.5,2405.8,402.6,2405.8,402.7z M2402.8,399.4h-0.2c0.3-0.5,0.5-0.9,0.6-1.3
			c0.8,1.2,1.5,2.4,2.2,3.6c-0.6,1.1-1.3,2.4-1.8,3.9c0.1-2-0.3-3.4-0.5-4.6C2402.9,400.4,2402.8,399.9,2402.8,399.4z M2403.5,407.7
			L2403.5,407.7c0.1-0.2,0.2-0.3,0.4-0.4c0.7,1.3,1.3,2.7,1.8,3.9c0,0.2-0.1,0.7-0.5,0.9l0,0c-0.2,0.1-0.3,0.3-0.5,0.4
			c-0.6-0.5-1.2-0.9-2-1.3C2403,410,2403.2,408.8,2403.5,407.7z M2402.5,414.9c0-1,0.1-2.1,0.2-3c0.4,0.5,0.8,1,1.1,1.5
			c-0.4,0.5-0.8,1-1.1,1.5C2402.7,415,2402.6,415,2402.5,414.9z M2403.4,415.1c0.1-0.3,0.3-0.5,0.5-0.7c0.1-0.1,0.2-0.1,0.3-0.2
			c0.2,0.4,0.4,0.7,0.6,1.1C2404.4,415.2,2403.9,415.1,2403.4,415.1z M2406.1,413.9L2406.1,413.9l-0.1-0.3c0,0-0.1,0-0.2,0
			c-0.2-0.2-0.4-0.4-0.6-0.6c0.3-0.2,0.6-0.5,0.9-0.7c0.2,0.4,0.3,0.9,0.5,1.3C2406.4,413.6,2406.2,413.7,2406.1,413.9z
			 M2407.5,410.8c-0.8-1.3-1.7-2.5-2.8-3.7c0.4,0,0.7,0,1,0c0.1,0,0.2,0,0.3,0v-0.6c-0.1,0-0.2,0-0.3,0c-0.4,0-1,0-1.5,0.1
			c-0.1-0.1-0.1-0.1-0.2-0.2c0.2-0.7,0.5-1.4,0.8-2c0.8,0.4,1.5,0.6,2.1,0.6c0.1,0.2,0.1,0.4,0.2,0.6c-0.6,0.1-1.1,0.6-1.1,1.2
			c0,0.7,0.6,1.2,1.2,1.2c0.3,0,0.5-0.1,0.7-0.2c0.2,0.7,0.4,1.4,0.6,2.1c-0.2,0.2-0.4,0.5-0.6,0.8l-0.1-0.1L2407.5,410.8
			C2407.6,410.7,2407.6,410.8,2407.5,410.8z M2407.8,411.3c0.1,0,0.1-0.1,0.2-0.1l0,0c0.3,0.1,0.6,0.2,0.9,0.3
			c0.3,1.3,0.6,2.5,0.8,3.5C2409.2,413.9,2408.6,412.6,2407.8,411.3z M2408.5,404.8c0.8-0.3,1.5-0.8,2.4-1.7
			c0.4,1.7,0.6,3.4,0.7,4.9c-0.4,0.1-0.8,0.2-1.2,0.4C2409.8,407.1,2409.2,405.9,2408.5,404.8z M2411.6,411.4c0.1,0,0.1-0.1,0.2-0.1
			c0,0.2,0,0.4,0,0.6C2411.8,411.7,2411.7,411.6,2411.6,411.4z M2469.2,422c0.3-1,0.5-2.2,0.6-3.6c0.7,1.1,1.3,2.5,1.7,3.8
			C2470.7,422.1,2470,422.1,2469.2,422z M2525.5,425.8c0.3-0.6,0.4-1.4,0.1-2.1l0.1,0.3c0.1-0.1,0.4-0.2,0.6-0.4
			c1.4-0.9,4.4-2.9,7.2-1.6l0,0c1.8,1.1,3.5,2.5,5.1,4.3C2534.3,426.1,2530,425.9,2525.5,425.8z M3074.4,400.7
			c2.4,1.4,4.8,3.3,6.9,5.8c-0.4,0.1-0.8,0.1-1.1,0.2c-2.2-0.6-4.6-0.3-5.9-0.1c-0.3,0-0.6,0.1-0.7,0.1
			C3075,404.7,3074.9,402.5,3074.4,400.7z M3066.6,410.8c-0.4-1-0.2-2.1-0.1-2.5c0.1,0.1,0.3,0.1,0.4,0.1c0.2,0,0.4-0.1,0.6-0.2
			c0.5,1.1,1.5,1.9,2.8,1.9c0.2,0,0.4,0,0.6,0c-0.1,0.3-0.1,0.5-0.2,0.8c-0.4,1.9-0.9,4.1-0.7,7.1
			C3069,415,3067.8,412.6,3066.6,410.8z M3065.1,420.6c0.9-0.1,1.6-0.8,1.6-1.7v0.3c0.1,0,0.2,0,0.4,0c1,0,2.6-0.1,3,0.9l0,0
			c0.1,0.4,0.2,0.8,0.3,1.2C3068.6,421.1,3066.8,420.8,3065.1,420.6z M3071.4,411c0.1-0.4,0.2-0.8,0.2-1.2c1.1-0.5,1.9-1.5,1.9-2.8
			v0.3c0.2,0,0.5,0,0.9-0.1c1-0.1,2.7-0.4,4.4-0.1c-2.7,0.9-3.9,2.3-4.4,5.4c-0.7,0.4-1.4,0.8-1.9,1.3l0,0l0,0
			c-0.9,0.8-1.5,1.8-1.9,2.9C3070.6,414.4,3071,412.6,3071.4,411z M3076.9,422.1l-0.1,0.1c-0.4-0.1-0.8-0.1-1.2-0.2
			c0.3-0.2,0.4-0.5,0.4-0.9c0-0.6-0.5-1.1-1.1-1.1s-1.1,0.5-1.1,1.1c0,0.3,0.1,0.5,0.2,0.7c-0.9-0.1-1.9-0.3-2.8-0.4
			c-0.1-0.6-0.2-1.2-0.3-1.8c-0.1-2.1,0.6-3.9,2-5.2c1-0.6,2.3-0.4,3.2-0.1c0.1,0.5,0.5,0.9,1.1,0.9s1.1-0.5,1.1-1.1
			s-0.5-1.1-1.1-1.1c-0.5,0-0.9,0.3-1.1,0.7c-0.6-0.2-1.2-0.3-1.9-0.3c0.2-0.1,0.4-0.3,0.6-0.4c4.2,0.1,6.3-2.5,7.3-4.8
			c0.5,0.3,1,0.7,1.4,1.3l0,0c1.1,1.7,2,3.6,2.8,5.8c-2.7,0.3-4.1,1.4-5.4,4.4c-1,0.5-2.3,1.1-3.5,2.1c-0.2,0-0.4,0-0.6,0
			C3076.8,421.8,3076.9,421.9,3076.9,422.1z M3084,423.2c-1.6-0.7-3.5-1.2-5.7-1.4c1.1-0.7,2.1-1.3,3.2-1.7c2.5,0.6,4.4,0,5.9-1
			c0.1,0.7,0.3,1.4,0.4,2.1l0,0c0,0.8,0,1.6,0,2.5C3086.5,423.5,3085.3,423.3,3084,423.2z M3089.3,423.9c-0.2,0-0.4-0.1-0.6-0.1
			c0.2-1.2,0.6-2.3,1.1-3.4C3089.5,421.5,3089.4,422.7,3089.3,423.9z"/>
	</g>
	<g>
		<line class="st1" x1="3894" y1="211.6" x2="3894" y2="340.5"/>
		<line class="st1" x1="3875.1" y1="220.3" x2="3893.5" y2="238.7"/>
		<line class="st1" x1="3921.1" y1="238.7" x2="3893.5" y2="266.3"/>
		<line class="st1" x1="3865.8" y1="266.3" x2="3893.5" y2="294"/>
	</g>
	<g>
		<line class="st1" x1="252.7" y1="249.2" x2="252.7" y2="342.2"/>
		<line class="st1" x1="227.4" y1="260.8" x2="252" y2="285.5"/>
		<line class="st1" x1="289" y1="285.5" x2="252" y2="322.5"/>
	</g>
	<g>
		<line class="st1" x1="91.2" y1="86.5" x2="91.2" y2="198.8"/>
		<line class="st1" x1="127.6" y1="103.2" x2="92.2" y2="138.6"/>
		<line class="st1" x1="39" y1="138.6" x2="92.2" y2="191.8"/>
	</g>
	<g>
		<line class="st1" x1="1091.2" y1="302.8" x2="1091.2" y2="377.5"/>
		<line class="st1" x1="1102.2" y1="307.8" x2="1091.5" y2="318.5"/>
		<line class="st1" x1="1075.5" y1="318.5" x2="1091.5" y2="334.5"/>
		<line class="st1" x1="1107.5" y1="334.5" x2="1091.5" y2="350.5"/>
	</g>
	<g>
		<line class="st1" x1="3291.1" y1="327.5" x2="3291.1" y2="397.1"/>
		<line class="st1" x1="3281" y1="343.9" x2="3291.1" y2="354.6"/>
		<line class="st1" x1="3274.1" y1="360.4" x2="3291.1" y2="378"/>
		<line class="st1" x1="3301.7" y1="354.6" x2="3291.1" y2="364.6"/>
		<line class="st1" x1="3298.5" y1="331.2" x2="3291.1" y2="339.5"/>
	</g>
</g>
</svg>
