<?xml version="1.0" encoding="utf-8"?>
<!-- Generator: Adobe Illustrator 24.0.2, SVG Export Plug-In . SVG Version: 6.00 Build 0)  -->
<svg version="1.1" id="Layer_4" xmlns="http://www.w3.org/2000/svg" xmlns:xlink="http://www.w3.org/1999/xlink" x="0px" y="0px"
	 viewBox="0 0 3969 1458" style="enable-background:new 0 0 3969 1458;" xml:space="preserve">
<style type="text/css">
	.st0{fill:#FFFFFF;}
	.st1{fill:none;stroke:#A4BFE0;stroke-miterlimit:10;}
</style>
<g>
	<g>
		<path class="st0" d="M512.9,1216.4c0,1.2,1,2.1,2.1,2.1s2.1-1,2.1-2.1s-1-2.1-2.1-2.1S512.9,1215.3,512.9,1216.4z"/>
		<circle class="st0" cx="397.2" cy="1179.2" r="3.6"/>
		<path class="st0" d="M3969.1,969.7c-3.6,5.2-6.3,11-8,17.2l-3.7,1.8c-8.9-6.1-19.6-9.7-31.2-9.7c-13.8,0-26.4,5.1-36,13.4
			c-6.1-1.6-12.5-2.4-19.1-2.4c-42.6,0-77.2,34.6-77.2,77.2l-17.3,60.6c-34.4-14-76.9-23.1-129.8-23.4c0-2-0.4-4.3-1.1-6.8
			c-0.9,1-1.9,2.4-2.9,4.1c-0.2-4.1-1.5-8.3-4.1-12.4c-1.2,3.6-2.4,9.2-2.5,15.2c-0.3,0-0.7,0-1,0c-1.5-2.1-3.7-3.4-6.7-3.6
			c0.1,1.1,0.4,2.4,0.7,3.8c-36.1,1.1-76.8,6-122.7,16c1.1-3.2,0.9-7-1.1-11.6c-1.5,1-3.1,2.5-4.6,4.3c-0.4-4.3-2.4-8.6-6.7-12.9
			c-1.3,2.6-2.6,6.1-3.3,10c0-0.1,0-0.1-0.1-0.2c-1.5,1-3.1,2.5-4.6,4.2c0,0,0,0,0,0c-0.4-4.3-2.4-8.6-6.7-12.9
			c-2.1,4.1-4.1,10.7-4.1,17.5c-2.5-3.2-6.3-5.2-12.3-5.5c0.8,4.4,3.4,10.9,8.3,15.4c-36.4,9.4-75.9,21.8-118.6,37.5
			c-8.3,3.1-16,6-23.4,9c-3-3-7.1-4.8-11.7-4.8c-3.2,0-6.2,0.9-8.8,2.6c1.9-4,2.9-8.8,2.9-14c0-14.2-8.2-25.8-18.3-25.8
			c-9.3,0-16.9,9.7-18.1,22.2c-1.1-0.6-2.4-0.9-3.7-0.9c-5.1,0-9.3,5.1-9.3,11.4c0,0.3,0,0.5,0,0.8c-1.3-0.3-2.6-0.5-4-0.5
			c-8.7,0-15.7,7-15.7,15.7c0,8.7,7,15.7,15.7,15.7c1,0,2-0.1,2.9-0.3c-1.6,1.9-2.6,4.4-2.6,7.2c0,0.1,0,0.3,0,0.4
			c-33.8,14.3-66.6,26.7-116.5,37.7c1.4-3.4,1.3-7.4-0.8-12.4c-1.5,1-3.1,2.5-4.6,4.3c-0.4-4.3-2.4-8.6-6.7-12.9
			c-2.1,4.1-4.1,10.7-4.1,17.5c-1.1-1.5-2.6-2.7-4.4-3.6c-0.7-0.9-1.6-1.9-2.5-2.8c-0.3,0.5-0.5,1.1-0.8,1.6
			c-1.4-0.3-2.9-0.6-4.6-0.6c0.4,2.1,1.2,4.6,2.4,7.2c-0.6,2.3-1,4.8-1.1,7.4c-0.5,0.1-1,0.2-1.5,0.3c-1.9-1.8-4.5-3-8-3.5
			c-0.2-0.8-0.5-1.6-0.9-2.5c-1.5,1-3.1,2.5-4.6,4.3c-0.1-1.1-0.3-2.2-0.6-3.3c0.2,0,0.3,0.1,0.5,0.1c1.1,0,2.1-0.9,2.1-2
			c0-1.1-0.9-2.1-2-2.1c-0.7,0-1.3,0.3-1.7,0.8l-0.1-0.3c-0.1,0-0.2,0-0.4,0c-0.5-0.9-1-1.8-1.7-2.7c1.8-1.4,4-2.6,6.4-3.8
			c7.9,3.3,11.5,1.5,18.5-6.7c-4.3-1.3-13-2.7-18.2,5.9l-0.2,0.1c-1.6,0.7-3.1,1.5-4.5,2.3c0.1-0.2,0.2-0.4,0.2-0.6
			c0.1-0.3,0.2-0.9,0-1.3c0.1,0,0.2,0,0.3,0c1,0,1.8-0.8,1.9-1.8c0-1-0.8-1.8-1.8-1.9c-1,0-1.8,0.8-1.9,1.8c0,0.8,0.5,1.6,1.3,1.8
			l-0.4,0.2c0.1,0.1,0.1,0.4-0.1,0.9c-0.2,0.7-0.7,1.5-1.4,1.9l0,0c-0.3,0.2-0.5,0.4-0.8,0.6c-0.7-0.9-1.5-1.8-2.4-2.8
			c-1.1,2.3-2.3,5.2-3,8.6c-0.8,1.3-1.4,2.6-1.8,4c0-1.4,0-2.7,0-4.1c1-1,1.7-2.1,2.2-2.9c-0.7-0.1-1.4-0.1-2-0.1
			c0.5-5.7,1.5-10.9,3-15.3l0.1,0c0.9-2,4-1.9,5.8-1.7c0.3,0,0.5,0,0.7,0l0-0.3c0,1.7,1.3,3.2,3,3.2c1.7,0,3.2-1.3,3.2-3
			s-1.3-3.2-3-3.2c-1.7,0-3.2,1.3-3.2,3l0-0.3c-0.2,0-0.4,0-0.7,0c-1.5-0.1-4-0.2-5.5,1c0.9-2.6,1.8-4.9,2.9-7
			c7.6,4,11.3,2.5,19-5.2c-4.2-1.6-12.6-3.8-18.5,4.3c1.3-2.6,2.7-5,4-6.9l0,0c0-0.1,0.1-0.2,0.1-0.2c1.6-2.5,3.1-4.4,4.2-5.8
			c0.5-0.7,0.9-1.2,1.2-1.6c7.8-2.7,9.2-6.5,9-17.2c-4.2,1.9-11.8,6.7-9.6,16.9c-0.3,0.4-0.7,0.9-1.1,1.5c-0.9,1.1-2,2.5-3.2,4.3
			c0.2-1.6-0.1-3-0.1-3.3l-0.3,0.1c0.5-0.4,0.8-0.9,0.8-1.6c0-1.1-0.9-2.1-2-2.1c-1.1,0-2.1,0.9-2.1,2s0.9,2.1,2,2.1
			c0.4,0,0.7-0.1,1-0.3c0.1,0.6,0.5,2.8-0.4,4.7c-2.5,3.8-5.3,8.8-7.4,15c0.9-6.6,0.1-11.2-0.6-15c-0.3-1.5-0.5-2.8-0.6-4.1
			c4.3-7,3.1-10.8-3.7-18.9c-2,4.1-5.1,12.7,3.2,19.3c0.1,1.2,0.3,2.5,0.6,3.8c0.6,3.3,1.3,7.1,0.9,12.3c-0.5-2.6-1.7-4.9-3.6-6.9
			l0,0c0,0,0,0,0,0c-0.9-0.9-2-1.7-3.2-2.4c-1.2-8.2-4.6-10.3-15.1-12.2c1.1,4.5,4.3,12.9,14.8,12.7c0.6,0.3,1.1,0.7,1.6,1.1
			c-1.5-0.4-3.1-0.1-4.4,0.3c-0.2-0.9-1-1.6-2-1.7c-1.1,0-2.1,0.9-2.1,2s0.9,2.1,2,2.1c1.1,0,2-0.8,2.1-1.9c1.7-0.5,4-0.9,5.9,0.4
			c2.6,2.6,3.8,5.9,3.6,9.8c-0.2,1.2-0.4,2.5-0.8,3.9l0.1,0c-1,3.7-1.7,7.9-2.1,12.4c-0.4,0-0.7,0-1,0c-0.7-2-1.5-3.7-2.4-5.3
			c-0.3-0.8-0.5-2.3-0.6-3.6c-0.1-1-0.2-2-0.4-2.6c0.9-0.2,1.6-1,1.7-2c0-1.1-0.9-2.1-2-2.1c-1.1,0-2.1,0.9-2.1,2
			c0,1.1,0.8,2,1.9,2.1c0.2,0.6,0.3,1.6,0.4,2.7c0.1,0.7,0.2,1.4,0.3,2c-0.3-0.5-0.6-0.9-1-1.3c0.1-0.3,0.2-0.5,0.2-0.7
			c-0.3,0-0.5,0.1-0.7,0.1c-2.4-2.9-5.2-5-7.9-6.5c-0.2-0.5-0.4-1-0.6-1.4c-0.2,0.3-0.4,0.5-0.7,0.8c-0.3-0.1-0.5-0.3-0.8-0.4
			c-3.1-8.1-6.8-9.3-17.7-8.7c2.1,4,7,11.3,16.9,9c0.4,0.2,0.8,0.4,1.1,0.6c-1.3,1.6-2.1,2.9-2.4,4.2c-1.3,0.1-2.4,1.1-2.7,2.3
			c-0.1-0.1-0.3-0.1-0.5-0.1c-0.6,0-1.1,0.5-1.1,1.1c0,0.4,0.2,0.7,0.5,0.9l-0.3-0.1c-0.1,0.2-0.2,0.7-0.2,1.3c-0.5-0.8-1-1.4-1.4-2
			c-0.3-0.4-0.5-0.7-0.6-0.9c1.2-5.4-2.8-8.1-5-9.2c-0.3,5.7,0.4,7.8,4.4,9.4c0.1,0.3,0.4,0.6,0.7,1.1c0.6,0.8,1.4,1.9,2.2,3.3
			c0,0,0,0.1,0,0.1l0,0c0.6,0.9,1.2,2,1.8,3.2c-3.1-3.8-7.4-2.8-9.6-2c4,4.2,6,5.2,10.1,3.2c0.5,1.1,0.9,2.2,1.3,3.5
			c-0.8-0.5-2-0.4-2.7-0.4c-0.1,0-0.3,0-0.4,0v0.3c0-0.9-0.8-1.7-1.7-1.7c-0.9,0-1.7,0.8-1.7,1.7c0,0.7,0.5,1.3,1.1,1.6
			c-4.2-0.6-8.3-1.2-12.3-1.8c0.4-1.7,1.3-4.7,2.7-6.7c-1.2,0.8-2.1,2.1-2.8,3.4c0.1-2.5-0.3-5.3-0.6-5.9c0.1,1-0.5,3.9-0.9,5.9
			c-0.6-2.2-1.5-4.1-2.6-5.5c1.3,2.4,1.4,6.3,1.4,8.4c-1.7-0.2-3.3-0.5-4.9-0.7c0.5-1.4,1.4-3.1,3.1-4.9c-2.1,0.8-3.5,2.2-4.3,3.5
			c0.6-2.2,1.7-5,3.4-7.7c-2.7,2.2-4.4,5.2-5.4,7.6c0.7-3.7,2.2-9.4,5.4-13.8c-2,1.7-5.3,6-7.1,11.4c0-3.2,0.4-7.2,2-11.4
			c-2.1,2.8-3.1,5.2-3.7,7.8c-1.8-3.6-4.1-6.5-5.6-7.7c2.7,3.7,4.2,8.4,5,12c0,0.2,0,0.4,0,0.6c-0.9-2.1-2.4-4.4-4.9-6.4
			c1.7,2.6,2.8,5.5,3.4,7.7c-102.1-15.7-169.2-32.1-212.5-29.9c-53.7,2.8-84.6,17.2-132.4,28c-0.1-1.8-0.6-3.8-1.5-6
			c-1.3,0.9-2.8,2.3-4.2,3.8c-0.3-3.9-2.1-7.7-6-11.6c-1.6,3.1-3.1,7.8-3.6,12.9c-0.2-1.6-0.6-3.3-1.4-5.1c-1.3,0.9-2.8,2.3-4.2,3.8
			c-0.3-3.9-2.1-7.7-6-11.6c-1.9,3.7-3.7,9.6-3.7,15.8c-2.2-2.9-5.7-4.7-11.1-4.9c0.5,2.8,1.8,6.5,4.1,9.8
			c-21.4,3-46.5,5.1-77.1,5.5c-0.6-3.3-2.6-6-7.3-7.6c-0.1,1.2-0.1,2.6,0.1,4.1c-2.3-1.7-5.2-2.6-9.2-2.3c0.7,1.7,1.8,3.8,3.3,5.8
			c-6.8,0-13.8-0.2-21.1-0.4c0-0.8,0.2-1.6,0.4-2.4c0.6-1.2,2-1.6,3-1.9c0.4-0.1,0.7-0.2,0.9-0.3c0,0.2,0,0.5,0.1,0.7
			c0.4,0.8,1.4,1.2,2.2,0.8c0.8-0.4,1.2-1.4,0.8-2.2c-0.4-0.8-1.4-1.2-2.2-0.8c-0.5,0.2-0.8,0.6-0.9,1.1l-0.2-0.3
			c-0.1,0.1-0.5,0.2-0.9,0.3c-0.7,0.2-1.7,0.5-2.5,1.1c0.8-2.4,2.3-4.9,4.4-7.5c6.7-0.4,8.6-2.9,10.7-11.2
			c-3.5,0.6-10.1,2.5-10.9,10.4l-0.2,0.2c-0.9,1-1.6,2.1-2.3,3.1c0-0.1,0-0.2,0-0.3c0-0.3-0.2-0.7-0.4-0.9c0.1,0,0.1,0,0.2,0
			c0.7-0.3,1-1.2,0.7-1.9c-0.3-0.7-1.2-1-1.9-0.7c-0.7,0.3-1,1.2-0.7,1.9c0.3,0.6,0.9,0.9,1.6,0.8l-0.2,0.4c0.1,0,0.2,0.3,0.3,0.7
			c0.1,0.5,0,1.3-0.3,1.8l0,0c-1.4,2.5-2.1,4.9-2.3,7.3c-0.4,0-0.7,0-1.1,0c-2.2-5-3.5-9.8-4.1-14.1l0.1,0c-0.1-1.7,2.2-2.6,3.5-3.2
			c0.2-0.1,0.4-0.2,0.5-0.2l-0.1-0.3c0.6,1.2,2,1.8,3.3,1.2c1.2-0.6,1.8-2,1.2-3.3c-0.6-1.2-2-1.8-3.3-1.2c-1.2,0.6-1.8,2-1.2,3.3
			l-0.1-0.3c-0.1,0.1-0.3,0.1-0.5,0.2c-1.1,0.4-2.8,1.2-3.5,2.4c-0.2-2-0.4-3.9-0.4-5.7c6.7,0.2,8.8-2.2,11.6-10.3
			c-3.5,0.3-10.1,1.6-11.6,9.1c0-2.2,0.2-4.2,0.4-5.9l0,0c0-0.1,0-0.1,0-0.2c0.3-2.3,0.7-4.2,1-5.6c0.1-0.7,0.3-1.2,0.3-1.7
			c4.5-4.6,4.2-7.8,0.4-15.3c-2.3,2.8-6,8.8-1,15.3c-0.1,0.4-0.2,0.9-0.3,1.5c-0.2,1-0.5,2.3-0.7,3.9c-0.4-1.1-1-1.9-1.2-2.1
			l-0.2,0.2c0.2-0.4,0.3-1,0-1.4c-0.4-0.8-1.4-1.2-2.2-0.8c-0.8,0.4-1.2,1.4-0.8,2.2c0.4,0.8,1.4,1.2,2.2,0.8
			c0.2-0.1,0.5-0.3,0.6-0.5c0.3,0.4,1.3,1.8,1.3,3.4c-0.4,3.4-0.7,7.7-0.1,12.7c-1.6-4.7-3.7-7.5-5.5-9.9c-0.7-1-1.4-1.9-1.9-2.7
			c0.6-6.4-1.6-8.6-9.2-12.1c0,3.6,0.8,10.7,8.9,12.6c0.5,0.8,1.1,1.7,1.8,2.6c1.5,2,3.3,4.4,4.8,8.1c-1.2-1.6-2.8-2.7-4.8-3.4l0,0
			c0,0,0,0,0,0c-1-0.3-2-0.5-3.2-0.6c-3.7-5.4-6.8-5.7-14.9-3.4c2.3,2.8,7.5,7.7,14.8,4c0.5,0,1,0.1,1.4,0.2c-1.1,0.3-2.1,1-2.9,1.7
			c-0.5-0.6-1.2-0.8-1.9-0.5c-0.8,0.4-1.2,1.4-0.8,2.2c0.4,0.8,1.4,1.2,2.2,0.8c0.8-0.3,1.1-1.2,0.9-2c1-0.9,2.6-2,4.3-1.8
			c2.8,1,4.8,2.9,6,5.9c0.3,0.9,0.5,1.8,0.7,2.8l0.1,0c0.7,3.6,1.8,7.4,3.6,11.4c-1.6-1.9-3.2-3.3-5-4.5c-0.5-0.4-1.1-1.4-1.7-2.3
			c-0.5-0.7-0.9-1.3-1.2-1.7c0.6-0.5,0.8-1.2,0.4-1.9c-0.4-0.8-1.4-1.2-2.2-0.8c-0.8,0.4-1.2,1.4-0.8,2.2c0.3,0.8,1.2,1.1,2,0.9
			c0.3,0.4,0.8,1.1,1.2,1.8c0.3,0.4,0.5,0.8,0.8,1.1c-3.9-2.1-7.9-2.7-11.3-2.7c-4.9-4.6-8.1-4.2-15.5,0c2.9,2.1,8.9,5.6,15.1,0.6
			c3-0.1,6.7,0.4,10.3,2.1c-2.3,0-4.5,1.4-5.6,2.1c-0.2,0.2-0.5,0.3-0.6,0.4l0.1,0.3c-0.6-1.2-2-1.8-3.3-1.2
			c-1.2,0.5-1.7,1.9-1.3,3.1c-6.6-0.3-13.4-0.7-20.5-1.2c0.4-1.7,1.3-4.5,2.6-6.3c-1.2,0.8-2.1,2.1-2.8,3.4c0.1-2.5-0.3-5.3-0.6-5.9
			c0.1,1-0.5,3.9-0.9,5.9c-0.6-2.2-1.5-4.1-2.6-5.5c1.2,2.3,1.4,6,1.4,8.2c-1.7-0.1-3.3-0.2-5-0.3c0.5-1.4,1.4-3.3,3.2-5.1
			c-2.1,0.8-3.5,2.2-4.3,3.5c0.6-2.2,1.7-5,3.4-7.7c-2.7,2.2-4.4,5.2-5.4,7.6c0.3-1.6,0.8-3.7,1.5-5.8c0.3-0.6,0.7-1.2,1.1-1.8
			c-0.2,0.2-0.4,0.4-0.6,0.5c0.9-2.3,2-4.6,3.5-6.7c-2,1.6-5.1,5.8-7,11c0,0.1-0.1,0.2-0.1,0.3c0-0.8,0-1.6,0.1-2.4
			c0.9-2.9,2.2-6.1,4.2-8.8c-1,0.8-2.3,2.3-3.6,4.2c0.3-1.4,0.7-2.8,1.2-4.3c-1.9,2.5-2.9,4.6-3.5,6.9c-0.6-2.3-1.6-4.4-3.5-6.9
			c0.5,1.5,0.9,2.9,1.2,4.3c-1.3-1.9-2.6-3.4-3.6-4.2c2,2.7,3.3,5.9,4.2,8.8c0.1,0.8,0.1,1.6,0.1,2.4c0-0.1-0.1-0.2-0.1-0.3
			c-1.8-5.1-5-9.3-7-11c1.5,2.1,2.6,4.4,3.5,6.7c-0.2-0.2-0.4-0.4-0.6-0.5c0.4,0.6,0.7,1.2,1.1,1.8c0.7,2.1,1.2,4.2,1.5,5.8
			c-1-2.4-2.7-5.4-5.4-7.6c1.7,2.7,2.8,5.6,3.4,7.7c-0.8-1.3-2.2-2.7-4.3-3.5c1.4,1.4,2.2,2.8,2.8,4.1c-1.5-0.1-3.1-0.2-4.6-0.4
			c0.1-2.1,0.4-4.8,1.4-6.5c-1,1.4-2,3.3-2.6,5.5c-0.4-2-0.9-4.9-0.9-5.9c-0.3,0.6-0.7,3.4-0.6,5.9c-0.7-1.2-1.6-2.5-2.6-3.2
			c0-0.3,0-0.7,0-1c-1.1,0.3-2.5,0.9-3.8,1.6c0.7-2.7,0.5-5.8-1.2-9.4c-2.2,2.1-4.9,5.7-6.4,9.9c-0.8-2.5-2.7-4.6-6.4-6.1
			c-0.3,1.9-0.4,4.6,0.2,7.3c-2.7-0.3-5.4-0.5-8.2-0.8c0-0.1,0.1-0.2,0.1-0.4c0-0.7-0.6-1.2-1.2-1.2s-1.2,0.6-1.2,1.2
			c0,0,0,0.1,0,0.1c0,0,0,0,0,0v-0.4c-0.1,0-0.2,0-0.3,0c-0.5-0.1-1.5-0.2-2.5,0c1.2-1.3,2.6-2.1,3.9-2.6l0-0.1
			c3.7,0.9,5.7-1.9,6.6-3.4c-4.1-0.4-5.7,0.1-6.9,3c-1.3,0.5-3,1.5-4.4,3.2c0,0,0,0,0,0c0,0,0-0.1,0-0.1c0.1-0.4,0.1-1,0.2-1.1
			c0.3-0.1,0.5-0.4,0.5-0.8c0-0.5-0.4-0.8-0.8-0.8c-0.5,0-0.8,0.4-0.8,0.8c0,0.3,0.2,0.6,0.5,0.7c-0.1,0.2-0.1,0.6-0.2,1.1
			c0,0,0,0.1,0,0.1c-0.6-0.1-1.2-0.1-1.7-0.2c-0.1-0.5-0.2-0.9-0.3-1.4l0,0c-0.1-0.5-0.2-1-0.2-1.5c0-1.5,0.4-2.7,1.4-3.7
			c0.7-0.4,1.6-0.2,2.2,0c0.1,0.3,0.4,0.5,0.8,0.5c0.5,0,0.8-0.4,0.8-0.8s-0.4-0.8-0.8-0.8c-0.3,0-0.6,0.2-0.7,0.5
			c-0.3-0.1-0.7-0.2-1.1-0.2c0.1-0.1,0.2-0.1,0.3-0.2v0c3.9,0,5.1-3.2,5.6-4.9c-4,0.6-5.4,1.4-6,4.4c-1.3,0.7-2.2,1.6-2.7,2.7
			c0-1.5,0.3-2.7,0.5-3.7c0.1-0.6,0.2-1.2,0.3-1.7l0,0c3.1-2.5,2-5.8,1.3-7.4c-2.8,3.1-3.3,4.6-1.7,7.4l-0.2,0c0,0.5-0.2,1-0.3,1.6
			c-0.3,1.2-0.6,2.6-0.5,4.6c-0.7-1.9-1.5-3.5-2.3-4.7c-0.3-0.7-0.2-1.5-0.1-1.7c0.1,0,0.1,0,0.2,0c0.5,0,0.8-0.4,0.8-0.8
			c0-0.5-0.4-0.8-0.8-0.8c-0.5,0-0.8,0.4-0.8,0.8c0,0.3,0.1,0.5,0.3,0.6l-0.3-0.1c0,0.1-0.1,0.4-0.1,0.7c-0.3-0.5-0.6-0.9-0.8-1.2
			c-0.2-0.3-0.4-0.6-0.5-0.7c0.8-3.8-2.1-5.7-3.7-6.5c-0.2,4.1,0.3,5.6,3.2,6.8l-0.1,0c0.1,0.2,0.3,0.4,0.6,0.8
			c0.4,0.6,1,1.4,1.6,2.3c0,0,0,0,0,0.1l0,0c0.4,0.6,0.7,1.2,1.1,2c-2.2-2.4-5.2-1.7-6.7-1.2c2.9,3,4.3,3.7,7.2,2.3
			c0.3,0.7,0.6,1.5,0.9,2.3c-0.6-0.2-1.3-0.2-1.8-0.2c-0.1,0-0.2,0-0.3,0v0.3c0-0.7-0.6-1.2-1.2-1.2c-0.7,0-1.2,0.6-1.2,1.2
			s0.6,1.2,1.2,1.2c0.7,0,1.2-0.5,1.2-1.2v0.3c0.1,0,0.2,0,0.3,0c0.7,0,1.8-0.1,2.1,0.6l0,0c0.2,0.8,0.4,1.6,0.6,2.4
			c-1-0.1-1.9-0.2-2.9-0.3c-0.1-0.1-0.2-0.1-0.4-0.1c-0.1,0-0.2,0-0.3,0.1c-0.8-0.1-1.5-0.2-2.3-0.3c-2-2-4.6-1.6-6.1-1.2
			c0.2,0.2,0.3,0.4,0.5,0.5c-2.4-0.3-4.7-0.5-7.1-0.8c0.7-3,2.2-7.4,4.7-11.2c-3.2,2.5-5.1,5.5-6.3,8.2c0-0.3,0-0.6-0.1-0.8
			c1-4.6,3-10.5,6.4-15.2c-1.9,1.6-4.8,5.2-7.1,9.8c-0.7-3.3-2-6.3-4.5-9.8c2-1.1,2.4-2.7,2.2-6.3c-1.6,0.8-4.4,2.7-3.7,6.5
			c-0.1,0.2-0.3,0.4-0.5,0.7c-0.2,0.3-0.5,0.7-0.8,1.2c0-0.3-0.1-0.6-0.1-0.7l-0.3,0.1c0.2-0.1,0.3-0.4,0.3-0.6
			c0-0.5-0.4-0.8-0.8-0.8c-0.5,0-0.8,0.4-0.8,0.8c0,0.5,0.4,0.8,0.8,0.8c0.1,0,0.2,0,0.2,0c0.1,0.2,0.2,1-0.1,1.7
			c-0.9-1.2-1.8-2.2-2.6-2.9c0.6-1.9-0.2-3.4-2.4-5.9c-0.7,1.6-1.8,4.9,1.3,7.4l0,0c0.1,0.5,0.2,1.1,0.3,1.7c0.2,1,0.5,2.2,0.5,3.7
			c-0.5-1.1-1.4-2.1-2.7-2.7c-0.6-3-2-3.8-6-4.4c0.5,1.7,1.7,4.8,5.6,4.9v0c0.1,0.1,0.2,0.1,0.3,0.2c-0.4,0-0.8,0.1-1.1,0.2
			c-0.1-0.3-0.4-0.5-0.7-0.5c-0.5,0-0.8,0.4-0.8,0.8s0.4,0.8,0.8,0.8c0.4,0,0.6-0.2,0.8-0.5c0.6-0.2,1.5-0.4,2.2,0
			c1,1,1.5,2.2,1.4,3.7c-0.1,0.5-0.1,1-0.2,1.5l0,0c-0.2,0.7-0.3,1.4-0.4,2.2c-0.2-0.1-0.4-0.2-0.6-0.3c0.2,0.2,0.4,0.4,0.5,0.6
			c-0.1,0.8-0.2,1.6-0.2,2.5c-0.3-0.8-0.7-1.5-1.1-2.2l0,0c-0.1-0.3-0.2-0.9-0.3-1.4c-0.1-0.4-0.1-0.8-0.2-1.1
			c0.3-0.1,0.5-0.4,0.5-0.7c0-0.2-0.1-0.4-0.2-0.5c0.1-0.3,0.2-0.6,0.4-0.8c-0.2,0.2-0.3,0.5-0.5,0.7c-0.1-0.1-0.3-0.2-0.5-0.2
			c-0.5,0-0.8,0.4-0.8,0.8c0,0.3,0.2,0.6,0.5,0.8c-0.1,0.2-0.2,0.4-0.3,0.6c-0.9-0.9-1.8-1.6-2.7-2c0-0.5-0.1-0.9-0.1-1.2
			c-0.1,0.2-0.2,0.5-0.3,1c-0.3-0.1-0.5-0.3-0.8-0.4c-1.3-2.9-2.8-3.3-6.9-3c0.2,0.4,0.5,0.8,0.8,1.3c-1.1-0.1-2.4,0.1-3.5,1.1
			c0.3-0.5,0.5-1,0.8-1.4l0,0c0,0,0,0,0,0c0.5-0.8,0.9-1.4,1.2-1.8c0.2-0.3,0.4-0.5,0.4-0.6l-0.1-0.1c2.3-0.9,2.7-2.1,2.5-5.3
			c-1.2,0.6-3.5,2.1-2.9,5.1l0,0c-0.1,0.1-0.2,0.3-0.4,0.6c-0.2,0.2-0.4,0.5-0.6,0.8c0-0.2-0.1-0.3-0.1-0.4l-0.3,0.1
			c0.2-0.1,0.3-0.3,0.3-0.5c0-0.4-0.3-0.6-0.6-0.6s-0.6,0.3-0.6,0.6s0.3,0.6,0.6,0.6c0,0,0.1,0,0.1,0c0,0.2,0.2,0.8-0.1,1.3
			c-0.6,0.9-1.2,2-1.7,3.4c0-1.4-0.2-2.4-0.4-3.3c-0.1-0.5-0.2-0.9-0.2-1.3l-0.2,0c1.2-2.2,0.8-3.3-1.3-5.8c-0.6,1.3-1.4,3.9,1,5.8
			l-0.1,0c0,0.4,0.1,0.9,0.2,1.3c0.2,0.7,0.3,1.6,0.4,2.6c-0.4-0.8-1.1-1.4-2-1.9c-0.5-2.3-1.6-2.9-4.7-3.4c0.4,1.3,1.4,3.8,4.4,3.8
			l0,0.1c0,0,0.1,0,0.1,0c-0.3,0-0.5,0.1-0.7,0.1c-0.1-0.2-0.3-0.3-0.5-0.3c-0.4,0-0.6,0.3-0.6,0.6s0.3,0.6,0.6,0.6
			c0.3,0,0.5-0.2,0.6-0.4l0,0c0.5-0.2,1.2-0.3,1.8,0c0.8,0.7,1.1,1.7,1.1,2.8c0,0.4-0.1,0.8-0.2,1.2l0,0c-0.1,0.4-0.2,0.9-0.3,1.3
			c-0.4-0.1-0.8-0.1-1.2-0.2c0,0,0,0,0-0.1c-0.1-0.4-0.1-0.7-0.2-0.9c0.2-0.1,0.3-0.3,0.3-0.5c0-0.4-0.3-0.6-0.6-0.6
			c-0.4,0-0.6,0.3-0.6,0.6c0,0.3,0.2,0.5,0.4,0.6l0,0c0,0.1,0.1,0.4,0.2,0.7c0,0,0,0,0,0c-1.1-1.3-2.4-2-3.4-2.4
			c-1-2.2-2.2-2.5-5.4-2.3c0.7,1.2,2.2,3.4,5.2,2.7l0,0.1c0.9,0.4,1.9,0.9,2.7,1.8c-0.8-0.1-1.6-0.2-2.3-0.3
			c-0.1-0.1-0.3-0.1-0.4-0.1c-0.1,0-0.1,0-0.2,0c-29-3.9-60.6-8.6-95-14.4c-132.4-22.1-228.2,26.9-242.7,33.1l-337.5,20.2
			c-11-9.4-2.4-50-41.2-42.2c-22.9,4.6-44,7.3-63.3,8.8c0.1-0.1,0.2-0.2,0.2-0.4c0-0.3-0.2-0.5-0.5-0.5c-0.2,0-0.3,0.1-0.4,0.2
			l-0.1-0.3c0,0-0.1,0-0.2,0c-0.1,0-0.1,0-0.2,0c0.4-0.4,1-0.7,1.6-1.1l0.1,0l0,0c1.6,0.6,2.4,0.1,3.9-1.8c-1-0.3-2.9-0.5-4.1,1.4
			l-0.1-0.2l-0.1,0c-0.2,0.1-0.4,0.2-0.6,0.3c0,0,0,0,0,0c0.2-0.1,0.3-0.2,0.3-0.4c0-0.2-0.2-0.4-0.4-0.4s-0.4,0.2-0.4,0.4
			c0,0.2,0.1,0.3,0.3,0.4l-0.3,0.1c0,0.1-0.1,0.3-0.2,0.4l0,0c-0.4,0.3-0.8,0.7-1,1c0,0,0,0,0,0l0,0c-0.1,0.2-0.3,0.3-0.4,0.5
			c0-1.5,0.3-2.8,0.6-3.9l0,0c0.1-0.3,0.8-0.3,1.1-0.3l0.2,0v-0.3c0,0.4,0.3,0.7,0.7,0.7c0.4,0,0.7-0.3,0.7-0.7
			c0-0.4-0.3-0.7-0.7-0.7c-0.4,0-0.7,0.3-0.7,0.7v-0.3l-0.1,0c-0.2,0-0.6,0-0.9,0.1c0.1-0.4,0.3-0.7,0.4-1.1
			c1.6,0.7,2.4,0.3,4.1-1.4c-0.8-0.3-2.4-0.6-3.6,0.4c0.2-0.3,0.3-0.6,0.5-0.9l0,0c0,0,0,0,0,0c0.4-0.6,0.7-1,0.9-1.4
			c0.2-0.2,0.3-0.4,0.3-0.5l-0.1-0.1c1.7-0.7,2-1.5,1.8-3.9c-0.9,0.5-2.6,1.6-2.1,3.8l-0.1-0.1c-0.1,0.1-0.2,0.2-0.3,0.4
			c-0.1,0.1-0.2,0.3-0.3,0.4c0,0,0-0.1,0-0.1l-0.3,0.1c0.1-0.1,0.2-0.2,0.2-0.4c0-0.3-0.2-0.5-0.5-0.5c-0.3,0-0.5,0.2-0.5,0.5
			c0,0.3,0.2,0.5,0.5,0.5c0,0,0,0,0,0c0.1,0.3,0.1,0.7-0.1,1c-0.4,0.6-0.7,1.3-1.1,2.1c0-0.8-0.2-1.5-0.3-2.1
			c-0.1-0.3-0.1-0.6-0.2-0.9l-0.2,0c0.9-1.6,0.6-2.5-1-4.3c-0.4,0.9-1,2.8,0.7,4.3l-0.1,0c0,0.3,0.1,0.6,0.2,1
			c0.1,0.5,0.2,1,0.3,1.6c-0.3-0.5-0.8-0.9-1.4-1.2l0,0c-0.2-1-0.6-1.5-1.4-1.9c0.4-0.7,0.8-1.5,1.3-2.2c-0.8,0.6-1.5,1.3-2.1,2
			c-0.4-0.1-0.8-0.2-1.2-0.2c0.1,0.3,0.2,0.7,0.4,1.1c-0.7,0.9-1.4,1.8-1.9,2.6c-0.3,0-0.6,0-1,0c1.1-4.2,3-9.2,6-13.3
			c-1.9,1.6-4.8,5.2-7.1,9.8c-0.2-0.9-0.4-1.9-0.7-2.8c0.2-0.3,0.3-0.6,0.5-0.8c-0.3,0-0.5,0-0.8-0.1c-0.8-2-1.9-4.1-3.6-6.3
			c0.8,2.1,1.3,4.2,1.7,6.2c-1.2,0-2.2,0.1-3,0.4c-1.3-2-2.6-3.8-3.7-5c1.1-1.3,1.6-2.8,1.9-3.9c-5.5,0.8-7.4,1.9-8.1,6
			c-0.7,0.4-1.3,0.8-1.8,1.3c0,0,0,0,0,0l0,0c-0.8,0.8-1.4,1.7-1.8,2.8c0-2.3,0.4-4,0.7-5.5c0.2-0.8,0.3-1.5,0.4-2.2
			c4.2-3.4,2.8-7.8,1.8-10c-3.7,4.2-4.4,6.2-2.3,9.9l-0.1,0c-0.1,0.7-0.2,1.4-0.4,2.2c-0.4,1.8-0.8,3.9-0.7,6.8
			c-1-2.8-2.2-5.1-3.3-6.9c-0.4-0.9-0.2-2-0.1-2.4c0.1,0.1,0.3,0.1,0.4,0.1c0.6,0,1.1-0.5,1.1-1.1c0-0.6-0.5-1.1-1.1-1.1
			s-1.1,0.5-1.1,1.1c0,0.4,0.2,0.7,0.5,0.9l-0.3-0.1c-0.1,0.2-0.2,0.7-0.2,1.3c-0.5-0.7-0.9-1.4-1.3-1.9c-0.3-0.4-0.5-0.7-0.6-0.9
			c1.2-5.2-2.7-7.8-4.9-8.9c-0.3,5.5,0.4,7.6,4.3,9.1c0.1,0.2,0.4,0.6,0.7,1c0.6,0.8,1.3,1.8,2.1,3.1c0,0,0,0.1,0,0.1l0,0
			c0.5,0.9,1.1,1.9,1.7,3c-3-3.6-7.1-2.7-9.3-1.9c3.9,4.1,5.8,5,9.8,3.1c0.5,1,0.9,2.1,1.3,3.3c-0.4-0.2-0.8-0.3-1.2-0.3
			c0.2-0.3,0.4-0.6,0.6-0.8c-0.3,0.2-0.5,0.5-0.8,0.8c-0.4,0-0.8,0-1.2,0c-0.1,0-0.3,0-0.4,0v0.3c0-0.9-0.7-1.6-1.6-1.6
			c-0.9,0-1.6,0.7-1.6,1.6c0,0.9,0.7,1.6,1.6,1.6c0.9,0,1.6-0.7,1.6-1.6v0.3c0.1,0,0.2,0,0.4,0c0.2,0,0.4,0,0.6,0
			c-1,1.2-2.1,2.8-3,4.7c-0.4-2.1-1.2-3.9-2.9-6.1c0.6,1.7,1,3.4,1.3,5c-0.8-0.9-1.7-1.4-2.6-1.8c-1-1.4-2-2.6-2.7-3.2
			c0.7,0.9,1.2,1.9,1.7,2.9c-1.8-0.4-3.6-0.1-4.8,0.2c1.7,2.2,3,3.5,4.4,4.1c0.6,1.3,1.1,2.6,1.4,3.6c-0.7-1-1.7-2.1-3.4-2.7
			c1.4,1.4,2.1,2.8,2.5,3.9c-1.3,0-2.6-0.1-3.9-0.1c0-1.8,0.2-4.3,1.1-6c-0.8,1.1-1.6,2.6-2,4.3c-0.3-1.5-0.7-3.8-0.7-4.6
			c-0.2,0.5-0.5,2.7-0.4,4.6c-0.6-1-1.3-2.1-2.2-2.7c0.9,1.2,1.5,3,1.9,4.3c-47.9-2.1-82.8-12.5-109.2-20.6
			c-84.4-25.9-157.5-46.8-227.5-49.9c1.5-6.3,4.7-16.4,10.3-25c-6.8,5.4-10.9,11.9-13.4,17.5c0-0.6-0.1-1.2-0.1-1.8
			c2.2-9.8,6.3-22.4,13.8-32.7c-4.2,3.5-10.4,11.2-15.3,21.1c-1.5-7.2-4.3-13.7-10-21.4c4.2,11.6,5.4,22.6,5.4,31.2
			c-5-14.5-14-26.4-19.4-31c8.8,12.1,13,27.6,14.8,37.7c-2.8-6.5-7.5-14.8-14.8-20.8c4.7,7.5,7.6,15.2,9.3,21
			c-2.3-3.6-6-7.3-11.8-9.5c4.5,4.6,7,9.4,8.4,13.1c-4.5,0.1-9,0.2-13.5,0.4c0-1.8,0.1-4,0.2-6.2c0.9-0.7,1.7-1.4,2.4-2
			c-0.7-0.3-1.4-0.6-2.1-0.9c0.5-4.4,1.5-8.9,3.3-12.3c-2.3,3-4.3,7-5.9,11.4c-0.7-0.2-1.3-0.4-1.9-0.5c-0.9-4.7-1.7-9.9-1.6-12
			c-0.6,1.3-1.4,6.2-1.6,11.6c-0.9,0-1.7,0.2-2.6,0.5c-1.5-2.1-3.2-3.9-5.2-5.2c1.3,1.8,2.4,3.9,3.4,6.1c-1.2,0.8-2.4,1.9-3.7,3.4
			c-3.9,0.4-8.4,1.7-12.6,4.7c0.3-0.5,0.5-1,0.8-1.6c0.4-0.8,0.9-1.7,1.2-2.2c1,0.2,1.9-0.3,2.2-1.3c0.3-1-0.2-2.1-1.2-2.4
			c-1-0.3-2.1,0.2-2.4,1.2c-0.3,0.8,0.1,1.7,0.8,2.2c-0.3,0.5-0.7,1.3-1.1,2.1c-0.6,1.1-1.2,2.4-1.7,2.9c-1.2,1-2.4,2.2-3.5,3.5
			c-0.4,0.1-0.7,0.1-1.1,0.2c1.1-4.1,1.8-7.9,2-11.5l0.1,0c0.1-1.2,0.3-2.3,0.5-3.4c1-3.5,3-6.1,6.1-7.5c2-0.5,3.8,0.5,5.1,1.5
			c-0.2,0.9,0.3,1.9,1.3,2.2c1,0.3,2.1-0.2,2.4-1.2c0.3-1-0.2-2.1-1.2-2.4c-0.9-0.3-1.7,0.1-2.2,0.8c-1-0.7-2.2-1.4-3.6-1.6
			c0.5-0.2,1.1-0.3,1.7-0.4c9,3.3,14.3-3,16.6-6.5c-9.6-1.6-13.2-0.8-16.7,5.9c-1.3,0.2-2.4,0.6-3.5,1.1c0,0,0,0,0,0l0,0
			c-2.2,1.1-3.9,2.7-5.2,4.8c1.2-4.6,3-7.6,4.5-10.2c0.6-1.1,1.2-2.1,1.7-3.1c9.1-3.2,9.1-11.5,8.6-15.7c-8.4,5-10.6,7.8-9,15.1
			c-0.5,1.1-1.1,2.1-1.8,3.3c-1.8,3-3.9,6.7-5.1,12.5c0-6-0.8-11-1.8-15c-0.2-1.9,0.8-3.7,1.1-4.1c0.2,0.2,0.5,0.4,0.8,0.5
			c1,0.3,2.1-0.2,2.4-1.2c0.3-1-0.2-2.1-1.2-2.4s-2.1,0.2-2.4,1.2c-0.2,0.6-0.1,1.2,0.2,1.6l-0.3-0.2c-0.2,0.3-0.8,1.4-1.1,2.7
			c-0.5-1.8-1-3.4-1.4-4.6c-0.2-0.7-0.4-1.2-0.5-1.6c5-8.1-0.1-14.6-3.1-17.5c-3.4,9.1-3.4,12.8,2.5,17.5c0.1,0.4,0.3,1,0.6,1.8
			c0.5,1.6,1.2,3.7,1.8,6.3c0,0.1,0,0.1,0,0.2l0,0c0.5,2.1,1,4.4,1.3,7c-2.4-7.8-9.1-9.1-13.4-9.2c3-4.3,4.8-9.5,4.8-15.2
			c0-14.7-11.9-26.6-26.6-26.6c-5.5,0-10.6,1.7-14.8,4.5c-3.1-2.8-7.3-4.5-11.8-4.5c-9.8,0-17.7,7.9-17.7,17.7c0,0.2,0,0.4,0,0.6
			c-10.1,2.9-17.8,15.4-17.8,30.4c0,12.6,5.4,23.5,13.2,28.3c-2.7,3.1-4.3,7.1-4.3,11.5c0,3.2,0.9,6.3,2.4,8.9
			c-1.3-1-2.7-1.8-3.9-2.4c1.2,0.8,2.4,2,3.5,3.3c-0.8,0.3-1.5,0.5-2.3,0.8c0-0.2,0.1-0.4,0.2-0.7c-0.2,0.3-0.4,0.6-0.6,0.8
			c-0.9,0.3-1.9,0.7-2.8,1c-0.2-1.8-0.4-3.8-0.3-5.9c-0.8,2.1-1.2,4.4-1.3,6.5c-0.4,0.2-0.9,0.3-1.3,0.5c-1-4.1-1.8-9-1.3-13.8
			c-1,2.8-1.8,8.5-1,14.6c-0.3,0.1-0.5,0.2-0.8,0.3c-1.6-3.2-3.1-7.1-3.9-11.7c-0.5,4.4-0.1,7.7,0.9,11c-4.3-2.9-8.6-4.5-11.1-5
			c3.9,1.7,7.4,4.4,10.3,7.1c-0.7,0.3-1.4,0.5-2.2,0.8c-1.3-0.5-2.6-0.8-4.1-1.1c0.9,0.5,1.8,1,2.7,1.6
			c-24.2,8.6-49.7,17.3-78.2,25.1c1.1-3.1,2.6-6.2,4.6-9c-1.9,1.6-4.7,5.1-7,9.6c0,0-0.1,0-0.1,0c-0.7-3.3-2-6.3-4.6-9.8
			c1.3,3.7,2,7.2,2.3,10.4c-0.4,0.1-0.9,0.2-1.3,0.4c-2.3-5-5.5-8.9-7.5-10.7c2.5,3.5,4.2,7.5,5.4,11.2c-0.6,0.2-1.2,0.3-1.8,0.5
			c-1-1.4-2.2-2.7-3.6-3.8c0.9,1.4,1.6,2.8,2.2,4.1c-1.7,0.4-3.5,0.9-5.2,1.3c0.3-1.4,0.7-2.6,1.2-3.7c-0.8,1.1-1.6,2.4-2.2,3.9
			c-0.4,0.1-0.8,0.2-1.2,0.3c1.3-3,2.2-6,2.7-8.5c-8.2,0.3-13.5,3.1-16.9,7.5c0-9.4-2.8-18.3-5.6-24c-5.9,5.9-8.6,11.8-9.1,17.7
			c-2.1-2.4-4.4-4.4-6.4-5.8c-3.7,8.8-2.8,15.4,0.9,20.7c-6.8,1.3-13.9,2.5-21.1,3.7c-0.3-0.3-0.7-0.5-1.2-0.5
			c-0.6,0-1.2,0.4-1.5,0.9c-1.1,0.2-2.1,0.3-3.2,0.5c0.4-1.1,0.8-2.1,1.2-3.1c4.1,2,6.1,1.1,10.1-3.2c-2.2-0.8-6.5-1.8-9.6,2
			c0.6-1.2,1.2-2.3,1.8-3.2l0,0c0,0,0-0.1,0-0.1c0.8-1.4,1.6-2.5,2.2-3.3c0.3-0.5,0.6-0.8,0.7-1.1c4-1.6,4.7-3.7,4.4-9.4
			c-2.2,1.1-6.2,3.8-5,9.2c-0.1,0.2-0.4,0.5-0.7,0.9c-0.4,0.5-0.9,1.2-1.4,2c0-0.7-0.1-1.2-0.2-1.4l-0.3,0.1
			c0.3-0.2,0.5-0.5,0.5-0.9c0-0.6-0.5-1.1-1.1-1.1s-1.1,0.5-1.1,1.1c0,0.6,0.5,1.1,1.1,1.1c0.2,0,0.3,0,0.4-0.1
			c0.1,0.4,0.3,1.5-0.1,2.5c-1.2,1.9-2.4,4.3-3.4,7.2c0.2-3-0.3-5.2-0.7-7.1c-0.2-0.8-0.3-1.6-0.4-2.3l-0.1,0
			c2.2-3.8,1.4-5.9-2.4-10.2c-1,2.3-2.5,6.9,1.9,10.3c0.1,0.7,0.2,1.4,0.4,2.2c0.3,1.6,0.7,3.4,0.7,5.7c-0.4-1.1-1-2.1-1.9-2.9l0,0
			c0,0,0,0,0,0c-0.5-0.5-1.2-0.9-1.9-1.3c-0.8-4.3-2.7-5.4-8.4-6.2c0.7,2.4,2.5,6.8,8,6.7c0.2,0.1,0.4,0.2,0.6,0.4
			c-0.7,0-1.3,0.1-1.9,0.3c-0.2-0.4-0.6-0.7-1.1-0.7c-0.6,0-1.1,0.5-1.1,1.1c0,0.6,0.5,1.1,1.1,1.1c0.5,0,1-0.4,1.1-0.9
			c0.9-0.3,2.1-0.5,3.2,0.1c1.2,1.2,1.9,2.6,2,4.4c-3,0.4-6,0.9-9.1,1.3c-0.3-0.2-0.6-0.3-0.9-0.4c-1.8-4.2-3.9-4.8-9.7-4.3
			c1.2,2.1,3.9,6,9.1,4.7c0.1,0.1,0.2,0.1,0.4,0.2c-74,9.9-167.5,10.6-294.9-8.6c2.6-2.5,4.7-5,6.2-7c-5.4-0.3-9.8,0.9-13.5,3.1
			c0.8-2,1.3-3.8,1.6-5.3c-5.2,1.5-8.6,3.8-10.8,6.7c-0.2,0-0.3-0.1-0.5-0.1c2.2-1.8,4.2-3.7,5.6-5.4c-4-2.2-7.5-2-10.7-0.2
			c3.6-5.8,5.8-12.2,6.7-16.5c-5,1.9-8.5,4.8-11.1,8.3c-0.1-2.1-0.3-4-0.7-5.5c-6.4,5.4-8.1,10.9-7.5,16.3c-0.8-0.1-1.7-0.3-2.5-0.4
			c1.8-3.7,2.9-7.8,3.4-10.9c-4.5,0.2-7.4,2.3-9.2,5.5c0-6.8-1.5-13.4-3.1-17.5c-1.6,2.2-2.8,4.4-3.6,6.6c-2.6,0.2-5.4,1.4-7.4,4.8
			l-0.2,0.1c-1,0.5-1.9,1-2.8,1.6c0-0.1,0-0.1,0.1-0.2c0.1-0.2,0.1-0.6,0-0.9c0,0,0.1,0,0.1,0c0.7,0,1.3-0.6,1.3-1.3
			c0-0.7-0.6-1.3-1.3-1.3c-0.7,0-1.3,0.6-1.3,1.3c0,0.6,0.4,1,0.9,1.2l-0.4,0.2c0.1,0.2-0.2,1.4-0.9,1.9l0,0
			c-1.6,1.2-2.8,2.4-3.7,3.8c-0.5-0.1-1-0.2-1.5-0.3c0.1-4.4,0.8-8.2,1.8-11.6l0.1,0c0.5-1.4,2.6-1.3,3.9-1.2c0.2,0,0.4,0,0.5,0
			v-0.6c-0.1,0-0.3,0-0.5,0c-1,0-2.6-0.1-3.6,0.6c0.5-1.7,1.1-3.2,1.7-4.6c5.3,2.5,7.7,1.4,12.8-4c-2.8-1-8.4-2.3-12.3,2.8
			c0.8-1.6,1.6-3.1,2.3-4.3l0,0c0-0.1,0-0.1,0.1-0.2c1.1-1.7,2-3.1,2.8-4.1c0.4-0.5,0.7-0.9,0.9-1.2c5.2-2,6.1-4.6,5.7-11.9
			c-2.8,1.4-7.9,4.8-6.3,11.7c-0.2,0.3-0.4,0.6-0.8,1.1c-0.5,0.7-1.2,1.6-1.9,2.7c0-0.9-0.1-1.7-0.2-1.9l-0.4,0.1
			c0.4-0.3,0.6-0.7,0.6-1.1c0-0.8-0.6-1.4-1.4-1.4s-1.4,0.6-1.4,1.4s0.6,1.4,1.4,1.4c0.2,0,0.4-0.1,0.6-0.2c0.1,0.4,0.4,1.9-0.2,3.2
			c-1.5,2.5-3.2,5.7-4.6,9.7c0.3-4.1-0.3-7-0.8-9.5c-0.2-1.1-0.4-2-0.5-2.9l0,0c2.8-4.8,1.8-7.4-3-12.9c-1.3,2.9-3.2,8.7,2.4,13.1
			c0.1,0.9,0.3,1.8,0.5,2.7c0.4,2.1,1,4.5,0.9,7.8c-0.4-1.6-1.3-2.9-2.5-4.1l0,0c0,0,0,0,0,0c-0.7-0.6-1.4-1.2-2.3-1.6
			c-1-5.5-3.4-6.9-10.6-8c0.8,3,3.1,8.7,10.2,8.5c0.3,0.2,0.7,0.4,1,0.6c-1-0.1-1.9,0.1-2.7,0.3c-0.2-0.6-0.7-1-1.3-1
			c-0.8,0-1.4,0.6-1.4,1.4c0,0.8,0.6,1.4,1.4,1.4c0.7,0,1.3-0.5,1.4-1.2c1.1-0.4,2.7-0.7,4,0.1c1.8,1.7,2.7,4,2.6,6.6
			c-0.1,0.8-0.2,1.7-0.4,2.6l0.1,0c-0.7,2.8-1.1,6-1.2,9.4c-0.1,0-0.1,0-0.2,0c-0.2-0.6-0.4-1.2-0.7-1.8c0.6-1.7,1.1-3.4,1.4-4.8
			c-1.1,0-2.2,0.2-3.2,0.3c0-0.2-0.1-0.4-0.1-0.6c-0.1-0.7-0.2-1.4-0.3-1.8c0.6-0.2,1-0.7,1-1.3c0-0.8-0.6-1.4-1.4-1.4
			s-1.4,0.6-1.4,1.4c0,0.7,0.5,1.3,1.2,1.4c0.1,0.4,0.2,1.1,0.4,1.9c0,0.2,0.1,0.4,0.1,0.7c-0.1,0-0.2,0-0.2,0
			c-2.4-3-5.4-4.8-7.6-5.8c-0.1-0.3-0.3-0.6-0.4-0.9c0.4-1.3,0.7-2.5,1-3.6c-1.2,0-2.3,0.2-3.3,0.4c-0.4-0.3-0.8-0.6-1.2-0.8
			c-0.3-0.6-0.6-1.3-0.8-1.8c-0.4,0.4-0.8,0.8-1.2,1.2c-1.6-0.3-3.6-0.2-6.3,0c0.6,1.1,1.6,2.7,3.1,4c-1,0.7-1.9,1.6-2.6,2.5
			c0-6.8-2-13.4-4.1-17.5c-4.3,4.3-6.3,8.6-6.7,12.9c-1.6-1.8-3.2-3.2-4.6-4.3c-2.1,4.9-2.1,8.8-0.9,12.1c-2.2-0.5-4.5-0.9-6.7-1.4
			c1.2-3.1,1.9-6.4,2.2-9c-3.8,0.2-6.2,2.2-7.7,5.3c0-6.6-1.3-12.9-2.6-16.8c-2.7,4.1-3.9,8.3-4.1,12.4c-1-1.7-2-3.1-2.9-4.1
			c-0.8,3.1-1.1,5.7-1,8.1c-0.4,0.1-0.8,0.3-1.1,0.4c-1-0.2-2.1-0.5-3.1-0.7c-0.4-3.1-1.4-5.9-2.4-7.9c-1.6,1.6-2.7,3.2-3.3,4.8
			c1.3-4,3.2-8.8,6-13.1c-4.9,3.9-7.9,8.6-9.7,12.6c0-0.4-0.1-0.8-0.1-1.3c1.6-7.1,4.6-16.2,10-23.6c-3,2.5-7.5,8.1-11.1,15.3
			c-1.1-5.2-3.1-9.9-7.2-15.5c3.1,8.4,3.9,16.4,3.9,22.6c-3.6-10.5-10.1-19.1-14-22.4c5.6,7.7,8.6,17.3,10.2,24.5
			c-0.3-0.1-0.5-0.1-0.8-0.2c-1.9-3.8-4.7-7.9-8.4-11.3c0.8-2.3,1.4-4.4,1.8-6.3c-8.2,0.3-13.5,3.1-16.9,7.5
			c0-8.4-2.3-16.5-4.8-22.2c0.3,0,0.5,0.1,0.7,0.1v-0.6c-0.2,0-0.5-0.1-1-0.1c0,0,0,0,0,0c-0.2-0.4-0.4-0.8-0.6-1.2
			c-0.3,0.3-0.6,0.6-0.9,0.9c-2.1-0.3-5.2-0.4-7.7,1.1c3.8-4.7,8.5-7.6,12.7-9.5c11.3,3.1,17.3-5.2,19.8-9.8
			c-12.5-1.1-16.8,0.3-20.6,9.5c-4.5,2-9.5,5.4-13.4,10.7c0.2-0.8,0.3-1.6,0.4-2.5c0.2-1.1,0.4-2.3,0.6-3c1.3-0.1,2.3-1.1,2.3-2.4
			c0-1.3-1.1-2.4-2.4-2.4c-1.3,0-2.4,1.1-2.4,2.4c0,1.1,0.8,2.1,1.9,2.3c-0.2,0.7-0.4,1.8-0.5,3c-0.2,1.6-0.5,3.3-0.9,4.2
			c-1.5,2.3-2.7,4.9-3.6,8c-0.2-0.1-0.4-0.3-0.6-0.4c-0.2-5.8-0.9-11.1-2-15.9l0.1,0c-0.3-1.6-0.6-3.1-0.8-4.5
			c-0.1-4.5,1.4-8.2,4.4-11.1c2.2-1.4,4.8-0.9,6.8-0.3c0.1,1.3,1.1,2.3,2.4,2.3c1.3,0,2.4-1.1,2.4-2.4c0-1.3-1.1-2.4-2.4-2.4
			c-1.2,0-2.1,0.8-2.3,1.9c-1.5-0.5-3.4-0.8-5.3-0.4c0.6-0.5,1.3-0.9,2-1.3c12.2,0.6,16.1-9,17.5-14.1c-12.2,1.8-16.1,4.1-17.7,13.6
			c-1.4,0.8-2.6,1.7-3.7,2.7c0,0,0,0,0,0l0,0c-2.3,2.2-3.8,5-4.4,8.1c-0.4-6.2,0.6-10.7,1.4-14.5c0.3-1.5,0.6-2.9,0.8-4.3
			c9.7-7.4,6.5-17.3,4.3-22.1c-8.1,9.2-9.7,13.5-4.9,21.7c-0.2,1.4-0.5,2.9-0.8,4.6c-1,4.5-2.1,9.8-1.2,17.7
			c-2.3-7.5-5.4-13.5-8.2-18c-1-2.2-0.4-4.8-0.3-5.5c0.4,0.2,0.8,0.3,1.2,0.3c1.3,0,2.4-1.1,2.4-2.4c0-1.3-1.1-2.4-2.4-2.4
			c-1.3,0-2.4,1.1-2.4,2.4c0,0.8,0.4,1.4,0.9,1.9l-0.3-0.1c-0.1,0.4-0.5,2.1-0.3,4c-1.4-2.1-2.6-3.8-3.6-5.2
			c-0.5-0.7-0.9-1.2-1.2-1.7c1.7-7-0.6-11.8-3.8-15.1c0-0.8,0-1.6,0-2.5c0-34.7-17.6-63.6-41-70.2c0-0.5,0-0.9,0-1.4
			c0-22.6-18.3-41-41-41c-10.5,0-20,3.9-27.2,10.4c-9.8-6.6-21.5-10.4-34.2-10.4c-5.1,0-10.1,0.6-14.9,1.8c0.1-1.9,0.2-3.7,0.2-5.6
			c0-26.5-11.5-50-29.2-64.5c7.2-9.1,11.5-20.5,11.5-33c0-29.4-23.8-53.2-53.2-53.2c-10.9,0-21.1,3.3-29.6,9c-6.3-5.6-14.5-9-23.6-9
			c-19.6,0-35.4,15.9-35.4,35.4c0,0.4,0,0.8,0,1.2c-6.9,2-13.3,6.2-18.6,12.1l-7.4-3.7c5.7-8.1,9-17.9,9-28.5
			c0-15.3-6.9-29-17.8-38.1V1310h3965.8V969.7z M354.3,1140.4c1.2,0.8,2.7,1.5,4.4,2.1c0.3,0.5,0.7,1.1,1.3,1.8
			c1.2,1.7,2.9,3.9,4.6,6.8c0,0.1,0.1,0.2,0.1,0.3l0,0c1.4,2.3,2.9,5.1,4.4,8.2c-5.2-7.7-12.5-7.7-17.8-6.6
			C352.6,1149,353.6,1144.8,354.3,1140.4z M339.8,1185.3c0-2.7-0.3-5.3-0.8-7.8c0.8-1,1.5-2,2.2-3c2.3,2.7,4.3,4.7,6.3,6
			C344,1181.3,341.5,1183,339.8,1185.3z M360.8,1189.6c-0.2-0.4-0.4-0.8-0.6-1.2c-2.7,2.7-3.9,5.4-4.1,8.1c-1-1.1-2-2-2.9-2.7
			c-0.3,0.8-0.6,1.6-0.8,2.3c-2.7-0.4-5.5-0.8-8.3-1.1c4-3.7,6.3-8.8,7.5-12.9c2.5,0.4,5.3-0.1,8.8-1.5c4.5,2.2,8,4.8,10.5,7.6
			c-1.5-0.5-3.1-0.3-4.3-0.1c-0.7,0.1-1.2,0.2-1.5,0.1l-0.1,0.3c-0.4-0.6-1.1-0.9-1.9-0.9C361.9,1187.6,361,1188.5,360.8,1189.6z
			 M374.2,1200.6c-1.2-0.3-2.5-0.6-3.7-0.9c-0.4-0.1-0.7-0.2-1.1-0.3c0.5-1.3,0.9-2.5,1.1-3.5c-3,0.1-5.1,0.9-6.6,2.3
			c-0.4-0.1-0.7-0.2-1.1-0.2c-0.1-2.2-0.6-4.3-1.2-6.2c0.4,0.4,1,0.6,1.5,0.6c1.3,0,2.4-1.1,2.4-2.4c0-0.4-0.1-0.8-0.3-1.1
			c0.4,0,0.9,0,1.5-0.1c1.6-0.2,3.7-0.5,5.3,0.7l0,0c1.3,1.6,2.2,3.3,2.9,5.1C374.3,1196.7,374.1,1198.7,374.2,1200.6z
			 M375.1,1193.6c-1.5-3.6-4.2-6.8-7.9-9.6l0,0c-0.8-0.5-1.4-1.5-1.6-2.3c-0.2-0.6-0.1-1,0-1.1l-0.4-0.2c0.9-0.2,1.5-1,1.5-2
			c0-1.2-0.9-2.1-2.1-2.1c-1.2,0-2.1,0.9-2.1,2.1s0.9,2.1,2.1,2.1c0.1,0,0.3,0,0.4,0c-0.2,0.5-0.1,1.2,0,1.5
			c0.1,0.3,0.2,0.6,0.3,0.9c-1.6-1-3.3-2-5.2-2.9l-0.1,0c-4.4-8-11.6-8.9-16.9-8.2c2.8-4.6,5.2-9.6,7.1-15.1
			c7.1,7,11.3,8.1,19.3,4.2c1.1,2.5,2.2,5.3,3.1,8.3c-1.6-1.5-4.6-1.5-6.4-1.4c-0.3,0-0.6,0-0.8,0v0.3c0-2-1.6-3.6-3.6-3.6
			c-2,0-3.6,1.6-3.6,3.6c0,2,1.6,3.6,3.6,3.6c2,0,3.6-1.6,3.6-3.6v0.3c0.2,0,0.5,0,0.8,0c2-0.1,5.7-0.2,6.7,2.2l0.1,0
			c1.7,5.8,2.8,12.5,3,20.1C375.7,1191.5,375.4,1192.5,375.1,1193.6z M382.9,1195.3c-1.7-1.9-3.4-3.5-5.1-4.8c1-3.4,2.5-6.4,4.2-8.9
			l0,0c2.3-2.7,6-2.8,8.6-2.5C385.7,1184.5,383.4,1189.9,382.9,1195.3z M414,1210.1c-1.1-0.8-2.4-1.5-3.9-2.1c0.5,0.5,0.9,1,1.4,1.5
			c-0.9-0.2-1.9-0.4-2.8-0.7c1.7-2.6,3-5.3,4-7.9c2,3.4,3.5,6.8,4.6,9.9C416.2,1210.6,415.1,1210.3,414,1210.1z M495,1227.3
			c-0.3-0.1-0.5-0.1-0.8-0.2c0-0.6,0-1.2-0.1-1.8c1.1-0.1,2-1,2-2.1v0.3c0.1,0,0.4,0,0.7-0.1c1-0.2,2.9-0.5,4.5,0.1
			C498.6,1224.4,496.6,1225.6,495,1227.3z M496.7,1222.8c-0.3,0-0.5,0.1-0.6,0.1v0.3c0-1.2-1-2.1-2.1-2.1c-0.1,0-0.3,0-0.4,0
			c-0.1-0.5-0.2-0.9-0.3-1.3c0.3-0.6,0.5-1.2,0.8-1.9c0.1,0,0.2,0,0.3-0.1c2.4,1,5.1,2.7,7.3,5.2
			C499.8,1222.3,497.7,1222.7,496.7,1222.8z M504.5,1229.1c0.1-0.3,0.2-0.5,0.3-0.8c0.1,0.3,0.2,0.6,0.3,0.9
			C504.9,1229.2,504.7,1229.2,504.5,1229.1z M508.8,1229.9c0.1-0.2,0.2-0.3,0.4-0.5c0.9-0.7,2.1-0.5,3-0.4c0.3,0,0.6,0.1,0.8,0.1
			c-0.1,0.2-0.1,0.4-0.1,0.6c0,0.5,0.2,0.9,0.6,1.1C511.9,1230.5,510.3,1230.2,508.8,1229.9z M514.7,1231c0.6-0.2,1-0.7,1-1.4
			c0-0.8-0.6-1.4-1.4-1.4c-0.5,0-0.9,0.2-1.1,0.6l-0.1-0.3c-0.1,0-0.5,0-0.9-0.1c-0.6-0.1-1.4-0.2-2.2-0.1c1.5-1.6,3.5-3,6.1-4.3
			c0.6,0.2,1.2,0.4,1.7,0.6c-0.4,2.6-0.4,4.9,0,6.9C516.8,1231.4,515.8,1231.2,514.7,1231z M1116.6,1180.4c3.3-4.7,5.3-10.6,5.3-17
			c0-0.7,0-1.4-0.1-2.1c2.3,3.4,5.2,4.5,10.3,4.2c2.8,2.7,4.8,5.4,6,8.2c-1-0.6-2.2-0.9-3.1-1c-0.5-0.1-1-0.2-1.1-0.3l-0.2,0.3
			c-0.2-0.5-0.6-1-1.2-1.2c-1-0.3-2.1,0.2-2.4,1.2c-0.3,1,0.2,2.1,1.2,2.4c1,0.3,2.1-0.2,2.4-1.2c0.1-0.3,0.1-0.6,0.1-0.9
			c0.3,0.1,0.7,0.2,1.1,0.2c1.2,0.2,2.9,0.5,3.8,1.8c0.1,0.3,0.2,0.6,0.3,0.9C1131.6,1177.2,1124.1,1178.7,1116.6,1180.4z
			 M1139.7,1175.8c-0.6-2.1-1.6-4.1-3.1-6.2l0,0c-0.5-0.5-0.6-1.4-0.6-2.1c0-0.5,0.2-0.8,0.2-0.8l-0.3-0.3c0.7,0,1.4-0.4,1.7-1.1
			c0.3-0.9-0.2-1.8-1.1-2.1c-0.9-0.3-1.8,0.2-2.1,1.1c-0.3,0.9,0.2,1.8,1.1,2.1c0.1,0,0.2,0,0.2,0c-0.3,0.3-0.3,0.9-0.3,1.1
			c0,0.2,0,0.3,0,0.5c-0.9-1.1-1.9-2.2-3.1-3.3l-0.1-0.1c-1.5-7.6-7.4-9.8-11.7-10.4c-0.3-0.9-0.6-1.8-1-2.7
			c4.1-1.8,7.7-4.6,10.4-8.1c4,8.1,6.8,10.3,14.2,9.3c0.2,2.1,0.3,4.4,0.3,6.8c-1-1.4-3.1-2.1-4.4-2.5c-0.2-0.1-0.4-0.1-0.6-0.2
			l-0.1,0.3c0.5-1.5-0.3-3.1-1.8-3.6c-1.5-0.5-3.1,0.3-3.6,1.8c-0.5,1.5,0.3,3.1,1.8,3.6c1.5,0.5,3.1-0.3,3.6-1.8l-0.1,0.3
			c0.2,0.1,0.4,0.1,0.6,0.2c1.6,0.5,4.4,1.2,4.5,3.3l0.1,0c-0.1,4.4-0.8,9.3-2.3,14.6C1141.3,1175.6,1140.5,1175.7,1139.7,1175.8z
			 M1157.6,1173.5c-4.3,0.5-8.5,1-12.8,1.6c1.1-1.3,2.3-2.5,3.6-3.4l0,0c3.1-1.9,6.8,0,8.5,0.9c0.4,0.2,0.6,0.3,0.8,0.4l0.1-0.3
			C1157.6,1172.9,1157.6,1173.2,1157.6,1173.5z M1163.2,1172.9c-0.2-1-0.9-1.8-1.9-2.1c-1.5-0.5-3.1,0.3-3.6,1.8l0.1-0.3
			c-0.1,0-0.4-0.2-0.7-0.3c-1.3-0.7-4.1-2.1-6.9-1.7c4-2.5,8.2-3.5,11.8-3.9c1.9,1.2,3.7,1.9,5.4,2.1c0.5,1.4,0.8,2.7,1.2,4
			C1166.8,1172.6,1165,1172.7,1163.2,1172.9z M1556.8,1238.1c0.3,0.1,0.7,0.1,1,0.1c0.3,1.1,0.6,2.2,0.7,3.1
			C1558.1,1240.3,1557.5,1239.2,1556.8,1238.1z M1559.3,1237.9c0.2,0,0.3-0.1,0.5-0.1c0,0.6,0,1.1,0,1.6
			C1559.6,1238.9,1559.5,1238.4,1559.3,1237.9z M1562.3,1237.2c0.1,0.1,0.3,0.1,0.5,0.1c-0.1,0.2,0,0.5,0,0.7
			c-0.2-0.1-0.4-0.2-0.6-0.4C1562.2,1237.5,1562.2,1237.4,1562.3,1237.2z M1561.6,1240.4c0-0.2,0-0.3,0-0.5c0.1-0.5,0.2-1,0.4-1.6
			c0.2,0.1,0.4,0.2,0.6,0.4C1562.2,1239.2,1561.9,1239.8,1561.6,1240.4z M1562.6,1242.7c0.3-0.2,0.5-0.5,0.5-0.9
			c0-0.1,0-0.3-0.1-0.4c0.2,0,0.4,0,0.6-0.1c0.7-0.1,1.6-0.2,2.3,0.3c0.3,0.3,0.5,0.7,0.7,1.1
			C1565.3,1242.7,1564,1242.7,1562.6,1242.7z M1562.9,1241c0.2-0.6,0.4-1.2,0.6-1.8c0.6,0.4,1.1,0.9,1.6,1.4c-0.5-0.1-1.1,0-1.5,0.1
			c-0.2,0-0.5,0.1-0.6,0.1L1562.9,1241C1562.9,1241.1,1562.9,1241.1,1562.9,1241z M1567.4,1242.7c-0.7-1.4-1.9-2.7-3.4-3.8l0,0
			c-0.1-0.1-0.2-0.1-0.2-0.2c0.4-1.1,1-2.2,1.7-3.3c-0.9,0.7-1.6,1.4-2.1,2.2l-0.2-0.1l-0.1,0c0.4-0.1,0.7-0.5,0.7-0.9
			c0-0.5-0.4-0.9-0.8-0.9c0.5-1.2,1-2.4,1.7-3.6c0.8,0,1.6,0.2,1.9,0.9l0,0c0.3,1.2,0.7,2.5,0.9,3.9c-0.7-1-1.5-1.9-2.4-2.5
			c1.3,1.8,2.3,4.3,2.9,6.4c0,0.7,0.1,1.4,0.1,2.2C1567.7,1242.7,1567.6,1242.7,1567.4,1242.7z M1570.5,1236.2
			c-0.1,0.5-0.2,1-0.3,1.4c-0.5-2.4-1-5.5-0.9-6.7c-0.4,0.8-0.9,4.3-0.7,7.5c-0.1-0.2-0.3-0.4-0.4-0.7c-0.2-1.2-0.4-2.5-0.6-3.6l0,0
			c-0.1-0.7-0.3-1.4-0.3-2c-0.1-2,0.6-3.7,2-5c1-0.6,2.2-0.3,3.1-0.1c0.1,0.5,0.5,0.8,1,0.8c0.6,0,1.1-0.5,1.1-1.1s-0.5-1.1-1.1-1.1
			c-0.5,0-0.9,0.3-1,0.7c-0.5-0.2-1.2-0.3-1.8-0.3c0.2-0.1,0.4-0.2,0.6-0.4c2.6,0,4.3-0.9,5.5-2.2c1.1,1.7,2,3.5,2.7,5.3
			c-0.8,0.6-1.4,1.4-2,2.5c-0.6-0.6-1.2-1.2-1.9-1.8c0.5,0.9,1,1.7,1.5,2.6c-1.3,0.6-2.9,1.5-4.5,3c0.3-1.4,0.7-2.7,1.2-3.8
			c-0.5,0.7-1,1.5-1.4,2.3c0,0,0,0,0,0c0-0.6-0.5-1.1-1.1-1.1c-0.6,0-1.1,0.5-1.1,1.1c0,0.5,0.3,0.9,0.7,1
			C1570.7,1235.2,1570.6,1235.6,1570.5,1236.2z M1575.4,1236.4c-0.8-0.1-2-0.3-3.2,0.1c0-0.1,0-0.1,0-0.2c1.5-1.6,3.3-2.7,4.9-3.4
			c0.4,0.8,0.8,1.6,1.1,2.4c-0.2-0.1-0.3-0.1-0.5-0.1c-0.7,0-1.2,0.4-1.5,1c-0.6-0.4-1.3-0.7-2-1
			C1574.7,1235.5,1575.1,1236,1575.4,1236.4z M1571.1,1236.4c0,0,0-0.1,0-0.1c0.1-0.6,0.2-1.2,0.3-1.5c0.2,0,0.3-0.1,0.5-0.2
			C1571.6,1235.2,1571.3,1235.8,1571.1,1236.4z M1571.9,1242.7c0-1.4,0-3.4,0.2-5.5c1.2-0.5,2.6-0.2,3.4-0.1c0.2,0,0.3,0,0.4,0.1
			c1.5,2.1,2.3,4.1,2.7,5.4C1576.3,1242.6,1574.1,1242.6,1571.9,1242.7z M1578.7,1238.1c0.2-0.1,0.4-0.3,0.5-0.5
			c0.2,0.7,0.4,1.3,0.6,2C1579.4,1239.1,1579.1,1238.6,1578.7,1238.1z M1578.5,1232.9c0.8,0.1,1.5,0.1,2.2-0.1
			c0.8,2.4,1.3,4.7,1.6,6.6C1581.5,1237.4,1580.2,1235.1,1578.5,1232.9z M1582.7,1232.1c0.5-0.3,1-0.7,1.4-1
			c0.2,1.9,0.3,3.7,0.3,5.3C1584,1234.8,1583.4,1233.4,1582.7,1232.1z M1587.4,1237.9c0-0.3,0-0.6-0.1-0.8c0.1-0.3,0.2-0.7,0.2-1
			c0.1,0.2,0.3,0.3,0.5,0.5C1587.8,1237,1587.6,1237.5,1587.4,1237.9z M1588.7,1242.1c0.3-1.2,0.7-2.9,1.4-4.8c0.3,0,0.5,0,0.8-0.1
			l-0.1,0.2c0.6,0.3,1.3,0.7,1.9,1.2c-0.4,0-0.8,0-1.1,0.1c-0.1,0-0.1,0-0.2,0l0,0.3c0-0.4-0.3-0.7-0.7-0.7c-0.4,0-0.7,0.3-0.7,0.7
			s0.3,0.7,0.7,0.7c0.4,0,0.7-0.3,0.7-0.7l0,0.3c0,0,0.1,0,0.3,0c0.4-0.1,1.4-0.2,1.9,0.4c0.4,0.6,0.7,1.3,0.9,2.2
			C1592.5,1241.9,1590.6,1242,1588.7,1242.1z M1595,1237.9c-0.2,0.7-0.3,1.6-0.4,2.4c-0.1-0.3-0.3-0.6-0.4-0.8l0,0
			c-0.1-0.1-0.1-0.5-0.2-0.8c0-0.3-0.1-0.5-0.1-0.7c0.1-0.1,0.2-0.2,0.2-0.4c0-0.3-0.2-0.5-0.5-0.5c-0.3,0-0.5,0.2-0.5,0.5
			c0,0.2,0.1,0.4,0.3,0.4l-0.1,0.1c0,0,0,0.1,0.1,0.3c-0.8-0.8-1.7-1.3-2.4-1.6l0,0c-0.2-0.3-0.3-0.6-0.5-0.8c0.3-0.8,0.6-1.6,1-2.4
			c0.5,0.4,1.1,0.7,2,0.7l0,0c-0.2,0-0.4,0.1-0.5,0.1c-0.1-0.1-0.2-0.2-0.3-0.2c-0.3,0-0.5,0.2-0.5,0.5c0,0.3,0.2,0.5,0.5,0.5
			c0.2,0,0.3-0.1,0.4-0.3l0,0.1c0.3-0.1,0.8-0.2,1.2,0c0.6,0.6,0.8,1.3,0.8,2.2C1595.1,1237.4,1595,1237.6,1595,1237.9L1595,1237.9z
			 M1595.7,1241.7c0.1-0.2,0.2-0.3,0.3-0.5c0.2-0.2,0.6-0.1,0.8-0.1c0.1,0,0.2,0,0.3,0c0,0.2,0.1,0.4,0.3,0.4
			C1596.8,1241.6,1596.2,1241.7,1595.7,1241.7z M2390.2,1237.8c1-0.2,1.8-0.9,2.9-2.3c0.5,0.9,0.9,1.9,1.3,2.8
			C2393,1238.2,2391.6,1238,2390.2,1237.8z M2396,1234.3c-0.2-0.3-0.6-0.5-0.9-0.5c-0.7,0-1.2,0.6-1.2,1.2c0,0.7,0.6,1.2,1.2,1.2
			c0.3,0,0.6-0.1,0.8-0.3c0,0.8,0,1.7,0,2.5c-0.9-1.7-2.1-3.4-3.6-4.4c0.2,0.3,0.4,0.6,0.6,0.9c-1.4-0.3-3.7-0.3-5,2l-0.1-0.1
			l-0.1,0.1c-0.2,0.1-0.5,0.2-0.7,0.4c-0.1,0-0.2,0-0.2,0c0.2-0.1,0.4-0.3,0.4-0.5c0-0.3-0.3-0.6-0.6-0.6c-0.3,0-0.6,0.3-0.6,0.6
			c0,0.2,0.1,0.4,0.3,0.5c-0.8-0.1-1.5-0.2-2.3-0.3c0.1-0.8,0.3-1.5,0.5-2.2l0,0c0.2-0.5,1.1-0.5,1.6-0.5c0.1,0,0.2,0,0.2,0v-0.3
			c0,0.5,0.4,1,1,1c0.5,0,1-0.4,1-1s-0.4-1-1-1c-0.5,0-1,0.4-1,1v-0.3l-0.2,0c-0.4,0-0.9,0-1.3,0.1c0.2-0.6,0.4-1.2,0.7-1.7
			c2,0.9,3.2,0.6,5-1.2c1.1,1,2.7,1.6,4.8,1.1l0,0.1c0.3,0.1,0.7,0.3,1.1,0.5C2396.2,1233.1,2396.1,1233.7,2396,1234.3z
			 M2397.8,1238.5c-0.2-1-0.4-2.1-0.6-3.2c0.5-0.1,1.1-0.1,1.7,0C2398.4,1236.3,2398.1,1237.4,2397.8,1238.5z M2397,1234.7
			c-0.1-0.6-0.2-1.2-0.3-1.8c0.8,0.5,1.6,1.1,2.3,1.8C2398.3,1234.5,2397.6,1234.6,2397,1234.7z M2399.3,1238.9
			c0.1-1.1,0.2-2.2,0.4-3.3c0.2,0.1,0.3,0.2,0.4,0.4c0.6,0.9,1.1,2,1.4,3.2C2400.8,1239.1,2400.1,1239,2399.3,1238.9z
			 M2406.4,1225.6L2406.4,1225.6C2406.4,1225.6,2406.4,1225.6,2406.4,1225.6c0.6-1,1.2-1.8,1.6-2.4c0.3-0.4,0.5-0.6,0.6-0.8l-0.1,0
			c0.3-0.1,0.6-0.3,0.9-0.4c0.5,1.4,0.9,2.7,1.2,4.1c-1.1-0.2-2.5-0.3-3.8,0.4c-0.2-0.2-0.3-0.4-0.5-0.7
			C2406.3,1225.7,2406.4,1225.7,2406.4,1225.6z M2405.8,1227.1c-0.2,0.2-0.4,0.3-0.5,0.5c0.1-0.3,0.3-0.5,0.4-0.8
			C2405.7,1226.9,2405.8,1227,2405.8,1227.1z M2402.8,1223.8l-0.2,0c0.3-0.5,0.5-0.9,0.6-1.3c0.8,1.2,1.5,2.4,2.2,3.6
			c-0.6,1.1-1.3,2.4-1.8,3.9c0.1-2-0.3-3.4-0.5-4.6C2402.9,1224.8,2402.8,1224.3,2402.8,1223.8z M2403.5,1232.1L2403.5,1232.1
			c0.1-0.2,0.2-0.3,0.4-0.4c0.7,1.3,1.3,2.7,1.8,3.9c0,0.2-0.1,0.7-0.5,0.9l0,0c-0.2,0.1-0.3,0.3-0.5,0.4c-0.6-0.5-1.2-0.9-2-1.3
			C2403,1234.4,2403.2,1233.2,2403.5,1232.1z M2402.5,1239.3c0-1,0.1-2.1,0.2-3c0.4,0.5,0.8,1,1.1,1.5c-0.4,0.5-0.8,1-1.1,1.5
			C2402.7,1239.4,2402.6,1239.4,2402.5,1239.3z M2403.4,1239.5c0.1-0.3,0.3-0.5,0.5-0.7c0.1-0.1,0.2-0.1,0.3-0.2
			c0.2,0.4,0.4,0.7,0.6,1.1C2404.4,1239.6,2403.9,1239.5,2403.4,1239.5z M2406.1,1238.3C2406.1,1238.3,2406.1,1238.3,2406.1,1238.3
			l-0.1-0.3c0,0-0.1,0-0.2,0c-0.2-0.2-0.4-0.4-0.6-0.6c0.3-0.2,0.6-0.5,0.9-0.7c0.2,0.4,0.3,0.9,0.5,1.3
			C2406.4,1238,2406.2,1238.1,2406.1,1238.3z M2407.5,1235.2c-0.8-1.3-1.7-2.5-2.8-3.7c0.4,0,0.7,0,1,0c0.1,0,0.2,0,0.3,0v-0.6
			c-0.1,0-0.2,0-0.3,0c-0.4,0-1,0-1.5,0.1c-0.1-0.1-0.1-0.1-0.2-0.2c0.2-0.7,0.5-1.4,0.8-2c0.8,0.4,1.5,0.6,2.1,0.6
			c0.1,0.2,0.1,0.4,0.2,0.6c-0.6,0.1-1.1,0.6-1.1,1.2c0,0.7,0.6,1.2,1.2,1.2c0.3,0,0.5-0.1,0.7-0.2c0.2,0.7,0.4,1.4,0.6,2.1
			c-0.2,0.2-0.4,0.5-0.6,0.8l-0.1-0.1l-0.2,0.1C2407.6,1235.1,2407.6,1235.2,2407.5,1235.2z M2407.8,1235.7c0.1,0,0.1-0.1,0.2-0.1
			l0,0c0.3,0.1,0.6,0.2,0.9,0.3c0.3,1.3,0.6,2.5,0.8,3.5C2409.2,1238.3,2408.6,1237,2407.8,1235.7z M2408.5,1229.2
			c0.8-0.3,1.5-0.8,2.4-1.7c0.4,1.7,0.6,3.4,0.7,4.9c-0.4,0.1-0.8,0.2-1.2,0.4C2409.8,1231.5,2409.2,1230.3,2408.5,1229.2z
			 M2411.6,1235.8c0.1,0,0.1-0.1,0.2-0.1c0,0.2,0,0.4,0,0.6C2411.8,1236.1,2411.7,1236,2411.6,1235.8z M2469.2,1246.4
			c0.3-1,0.5-2.2,0.6-3.6c0.7,1.1,1.3,2.5,1.7,3.8C2470.7,1246.5,2470,1246.5,2469.2,1246.4z M2525.5,1250.2
			c0.3-0.6,0.4-1.4,0.1-2.1l0.1,0.3c0.1-0.1,0.4-0.2,0.6-0.4c1.4-0.9,4.4-2.9,7.2-1.6l0,0c1.8,1.1,3.5,2.5,5.1,4.3
			C2534.3,1250.5,2530,1250.3,2525.5,1250.2z M3074.4,1225.1c2.4,1.4,4.8,3.3,6.9,5.8c-0.4,0.1-0.8,0.1-1.1,0.2
			c-2.2-0.6-4.6-0.3-5.9-0.1c-0.3,0-0.6,0.1-0.7,0.1C3075,1229.1,3074.9,1226.9,3074.4,1225.1z M3066.6,1235.2
			c-0.4-1-0.2-2.1-0.1-2.5c0.1,0.1,0.3,0.1,0.4,0.1c0.2,0,0.4-0.1,0.6-0.2c0.5,1.1,1.5,1.9,2.8,1.9c0.2,0,0.4,0,0.6,0
			c-0.1,0.3-0.1,0.5-0.2,0.8c-0.4,1.9-0.9,4.1-0.7,7.1C3069,1239.4,3067.8,1237,3066.6,1235.2z M3065.1,1245
			c0.9-0.1,1.6-0.8,1.6-1.7v0.3c0.1,0,0.2,0,0.4,0c1,0,2.6-0.1,3,0.9l0,0c0.1,0.4,0.2,0.8,0.3,1.2
			C3068.6,1245.5,3066.8,1245.2,3065.1,1245z M3071.4,1235.4c0.1-0.4,0.2-0.8,0.2-1.2c1.1-0.5,1.9-1.5,1.9-2.8l0,0.3
			c0.2,0,0.5,0,0.9-0.1c1-0.1,2.7-0.4,4.4-0.1c-2.7,0.9-3.9,2.3-4.4,5.4c-0.7,0.4-1.4,0.8-1.9,1.3c0,0,0,0,0,0l0,0
			c-0.9,0.8-1.5,1.8-1.9,2.9C3070.6,1238.8,3071,1237,3071.4,1235.4z M3076.9,1246.5c0,0-0.1,0.1-0.1,0.1c-0.4-0.1-0.8-0.1-1.2-0.2
			c0.3-0.2,0.4-0.5,0.4-0.9c0-0.6-0.5-1.1-1.1-1.1c-0.6,0-1.1,0.5-1.1,1.1c0,0.3,0.1,0.5,0.2,0.7c-0.9-0.1-1.9-0.3-2.8-0.4
			c-0.1-0.6-0.2-1.2-0.3-1.8c-0.1-2.1,0.6-3.9,2-5.2c1-0.6,2.3-0.4,3.2-0.1c0.1,0.5,0.5,0.9,1.1,0.9c0.6,0,1.1-0.5,1.1-1.1
			c0-0.6-0.5-1.1-1.1-1.1c-0.5,0-0.9,0.3-1.1,0.7c-0.6-0.2-1.2-0.3-1.9-0.3c0.2-0.1,0.4-0.3,0.6-0.4c4.2,0.1,6.3-2.5,7.3-4.8
			c0.5,0.3,1,0.7,1.4,1.3l0,0c1.1,1.7,2,3.6,2.8,5.8c-2.7,0.3-4.1,1.4-5.4,4.4c-1,0.5-2.3,1.1-3.5,2.1c-0.2,0-0.4,0-0.6,0
			C3076.8,1246.2,3076.9,1246.3,3076.9,1246.5z M3084,1247.6c-1.6-0.7-3.5-1.2-5.7-1.4c1.1-0.7,2.1-1.3,3.2-1.7c2.5,0.6,4.4,0,5.9-1
			c0.1,0.7,0.3,1.4,0.4,2.1l0,0c0,0.8,0,1.6,0,2.5C3086.5,1247.9,3085.3,1247.7,3084,1247.6z M3089.3,1248.3c-0.2,0-0.4-0.1-0.6-0.1
			c0.2-1.2,0.6-2.3,1.1-3.4C3089.5,1245.9,3089.4,1247.1,3089.3,1248.3z"/>
	</g>
	<g>
		<line class="st1" x1="3894" y1="1036" x2="3894" y2="1164.9"/>
		<line class="st1" x1="3875.1" y1="1044.7" x2="3893.5" y2="1063.1"/>
		<line class="st1" x1="3921.1" y1="1063.1" x2="3893.5" y2="1090.7"/>
		<line class="st1" x1="3865.8" y1="1090.7" x2="3893.5" y2="1118.4"/>
	</g>
	<g>
		<line class="st1" x1="252.7" y1="1073.6" x2="252.7" y2="1166.6"/>
		<line class="st1" x1="227.4" y1="1085.2" x2="252" y2="1109.9"/>
		<line class="st1" x1="289" y1="1109.9" x2="252" y2="1146.9"/>
	</g>
	<g>
		<line class="st1" x1="91.2" y1="910.9" x2="91.2" y2="1023.2"/>
		<line class="st1" x1="127.6" y1="927.6" x2="92.2" y2="963"/>
		<line class="st1" x1="39" y1="963" x2="92.2" y2="1016.2"/>
	</g>
	<g>
		<line class="st1" x1="1091.2" y1="1127.2" x2="1091.2" y2="1201.9"/>
		<line class="st1" x1="1102.2" y1="1132.2" x2="1091.5" y2="1142.9"/>
		<line class="st1" x1="1075.5" y1="1142.9" x2="1091.5" y2="1158.9"/>
		<line class="st1" x1="1107.5" y1="1158.9" x2="1091.5" y2="1174.9"/>
	</g>
	<g>
		<line class="st1" x1="3291.1" y1="1151.9" x2="3291.1" y2="1221.5"/>
		<line class="st1" x1="3281" y1="1168.3" x2="3291.1" y2="1179"/>
		<line class="st1" x1="3274.1" y1="1184.8" x2="3291.1" y2="1202.4"/>
		<line class="st1" x1="3301.7" y1="1179" x2="3291.1" y2="1189"/>
		<line class="st1" x1="3298.5" y1="1155.6" x2="3291.1" y2="1163.9"/>
	</g>
</g>
</svg>
