<?xml version="1.0" encoding="utf-8"?>
<!-- Generator: Adobe Illustrator 24.0.2, SVG Export Plug-In . SVG Version: 6.00 Build 0)  -->
<svg version="1.1" id="Layer_7" xmlns="http://www.w3.org/2000/svg" xmlns:xlink="http://www.w3.org/1999/xlink" x="0px" y="0px"
	 viewBox="0 0 3969 1107" style="enable-background:new 0 0 3969 1107;" xml:space="preserve">
<style type="text/css">
	.st0{fill:url(#SVGID_1_);}
	.st1{fill:url(#SVGID_2_);}
	.st2{fill:url(#SVGID_3_);}
	.st3{fill:url(#SVGID_4_);}
	.st4{fill:none;stroke:#F0F4FC;stroke-linecap:round;stroke-miterlimit:10;}
	.st5{fill:none;stroke:#F0F4FC;stroke-width:2;stroke-linecap:round;stroke-miterlimit:10;}
</style>
<g>
	<linearGradient id="SVGID_1_" gradientUnits="userSpaceOnUse" x1="1759.3613" y1="1080" x2="1759.3613" y2="821.166">
		<stop  offset="8.379889e-02" style="stop-color:#E8F0FE;stop-opacity:0"/>
		<stop  offset="0.7291" style="stop-color:#C8D1F8"/>
	</linearGradient>
	<path class="st0" d="M1733,1080h4l2-132.2c0.1-1.1,1.7-1.1,1.8,0l5.2,132.2h21l9-216v216h16c1.3-80.9,2-183.2,17-243
		c6-24-108-18-99,0C1722.1,861.1,1732.3,984.1,1733,1080z"/>
	<linearGradient id="SVGID_2_" gradientUnits="userSpaceOnUse" x1="2201.7471" y1="1080" x2="2201.7471" y2="803.304">
		<stop  offset="8.379889e-02" style="stop-color:#E8F0FE;stop-opacity:0"/>
		<stop  offset="0.7291" style="stop-color:#C8D1F8"/>
	</linearGradient>
	<path class="st1" d="M2189,1080h29.9c0.8-86.5,3.9-195.9,13-259.9c3.6-25.7-65.5-18.9-60.1,0.3
		C2179.1,846.2,2188.5,977.4,2189,1080z"/>
	<linearGradient id="SVGID_3_" gradientUnits="userSpaceOnUse" x1="2573.0408" y1="1080" x2="2573.0408" y2="801.9595">
		<stop  offset="8.379889e-02" style="stop-color:#E8F0FE;stop-opacity:0"/>
		<stop  offset="0.7291" style="stop-color:#C8D1F8"/>
	</linearGradient>
	<path class="st2" d="M2566,1080h18c0.5-86.5-3.3-200.1,17-261c9-27-72-18-54,0C2565.5,837.5,2565.7,977.4,2566,1080z"/>
	<linearGradient id="SVGID_4_" gradientUnits="userSpaceOnUse" x1="2596.7302" y1="1080" x2="2596.7302" y2="802.3325">
		<stop  offset="8.379889e-02" style="stop-color:#E8F0FE;stop-opacity:0"/>
		<stop  offset="0.7291" style="stop-color:#C8D1F8"/>
	</linearGradient>
	<path class="st3" d="M2595,1080h2c0.1-86.5-5-198,13-261c7.5-26.1-32.2-18-27,0C2588.4,837.5,2594.9,977.4,2595,1080z"/>
	<line class="st4" x1="1736.7" y1="918" x2="1736.7" y2="864"/>
	<line class="st4" x1="2196" y1="882" x2="2196" y2="846"/>
	<line class="st4" x1="2574" y1="909" x2="2574" y2="864"/>
	<line class="st4" x1="2592" y1="873" x2="2592" y2="846"/>
	<line class="st5" x1="2214" y1="909" x2="2214" y2="873"/>
	<line class="st4" x1="2205" y1="954" x2="2205" y2="918"/>
	<line class="st5" x1="1754.7" y1="880.7" x2="1754.7" y2="837"/>
	<line class="st4" x1="1763.7" y1="935.7" x2="1763.7" y2="901.3"/>
	<line class="st4" x1="1790.7" y1="882" x2="1790.7" y2="855.3"/>
</g>
</svg>
