<?xml version="1.0" encoding="utf-8"?>
<!-- Generator: Adobe Illustrator 24.0.2, SVG Export Plug-In . SVG Version: 6.00 Build 0)  -->
<svg version="1.1" id="Layer_10" xmlns="http://www.w3.org/2000/svg" xmlns:xlink="http://www.w3.org/1999/xlink" x="0px" y="0px"
	 viewBox="0 0 3969 1458" style="enable-background:new 0 0 3969 1458;" xml:space="preserve">
<style type="text/css">
	.st0{fill:url(#SVGID_1_);}
	.st1{fill:#F8D309;}
	.st2{fill:#FFF0FA;}
	.st3{fill:#857DAB;}
	.st4{fill:#A5ACEF;}
	.st5{clip-path:url(#SVGID_4_);}
	.st6{fill:#898CCC;}
	.st7{clip-path:url(#SVGID_4_);fill:#AECBFA;}
	.st8{fill:#AECBFA;}
	.st9{opacity:0.5;fill:#FFFFFF;}
</style>
<g>
	<g>
		<linearGradient id="SVGID_1_" gradientUnits="userSpaceOnUse" x1="2133.7" y1="780.3619" x2="2133.7" y2="213.4863">
			<stop  offset="0.1247" style="stop-color:#D7E1FF"/>
			<stop  offset="0.1567" style="stop-color:#D1D9F7"/>
			<stop  offset="0.3511" style="stop-color:#B3ACCE"/>
			<stop  offset="0.5381" style="stop-color:#9A89AD"/>
			<stop  offset="0.7132" style="stop-color:#897096"/>
			<stop  offset="0.8721" style="stop-color:#7F6088"/>
			<stop  offset="1" style="stop-color:#7B5B83"/>
		</linearGradient>
		<path class="st0" d="M2328.1,728.9c10.6-3.3-39.1-45.5-34.2-47.2c4.9-1.7,12-7.5,17.6-7.5c-4.9-11.7-4.9-25-11.3-27.5
			c-6.3-2.5-13.4-20-13.4-21.7s-2.8-4.2-2.8-6.7c0-2.5-6.3-10.9-9.2-11.7c-2.8-0.8-1.4-8.3-4.9-13.4c-3.5-5-5.6-4.2-5.6-5.8
			c0-1.7-2.8-7.5-3.5-8.3c-0.7-0.8-7.1-20-7.1-20s-7.7,24.2-13.4,34.2c-5.6,10-7.8,6.7-9.2,10.9c-1.4,4.2-7.8,19.2-14.8,18.4
			c-2.3-0.3-4.2-0.9-6-1.3V478.6l3.5-5.9h-13.2v-26.4l-5.6-56l-5.8,56v26.4h-3.7l3.2,5.9v38.1c-0.6-1-2.6-4.7-4.6-10.1
			c-1.2-3.3-3.7-20.1-3.7-20.1s-2.1,16.5-3.5,20.1c-2.4,6.4-5.2,10.5-5.2,10.5h3.2v4h-2.8l2.6,5.2h0.2v19.6c-0.5-1.2-1-2.5-1.5-3.9
			c-2-5.3-14.1-125.1-14.1-125.1s-7.8,64.6-8.6,66.2l-6.1-121.3l-8.7,134.5h-13.3v-1.7l5.6-6.3h-5.6v-90.2l5.6-6.3h-5.6v-9.7h6.8
			c0,0-0.1-0.2-0.4-0.6h0.1l-3.1-31.9l-2,23c-1.8-3.4-3.8-7.7-5.8-12.6c-2.9-7-8.6-86.3-8.6-86.3s-4.9,78.6-8,86.3
			c-2.2,5.4-4.6,10-6.6,13.6l-2.1-24l-3.1,31.9h0.2c-0.3,0.4-0.5,0.6-0.5,0.6h7.2v9.7h-5.6l5.6,7.2V463c-0.9-1.9-2-4-3-6.3
			c-2.1-4.8-5.7-49.7-5.7-49.7s-4.3,44.4-6.6,49.7c-3.1,7.1-6.5,12.1-8.1,14.2l-8.6-46.8l-9.9,55.9h-6.4l-5.2-85.7l-5.3,55
			c-1.2-9.5-2.3-20.4-2.3-20.4s-2.5,27.5-4.1,33.6c-2.8,10.8-6.1,17.5-6.1,17.5h2.8v4h-2.8l2.8,4.8v16.2c-0.7-2-1.5-4.6-2.3-7.6
			c-1.1-4.1-3.3-25.1-3.3-25.1s-1.9,20.6-3.1,25.1c-2.1,8-4.6,13.1-4.6,13.1h2.8v2.4h-2.8l2.3,5.2h0.5l-2.1,62.8l-6.1-51.5
			l-12.7,114.8c-4.4-5.9-14.3-57.2-14.3-57.2s-9.7,54.1-15.4,53.4c-5.6-0.7-22.5-0.7-26.8,4.9c-4.2,5.6-2.1,14.8-6.3,14.8
			c-4.2,0-16.2,0-16.2,5.6c0,5.6,6.3,26.8,12.7,30.3c6.3,3.5,2.1-6.3,4.2-1.4c2.1,4.9,7,9.9,11.3,9.9c-0.7,2.8-0.7,12,4.2,14.1
			c-1.4,4.9-2.8,9.9,0,12c-4.2-0.7-11.3,16.2-17.6,19c4.2,4.2,7,9.9,3.5,10.6c-3.1,0.6-11.7,11.2-16.6,19.9h35.5h103.3h283.9
			C2362.5,774.8,2331.6,734.6,2328.1,728.9z M2077.7,501h-4v-22.9l4,4.8h0V501z M2077.7,477.7h-4V472h4V477.7z"/>
		<path class="st1" d="M2112.8,378.9h-4.9v-10.3c0-1.1,0.9-2,2-2h0.9c1.1,0,2,0.9,2,2V378.9z"/>
	</g>
	<g>
		<path class="st2" d="M3644.8,886.7v-306c0,0-113.5-131.8-123.6-155.2c-10.1-23.4-20.2-33.3-27.5-42.3c-7.2-9-23.1-8.1-23.8-18
			c-0.7-9.9-12.3-28.8-18.1-36c-5.8-7.2-0.7-16.2,0-26.1c0.7-9.9-6.5-10.8-9.4-15.3c-2.9-4.5-5.8-13.5-13.7-22.5
			c-7.9-9-19.5-32.4-25.3-43.2c-5.8-10.8-23.1-55.8-27.5-60.3c-4.3-4.5-18.8-45.9-24.6-52.2c-5.8-6.3-9.4,1.8-17.3,11.7
			s-32.5,34.2-43.4,50.4s-34.9,41.4-47.1,73.2c-3.8,9.8,3.5,0.3-8.8,19.2c-26.5,0-8.8,28.8-35.3,38.4c-9.2,3.3-11.7,37.9-19.6,62.2
			s-17.3,33.3-22.4,55.8c-5.1,22.5-91.5,79.9-91.5,95.2c0,15.3-67.5,73.4-78.4,84.1c-10.8,10.8-176.5,226.8-185.2,235.8
			c-2.8,2.9,2.2,23.6,9.7,51H3644.8z"/>
		<path class="st3" d="M3340.1,243.4c0,1.8,8.7,5.4,8.7,5.4l21,20.7c0,0-9.4,35.1-8.7,51.3c0.7,16.2,2.2,24.3-0.7,29.7
			s-0.7,18.9-0.7,18.9s-4.3,26.1-5.1,35.1s-3.6,9.9,5.8,12.6s22.4,8.1,22.4,8.1l-0.7,25.2l5.1,16.2l-1.4,13.5l3.6,27.9
			c0,0,1.4,32.4-4.3,43.2c-5.8,10.8-7.2,21.6-7.2,21.6l2.2,6.3l-0.7,7.2c0,0,3.6,5.4,6.5,9.9c2.9,4.5,7.9,18,15.9,24.3
			c7.9,6.3,13,18.9,16.6,29.7c3.6,10.8-5.1,26.1-5.1,26.1s2.9,13.5,2.9,20.7c0,7.2-9.4,47.7-9.4,47.7s3.6,11.7-0.7,18.9
			c-4.3,7.2-15.2,52.2-15.2,52.2s6.5,2.7,12.3,14.4c4.7,9.5,27.4,43.8,37.8,56.9h159.3l142.2-33.9l-25.7-160.6l-66.2-121.3
			l-66.2-99.3c0,0-52.6-23.2-62.7-46.6c-10.1-23.4-20.2-33.3-27.5-42.3c-7.2-9-23.1-8.1-23.8-18s-12.3-28.8-18.1-36
			c-5.8-7.2-0.7-16.2,0-26.1c0.7-9.9-6.5-10.8-9.4-15.3c-2.9-4.5-5.8-13.5-13.7-22.5c-7.9-9-19.5-32.4-25.3-43.2
			c-5.8-10.8-23.1-55.8-27.5-60.3c-4.3-4.5-18.8-45.9-24.6-52.2c0,0-1.4-1.8-3.6-1.8c-2.2,0-1.4,47.7-1.4,47.7l2.2,2.7l0.7,26.1
			l-2.9,5.4c0,0-4.3,14.4-3.6,15.3c0.7,0.9,3.6,11.7,3.6,11.7h-3.6C3343,216.4,3340.1,241.6,3340.1,243.4z"/>
		<path class="st4" d="M3270,373l-1.4-13.5l-7.9-13.5l0.7-7.2l-3.6-0.9l-8.7-12.6l-5.8-5.4l-2.2-4.5l-3.6-3.6l-2.2-13.5l1.4-16.2
			l-2.9-2.7l-1.4-15.3c0,0-14,2.1-14.9,6c-1,3.9-3.1,19.2-3.1,19.2l5.1,2.7l1.4,7.2l2.9,5.4l0.7,9.9l3.6,3.6c0,0,0.7,4.5,1.4,5.4
			c0.7,0.9,5.1,2.7,5.1,2.7l7.2,5.4c0,0-0.7,5.4,0,6.3c0.7,0.9,3.6,0.9,5.1,2.7c1.4,1.8,6.5,7.2,6.5,7.2l5.8,2.7l7.2,9.9L3270,373z"
			/>
		<path class="st4" d="M3210.8,488l-6.5-14.4l-6.5-3.6c0,0-17.3-18.9-17.3-21.6c0-2.7-5.8-13.5-5.8-13.5l-1.4-18.9l-5.8-2.7v-6.3
			l-1.7-9.9c0,0-8.2,17.8-9,26.9c1.9,2.9,2.8,7.3,2.8,7.3l2.2,14.4c0,0,9.4,10.8,10.1,10.8s-0.7,2.7-0.7,2.7l10.8,3.6l5.1,6.3
			l8.7,3.6l5.1,4.5L3210.8,488z"/>
	</g>
	<g>
		<g>
			<defs>
				<path id="SVGID_3_" d="M3273.9,268.5c-0.9-3.5,0.1-10.6,1.1-11.4c1-0.8,2.4-5,3.1-6.6s2.2-3.4,3.2-4.2c1-0.8-0.3-1.8,0.4-2.9
					c0.7-1.1,1,0.2,1.8-0.6c0.7-0.8,0.9-2.9,1.9-3.9c1-1.1,2.2-2.7,3.5-3.7c1.3-1.1,1.5-1.6,2.5-2.2c1-0.6,1-1.6,2.3-0.6
					c1.3,1,1.6,0.7,2.6,0.2s1.8,0.4,3.4,0.9c1.6,0.5,1.5-0.3,2.9,0.4c1.3,0.7,2.4,2.2,2.2,2.8c-0.2,0.5,0.3,1.5,1.1,2
					c0.8,0.5,1.1,1.5,1.6,2c0.5,0.5,1.8,1,1.4,1.8c-0.5,0.8,0.3,1,1.1,1.8c0.8,0.7,0.9,2.3,1.7,3s1.8,0.4,2.4,2s1.3,1.2,1.9,1.7
					c0.5,0.5,0.8,1,0.9,2.3c0,1.3,2.1,1.5,1.6,2.5c-0.5,1.1-1.2,2.1-0.4,3.1s2.1,8.2,0.8,8.2s-1.3,5.5-3.2,5.3
					C3313.8,272.2,3275.8,275.7,3273.9,268.5z"/>
			</defs>
			<clipPath id="SVGID_2_">
				<use xlink:href="#SVGID_3_"  style="overflow:visible;"/>
			</clipPath>
		</g>
		<g>
			<defs>
				<path id="SVGID_5_" d="M3273.9,268.5c-0.9-3.5,0.1-10.6,1.1-11.4c1-0.8,2.4-5,3.1-6.6s2.2-3.4,3.2-4.2c1-0.8-0.3-1.8,0.4-2.9
					c0.7-1.1,1,0.2,1.8-0.6c0.7-0.8,0.9-2.9,1.9-3.9c1-1.1,2.2-2.7,3.5-3.7c1.3-1.1,1.5-1.6,2.5-2.2c1-0.6,1-1.6,2.3-0.6
					c1.3,1,1.6,0.7,2.6,0.2s1.8,0.4,3.4,0.9c1.6,0.5,1.5-0.3,2.9,0.4c1.3,0.7,2.4,2.2,2.2,2.8c-0.2,0.5,0.3,1.5,1.1,2
					c0.8,0.5,1.1,1.5,1.6,2c0.5,0.5,1.8,1,1.4,1.8c-0.5,0.8,0.3,1,1.1,1.8c0.8,0.7,0.9,2.3,1.7,3s1.8,0.4,2.4,2s1.3,1.2,1.9,1.7
					c0.5,0.5,0.8,1,0.9,2.3c0,1.3,2.1,1.5,1.6,2.5c-0.5,1.1-1.2,2.1-0.4,3.1s2.1,8.2,0.8,8.2s-1.3,5.5-3.2,5.3
					C3313.8,272.2,3275.8,275.7,3273.9,268.5z"/>
			</defs>
			<use xlink:href="#SVGID_5_"  style="overflow:visible;fill:#AECBFA;"/>
			<clipPath id="SVGID_4_">
				<use xlink:href="#SVGID_5_"  style="overflow:visible;"/>
			</clipPath>
			<g class="st5">
				<path class="st6" d="M3273.9,268.4c-0.9-3.5,0.1-10.6,1.1-11.4c1-0.8,2.4-5,3.1-6.6c0.7-1.6,2.2-3.4,3.2-4.2
					c1-0.8-0.3-1.8,0.4-2.9c0.7-1.1,1,0.2,1.8-0.6c0.7-0.8,0.9-2.9,1.9-3.9c1-1.1,2.2-2.7,3.5-3.7c1.3-1.1,1.5-1.6,2.5-2.2
					c1-0.6,1-1.6,2.3-0.6c1.3,1,1.6,0.7,2.6,0.2s1.8,0.4,3.4,0.9c1.6,0.5,1.5-0.3,2.9,0.4c1.3,0.7,2.4,2.2,2.2,2.8
					c-0.2,0.5,0.3,1.5,1.1,2s1.1,1.5,1.6,2c0.5,0.5,1.8,1,1.4,1.8c-0.5,0.8,0.3,1,1.1,1.8c0.8,0.7,0.9,2.3,1.7,3s1.8,0.4,2.4,2
					s1.3,1.2,1.9,1.7c0.5,0.5,0.8,1,0.9,2.3s2.1,1.5,1.6,2.5c-0.5,1.1-1.2,2.1-0.4,3.1c0.8,1,2.1,8.2,0.8,8.2s-1.3,5.5-3.2,5.3
					C3313.8,272.1,3275.7,275.6,3273.9,268.4z"/>
			</g>
			<path class="st7" d="M3284,263.4c0.2-1.3,2.5-2.7,3-3.2c0.5-0.5,0-1.3,0.4-2.3c0.5-1,2-1.6,1.5-2.4s-1.3-0.5-0.3-1.5
				c1-1.1,0.1-3.1,0.1-3.1s-1.3-1.2-0.9-3.3c0.4-2.1-9.5,15-9.3,18.1S3283.4,266.8,3284,263.4z"/>
			<path class="st7" d="M3283.3,265.5c0.2-1-1.6-1.7-1.1-2.8c0.5-1.1,2-2.9,2.2-4.2s0.9-3.6,1.6-4.7c0.7-1.1,2.3-1.6,2-2.9
				c-0.3-1.3,1.2-2.9,2.2-4c1-1.1,2.3-1.6,3.8-2.5c1.5-0.8,4-2.7,3.2-3.5s0-1.3,1.5-2.4c1.5-1.1,3.3-1.7,3.8-2.7
				c0.5-1.1,2.5-3.2,1.6-4.4c-0.8-1.3-18.8-6.8-24.5,6.8c-5.7,13.6-11.3,23.1-9.3,28.5S3282.2,270.2,3283.3,265.5z"/>
			<path class="st7" d="M3278.5,266.2c0.4-2.3,0.1-4.4-0.2-5.7c-0.3-1.3-0.9-2.8-0.1-3.9c0.7-1.1,1.2-3.1,1.9-3.7
				c0.8-0.5,2-1.4,2.3-1.9c0.2-0.5,1.3-1.1,1.5-1.6c0.2-0.5,1.2-3.1,2.2-4.2c1-1.1,3.8-1.9,4.6-2.5c0.8-0.5,2-1.9,2-2.9
				s-1.4-2.8-0.9-3.8c0.5-1.1,1.7-2.1,3-3.7c1.2-1.6-2.9-1.4-2.9-1.4s-19.2,4.6-21,18.6c-1.8,14-2.7,18.9-1.3,19.7
				C3270.6,269.9,3277.8,269.6,3278.5,266.2z"/>
			<g class="st5">
				<g>
					<path class="st8" d="M3307.4,257.6c-0.1,0.1-0.2,0.3-0.9,0.2C3306.7,257.7,3306.9,257.4,3307.4,257.6z"/>
				</g>
				<g>
					<path class="st8" d="M3304.6,257.1c-0.4-0.2-0.6-0.4-0.5-0.7C3304.3,256.4,3304.6,256.5,3304.6,257.1z"/>
				</g>
				<g>
					<path class="st8" d="M3296.3,254.1c-0.1,0.1-0.2,0.3-0.9,0.2C3295.7,254.2,3295.9,253.9,3296.3,254.1z"/>
				</g>
				<g>
					<path class="st8" d="M3293.5,253.6c-0.4-0.2-0.6-0.4-0.5-0.7C3293.3,252.9,3293.6,253.1,3293.5,253.6z"/>
				</g>
				<g>
					<path class="st8" d="M3315.1,252.8c0.1,0.1,0.1,0.4-0.4,0.8C3314.7,253.3,3314.6,253,3315.1,252.8z"/>
				</g>
				<g>
					<path class="st8" d="M3313.5,254c-0.4,0.1-0.7,0.2-0.9-0.1C3312.9,253.8,3313.1,253.6,3313.5,254z"/>
				</g>
			</g>
		</g>
		<g>
			<defs>
				<path id="SVGID_7_" d="M3273.9,268.5c-0.9-3.5,0.1-10.6,1.1-11.4c1-0.8,2.4-5,3.1-6.6s2.2-3.4,3.2-4.2c1-0.8-0.3-1.8,0.4-2.9
					c0.7-1.1,1,0.2,1.8-0.6c0.7-0.8,0.9-2.9,1.9-3.9c1-1.1,2.2-2.7,3.5-3.7c1.3-1.1,1.5-1.6,2.5-2.2c1-0.6,1-1.6,2.3-0.6
					c1.3,1,1.6,0.7,2.6,0.2s1.8,0.4,3.4,0.9c1.6,0.5,1.5-0.3,2.9,0.4c1.3,0.7,2.4,2.2,2.2,2.8c-0.2,0.5,0.3,1.5,1.1,2
					c0.8,0.5,1.1,1.5,1.6,2c0.5,0.5,1.8,1,1.4,1.8c-0.5,0.8,0.3,1,1.1,1.8c0.8,0.7,0.9,2.3,1.7,3s1.8,0.4,2.4,2s1.3,1.2,1.9,1.7
					c0.5,0.5,0.8,1,0.9,2.3c0,1.3,2.1,1.5,1.6,2.5c-0.5,1.1-1.2,2.1-0.4,3.1s2.1,8.2,0.8,8.2s-1.3,5.5-3.2,5.3
					C3313.8,272.2,3275.8,275.7,3273.9,268.5z"/>
			</defs>
			<clipPath id="SVGID_6_">
				<use xlink:href="#SVGID_7_"  style="overflow:visible;"/>
			</clipPath>
		</g>
	</g>
	<path class="st9" d="M2491.5,147.2c4.7,6.4,7.7,14.2,8.3,22.8c1.6,23.9-16.5,44.6-40.5,46.2c-8.6,0.6-16.7-1.4-23.7-5.2
		c8.5,11.6,22.5,18.7,37.9,17.7c23.9-1.6,42.1-22.3,40.5-46.2C2513.1,167.1,2504.1,154.1,2491.5,147.2z"/>
</g>
</svg>
