<?xml version="1.0" encoding="utf-8"?>
<!-- Generator: Adobe Illustrator 24.0.2, SVG Export Plug-In . SVG Version: 6.00 Build 0)  -->
<svg version="1.1" id="Layer_1" xmlns="http://www.w3.org/2000/svg" xmlns:xlink="http://www.w3.org/1999/xlink" x="0px" y="0px"
	 viewBox="0 0 2220 1080" style="enable-background:new 0 0 2220 1080;" xml:space="preserve">
<style type="text/css">
	.st0{fill:#AC9BBF;}
	.st1{fill:#B6ACD1;}
	.st2{fill:#CFCAEA;}
	.st3{fill:#F5F3FF;}
	.st4{fill:#E9E6FF;}
	.st5{fill:#CFCEED;}
	.st6{fill:none;stroke:#CFCAEA;stroke-width:6;stroke-miterlimit:10;}
	.st7{fill:#F9E4F0;}
	.st8{fill:#937FA4;}
	.st9{fill:#E9E3FF;}
	.st10{fill:#9B91C4;}
	.st11{fill:none;stroke:#9B91C4;stroke-miterlimit:10;}
	.st12{display:none;}
	.st13{display:inline;fill:#18215A;stroke:#FFFFFF;stroke-miterlimit:10;}
	.st14{fill:none;stroke:#989458;stroke-width:4;stroke-miterlimit:10;}
	.st15{fill:none;stroke:#B8EEFF;stroke-width:8;stroke-miterlimit:10;}
	.st16{fill:#D7F7FF;}
	.st17{fill:#E6FDFF;}
	.st18{fill:#B8EEFF;}
	.st19{fill:none;stroke:#A9EFFF;stroke-width:8;stroke-miterlimit:10;}
	.st20{fill:#EAE4F7;}
	.st21{fill:#7C6C8E;}
	.st22{fill:#CABFDB;}
	.st23{fill:none;stroke:#D7F7FF;stroke-miterlimit:10;}
	.st24{fill:#AEA1BF;}
	.st25{fill:#F2EBFF;}
	.st26{opacity:0.2;}
	.st27{fill:#FFFFFF;}
</style>
<g>
	<path class="st0" d="M951.8,1046.4c1-5.9,0.5-12.3-0.6-18c-6.4-33.2-25.7-63.9-53.9-86.1c-37.2-36.5-74.4-73-111.6-109.5
		c-6.1,11.4-14.4,21.9-24.4,31l-16-11.5c-2.3,8.6-8.7,16.5-17.2,21.4c-6-7.9-15.2-27.5-22.4-19.9c-8.8,9.1-28.7,2-33.2,10.9
		c-18.3-19.5-33.4-41.4-54.5-58.5l-9.7,8.5c-17.5-17-35.1-34-52.6-51c-1.7-1.6-3.6-3.4-6.2-3.6c-2.6-0.2-4.9,1.3-7,2.7
		c-15.9,10.8-30.4,23.2-43.1,36.8c-2.9,3.1-6.3,6.6-10.8,6.7c-2.7,0.1-5.2-1.2-7.5-2.4c-7.8-4.2-15.6-8.3-23.4-12.5
		c-0.1,0.1-0.2,0.2-0.3,0.2l47.8,321.4L951.8,1046.4z"/>
	<g>
		<path class="st1" d="M548.4,763.3c1.7,1.6,3.5,3,5.2,4.5l5.3,4.3c1.8,1.5,3.6,2.9,5.3,4.6c1.7,1.6,3.5,3.3,5.1,5.2l-6-2.5
			c0.4-0.1,0.8-0.2,1.3-0.3c0.4-0.1,1-0.1,1.5-0.1c1.1,0,2.3,0.2,3.3,0.6c0.5,0.2,0.9,0.4,1.4,0.7c0.4,0.2,0.8,0.5,1.1,0.7l0.8,0.6
			c0.2,0.1,0.5,0.4,0.6,0.5c0.7,0.5,0.9,0.5,0.7,0.2c-0.2-0.3-0.9-0.6-1.1-0.7l6.7,5.1c0.6,1,1.5,1.9,3,3.4c1.4,1.5,3.3,3.4,5.2,6.3
			l0.7,1.1c0.2,0.4,0.4,0.8,0.6,1.2c0.2,0.4,0.4,0.9,0.6,1.3l0.3,0.7c0,0,0.2,0.5,0.2,0.8c0.1,0.3,0.1,0.7,0.2,1
			c0.2,1.2,0.2,2.1,0.1,2.8l0,0.5l0,0.4l-0.1,0.8l-0.3,2.1c0,0.5,0,0.8,0,0.8c0-0.1,0.1-0.1,0.1-0.5l0-0.3c0-0.2,0-0.3,0-0.5
			c0-0.2,0-0.3-0.1-0.5c0-0.2-0.1-0.5-0.2-0.8c-0.1-0.3-0.2-0.5-0.3-0.8c-0.1-0.3-0.3-0.7-0.5-1c-0.2-0.3-0.4-0.7-0.7-0.9
			c-0.2-0.3-0.5-0.6-0.8-0.9l-1.3-1c-0.2-0.2-0.1-0.2,0.2-0.1c0.3,0.1,0.9,0.2,1.7,0.3c0.8,0.2,1.9,0.5,3,1.1c1.1,0.5,2.3,1,3.3,1.8
			c0.5,0.4,1,0.8,1.5,1.1c0.5,0.4,0.9,0.8,1.3,1.3c0.4,0.4,0.9,0.9,1.2,1.3c0.3,0.4,0.7,0.9,1,1.3l0.5,0.7l0.4,0.6l0.8,1.3
			c0.5,0.8,0.8,1.6,1.2,2.4l0.9,2.1c1,2.6,1.7,4.5,2.3,5.4c0.1,0.1,0.1,0.2,0.2,0.3c0.1,0,0.1,0.1,0.1,0.2c0.1,0.2,0.1,0.1,0.2,0.1
			c0,0,0,0,0-0.1c0,0,0-0.1-0.1-0.1c-0.1-0.1-0.1-0.3-0.3-0.3l-11.2-1.1c2.3-1.1,4.6-2.4,6.6-3.9c1-0.7,2-1.6,2.9-2.4l0.7-0.6
			l0.9-0.8c0.6-0.5,1.6-1.5,3.4-2.5c0.9-0.5,2-1,3.2-1.3c0.6-0.2,1.1-0.3,1.7-0.4c0.6-0.1,1.2-0.2,1.8-0.2c2.5-0.2,5,0.4,6.9,1.2
			c2,0.8,3.3,1.8,4.4,2.7c1.1,0.9,1.9,1.8,2.6,2.6c0.7,0.8,1.2,1.6,1.7,2.4l1.5,2.4c0.4,0.6,0.8,1.3,1.2,1.9c1.6,2.5,3.3,5,5.1,7.4
			c7.3,9.6,16.1,18,26.2,25.2c5.1,3.6,11,7.2,17,11.7c3,2.2,6,4.7,8.8,7.5c0.7,0.7,1.4,1.5,2.1,2.2l0.5,0.6l0.4,0.5l0.8,1l3.3,4
			c8.7,10.7,16.8,21.1,27,30.8c-6.9-1.7-13.5-4.7-19.7-8.1c-6.3-3.4-12.1-7.5-17.8-11.5l-4.2-3.1l-1-0.8l-0.5-0.4l-0.5-0.3
			c-0.6-0.4-1.2-0.8-1.8-1.2c-2.4-1.6-5.1-3-8-4.3c-5.7-2.8-11.9-5.4-18.5-8.9c-13.3-7.1-25.3-17-34.7-29.2c-2.4-3-4.6-6.2-6.6-9.5
			c-0.5-0.8-1-1.6-1.5-2.5l-0.7-1.3l-0.4-0.6l-0.1-0.1l0,0c0,0,0,0,0,0l0.2,0.3c0.1,0.2,0.4,0.4,0.8,0.8c0.5,0.4,1.1,0.9,2.3,1.4
			c1.1,0.5,2.8,0.9,4.4,0.7c0.4,0,0.8-0.1,1.2-0.1c0.4-0.1,0.7-0.1,1.1-0.3c0.7-0.2,1.5-0.5,2-0.8c1.1-0.6,1.4-1,1.4-1l-1,0.9
			l-1.3,1.1c-1.7,1.4-3.5,2.6-5.3,3.8c-3.6,2.3-7.5,4.2-11.5,5.6l-6.6,2.4l-4.6-3.5c-1-0.8-2.1-1.6-3-2.5c-0.4-0.5-0.9-0.9-1.3-1.4
			c-0.4-0.5-0.8-1-1.1-1.4c-0.6-0.9-1.3-1.9-1.7-2.8l-0.7-1.4c-0.2-0.4-0.3-0.8-0.5-1.3c-1.3-3.3-1.8-5.9-2.3-7.7l-0.3-1.2l-0.2-0.8
			c0-0.1,0-0.2-0.1-0.2l0-0.1c0,0,0,0,0,0c0,0,0-0.1,0-0.1c0,0,0.1,0,0.1,0c0,0,0.1,0,0.1,0c0,0,0.1,0.1,0.2,0.1
			c0.2,0,0.2,0.1,0.3,0c0.1,0,0.1-0.1-0.2-0.2c-0.3-0.2-0.9-0.4-1.7-0.7c-0.8-0.3-1.8-0.7-3-1.4c-0.3-0.2-0.6-0.4-1-0.6l-0.5-0.3
			c-0.4-0.3-0.9-0.7-1.3-1c-0.4-0.4-0.8-0.8-1.2-1.2c-0.3-0.4-0.6-0.9-0.9-1.3c-0.3-0.4-0.5-1-0.7-1.4c-0.2-0.4-0.3-0.8-0.4-1.2
			c-0.1-0.4-0.2-0.9-0.3-1.2c-0.1-0.3-0.1-0.6-0.1-0.9c0-0.3-0.1-0.6-0.1-0.9c0-0.3,0-0.5,0-0.7c0-1,0.1-1.6,0.2-2.3
			c0.2-1.1,0.5-1.9,0.7-2.6c0.2-0.6,0.4-1.1,0.5-1.3c0-0.1,0,0,0.1-0.1l0,0c0,0,0,0.1,0,0.1c0,0.1,0,0.4,0.1,1
			c0,0.2,0.1,0.4,0.1,0.6c0,0.2,0.2,0.5,0.1,0.4l0-0.2c0-0.1,0-0.2,0-0.3c0-0.2-0.1-0.5-0.2-0.8c-0.3-1.2-1.2-2.9-2.6-5.2
			c-1.3-2.2-2.8-5.3-3.5-8.8l6.7,5.1c-1-0.1-1.9-0.2-2.9-0.6c-1-0.3-2-0.8-2.7-1.3c-1.6-1.1-2.4-2.2-2.9-2.8
			c-0.4-0.7-0.5-0.7,0.2-0.5c0.3,0.1,0.8,0.1,1,0.1c0.1,0,0.3-0.1,0.3-0.1c0,0,0.1-0.1,0.1-0.1l-6-2.5c-0.8-1.9-1.7-3.8-2.7-5.8
			c-1-1.9-2.1-4-3.2-6c-1.1-2-2.2-4.1-3.1-6.2C550,767.7,549.1,765.5,548.4,763.3z"/>
	</g>
	<g>
		<path class="st2" d="M529.6,776.9c2.2-3.7,4.7-7.3,7.4-10.7c1.3-1.7,2.7-3.4,4.1-5.1c1.4-1.6,2.9-3.3,4.4-4.9l2.2-2.3l3.6,2.5
			c5.9,4.2,11.6,8.6,17.2,13.1l4.2,3.5l4.1,3.5l4,3.6c1.3,1.2,2.6,2.5,4,3.7c5.3,4.9,10.4,10.1,15.3,15.3
			c4.9,5.3,9.8,10.7,14.4,16.2l-14.8-1.9c2.5-1.9,5-3.9,7.5-5.8c2.5-1.9,5-3.8,7.6-5.8l9.8-7.3l6.3,10.5
			c5.3,8.8,11.7,17.2,18.6,25.4c6.9,8.3,14.5,16.3,21.9,24.7c7.5,8.4,14.9,16.9,22,25.7l5.3,6.6c1.7,2.2,3.5,4.5,5.2,6.7
			c3.4,4.5,6.8,9.1,10,13.9c-4.9-3-9.6-6.2-14.3-9.4c-2.3-1.6-4.6-3.3-6.9-4.9l-6.8-5c-9.1-6.8-17.9-13.8-26.5-21
			c-8.7-7.2-17.3-14.8-25.4-23.2c-8.1-8.4-15.7-17.8-21.9-28.3l16,3.2c-2.5,1.9-5.1,3.8-7.7,5.6c-2.6,1.9-5.1,3.7-7.7,5.6l-8.6,6.2
			l-6.2-8.1c-4.2-5.5-8.4-11.1-12.8-16.6c-4.3-5.5-8.6-11-13-16.5l-13.2-16.4l-13.4-16.5l5.7,0.2c-1.8,1.1-3.6,2.2-5.4,3.3
			c-1.8,1.1-3.6,2.2-5.4,3.4C536.7,772,533.2,774.5,529.6,776.9z"/>
	</g>
	<g>
		<path class="st3" d="M622.4,805.3c4.9,4.7,9.3,9.5,13.8,14.3l13.2,14.4c4.4,4.8,8.7,9.6,13,14.6c4.2,5,8.5,10.1,12.2,15.7
			c-6-3.1-11.5-7-16.6-11.2c-5.2-4.2-10-8.8-14.5-13.8c-4.5-4.9-8.6-10.3-12.2-15.9C627.6,817.8,624.4,811.8,622.4,805.3z"/>
	</g>
	<g>
		<path class="st3" d="M548.6,757.6c4.5,2.2,8.4,4.9,12.2,7.6c3.8,2.8,7.4,5.8,10.8,8.9c3.4,3.1,6.7,6.5,9.8,10
			c3.1,3.6,6.1,7.3,8.5,11.6c-4.7-1.8-8.8-4.2-12.7-6.9c-3.9-2.7-7.6-5.6-11.1-8.8c-3.5-3.2-6.7-6.6-9.7-10.3
			C553.4,766,550.6,762.1,548.6,757.6z"/>
	</g>
	<g>
		<path class="st1" d="M785.7,843.7c3.8,2.8,7.5,5.9,11,8.9c3.6,3.1,7.1,6.2,10.5,9.4c6.9,6.3,13.5,12.9,20,19.6
			c6.5,6.7,12.5,13.3,18.9,19.1c6.4,5.9,13.4,11.5,20.5,17.4c14.2,11.8,28.2,24.4,41,38.3c6.3,7,12.4,14.3,17.9,22
			c1.4,2,2.7,3.9,4,5.9c1.3,2,2.5,4,3.8,6.1c1.2,2,2.3,4.1,3.5,6.2c1.1,2.1,2.1,4.3,3.1,6.4c-1.9-1.4-3.7-2.9-5.6-4.4
			c-1.8-1.5-3.7-2.9-5.5-4.4l-10.8-8.7c-7.2-5.7-14.4-11.4-21.6-17c-14.4-11.2-28.9-22.5-43.1-34.3c-7.1-5.9-14.4-12.2-21.1-19.4
			c-6.8-7.3-12.4-15.1-17.6-22.8c-5.2-7.7-10.3-15.5-15.2-23.5c-2.4-4-4.8-8-7.1-12.2C789.9,852.2,787.7,848,785.7,843.7z"/>
	</g>
	<g>
		<path class="st2" d="M784.2,835.9c3.9,2.6,7.6,5.4,11.3,8.1c3.7,2.8,7.3,5.6,10.9,8.5c3.5,2.9,7.1,5.8,10.6,8.7
			c3.5,2.9,6.9,5.9,10.4,8.8c13.7,11.9,26.9,24.1,39.9,36.6c12.9,12.5,26,25,38.2,38.5c12.3,13.5,24.3,27.3,34.6,42.9
			c-4.2-2.1-8.2-4.4-12.2-6.8c-4-2.4-7.8-4.9-11.7-7.4c-3.8-2.5-7.6-5.1-11.3-7.8c-3.8-2.6-7.4-5.3-11.1-8.1
			c-14.5-11.1-28.7-22.7-41.8-35.4c-13.2-12.7-25.7-26.1-37.1-40.5c-5.7-7.2-11.2-14.6-16.4-22.2c-2.6-3.8-5.1-7.7-7.5-11.7
			C788.6,844.1,786.3,840.1,784.2,835.9z"/>
	</g>
	<g>
		<path class="st4" d="M788.8,835.4c7.2,6.1,14.1,12.4,21,18.8c6.8,6.4,13.5,12.9,20.2,19.4c6.7,6.5,13.3,13.1,19.9,19.8
			c6.5,6.7,13,13.4,19.3,20.6c-7.9-5.3-15.3-11.1-22.5-17.1c-7.2-6.1-14.1-12.4-20.8-19c-6.7-6.6-13.2-13.4-19.4-20.4
			C800.2,850.4,794.2,843.2,788.8,835.4z"/>
	</g>
	<g>
		<path class="st5" d="M709.6,852.6c2.9,0.3,5.3,1.5,7.3,3c2.1,1.5,3.7,3.4,5,5.4c1.3,2,2.3,4,3,6.3c0.7,2.3,1.2,4.7,1.1,7.4
			l-1.4,0.1c0.2-0.1,0.4-0.2,0.5-0.3c0.2-0.1,0.4-0.2,0.6-0.3c0.1,0.2,0.1,0.4,0.2,0.6c0.1,0.2,0.1,0.4,0.2,0.6l0.2,0.8l-1.6-0.7
			c-2.5-1.1-4.5-2.6-6.2-4.3c-1.7-1.6-3.1-3.5-4.3-5.4c-1.2-1.9-2.1-3.9-2.8-5.9C710.8,857.7,710,855.5,709.6,852.6z"/>
	</g>
	<path class="st6" d="M744.9,854c4.7,3.8,9.7,7.2,15,10.3c-0.2-0.3-0.3-0.5-0.5-0.8"/>
	<g>
		<path class="st7" d="M711.6,852.8c1.6,0.9,3,2,4.4,3.3c1.3,1.2,2.5,2.6,3.6,4c2.2,2.8,4,6,5.2,9.4l-0.9,0.4c0-0.6-0.1-1.2,0-1.8
			c0.4,0.5,0.7,1,1,1.5l2.2,3.5l-3.1-3.1c-2.5-2.6-4.6-5.3-6.7-8.1c-1-1.4-2-2.8-3-4.3C713.3,856.1,712.4,854.5,711.6,852.8z"/>
	</g>
	<g>
		<path class="st7" d="M746.8,852.6c1.5,0.4,2.8,0.9,4.1,1.6c1.3,0.6,2.5,1.3,3.7,2.1c1.2,0.8,2.3,1.6,3.4,2.5
			c1.1,0.9,2.2,1.9,3.1,3.2c-1.6-0.1-3-0.6-4.3-1.1c-1.4-0.6-2.6-1.2-3.8-2c-1.2-0.8-2.4-1.7-3.4-2.7
			C748.6,855.1,747.6,854,746.8,852.6z"/>
	</g>
	<g>
		<path class="st1" d="M729.2,875c2.7-0.1,5.3-0.1,8-0.1l8,0l4,0c1.3,0,2.7,0,4.3,0.2c0.8,0.1,1.7,0.4,2.6,0.9
			c0.9,0.5,1.6,1.1,2.2,1.7c0.6,0.6,1.1,1.3,1.5,1.9l1.1,1.7c3,4.4,5.9,8.9,8.8,13.3l0.5,0.8c0.1,0.2,0.2,0.3,0.2,0.2
			c0,0-0.2-0.2-0.5-0.4c-0.3-0.2-0.7-0.3-0.9-0.3c-0.4,0-0.2,0,0.2-0.3l1.8-0.9l7.2-3.5l2.1-1l2.4,1.4c6.4,3.7,13.3,6.6,20.3,8.7
			c1.8,0.5,3.6,1,5.4,1.4c0.9,0.2,1.8,0.4,2.7,0.6c0.4,0.1,1,0.2,1.8,0.4c0.8,0.2,1.8,0.5,3.1,1.4c0.6,0.4,1.3,1.1,1.8,1.8
			c0.5,0.7,0.9,1.5,1.2,2.2c0.5,1.4,0.5,2.5,0.5,3.2l0.1,3c0.1,1.9,0.1,3.8,0.2,5.7c0.3,7.7,1,15.3,1.9,22.9l0.4,2.8l0.2,1.3
			c0,0.3,0.1,0.3,0,0c-0.1-0.1-0.2-0.3-0.3-0.6c-0.2-0.2-0.4-0.5-0.6-0.6c-0.4-0.3-0.5-0.3-0.3-0.2c0.1,0.1,0.7,0.2,1.1,0.4l1.4,0.5
			c3.7,1.2,7.4,2.4,11.2,3.7c7.4,2.5,14.8,5.1,22.2,7.7c1.9,0.7,3.9,1.4,6.1,2.5c1.1,0.6,2.1,1.2,3.2,2c1.1,0.8,2,1.8,2.8,2.7
			c1.6,1.9,2.7,3.9,3.6,5.6c1,1.7,1.9,3.4,2.8,5.2c7.5,13.8,14.8,27.7,21.5,42c-9.9-12.3-19.2-25-28.2-37.8
			c-1.1-1.6-2.3-3.2-3.4-4.8c-1.1-1.6-2.1-3-3.2-4c-0.5-0.5-1-0.9-1.5-1.2c-0.5-0.3-1.2-0.7-1.9-1c-1.4-0.6-3.1-1.1-4.9-1.6
			l-11.3-3.2l-11.3-3.3c-3.8-1.1-7.5-2.2-11.3-3.4l-1.4-0.4c-0.5-0.1-0.9-0.3-1.7-0.5c-0.7-0.3-1.7-0.7-2.9-1.5
			c-0.6-0.4-1.2-1-1.6-1.7c-0.5-0.6-0.8-1.3-1.1-1.9c-0.5-1.2-0.7-2.1-0.8-2.8l-0.2-1.6l-0.4-3c-1.1-7.9-1.6-16-1.9-24
			c0-2-0.1-4-0.1-6l0-2.9c0-0.3,0-0.2,0.1,0.3c0.1,0.2,0.2,0.6,0.5,0.9c0.2,0.3,0.6,0.6,0.8,0.8c0.5,0.3,0.6,0.3,0.4,0.2
			c-0.1-0.1-0.6-0.2-1.1-0.3c-1-0.2-2-0.5-3-0.8c-2-0.5-4-1.2-5.9-1.8c-7.8-2.7-15.3-6.5-22.1-11.2l4.5,0.4l-7.4,2.8l-1.9,0.7
			c-0.8,0.3-1.8,0.7-3.6,0.8c-0.9,0-1.9-0.2-2.8-0.7c-0.9-0.5-1.6-1.1-2-1.7c-0.4-0.6-0.7-1-0.9-1.4l-0.5-0.9
			c-2.4-4.8-4.7-9.5-7.1-14.3l-0.8-1.8c-0.3-0.5-0.5-1-0.8-1.4c-0.5-0.7-0.9-1.1-1.9-1.4c-0.9-0.3-2.3-0.5-3.6-0.8l-3.9-0.7
			l-7.9-1.5C734.4,876.1,731.8,875.6,729.2,875z"/>
	</g>
	<g>
		<path class="st2" d="M733,874.6c3.8-0.2,7.5,0,11.3,0.2c1.9,0.1,3.7,0.3,5.6,0.4c0.9,0.1,1.9,0.2,2.8,0.3c1,0.1,1.8,0.1,2.9,0.4
			c0.6,0.1,1.2,0.3,1.9,0.8c0.6,0.5,1,1,1.3,1.5c0.3,0.5,0.5,0.9,0.7,1.3l0.6,1.2c0.8,1.7,1.6,3.3,2.5,4.9c1.7,3.3,3.5,6.5,5.4,9.7
			l0.2,0.4l-0.4,0c-0.4,0-0.7-0.2-0.9-0.4c-0.2-0.2-0.3-0.5-0.3-0.8c0.1,0.6,0.7,0.8,1.1,0.7l-0.2,0.4c-2.7-2.7-5.1-5.6-7.2-8.8
			c-1-1.6-2-3.2-2.9-4.9l-1.3-2.4c-0.2-0.3-0.3-0.5-0.5-0.6c-0.1-0.1-0.4-0.2-0.7-0.3c-0.7-0.2-1.7-0.3-2.6-0.4
			c-0.9-0.1-1.9-0.2-2.8-0.4c-1.8-0.3-3.7-0.6-5.5-0.9C740.3,876.4,736.7,875.6,733,874.6z"/>
	</g>
	<g>
		<path class="st2" d="M781,893.4c3.3,0.3,6.5,0.7,9.7,1.2c3.2,0.5,6.3,1.1,9.5,1.8c3.1,0.7,6.3,1.6,9.4,2.6c3.1,1,6.2,2.2,9.2,3.7
			l2.2,1.1l-0.2,2c-0.3,2.8-0.7,5.6-1.1,8.5c-0.2,1.4-0.4,2.9-0.7,4.3c-0.3,1.5-0.5,2.9-0.9,4.4c-0.7-1.4-1.2-2.8-1.6-4.3
			c-0.5-1.4-0.8-2.9-1.1-4.4c-0.6-2.9-0.9-5.9-1-8.9l2,3.1l-8.9-3c-3-1-6-2.1-9-3.2c-3-1.2-6-2.4-8.9-3.9
			C786.5,897.1,783.6,895.5,781,893.4z"/>
	</g>
	<g>
		<path class="st3" d="M832.4,950c5.5,1.3,10.9,2.9,16.3,4.6c2.7,0.8,5.4,1.7,8.1,2.6c1.3,0.4,2.7,0.9,4,1.4l2,0.7
			c0.7,0.2,1.4,0.5,2.1,0.8c0.7,0.3,1.6,0.9,2.2,1.6c0.6,0.7,1,1.5,1.3,2.1l1.8,3.8c1.2,2.6,2.4,5.1,3.5,7.7
			c2.3,5.2,4.5,10.4,6.4,15.7c-3-4.8-5.8-9.7-8.5-14.7c-1.4-2.5-2.6-5-3.9-7.5l-1.9-3.8c-0.3-0.6-0.6-1.1-0.9-1.5
			c-0.3-0.3-0.7-0.6-1.2-0.8c-0.5-0.3-1.2-0.5-1.8-0.7l-2-0.7c-1.3-0.5-2.6-1-4-1.5c-2.6-1-5.3-2-7.9-3.1
			C842.7,954.7,837.5,952.5,832.4,950z"/>
	</g>
	<g>
		<path class="st3" d="M781.8,892.8c3.3,0.2,6.5,0.7,9.6,1.4c3.2,0.7,6.3,1.6,9.3,2.7c3,1.1,6,2.3,8.9,3.7c2.9,1.4,5.7,3,8.4,4.9
			c-3.2-0.8-6.2-1.7-9.3-2.7c-3-1-6.1-2-9.1-3.1c-3-1.1-6-2.1-9-3.3C787.7,895.4,784.8,894.2,781.8,892.8z"/>
	</g>
	<g>
		<path class="st1" d="M760.9,888.9c2.2,2.1,4,4.5,5.6,7c0.8,1.3,1.5,2.6,2.2,4c0.7,1.5,1.2,3.2,1.3,5.1c0,2-0.5,3.6-0.8,5.1
			c-0.2,0.7-0.4,1.4-0.5,1.9c-0.1,0.6-0.2,1.2-0.2,1.7c0,0.6-0.1,1.2,0,1.7c0,0.6,0.1,1.2,0.2,1.8c0.2,1.2,0.5,2.4,0.9,3.6
			c0.4,1.2,0.9,2.4,1.5,3.6c0.6,1.2,1.2,2.4,1.9,3.6c1.4,2.4,2.9,4.8,4.5,7.2c3.1,5,6,10,8.5,15.4l2.3,4.9l-3.4-3.8
			c-1-1.1-1.2-2.7-0.7-3.8c0.1,1.2,0.8,2.2,1.7,2.6l-1.1,1c-4.3-4-8.3-8.4-12.1-12.8c-1.9-2.2-3.8-4.6-5.4-7.1
			c-1.7-2.6-3.2-5.4-4.2-8.5c-1.1-3.1-1.5-6.7-0.9-10.1c0.2-0.9,0.4-1.7,0.6-2.5c0.3-0.8,0.6-1.5,0.8-2.2c0.6-1.3,1-2.4,1.2-3.4
			c0.4-1.9-0.4-4.8-1.2-7.5C762.7,894.5,761.8,891.7,760.9,888.9z"/>
	</g>
	<g>
		<path class="st8" d="M809.2,926.7c1,4.6,1.9,9.3,2.8,13.9c0.9,4.6,1.6,9.3,2.4,14l1.1,7c0.2,1.1,0.3,2.5,0.6,3.1
			c0.1,0.3,0.3,0.5,0.7,0.8c0.3,0.3,0.8,0.5,1.3,0.7c4.2,2,8.5,4.2,12.7,6.3l1.6,0.8l-1.1,1.4l-5,6.5l-0.5-2c2.1,1,4.2,2,6.3,3.1
			c2.1,1.1,4.1,2.2,6.2,3.3c2,1.1,4,2.4,6,3.6c2,1.3,3.9,2.6,5.8,4c-2.1-1.1-4.2-2.1-6.3-3.1c-2.1-1-4.2-2-6.3-3
			c-2.1-1-4.2-1.9-6.3-2.8c-2.1-0.9-4.3-1.8-6.4-2.7l-1.5-0.6l1-1.3l4.8-6.7l0.5,2.2c-4.2-2.1-8.5-4.1-12.7-6.2
			c-0.5-0.3-1.1-0.6-1.8-1c-0.6-0.4-1.2-1.1-1.6-1.9c-0.3-0.8-0.4-1.5-0.5-2.1l-0.2-1.8l-0.9-7c-0.5-4.7-1.1-9.4-1.5-14.1
			C809.8,936.1,809.4,931.4,809.2,926.7z"/>
	</g>
	<g>
		<path class="st8" d="M604.2,853.6c1,4.6,1.9,9.3,2.8,13.9c0.9,4.6,1.6,9.3,2.4,14l1.1,7c0.2,1.1,0.3,2.5,0.6,3.1
			c0.1,0.3,0.3,0.5,0.7,0.8c0.3,0.3,0.8,0.5,1.3,0.7c4.2,2,8.5,4.2,12.7,6.3l1.6,0.8l-1.1,1.4l-5,6.5l-0.5-2c2.1,1,4.2,2,6.3,3.1
			c2.1,1.1,4.1,2.2,6.2,3.3c2,1.1,4,2.4,6,3.6c2,1.3,3.9,2.6,5.8,4c-2.1-1.1-4.2-2.1-6.3-3.1c-2.1-1-4.2-2-6.3-3
			c-2.1-1-4.2-1.9-6.3-2.8c-2.1-0.9-4.3-1.8-6.4-2.7l-1.5-0.6l1-1.3l4.8-6.7l0.5,2.2c-4.2-2.1-8.5-4.1-12.7-6.2
			c-0.5-0.3-1.1-0.6-1.8-1c-0.6-0.4-1.2-1.1-1.6-1.9c-0.3-0.8-0.4-1.5-0.5-2.1l-0.2-1.8l-0.9-7c-0.5-4.7-1.1-9.4-1.5-14.1
			C604.9,863,604.5,858.3,604.2,853.6z"/>
	</g>
	<g>
		<path class="st2" d="M723.5,869.4c2.6,2.7,4.8,5.6,6.8,8.8c1,1.6,1.9,3.2,2.8,4.8c0.4,0.8,0.9,1.7,1.3,2.4
			c0.2,0.3,0.4,0.6,0.5,0.8c0.2,0.2,0.3,0.3,0.7,0.4c0.6,0.3,1.6,0.5,2.5,0.8l2.6,0.9c1.7,0.6,3.5,1.2,5.2,1.9
			c3.4,1.3,6.8,2.7,10.1,4.4c-3.7-0.5-7.3-1.3-10.8-2.2c-1.8-0.4-3.6-0.9-5.3-1.4l-2.6-0.8c-0.9-0.3-1.7-0.5-2.8-0.9
			c-0.5-0.2-1.2-0.6-1.6-1.1c-0.5-0.5-0.8-1-1-1.5l-1.2-2.5l-2.3-4.9C726.7,876,725,872.7,723.5,869.4z"/>
	</g>
	<g>
		<path class="st3" d="M733.5,886.3c1.8,0.1,3.5,0.5,5.1,0.9c1.7,0.4,3.3,0.9,4.9,1.5c1.6,0.6,3.2,1.3,4.7,2
			c1.5,0.8,3.1,1.6,4.5,2.6c-1.7-0.3-3.4-0.7-5.1-1.2c-1.6-0.5-3.3-1-4.9-1.6c-1.6-0.6-3.2-1.2-4.7-2
			C736.5,887.9,735,887.2,733.5,886.3z"/>
	</g>
	<g>
		<path class="st8" d="M783.7,844c-0.8,2.1-1.7,4.2-2.6,6.2l-0.4-0.8c1.3,0.3,2.7,0.6,4,0.9l2,0.5l-1.9,1c-1.4,0.8-2.9,1.5-4.3,2.3
			l0.1-1.6c0.9,0.6,1.7,1.2,2.6,1.9c0.8,0.7,1.6,1.4,2.4,2.1l0.8,0.8l-0.9,0.7l-2.9,2.1l0.1-1.5c3.7,3.5,7.7,6.7,11.8,9.9l0,0l0,0
			c0,0.1,0,0.2-0.1,0.3c-0.1,0.1-0.1,0.1-0.2,0.1c-0.2,0-0.4,0-0.4-0.1c0.2,0.2,0.7-0.1,0.5-0.2l0,0.1c-4.7-2.2-9.1-5.2-13-8.6
			l-0.9-0.8l0.9-0.7l2.8-2.2l-0.1,1.5c-0.7-0.7-1.4-1.4-2.2-2c-0.8-0.6-1.6-1.2-2.4-1.8l-1.4-1l1.5-0.7c1.5-0.7,3-1.4,4.5-2l0.1,1.5
			c-1.3-0.4-2.6-0.8-3.9-1.3l-0.7-0.2l0.3-0.6C781.3,847.8,782.4,845.9,783.7,844z"/>
	</g>
	<g>
		<path class="st8" d="M546.1,783.9c0.4,1.2,0.6,2.6,0.6,3.9c0,1.3-0.1,2.6-0.2,3.9c-0.1,1.3,0,2.6,0.3,3.8c0.3,1.2,0.9,2.3,1.6,3.3
			c1.5,2.1,3.4,3.7,5.3,5.6c1.8,1.8,3.7,3.9,4.6,6.7l0.4,1.1l-1.2,0c-5.3-0.2-10.6,0.7-15.6,2.5l0.5-1.4c2.5,4.4,4.9,8.8,7.4,13.3
			l1.8,3.3c0.3,0.6,0.6,1.2,0.8,2.1c0.2,0.8-0.1,1.8-0.5,2.4c-0.4,0.7-0.9,1.2-1.3,1.6l-1.3,1.4c-0.9,0.9-1.8,1.8-2.7,2.7
			c-3.7,3.5-7.6,6.7-11.3,10.1c-3.6,3.5-6.9,7.3-8.7,12.1l-0.2-0.1l1.8-2.3l-1.6,2.4l-0.5,0.7l0.3-0.9c1.5-4.9,4.6-9.1,8.1-12.8
			c3.5-3.7,7.4-7,10.9-10.5c0.9-0.9,1.8-1.8,2.6-2.7l1.2-1.4c0.4-0.5,0.8-0.9,1-1.3c0.2-0.4,0.3-0.8,0.2-1.2
			c-0.1-0.4-0.3-0.9-0.6-1.5l-1.8-3.3c-2.5-4.4-4.9-8.8-7.3-13.2l-0.6-1l1.1-0.4c5.2-1.9,10.8-2.6,16.3-2.3l-0.8,1.1
			c-0.7-2.3-2.3-4.3-4-6.2c-1.7-1.9-3.7-3.7-5.2-6c-0.7-1.1-1.3-2.4-1.5-3.8c-0.2-1.3-0.2-2.7,0-4
			C546.2,789,546.8,786.5,546.1,783.9z"/>
	</g>
	<g>
		<path class="st8" d="M680.9,912.6c4.1,5.5,6.8,12.2,7.5,19.2c0.1,0.9,0.2,1.7,0.4,2.4c0.2,0.7,0.5,1.3,1,1.6
			c0.9,0.7,2.7,0.4,4.4,0.4l10.3-0.3l0,0l1.7,0l-0.2,1.6c-0.5,3.8-2.4,7-4.2,9.9c-1.9,2.9-3.7,5.7-5.4,8.7c-3.4,5.9-6.5,12-9.2,18.3
			c2.2-6.5,4.8-12.8,7.9-19c1.5-3.1,3.1-6.1,4.8-9.1c1.6-3,3-6,3.1-9.1l1.5,1.6l0,0l-10.3-0.4c-0.9,0-1.7-0.1-2.6-0.1
			c-0.9-0.1-2-0.3-2.9-1.1c-0.9-0.7-1.3-1.8-1.5-2.7c-0.2-0.9-0.2-1.9-0.2-2.7C686.7,925.1,684.6,918.4,680.9,912.6z"/>
	</g>
	<g>
		<path class="st8" d="M707.6,857.5c-0.8,2.6-2.1,5-3.7,7.1l-0.2-0.9c2.2,0.8,4.3,2.2,5.9,4.1l0.4,0.4l-0.3,0.5l-2.3,4.1l-2.3,3.9
			c0,0.1,0-0.2,0-0.2c0,0,0,0.1,0.2,0.2l0.8,0.8l1.7,1.7c1.1,1.1,2.2,2.2,3.3,3.3l3.3,3.4c1,1.1,2.3,2.2,3.1,3.8
			c0.8,1.6,0.9,3.2,1.1,4.7c0.2,1.5,0.5,3.1,1.5,4.3c-1.3-1-1.9-2.6-2.2-4.1c-0.4-1.5-0.7-3.1-1.5-4.2c-0.8-1.2-2-2.2-3.1-3.2
			l-3.4-3.2c-1.1-1.1-2.2-2.2-3.4-3.3l-1.7-1.6l-0.8-0.8c-0.1-0.2-0.4-0.3-0.6-0.7c-0.1-0.2-0.2-0.4-0.2-0.7c0-0.3,0.1-0.5,0.1-0.7
			c0.1-0.3,0.3-0.5,0.4-0.7l0.3-0.5l0.6-1l1.2-2l2.5-4l0.1,1c-1.3-1.7-3-3.1-5-4l-0.7-0.3l0.5-0.5
			C704.8,862,706.3,859.9,707.6,857.5z"/>
	</g>
	<g>
		<path class="st8" d="M745.1,862.2c0.7,1.2,1.1,2.5,1.5,3.7c0,0.1,0.1,0.2,0.1,0.2c0,0,0,0,0.1,0l0.9,0.3c0.6,0.3,1.2,0.5,1.8,0.8
			c0.3,0.2,0.7,0.4,1.1,0.7c0.3,0.3,0.5,0.7,0.7,0.9c0.3,0.6,0.7,1.1,1,1.6c0.7,1.1,1.5,2.1,2.3,3.2c-1.3-0.5-2.5-1.2-3.5-2.2
			c-0.5-0.5-1-1-1.4-1.5c-0.2-0.3-0.4-0.5-0.5-0.6c-0.1-0.1-0.3-0.2-0.6-0.4c-0.5-0.3-1.2-0.6-1.7-0.9l-0.9-0.5
			c-0.2-0.1-0.5-0.4-0.6-0.7c-0.2-0.3-0.2-0.5-0.2-0.7C745,864.9,745,863.6,745.1,862.2z"/>
	</g>
	<g>
		<path class="st8" d="M735.4,907.1c-0.3,2.2-0.7,4.3-1.1,6.3l0,0.3l-0.4,0.2l-2,1.4l-1,0.7l-0.3,0.2c-0.1,0.1-0.2,0.1-0.2,0.1
			c0,0,0.1-0.1,0.2-0.4c0-0.2,0-0.3,0-0.2c0.3,0.7,0.7,1.5,1.1,2.2c0.3,0.8,0.7,1.5,1,2.3l0.3,0.6l-0.4,0.4
			c-1.6,1.5-2.8,3.4-3.6,5.6c-0.2-2.4,0.8-4.8,2.4-6.8l-0.1,1c-0.4-0.7-0.8-1.5-1.2-2.2c-0.4-0.7-0.7-1.5-1.1-2.3
			c-0.1-0.1-0.2-0.4-0.1-0.9c0.1-0.5,0.4-0.7,0.5-0.9c0.2-0.1,0.3-0.2,0.4-0.2l0.3-0.2l1.1-0.6l2.2-1.2l-0.4,0.5
			C733.4,911,734.2,909,735.4,907.1z"/>
	</g>
	<g>
		<path class="st8" d="M705.7,959.8c0.9,1.9,1.7,3.8,2.6,5.7l0.1,0.3l-0.2,0.4c-0.4,0.7-0.7,1.5-1.1,2.2l-0.6,1.1
			c0,0.1-0.1,0.2-0.1,0.2c0,0,0.1-0.2,0-0.5c-0.1-0.2-0.2-0.2-0.1-0.2l0.2,0.1c1.4,0.9,2.8,1.8,4.1,2.8l0.5,0.4l-0.1,0.5
			c-0.3,1-0.4,2-0.4,3.1c0,1.1,0.2,2.2,0.4,3.3c-0.7-0.9-1.2-2-1.5-3.1c-0.3-1.2-0.3-2.4-0.2-3.6l0.4,0.9c-1.5-0.8-2.9-1.7-4.3-2.6
			l-0.3-0.2c-0.1-0.1-0.4-0.2-0.6-0.6c-0.2-0.4-0.1-0.9,0-1.1c0.1-0.2,0.1-0.3,0.2-0.4l0.7-1.1c0.5-0.7,0.9-1.5,1.4-2.2l-0.1,0.7
			C706.2,964.1,705.8,962,705.7,959.8z"/>
	</g>
	<g>
		<path class="st1" d="M463.8,797c3.2,0.2,5.8,0.9,8.4,1.7c2.5,0.8,4.8,1.8,7.1,3c2.2,1.2,4.4,2.5,6.5,4.1c2.1,1.6,4.2,3.4,6.1,6
			c-3.1,1-6,0.9-8.8,0.5c-2.8-0.4-5.5-1.4-7.9-2.6c-2.5-1.3-4.8-2.9-6.7-5C466.4,802.6,464.6,800.2,463.8,797z"/>
	</g>
	<g>
		<path class="st9" d="M463.4,794.8c3,0.5,5.7,1.5,8.4,2.6c2.7,1.1,5.2,2.3,7.7,3.7c2.5,1.4,4.9,2.9,7.3,4.5
			c2.3,1.7,4.6,3.4,6.7,5.6c-3-0.3-5.8-1.1-8.6-2.1c-2.7-1-5.3-2.2-7.8-3.6c-2.5-1.4-4.9-2.9-7.2-4.7
			C467.5,799.1,465.3,797.2,463.4,794.8z"/>
	</g>
	<g>
		<path class="st8" d="M555.4,850.8c2.5,2.8,4.9,5.7,7.2,8.6c0.3,0.4,0.7,0.8,0.8,1.5c0.2,0.7,0.1,1.3,0,1.7l-0.5,2.8l-1.1,5.5
			c-0.1,0.4-0.2,1-0.3,1.3c0,0.4,0,0.4,0.1,0.6c0.2,0.3,0.6,0.6,0.8,1l0.9,1.1l1.8,2.1l0.9,1.1c0.3,0.4,0.8,0.9,0.8,1.7
			c0,0.8-0.3,1.3-0.6,1.7c-0.3,0.4-0.5,0.8-0.8,1.2c-0.6,0.8-1.2,1.5-1.8,2.2c-1.2,1.4-2.4,2.8-2.5,4.7c-0.2-0.9,0-1.9,0.4-2.8
			c0.3-0.9,0.9-1.7,1.4-2.5c0.5-0.8,1-1.6,1.5-2.3c0.2-0.4,0.4-0.8,0.6-1.2c0.2-0.4,0.3-0.8,0.3-0.9c0-0.2-0.9-1-1.5-1.7l-1.9-2
			l-0.9-1c-0.3-0.4-0.6-0.6-1-1.1c-0.2-0.2-0.4-0.6-0.5-1c-0.1-0.4-0.1-0.7-0.1-1c0.1-0.6,0.2-1,0.3-1.5l1.2-5.4l0.7-2.7
			c0.2-0.9,0.2-1.2-0.4-2C559.3,857.2,557.3,854.1,555.4,850.8z"/>
	</g>
	<g>
		<path class="st8" d="M484.8,864.5c2.4-3.3,4.9-6.4,7.5-9.5c0.3-0.4,0.8-0.9,1.4-1.1c0.6-0.3,1.1-0.4,1.6-0.5l3-0.6l5.9-1l1.4-0.2
			c0.4-0.1,0.7-0.2,0.9-0.4c0.2-0.2,0.5-0.6,0.8-1l0.9-1.2l1.8-2.4l0.9-1.2c0.3-0.4,0.8-1,1.6-1.2c0.7-0.2,1.3-0.1,1.8-0.1
			c0.5,0.1,1,0.1,1.5,0.3c1,0.2,2,0.5,2.9,0.7c1.9,0.5,3.9,0.9,5.8,0.4c-3.8,1.9-8.4-0.4-11.6,0.2c-0.3,0.1-0.4,0.3-0.7,0.7
			l-0.9,1.2l-1.7,2.5l-0.9,1.2c-0.3,0.4-0.5,0.8-1.1,1.3c-0.5,0.5-1.3,0.8-1.8,0.9c-0.6,0.1-1,0.2-1.5,0.3l-6,0.9l-3,0.4
			c-0.5,0.1-0.9,0.2-1.3,0.3c-0.3,0.1-0.6,0.3-1,0.7C490.6,858.9,487.8,861.8,484.8,864.5z"/>
	</g>
	<g>
		<path class="st8" d="M521.8,782.6c-2.9,5.4-6.4,10.2-9.9,14.8c-3.6,4.6-7.3,9.1-11.1,13.4c-3.9,4.3-7.9,8.5-12.1,12.6
			c-4.2,4-8.6,8-13.6,11.5c2-5.8,4.9-11,8.1-16c3.2-5,6.9-9.7,10.8-14.1c3.9-4.4,8.2-8.5,12.8-12.3
			C511.4,788.7,516.2,785.3,521.8,782.6z"/>
	</g>
	<g>
		<path class="st10" d="M576,928c5.1,3.4,10.1,7,15.2,10.4l15,10.6c10,7.1,19.9,14.4,29.8,21.7c9.8,7.3,19.6,14.7,29.4,22.2
			c9.8,7.4,19.4,15,29,22.6l-5.9,7.4c-6.5-4.9-12.9-9.8-19.3-14.9c-6.3-5.1-12.7-10.2-18.9-15.3c-6.2-5.2-12.4-10.4-18.6-15.8
			c-6.1-5.3-12.2-10.7-18.2-16.2l7.3-9.1l22,15.2L665,982l22.1,15.1l22.2,15l-7.2,8.9c-3.8-3.7-7.7-7.4-11.7-10.9
			c-4-3.5-8.1-6.9-12.4-10.1c-4.2-3.2-8.6-6.4-13-9.4c-4.4-3-9-5.8-13.6-8.6l5.7-8.2c8.3,7.1,17,13.7,26.2,19.7
			c4.6,3,9.3,5.8,14,8.6c4.7,2.8,9.6,5.4,14.5,7.8l-4.7,4.7c-1.5-3.4-3.5-6.7-5.8-9.7c-2.3-3-5-5.8-7.9-8.3l3.6-4.4l19.9,18.1
			l-2.5,2.9c-3.3-3.1-5.9-6.9-7.3-11.2l-1.4-4.2l3.5,2.5c4,2.9,8.3,5.3,12.8,7.4c4.5,2.1,9.2,3.7,14.1,4.9c-5-0.6-9.9-1.8-14.6-3.5
			c-4.8-1.6-9.4-3.8-13.8-6.4l2.1-1.7c1.6,3.7,4.1,6.8,7.2,9.2l-2.5,2.9l-21.1-16.7l3.6-4.4c3.4,2.5,6.5,5.4,9.3,8.7
			c2.8,3.3,5.2,6.8,7.2,10.7l4.5,8.7l-9.1-4c-5.2-2.2-10.3-4.7-15.3-7.2c-5-2.6-10-5.4-14.8-8.3c-9.7-5.8-19.1-12.3-28-19.4l5.7-8.2
			c4.9,2.6,9.7,5.5,14.4,8.5c4.7,3,9.3,6.1,13.8,9.4c4.5,3.3,8.9,6.7,13.1,10.3c4.3,3.6,8.4,7.3,12.4,11.2l-7.2,8.9l-22.4-14.8
			l-22.3-15c-7.4-5-14.8-10.1-22.1-15.2c-7.4-5.1-14.7-10.2-22-15.4l7.3-9.1c5.9,5.5,11.9,10.9,17.8,16.3c6,5.4,12,10.7,18.1,16
			c6.1,5.3,12.2,10.5,18.3,15.7c6.2,5.2,12.3,10.4,18.6,15.5l-5.9,7.4l-28-23.7c-9.3-7.9-18.7-15.8-28.1-23.7l-28.1-23.7L590,939.9
			L576,928z"/>
	</g>
	<path class="st11" d="M695.1,986.8c17,10.1,34,20.2,51,30.3c-0.4-0.4-0.9-0.8-1.3-1.2"/>
	<g>
		<path class="st10" d="M728.8,1003.5c-3.7-2.3-7.3-4.7-10.9-7.1l0.9-1.4l18.5,8.9l18.4,9.1l-3.5,4.6l-11.8-11.1l-11.8-11.2l-8-7.6
			l11.2,0.7c2.4,0.1,4.5,1,6.2,1.9c1.7,0.9,3,1.7,4.4,2.5l8.3,4.8l16.5,9.7l-6.3,7.8c-7.3-7.4-14.7-14.7-22-22.1l-23-23.4l29.6,14.6
			c6.1,3,12.3,6,18.4,9.1l18.4,9.2l-7.1,9.3l-15.5-16.9l-6.3-6.8l8.8-2.9c1.7-0.6,3.6-0.6,5.1-0.4c1.5,0.2,2.7,0.7,3.7,1.2
			c1,0.5,1.9,1,2.5,1.3l2,1.1l8,4.6c5.3,3.1,10.6,6.1,15.9,9.2l-7.5,8.7l-7.4-9.3l-7.4-9.4l-4.7-5.9l6.9-2.8c2-0.8,4-0.8,5.6-0.5
			c1.5,0.3,2.8,0.8,3.8,1.2c1,0.5,1.7,0.8,2.5,1.2l2.3,1.2c3.1,1.6,6.2,3.3,9.2,5c3,1.7,6,3.4,9,5.2c1.6,0.9,2.8,1.7,3.8,2.1
			c0.5,0.2,0.9,0.3,1.2,0.4c0.3,0,0.5,0,0.6,0l-2.5,7.6c-3.8-5.2-7.8-10.3-12-15.1l-9.8-11.2l14.1,4c3.2,0.9,6.1,2.3,8.8,3.9
			c2.7,1.6,5.1,3.4,7.4,5.1c4.6,3.5,8.8,6.8,13.5,8.7l-3.4,5.4c-2.2-2.3-4.2-4.7-6-7.3c-1.8-2.6-3.4-5.3-4.8-8.1l-2.1-4.3l4.5,0.6
			c4,0.5,7.8,1.7,11.4,3.3c3.6,1.5,6.9,3.5,10.1,5.4c3.2,2,6.4,3.9,9.6,5.9c3.2,1.9,6.5,3.6,10,5c-3.7-0.8-7.2-2.2-10.7-3.7
			c-3.5-1.5-6.8-3.2-10.2-4.7c-3.4-1.6-6.8-3-10.2-4.1c-3.4-1.1-6.9-1.9-10.4-2l2.4-3.7c1.5,2.5,3.2,4.8,5,7c1.9,2.2,3.8,4.3,6,6.2
			l11.3,10.1l-14.7-4.7c-3-1-5.8-2.3-8.4-3.8c-2.6-1.5-5-3.1-7.4-4.7c-4.7-3.1-9.2-5.8-13.9-6.8l4.3-7.2c4.7,4.8,9.2,9.9,13.4,15.2
			l4.3,5.5l-6.9,2.1c-1.5,0.5-3.1,0.6-4.5,0.4c-1.4-0.1-2.7-0.5-3.7-0.9c-2.2-0.8-3.9-1.9-5.3-2.6c-3-1.6-5.9-3.2-8.9-4.8
			c-3-1.5-6-3-9.1-4.5l-2.3-1.1c-0.7-0.3-1.6-0.8-2.1-1c-0.6-0.2-1-0.3-1.1-0.4c-0.2,0,0.1,0.1,0.5-0.1l2.2-8.7l7.6,9.2l7.6,9.2
			l19.8,24.1l-27.3-15.4c-5.3-3-10.7-6-16-9.1l-8-4.6l-2-1.1c-0.7-0.4-1.1-0.6-1.5-0.8c-0.2-0.1-0.4-0.2-0.5-0.2c-0.1,0-0.2,0-0.2,0
			c0,0,0.3,0,0.6-0.1l2.6-9.7l15.4,17l22.2,24.5L777,1013l-18.2-9.5c-6.1-3.1-12.1-6.3-18.2-9.5l6.5-8.8
			c7.1,7.6,14.1,15.2,21.2,22.8l27.9,30.1l-34.2-22.3l-16.1-10.5l-8-5.3c-1.3-0.9-2.7-1.8-3.8-2.5c-1.1-0.7-2-1-2.8-1.2l3.2-6.9
			l11,11.9l10.9,12l13.7,15.1L753,1018l-17.5-10.7L718,996.4l0.9-1.4C722.2,997.8,725.6,1000.6,728.8,1003.5z"/>
	</g>
	<g>
		<path class="st10" d="M872.2,962.2c-0.8-1.1-1.6-2.2-2.4-3.3c-0.8-1.1-1.6-2.2-2.4-3.3l1.8-0.9l5.4,8.6l5.4,8.5
			c3.6,5.7,7.3,11.3,11,16.9l-7.6,2.7c-0.5-2.4-1.1-4.8-1.9-7.2c-0.8-2.4-1.7-4.7-2.6-7.1c-1-2.4-2-4.7-3.1-7.1
			c-1.1-2.4-2.2-4.7-3.4-7.1l9.4-4.7c2.1,3.6,4.2,7.1,6.4,10.4c2.2,3.3,4.5,6.4,7.1,9.1l-9.4,4.9c-0.6-2.7-1.4-5.3-2.5-7.9
			c-1.1-2.5-2.3-5-3.8-7.4l8.9-6c2.2,3.3,4.3,6.6,6.5,9.9l3.2,5c0.5,0.8,0.9,1.4,1.2,1.8c0.3,0.4,0.5,0.5,0.6,0.6l-6.2,5.8
			c-0.6-2.2-1.3-4.4-2-6.6c-0.8-2.2-1.6-4.3-2.5-6.4l7.3-3.6c0.9,2.2,2,4.2,3.3,6.3c1.3,2,2.9,3.9,4.5,5.7l-5.1,3.2
			c-0.7-3.6-1.4-7.2-2.1-10.7l-2.2-12l6.2,10c1.8,2.9,3.8,5.8,5.8,8.6c1,1.4,2.1,2.8,3.2,4.1c1.1,1.4,2.2,2.7,3.4,4.1
			c-1.5-1-2.9-2-4.3-3.1c-1.4-1.1-2.8-2.2-4.1-3.4c-2.7-2.3-5.2-4.9-7.6-7.5l4-2c1.3,3.4,2.5,6.9,3.7,10.3l3.5,9.9l-8.6-6.7
			c-2.2-1.7-4.3-3.7-6.1-5.9c-1.9-2.2-3.5-4.6-4.9-7.1l7.3-3.6c1.2,2.2,2.3,4.4,3.4,6.7c1,2.3,2,4.6,2.8,7l3.2,9.1l-9.4-3.3
			c-1.7-0.6-3.2-1.7-4.2-2.7c-1.1-1.1-1.8-2.1-2.4-2.9l-3.5-4.8c-2.3-3.2-4.6-6.4-6.9-9.6l8.9-6c1.9,2.8,3.6,5.8,5,9
			c1.4,3.2,2.4,6.5,3.2,9.8l4.3,19.6l-13.7-14.7c-3.1-3.3-5.8-7-8.2-10.7c-2.3-3.7-4.4-7.5-6.4-11.1l9.4-4.7c1,2.4,2.1,4.9,3.1,7.4
			c1,2.5,2,5.1,2.8,7.7c0.9,2.6,1.7,5.3,2.3,8.1c0.6,2.7,1.1,5.6,1.4,8.4l1.8,20.5l-9.4-17.8c-3.2-6-6.2-12.2-9-18.4
			c-1.4-3.1-2.7-6.2-4-9.4c-1.3-3.2-2.5-6.4-3.6-9.6l1.8-0.9c0.5,1.2,1,2.5,1.5,3.8C871.3,959.7,871.8,960.9,872.2,962.2z"/>
	</g>
	<g>
		<path class="st10" d="M678.7,864.5c3,2.5,5.9,5,8.8,7.6c2.9,2.6,5.7,5.2,8.6,7.9c2.8,2.7,5.6,5.4,8.4,8.1c2.8,2.7,5.5,5.5,8.2,8.3
			l-2.6,2.4l-6.8-7.2l-6.7-7.3c-2.3-2.4-4.5-4.9-6.7-7.3l-6.7-7.4l2.7-2.7l10.2,9.6l10.1,9.7c3.3,3.3,6.7,6.6,10,9.9
			c3.3,3.3,6.6,6.7,9.8,10.1c-3.7-2.9-7.3-5.9-10.9-8.9c-3.6-3-7.1-6-10.7-9.1l-10.6-9.2l-10.5-9.3l2.7-2.7l6.7,7.3
			c2.3,2.4,4.5,4.9,6.7,7.3l6.7,7.4l6.6,7.4l-2.6,2.4l-15.6-17.2l-7.8-8.6L678.7,864.5z"/>
	</g>
	<g>
		<path class="st10" d="M759.3,879c1.3,1.1,2.5,2.2,3.6,3.3c1.2,1.1,2.3,2.3,3.4,3.5c2.2,2.4,4.3,4.8,6.4,7.3l-3.2,2.1
			c-1.5-2.7-3-5.4-4.4-8.1l-6.4-12.7l9.5,10.4c1.9,2.1,3.8,4.3,5.7,6.6l-2.2,1.8c-0.4-0.7-0.7-1.4-0.9-2.1c-0.3-0.7-0.5-1.4-0.6-2.2
			l-0.7-3.7l2.3,2.7c0.6,0.7,1.3,1.4,1.9,2c0.7,0.6,1.4,1.2,2.2,1.9c-1-0.2-1.9-0.5-2.8-1c-0.9-0.4-1.8-0.9-2.6-1.5l1.5-1
			c0.3,0.6,0.6,1.2,0.9,1.7c0.3,0.5,0.7,1.1,1.1,1.6l-2.2,1.8c-2.2-1.9-4.3-3.8-6.4-5.8l3.1-2.3c1.6,2.7,3,5.4,4.5,8.1l-3.2,2.1
			c-1.9-2.6-3.7-5.3-5.5-8c-0.8-1.4-1.7-2.8-2.5-4.2C760.8,882,760,880.5,759.3,879z"/>
	</g>
</g>
<g id="фон" class="st12">
	<rect x="-0.5" y="0.5" class="st13" width="2220" height="1079"/>
</g>
<g>
	<path class="st0" d="M667.3,1079c2.5-9.4,3.2-19.7,2.8-29.1c-2.1-57-23.7-113.1-60-157.2c-46.3-70.2-92.7-140.4-139-210.5
		c-11.4,17.4-25.8,33-42.4,45.6l-20.8-23.2c-5.3,13.8-16.2,25.4-29.7,31.5c-7.1-14.6-16.2-49.6-28.4-38.9c-14.8,13-42.3-3.8-50.8,10
		c-22.4-37.1-39.7-77.4-66.7-111.3l-16,11.7c-21.9-32.7-43.8-65.4-65.7-98.1c-2.1-3.2-4.6-6.6-8.3-7.5s-7.5,0.9-10.8,2.7
		c-25.5,14-49.4,31.1-70.9,50.8c-4.9,4.5-10.7,9.4-17.2,8.4c-4-0.6-7.3-3.3-10.4-6c-10.3-8.7-20.5-17.5-30.9-26.2V1079H667.3z"/>
	<g>
		<path class="st1" d="M140.2,507.2c1.9,3.2,3.9,6.3,6,9.4l6.3,9.2c2.1,3.1,4.2,6.2,6.2,9.4s4,6.5,5.7,10.1l-5.9-3.6
			c0.6-0.1,1.2-0.1,1.8-0.1s1.4,0.1,2,0.2c0.7,0.1,1.4,0.4,2.1,0.7c0.7,0.3,1.3,0.7,1.9,1.1c0.5,0.4,1,0.8,1.4,1.2s0.8,0.8,1.1,1.1
			c0.6,0.7,1.1,1.3,1.5,1.8c0.8,1,1.3,1.5,1.5,1.5s-0.2-0.4-0.2-0.4l5.8,6.1c0.7,2.7,1.9,5.3,3.6,8.4c1.7,3.1,3.8,6.7,5.6,11.1
			c0.4,1.1,0.8,2.3,1.1,3.5c0.2,0.6,0.3,1.2,0.4,1.8l0.2,0.9l0.1,0.5c0,0,0,0.3,0.1,0.4v0.5c0,0.4,0,0.7,0,1.1c0,0.4,0,0.6,0,0.9
			c0,0.5-0.1,1.2-0.1,1.5l-0.2,1.3l-0.2,1c-0.3,1.3-0.6,2.4-0.8,3.3c-0.2,0.9-0.4,1.7-0.5,2.2c-0.1,0.3,0,0.4,0,0.5
			c0,0,0-0.1,0.1-0.1c0,0,0-0.1,0-0.2c0-0.1,0-0.2,0-0.3v-0.1v-0.3c0-0.2,0-0.4-0.1-0.6l-0.2-0.7c-0.1-0.3-0.2-0.6-0.3-0.9
			c-0.1-0.1-0.1-0.3-0.2-0.4c-0.1-0.2-0.2-0.3-0.3-0.5c-0.2-0.3-0.4-0.6-0.7-0.9l-0.2-0.2c-0.1-0.1-0.2-0.2-0.1-0.1l0,0l0,0
			c0-0.1,0.2,0,0.7,0.3c0.5,0.2,1.4,0.6,2.4,1.2c0.6,0.3,1.1,0.6,1.8,1s1.4,0.9,2,1.4c2.7,2,5,4.6,6.5,7.3c1.6,2.7,2.6,5.3,3.3,7.7
			s1.2,4.6,1.6,6.7c0.8,4.1,1.4,7.6,2.1,10.3c0.4,1.3,0.8,2.3,1.2,3s0.7,1,1,1.3l-11.9-3.3c4.2-1.3,8.3-3.1,12.1-5.4
			c1.9-1.1,3.7-2.4,5.5-3.7c0.4-0.3,0.9-0.7,1.3-1c0.5-0.4,1.4-1.2,3.2-2.2c0.9-0.5,2-1.1,3.4-1.5c0.7-0.2,1.4-0.4,2.2-0.6
			c0.7-0.1,1.5-0.2,2.2-0.2c1.6-0.1,3.2,0.1,4.7,0.5c0.8,0.2,1.5,0.4,2.2,0.7c0.3,0.1,0.7,0.3,1,0.5s0.6,0.3,0.9,0.5
			c2.4,1.4,3.9,2.9,5,4.2s1.9,2.6,2.6,3.7c0.6,1.1,1.1,2.2,1.6,3.3c0.2,0.5,0.4,1,0.6,1.5l0.4,1.1c0.9,2.4,1.7,4.8,2.6,7.1
			c1.8,4.7,3.8,9.3,6,13.9c1.1,2.3,2.3,4.5,3.4,6.8c1.2,2.2,2.4,4.4,3.7,6.6c2.5,4.4,5.3,8.6,8.1,12.8c5.8,8.3,12.2,16.2,19.2,23.6
			c3.5,3.7,7.4,7.4,11.2,11.2c3.9,3.8,7.9,7.8,11.8,12s7.6,8.8,11,13.7c0.9,1.2,1.6,2.5,2.4,3.8s1.4,2.4,2.1,3.6l4.1,7.1
			c10.8,18.8,21.2,37.4,35.2,54.3c-4.7-2.9-9.2-6.2-13.5-9.7c-2.2-1.8-4.2-3.6-6.3-5.5l-3-2.8c-1-1-2-1.9-3-2.9
			c-7.9-7.8-15-16.3-22-24.7l-5.2-6.3c-0.8-1-1.7-2.2-2.5-3.1c-0.8-0.9-1.6-1.9-2.4-2.7c-3.3-3.6-6.9-7.1-10.9-10.4
			c-3.9-3.4-8-6.7-12.2-10c-4.2-3.4-8.5-6.9-12.9-10.7c-17.3-15.3-31.5-34.2-41.8-55c-1.3-2.6-2.5-5.3-3.7-7.9
			c-1.1-2.7-2.3-5.3-3.3-8.1c-1.1-2.7-2-5.5-2.9-8.2l-0.4-1.2l-0.2-0.4c0,0,0,0.1,0.3,0.4c0.3,0.3,0.8,0.9,2,1.6
			c0.1,0.1,0.3,0.2,0.5,0.2c0.2,0.1,0.4,0.2,0.6,0.3c0.4,0.2,0.8,0.3,1.2,0.4c0.9,0.2,1.8,0.3,2.7,0.3c0.4,0,0.8-0.1,1.2-0.1
			c0.4-0.1,0.9-0.2,1.2-0.3c0.7-0.2,1.2-0.5,1.5-0.7c0.6-0.4,0.4-0.3-0.1,0.1c-0.7,0.5-1.3,1-2,1.4c-2.6,1.9-5.4,3.6-8.2,5.1
			s-5.8,2.9-8.8,4.1c-3,1.1-6.1,2.1-9.2,2.9l-7.2,1.8l-4.8-5c-2.4-2.5-4.1-5.4-5.3-8.1c-1.2-2.7-2-5.4-2.5-7.8
			c-1-4.8-1.2-8.8-1.6-12.2c-0.2-1.7-0.4-3.2-0.6-4.5c-0.2-1.3-0.6-2.2-0.8-2.9c-0.3-0.7-0.4-1-0.7-1.4c-0.1-0.1-0.1-0.2-0.3-0.3
			c-0.1-0.1-0.4-0.3-0.6-0.5c-0.6-0.4-1.4-0.9-2.6-1.6c-1.1-0.7-2.5-1.6-3.9-3l-0.5-0.5l-0.3-0.3l-0.2-0.3l-0.3-0.3
			c-0.4-0.5-0.7-1-1.1-1.5c-0.2-0.3-0.3-0.5-0.5-0.8c-0.1-0.2-0.2-0.5-0.3-0.7c-0.2-0.5-0.4-1-0.6-1.5c-0.1-0.2-0.2-0.5-0.2-0.8
			l-0.1-0.6c-0.1-0.4-0.1-0.8-0.2-1.3l-0.1-0.6v-0.5c0-2.8,0.5-4.3,0.9-5.7s0.8-2.4,1.2-3.3l0.9-2.2l0.1-0.3c0-0.1,0-0.1,0.1-0.1
			l0,0l0,0v0.1c0,0.1,0,0,0,0.2c0,0.1,0,0.2,0,0.4v0.2c0,0,0,0.2,0,0.1v-0.2v-0.5c0-0.3,0-0.6-0.1-1c-0.1-0.6-0.2-1.3-0.3-2
			c-0.6-2.8-1.8-6-3.2-9.9c-0.7-1.9-1.4-4-1.9-6.3c-0.5-2.2-0.9-4.6-1-7l5.8,6.1c-0.6-0.2-1.2-0.3-1.9-0.6c-0.6-0.2-1.2-0.5-1.8-0.8
			c-1.2-0.7-2.2-1.5-3-2.3c-1.6-1.7-2.4-3.3-2.9-4.4c-0.5-1.1-0.9-1.6-0.6-1.6c0.1,0.1,0.2,0.1,0.3,0.1c0.1,0.1,0.3,0,0.4,0
			c0.1,0,0.2,0,0.2-0.1c0,0,0,0,0-0.1l-5.9-3.6c-0.9-3.3-2-6.8-3.2-10.2s-2.5-6.9-3.8-10.4s-2.6-7-3.7-10.6
			C142,514.5,140.9,510.9,140.2,507.2z"/>
	</g>
	<g>
		<path class="st2" d="M109.9,525.3c4.3-5.1,8.8-9.9,13.6-14.5c4.8-4.6,9.8-9,15-13.2l3-2.4l2.9,3.5c7.4,8.9,14.6,18.1,21.4,27.5
			l5.1,7c1.7,2.4,3.3,4.7,5,7.1l4.9,7.2c1.6,2.4,3.2,4.8,4.8,7.3c6.4,9.7,12.5,19.6,18.5,29.6c5.9,10.1,11.6,20.2,16.9,30.5
			l-15.2-4.3c4.1-2.6,8.1-5.2,12.2-7.8l12.3-7.7l11.3-7l4.8,12.7l2.3,6.1l2.4,6.1c0.8,2,1.7,4,2.6,6c0.9,2,1.8,4,2.7,6
			c3.8,7.9,7.8,15.8,12.1,23.5c8.5,15.6,18.1,30.9,27.5,46.4c9.5,15.5,18.8,31.2,27.8,47.1l6.7,11.9c2.2,4,4.4,8,6.6,12
			c4.3,8,8.6,16.1,12.7,24.4c-6.1-6.8-12-13.8-17.9-20.9c-2.9-3.5-5.8-7.1-8.7-10.6l-8.6-10.7c-11.3-14.3-22.4-28.8-33.2-43.5
			c-10.9-14.6-21.5-29.7-31.2-45.7c-4.8-8-9.4-16.2-13.5-24.7c-1-2.1-2.1-4.2-3-6.4c-1-2.2-1.9-4.3-2.9-6.5l-2.7-6.6l-2.5-6.7
			l16.1,5.7l-12.4,7.6c-4.1,2.5-8.3,5-12.4,7.5l-10.1,6.1l-5.1-10.3c-5-10.2-10.1-20.4-15.3-30.6c-5.2-10.2-10.5-20.3-15.9-30.3
			l-8.2-15.1l-8.3-15c-5.6-10-11.2-20-16.9-30l5.8,1.1c-5.7,3.1-11.3,6.4-16.8,9.8C120.8,518,115.4,521.6,109.9,525.3z"/>
	</g>
	<g>
		<path class="st3" d="M239,595.8c5.4,9.4,10.4,18.8,15.6,28.1s10.4,18.5,15.8,27.7l16.2,27.5c5.4,9.2,10.8,18.5,15.7,28.1
			c-7.6-7.7-14.5-16-21-24.6c-6.4-8.6-12.4-17.6-17.8-27c-5.4-9.3-10.3-19-14.5-29C244.8,616.6,241.2,606.4,239,595.8z"/>
	</g>
	<g>
		<path class="st3" d="M141.7,497.7c5.4,5.5,10.2,11.3,15,17.2c4.7,5.9,9.2,11.9,13.6,18c4.3,6.1,8.5,12.4,12.5,18.8
			c4,6.4,7.8,13,11,20c-5.9-5-11.1-10.5-16.1-16.3c-4.9-5.7-9.6-11.7-14-17.9s-8.5-12.5-12.2-19.1
			C147.7,511.8,144.3,505,141.7,497.7z"/>
	</g>
	<g>
		<path class="st1" d="M468.8,700.4c4.5,6.1,8.8,12.3,13,18.6s8.3,12.6,12.3,18.9c8.1,12.7,15.9,25.5,23.5,38.5l11.3,19.3
			c3.8,6.3,7.5,12.5,11.6,18.4s8.3,11.8,12.8,17.6c4.4,5.8,9,11.7,13.6,17.5c18.5,23.6,36.5,47.9,52.5,73.6
			c8,12.9,15.5,26,22.3,39.6c1.7,3.4,3.3,6.8,4.9,10.3c1.5,3.5,3.1,6.9,4.5,10.4s2.8,7.1,4.2,10.6c1.2,3.6,2.5,7.2,3.7,10.8
			L646.1,986c-2.2-3-4.3-6.1-6.5-9.1l-6.6-9c-8.8-12-17.8-23.8-27-35.5c-18.3-23.4-37.1-46.5-55.5-70.1c-4.6-5.9-9.2-11.9-13.7-18.1
			c-4.4-6.2-8.9-12.6-12.9-19.2c-4.1-6.7-7.8-13.5-11.1-20.3c-1.7-3.4-3.4-6.8-5-10.3L503,784c-6.2-13.7-12.2-27.4-18-41.3
			c-2.9-7-5.7-13.9-8.4-21C473.9,714.7,471.3,707.6,468.8,700.4z"/>
	</g>
	<g>
		<path class="st2" d="M468.3,687c4.7,5.8,9.1,11.7,13.5,17.5l6.6,8.9l6.5,8.9c8.6,11.9,17,23.8,25.4,35.8
			c16.7,24,33.2,48,49.5,72.2l12.2,18.1l6.1,9.1c2,3,4.1,6,6.1,9.1c4.1,6.1,8.2,12.1,12.1,18.3l6,9.2l5.9,9.3
			c15.6,24.8,31,49.9,44.3,76.4c-5.3-5.2-10.3-10.6-15.3-16s-9.9-10.9-14.7-16.5c-9.7-11.1-19.1-22.3-28.3-33.8l-6.9-8.6l-6.8-8.7
			c-4.5-5.8-8.9-11.7-13.4-17.5s-8.7-11.8-13-17.8c-4.2-6-8.4-12.1-12.6-18.2c-16.5-24.4-31.8-49.5-45.9-75.4
			c-7-12.9-13.8-26-20-39.4c-3.1-6.7-6.2-13.4-9.1-20.2C473.7,700.8,470.9,693.9,468.3,687z"/>
	</g>
	<g>
		<path class="st4" d="M475.2,687.3c8.7,12.4,17.1,25,25.5,37.5l25,37.7l24.9,37.8c8.3,12.6,16.6,25.3,24.5,38.2
			c-10-11.4-19.3-23.3-28.4-35.5c-9-12.2-17.7-24.6-26.1-37.2c-4.1-6.4-8.2-12.7-12.3-19.1c-4-6.5-8-12.9-11.7-19.5
			C489.1,714.3,481.8,701,475.2,687.3z"/>
	</g>
	<g>
		<path class="st5" d="M355.9,696.5c3.6,2.1,6.4,5.1,8.8,8.3c2.3,3.3,4.1,6.8,5.6,10.4c1.4,3.6,2.5,7.1,3.4,10.9
			c0.8,3.7,1.3,7.6,1.3,11.7l-1.4-0.1c0.2-0.2,0.5-0.4,0.7-0.6c0.2-0.2,0.5-0.4,0.7-0.6c0,0.3,0,0.6,0,0.9c0,0.3,0,0.6,0,0.9
			l-0.1,1.3l-1.3-1.4c-2.8-3-4.9-6.2-6.8-9.5s-3.4-6.8-4.7-10.3c-1.3-3.5-2.3-7-3.4-10.5C357.6,704.2,356.6,700.6,355.9,696.5z"/>
	</g>
	<path class="st6" d="M407.1,707.5c6,7.5,12.6,14.5,19.7,21c-0.2-0.5-0.4-1-0.6-1.5"/>
	<g>
		<path class="st7" d="M358.8,697.3c2,2.2,3.7,4.6,5.2,7.1c1.6,2.5,3,5,4.3,7.7c1.3,2.6,2.4,5.3,3.4,8.1s1.8,5.6,2.4,8.4l-1,0.2
			c0-1,0-1.9,0.1-2.9c0.3,0.9,0.6,1.8,0.9,2.8l1.3,4.4l-2.2-4.2c-1.4-2.6-2.6-5.2-3.9-7.8s-2.5-5.2-3.7-7.8s-2.4-5.2-3.5-7.9
			C360.9,702.8,359.8,700.1,358.8,697.3z"/>
	</g>
	<g>
		<path class="st7" d="M410.2,705.7c1.9,1.3,3.7,2.8,5.3,4.3c1.7,1.5,3.3,3,4.9,4.6s3.1,3.2,4.6,4.9s2.9,3.4,4.2,5.4
			c-2.1-1-4-2.3-5.8-3.7s-3.5-2.9-5.1-4.5s-3.1-3.3-4.4-5.1C412.5,709.7,411.2,707.8,410.2,705.7z"/>
	</g>
	<g>
		<path class="st1" d="M379.7,738.7c4.1,0.8,8.1,1.7,12.1,2.6l12.1,2.7c2,0.5,4,0.9,6,1.4s4.2,0.9,6.5,2.2c1.1,0.7,2.2,1.6,2.9,2.6
			c0.8,1,1.4,2.1,1.9,3.1c1,2.1,1.6,4,2.4,5.9c3,7.7,6,15.4,9,23.1c0.4,0.9,0.8,2.1,1,2.6c0.1,0.3,0.3,0.4,0.3,0.4s-0.1-0.2-0.3-0.3
			c-0.2-0.1-0.4-0.1-0.3-0.1c0,0,0.3-0.1,0.6-0.2l2.8-0.9l11.7-4l2.5-0.9l2.1,2c8.8,8.4,18.7,15.5,29.3,21.1
			c2.7,1.4,5.4,2.7,8.1,3.9l2.1,0.9c0.7,0.3,1.4,0.6,2.5,1.1c1,0.5,2.3,1.3,3.6,2.7c0.6,0.7,1.2,1.6,1.6,2.5s0.6,1.8,0.7,2.6
			c0.2,1.6,0.1,2.8,0,3.8l-0.3,2.4l-0.5,4.6c-0.3,3.1-0.6,6.2-0.9,9.3c-1.1,12.4-1.8,24.8-2.1,37.2l-0.1,4.7v2.3c0,0.7,0,1.3,0,1.6
			s0.1,0.3,0,0.1c-0.1-0.1-0.2-0.2-0.2-0.3c0,0,0,0,0.1,0.1c0.2,0.1,0.6,0.4,1.3,0.8l2,1.2l16.4,9.4l16.3,9.4l8.1,4.8
			c2.7,1.6,5.4,3.1,8.2,4.8s5.8,3.7,8.4,6.4c1.3,1.3,2.6,2.9,3.6,4.5s1.8,3.2,2.5,4.8c1.4,3.2,2.3,6.2,3.3,9.2l3.1,8.9
			c4.1,11.9,8,23.8,11.9,35.8l2.9,9l2.8,9c1.9,6,3.7,12,5.5,18.1c-2.7-5.7-5.3-11.4-7.9-17.2l-3.9-8.6l-3.8-8.6
			c-5.1-11.5-10-23.1-14.9-34.7l-3.6-8.7c-1.2-2.9-2.4-5.9-3.6-8.3c-0.6-1.2-1.3-2.4-2-3.4s-1.5-1.9-2.5-2.8
			c-1.9-1.7-4.2-3.2-6.8-4.6l-16.5-8.8l-16.6-9l-16.5-9l-2.1-1.1c-0.7-0.4-1.6-0.8-2.7-1.6c-0.5-0.4-1.1-0.9-1.7-1.5
			s-1.1-1.4-1.6-2.2c-0.9-1.6-1.2-3.1-1.3-4.4c-0.1-1.2-0.1-2.3-0.1-3.1v-2.4l0.1-4.8c0.2-12.7,1-25.4,2.3-38.1
			c0.3-3.2,0.7-6.3,1.1-9.5l0.6-4.7l0.3-2.2c0.1-0.6,0.1-0.9,0.1-0.9s0,0.1,0.1,0.3s0.2,0.4,0.3,0.5c0.2,0.2,0.2,0.1-0.2-0.1
			c-0.3-0.2-1-0.5-1.8-0.8l-2.2-1c-3-1.4-5.9-2.9-8.7-4.5c-11.4-6.5-21.8-14.6-30.7-24.1l4.7,1.2l-11.9,3.3l-1.5,0.4
			c-0.5,0.1-1,0.3-1.7,0.4c-0.7,0.2-1.5,0.3-2.4,0.3c-1,0-2.2-0.1-3.4-0.7c-1.2-0.5-2.1-1.4-2.7-2.3c-0.6-0.8-0.9-1.6-1.2-2.3
			c-0.5-1.4-0.7-2.2-1-3.2c-2.4-7.9-4.8-15.8-7.1-23.7c-0.6-2-1.1-4.1-1.7-5.7c-0.6-1.7-1.4-3-2.6-3.9c-1.3-0.9-3.1-1.6-5-2.2
			c-2-0.7-3.9-1.4-5.9-2l-11.7-4.1C387.4,741.5,383.5,740.2,379.7,738.7z"/>
	</g>
	<g>
		<path class="st2" d="M385.3,738.9c5.8,1.2,11.5,2.6,17.1,4.1c2.8,0.7,5.7,1.6,8.5,2.4c1.4,0.4,2.8,0.8,4.2,1.2
			c0.7,0.2,1.4,0.4,2.2,0.7c0.8,0.3,1.6,0.7,2.4,1.4c0.7,0.7,1.2,1.6,1.5,2.4c0.3,0.8,0.5,1.6,0.7,2.3c0.4,1.4,0.8,2.8,1.2,4.2
			c0.8,2.8,1.6,5.6,2.6,8.3c1.8,5.5,3.8,11,5.9,16.5l0.2,0.4h-0.4c-0.5-0.1-1-0.4-1.2-0.8c-0.3-0.4-0.3-0.9-0.2-1.3
			c-0.1,0.9,0.7,1.7,1.5,1.6l-0.2,0.4c-3-5.1-5.6-10.4-7.8-15.9c-1.1-2.8-2.1-5.5-3-8.4c-0.4-1.4-0.9-2.8-1.3-4.3
			c-0.4-1.4-0.8-2.7-1.4-3.3c-0.6-0.7-1.9-1-3.4-1.5c-1.4-0.4-2.8-0.9-4.2-1.4c-2.8-0.9-5.6-1.9-8.3-2.9
			C396.2,743.2,390.7,741.2,385.3,738.9z"/>
	</g>
	<g>
		<path class="st2" d="M451.2,782.2c4.6,1.9,9.1,3.8,13.5,5.8c4.5,2,8.9,4,13.3,6.1c4.4,2.2,8.8,4.4,13,6.9
			c4.3,2.5,8.5,5.2,12.4,8.2l1.7,1.3l-0.4,1.9l-3,14.2l-1.5,7.2c-0.5,2.4-1,4.8-1.7,7.2c-0.4-2.5-0.7-4.9-0.9-7.4
			c-0.2-2.5-0.3-5-0.2-7.4c0-5,0.4-9.9,1-14.9l1.3,3.2c-8-5.1-16.5-9.8-24.8-14.9c-4.2-2.5-8.3-5.2-12.3-8
			C458.7,788.8,454.7,785.7,451.2,782.2z"/>
	</g>
	<g>
		<path class="st3" d="M513.8,889.5c8,4.1,15.8,8.6,23.6,13.1c3.9,2.2,7.8,4.5,11.6,6.8l5.8,3.5c1,0.6,1.9,1.1,2.9,1.8
			s2,1.4,2.9,2.5s1.3,2.4,1.7,3.5c0.3,1.1,0.6,2.2,0.9,3.3l1.8,6.5c1.1,4.4,2.3,8.7,3.4,13.1c2.2,8.7,4.3,17.5,6.1,26.3
			c-3-8.5-5.7-17.1-8.3-25.7c-1.3-4.3-2.6-8.6-3.8-12.9l-1.8-6.5c-0.3-1.1-0.6-2.2-0.9-3.2c-0.3-1-0.7-1.9-1.2-2.5
			c-1-1.4-3-2.5-5-3.7l-5.7-3.6c-3.8-2.4-7.6-4.8-11.4-7.2C528.7,899.7,521.2,894.7,513.8,889.5z"/>
	</g>
	<g>
		<path class="st3" d="M452.5,781.5c4.7,1.5,9.2,3.4,13.6,5.6c2.2,1,4.4,2.2,6.6,3.3c2.2,1.2,4.3,2.4,6.4,3.7s4.2,2.6,6.2,3.9
			c2,1.4,4.1,2.8,6,4.2c3.9,2.9,7.8,6,11.3,9.5c-4.3-2.4-8.4-5-12.6-7.5c-1-0.6-2.1-1.2-3.1-1.9l-3.1-1.9c-2.1-1.3-4.1-2.5-6.2-3.8
			s-4.2-2.5-6.2-3.8l-3.1-1.9c-1.1-0.6-2.1-1.2-3.1-1.9C460.8,786.6,456.6,784.1,452.5,781.5z"/>
	</g>
	<g>
		<path class="st1" d="M422.8,769.7c2.4,4.3,4.3,8.8,5.9,13.5c0.8,2.3,1.5,4.7,2.1,7.2s0.9,5.2,0.6,8s-1.3,5.4-2.2,7.6
			c-0.5,1.1-0.9,2.2-1.2,3.2c-0.3,1-0.6,2.1-0.9,3.1c-0.9,4.2-1,8.6-0.2,13.1l0.3,1.7l0.4,1.7c0.2,1.1,0.5,2.2,0.8,3.3
			c0.6,2.2,1.3,4.4,2.1,6.6c1.6,4.4,3.4,8.8,5.2,13.3c3.6,9,7.1,18,10.1,27.3l2,6.1l-3.3-5.3c-1.2-1.9-1.3-4.3-0.4-6.1
			c-0.3,2,0.4,3.9,1.6,5.1l-1.3,0.8c-5.1-8.3-9.6-16.9-14.1-25.5c-2.2-4.3-4.4-8.7-6.2-13.4c-1.8-4.6-3.3-9.5-4-14.7
			c-0.8-5.1-0.6-10.6,0.8-15.7c0.2-0.6,0.4-1.3,0.6-1.9c0.2-0.6,0.4-1.3,0.7-1.9c0.5-1.2,1.1-2.3,1.6-3.4c1.1-2.1,2-4.1,2.5-6
			c0.9-3.9,0.1-8.8-0.6-13.5C424.8,779.2,423.9,774.5,422.8,769.7z"/>
	</g>
	<g>
		<path class="st8" d="M485,844.8c0.3,7.8,0.5,15.6,0.7,23.3c0.2,7.8,0.2,15.6,0.3,23.3v11.7v2.9c0,1,0,2,0,2.8
			c0,0.9,0.2,1.6,0.5,2.2c0.3,0.6,0.9,1.2,1.5,1.8l18.2,14.5l1.2,0.9l-1,1.1l-8.7,9.7l-0.2-1.9c2.9,2.1,5.8,4.4,8.6,6.6
			c2.8,2.2,5.6,4.6,8.3,7s5.4,4.8,8,7.3s5.2,5.1,7.6,7.7c-2.7-2.4-5.5-4.7-8.3-7s-5.6-4.5-8.4-6.8c-2.8-2.2-5.7-4.4-8.6-6.5
			s-5.8-4.2-8.8-6.2l-1.2-0.8l0.9-1.1l8.5-9.9l0.2,2.1l-9.2-7.2l-4.6-3.6l-2.3-1.8c-0.8-0.6-1.5-1.2-2.3-1.9s-1.6-1.6-2.1-2.7
			c-0.6-1.1-0.8-2.3-0.8-3.4c0-1.1,0-2,0-3V903l0.2-11.7c0.2-7.8,0.4-15.5,0.6-23.3C484.3,860.4,484.6,852.6,485,844.8z"/>
	</g>
	<g>
		<path class="st8" d="M202,671.8c0.3,7.8,0.5,15.6,0.7,23.3c0.2,7.8,0.2,15.6,0.3,23.3v11.7v2.9c0,1,0,2,0,2.8
			c0,0.9,0.2,1.6,0.5,2.2c0.3,0.6,0.9,1.2,1.5,1.8l18.2,14.5l1.2,0.9l-1,1.1l-8.7,9.7l-0.2-1.9c2.9,2.1,5.8,4.4,8.6,6.6
			c2.8,2.2,5.6,4.6,8.3,7s5.4,4.8,8,7.3s5.2,5.1,7.6,7.7c-2.7-2.4-5.5-4.7-8.3-7s-5.6-4.5-8.4-6.8c-2.8-2.2-5.7-4.4-8.6-6.5
			c-2.9-2.1-5.8-4.2-8.8-6.2l-1.2-0.8l0.9-1.1l8.5-9.9l0.2,2.1l-9.2-7.2l-4.6-3.6l-2.3-1.8c-0.8-0.6-1.5-1.2-2.3-1.9
			s-1.6-1.6-2.1-2.7c-0.6-1.1-0.8-2.3-0.8-3.4c0-1.1,0-2,0-3V730l0.2-11.7c0.2-7.8,0.4-15.5,0.6-23.3
			C201.3,687.4,201.6,679.6,202,671.8z"/>
	</g>
	<g>
		<path class="st2" d="M372.5,727.8c2.9,5.1,5.2,10.4,7.3,15.9c1.1,2.7,2,5.5,2.9,8.3c0.4,1.4,0.8,2.8,1.2,4.2
			c0.4,1.4,0.7,2.7,1.4,3.4c0.6,0.8,1.8,1.4,3.1,2.1l3.8,2.1c2.5,1.5,5,2.9,7.5,4.4c5,3,9.9,6.1,14.7,9.5
			c-5.4-2.3-10.6-4.8-15.8-7.4c-2.6-1.3-5.2-2.7-7.7-4l-3.8-2.1c-0.6-0.4-1.3-0.7-2-1.1c-0.7-0.4-1.4-0.9-2.1-1.7
			c-1.2-1.5-1.5-3.2-1.9-4.6l-1.1-4.2c-0.7-2.8-1.6-5.6-2.3-8.3C376,738.9,374.2,733.4,372.5,727.8z"/>
	</g>
	<g>
		<path class="st3" d="M383.5,758.5c2.5,1,4.8,2.1,7.2,3.3c2.3,1.2,4.6,2.6,6.8,3.9c2.2,1.4,4.4,2.9,6.5,4.4c2.1,1.6,4.2,3.2,6.1,5
			c-2.4-1.1-4.7-2.4-6.9-3.7c-2.3-1.3-4.5-2.7-6.7-4.1c-2.2-1.4-4.4-2.8-6.5-4.3C387.7,761.7,385.5,760.2,383.5,758.5z"/>
	</g>
	<g>
		<path class="st8" d="M465.9,700.4c-0.8,1.6-1.7,3.2-2.6,4.8s-1.8,3.2-2.7,4.7l-0.2-0.8c1.9,0.8,3.7,1.7,5.6,2.6l1.6,0.8l-1.7,0.7
			c-2.3,0.9-4.5,1.7-6.8,2.6l0.4-1.5c1.2,1.2,2.3,2.5,3.3,3.8s2,2.7,2.9,4.1l0.5,0.9l-0.9,0.5l-4.7,2.9l0.3-1.4
			c1.2,1.7,2.3,3.3,3.6,5c1.2,1.6,2.5,3.2,3.8,4.8c2.6,3.2,5.3,6.2,8.1,9.2l0,0l0,0c0,0.2,0,0.3-0.1,0.4c-0.1,0.1-0.2,0.2-0.3,0.2
			c-0.2,0.1-0.6,0-0.6-0.3c0.1,0.2,0.4,0.2,0.6,0.2c0.2-0.1,0.4-0.3,0.3-0.5v0.1c-3.2-2.6-6.2-5.4-9-8.5c-1.4-1.5-2.8-3.1-4.1-4.7
			c-1.3-1.6-2.6-3.2-3.8-4.9l-0.6-0.8l0.9-0.5l4.6-2.9l-0.3,1.4c-0.9-1.3-1.8-2.7-2.8-3.9c-1-1.3-2-2.5-3.1-3.7l-1-1.1l1.4-0.5
			c2.3-0.8,4.6-1.6,6.9-2.3l-0.1,1.5c-1.8-1-3.6-2-5.4-3l-0.6-0.3l0.4-0.5c1-1.5,2.1-3,3.1-4.4C463.8,703.4,464.8,701.9,465.9,700.4
			z"/>
	</g>
	<g>
		<path class="st8" d="M132.4,541.1c0.4,2.1,0.3,4.3,0,6.5c-0.3,2.1-0.8,4.3-1.2,6.4c-0.4,2.1-0.7,4.3-0.5,6.4
			c0.2,2.1,0.7,4.2,1.5,6.1c1.6,3.9,4.2,7.4,6.5,11.1c2.3,3.6,4.6,7.6,5.2,12.1l0.2,1.2l-1.2-0.3c-7.7-1.7-15.8-1.6-23.4,0.1
			l0.7-1.2l3.8,11.6l3.8,11.6l1.9,5.8c0.3,1,0.6,2,0.8,3c0.2,1.1,0.2,2.3-0.2,3.5s-1.2,2.1-1.9,2.8c-0.7,0.8-1.5,1.4-2.2,2.1
			c-0.7,0.7-1.5,1.4-2.3,2c-0.8,0.7-1.5,1.3-2.3,2c-6.3,5.2-13.1,9.7-19.3,14.8c-3.1,2.6-6,5.4-8.7,8.4c-2.6,3-4.9,6.4-6.7,10
			l-0.2-0.1l3-3.4l-2.9,3.6l-0.6,0.7l0.4-0.8c3.2-7.5,8.7-13.9,14.9-19.2c6.1-5.4,12.8-10.1,18.9-15.3c0.8-0.6,1.5-1.3,2.3-2
			s1.5-1.3,2.2-2c1.4-1.4,3.1-2.7,3.6-4.2s-0.1-3.4-0.7-5.4l-1.9-5.8l-3.8-11.5l-3.7-11.6l-0.3-1l1-0.2c8-1.8,16.3-1.7,24.2,0.1
			l-1,0.9c-0.5-4.1-2.4-8-4.7-11.6c-2.2-3.7-4.7-7.3-6.3-11.4c-0.8-2.1-1.3-4.3-1.3-6.5c-0.1-2.2,0.3-4.4,0.8-6.5
			C131.5,549.6,132.9,545.4,132.4,541.1z"/>
	</g>
	<g>
		<path class="st8" d="M301.1,789.5c2.5,4.9,4.3,10.2,5.4,15.7s1.7,11.1,1.5,16.7c0,1.4-0.2,2.8-0.2,4.1s0.1,2.6,0.5,3.6
			s1,1.7,2,2.2c1,0.4,2.3,0.6,3.7,0.8l16.3,2.8l1.5,0.3l-0.3,1.5c-1.2,5.8-4.4,10.8-7.6,15.3l-4.9,6.7c-1.6,2.3-3.2,4.5-4.7,6.8
			c-3.1,4.6-6.1,9.2-9,14c-2.9,4.7-5.7,9.5-8.4,14.4c2.2-5.1,4.6-10.1,7.2-15.1c2.6-4.9,5.4-9.8,8.3-14.5c2.9-4.8,6.1-9.4,9.2-13.9
			s6-9.2,7-14.3l1.2,1.8l-16.3-3c-1.3-0.3-2.8-0.5-4.3-1.1c-0.8-0.3-1.5-0.9-2.1-1.5c-0.6-0.7-1-1.4-1.3-2.2c-1-3.2-0.3-6.1-0.1-8.7
			c0.4-5.4,0.2-10.9-0.6-16.3C304.3,800,302.9,794.7,301.1,789.5z"/>
	</g>
	<g>
		<path class="st8" d="M352,704.1c-0.9,1.9-2,3.8-3.2,5.6s-2.5,3.5-4,5.1l-0.1-0.8c3.1,2,5.8,4.9,7.5,8.2l0.2,0.4l-0.3,0.4l-4.4,6.3
			l-2.2,3.1l-1.1,1.6c-0.3,0.5-0.9,1.1-0.9,1.3c0,0.1,0,0.1,0,0.2c0.1,0.2,0.2,0.4,0.4,0.7l1.1,1.6l2.1,3.2c1.4,2.1,2.8,4.3,4.1,6.4
			l4.1,6.4c1.3,2.1,2.9,4.3,3.6,6.9c0.7,2.6,0.6,5.2,0.5,7.7c0,2.5,0.1,5.1,1.4,7.3c-1.6-2.1-2-4.8-2.2-7.3s-0.3-5.1-1-7.4
			c-0.8-2.3-2.3-4.3-3.7-6.4l-4.3-6.3c-1.4-2.1-2.8-4.2-4.2-6.4l-2.1-3.2l-1-1.6c-0.2-0.3-0.4-0.6-0.6-1s-0.3-1.1-0.1-1.6
			c0.2-0.5,0.4-0.8,0.6-1.1l0.6-0.8l1.1-1.5l2.3-3.1l4.6-6.1l-0.1,0.9c-1.5-3.2-3.8-5.9-6.6-8l-0.5-0.4l0.5-0.4c1.5-1.5,3-3,4.3-4.7
			C349.7,707.7,350.9,705.9,352,704.1z"/>
	</g>
	<g>
		<path class="st8" d="M405.7,721.3c0.5,2.1,0.8,4.3,1,6.4c0,0.3,0.1,0.5,0.1,0.7c0.1,0.2,0.1,0.2,0.2,0.3c0.2,0.2,0.7,0.5,1.1,0.8
			c0.9,0.6,1.7,1.3,2.6,1.9c0.4,0.4,0.9,0.8,1.3,1.4c0.3,0.5,0.6,1.1,0.8,1.6c0.4,1,0.8,1.9,1.2,2.9c0.9,1.9,1.9,3.7,3,5.6
			c-1.7-1.3-3.2-3-4.3-4.9c-0.6-0.9-1.1-1.9-1.6-2.9c-0.2-0.5-0.4-0.9-0.7-1.3c-0.2-0.3-0.5-0.6-0.9-0.9l-2.5-2
			c-0.4-0.4-0.8-0.6-1.3-1.2c-0.3-0.3-0.4-0.8-0.5-1.1c0-0.4,0-0.7,0-0.9C405.2,725.6,405.3,723.4,405.7,721.3z"/>
	</g>
	<g>
		<path class="st8" d="M381.7,793.8c-1.1,3.4-2.2,6.7-3.3,10.1l-0.1,0.3l-0.4,0.2c-1.2,0.6-2.4,1.1-3.5,1.7
			c-0.6,0.3-1.2,0.6-1.7,0.9l-0.4,0.2c-0.1,0,0,0.1,0-0.1c0.1-0.1,0-0.2,0-0.1c0,0.1,0.1,0.2,0.1,0.4l1,3.9c0.3,1.3,0.6,2.6,1,3.9
			l0.1,0.5l-0.4,0.3c-0.7,0.6-1.3,1.2-1.9,1.9s-1.2,1.4-1.7,2.1c-1.1,1.5-1.9,3.2-2.6,4.9c0.2-1.9,0.8-3.8,1.7-5.5
			c0.4-0.9,0.9-1.7,1.5-2.5s1.2-1.5,1.9-2.2l-0.2,0.9c-0.4-1.3-0.8-2.5-1.2-3.8l-1.1-3.8c0-0.2-0.1-0.3-0.1-0.6
			c0-0.2-0.1-0.7,0.1-1.1c0.2-0.4,0.5-0.6,0.7-0.7c0.2-0.1,0.3-0.2,0.5-0.3c0.6-0.3,1.2-0.6,1.8-0.9c1.2-0.6,2.5-1.1,3.7-1.6
			l-0.5,0.5C378.2,800,379.8,796.8,381.7,793.8z"/>
	</g>
	<g>
		<path class="st8" d="M327,874.5c0.7,3.5,1.4,6.9,2.2,10.4l0.1,0.3l-0.2,0.3c-0.8,1.1-1.5,2.2-2.2,3.3c-0.4,0.5-0.7,1.1-1,1.7
			l-0.2,0.4c0,0.1,0,0.1,0-0.1c0-0.1-0.1-0.2,0-0.1c0,0,0.2,0.2,0.3,0.3l2.8,2.8c0.9,0.9,1.8,1.9,2.8,2.9l0.4,0.4l-0.2,0.5
			c-0.3,0.8-0.6,1.7-0.8,2.6c-0.2,0.9-0.3,1.8-0.4,2.7c-0.2,1.8-0.1,3.7,0.1,5.6c-0.8-1.7-1.2-3.7-1.3-5.6c0-1,0-1.9,0.1-2.9
			s0.3-1.9,0.6-2.9l0.2,0.9c-1-0.9-2-1.8-2.9-2.7l-2.8-2.8c-0.1-0.1-0.2-0.2-0.4-0.4c-0.2-0.2-0.4-0.5-0.4-1s0.1-0.8,0.2-1
			s0.2-0.3,0.3-0.5c0.4-0.6,0.7-1.1,1.1-1.7c0.8-1.1,1.6-2.2,2.4-3.2l-0.2,0.7C327.1,881.6,326.9,878,327,874.5z"/>
	</g>
	<g>
		<path class="st1" d="M9.5,542.6c4,2,7.4,4.4,10.7,6.7c3.3,2.4,6.4,4.8,9.5,7.4c3.1,2.5,6.1,5.2,9,8c2.9,2.9,5.8,5.8,8.5,9.5
			c-4.5-0.4-8.6-1.9-12.5-3.7c-3.9-1.9-7.4-4.2-10.7-6.9s-6.2-5.8-8.8-9.3C12.7,550.8,10.6,547,9.5,542.6z"/>
	</g>
	<g>
		<path class="st9" d="M9.4,538.8c4,2.2,7.6,4.8,11.2,7.5c3.5,2.7,7,5.5,10.3,8.4s6.6,5.9,9.7,9c3.2,3.1,6.2,6.3,9.1,9.9
			c-4.1-1.9-7.9-4.3-11.6-6.9c-3.7-2.6-7.2-5.4-10.5-8.3c-3.4-2.9-6.6-6-9.6-9.3C14.9,546,12,542.6,9.4,538.8z"/>
	</g>
	<g>
		<path class="st8" d="M131.5,655.1c2.9,5.4,5.6,10.9,8.3,16.4c0.3,0.7,0.7,1.5,0.8,2.4s-0.1,1.8-0.3,2.6l-1.4,4.4l-2.8,8.7
			c-0.2,0.7-0.5,1.5-0.7,2.1c-0.2,0.7-0.2,1.1,0,1.7c0.2,0.5,0.6,1.2,1,1.9l1.1,2l2.2,4l1.1,2c0.3,0.7,0.8,1.4,0.9,2.5
			c0,1.1-0.5,1.9-0.9,2.5c-0.5,0.7-0.9,1.3-1.4,1.9c-1,1.2-2.1,2.3-3.1,3.4c-1.1,1.1-2.1,2.2-2.9,3.5c-0.8,1.3-1.5,2.6-1.7,4.2
			c0-1.5,0.5-3.1,1.2-4.4c0.7-1.4,1.7-2.6,2.6-3.8c1-1.2,2-2.3,2.9-3.6c0.4-0.6,0.9-1.2,1.2-1.8c0.4-0.6,0.6-1.2,0.6-1.7
			s-0.4-1.1-0.8-1.7l-1.2-2l-2.3-3.9l-1.2-2c-0.4-0.7-0.8-1.3-1.2-2.2c-0.2-0.4-0.3-1-0.2-1.5c0-0.5,0.1-1,0.2-1.4
			c0.2-0.8,0.5-1.5,0.7-2.2l2.9-8.7l1.5-4.3c0.2-0.7,0.4-1.3,0.3-1.9c0-0.6-0.3-1.2-0.6-1.9C136,666.5,133.7,660.8,131.5,655.1z"/>
	</g>
	<g>
		<path class="st8" d="M25.5,660.5c4.2-4.5,8.4-8.9,12.8-13.2c0.5-0.5,1.2-1.2,2-1.6c0.9-0.4,1.7-0.5,2.5-0.6l4.6-0.1l9.2-0.2
			c0.7,0,1.6,0,2.2,0c0.7,0,1.2-0.2,1.6-0.5c0.4-0.3,0.9-1,1.4-1.6l1.5-1.7l3.1-3.4l1.5-1.7c0.5-0.5,1.1-1.3,2.1-1.7s1.9-0.2,2.7,0
			c0.8,0.2,1.5,0.4,2.3,0.7c1.5,0.6,2.8,1.2,4.2,1.9c1.4,0.6,2.8,1.2,4.2,1.6c1.5,0.4,3,0.5,4.5,0.2c-1.5,0.5-3.1,0.5-4.6,0.3
			s-3-0.7-4.5-1.2c-1.4-0.5-2.9-1.1-4.3-1.5c-0.7-0.2-1.4-0.4-2.1-0.6c-0.7-0.1-1.4-0.2-1.8,0c-0.5,0.2-0.9,0.7-1.4,1.3l-1.5,1.8
			l-3,3.5l-1.5,1.7c-0.5,0.6-0.9,1.2-1.7,1.8c-0.4,0.3-0.9,0.6-1.3,0.7c-0.5,0.1-0.9,0.2-1.4,0.2c-0.8,0-1.6,0-2.3,0.1l-9.2,0.1
			h-4.6c-0.7,0-1.4,0.1-1.9,0.3s-1.1,0.7-1.6,1.2C34.8,652.5,30.2,656.5,25.5,660.5z"/>
	</g>
	<g>
		<path class="st8" d="M97.2,532.8c-5.9,7.2-12.3,13.8-18.7,20.4c-6.4,6.5-12.9,12.9-19.5,19.2S45.8,584.9,38.9,591
			c-6.8,6.1-13.7,12.1-21.2,17.7c4.7-8.1,10.3-15.5,16.2-22.6s12.3-13.8,18.9-20.2c6.7-6.4,13.7-12.4,21-17.9
			C81.3,542.3,88.9,537.1,97.2,532.8z"/>
	</g>
	<g>
		<path class="st10" d="M144.7,789.1c6.6,7.2,13.1,14.5,19.6,21.7l19.4,21.9c12.9,14.7,25.6,29.4,38.3,44.2
			c12.6,14.9,25.2,29.8,37.7,44.8c12.5,15,24.8,30.1,37.1,45.3l-7.4,5.9c-8.3-9.9-16.7-19.8-24.8-29.9
			c-8.1-10.1-16.2-20.2-24.1-30.5c-7.9-10.2-15.8-20.5-23.5-30.9s-15.3-20.9-22.8-31.5l9-7.3l28.8,30.9l28.9,30.8
			c19.3,20.5,38.7,41,58.2,61.3l-8.9,7.2c-4.7-7.1-9.5-14.1-14.6-21c-5.1-6.8-10.4-13.5-15.9-20s-11.3-12.8-17.2-19
			c-5.9-6.1-12.1-12.1-18.4-17.9l7.3-6.8c10.5,13.7,21.9,26.8,34,39c6.1,6.1,12.4,12.1,18.8,17.8c6.4,5.8,13.1,11.3,19.9,16.7
			l-5.6,3.8c-1.5-6.2-3.8-12.2-6.6-17.9c-2.8-5.7-6.2-11.1-10.2-16.2l4.5-3.5l25.4,34.7l-3,2.3c-4.2-5.9-7-12.7-8.2-19.8l-0.7-4.5
			l3,3.3c5.1,5.6,10.9,10.6,17,15c6.2,4.4,12.9,8.2,19.9,11.3c-7.2-2.6-14.2-6-20.7-10.1s-12.6-8.9-18.2-14.3l2.3-1.2
			c1.4,6.6,4.4,12.8,8.5,18l-3,2.3l-26.9-33.5l4.5-3.5c4.4,5.2,8.3,10.8,11.5,16.9c3.2,6,5.8,12.4,7.7,19l2.8,9.9l-8.4-6.2
			c-7.1-5.2-14.1-10.6-20.8-16.3c-6.8-5.6-13.3-11.6-19.7-17.7c-12.7-12.2-24.7-25.3-35.8-39.1l7.3-6.8c6.6,5.8,12.9,11.8,19.1,18
			s12.2,12.6,17.9,19.2c5.8,6.6,11.3,13.4,16.7,20.3c5.3,7,10.5,14.1,15.3,21.4l-8.9,7.2c-19.7-20.2-39.2-40.6-58.6-61.1
			c-9.7-10.2-19.3-20.6-28.9-30.9l-28.7-31.1l9-7.3c7.4,10.5,14.9,21,22.5,31.4s15.2,20.8,23,31.1c7.7,10.3,15.6,20.5,23.5,30.7
			c8,10.1,15.9,20.3,24,30.3l-7.4,5.9c-11.9-15.4-23.9-30.8-35.9-46.1c-12-15.4-24-30.7-36.1-46c-12-15.3-24.2-30.6-36.3-45.9
			L144.7,789.1z"/>
	</g>
	<path class="st11" d="M305.7,916.8c22.6,21.1,45.2,42.1,67.8,63.2c-0.5-0.8-1.1-1.5-1.6-2.3"/>
	<g>
		<path class="st10" d="M351.2,953.1l-14.1-15l1.2-1.2l24.8,20.2l24.7,20.3l-4.3,3.7l-14.6-21.8l-14.6-21.8l-5.9-8.8l10.4,2.7
			c3.4,0.9,6,2.7,8.1,4.5s3.8,3.5,5.7,5.2l10.9,10.2l21.8,20.5l-7.8,6.3l-27-42.6l-17.8-28l26,20.8l12.4,9.9l12.4,10l24.7,20
			l-8.9,7.6l-18.9-32.1l-4.3-7.4l8.4-1.6c1.2-0.2,2.5-0.3,3.6-0.1c1.2,0.1,2.2,0.4,3.2,0.8c1.9,0.7,3.3,1.7,4.5,2.6
			c0.6,0.5,1.2,0.9,1.7,1.4l1.4,1.3l2.6,2.4l10.6,9.6l21.1,19.2l-9.1,7l-8.8-17.4l-8.8-17.4l-3.1-6.1l6.5-1.8c1.3-0.4,2.7-0.4,4-0.3
			c1.3,0.1,2.4,0.5,3.4,0.8c2,0.8,3.4,1.8,4.6,2.7c0.6,0.5,1.2,0.9,1.7,1.3l1.6,1.2l3.1,2.5c4.1,3.4,8.2,6.8,12.2,10.3
			s8,7.1,11.9,10.7c2,1.9,3.7,3.6,5.4,4.7c0.8,0.6,1.6,1,2.2,1.2c0.7,0.2,1.1,0.3,1.6,0.2l-3.6,6.9c-4.4-9.7-9.3-19.1-14.6-28.4
			l-7.2-12.5l12.8,6.4c4.4,2.2,8.3,5.1,11.7,8.3c3.4,3.2,6.5,6.6,9.4,9.9c2.9,3.3,5.8,6.7,8.8,9.7s6.1,5.8,9.6,8l-4.4,4.6
			c-2.7-4.3-5.2-8.8-7.2-13.4c-2.1-4.6-3.8-9.4-5.2-14.3l-1.3-4.4l4.3,1.3c5.8,1.8,11.1,4.7,15.9,8s9.2,7.2,13.5,11.1
			c4.3,3.9,8.4,7.8,12.7,11.6s8.8,7.3,13.7,10.4c-5.2-2.5-10-5.8-14.6-9.2s-9.1-7.1-13.6-10.7c-4.5-3.6-9.1-7-13.9-9.9
			c-4.8-2.9-9.9-5.2-15.2-6.6l3-3.1c1.6,4.6,3.5,9,5.7,13.3s4.7,8.4,7.4,12.3l8.4,12l-12.8-7.4c-4.1-2.4-7.8-5.4-11.1-8.5
			c-3.4-3.1-6.4-6.4-9.5-9.6c-3-3.2-6.1-6.2-9.2-8.9c-3.2-2.7-6.5-5-10.1-6.7l5.6-6.1c5.7,9.3,11.1,18.8,15.9,28.6l2.9,5.8l-6.5,1.1
			c-2.1,0.4-4.3,0.1-6.2-0.4c-1.9-0.6-3.4-1.4-4.8-2.3c-2.7-1.8-4.8-3.8-6.7-5.5c-3.9-3.5-7.9-6.9-11.9-10.2s-8.1-6.6-12.2-9.9
			l-3.1-2.4l-1.6-1.2c-0.5-0.4-1-0.8-1.4-1.1c-0.9-0.6-1.7-1.1-2.2-1.3c-0.2-0.1-0.4-0.1-0.5-0.1c0,0,0,0,0.1,0l3.5-7.9l9.1,17.3
			l9,17.3l14.9,28.6l-24-21.6l-21.2-19.1l-10.6-9.6c-1.7-1.5-3.7-3.4-5-4.4c-0.7-0.5-1.3-0.8-1.6-1c-0.2-0.1-0.2-0.1-0.3-0.1
			c0,0,0,0,0.1,0l4-8.9l18.8,32.2l16.8,28.8l-25.7-21.2l-24.6-20.2l-11.7-9.9l-12.2-10.2l8.2-7.2l26.2,43.1l21.8,35.9L398.3,979
			l-21.2-21.2l-10.6-10.6c-1.8-1.7-3.6-3.6-5.2-5.1s-3.2-2.5-4.7-3l4.5-6.1l13.6,22.4l13.6,22.5l10.5,17.4L384,981.6L360.6,960
			l-23.3-21.8l1.2-1.2L351.2,953.1z"/>
	</g>
	<g>
		<path class="st10" d="M569.3,919.8c-0.9-2.1-1.7-4.2-2.6-6.2c-0.8-2.1-1.7-4.2-2.5-6.3l1.9-0.6l5.6,15.9
			c1.9,5.3,3.8,10.6,5.7,15.9c1.9,5.3,3.9,10.5,5.9,15.8c2,5.2,4,10.5,6.1,15.7l-8,1.4c-0.1-4.3-0.5-8.6-1-12.9
			c-0.6-4.3-1.3-8.6-2.2-12.8c-1.8-8.5-4-17.1-6.3-25.7l10.1-2.9c2.2,6.5,4.5,12.9,7,19.1c2.5,6.2,5.3,12.1,8.7,17.7l-10.2,3.2
			c-0.3-4.9-0.9-9.7-2-14.5s-2.5-9.5-4.3-14l9.8-4.1c2.5,6,4.9,11.9,7.4,17.9l3.6,9c0.6,1.5,1.1,2.8,1.7,3.8c0.6,1,1.1,1.6,1.7,2
			l-7.2,4.6c-0.5-3.9-1-7.8-1.7-11.6c-0.7-3.9-1.5-7.7-2.4-11.5l7.8-2.2c0.9,3.9,2.3,7.8,3.9,11.6c1.6,3.8,3.6,7.4,5.8,10.8L606,961
			l-0.6-9.2l-0.5-9.2l-0.7-13l4.9,11.9c1.1,2.6,2.2,5.2,3.4,7.7c1.2,2.6,2.4,5.1,3.7,7.6s2.6,5,4,7.5s2.8,4.9,4.3,7.4
			c-1.9-2.2-3.6-4.4-5.4-6.7c-1.8-2.3-3.4-4.6-5-7s-3.2-4.8-4.7-7.2c-1.5-2.5-2.9-5-4.3-7.5l4.2-1.2l1.5,9.1l1.4,9.1l1.8,11.5
			l-7.4-9.3c-2.8-3.5-5.2-7.3-7.3-11.3s-3.8-8.2-5.2-12.6l7.8-2.2c1.2,3.9,2.3,7.9,3.3,11.9c0.9,4,1.8,8.1,2.4,12.1l1.6,10.1
			l-8.8-5.5c-2.2-1.3-3.7-3.2-4.8-5s-1.8-3.5-2.5-4.9l-4-8.8c-2.6-5.9-5.3-11.8-7.8-17.7l9.8-4.1c2.1,5.1,3.8,10.3,5,15.7
			s2,10.8,2.3,16.3l1.3,22.2l-11.5-19.1c-3.8-6.2-6.8-12.8-9.4-19.3c-2.6-6.6-4.7-13.2-6.9-19.7l10.1-2.9c2,8.7,4.1,17.5,5.5,26.5
			c0.7,4.5,1.3,9.1,1.7,13.6c0.3,4.6,0.5,9.2,0.3,13.8l-0.9,23.4l-7.1-22.1c-1.7-5.4-3.4-10.8-5-16.2s-3.1-10.9-4.6-16.3
			c-1.5-5.5-2.8-11-4.1-16.4c-1.3-5.5-2.5-11-3.7-16.5l1.9-0.6c0.6,2.2,1.1,4.4,1.6,6.5C568.3,915.4,568.8,917.6,569.3,919.8z"/>
	</g>
	<g>
		<path class="st10" d="M308.2,708.6c3.7,5,7.4,10.1,11,15.3c3.6,5.1,7.1,10.3,10.6,15.5s6.9,10.5,10.3,15.7
			c3.4,5.3,6.7,10.6,10,15.9l-3.1,1.8l-8.3-13.8l-8.2-13.9c-5.5-9.2-10.9-18.5-16.3-27.8l3.2-2.1l12.8,18.5l12.7,18.6
			c4.2,6.2,8.4,12.4,12.6,18.7c4.2,6.2,8.3,12.5,12.4,18.9c-4.6-5.9-9.2-11.9-13.7-17.9s-9-12.1-13.5-18.1l-13.3-18.2l-13.2-18.3
			l3.2-2.1c5.5,9.3,11,18.5,16.4,27.8l8.1,13.9l8,14l-3.1,1.8l-9.5-16.2l-9.7-16.1L308.2,708.6z"/>
	</g>
	<g>
		<path class="st10" d="M422.6,752.8c1.5,2.2,2.9,4.5,4.2,6.8c1.4,2.3,2.7,4.6,4,6.9c1.3,2.3,2.6,4.6,3.8,7c1.2,2.4,2.5,4.7,3.7,7.1
			l-3.6,1.4c-1.6-4.9-3.2-9.7-4.7-14.7l-4.6-15.3l8.1,13.7l3.6,6c1.2,2,2.3,4.1,3.5,6.1l-2.5,1.3c-0.4-1.1-0.7-2.3-1-3.5
			c-0.2-1.2-0.4-2.4-0.5-3.6l-0.2-3.8l1.9,3.1c0.8,1.3,1.6,2.4,2.5,3.6c0.9,1.2,1.9,2.3,3,3.4c-1.3-0.8-2.6-1.6-3.7-2.6
			c-1.2-1-2.3-2.1-3.3-3.2l1.7-0.7c0.3,1.1,0.6,2.2,0.9,3.2c0.4,1.1,0.8,2.1,1.3,3.1l-2.5,1.3c-1.3-1.9-2.7-3.8-4-5.8l-3.9-5.8
			l3.5-1.6c1.7,4.9,3.2,9.7,4.7,14.6l-3.6,1.4c-1.1-2.4-2.2-4.8-3.3-7.2c-1.1-2.4-2.1-4.9-3.2-7.3c-1-2.5-2-4.9-3-7.4
			C424.4,757.9,423.5,755.4,422.6,752.8z"/>
	</g>
</g>
<g>
	<path class="st8" d="M63.2,1079h78.2c4.3-0.3,8.6-0.7,12.9-1.2c33-3.9,65.4-13,98.6-14.7c35.4-1.8,70.7,4.8,105.5,11.4
		C289.7,990.2,220.9,906,152.1,821.7c-18.2-22.3-36.6-44.9-49.6-70.7c-14.6-0.7-28.1,13.5-42,9.1c-7.5-2.4-12.3-9.5-16.4-16.3
		c-16.4-27.3-30.4-55.9-42-85.5v418c12.3,0.4,24.6,0.9,37,1.5C47.1,1078.2,55.2,1078.6,63.2,1079z"/>
	<path class="st14" d="M76.6,758.6c-2.8,13.6-5.7,27.2-8.5,40.9"/>
	<path class="st14" d="M61.7,780.8c2.8,15.3,6.4,30.5,10.8,45.5"/>
	<path class="st15" d="M60.7,767.5c4.3,18.8,8.6,37.6,12.8,56.4"/>
	<path class="st15" d="M59.8,784.8c2.8,12.4,5.5,24.8,8.1,37.3"/>
	<path class="st16" d="M54.9,759.5c0,0,3.8-1.3,5.7-0.7c1.1,0.3,3.1,0.4,4.4-0.5c2.2-1.5,5-0.6,5-0.6s2.7,0.5,5-0.6
		c1-0.5,3.4-0.8,4.4-0.5c2.2,0.6,3.6-0.4,3.6-0.4l-14.4,62L54.9,759.5z"/>
	<path class="st15" d="M59.1,795.3c1.5,7.6,3.1,15.1,4.6,22.7"/>
	<g>
		<path class="st17" d="M64.3,759.9c0.5,4,0.8,8.1,1,12.1s0.4,8.1,0.5,12.1c0,4.1,0.1,8.1,0,12.2l-0.2,6.1c-0.1,2-0.2,4,0.1,6
			c-0.5-2-0.5-4-0.6-6.1l-0.1-6.1c-0.1-4-0.1-8.1-0.2-12.1c0-4-0.2-8.1-0.3-12.1C64.5,768,64.4,764,64.3,759.9z"/>
	</g>
	<g>
		<path class="st18" d="M57.5,759c1.2,3.1,2.1,6.4,2.8,9.6c0.8,3.2,1.3,6.5,1.8,9.8s0.9,6.6,1.1,9.9c0.3,3.3,0.4,6.6,0.4,10
			c-1.2-3.2-2-6.4-2.7-9.6c-0.7-3.2-1.3-6.5-1.8-9.8s-0.9-6.6-1.2-9.8C57.8,765.7,57.5,762.4,57.5,759z"/>
	</g>
	<g>
		<path class="st17" d="M77.9,759.3c-0.6,3.9-1.4,7.7-2.1,11.6c-0.8,3.8-1.6,7.7-2.4,11.5c-0.9,3.8-1.7,7.6-2.6,11.4l-1.4,5.7
			c-0.5,1.9-1,3.8-1.2,5.7c0-2,0.4-3.9,0.7-5.8l1.1-5.8c0.8-3.8,1.6-7.7,2.4-11.5c0.9-3.8,1.7-7.6,2.6-11.5
			C75.9,766.9,76.8,763.1,77.9,759.3z"/>
	</g>
	<path class="st16" d="M98.5,1079c3.9-69.5,6.6-138.4,9.7-207.9L98.5,1079L98.5,1079z"/>
	<path class="st16" d="M108.2,871.1l1.5-31.9C109.2,849.9,108.7,860.5,108.2,871.1z"/>
	<path class="st19" d="M57.1,814.7c19.4,7.8,38.2,15.8,57.6,23.5"/>
	<path class="st15" d="M57.7,802.6c1,5.2,1.8,10.4,2.5,15.6"/>
	<g>
		<path class="st20" d="M13.2,685.7c4.6,6.9,8.9,13.8,13.3,20.8c4.4,6.9,8.7,13.9,12.9,21s8.3,14.2,12,21.6
			c3.7,7.3,7.2,14.9,9.9,22.7C56.7,764.9,52.4,758,48,751c-4.5-7-8.8-14-13-21c-4.2-7.1-8.2-14.2-12-21.6
			C19.3,701.1,15.9,693.5,13.2,685.7z"/>
	</g>
	<g>
		<path class="st21" d="M60.8,773.4c0.1,4.1-0.2,8.2-0.5,12.2c-0.4,4-0.9,8.1-1.6,12.1c-0.7,4-1.4,8-2.3,11.9c-0.9,4-2,7.9-3.3,11.8
			l-0.8-0.4c0.7-0.6,1.3-1.2,2-1.7c-0.4,0.8-0.8,1.6-1.3,2.3l-0.8,1.4v-1.8c0.1-4.1,0.4-8.2,0.8-12.2c0.5-4,1-8,1.8-12
			c0.7-4,1.5-8,2.5-11.9C58.2,781.2,59.3,777.3,60.8,773.4z"/>
	</g>
	<g>
		<path class="st22" d="M109.7,839.6c-1.2,9.4-3,18.7-5.1,27.8c-2.1,9.2-4.4,18.3-7,27.3s-5.4,18-8.4,26.9
			c-3.1,8.9-6.4,17.7-10.4,26.3c1.2-9.4,3-18.7,5.1-27.8c2.1-9.2,4.4-18.3,7-27.3s5.4-18,8.4-26.9
			C102.4,857,105.7,848.2,109.7,839.6z"/>
	</g>
	<path class="st16" d="M110.6,1046.8l2.1-207.6c-2.1,20-1.1,40-1.1,60C109.4,948.7,110.6,997.6,110.6,1046.8z"/>
	<path class="st16" d="M110.4,1079c0.2-10.7,0.3-21.5,0.3-32.2L110.4,1079L110.4,1079z"/>
	<g>
		<path class="st17" d="M68.5,759.6c0.1,2.2,0.1,4.4,0.1,6.6c0,2.2-0.1,4.4-0.1,6.6c-0.1,2.2-0.2,4.4-0.4,6.6l-0.3,3.3
			c-0.1,1.1-0.2,2.2-0.4,3.3c-0.1-1.1-0.1-2.2-0.1-3.3v-3.3c0-2.2,0.1-4.4,0.1-6.6c0.1-2.2,0.2-4.4,0.4-6.6S68.2,761.8,68.5,759.6z"
			/>
	</g>
	<g>
		<path class="st18" d="M61.6,813.9c4.6,1,9.1,2.3,13.6,3.8s8.9,3,13.3,4.7l13.2,4.9c4.4,1.6,8.8,3.1,13.2,4.4l1.6,0.5l0.2,1.9
			c0.9,9.9,1.7,19.8,2.4,29.6l0.9,14.8l0.8,14.8c1,19.8,1.5,39.6,1.9,59.4c0.2,9.9,0.3,19.8,0.4,29.7c0.1,4.9,0.1,9.9,0.1,14.8
			l0.1,14.8c-0.1,19.8-0.1,39.6-0.5,59.4c-2.3-19.7-3.7-39.5-5-59.2c-0.5-9.9-1.1-19.8-1.6-29.7s-0.9-19.8-1.2-29.7
			c-0.7-19.8-1.3-39.5-1.9-59.3l-0.4-14.8l-0.5-14.8l-0.4-14.8c-0.2-4.9-0.4-9.9-0.5-14.8l1.8,2.3c-4.5-1.7-8.9-3.5-13.2-5.4
			c-4.3-1.9-8.6-4-12.8-6c-4.3-2-8.5-4-12.8-6C70.3,817.5,66,815.6,61.6,813.9z"/>
	</g>
	<g>
		<path class="st16" d="M111.7,838.2c-2.3,78-1.2,155.9-2.5,234l-13-0.6C101.9,994,105,915.9,111.7,838.2z"/>
	</g>
	<path class="st16" d="M112.2,838.2c-1,78-3,156-3.2,233.6"/>
	<path class="st16" d="M114.2,835.2c0,79,2,158,1.4,236.7"/>
	<path class="st23" d="M112.7,841.2c0.5,77,0.5,154,0,230.6"/>
	<g>
		<path class="st16" d="M109.7,848.2c-0.2,7.8-0.5,15.5-0.9,23.3l-1.1,23.3l-1.4,23.2l-0.8,11.6l-0.9,11.6l0.4-11.6l0.5-11.6
			l1.1-23.3l1.4-23.2C108.6,863.7,109.1,855.9,109.7,848.2z"/>
	</g>
	<path class="st16" d="M110,1079c0.9-44.4,1.7-89.5,1.7-133.8L110,1079L110,1079z"/>
	<g>
		<path class="st16" d="M117.9,921.5c-0.1,2.6-0.2,5.2-0.3,7.8l-0.4,7.8l-0.5,7.8l-0.5,7.8l-0.7,9.9l-1.8-9.8l-1.9-10.1l-1.8-10.1
			l2.9-0.1c-0.3,3.6-0.8,7.1-1.2,10.7c-0.4,3.6-0.8,7.1-1.3,10.7l-1.1,9.1l-1.5-9c-0.5-2.7-0.9-5.3-1.3-8l-1.3-8l1.9-0.1
			c-0.5,3.3-0.9,6.6-1.4,10c-0.5,3.3-1,6.6-1.6,9.9c0.1-3.4,0.3-6.7,0.5-10.1c0.2-3.4,0.4-6.7,0.6-10l0.5-6.8l1.4,6.7l1.7,8
			c0.6,2.7,1.1,5.3,1.7,8l-2.7,0.1c0.3-3.6,0.7-7.2,1-10.7c0.4-3.6,0.7-7.1,1.1-10.7l1.2-10.5l1.7,10.4l1.7,10.2l1.6,10.2l-2.5,0.1
			l0.9-7.7l1-7.7l1.1-7.7C117,926.7,117.4,924.1,117.9,921.5z"/>
	</g>
	<g>
		<polygon class="st16" points="104,869.6 103.5,890.6 103,911.7 101.8,953.8 100.3,995.9 99.5,1017 98.6,1038 99.1,1016.9 
			99.6,995.9 100.8,953.8 102.2,911.7 103.1,890.6 		"/>
	</g>
	<path class="st16" d="M117.2,1079c0.3-38.5-0.3-77-1.9-115.4L117,1079H117.2z"/>
	<path class="st16" d="M101.5,1079c1.2-38.3,1.8-76.7,1.9-115L101.5,1079L101.5,1079z"/>
	<g>
		<path class="st18" d="M111.1,980.1c0.6,7.7,0.8,15.3,0.8,23c0,3.8-0.1,7.7-0.1,11.5l-0.3,11.5l-0.3,11.5l-0.3,11.4
			c-0.1,7.6-0.2,15.3-0.2,22.9c-1.3-7.6-1.9-15.2-2.2-22.9c-0.2-3.8-0.2-7.7-0.2-11.5s0.1-7.7,0.2-11.5l0.4-11.5
			c0.2-3.8,0.4-7.6,0.6-11.5C110,995.3,110.5,987.7,111.1,980.1z"/>
	</g>
	<path class="st16" d="M109.7,963.2c-2.5,36-2.5,73-4.2,108.6"/>
	<path class="st16" d="M93.9,1079l4-87.1C96.4,1020.8,94.8,1049.9,93.9,1079L93.9,1079z"/>
	<path class="st16" d="M97.9,991.9c1.9-35.7,3.8-71.4,4.9-107.2L97.9,991.9z"/>
	<path class="st16" d="M115.5,844.4c6.2,76,10.8,152.1,13.8,228.3"/>
	<g>
		<path class="st22" d="M99.7,887.3c-1.6,15-3.8,29.8-6.2,44.6c-2.3,14.8-4.9,29.5-7.7,44.2c-2.7,14.7-5.6,29.4-8.8,44
			c-3.1,14.6-6.4,29.3-10.3,43.8c1-15,2.8-29.9,4.9-44.7s4.5-29.6,7.3-44.4c2.8-14.7,5.8-29.4,9.2-44
			C91.6,916.2,95.3,901.7,99.7,887.3z"/>
	</g>
	<g>
		<path class="st24" d="M100.4,754.5c3.8,4.6,7.5,9.2,11.3,13.7s7.6,9,11.4,13.4c7.6,8.9,15.3,17.8,22.8,26.9
			c14.9,18.3,28.9,37.4,42.1,56.9c13.2,19.6,25.5,39.7,36.9,60.4c5.6,10.4,11.1,20.9,16.2,31.6c1.2,2.7,2.5,5.4,3.8,8.1
			c1.2,2.7,2.4,5.4,3.6,8.1c2.4,5.4,4.6,11,6.7,16.6c-4-4.5-7.7-9.1-11.4-13.7c-3.7-4.6-7.3-9.3-11-13.9
			c-7.2-9.4-14.2-18.8-21.1-28.3c-13.8-19-27.1-38.3-40.2-57.7c-13-19.4-25.8-39.1-38.2-59c-6.1-10-12.4-20-18.1-30.5
			c-2.8-5.2-5.6-10.6-8.1-16C104.6,765.8,102.3,760.2,100.4,754.5z"/>
	</g>
	<g>
		<path class="st22" d="M76.4,959.6c-0.9,9.6-2.4,19-4,28.4c-1.7,9.4-3.5,18.7-5.5,28.1c-2,9.3-4.2,18.6-6.5,27.8
			c-2.4,9.2-4.8,18.5-8,27.6c0.3-9.6,1.3-19.2,2.6-28.7c1.4-9.5,3.1-18.9,5.1-28.2s4.3-18.6,7-27.8
			C69.7,977.6,72.7,968.5,76.4,959.6z"/>
	</g>
	<g>
		<path class="st1" d="M123.2,792.6c4.6,3.9,9.1,7.9,13.5,12s8.6,8.3,12.9,12.6c4.2,4.3,8.3,8.6,12.4,13c2,2.2,4,4.4,6.1,6.6
			c2,2.2,4,4.4,6,6.7c15.8,18,30.7,36.7,44.8,56s27.3,39.3,39.5,59.8c1.5,2.6,3,5.2,4.5,7.8s3,5.2,4.4,7.8
			c2.9,5.2,5.7,10.5,8.5,15.8c5.5,10.7,10.7,21.5,15.3,32.7c-4.2-4.4-8.1-8.9-12-13.5c-3.9-4.5-7.7-9.1-11.5-13.8
			c-3.8-4.6-7.5-9.2-11.2-13.9c-1.9-2.3-3.7-4.7-5.5-7s-3.7-4.7-5.5-7c-14.6-18.8-28.7-37.8-42.7-56.9c-13.9-19.2-27.6-38.5-41-58.2
			c-1.7-2.4-3.3-4.9-5-7.4s-3.3-4.9-4.9-7.4c-3.3-4.9-6.6-9.9-9.8-15c-3.2-5-6.4-10.1-9.6-15.2C129.3,803.1,126.2,797.9,123.2,792.6
			z"/>
	</g>
	<g>
		<path class="st22" d="M104.5,756c9.8,10,19.2,20.3,28.4,30.7s18.3,21,27.2,31.7c17.8,21.4,35.1,43.1,52.1,65.1
			c16.9,22.1,33.4,44.4,49.4,67.2c8,11.4,15.8,22.9,23.5,34.5c7.6,11.6,15.2,23.4,22.2,35.4c-18.9-20.6-36.8-41.8-54.5-63.3
			C235.2,935.8,218,914,201.1,892s-33.4-44.3-49.6-66.9S119.4,779.7,104.5,756z"/>
	</g>
	<g>
		<path class="st25" d="M104.7,753.2c12.5,13.9,24.3,28.3,36.1,42.7c5.9,7.2,11.7,14.5,17.5,21.8l17.3,22l17.1,22.1
			c5.6,7.4,11.3,14.8,16.9,22.2c11.3,14.8,22.4,29.8,33.6,44.7c-12.5-13.9-24.3-28.3-36.1-42.7c-5.9-7.2-11.7-14.5-17.5-21.8
			l-17.3-22l-17.1-22.1c-5.6-7.4-11.3-14.8-16.9-22.2C127.1,783,115.9,768.1,104.7,753.2z"/>
	</g>
	<g>
		<path class="st21" d="M144.7,842.9c1,2.6,1.9,5.3,2.8,7.9l1.5,3.9l1.5,3.9l0.1,0.3l-0.2,0.3c-0.4,0.7-1.1,1.3-1.7,1.7
			c-0.7,0.4-1.4,0.7-2.1,1c-1.4,0.5-2.7,0.9-3.8,1.5c-0.3,0.2-0.5,0.3-0.6,0.5c-0.1,0.1-0.1,0.2-0.1,0.4c0,0.4,0.3,1,0.6,1.6
			l1.8,3.9c1.2,2.6,2.5,5.1,3.7,7.6c1.3,2.5,2.6,5,3.9,7.5l0.2,0.3l-0.1,0.3c-1.1,4.6-2.1,9.2-3,13.8l-1.4,6.9l-1.3,7
			c0.1-2.4,0.3-4.7,0.5-7.1c0.2-2.4,0.5-4.7,0.8-7c0.6-4.7,1.5-9.3,2.4-14l0.1,0.6c-1.4-2.5-2.8-5-4.1-7.5s-2.5-5.1-3.7-7.7
			c-0.6-1.3-1.2-2.6-1.8-3.9c-0.3-0.6-0.7-1.4-0.7-2.4c0-0.5,0.2-1.1,0.5-1.5s0.7-0.7,1.1-0.9c1.4-0.8,2.8-1.1,4.1-1.5s2.5-1,3.1-2
			l-0.1,0.6c-0.4-1.3-0.9-2.7-1.3-4c-0.4-1.3-0.8-2.7-1.2-4.1C146,848.4,145.3,845.7,144.7,842.9z"/>
	</g>
	<g>
		<path class="st21" d="M143.4,873c-0.6,1.6-1.3,3.3-1.9,4.9c-0.6,1.6-1.2,3.3-1.8,5l-0.1,0.2l-0.2,0.1c-1.2,0.5-2.4,1.1-3.6,1.7
			c-0.6,0.3-1.2,0.6-1.7,0.9c-0.3,0.2-0.6,0.3-0.6,0.4c0,0,0,0.3,0.1,0.6c0.7,2.6,1.4,5.1,2,7.7l0.1,0.3l-0.2,0.2
			c-1.4,1.2-2.6,2.6-3.6,4.2c-0.5,0.8-1,1.6-1.4,2.4c-0.4,0.8-0.7,1.7-1,2.6c0.2-0.9,0.4-1.8,0.8-2.7c0.3-0.9,0.7-1.8,1.2-2.6
			c0.9-1.7,2.1-3.2,3.5-4.5l-0.1,0.4c-0.8-2.5-1.5-5.1-2.2-7.7c0-0.2-0.1-0.3-0.1-0.5s-0.1-0.5,0.1-0.8c0.1-0.3,0.4-0.4,0.5-0.5
			c0.2-0.1,0.3-0.2,0.5-0.3c0.6-0.3,1.2-0.6,1.8-0.9c1.2-0.6,2.4-1.1,3.7-1.6l-0.2,0.2c0.7-1.6,1.3-3.3,2.1-4.9
			C141.8,876.2,142.6,874.6,143.4,873z"/>
	</g>
	<g>
		<path class="st21" d="M157.4,890.9c2.4,2.6,4.7,5.3,7.1,7.8l0.2,0.2v0.4c-0.1,1.3-0.2,2.6-0.2,3.9c0,0.7,0,1.3-0.1,2v0.4
			c0,0.1,0,0.1,0,0c-0.1-0.1-0.2-0.1-0.1-0.1c0.1,0,0.2,0.1,0.4,0.1l3.9,1c1.3,0.3,2.6,0.7,3.8,1.1l0.5,0.1l0.1,0.5
			c0.2,0.9,0.4,1.8,0.7,2.6c0.3,0.9,0.6,1.7,1,2.5c0.8,1.7,1.8,3.2,3,4.7c-1.5-1.1-2.9-2.6-3.9-4.2c-0.5-0.8-1-1.7-1.4-2.6
			c-0.4-0.9-0.7-1.8-1-2.8l0.6,0.6c-1.3-0.3-2.6-0.6-3.9-0.9l-3.9-1c-0.2,0-0.3-0.1-0.6-0.2c-0.2-0.1-0.6-0.3-0.9-0.7
			c-0.3-0.4-0.3-0.8-0.3-1s0-0.4,0-0.6c0-0.7,0.1-1.3,0.1-2c0.1-1.3,0.3-2.7,0.5-4l0.2,0.6C161.1,897,159.1,894.1,157.4,890.9z"/>
	</g>
	<g>
		<path class="st21" d="M92.8,765.6c0.3,3.5,0.6,7.1,0.9,10.5v0.3l-0.3,0.3c-0.9,1-1.7,2-2.6,3c-0.4,0.5-0.8,1-1.2,1.5l-0.3,0.3
			c-0.1,0.1,0,0.1,0-0.1c0-0.1,0-0.2,0-0.1c0,0,0.2,0.2,0.3,0.3l2.4,3.1c0.8,1,1.6,2.1,2.4,3.2l0.3,0.4l-0.2,0.5
			c-0.4,0.8-0.8,1.6-1.1,2.5c-0.3,0.9-0.5,1.7-0.7,2.6c-0.4,1.8-0.5,3.7-0.5,5.6c-0.5-1.8-0.7-3.8-0.6-5.7c0.1-1,0.2-1.9,0.4-2.9
			c0.2-0.9,0.5-1.9,0.9-2.8L93,789c-0.9-1-1.7-2-2.6-3.1l-2.5-3.1c-0.1-0.1-0.2-0.2-0.3-0.5c-0.1-0.2-0.3-0.6-0.3-1.1s0.2-0.8,0.4-1
			c0.1-0.2,0.2-0.3,0.3-0.4c0.4-0.5,0.9-1,1.3-1.6c0.9-1,1.8-2,2.8-2.9l-0.2,0.6C92,772.7,92.2,769.1,92.8,765.6z"/>
	</g>
	<path class="st16" d="M116.2,832.7c1.8,1.3,2,4,2,6c0,20.4,4.4,83.6,4,104"/>
	<g>
		<path class="st16" d="M115.8,833.3c0.5,0.2,0.8,0.8,0.9,1.3c0.2,0.5,0.3,1,0.4,1.5c0.2,1,0.4,2.1,0.5,3.1c0.3,2.1,0.4,4.2,0.5,6.3
			s0.1,4.2,0.1,6.3c0,1,0,2.1,0.1,3.1c0,1,0.1,2.1,0.1,3.1c-0.2-1-0.4-2.1-0.6-3.1c-0.1-1-0.3-2.1-0.4-3.1c-0.2-2.1-0.3-4.2-0.4-6.3
			s-0.2-4.2-0.3-6.2c-0.1-1-0.1-2.1-0.3-3.1c-0.1-0.5-0.1-1-0.2-1.6C116.4,834.2,116.3,833.6,115.8,833.3z"/>
	</g>
	<g>
		<path class="st16" d="M116.1,834.8l1.4,4.7l1.2,4.8l1,4.9l0.8,4.9c0.9,6.6,1.2,13.2,1.2,19.8c-0.1,6.6-0.4,13.2-1,19.8
			c-0.3,3.3-0.6,6.6-1,9.9c-0.4,3.3-0.8,6.6-1.2,9.8l0.7-9.9c0.3-3.3,0.5-6.6,0.7-9.9c0.4-6.6,0.8-13.2,0.7-19.8
			c0.1-6.6-0.2-13.2-0.9-19.7C119,847.7,117.8,841.2,116.1,834.8z"/>
	</g>
	<path class="st16" d="M119.6,886.7c6.8,50.6,10.9,101.6,12.2,152.6"/>
	<g>
		<path class="st17" d="M80.3,764.1c-0.2,4.2-0.6,8.4-1.2,12.6c-0.6,4.2-1.3,8.4-2.2,12.5c-0.9,4.1-1.9,8.2-3.1,12.3
			c-0.6,2-1.2,4-1.9,6.1c-0.7,2-1.4,4-2.2,6c0.3-1,0.6-2,0.9-3l0.8-3.1c0.6-2,1.1-4.1,1.6-6.1c1-4.1,2-8.2,2.9-12.3
			s1.7-8.3,2.4-12.4C79,772.4,79.7,768.2,80.3,764.1z"/>
	</g>
	<path class="st16" d="M118,834.5c7.4,20.5,5.1,43.1,6.3,64.8"/>
	<g>
		<path class="st16" d="M121.7,876.2c0.6,5.6,1.1,11.2,1.6,16.8s0.9,11.2,1.3,16.8s0.8,11.2,1.1,16.8l0.5,8.4
			c0.1,2.8,0.3,5.6,0.4,8.4c-0.3-2.8-0.6-5.6-0.8-8.4l-0.7-8.4c-0.5-5.6-0.9-11.2-1.3-16.8s-0.8-11.2-1.1-16.8
			C122.2,887.4,121.9,881.8,121.7,876.2z"/>
	</g>
	<g>
		<path class="st21" d="M9.4,841.3c2.9,0.9,5.5,2.8,7.3,5.3c1.9,2.5,3,5.5,3.6,8.5c0.5,3.1,0.5,6.2,0,9.2s-1.6,5.9-3.2,8.4
			c0.5-3,0.8-5.8,0.9-8.7c0.1-2.8-0.1-5.7-0.6-8.4s-1.3-5.4-2.6-7.8C13.5,845.4,11.7,843.3,9.4,841.3z"/>
	</g>
	<g>
		<path class="st21" d="M9.5,806.7c1-0.4,2.1-0.5,3.2-0.4s2.2,0.4,3.2,0.8c2,0.9,3.8,2.6,4.8,4.8l0.8,1.8l-1.9,0.3
			c-1.6,0.3-3.2,0.5-4.9,0.7c-0.8,0.1-1.7,0.2-2.5,0.3s-1.7,0.1-2.6,0.1c0.7-0.6,1.4-1,2.2-1.4s1.5-0.8,2.3-1.1
			c1.6-0.7,3.2-1.1,4.9-1.5l-1.1,2.1c-0.7-1.5-1.9-2.8-3.3-3.9c-0.7-0.5-1.5-1-2.4-1.5C11.4,807.4,10.5,807,9.5,806.7z"/>
	</g>
	<g>
		<path class="st21" d="M104.2,750.7c-1.3,1.2-2.6,2.3-4,3.3s-2.8,2-4.3,2.9l-4.7,2.9l2.8-4.9c0.6-1,1.2-2.1,1.9-3l1.6,2.3
			c-2.3,0.5-4.7,0.9-7.1,1.2c-1.2,0.1-2.4,0.2-3.6,0.3s-2.4,0.1-3.6,0.1c1.1-0.6,2.2-1,3.4-1.4c1.1-0.4,2.3-0.8,3.4-1.2
			c2.3-0.7,4.6-1.3,6.9-1.8l3.5-0.8l-2,3.1c-0.6,1-1.3,2-2.1,3l-1.8-2c1.5-0.8,3.1-1.5,4.7-2.1C100.8,751.7,102.5,751.1,104.2,750.7
			z"/>
	</g>
	<g>
		<path class="st24" d="M9.4,680.9c3.9,7.6,7.8,15.3,11.7,22.9c3.9,7.6,7.9,15.2,12,22.7s8.3,14.9,12.6,22.3
			c4.3,7.4,8.7,14.6,13.4,21.8l0.5,0.7v1c0.1,4.2-0.2,8.4-0.7,12.5s-1.1,8.2-1.7,12.2c-0.6,4-1.3,8-1.8,11.9s-1,7.8-1.3,11.7
			l-1.4-3.3c1.8,1.4,4.3,2.3,7.2,3s6.2,1.2,9.6,2.3l0.3,0.1l0.3,0.1c5.7,2.9,11.7,5.3,17.8,7.9c6.1,2.5,12.2,5.1,18.2,8.2l2.9,1.5
			l-0.9,3.1c-1.8,6.4-3.7,12.8-5.7,19.1l-6.1,19c-4,12.6-8.1,25.2-11.8,37.9c-1.8,6.3-3.6,12.7-5.3,19.1c-1.7,6.4-3.4,12.8-5.2,19.2
			c-0.9,3.2-1.9,6.4-2.9,9.5c-0.5,1.6-0.9,3.2-1.4,4.8l-1.4,4.8c-1.9,6.3-3.7,12.7-4.4,19.3c-0.1-6.7,1.1-13.3,2.5-19.8l1-4.9
			c0.3-1.6,0.6-3.3,1-4.9c0.8-3.3,1.5-6.5,2.2-9.7l4-19.5c1.4-6.5,2.7-13,4.4-19.5c3.2-12.9,6.7-25.8,10.5-38.5l5.6-19.1
			c1.9-6.3,3.7-12.7,5.5-19l2,4.5c-5.7-2.8-11.7-5.3-17.8-7.8s-12.2-5.1-18.2-8.1l0.5,0.2c-2.6-0.9-5.7-1.4-9-2.2
			c-1.7-0.4-3.4-0.9-5.1-1.6c-1.7-0.7-3.5-1.7-5.1-2.9l-1.6-1.3l0.1-2c0.3-4.2,0.8-8.3,1.5-12.4c0.7-4,1.4-8,2.2-12
			c0.7-4,1.4-7.9,1.9-11.8c0.5-3.9,0.9-7.8,0.9-11.7l0.5,1.8c-4.4-7.4-8.6-14.9-12.6-22.5s-7.8-15.3-11.4-23.1s-7.1-15.6-10.4-23.5
			C15.6,696.8,12.4,688.9,9.4,680.9z"/>
	</g>
</g>
<g class="st26">
	<path class="st27" d="M1488.3,1032.8l-3.8-1.1l-5.7-1.7l-5.7-1.6l-11.4-3.2l-22.9-6.3c-7.6-2-15.2-4.2-23-6.1l-23-5.8
		c-61.5-15-123.6-28-186.1-38s-125.4-18-188.5-23.7c-15.8-1.4-31.6-2.6-47.4-3.9c-7.9-0.6-15.8-1.1-23.7-1.5l-23.7-1.4
		c-3.9-0.2-7.9-0.5-11.9-0.7l-11.8-0.5l-23.7-1l-11.8-0.5c-3.9-0.1-7.9-0.3-11.8-0.4l-23.7-0.5c-63.2-1.4-126.3-1.1-189.4,1.2
		c-63,2.3-125.8,6.3-188.5,11.9c-62.6,5.5-125,12.6-187.1,21c-62.1,8.4-123.9,18.2-185.4,29.1c-31.5,5.6-63,11.5-94.3,17.6l5.2,97.1
		L1488.3,1032.8L1488.3,1032.8z"/>
</g>
<g class="st26">
	<path class="st27" d="M1056.5,1038.5l-1.9-24.7l-2.6-0.8l-5.7-1.8l-5.7-1.6l-22.8-6.5l-22.9-6.4l-5.7-1.6l-5.7-1.5l-11.5-2.9
		l-23-5.8c-7.7-1.8-15.3-3.8-23.1-5.5l-23.2-5.2c-61.8-13.6-124.2-25.1-186.9-33.7s-125.8-15.1-189-19.3c-15.8-1-31.6-1.9-47.5-2.8
		c-8-0.4-15.8-0.7-23.7-1l-23.7-0.9c-3.9-0.1-7.9-0.3-11.9-0.4l-11.8-0.2l-23.7-0.5l-11.8-0.2c-3.9,0-7.9-0.1-11.8-0.1l-23.7,0
		c-63.2,0-126.3,1.9-189.3,5.6c-50.5,3-100.9,7.2-151.2,12.3l14.3,185.6L1056.5,1038.5z"/>
</g>
<g class="st26">
	<path class="st27" d="M951.1,1037l-20.1-8.6l-22.8-9.7l-5.7-2.4l-5.7-2.3l-11.4-4.5l-23-8.9c-7.7-2.8-15.3-5.9-23.1-8.6l-23.1-8.2
		C754.3,962.5,692,944,629.3,929.2c-62.7-14.8-125.8-26.7-189-35.5c-15.8-2.1-31.7-4.1-47.5-6.2c-8-0.9-15.8-1.7-23.8-2.5l-23.8-2.4
		c-3.9-0.3-8-0.8-11.9-1.1l-11.9-0.9l-23.7-1.9l-11.9-0.9c-3.9-0.2-7.9-0.5-11.9-0.7l-23.7-1.2c-63.2-3.2-126.5-4-189.6-2.3
		c-60.3,1.6-120.4,5.6-180.4,11.2l10.5,206.1L951.1,1037z"/>
</g>
<g class="st26">
	<path class="st27" d="M1275.1,971.4l-24.4-5.9l-27.7-6.6l-7-1.6l-7-1.5l-13.9-3l-27.9-6c-9.3-1.9-18.6-4-28-5.8l-28.1-5.4
		C1036,921.4,960.3,909.7,884,901c-76.2-8.6-152.9-15-229.7-18.8c-19.2-0.9-38.5-1.7-57.7-2.5c-9.7-0.3-19.2-0.6-28.9-0.8l-28.9-0.7
		c-4.8-0.1-9.7-0.2-14.4-0.3l-14.4-0.1l-28.8-0.3l-14.4-0.1c-4.8,0-9.6,0-14.4,0l-28.8,0.3c-76.9,0.7-153.7,3.5-230.3,8.2
		C120,890.6,47,897-25.9,904.7l12.9,166.7L1275.1,971.4z"/>
</g>
</svg>
