<?xml version="1.0" encoding="utf-8"?>
<!-- Generator: Adobe Illustrator 24.0.2, SVG Export Plug-In . SVG Version: 6.00 Build 0)  -->
<svg version="1.1" id="Layer_1" xmlns="http://www.w3.org/2000/svg" xmlns:xlink="http://www.w3.org/1999/xlink" x="0px" y="0px"
	 viewBox="0 0 2220 1080" style="enable-background:new 0 0 2220 1080;" xml:space="preserve">
<style type="text/css">
	.st0{display:none;}
	.st1{display:inline;fill:#18215A;stroke:#FFFFFF;stroke-miterlimit:10;}
	.st2{fill:#F4E7D9;}
	.st3{fill:#CCB79C;}
	.st4{fill:#EDD9C5;}
	.st5{fill:#FFFFFF;}
	.st6{fill:none;stroke:#FFFFFF;stroke-width:3;stroke-miterlimit:10;}
	.st7{fill:none;stroke:#EDD9C5;stroke-width:4;stroke-miterlimit:10;}
	.st8{fill:none;stroke:#EDD9C5;stroke-miterlimit:10;}
	.st9{fill:none;stroke:#EDD9C5;stroke-width:5;stroke-miterlimit:10;}
</style>
<g id="фон" class="st0">
	<rect x="-0.5" y="0.5" class="st1" width="2220" height="1079"/>
</g>
<g>
	<path class="st2" d="M446.7,705.5c9.4-3-29-37.5-30.3-41.9c-4.2-13.4-4.2-27-4.2-28.4c0-1.5-7-19.8-7-22c0-2.2-3.2-15.5-5.7-16.3
		c-2.5-0.7-1.3-7.4-4.4-11.9c-3.1-4.4-5-3.7-5-5.2c0-1.5-2.5-6.7-3.1-7.4c-0.6-0.7-6.3-17.8-6.3-17.8s-6.9,21.5-11.9,30.4
		c-5,8.9-6.9,5.9-8.1,9.6c-1.3,3.7-6.9,17-13.1,16.3c-2-0.2-3.7-0.8-5.3-1.1V483.3l3.1-5.2h-11.7v-23.4l-5-49.7l-5.1,49.7v23.4h-3.3
		l2.8,5.2v33.9c-0.5-0.9-2.3-4.2-4.1-9c-1.1-2.9-3.3-17.9-3.3-17.9s-1.9,14.6-3.1,17.9c-2.1,5.7-4.6,9.3-4.6,9.3h2.9v3.6h-2.5
		l2.3,4.6h0.2v17.4c-0.5-1.1-0.9-2.3-1.4-3.5c-1.8-4.7-12.5-111.1-12.5-111.1s-6.9,57.4-7.6,58.8l-5.4-107.7l-7.7,119.4h-11.8v-1.5
		l5-5.6h-5v-80.1l5-5.6h-5v-8.6h6.1c0,0-0.1-0.2-0.4-0.6h0.1l-2.7-28.3l-1.7,20.4c-1.6-3.1-3.3-6.8-5.1-11.2
		c-2.5-6.2-7.7-76.7-7.7-76.7s-4.4,69.8-7.1,76.7c-2,4.8-4.1,8.9-5.9,12.1l-1.8-21.3l-2.7,28.3h0.1c-0.3,0.4-0.4,0.6-0.4,0.6h6.4
		v8.6h-5l5,6.4v57c-0.8-1.6-1.7-3.5-2.6-5.6c-1.9-4.3-5.1-44.1-5.1-44.1s-3.8,39.4-5.9,44.1c-2.7,6.3-5.8,10.8-7.2,12.6l-7.7-41.5
		l-8.8,49.6h-5.7l-4.6-76.1l-4.7,48.8c-1.1-8.5-2.1-18.1-2.1-18.1s-2.2,24.4-3.6,29.8c-2.5,9.5-5.4,15.5-5.4,15.5h2.5v3.6h-2.5
		l2.5,4.3v14.4c-0.6-1.8-1.3-4.1-2-6.7c-1-3.7-2.9-22.3-2.9-22.3s-1.7,18.3-2.7,22.3c-1.9,7.1-4.1,11.6-4.1,11.6h2.5v2.1H169
		l2.1,4.6h0.4l-1.9,55.8l-5.4-45.7l-11.2,102c-3.9-5.2-12.7-50.8-12.7-50.8s-8.7,48.1-13.7,47.4c-5-0.6-20-0.6-23.8,4.4
		c-3.8,5-1.9,13.1-5.6,13.1c-3.8,0-14.4,0-14.4,5c0,5,5.6,23.8,11.3,26.9c5.6,3.1,1.9-5.6,3.8-1.3c1.9,4.4,6.3,8.8,10,8.8
		c-0.6,2.5-0.6,10.6,3.8,12.5c-1.3,4.4-2.5,8.8,0,10.6c-3.8-0.6-10,14.4-15.6,16.9c3.8,3.8,6.3,8.8,3.1,9.4
		c-1.7,0.3-55,94.8-97.8,171v48.3l146-127.6l60.3-74h252.1C477.2,746.2,449.8,710.6,446.7,705.5z M224.4,503.2h-3.6v-20.3l3.6,4.2h0
		V503.2z M224.4,482.5h-3.6v-5h3.6V482.5z M255.6,394.7h-4.4v-8.9c0-1.1,0.9-2,2-2h0.4c1.1,0,2,0.9,2,2V394.7z"/>
	<g>
		<path class="st3" d="M322.5,516.5c0.1,3.5,0.2,7.1,0.2,10.6l0.2,10.6l0.2,10.6l0.1,5.3c0,1.8,0,3.5,0,5.3
			c-0.2-1.8-0.4-3.5-0.5-5.3l-0.4-5.3c-0.2-3.5-0.3-7.1-0.4-10.6c0-3.5-0.1-7.1,0-10.6C322.1,523.6,322.3,520,322.5,516.5z"/>
	</g>
	<g>
		<path class="st4" d="M283.7,383.7c-0.1,10.4-0.4,20.9-0.8,31.3c-0.2,5.2-0.4,10.4-0.7,15.6l-0.8,15.6l-0.9,15.6l-0.9,15.6l-2,31.2
			c-0.6-10.4-0.6-20.9-0.4-31.3c0.1-5.2,0.3-10.4,0.4-15.7l0.7-15.6l0.9-15.6c0.4-5.2,0.7-10.4,1.2-15.6
			C281.4,404.5,282.4,394.1,283.7,383.7z"/>
	</g>
	<g>
		<path class="st4" d="M296.7,431.8c0.3,5.6,0.2,11.3-0.1,16.9c-0.1,2.8-0.3,5.6-0.5,8.4c-0.2,2.8-0.5,5.6-0.8,8.4
			c-0.3,2.8-0.7,5.6-1,8.4c-0.4,2.8-0.8,5.6-1.3,8.3c-1,5.5-2.1,11.1-3.6,16.5c0.3-5.6,0.7-11.2,1.3-16.8c0.2-2.8,0.6-5.6,0.8-8.4
			l0.9-8.4l0.9-8.4c0.3-2.8,0.6-5.6,1-8.4C295,442.9,295.7,437.3,296.7,431.8z"/>
	</g>
	<g>
		<path class="st4" d="M328.3,408.4c0.1,3.9,0,7.8-0.2,11.6c-0.2,3.9-0.5,7.7-0.8,11.6c-0.4,3.9-0.7,7.7-1.2,11.6
			c-0.5,3.8-1,7.7-1.8,11.5c-0.1-3.9,0-7.8,0.2-11.6c0.2-3.9,0.5-7.7,0.8-11.6c0.4-3.9,0.7-7.7,1.2-11.6
			C327,416.1,327.6,412.2,328.3,408.4z"/>
	</g>
	<g>
		<path class="st3" d="M310.7,542.7c0.2,3.4,0.3,6.8,0.4,10.3c0.1,3.4,0.1,6.8,0.1,10.3c0,3.4,0,6.8-0.1,10.3l-0.1,5.1
			c-0.1,1.7-0.1,3.4-0.2,5.1c-0.1-1.7-0.2-3.4-0.2-5.1l-0.1-5.1c-0.1-3.4-0.1-6.8-0.1-10.3c0-3.4,0-6.8,0.1-10.3
			C310.4,549.5,310.5,546.1,310.7,542.7z"/>
	</g>
	<g>
		<path class="st3" d="M241.2,469.2c0.2,5.3,0.3,10.5,0.4,15.8c0.1,5.3,0.1,10.5,0.1,15.8c0,5.3,0,10.5-0.1,15.8l-0.1,7.9
			c-0.1,2.6-0.1,5.3-0.2,7.9c-0.1-2.6-0.2-5.3-0.2-7.9l-0.1-7.9c-0.1-5.3-0.1-10.5-0.1-15.8c0-5.3,0-10.5,0.1-15.8
			C240.9,479.7,241,474.5,241.2,469.2z"/>
	</g>
	<g>
		<path class="st3" d="M198.7,484.7c0.2,5,0.3,10,0.4,15c0.1,5,0.1,10,0.1,15c0,5,0,10-0.1,15l-0.1,7.5c-0.1,2.5-0.1,5-0.2,7.5
			c-0.1-2.5-0.2-5-0.2-7.5l-0.1-7.5c-0.1-5-0.1-10-0.1-15c0-5,0-10,0.1-15C198.4,494.7,198.5,489.7,198.7,484.7z"/>
	</g>
	<g>
		<path class="st3" d="M264.7,498.7c0.2,5.3,0.3,10.7,0.4,16c0.1,5.3,0.1,10.7,0.1,16c0,5.3,0,10.7-0.1,16l-0.1,8
			c-0.1,2.7-0.1,5.3-0.2,8c-0.1-2.7-0.2-5.3-0.2-8l-0.1-8c-0.1-5.3-0.1-10.7-0.1-16c0-5.3,0-10.7,0.1-16
			C264.4,509.4,264.5,504,264.7,498.7z"/>
	</g>
	<g>
		<path class="st3" d="M169.7,574.7c0.2,6.8,0.3,13.7,0.4,20.5l0.1,20.5l-0.1,20.5l-0.1,10.3c-0.1,3.4-0.1,6.8-0.2,10.3
			c-0.1-3.4-0.2-6.8-0.2-10.3l-0.1-10.3l-0.1-20.5l0.1-20.5C169.4,588.4,169.5,581.5,169.7,574.7z"/>
	</g>
	<g>
		<path class="st4" d="M252.6,311.4c0.7,5.4,1.1,10.8,1.3,16.3c0.2,5.4,0.2,10.9-0.1,16.3c-0.3,5.4-0.8,10.9-1.6,16.3
			c-0.9,5.4-2,10.7-3.8,15.9c0.1-5.5,0.4-10.9,0.6-16.2l0.8-16.1c0.3-5.4,0.6-10.8,1-16.2C251.2,322.2,251.6,316.8,252.6,311.4z"/>
	</g>
	<g>
		<path class="st4" d="M238.1,369.9c0.1,4.6,0,9.1-0.2,13.7l-0.3,6.8l-0.2,3.4l-0.1,1.7l0,0.8c0,0.3,0,0.6,0,0.8h-2
			c0-0.4,0.1-0.7,0.1-0.9l0.1-0.9l0.2-1.7l0.4-3.4l0.8-6.8C237.4,379,237.8,374.5,238.1,369.9z"/>
	</g>
	<g>
		<path class="st4" d="M267.5,369.3c0.1,3.6-0.1,7.1-0.3,10.6c-0.3,3.5-0.6,7-1.3,10.5c-0.1-3.5,0-7.1,0.3-10.6
			C266.5,376.3,266.8,372.8,267.5,369.3z"/>
	</g>
	<g>
		<path class="st4" d="M253.1,383.7c-0.5-0.1-1,0.2-1.3,0.5c-0.3,0.4-0.5,0.8-0.6,1.3c-0.1,1-0.1,2-0.1,3c0,2,0.1,4,0.2,6l-1,0
			c0-2,0.1-4.1,0.3-6.1c0.1-1,0.2-2,0.4-3c0.1-0.5,0.3-1,0.7-1.4C252,383.7,252.6,383.5,253.1,383.7z"/>
	</g>
	<g>
		<path class="st4" d="M244.2,402.2c2.9,9.8,4.2,19.9,5.1,29.9c0.9,10.1,1.1,20.1,1,30.2c-0.2,10.1-0.8,20.1-1.9,30.1
			c-1.1,10-2.6,20-5.2,29.8c-1.1-10.1-1.6-20.1-1.8-30.1c-0.2-10-0.2-20-0.1-29.9c0.2-10,0.5-19.9,1-29.9
			C242.8,422.3,243.3,412.3,244.2,402.2z"/>
	</g>
	<g>
		<path class="st4" d="M213.2,437.1c0.6,4.1,0.7,8.1,0.6,12.2c-0.1,4-0.5,8.1-1.1,12.1c-0.6,4-1.4,8-2.6,11.9
			c-1.1,3.9-2.5,7.7-4.4,11.4c0.3-4.1,0.8-8.1,1.4-12c0.5-4,1.1-7.9,1.7-11.8c0.6-3.9,1.2-7.9,1.9-11.8
			C211.4,445,212.2,441,213.2,437.1z"/>
	</g>
	<g>
		<path class="st4" d="M187,441.7c0.9,3.6,1.4,7.3,1.5,11c0.1,3.7-0.1,7.4-0.7,11.1c-0.6,3.7-1.6,7.3-3,10.8
			c-1.4,3.4-3.2,6.7-5.6,9.6c0.9-3.6,1.8-7.1,2.6-10.6c0.8-3.5,1.5-7,2.1-10.5c0.6-3.5,1.1-7,1.5-10.6
			C185.9,449,186.3,445.4,187,441.7z"/>
	</g>
	<g>
		<path class="st4" d="M175.5,479.8c0.7,2.6,1,5.3,1.1,8c0.1,2.7,0,5.4-0.4,8.1c-0.4,2.7-0.9,5.3-1.7,7.9c-0.8,2.6-1.8,5.1-3.1,7.4
			c0.5-2.6,1.1-5.2,1.6-7.8c0.5-2.6,0.9-5.2,1.2-7.8c0.4-2.6,0.6-5.2,0.8-7.8C175.2,485.1,175.3,482.5,175.5,479.8z"/>
	</g>
	<g>
		<path class="st4" d="M233.7,422.7c0.6,4.4,0.8,8.8,0.7,13.3c-0.1,4.4-0.6,8.9-1.4,13.3c-0.8,4.4-1.9,8.7-3.4,12.9
			c-1.5,4.2-3.2,8.3-5.4,12.2c1.4-4.2,2.8-8.4,3.9-12.6c1.1-4.2,2.2-8.5,2.9-12.8c0.8-4.3,1.4-8.6,1.9-13
			C233.3,431.5,233.5,427.1,233.7,422.7z"/>
	</g>
	<g>
		<path class="st4" d="M164.3,531.1c1.3,8.2,1.7,16.5,1.6,24.7c0,8.3-0.6,16.5-1.5,24.7c-0.9,8.2-2.2,16.3-3.9,24.4
			c-1.6,8.1-3.5,16.1-5.9,24c0.4-8.3,1.2-16.4,2.1-24.6c0.9-8.2,1.8-16.3,2.8-24.4c0.9-8.1,1.8-16.2,2.6-24.4L164.3,531.1z"/>
	</g>
	<g>
		<path class="st4" d="M139.6,581.9c0,4-0.3,8-0.7,11.9c-0.2,2-0.5,3.9-0.7,5.9l-0.8,5.9c-0.6,3.9-1.3,7.8-2.2,11.7
			c-0.8,3.9-1.8,7.7-3,11.5c0-4,0.3-8,0.7-11.9c0.4-3.9,0.9-7.9,1.5-11.8l1-5.8c0.4-1.9,0.7-3.9,1.2-5.8
			C137.5,589.5,138.4,585.7,139.6,581.9z"/>
	</g>
	<g>
		<path class="st4" d="M193.9,411.9c0.4,3.4,0.5,6.9,0.6,10.3c0,3.4-0.1,6.9-0.3,10.3c-0.2,3.4-0.6,6.9-1.1,10.3
			c-0.5,3.4-1.1,6.8-1.9,10.2c0-3.5,0.2-6.9,0.4-10.3c0.2-3.4,0.4-6.8,0.6-10.3c0.3-3.4,0.5-6.8,0.8-10.2
			C193.2,418.8,193.4,415.4,193.9,411.9z"/>
	</g>
	<g>
		<path class="st4" d="M315,492.8c0.5,2,0.7,4.1,0.7,6.2c0,2.1-0.2,4.2-0.6,6.3c-0.4,2.1-1,4.1-1.8,6c-0.4,1-0.9,1.9-1.4,2.8
			c-0.3,0.5-0.5,0.9-0.8,1.3c-0.1,0.2-0.3,0.4-0.3,0.6c0,0.1,0,0.2,0.1,0.2c0.1,0,0.3,0,0.2-0.1c0.1,0.1-0.1,0.3-0.3,0.3
			c-0.1,0-0.2,0-0.3-0.1c-0.1-0.1-0.1-0.2-0.1-0.2c0-0.4,0.1-0.6,0.1-0.8c0.1-0.5,0.3-1,0.4-1.5c0.3-1,0.5-2,0.8-3
			c0.5-2,1-3.9,1.4-5.9c0.4-2,0.7-4,1-6L315,492.8z"/>
	</g>
	<g>
		<path class="st4" d="M379.9,557c0.4,3.1,0.1,6.3-0.6,9.4c-0.7,3.1-1.7,6.1-3,9c-1.3,2.9-2.8,5.6-4.4,8.3c-0.8,1.3-1.7,2.6-2.5,3.9
			l-1.4,1.9l-0.7,0.9c-0.1,0.1-0.2,0.3-0.2,0.4c0,0.2,0,0.4,0.2,0.3c0,0.1-0.2,0.1-0.3,0c-0.1-0.1-0.1-0.2-0.2-0.3
			c-0.1-0.2-0.1-0.5,0-0.7l0.4-1.1c0.2-0.7,0.5-1.5,0.8-2.2c0.6-1.5,1.1-2.9,1.8-4.3c1.2-2.8,2.5-5.6,3.7-8.4
			c1.2-2.8,2.4-5.6,3.5-8.4C378.2,563,379.1,560.1,379.9,557z"/>
	</g>
	<g>
		<path class="st3" d="M241.2,397.2c2,8.5,2.9,17.1,3.6,25.8c0.4,4.3,0.5,8.7,0.7,13c0.1,4.3,0.2,8.7,0.2,13c0,4.3-0.1,8.7-0.2,13
			l-0.3,6.5l-0.2,3.2l-0.2,3.2c-0.6,8.6-1.4,17.3-3.1,25.8c0.1-8.7,0-17.3,0-25.9l0-25.9l0-6.5c0-2.2,0-4.3,0-6.5l0-12.9
			C241.6,414.5,241.6,405.9,241.2,397.2z"/>
	</g>
	<g>
		<path class="st3" d="M252.7,304.2c-0.1,6.7,0,13.4,0,20.1c0,3.4-0.1,6.7-0.1,10.1c-0.1,3.4-0.3,6.7-0.6,10.1
			c-0.6,6.7-1.4,13.4-2.5,20c-1.1,6.6-2.6,13.2-4.5,19.6c1.2-6.6,2.1-13.2,3-19.9c0.8-6.6,1.5-13.3,2.1-19.9
			c0.6-6.7,0.9-13.3,1.2-20C251.4,317.6,251.8,310.9,252.7,304.2z"/>
	</g>
	<g>
		<path class="st3" d="M212.7,437.2c0.3,4,0.2,8-0.2,12c-0.3,4-0.9,8-1.6,11.9c-0.7,3.9-1.7,7.9-2.8,11.7c-1.1,3.8-2.4,7.7-4,11.3
			c0.9-3.9,1.7-7.8,2.6-11.7l1.2-5.8c0.4-1.9,0.7-3.9,1.1-5.9c0.7-3.9,1.3-7.8,1.9-11.8L212.7,437.2z"/>
	</g>
	<g>
		<path class="st3" d="M186.8,442.7c0.5,3,0.6,6.1,0.5,9.2c-0.1,3.1-0.5,6.1-1,9.1c-0.5,3-1.2,6-2.1,8.9c-0.9,2.9-1.9,5.8-3.2,8.6
			c0.5-3,1.1-6,1.7-8.9c0.6-3,1.2-5.9,1.7-8.9c0.5-3,1-5.9,1.4-8.9C186.2,448.7,186.5,445.7,186.8,442.7z"/>
	</g>
	<g>
		<path class="st3" d="M163.8,531.4c-0.1,8.2-0.4,16.4-1,24.6c-0.6,8.2-1.4,16.4-2.3,24.5c-0.9,8.2-2,16.3-3.2,24.4
			c-1.2,8.1-2.6,16.2-4.1,24.3c0.8-8.2,1.7-16.3,2.6-24.5l2.7-24.4l2.7-24.4L163.8,531.4z"/>
	</g>
	<g>
		<path class="st5" d="M254.8,333.8c0.3,4.7,0.5,9.3,0.9,13.9c0.4,4.6,0.8,9.2,1.4,13.8c0.6,4.6,1.3,9.2,2.1,13.7
			c0.8,4.6,1.7,9.1,2.6,13.7c-1.7-4.3-3-8.8-4.1-13.4c-1.1-4.5-1.9-9.1-2.5-13.8c-0.6-4.6-0.9-9.3-1-14
			C254.1,343.1,254.3,338.4,254.8,333.8z"/>
	</g>
	<g>
		<path class="st5" d="M297.5,437.6l1.6,20.6c0.6,6.9,1.1,13.7,1.8,20.6c0.6,6.9,1.4,13.7,2.2,20.5l2.4,20.6
			c-1.6-6.7-2.9-13.5-3.9-20.3c-1.1-6.8-1.9-13.7-2.6-20.6c-0.6-6.9-1.1-13.8-1.4-20.7C297.3,451.4,297.3,444.5,297.5,437.6z"/>
	</g>
	<g>
		<path class="st5" d="M328.9,417.3c0.5,4.5,0.9,9,1.2,13.4l1,13.4l0.9,13.4c0.3,4.5,0.6,9,0.7,13.5c-1-4.4-1.7-8.9-2.3-13.3
			c-0.6-4.5-1-9-1.4-13.4c-0.3-4.5-0.5-9-0.6-13.5C328.5,426.4,328.6,421.8,328.9,417.3z"/>
	</g>
	<path class="st6" d="M340.6,484c-0.4,38.8-0.8,77.5-1.3,116.3"/>
	<path class="st6" d="M261.7,412.4c-0.2,31.9-0.4,63.7-0.7,95.6"/>
	<g>
		<path class="st5" d="M215.2,447.5c0.6,3,1.1,6,1.6,9c0.5,3,1,5.9,1.5,8.9c0.5,3,1.1,5.9,1.6,8.9c0.6,3,1.1,5.9,1.6,8.9
			c-1.3-2.8-2.3-5.7-3.1-8.6c-0.9-2.9-1.5-5.9-2.1-8.9c-0.5-3-0.9-6-1.1-9.1C215,453.6,214.9,450.6,215.2,447.5z"/>
	</g>
	<g>
		<path class="st5" d="M234.2,434.2c0.1,1.5,0.2,2.9,0.4,4.4c0.1,1.5,0.3,2.9,0.5,4.4c0.4,2.9,0.8,5.8,1.3,8.7
			c0.4,2.9,1,5.8,1.5,8.7c0.2,1.4,0.5,2.9,0.8,4.3c0.3,1.5,0.6,2.9,0.9,4.3c-1-2.8-1.7-5.6-2.4-8.5c-0.7-2.9-1.2-5.8-1.7-8.7
			c-0.4-2.9-0.8-5.9-1-8.8C234.1,440.1,234,437.2,234.2,434.2z"/>
	</g>
	<g>
		<path class="st5" d="M194.7,428.1c0.6,4.5,1,9,1.4,13.5c0.4,4.5,0.6,9,0.9,13.5c0.2,4.5,0.5,9,0.7,13.5c0.2,4.5,0.4,9,0.5,13.6
			c-0.9-4.4-1.5-8.9-2.1-13.4c-0.5-4.5-0.9-9-1.1-13.5c-0.2-4.5-0.4-9-0.5-13.6C194.5,437.2,194.5,432.6,194.7,428.1z"/>
	</g>
	<g>
		<path class="st5" d="M141.1,581.6c1,4,1.8,7.9,2.7,11.9c0.2,1,0.4,2,0.6,2.9l0.7,2.9c0.2,1,0.4,2,0.6,2.9l0.7,2.9l2.7,11.7
			c0.9,3.9,1.9,7.8,2.7,11.8c-2-3.6-3.6-7.3-5-11.2c-1.4-3.8-2.5-7.8-3.4-11.7c-0.4-2-0.8-4-1.2-6c-0.3-2-0.6-4-0.8-6.1
			C141,589.8,140.9,585.7,141.1,581.6z"/>
	</g>
	<g>
		<path class="st5" d="M164.8,531.5c0.6,4.1,1.1,8.1,1.5,12.2c0.5,4.1,0.9,8.1,1.3,12.2c0.4,4.1,0.8,8.1,1.1,12.2
			c0.4,4.1,0.7,8.2,0.9,12.3c-1-4-1.8-8-2.4-12.1c-0.7-4.1-1.2-8.1-1.6-12.2c-0.4-4.1-0.7-8.2-0.8-12.3
			C164.6,539.8,164.6,535.6,164.8,531.5z"/>
	</g>
	<g>
		<path class="st5" d="M177.4,482.7l1,6.4c0.4,2.1,0.7,4.2,1.1,6.3c0.4,2.1,0.8,4.2,1.2,6.3l1.2,6.3c-0.4-1-0.7-2-1.1-3
			c-0.3-1-0.6-2.1-0.9-3.1c-0.6-2.1-1-4.2-1.4-6.3c-0.4-2.1-0.7-4.3-0.9-6.4C177.5,487,177.4,484.9,177.4,482.7z"/>
	</g>
	<g>
		<path class="st5" d="M187.2,445c0.7,3.1,1.3,6.2,2,9.3c0.6,3.1,1.3,6.2,1.8,9.3c-1.3-2.9-2.1-6-2.8-9.1
			C187.6,451.4,187.2,448.2,187.2,445z"/>
	</g>
	<g>
		<path class="st5" d="M284.7,394.6c0.5,15.5,1.4,30.9,2.5,46.3c0.5,7.7,1,15.4,1.4,23.1c0.4,7.7,0.7,15.5,0.6,23.2
			c-0.8-7.7-1.5-15.4-2.2-23.1c-0.7-7.7-1.3-15.4-1.8-23.1c-0.5-7.7-0.9-15.5-1-23.2C284,410.1,284.1,402.3,284.7,394.6z"/>
	</g>
	<g>
		<path class="st4" d="M173.6,531.3l0.7,51l0.6,51l-1.7-0.1c0.8-12.7,1.4-25.4,1.8-38.1c0.4-12.7,0.6-25.4,0.5-38.1l2.5,0l-1.2,66.3
			l-3.1-0.1l1.3-29.5l1.4-29.5l3.4,0l4,65.3l-3.6-0.1c2.8-22.7,3-45.8,0.5-68.6l3.8-0.1c-0.5,13.3-0.7,26.6-0.5,39.9
			c0.2,13.3,0.6,26.6,1.5,39.9l-2.6-1.7c0.2-0.1,0.3-0.2,0.6-0.6c0.2-0.4,0.4-1,0.5-1.6c0.1-0.6,0.2-1.4,0.4-2.2l0.4-2.2l0.6-4.5
			l0.5-4.5c0.7-6,1.1-12.1,1.4-18.1c0.6-12.1,0.6-24.3,0.6-36.5l3.7,0.2c-2.3,19.5-2.8,39.2-1.4,58.8L187,627
			c2.9-8.5,4.2-17.5,4.6-26.5c0.4-9.1,0-18.2-0.3-27.3l3.3,0c-1.5,21-1,42.2,1.5,63.2l-0.9-1.1c0.1,0-0.1,0.1,0.1-0.1
			c0.2-0.1,0.4-0.4,0.6-0.8c0.2-0.4,0.3-0.8,0.4-1.2l0.3-1.5c0.4-2.1,0.7-4.1,1-6.2c0.6-4.1,1.1-8.3,1.4-12.5
			c0.7-8.3,0.9-16.7,0.7-25.1l2.3,0c-0.9,14.3-1.1,28.6-0.6,42.9l-1.8-0.1c2.1-15.9,2.8-32.1,2.1-48.1l1.1,0c0,10.7,0.2,21.3,0.6,32
			c0.4,10.7,0.9,21.3,1.7,32c-1-10.6-1.7-21.3-2.3-31.9c-0.5-10.7-0.9-21.3-1-32l1.1,0c0.9,16.1,0.5,32.3-1.4,48.4l-1.8-0.1
			c-0.8-14.4-0.7-28.8,0.1-43.1l2.3,0c0.3,8.5,0.2,16.9-0.4,25.4c-0.3,4.2-0.7,8.4-1.3,12.6c-0.3,2.1-0.6,4.2-0.9,6.3l-0.3,1.6
			c-0.1,0.6-0.3,1.2-0.6,1.8c-0.3,0.6-0.6,1.2-1.3,1.7c-0.3,0.3-0.8,0.5-1.3,0.6c-0.5,0.1-1.1,0-1.5-0.1l-0.7-0.3l-0.1-0.8
			c-2.7-21.1-3.3-42.5-2-63.7l3.3,0c0.5,9.2,0.9,18.4,0.5,27.6c-0.4,9.2-1.7,18.6-4.7,27.5l-2.8,8.3l-0.6-8.7
			c-1.4-19.8-1-39.8,1.3-59.5l3.7,0.2c0.1,12.2,0.1,24.4-0.4,36.7c-0.3,6.1-0.7,12.3-1.4,18.4l-0.5,4.6l-0.6,4.6l-0.4,2.3
			c-0.1,0.8-0.2,1.5-0.4,2.3c-0.2,0.8-0.4,1.7-0.9,2.7c-0.5,0.9-1.4,2-2.7,2.4l-2.5,0.9l-0.2-2.6c-0.9-13.4-1.4-26.7-1.5-40.1
			c-0.1-13.4,0.1-26.8,0.6-40.1l3.8-0.1c2.4,23.1,2.2,46.4-0.7,69.4l-3.6-0.1l-3.8-65.4l3.4,0l-1.5,29.5l-1.6,29.5l-3.1-0.1
			l1.8-66.3l2.5,0c-0.1,12.7-0.3,25.5-0.9,38.2c-0.5,12.7-1.3,25.4-2.3,38.1l-1.7-0.1l0.1-51L173.6,531.3z"/>
	</g>
	<path class="st7" d="M240.8,567.1c0.5-10.1,1.1-20.2,1.6-30.3c-2.1,12.6-0.5,25.9-0.2,38.7c2.5-14,3.9-28.2,4.1-42.4
		c-2,19.8-4,39.6-3.4,59.5c4-17.3,5.6-35.2,5-53c-1.5,18.3-2.5,36.6-3.1,54.9c3.5-19.7,3.6-39.9,3.7-59.9
		c-0.3,20.9-0.6,41.8-0.9,62.7c1.3,0.2,2-1.5,2.2-2.9c3.1-18.7,3.3-37.7,3.5-56.6c-0.7,19.3-1.4,38.6-2,57.9
		c3.4-17.5,4.7-35.4,3.8-53.2c-1,15.4-1.7,30.8-2.2,46.3c-0.1,4.8-0.3,9.7,1.2,14.2c3.8-20.5,4.8-41.5,3.1-62.3
		c-1.6,21.3-1.5,42.8,0,64.1c4.1-18.7,3.4-38,2.7-57.1c0,18.6,0,37.2,0,55.9c2.5-18.4,1.8-37.1,1.1-55.7c0.8,17.9,1.3,35.8,1.6,53.7
		c1.5-17.9,1.4-36-0.3-53.9c1.6,19.6,2.6,39.2,2.9,58.9c1-14.2,0.5-28.5-1.5-42.6c-1.3,12.6-1.2,25.3,0.3,37.8"/>
	<path class="st7" d="M317.3,603c-0.3-21.5-0.7-42.9-1-64.4c2.1,16.5,2.7,33.2,1.7,49.8c-2-21.3-3.3-42.7-3.9-64.1
		c2.5,20.7,4.9,41.6,2.2,62.2c-1.9-20.3-3-40.7-3.1-61.1c2.9,20,3.6,40.4,2.1,60.6c-2.2-18.8-2.9-37.8-2.1-56.7
		c1.7,17,2,34.1,0.7,51.1c-0.3,4.4-0.8,9-3,12.9c-1-23.6-1.5-47.2-1.5-70.8c1.4,21,1.7,41.9,0.6,62.9c0.4-4.8,0.9-9.7,1.3-14.5"/>
	<path class="st7" d="M196.7,589.8c-0.6,14.5-0.8,29-0.5,43.5c0.5-15.7,0.1-31.4-1.2-47c1,18.8,2,37.5,3,56.3
		c0.8-17.3,1.6-34.6,2.4-51.9c-0.2,23.4-0.5,46.8-0.7,70.2"/>
	<path class="st7" d="M247.9,522c0.4-3.1,0.5-6.2,0.4-9.3c-0.7,6.8-1,13.7-0.9,20.6c-0.2-6-0.6-12-1.3-18c-0.6,8.8-1,17.7-1.2,26.6
		c0-7.5-0.2-15-0.7-22.5c-0.6,7.8-0.9,15.7-0.9,23.6c-0.2-5.6-0.5-11.2-0.9-16.8c-0.8,6.7-1.4,13.5-1.6,20.3"/>
	<path class="st7" d="M199,500.4c1.7,25.4,4.6,51.1,4.8,76.5c0.6-8.1-1.6-17.3-1.7-25.6c-0.1-11.6-0.4-23.3-1-34.9"/>
	<path class="st7" d="M206.6,520.6c1,23.9,2.4,47.8,4.2,71.7c3.2-11.3-0.4-17.9-1.7-28.6C207.3,549.7,207.2,534.8,206.6,520.6z"/>
	<path class="st7" d="M211.6,544c-0.6-4.7-1.1-9.3-1.7-14c-0.8,20.8,0.1,41.7,2.6,62.4c2.4-14.7,2.6-29.8,0.6-44.5
		c-0.4,16.6,0.6,33.3,2.9,49.8c1.9-12.3,2.2-24.9,0.9-37.3c-0.6,9.8-0.6,19.5,0.1,29.3c1.4-7.9,1.9-15.9,1.3-23.9
		c-0.1,17.8,0.4,35.7,1.4,53.5c1.8-14.5,2.2-29.2,1.1-43.8c-0.4,17.1,0.2,34.2,1.6,51.3c1-14.5,1.4-29.1,1.3-43.6
		c-0.6,14.7,0.1,29.5,2,44.1c2.6-14.1,3.5-28.6,2.6-42.9c-1,13.6-0.9,27.3,0.1,40.9c1.9-11.7,2.5-23.6,1.7-35.5
		c-0.6,12-0.2,24.1,1.3,36.1c1-11,2.1-22,3.1-33c-2.4,22.7-2.1,45.7,1,68.3"/>
	<g>
		<path class="st4" d="M267.2,500.2l0.6,26l0.5,26l0.9,52l0.6,52l0.3,26l0.2,26l-10.9,0.2c-0.6-10.9-1-21.9-0.9-32.9
			c0-11,0.4-22,1.1-32.9c1.4-21.9,4.1-43.8,8.1-65.4l15.1,1.5l0.8,83.4l-17.1-1c1.2-11.3,2.3-22.6,3.1-34c0.8-11.3,1.4-22.7,1.9-34
			l18.3,1c-0.7,11.9-1,23.7-0.9,35.6c0.1,11.9,0.5,23.7,1.3,35.6l-19.1-0.6l6.5-55.1L297,612c-1.4,10.1-1,20.5,1.2,30.5l-19.4,0.1
			c3-14.4,4.6-29.1,5-43.8l19.9,0.9c-1.2,20.8-1.1,41.6,0.7,62.4l-19.8-0.4c1.5-11.1,2.6-22.3,3.4-33.6c0.8-11.2,1.3-22.5,1.4-33.7
			l19.5,0.7c-0.9,12.9-1.4,25.8-1.5,38.7c-0.1,12.9,0,25.8,0.6,38.7l-18.6-1.2c2-10.8,3.7-21.7,5-32.7c1.3-11,2.3-22,2.9-33L315,606
			c-0.3,13.2-0.4,26.5-0.3,39.8c0.1,13.3,0.3,26.5,0.8,39.8l-15.9-1c2-11.1,3.7-22.3,5-33.6c1.3-11.2,2.3-22.5,2.8-33.9l14.2,0.9
			c-1,9.7-1.7,19.4-2.1,29.2c-0.4,9.7-0.4,19.5-0.1,29.3l-12.1-1c4.3-18.2,6.9-36.9,7.6-55.7l10.1,0.7c-1.4,9.1-2.1,18.3-2.2,27.6
			c-0.1,9.2,0.5,18.5,1.8,27.7l-7.4-0.1l5.1-23.9l5.2-23.9l5,0.6c-0.4,6.6-0.6,13.2-0.6,19.8c0,6.6,0.3,13.2,0.7,19.8
			c0.9,13.2,2.7,26.4,5.3,39.5c-3.6-12.8-6.2-25.9-8-39.2c-0.9-6.6-1.5-13.3-1.9-20c-0.4-6.7-0.6-13.4-0.5-20.1l5,0.6l-3.9,24.2
			l-4,24.1l-3.5,21.1l-3.9-21.1c-1.8-9.5-2.8-19.1-3.2-28.8c-0.4-9.7-0.1-19.4,1-29l10.1,0.7c0,19.5-1.9,39-5.8,58.1l-9.1,44.7
			l-3.1-45.7c-0.7-10-1-20.1-1-30.2c0-10.1,0.4-20.1,1.2-30.2l14.2,0.9c-0.2,11.6-0.9,23.3-1.9,34.9c-1,11.6-2.5,23.2-4.3,34.7
			l-11.7,73.9l-4.3-74.9c-0.8-13.4-1.4-26.8-1.7-40.2c-0.4-13.4-0.5-26.8-0.5-40.2l17.7,0.5c-0.4,11.4-1.2,22.8-2.4,34.2
			c-1.2,11.4-2.8,22.7-4.8,34l-14.1,80.6l-4.5-81.8c-0.7-13.2-1.1-26.5-1.1-39.8c0-13.3,0.5-26.5,1.3-39.8l19.5,0.7
			c0,11.7-0.4,23.3-1.2,34.9c-0.8,11.6-1.9,23.2-3.4,34.8l-11.8,91.2l-8-91.6c-1.9-21.7-2.2-43.6-0.8-65.3l19.9,0.9
			c-0.4,15.9-2.2,31.8-5.5,47.3l-9.6,46.2l-9.8-46.2c-2.6-12.3-3-24.9-1.3-37.3l19.5,2.5l-6.9,55l-19.1-0.6
			c-0.7-12.2-1-24.5-0.9-36.8c0.1-12.3,0.6-24.5,1.4-36.7l18.3,1c-0.6,11.6-1.4,23.1-2.5,34.7c-1,11.5-2.3,23.1-3.8,34.6l-17.1-1
			l1.2-83.4l15.1,1.5c-4.5,20.9-7.7,42.2-9.8,63.5c-1,10.7-1.7,21.4-2.1,32.1c-0.4,10.7-0.5,21.5-0.3,32.2l-10.9,0.2l0.8-26l0.9-26
			l1.8-52l2-52l1.1-26L267.2,500.2z"/>
	</g>
	<g>
		<path class="st4" d="M327.8,538.2l0.3,26l0.3,26l0.3,52l0.1,52l0,26l-0.1,26l-10.9,0.3c-1.6-17.2-1.7-34.6-0.2-51.9
			c0.8-8.6,1.8-17.3,3.3-25.8c1.5-8.5,3.4-17,5.6-25.4c1.2-4.2,2.3-8.4,3.6-12.5l1-3.1l1-3.1l1-3.1l0.5-1.5l0.1-0.2
			c0-0.1,0.1-0.3,0.2-0.5c0-0.1,0.2-0.4,0.3-0.6c0,0,0.6-1,0.9-1.3c-2.2-3,11.7-2.9,12.1,0.9c1.3,2.5,0.9,2.4,1.1,2.9
			c0.1,0.7,0.1,0.8,0.1,1.1l0,0.4l0,0.5l-0.1,1c0,0.5-0.1,1,0,0.9l0.1,1.6l0.1,3.2l0.2,6.3l0.5,12.7l1.9,50.8l-16.8-1.7
			c2.5-11.1,4.5-22.3,6.2-33.6c1.7-11.3,2.9-22.6,3.8-33.9l18.1,1.9c-1.3,11.6-2,23.4-1.9,35.1c0.1,11.7,0.9,23.4,2.3,35l-18.8-1
			c1.2-5.1,2.2-10.4,3.2-15.7l2.9-16.1l3-16.3c1-5.5,2.1-10.9,3.4-16.5l19,4.8c-0.1,0.2-0.2,1-0.3,1.8c-0.1,0.8-0.2,1.7-0.3,2.6
			c-0.2,1.8-0.3,3.7-0.5,5.6c-0.3,3.8-0.4,7.7-0.5,11.6c-0.3,7.8-0.3,15.6-0.3,23.5c0,7.8,0.2,15.7,0.5,23.4
			c0.2,3.9,0.4,7.7,0.8,11.4c0.2,1.9,0.4,3.7,0.6,5.4c0.1,0.8,0.3,1.7,0.4,2.3c0.1,0.6,0.3,1.3,0.3,1.2l-18.4,0.1l0.3-0.9l0.3-1.1
			c0.1-0.4,0.2-0.8,0.3-1.2c0.1-0.4,0.2-0.8,0.3-1.3c0.4-1.8,0.8-3.6,1.1-5.5c0.7-3.8,1.3-7.7,1.8-11.7c1.1-7.9,2-15.9,2.8-24
			c0.8-8,1.5-16.1,2.2-24.2c0.6-8.1,1.2-16.2,1.6-24.1l19.9,1.7c-0.8,6.9-1.2,14.1-1.5,21.3c-0.3,7.2-0.4,14.4-0.5,21.7
			c0,7.2,0.1,14.5,0.4,21.6c0.3,7.1,0.8,14.3,1.9,20.8l-19.5-0.8c1.7-6.9,3-14.5,4.1-22c1.1-7.5,2-15.2,2.8-22.8
			c0.8-7.6,1.4-15.3,2-23c0.5-7.6,1-15.3,1.1-22.8l19.5,1.3c-1.6,12.7-2.6,25.4-2.8,38.1c-0.2,12.8,0.2,25.5,1.3,38.2l-18.2-2.2
			c7.5-20.9,12.4-42.6,14.6-64.6l17.8,1c-0.4,15.1-0.5,30.2-0.3,45.3c0.1,7.6,0.3,15.1,0.6,22.6c0.3,7.5,0.7,15,1.2,22.5l-15.7-1.8
			c3.5-10.1,4.4-21.4,4.3-33.1c0-11.7-0.9-23.8-0.8-36.3l0.5-40.1l13.4,37.6c2.4,6.8,4.7,13.6,6.8,20.5c2.2,6.8,4.3,13.7,6.2,20.6
			c2,6.9,3.8,13.9,5.5,20.9c1.6,7.1,3.2,14.2,3.9,21.9l-11.9-1.8c0.9-2,1.7-4,2.2-6c0.5-1.9,0.8-3.8,0.9-5.7c0.1-3.7-1-8.2-2.2-12.9
			c-1.2-4.7-2.5-9.6-3.5-14.4c-1-4.9-1.9-9.8-2.7-14.7l-3.3-21.8l12.5,18c6,8.6,11.1,18,15.2,27.5c4.2,9.6,7.4,19.5,10.3,29.3
			l-7.2-0.2c1.2-2.9,1-6.3-0.3-9.8c-1.2-3.5-3.3-7.1-5.4-10.7c-2.1-3.7-4.3-7.4-5.9-11.8c-0.8-2.2-1.3-4.5-1.4-7
			c-0.1-2.4,0.3-5,1.2-7.3l1.8-4.5l2.6,3.8c2.7,3.9,5.3,7.8,7.8,11.9c2.4,4.1,4.6,8.4,6.3,12.8c1.7,4.4,3.2,8.8,4.9,13.2
			c1.6,4.4,3.3,8.7,5,13.1c-2.2-4.1-4.3-8.3-6.3-12.5c-2-4.2-4-8.5-6.1-12.6c-2.1-4.1-4.5-8-7.1-11.8c-2.7-3.7-5.6-7.4-8.5-10.9
			l4.4-0.7c-1.1,3.3-0.6,6.9,0.9,10.5c1.5,3.5,3.7,7,6,10.5c2.3,3.6,4.7,7.2,6.5,11.6c0.9,2.2,1.6,4.6,1.8,7.1
			c0.2,2.6-0.1,5.3-0.9,7.8l-3.6,10.4l-3.6-10.6c-3.2-9.6-6.8-18.9-11.1-27.9c-4.3-8.9-9.5-17.4-15.4-25.3l9.2-3.9
			c0.9,4.7,1.9,9.4,3.1,14c1.2,4.6,2.5,9.2,3.9,13.9c0.7,2.4,1.4,4.8,2,7.4c0.6,2.6,1.1,5.4,1.2,8.4c0.1,3-0.3,6-1,8.8
			c-0.7,2.8-1.6,5.4-2.6,7.8l-9,22.1l-2.9-23.9c-0.8-6.4-2.4-13.3-4.1-20c-1.8-6.7-3.7-13.5-5.8-20.2c-2.1-6.7-4.3-13.4-6.5-20.1
			c-2.3-6.7-4.6-13.3-7.1-19.8l13.9-2.5c0.2,11.7,1.4,23.6,1.8,36.1c0.2,6.2,0.1,12.6-0.5,19c-0.6,6.5-1.8,13-3.8,19.4L401,775.2
			l-3.8-39.3c-0.8-7.7-1.3-15.4-1.7-23.1c-0.5-7.7-0.8-15.4-1-23c-0.5-15.3-0.7-30.7-0.5-46.1l17.8,1c-0.9,11.8-2.6,23.5-5.1,35.1
			c-2.5,11.6-5.6,23-9.5,34.2l-13.9,40.5l-4.4-42.7c-1.4-13.4-2-26.8-1.9-40.3c0.1-13.5,1-26.9,2.6-40.3l19.5,1.3
			c-0.1,8.1-0.5,16-1,23.9c-0.5,7.9-1.2,15.8-2,23.6c-0.8,7.9-1.7,15.7-2.9,23.6c-1.2,7.9-2.4,15.8-4.4,24l-11.7,48.2l-7.7-49
			c-1.3-8-1.8-15.6-2.2-23.2c-0.4-7.6-0.5-15.1-0.5-22.6c0-7.5,0.2-15,0.5-22.5c0.3-7.5,0.8-15,1.7-22.8l19.9,1.7
			c-0.4,8.4-1,16.5-1.7,24.8c-0.7,8.2-1.4,16.4-2.2,24.6c-0.8,8.2-1.8,16.4-2.9,24.7c-0.6,4.1-1.2,8.3-2,12.5
			c-0.4,2.1-0.8,4.3-1.4,6.5c-0.1,0.5-0.3,1.1-0.4,1.7c-0.2,0.6-0.3,1.1-0.5,1.7c-0.2,0.6-0.3,1.2-0.6,1.8l-0.7,2l-8.8,24.4L358,738
			c-0.8-2-1-3.3-1.3-4.6c-0.3-1.3-0.5-2.4-0.6-3.5c-0.3-2.2-0.6-4.4-0.8-6.5c-0.4-4.2-0.6-8.3-0.8-12.4c-0.4-8.1-0.5-16.2-0.5-24.3
			c0-8.1,0.1-16.1,0.4-24.2c0.1-4.1,0.3-8.1,0.6-12.2c0.1-2.1,0.3-4.1,0.5-6.3c0.1-1.1,0.2-2.2,0.4-3.3c0.2-1.2,0.4-2.4,0.8-4.1
			l19,4.8c-1.2,5.1-2.3,10.4-3.3,15.7l-3,16.1l-3.1,16.3c-1.1,5.4-2.2,10.9-3.5,16.5l-12.6,53.3l-6.2-54.4
			c-2.8-24.8-2.6-49.9,0.5-74.6l18.1,1.9c-1.1,11.8-2.6,23.5-4.6,35.1c-1.9,11.6-4.3,23.2-7.1,34.7l-15.8,65.7l-0.9-67.4l-0.7-51
			l-0.2-12.7l-0.1-6.4l0-3.2l0-1.6c0-1.2,0.1-1.8,0.1-2.3l0.1-0.6c0,0,0,0,0,0.1l0,0.2c0,0.2,0,0.3,0.1,0.9c0.2,0.5-0.3,0.4,1.1,2.8
			c0.4,3.8,14.3,3.9,12,0.9c0.3-0.3,0.9-1.2,0.9-1.2c0.1-0.1,0.2-0.4,0.2-0.5l0.1-0.3l0-0.1c0,0,0,0,0,0l-0.5,1.5l-1.1,2.9l-1.1,2.9
			l-1,2.9c-1.4,3.9-2.6,7.9-3.8,11.8c-4.6,15.9-8.1,32.2-10.1,48.6c-1,8.2-1.7,16.5-1.9,24.8c-0.3,8.3-0.2,16.6,0.3,24.9l-10.9,0.3
			l1.1-26l1.2-26l2.3-52l2.6-52l1.4-26L327.8,538.2z"/>
	</g>
	<path class="st8" d="M267.1,610.2c-1.2,16.9-2.7,33.8-4.7,50.6c-0.4-2.5-0.4-5-0.1-7.5"/>
	<path class="st9" d="M262.7,622.6c-0.7-5.4-1.5-10.8-2.2-16.2c-0.1,16.4-0.2,32.8-0.3,49.2c-0.3-17.3-0.6-34.9-6.2-51.3
		c0.2,17.5,0.4,35.1,0.7,52.6c-0.1-17.5-1.6-34.9-4.5-52.1c-0.4,19.1-0.3,38.2,0.2,57.3c0.7-19.7,1.1-39.7-4.4-58.6
		c-3.2,19.3-4,38.9-2.2,58.4c4.7-19.4,3.3-39.8-0.3-59.4c-1.5,0.5-1.8,2.3-1.9,3.9c-1.5,24.2-1.6,48.4-0.3,72.6
		c3.9-18.4,1.8-37.5-0.8-56.1c-0.9,19.8-1,39.7-0.5,59.6c1.4-14.6,0.8-29.6-3-43.8c-2.4,16.5-3,33.2-1.8,49.8
		c2.3-12.1,1.7-24.7-1.6-36.6c-2.8,11.2-3.8,22.9-3,34.4c1.2-3.8,1.1-8-0.4-11.7c-0.3,1-0.5,2-0.8,3"/>
	<g>
		<path class="st5" d="M381.9,557.6c0.9,2.2,1.6,4.3,2.4,6.5l2.1,6.4l2.1,6.4c0.7,2.2,1.4,4.3,1.9,6.6c-1.7-1.7-3-3.6-4.1-5.7
			c-1.1-2-2.1-4.2-2.8-6.4c-0.7-2.2-1.3-4.5-1.6-6.8C381.7,562.2,381.6,559.9,381.9,557.6z"/>
	</g>
</g>
</svg>
