<?xml version="1.0" encoding="utf-8"?>
<!-- Generator: Adobe Illustrator 24.0.2, SVG Export Plug-In . SVG Version: 6.00 Build 0)  -->
<svg version="1.1" id="фон" xmlns="http://www.w3.org/2000/svg" xmlns:xlink="http://www.w3.org/1999/xlink" x="0px" y="0px"
	 viewBox="0 0 2220 992.7" style="enable-background:new 0 0 2220 992.7;" xml:space="preserve">
<style type="text/css">
	.st0{fill:url(#SVGID_1_);}
	.st1{opacity:0.3;}
	.st2{fill:#FFFCD1;}
	.st3{opacity:0.2;}
	.st4{fill:#CB9DBA;}
	.st5{opacity:0.1;}
	.st6{opacity:0.5;}
	.st7{fill:#FFFFFF;}
	.st8{fill:url(#SVGID_2_);}
</style>
<g>
	
		<linearGradient id="SVGID_1_" gradientUnits="userSpaceOnUse" x1="1113.3499" y1="-1666.5133" x2="1113.3499" y2="-583.5134" gradientTransform="matrix(1 0 0 1 0 1576.9001)">
		<stop  offset="0" style="stop-color:#FFDDC9"/>
		<stop  offset="0.188" style="stop-color:#FFEEDB"/>
		<stop  offset="0.4227" style="stop-color:#FFFFEE"/>
		<stop  offset="0.605" style="stop-color:#F3F4E7"/>
		<stop  offset="1" style="stop-color:#9EA9BA"/>
	</linearGradient>
	<rect x="4.4" y="-85" class="st0" width="2217.9" height="1076.1"/>
	<g class="st1">
		<path class="st2" d="M2228.6,991.1l0.1-122c-43.3-15.8-87.3-30-132-42.4c-49.4-13.8-99.4-25.5-150-35.4
			c-25.3-5-50.6-9.5-76.1-13.4s-51.1-7.5-76.6-10.5c-102.4-12.2-205.6-17.2-308.3-16.3c-102.7,1-205,7.7-306.2,19.2
			S978,797.9,879,817.7c-24.8,5-49.5,10.2-74.1,15.5c-24.6,5.4-49.1,11.1-73.6,16.9s-48.9,11.9-73.2,18.1l-36.4,9.5
			c-12,3.2-24.2,6.3-36.2,9.7c-48.3,13.2-96.2,27.2-143.9,41.8c-6.1,1.9-11.6,3.5-17.2,5.1l-16.9,5l-33.8,9.9
			c-11.3,3.4-22.7,6.5-34,9.7c-11.3,3.4-22.7,6.5-34,9.6c-27.3,7.6-54.8,15.2-82.3,22.6h1097.2c58.4-7.9,117-14.3,175.7-18.8
			c92.8-7,185.7-9.4,278.3-6.2c46.3,1.6,92.5,4.7,138.5,9.3c40,4.1,79.6,9.3,119.2,15.7H2228.6L2228.6,991.1z"/>
	</g>
	<g class="st3">
		<path class="st4" d="M2225.7,284.8c-9.2-1.4-18.4-2.8-27.6-4.1c-62.4-8.9-124.7-16.7-187-24.1c-124.5-14.6-248.7-27.4-372.6-39.6
			c-247.8-24.4-494.7-46.7-740.4-72.7c-122.9-13-245.5-26.9-367.7-42.4C408.1,86.4,286.2,69.4,164.7,49.7
			c-30.4-4.9-60.8-10-91.1-15.3c-23.1-4-46.2-8.1-69.2-12.4v142.4c11.4,3.8,22.9,7.5,34.3,11.2c30.3,9.7,60.8,18.9,91.4,27.7
			c61.2,17.6,122.8,33.4,184.7,47.7c61.9,14.3,124,27.1,186.4,38.5c124.8,22.8,250.2,40.4,375.9,53.6
			c251.4,26.4,503.7,36,755.4,30.7c125.8-2.7,251.5-9.1,376.9-19.4c62.7-5.2,125.3-11.3,187.8-18.2c9.5-1,19-2.1,28.5-3.2V284.8z"/>
	</g>
	<g class="st5">
		<path class="st4" d="M2225.7,542.6h0.1v-35.3c-24.9-4.1-49.8-7.9-74.6-11.4c-62.1-8.7-124.2-16.3-186.1-23.4
			c-123.9-14.1-247.5-26-370.9-37.1c-246.7-22.2-492.6-41.2-737.7-62.6c-122.6-10.7-244.9-21.9-367-34.3
			c-122.1-12.3-244-25.8-365.6-41.2c-30.4-3.9-60.8-7.9-91.2-12c-9.5-1.3-18.9-2.6-28.3-3.9v146.8c29.9,8.3,60,16.3,90.1,23.9
			c61.3,15.4,122.8,29.2,184.6,41.6s123.8,23.4,185.9,33.2c124.3,19.6,249.1,34.4,374.1,45.2c250,21.6,500.5,27.8,750.4,20.3
			c125-3.8,249.8-11.1,374.3-22c62.3-5.5,124.5-11.8,186.6-18.9C2175.5,548.6,2200.6,545.6,2225.7,542.6L2225.7,542.6z"/>
	</g>
	<g class="st3">
		<path class="st4" d="M2225.6,991.1v-25.9c-9.9-1.2-19.9-2.3-29.9-3.4c-63.2-6.7-126.3-12.2-189.2-17.2
			c-125.9-9.9-251.3-17.8-376.5-25.2c-250.3-14.8-499.5-27.6-747.9-44S386.2,839.3,139,812.3c-44.9-4.9-89.7-10.1-134.6-15.5v144.1
			c35.9,9.5,72,18.4,108.1,26.8c35.9,8.3,71.9,16.1,107.9,23.4H2225.6z"/>
	</g>
	<g class="st3">
		<path class="st2" d="M2225.7,651.2h0.1v-79.9c-26.9-9.7-54.1-18.7-81.5-27c-60.1-18.2-121.2-33.1-182.8-45.3
			c-61.7-12.2-123.8-21.6-186.1-28.6c-124.6-14-249.7-18.7-374.1-17.4c-124.4,1.4-248.1,8.7-370.8,19.6
			c-122.8,10.9-244.6,25.3-365.7,41.3s-241.5,33.8-361.7,51.8c-99.5,14.9-198.9,30-298.5,44.5v110.4c104.2,4.7,208.4,4.8,312.2,2.1
			c123.2-3.3,245.8-10.7,367.7-19.9c121.9-9.2,243.1-20.2,363.7-31s240.7-21.3,360.4-29.4c119.7-8.1,239.1-14,358.5-15.2
			c119.3-1.1,238.6,2.4,358.2,13.2C2158.7,643.4,2192.2,647,2225.7,651.2L2225.7,651.2z"/>
	</g>
	<g class="st3">
		<path class="st2" d="M2221.5,73.5h0.2V-4.1c-33.1-0.1-66.2,0-99.2,0.2c-30.4,0.2-60.8,0.6-91.1,1.2l-45.5,0.9l-45.5,1.1
			c-30.3,0.8-60.6,1.8-90.9,2.9s-60.6,2.2-90.8,3.5c-242,10.5-483,27.9-723.5,49.7C975,60.7,915,66.5,854.9,72.6
			c-60.1,5.8-120.1,12.1-180.1,18.9l-45,4.9l-45,5.1c-29.9,3.5-59.9,7-89.9,10.7l-22.5,2.8l-22.5,2.7l-45,5.5
			c-30,3.7-59.9,7.6-89.9,11.6c-14.9,2-29.9,4.1-44.9,6l-44.9,6c-30,4-59.9,8.2-89.9,12.5l-22.5,3.3c-7.5,1.1-15,2.3-22.5,3.3
			l-44.9,6.4c-15.1,2.2-30.1,4.4-45.2,6.7v107c17.2,0.8,34.3,1.5,51.5,2.2l45.7,1.6c15.3,0.5,30.5,0.7,45.7,1
			c30.4,0.5,60.9,0.9,91.3,1.2l45.7,0.3h11.4l11.4-0.1l22.8-0.2c243.3-1.7,485.9-15.3,727.5-37.4c241.6-22.2,482.3-52.6,721.8-92.8
			l44.9-7.6c15-2.6,30-5.2,44.9-7.9c29.9-5.4,59.8-10.9,89.6-16.6c59.7-11.3,119.3-23.5,178.8-36.4
			C2162.6,86.9,2192.1,80.3,2221.5,73.5L2221.5,73.5z"/>
	</g>
	<g class="st6">
		<path class="st2" d="M2225.5,259v-85.3c-4-0.5-8.1-1-12.1-1.5c-7.8-1-15.7-1.9-23.5-2.8l-23.5-2.7
			c-125.5-13.3-251.8-20.5-378.1-22.2c-252.7-3.5-505.9,14.6-756.1,52S534.6,290.7,294,368.3C196.2,399.9,99.5,434.9,4.4,473.7
			v113.7c110-22.9,219.6-45.2,329.1-66.5c242.6-47.4,485-90.1,728.4-126.6c243.4-36.6,487.7-66.9,733.6-93
			c123-13.1,246.4-25.2,370.4-36.8c19.9-1.7,39.8-3.6,59.8-5.5H2225.5z"/>
	</g>
	<g class="st5">
		<path class="st2" d="M2220.5-41.4v-85.3c-4-0.5-8.1-1-12.1-1.5c-7.8-1-15.7-1.9-23.5-2.8l-23.5-2.7
			c-125.5-13.3-251.8-20.5-378.1-22.2c-252.7-3.5-505.9,14.6-756.1,52S529.6-9.7,289,67.9C191.2,99.5,94.5,134.5-0.6,173.3V287
			c110-22.9,219.6-45.2,329.1-66.5c242.6-47.4,485-90.1,728.4-126.6c243.4-36.6,487.7-66.9,733.6-93c123-13.1,246.4-25.2,370.4-36.8
			c19.9-1.7,39.8-3.6,59.8-5.5H2220.5z"/>
	</g>
	<g class="st3">
		<path class="st2" d="M2225.9,750.9V614.1c-35.3-7.8-70.4-15.9-105.3-24.3c-53.4-12.9-106.3-26.7-158.8-41.3
			c-26.3-7.3-52.4-14.9-78.5-22.7c-26.1-7.8-52.2-15.8-78.3-24.1c-26.1-8.3-52.3-16.7-78.8-25.3c-26.5-8.5-53.3-17.2-81.1-25.7
			c-13.9-4.2-28.1-8.5-42.8-12.5c-7.4-2-14.8-4-22.5-5.9l-11.1-2.7l-10.8-2.6l-10.8-2.6c-3.6-0.8-7.2-1.7-10.8-2.5l-21.6-4.8
			c-3.6-0.8-7.2-1.6-10.8-2.4l-10.8-2.2l-21.7-4.4c-57.9-11.3-116-20.2-174.3-27c-58.3-6.6-116.6-11.2-174.9-13.8
			c-58.3-2.5-116.5-3.2-174.6-1.9c-116.1,2.5-231.5,12.3-345.6,28C487.9,409.2,375.1,431,264,458c-55.6,13.5-110.7,28.3-165.5,44
			c-27.4,7.8-54.6,16-81.9,24.1c-3.9,1.2-7.9,2.4-11.9,3.6v19.9c5.2-0.2,10.5-0.4,15.7-0.6c7.2-0.2,14.3-0.6,21.4-0.9
			c7.2-0.3,14.3-0.6,21.4-1l21.3-1.1l21.3-1.2c56.7-3.1,113.3-6.5,169.6-9.4c112.7-5.9,224.8-10.1,336.3-10.9s222.5,1.5,332.6,8.6
			c55,3.5,109.8,8.2,164.3,14.1s108.7,13.2,162.5,21.9c53.8,8.8,107.1,19.1,160,30.9c26.4,6.1,52.7,12.3,78.8,19.2l9.8,2.5l4.9,1.3
			c0.8,0.2,1.5,0.4,2.3,0.6l2.2,0.6c5.9,1.7,12.1,3.5,18.3,5.4c12.4,3.8,25.3,7.7,38.4,11.9c26.2,8.2,53.2,16.9,80.7,25.2
			c27.5,8.3,55.4,16.4,83.6,23.9c28.2,7.4,56.7,14.4,85.4,20.6c28.7,6.2,57.6,11.7,86.6,16.6c58,9.6,116.4,16.4,174.9,20
			c42.9,2.7,85.9,3.7,128.7,3.1L2225.9,750.9L2225.9,750.9z"/>
	</g>
	<g class="st3">
		<path class="st2" d="M2228.6,991.1h-0.2v-76c-63.2-8.6-125.9-18-188.3-28c-36.4-5.9-72.7-11.9-109-18.3
			c-36.3-6.3-72.6-12.9-108.9-19.7c-36.4-6.8-72.9-13.7-109.7-20.8c-36.8-7.1-74.2-14.2-112.8-21.2c-19.3-3.5-39-6.9-59.4-10.1
			c-10.2-1.5-20.5-3.2-31.2-4.6l-15.3-2.1l-14.9-2l-14.9-2c-4.9-0.6-10-1.3-14.9-1.9l-30-3.6c-4.9-0.6-10-1.3-14.9-1.8l-14.9-1.6
			l-30-3.2c-79.9-8-160.2-13.7-240.3-17.2c-80.1-3.3-160.4-4.7-240.2-4c-79.8,0.8-159.5,3.3-238.8,7.9
			c-158.6,9-315.6,25.2-470.4,47.3c-56.3,8.1-112.3,16.9-167.9,26.5v114.5c63.8-4,127.5-7.5,191.1-10.5
			c152.5-7.1,304.3-11,455.4-10.1c75.6,0.3,150.8,2,225.8,4.8c75,2.9,149.7,7.2,223.9,12.8c74.3,5.8,148.1,13,221.2,21.9
			c36.6,4.7,73.1,9.4,109.3,14.8l13.6,2l6.8,1c1,0.2,2,0.3,3.1,0.5l3.1,0.5c7.9,1.3,16.3,2.7,24.6,4.2L2228.6,991.1L2228.6,991.1z"
			/>
	</g>
	<g class="st3">
		<path class="st7" d="M2225.5,867.9V762l-2.5-1l-5.5-2.2l-5.6-2l-22.2-8.2l-22.3-8.1l-5.6-2l-5.6-1.9l-11.2-3.8l-22.5-7.5
			c-7.5-2.4-15-5-22.6-7.3l-22.7-7c-60.6-18.3-121.9-34.5-183.8-47.9s-124.3-24.7-187-33.7c-15.7-2.2-31.4-4.3-47.1-6.4
			c-7.9-1-15.7-1.9-23.6-2.8l-23.6-2.7c-3.9-0.4-7.9-0.9-11.8-1.3l-11.8-1.1l-23.6-2.3l-11.8-1.1c-3.9-0.3-7.9-0.7-11.8-1l-23.6-1.8
			c-63-4.8-126.1-7.8-189.2-8.9c-63-1.1-126-0.4-188.9,1.8c-62.8,2.2-125.5,5.9-188,11S826.9,624.4,764.9,632
			c-123.9,15.2-246.8,35.1-368.5,57.7c-30.4,5.6-60.8,11.4-91.1,17.3l-45.4,8.9l-45.3,9C154.2,737,94,749.4,33.9,761.2
			c-9.9,1.9-19.8,3.8-29.7,5.7V858c12.9,0.3,25.8,0.6,38.6,0.7c62.7,0.5,125.2-1,187.3-3.5s123.9-6,185.5-9.8
			c123.2-7.7,245.4-16.8,367.1-24.8c60.9-4,121.6-7.8,182.2-11s121.2-5.9,181.6-8s120.8-3.5,181.1-4.1c60.3-0.6,120.5-0.2,180.7,1
			l22.6,0.4c3.8,0,7.5,0.2,11.3,0.3l11.3,0.4l22.6,0.7l11.3,0.3l11.3,0.5l45.1,1.8c15,0.8,30.1,1.6,45.1,2.3
			c60.1,3.4,120.1,7.9,180.1,13.5l45,4.4l45,5c3.8,0.5,7.6,0.8,11.3,1.3l11.3,1.5l22.5,2.8l11.2,1.4c3.7,0.4,7.5,0.8,11.2,1.4
			l22.4,3.1c14.9,2.1,30,4,44.9,6.4l22.5,3.4l11.4,1.9l5.6,0.8l5.6,0.9l22.4,3.8l22.5,3.7l5.6,0.9l5.6,1l11.2,2l19.5,3.5
			L2225.5,867.9L2225.5,867.9z"/>
	</g>
</g>
<g>
	
		<linearGradient id="SVGID_2_" gradientUnits="userSpaceOnUse" x1="1113.05" y1="772.9" x2="1113.05" y2="1855.9" gradientTransform="matrix(1 0 0 -1 0 779.7999)">
		<stop  offset="0" style="stop-color:#FFDDC9"/>
		<stop  offset="0.188" style="stop-color:#FFEEDB"/>
		<stop  offset="0.4227" style="stop-color:#FFFFEE"/>
		<stop  offset="0.605" style="stop-color:#F3F4E7"/>
		<stop  offset="1" style="stop-color:#9EA9BA"/>
	</linearGradient>
	<rect x="4.1" y="-1073.8" class="st8" width="2217.9" height="1076.1"/>
	<g class="st1">
		<path class="st2" d="M2228.3-1073.8H2032c-39.6,6.4-79.2,11.6-119.2,15.7c-46,4.6-92.2,7.7-138.5,9.3
			c-92.6,3.2-185.5,0.8-278.3-6.2c-58.7-4.5-117.3-10.9-175.7-18.8H223.1c27.5,7.4,55,15,82.3,22.6c11.3,3.1,22.7,6.2,34,9.6
			c11.3,3.2,22.7,6.3,34,9.7l33.8,9.9l16.9,5c5.6,1.6,11.1,3.2,17.2,5.1c47.7,14.6,95.6,28.6,143.9,41.8c12,3.4,24.2,6.5,36.2,9.7
			l36.4,9.5c24.3,6.2,48.7,12.3,73.2,18.1c24.5,5.8,49,11.5,73.6,16.9c24.6,5.3,49.3,10.5,74.1,15.5c99,19.8,199.3,35.9,300.5,47.4
			s203.5,18.2,306.2,19.2c102.7,0.9,205.9-4.1,308.3-16.3c25.5-3,51.1-6.6,76.6-10.5c25.5-3.9,50.8-8.4,76.1-13.4
			c50.6-9.9,100.6-21.6,150-35.4c44.7-12.4,88.7-26.6,132-42.4L2228.3-1073.8L2228.3-1073.8z"/>
	</g>
	<g class="st3">
		<path class="st4" d="M2225.4-415.7c-9.5-1.1-19-2.2-28.5-3.2c-62.5-6.9-125.1-13-187.8-18.2c-125.4-10.3-251.1-16.7-376.9-19.4
			c-251.7-5.3-504,4.3-755.4,30.7c-125.7,13.2-251.1,30.8-375.9,53.6c-62.4,11.4-124.5,24.2-186.4,38.5S191-303.6,129.8-286
			c-30.6,8.8-61.1,18-91.4,27.7c-11.4,3.7-22.9,7.4-34.3,11.2v142.4c23-4.3,46.1-8.4,69.2-12.4c30.3-5.3,60.7-10.4,91.1-15.3
			c121.5-19.7,243.4-36.7,365.7-52.2C652.3-200.1,774.9-214,897.8-227c245.7-26,492.6-48.3,740.4-72.7
			c123.9-12.2,248.1-25,372.6-39.6c62.3-7.4,124.6-15.2,187-24.1c9.2-1.3,18.4-2.7,27.6-4.1V-415.7z"/>
	</g>
	<g class="st5">
		<path class="st4" d="M2225.4-625.3c-25.1-3-50.2-6-75.3-8.9c-62.1-7.1-124.3-13.4-186.6-18.9c-124.5-10.9-249.3-18.2-374.3-22
			c-249.9-7.5-500.4-1.3-750.4,20.3c-125,10.8-249.8,25.6-374.1,45.2c-62.1,9.8-124.1,20.8-185.9,33.2s-123.3,26.2-184.6,41.6
			c-30.1,7.6-60.2,15.6-90.1,23.9v146.8c9.4-1.3,18.8-2.6,28.3-3.9c30.4-4.1,60.8-8.1,91.2-12c121.6-15.4,243.5-28.9,365.6-41.2
			c122.1-12.4,244.4-23.6,367-34.3c245.1-21.4,491-40.4,737.7-62.6c123.4-11.1,247-23,370.9-37.1c61.9-7.1,124-14.7,186.1-23.4
			c24.8-3.5,49.7-7.3,74.6-11.4v-35.3L2225.4-625.3L2225.4-625.3z"/>
	</g>
	<g class="st3">
		<path class="st4" d="M220.1-1073.8c-36,7.3-72,15.1-107.9,23.4c-36.1,8.4-72.2,17.3-108.1,26.8v144.1
			c44.9-5.4,89.7-10.6,134.6-15.5c247.2-27,494.7-46.7,743.1-63.1c248.4-16.4,497.6-29.2,747.9-44c125.2-7.4,250.6-15.3,376.5-25.2
			c62.9-5,126-10.5,189.2-17.2c10-1.1,20-2.2,29.9-3.4v-25.9H220.1z"/>
	</g>
	<g class="st3">
		<path class="st4" d="M202.3-15.8c22.9,6.4,46,12.4,69.1,18.1c0,0,366.3,76.8,841.7,76.8c413.5,0,775.8-76.8,775.8-76.8
			c78.7-16.4,156.9-35.4,234.3-57c34.3-9.6,68.4-19.7,102.3-30.4v-73.3l-118.5,6.6c-115.4,6.6-230.1,13-344.6,18.5
			c-228.9,11.2-456.8,19.2-684.5,21c-113.8,0.9-227.5,0.1-341.1-2.6c-56.8-1.4-113.5-3.2-170.2-5.8c-56.7-2.5-113.4-5.6-170-9.6
			c-28.3-2-56.6-4.1-84.8-6.5c-28.2-2.4-56.5-5-84.7-8c-56.4-5.9-112.6-12.9-168.5-21.8c-18.2-2.9-36.3-6-54.4-9.4v92.2
			c9.4,3.9,18.9,7.8,28.5,11.5C88.3-50.3,145-31.9,202.3-15.8z"/>
	</g>
	<g class="st3">
		<path class="st2" d="M2225.4-733.9c-33.5,4.2-67,7.8-100.4,10.8c-119.6,10.8-238.9,14.3-358.2,13.2
			c-119.4-1.2-238.8-7.1-358.5-15.2c-119.7-8.1-239.8-18.6-360.4-29.4s-241.8-21.8-363.7-31s-244.5-16.6-367.7-19.9
			c-103.8-2.7-208-2.6-312.2,2.1v110.4c99.6,14.5,199,29.6,298.5,44.5c120.2,18,240.6,35.8,361.7,51.8s242.9,30.4,365.7,41.3
			c122.7,10.9,246.4,18.2,370.8,19.6c124.4,1.3,249.5-3.4,374.1-17.4c62.3-7,124.4-16.4,186.1-28.6c61.6-12.2,122.7-27.1,182.8-45.3
			c27.4-8.3,54.6-17.3,81.5-27v-79.9L2225.4-733.9L2225.4-733.9z"/>
	</g>
	<g class="st3">
		<path class="st4" d="M2225.4-226.8c-29.4-6.8-58.9-13.4-88.3-19.8c-59.5-12.9-119.1-25.1-178.8-36.4
			c-29.8-5.7-59.7-11.2-89.6-16.6c-14.9-2.7-29.9-5.3-44.9-7.9l-44.9-7.6c-239.5-40.2-480.2-70.6-721.8-92.8
			c-241.6-22.1-484.2-35.7-727.5-37.4l-22.8-0.2l-11.4-0.1H284l-45.7,0.3c-30.4,0.3-60.9,0.7-91.3,1.2c-15.2,0.3-30.4,0.5-45.7,1
			l-45.7,1.6c-17.2,0.7-34.3,1.4-51.5,2.2v107c15.1,2.3,30.1,4.5,45.2,6.7l44.9,6.4c7.5,1,15,2.2,22.5,3.3l22.5,3.3
			c30,4.3,59.9,8.5,89.9,12.5l44.9,6c15,1.9,30,4,44.9,6c30,4,59.9,7.9,89.9,11.6l45,5.5l22.5,2.7l22.5,2.8c30,3.7,60,7.2,89.9,10.7
			l45,5.1l45,4.9c60,6.8,120,13.1,180.1,18.9c60.1,6.1,120.1,11.9,180.3,17.2c240.5,21.8,481.5,39.2,723.5,49.7
			c30.2,1.3,60.5,2.4,90.8,3.5s60.6,2.1,90.9,2.9l45.5,1.1l45.5,0.9c30.3,0.6,60.7,1,91.1,1.2c33,0.2,66.1,0.3,99.2,0.2v-77.6
			L2225.4-226.8L2225.4-226.8z"/>
	</g>
	<g class="st6">
		<path class="st2" d="M2225.4-341.7c-20-1.9-39.9-3.8-59.8-5.5c-124-11.6-247.4-23.7-370.4-36.8c-245.9-26.1-490.2-56.4-733.6-93
			c-243.4-36.5-485.8-79.2-728.4-126.6c-109.5-21.3-219.1-43.6-329.1-66.5v113.7c95.1,38.8,191.8,73.8,289.6,105.4
			c240.6,77.6,488,134.4,738.2,171.8s503.4,55.5,756.1,52c126.3-1.7,252.6-8.9,378.1-22.2l23.5-2.7c7.8-0.9,15.7-1.8,23.5-2.8
			c4-0.5,8.1-1,12.1-1.5v-85.3H2225.4z"/>
	</g>
	<g class="st3">
		<path class="st2" d="M2225.4-833.6c-42.8-0.6-85.8,0.4-128.7,3.1c-58.5,3.6-116.9,10.4-174.9,20c-29,4.9-57.9,10.4-86.6,16.6
			s-57.2,13.2-85.4,20.6c-28.2,7.5-56.1,15.6-83.6,23.9s-54.5,17-80.7,25.2c-13.1,4.2-26,8.1-38.4,11.9c-6.2,1.9-12.4,3.7-18.3,5.4
			l-2.2,0.6c-0.8,0.2-1.5,0.4-2.3,0.6l-4.9,1.3l-9.8,2.5c-26.1,6.9-52.4,13.1-78.8,19.2c-52.9,11.8-106.2,22.1-160,30.9
			c-53.8,8.7-108,16-162.5,21.9C1053.8-624,999-619.3,944-615.8c-110.1,7.1-221.1,9.4-332.6,8.6s-223.6-5-336.3-10.9
			c-56.3-2.9-112.9-6.3-169.6-9.4l-21.3-1.2l-21.3-1.1c-7.1-0.4-14.2-0.7-21.4-1c-7.1-0.3-14.2-0.7-21.4-0.9
			c-5.2-0.2-10.5-0.4-15.7-0.6v19.9c4,1.2,8,2.4,11.9,3.6c27.3,8.1,54.5,16.3,81.9,24.1c54.8,15.7,109.9,30.5,165.5,44
			c111.1,27,223.9,48.8,338,64.6c114.1,15.7,229.5,25.5,345.6,28c58.1,1.3,116.3,0.6,174.6-1.9c58.3-2.6,116.6-7.2,174.9-13.8
			c58.3-6.8,116.4-15.7,174.3-27l21.7-4.4l10.8-2.2c3.6-0.8,7.2-1.6,10.8-2.4l21.6-4.8c3.6-0.8,7.2-1.7,10.8-2.5l10.8-2.6l10.8-2.6
			l11.1-2.7c7.7-1.9,15.1-3.9,22.5-5.9c14.7-4,28.9-8.3,42.8-12.5c27.8-8.5,54.6-17.2,81.1-25.7c26.5-8.6,52.7-17,78.8-25.3
			c26.1-8.3,52.2-16.3,78.3-24.1c26.1-7.8,52.2-15.4,78.5-22.7c52.5-14.6,105.4-28.4,158.8-41.3c34.9-8.4,70-16.5,105.3-24.3v-136.8
			H2225.4z"/>
	</g>
	<g class="st3">
		<path class="st2" d="M2228.3-1073.8h-749c-8.3,1.5-16.7,2.9-24.6,4.2l-3.1,0.5c-1.1,0.2-2.1,0.3-3.1,0.5l-6.8,1l-13.6,2
			c-36.2,5.4-72.7,10.1-109.3,14.8c-73.1,8.9-146.9,16.1-221.2,21.9c-74.2,5.6-148.9,9.9-223.9,12.8c-75,2.8-150.2,4.5-225.8,4.8
			c-151.1,0.9-302.9-3-455.4-10.1c-63.6-3-127.3-6.5-191.1-10.5v114.5C57-907.8,113-899,169.3-890.9
			c154.8,22.1,311.8,38.3,470.4,47.3c79.3,4.6,159,7.1,238.8,7.9c79.8,0.7,160.1-0.7,240.2-4c80.1-3.5,160.4-9.2,240.3-17.2l30-3.2
			l14.9-1.6c4.9-0.5,10-1.2,14.9-1.8l30-3.6c4.9-0.6,10-1.3,14.9-1.9l14.9-2l14.9-2l15.3-2.1c10.7-1.4,21-3.1,31.2-4.6
			c20.4-3.2,40.1-6.6,59.4-10.1c38.6-7,76-14.1,112.8-21.2s73.3-14,109.7-20.8c36.3-6.8,72.6-13.4,108.9-19.7
			c36.3-6.4,72.6-12.4,109-18.3c62.4-10,125.1-19.4,188.3-28v-76H2228.3L2228.3-1073.8z"/>
	</g>
	<g class="st3">
		<path class="st7" d="M2225.4-950.6l-19.5,3.5l-11.2,2l-5.6,1l-5.6,0.9l-22.5,3.7l-22.4,3.8l-5.6,0.9l-5.6,0.8l-11.4,1.9l-22.5,3.4
			c-14.9,2.4-30,4.3-44.9,6.4l-22.4,3.1c-3.7,0.6-7.5,1-11.2,1.4l-11.2,1.4l-22.5,2.8l-11.3,1.5c-3.7,0.5-7.5,0.8-11.3,1.3l-45,5
			l-45,4.4c-60,5.6-120,10.1-180.1,13.5c-15,0.7-30.1,1.5-45.1,2.3l-45.1,1.8l-11.3,0.5l-11.3,0.3l-22.6,0.7l-11.3,0.4
			c-3.8,0.1-7.5,0.3-11.3,0.3l-22.6,0.4c-60.2,1.2-120.4,1.6-180.7,1c-60.3-0.6-120.7-2-181.1-4.1c-60.4-2.1-121-4.8-181.6-8
			s-121.3-7-182.2-11c-121.7-8-243.9-17.1-367.1-24.8c-61.6-3.8-123.4-7.3-185.5-9.8s-124.6-4-187.3-3.5
			c-12.8,0.1-25.7,0.4-38.6,0.7v91.1c9.9,1.9,19.8,3.8,29.7,5.7c60.1,11.8,120.3,24.2,180.7,36.3l45.3,9l45.4,8.9
			c30.3,5.9,60.7,11.7,91.1,17.3c121.7,22.6,244.6,42.5,368.5,57.7c62,7.6,124.2,14.1,186.7,19.2c62.5,5.1,125.2,8.8,188,11
			c62.9,2.2,125.9,2.9,188.9,1.8c63.1-1.1,126.2-4.1,189.2-8.9l23.6-1.8c3.9-0.3,7.9-0.7,11.8-1l11.8-1.1l23.6-2.3l11.8-1.1
			c3.9-0.4,7.9-0.9,11.8-1.3l23.6-2.7c7.9-0.9,15.7-1.8,23.6-2.8c15.7-2.1,31.4-4.2,47.1-6.4c62.7-9,125.1-20.3,187-33.7
			c61.9-13.4,123.2-29.6,183.8-47.9l22.7-7c7.6-2.3,15.1-4.9,22.6-7.3l22.5-7.5l11.2-3.8l5.6-1.9l5.6-2l22.3-8.1l22.2-8.2l5.6-2
			l5.5-2.2l2.5-1v-105.9H2225.4z"/>
	</g>
</g>
</svg>
