<?xml version="1.0" encoding="utf-8"?>
<!-- Generator: Adobe Illustrator 24.0.2, SVG Export Plug-In . SVG Version: 6.00 Build 0)  -->
<svg version="1.1" id="Layer_1" xmlns="http://www.w3.org/2000/svg" xmlns:xlink="http://www.w3.org/1999/xlink" x="0px" y="0px"
	 viewBox="0 0 3969 2016" style="enable-background:new 0 0 3969 2016;" xml:space="preserve">
<style type="text/css">
	.st0{opacity:0.5;fill:#FFFFFF;enable-background:new    ;}
	.st1{fill:#FFFFFF;}
</style>
<path class="st0" d="M3969,1970.4C3969,1950.1,3969,1978.3,3969,1970.4c-274.8,15.4-427-79.8-693.5-174.1
	c-206.5-73.1-478.6,139.9-692.7,165.3c-160,19-196.8-125.7-372.8-151.7s-413.4,137.7-588,89.7c-138.4-38.1-158.9-129.8-410.5-23.9
	c-194.1,81.8-402.9,39.8-549.5,0.9c-130.3-34.6-235-17.4-312-8.7c-111.5,12.7-225,29.8-350-13.2l-0.1,115.7H3969z"/>
<path class="st1" d="M3969.1,2163.1c0-20.3-0.1-189.2-0.1-197.1c-274.8,15.4-427-35.6-693.5-129.9
	c-206.5-73.1-482.4,95.2-696.5,120.6c-160,19-193-81-369-107s-412.4,89-587,41c-138.4-38.1-159.9-81.1-411.5,24.8
	c-194.1,81.7-399.6-7.6-546.2-46.5c-130.4-34.5-238.4,30-315.3,38.7c-111.5,12.6-225-10-350-53l-0.1,308.4H3969.1L3969.1,2163.1z"/>
<path class="st0" d="M-0.1,44.1C-0.1,64.4-0.1,36.2-0.1,44.1c274.8-15.4,427,79.8,693.5,174.1C900,291.3,1172.1,78.3,1386.1,52.9
	c160-19,196.8,125.7,372.8,151.7s413.4-137.7,588-89.7c138.4,38.1,158.9,129.8,410.5,23.9c194.1-81.8,402.9-39.8,549.5-0.9
	c130.3,34.6,235,17.4,312,8.7c111.5-12.7,225-29.8,350,13.2l0.1-115.7H-0.1z"/>
<path class="st1" d="M-0.2-148.6c0,20.3,0.1,189.2,0.1,197.1c274.8-15.4,427,35.6,693.5,129.9c206.5,73.1,482.4-95.2,696.5-120.6
	c160-19,193,81,369,107s412.4-89,587-41c138.4,38.1,159.9,81.1,411.5-24.8c194.1-81.7,399.6,7.6,546.2,46.5
	c130.4,34.5,238.4-30,315.3-38.7c111.5-12.6,225,10,350,53l0.1-308.4L-0.2-148.6L-0.2-148.6z"/>
</svg>
