<?xml version="1.0" encoding="utf-8"?>
<!-- Generator: Adobe Illustrator 24.0.2, SVG Export Plug-In . SVG Version: 6.00 Build 0)  -->
<svg version="1.1" id="Layer_1" xmlns="http://www.w3.org/2000/svg" xmlns:xlink="http://www.w3.org/1999/xlink" x="0px" y="0px"
	 viewBox="0 0 1920 312.7" style="enable-background:new 0 0 1920 312.7;" xml:space="preserve">
<style type="text/css">
	.st0{opacity:0.5;fill:#FFFFFF;enable-background:new    ;}
	.st1{fill:#FFFFFF;}
</style>
<path class="st0" d="M108.3,336.1c18.5,10.5,41.6,16.8,66.7,16.8c36.3,0,68.4-13,88.3-33.1c10.5,12.7,25.2,20.6,41.5,20.6
	c11.8,0,22.8-4.1,31.9-11.3c13.4,13,31.5,21,51.5,21c29.1,0,54.2-16.9,66.6-41.5c12.4,3.1,26,4.9,40.3,4.9c25.2,0,48.3-5.4,66-14.2
	c5.6,2.4,11.7,3.9,18.1,4.4c24.4,19.8,63.8,32.7,108.4,32.7c30.2,0,58.1-5.9,80.5-15.9c23.2,37.5,76.5,63.7,138.6,63.7
	c32.5,0,62.7-7.2,87.3-19.5c18.9,5.4,40.2,8.5,62.8,8.5c16.6,0,32.4-1.6,47.2-4.6c4.8,7.7,10.5,14.9,17.1,21.5h779.2
	c7.6-3.6,14.7-7.5,21.2-11.7V198.5c-10.4,1.1-20.3,4.3-29.2,9.1c-31.8-13.6-70.8-21.6-113-21.6c-62.3,0-117.8,17.4-153.2,44.5
	C1586.4,198.9,1528,179,1463,179c-50.2,0-96.3,11.9-133.2,31.8c-24.7-13.1-54.4-20.8-86.3-20.8c-20,0-39.1,3-56.7,8.5
	c-18.5,0.1-35.7,3.2-50.2,8.4c-19.6-16.3-47.2-26.4-77.8-26.4c-22.1,0-42.7,5.3-59.8,14.4c-25.5-13.8-57.5-22-92.2-22
	c-45,0-85.4,13.8-113.1,35.7c-24.5-18.7-62.9-30.8-106-30.8c-29.2,0-56.2,5.5-78.2,14.9c-7.9-4.2-16.8-6.6-26.3-6.6
	c-16,0-30.5,6.8-40.9,17.8c-14-4.3-30-6.7-47-6.7c-24.8,0-47.5,5.2-65.1,13.8c-12-8.3-26.4-13.1-41.9-13.1
	c-19.2,0-36.7,7.4-49.9,19.5c-9.5-7.9-21-12.5-33.5-12.5c-16.1,0-30.7,7.7-41.2,20.2c-19.9-20.2-52.2-33.4-88.6-33.4
	c-29.6,0-56.5,8.7-76.2,22.8c-16.7-17.1-39.9-27.6-65.4-27.6c-11.3,0-22.2,2.1-32.2,5.9v176.5c10,3.8,20.9,5.9,32.2,5.9
	C64.3,375,91.5,359.7,108.3,336.1z"/>
<path class="st1" d="M1921.7,389.9V209.4c-19.9-12.8-44.1-20.4-70.2-20.4c-50.9,0-94.6,28.7-113.1,69.4
	c-22.8-18.4-51.6-29.4-82.9-29.4c-36.9,0-70.3,15.3-94.5,39.9c-28.4-20.4-67.3-32.9-110-32.9c-52.7,0-99.3,19-128,48.2
	c-15.1-18-36.2-29.2-59.5-29.2c-18,0-34.7,6.7-48.4,18.1c-19.1-17.5-44.4-28.1-72.1-28.1c-22.4,0-43.3,7-60.5,18.9
	c-25.4-12.4-58.2-19.9-94-19.9c-24.5,0-47.6,3.5-67.9,9.7c-15-15.8-35.9-25.7-59.1-25.7c-13.7,0-26.6,3.5-38,9.6
	c-31.8-13.6-70.8-21.6-113-21.6c-62.3,0-117.8,17.4-153.2,44.5C517.4,228.9,459,209,394,209c-50.2,0-96.3,11.9-133.2,31.8
	c-24.7-13.1-54.4-20.8-86.3-20.8c-44.2,0-84,14.6-112.3,38.1c-17.9-6.4-38.7-10.5-60.9-11.7v143.5L1921.7,389.9L1921.7,389.9z"/>
</svg>
