<?xml version="1.0" encoding="utf-8"?>
<!-- Generator: Adobe Illustrator 24.0.2, SVG Export Plug-In . SVG Version: 6.00 Build 0)  -->
<svg version="1.1" id="Layer_1" xmlns="http://www.w3.org/2000/svg" xmlns:xlink="http://www.w3.org/1999/xlink" x="0px" y="0px"
	 viewBox="0 0 1920 312.7" style="enable-background:new 0 0 1920 312.7;" xml:space="preserve">
<style type="text/css">
	.st0{opacity:0.5;fill:#F5F7FE;}
	.st1{fill:#F5F7FE;}
	.st2{opacity:0.5;fill:#FFFFFF;}
	.st3{fill:#FFFFFF;}
</style>
<g>
	<g>
		<path class="st0" d="M408.9,350.4c84.8,20.4,100.2,10.2,131.1,30.6s73.2,27.2,115.6,0c42.4-27.2,69.4,6.8,123.3,6.8
			c34.7,0,42.4-23.8,73.2-23.8s131.1,44.2,269.8,17c138.8-27.2,146.5-20.4,185-6.8c38.5,13.6,88.7-6.8,119.5-6.8
			c-50.1-10.2-105.9-1.1-111.8-37.4c-3.9-23.8-27-17-34.7-10.2c-7.7-23.8-50.1-95.3-142.6-54.4c-3.9-23.8-38.5-44.2-77.1-20.4
			c-27-40.8-150.3-71.5-212,10.2c-23.1-17-107.9-10.2-119.5,34c-15.4-23.8-84.8-47.6-127.2-6.8c-30.8-10.2-38.5,6.8-38.5,20.4
			c-15.4-6.8-61.7-3.4-73.2,23.8S420.5,353.8,408.9,350.4z"/>
		<path class="st1" d="M532.2,381c33.5,16.9,59.7,25.5,102.1-1.7c42.4-27.2,82.9,8.5,136.8,8.5c34.7,0,55.9-35.7,86.7-35.7
			s96.4,40.8,256.3,28.9c171-12.7,111.2-152.2,21.2-107.2c-87.5,43.7-97.2,27.2-131.1-13.6c-31.7-38.1-104.1-81.7-181.2,20.4
			c-23.1-17-84.8-20.4-96.4,23.8c-15.4-23.8-84.8-51-127.2-10.2c-30.8-10.2-46.3,10.2-46.3,23.8c-15.4-6.8-49.8-11.2-57.8,17
			C491.8,348.7,505.3,367.4,532.2,381z"/>
	</g>
	<g>
		<path class="st0" d="M506.5,305.4c47.6,11.5,56.3,5.7,73.6,17.2s41.1,15.3,64.9,0c23.8-15.3,39,3.8,69.3,3.8
			c19.5,0,23.8-13.4,41.1-13.4c17.3,0,73.6,24.8,151.5,9.6c77.9-15.3,82.3-11.5,103.9-3.8c21.6,7.6,49.8-3.8,67.1-3.8
			c-28.1-5.7-59.5-0.6-62.8-21c-2.2-13.4-15.2-9.6-19.5-5.7c-4.3-13.4-28.1-53.5-80.1-30.6c-2.2-13.4-21.6-24.8-43.3-11.5
			c-15.2-22.9-84.4-40.1-119.1,5.7c-13-9.6-60.6-5.7-67.1,19.1c-8.7-13.4-47.6-26.8-71.4-3.8c-17.3-5.7-21.6,3.8-21.6,11.5
			c-8.7-3.8-34.6-1.9-41.1,13.4C545.4,307.3,513,307.3,506.5,305.4z"/>
		<path class="st1" d="M575.8,322.6c18.8,9.5,33.6,14.3,57.4-1c23.8-15.3,46.5,4.8,76.9,4.8c19.5,0,31.4-20.1,48.7-20.1
			s54.1,22.9,144,16.2c96.1-7.2,62.5-85.5,11.9-60.2c-49.1,24.6-54.6,15.3-73.6-7.6c-17.8-21.4-58.5-45.9-101.8,11.5
			c-13-9.6-47.6-11.5-54.1,13.4c-8.7-13.4-47.6-28.7-71.4-5.7c-17.3-5.7-26,5.7-26,13.4c-8.7-3.8-28-6.3-32.5,9.6
			C553,304.4,560.6,315,575.8,322.6z"/>
	</g>
	<g>
		<path class="st0" d="M1237.7,280.7c47.6,11.5,56.3,5.7,73.6,17.2s41.1,15.3,64.9,0c23.8-15.3,39,3.8,69.3,3.8
			c19.5,0,23.8-13.4,41.1-13.4s73.6,24.8,151.5,9.6c77.9-15.3,82.3-11.5,103.9-3.8c21.6,7.6,49.8-3.8,67.1-3.8
			c-28.1-5.7-59.5-0.6-62.8-21c-2.2-13.4-15.2-9.6-19.5-5.7c-4.3-13.4-28.1-53.5-80.1-30.6c-2.2-13.4-21.6-24.8-43.3-11.5
			c-15.2-22.9-84.4-40.1-119.1,5.7c-13-9.6-60.6-5.7-67.1,19.1c-8.7-13.4-47.6-26.8-71.4-3.8c-17.3-5.7-21.6,3.8-21.6,11.5
			c-8.7-3.8-34.6-1.9-41.1,13.4C1276.7,282.6,1244.2,282.6,1237.7,280.7z"/>
		<path class="st1" d="M1307,297.9c18.8,9.5,33.6,14.3,57.4-1c23.8-15.3,46.5,4.8,76.9,4.8c19.5,0,31.4-20.1,48.7-20.1
			s54.1,22.9,144,16.2c96.1-7.2,62.5-85.5,11.9-60.2c-49.1,24.6-54.6,15.3-73.6-7.6c-17.8-21.4-58.5-45.9-101.8,11.5
			c-13-9.6-47.6-11.5-54.1,13.4c-8.7-13.4-47.6-28.7-71.4-5.7c-17.3-5.7-26,5.7-26,13.4c-8.7-3.8-28-6.3-32.5,9.6
			C1284.3,279.8,1291.9,290.3,1307,297.9z"/>
	</g>
	<g>
		<path class="st2" d="M342,372.4c-82.8,9.4-99.2-51.7-61.4-68.4c16-7.1,37.4-7.1,53.4,0c-2.7-35.4,66.8-115.5,144.2-47.1
			c48.1-56.6,136.2-40.1,152.2,33c56.1-42.4,88.1,2.4,80.1,33c18.7-23.6,80.1-14.1,80.1,23.6c18.7-14.1,8,18.9,74.8,25.9
			c-48.1,0-144.2-7.1-235,7.1s-133.5,25.9-160.2,0S384.7,367.6,342,372.4z"/>
		<path class="st3" d="M363.4,384.2c-114.8,2.4-95.4-73.4-34.7-75.4c72.1-2.4,112.1-106.1,176.2-40.1
			c13.4-40.1,106.4-47.6,114.8,4.7c61.4-23.6,125.5,16.5,104.1,68.4c18.7-14.1,32,16.5,141.9,31.1c-48.1,0-160.6-17-251.4-2.8
			s-117.1,35.8-143.8,9.9C443.9,354.1,406.4,383.3,363.4,384.2z"/>
	</g>
	<g>
		<path class="st2" d="M1723.4,358.6c-85.6,9.7-102.5-53.4-63.5-70.7c16.6-7.3,38.6-7.3,55.2,0c-2.8-36.6,69-119.4,149.1-48.7
			c49.7-58.5,140.8-41.4,157.3,34.1c58-43.9,91.1,2.4,82.8,34.1c19.3-24.4,82.8-14.6,82.8,24.4c19.3-14.6,8.3,19.5,77.3,26.8
			c-49.7,0-149.1-7.3-242.9,7.3c-93.9,14.6-138,26.8-165.6,0S1767.5,353.6,1723.4,358.6z"/>
		<path class="st3" d="M1745.4,370.8c-118.7,2.4-98.6-75.9-35.9-78c74.5-2.4,115.9-109.7,182.2-41.4c13.8-41.4,110-49.2,118.7,4.9
			c63.5-24.4,129.7,17.1,107.7,70.7c19.3-14.6,33.1,17.1,146.7,32.2c-49.7,0-166.1-17.6-259.9-2.9c-93.9,14.6-121,37.1-148.6,10.3
			S1789.9,369.9,1745.4,370.8z"/>
	</g>
	<g>
		<path class="st2" d="M437,334.5c-54.6,12-105.7,51.2-180.8,21.1S113,313.5,44.8,334.5c-68.2,21.1-214.9,69.3-344.5-21.1
			c85.3-30.1,68.2-108.4,136.4-75.3c0-78.3,85.3-81.3,116-54.2c54.6-69.3,125.6-13,124.2,16.1c38.1-23.2,80.4,8,66.8,53.2
			c13.6-27.1,44.3-30.1,61.4-9c47.8-54.2,122.8-12,102.3,42.2C348.4,274.3,344.9,319.5,437,334.5z"/>
		<path class="st3" d="M437,334.5c-122.8,9-105.7,51.2-180.8,21.1s-136.4-63.2-204.6-42.2c-68.2,21.1-221.7,90.3-351.3,0
			c98.9-21.1,95.5-105.4,163.7-72.3c0-78.3,68.2-81.3,98.9-54.2c75-60.2,133,6,122.8,36.1c38.1-23.2,71.6-15.1,58,30.1
			c13.6-27.1,54.6-24.1,71.6-3c47.8-54.2,122.8,0,102.3,54.2C358.6,292.4,344.9,319.5,437,334.5z"/>
	</g>
	<g>
		<path class="st2" d="M1757.6,351.4c-58.8,13-113.9,55.2-194.8,22.7s-154.4-45.4-227.9-22.7s-231.6,74.6-371.2-22.7
			c91.9-32.4,73.5-116.8,147-81.1c0-84.4,91.9-87.6,125-58.4c58.8-74.6,135.4-14,133.8,17.3c41.1-25,86.7,8.6,72,57.3
			c14.7-29.2,47.8-32.4,66.2-9.7c51.5-58.4,132.3-13,110.3,45.4C1662,286.5,1658.3,335.2,1757.6,351.4z"/>
		<path class="st3" d="M1757.6,351.4c-132.3,9.7-113.9,55.2-194.8,22.7s-147-68.1-220.5-45.4s-238.9,97.3-378.6,0
			c106.6-22.7,102.9-113.6,176.4-77.9c0-84.4,73.5-87.6,106.6-58.4c80.9-64.9,143.3,6.5,132.3,38.9c41.1-25,77.2-16.2,62.5,32.4
			c14.7-29.2,58.8-26,77.2-3.2c51.5-58.4,132.3,0,110.3,58.4C1673,306,1658.3,335.2,1757.6,351.4z"/>
	</g>
</g>
</svg>
