<?xml version="1.0" encoding="utf-8"?>
<!-- Generator: Adobe Illustrator 24.0.2, SVG Export Plug-In . SVG Version: 6.00 Build 0)  -->
<svg version="1.1" id="Layer_1" xmlns="http://www.w3.org/2000/svg" xmlns:xlink="http://www.w3.org/1999/xlink" x="0px" y="0px"
	 viewBox="0 0 1919.2 312.7" style="enable-background:new 0 0 1919.2 312.7;" xml:space="preserve">
<style type="text/css">
	.st0{opacity:0.5;fill:#F5F7FE;enable-background:new    ;}
	.st1{opacity:0.6;fill:#FFFFFF;enable-background:new    ;}
	.st2{fill:#F5F7FE;}
	.st3{opacity:0.8;fill:#FFFFFF;enable-background:new    ;}
	.st4{fill:#FFFFFF;}
	.st5{opacity:0.5;fill:#FFFFFF;enable-background:new    ;}
</style>
<g>
	<g>
		<path class="st0" d="M1275.9,313.3c-12.3-28-55-85.5-140.1-47.9c-3.9-23.8-38.5-44.2-77.1-20.4c-27-40.8-150.3-71.5-212,10.2
			c-23.1-17-107.9-10.2-119.5,34c-15.4-23.8-84.8-47.6-127.2-6.8c-30.8-10.2-38.5,6.8-38.5,20.4c-12.4-5.5-44.7-4.3-62.9,10.5
			L1275.9,313.3L1275.9,313.3z"/>
		<path class="st1" d="M1221.6,313.3c0.6-34.3-39.2-63.8-87.8-39.5c-87.5,43.7-97.2,27.2-131.1-13.6
			c-31.7-38.1-104.1-81.7-181.2,20.4c-23.1-17-84.8-20.4-96.4,23.8c-15.4-23.8-84.8-51-127.2-10.2c-27.4-9.1-42.7,6.1-45.7,19.1
			L1221.6,313.3L1221.6,313.3z"/>
		<path class="st2" d="M533.2,313.3c-4.1-0.4-8.3-0.5-12.4,0H533.2z"/>
	</g>
	<g>
		<path class="st0" d="M749.8,313.3c1.3-0.2,2.6-0.3,4.1-0.3c1.1,0,2.3,0.1,3.7,0.3h203c15-1.7,23.8-1.5,31.1,0h73.8
			c-24.8-3.1-49.1-1.5-52-19.3c-2.2-13.4-15.2-9.6-19.5-5.7c-4.3-13.4-28.1-53.5-80.1-30.6c-2.2-13.4-21.6-24.8-43.3-11.5
			c-15.2-22.9-84.4-40.1-119.1,5.7c-13-9.6-60.6-5.7-67.1,19.1c-8.7-13.4-47.6-26.8-71.4-3.8c-17.3-5.7-21.6,3.8-21.6,11.5
			c-8.7-3.8-34.6-1.9-41.1,13.4c-6.3,14.6-36.4,15.2-44.5,13.5c19.4,4.6,32.2,6.4,41.9,7.7H749.8z"/>
		<path class="st3" d="M560.7,313.3l445.1,0c-50.5-8.7-28.8-76.9-92.6-51c-41.5,14.5-54.6,15.3-73.6-7.6
			c-17.8-21.4-58.5-45.9-101.8,11.5c-13-9.6-47.6-11.5-54.1,13.4c-8.7-13.4-47.6-28.7-71.4-5.7c-17.3-5.7-26,5.7-26,13.4
			c-8.7-3.8-28-6.3-32.5,9.6C552.3,301.6,554.8,307.6,560.7,313.3z"/>
	</g>
	<g>
		<path class="st0" d="M1243.6,292.9c47.6,11.5,56.3,5.7,73.6,17.2s41.1,15.3,64.9,0s39,3.8,69.3,3.8c19.5,0,23.8-13.4,41.1-13.4
			s73.6,24.8,151.5,9.6c77.9-15.3,82.3-11.5,103.9-3.8c21.6,7.6,49.8-3.8,67.1-3.8c-28.1-5.7-59.5-0.6-62.8-21
			c-2.2-13.4-15.2-9.6-19.5-5.7c-4.3-13.4-28.1-53.5-80.1-30.6c-2.2-13.4-21.6-24.8-43.3-11.5c-15.2-22.9-84.4-40.1-119.1,5.7
			c-13-9.6-60.6-5.7-67.1,19.1c-8.7-13.4-47.6-26.8-71.4-3.8c-17.3-5.7-21.6,3.8-21.6,11.5c-8.7-3.8-34.6-1.9-41.1,13.4
			C1282.6,294.8,1250.1,294.8,1243.6,292.9z"/>
		<path class="st4" d="M1308,333.4c21,10.6,37.5,16,64.1-1.1s52,5.4,85.9,5.4c21.8,0,35.1-22.5,54.4-22.5s98.4,48.2,198.9,40.7
			c137.8,0.8,26.9-109.7-40.1-78.6c-32.5,16.4-45.5,5.8-66.8-19.8c-19.9-23.9-62.8-46.9-111.2,17.3c-14.5-10.7-55.8-17.3-63,10.5
			c-9.7-15-53.2-32.1-79.8-6.4c-19.3-6.4-29.1,6.4-29.1,15c-9.7-4.2-31.3-7-36.3,10.7C1282.6,313.2,1291.1,324.9,1308,333.4z"/>
	</g>
	<g>
		<path class="st5" d="M761.5,313.3c-12.6-4.3-27.3-4.3-38.7,0H761.5z"/>
		<path class="st5" d="M710.2,313.3c0.1-29.2-30.9-61.5-81.3-23.4c-16-73.1-104.1-89.6-152.2-33c-77.4-68.4-146.9,11.7-144.2,47.1
			c-16-7.1-37.4-7.1-53.4,0c-5.3,2.3-9.5,5.5-12.6,9.3H710.2z"/>
		<path class="st4" d="M725.7,313.3c-6.8-36.5-58.1-58.9-107.5-39.9c-8.4-52.3-101.4-44.8-114.8-4.7c-64.1-66-104.1,37.7-176.2,40.1
			c-8.2,0.3-15.6,1.9-22.1,4.5H725.7z"/>
	</g>
	<g>
		<path class="st5" d="M1919.2,313.3V205.7c-20.5,3.8-40.6,14.8-56.5,33.5c-81.9-72.4-156.1,8.1-149.1,48.7
			c-16.6-7.3-38.6-7.3-55.2,0c-11.9,5.3-18.6,14.9-19.7,25.4H1919.2z"/>
		<path class="st4" d="M1919.2,313.3v-88.9c-13.9,5.7-25,14.9-29,27c-66.3-68.3-107.7,39-182.2,41.4c-20.2,0.7-35.9,9.2-44.1,20.5
			H1919.2z"/>
	</g>
	<g>
		<path class="st5" d="M371.1,313.3c-30.2-17.1-37.6-35-65.2-26.9c20.5-54.2-54.5-96.4-102.3-42.2c-17.1-21.1-47.8-18.1-61.4,9
			c13.6-45.2-28.7-76.4-66.8-53.2c1-20.8-34.9-55.4-75.4-48.3v161.6H371.1z"/>
		<path class="st4" d="M364.1,313.3c-18.8-9.5-24-15.9-48-9c20.5-54.2-54.5-108.4-102.3-54.2c-17-21.1-58-24.1-71.6,3
			c13.6-45.2-19.9-53.3-58-30.1c8.4-24.7-29.1-73.6-84.2-57.3v147.5h364.1V313.3z"/>
	</g>
	<g>
		<path class="st5" d="M1663.9,313.3c-16-11.9-26.1-20.1-47.4-13.8c22-58.4-58.8-103.8-110.3-45.4c-18.4-22.7-51.5-19.5-66.2,9.7
			c14.7-48.7-30.9-82.3-72-57.3c1.6-31.3-75-91.9-133.8-17.3c-33.1-29.2-125-26-125,58.4c-63.6-30.9-58.4,28.2-115.5,65.7H1663.9z"
			/>
		<path class="st4" d="M1629.3,313.3c14.6-47.9-68.1-95.8-117.9-39.3c-18.4-22.8-60.6-34.3-75.3-5.1c9.9-47.4-25.1-64.2-66.2-39.2
			c10.3-44.7-45.9-96.8-117.5-28.1c-33.1-29.2-122.1-29.8-122.1,54.6c-61.7-30-60.7,23.8-124.5,57.1L1629.3,313.3L1629.3,313.3z"/>
	</g>
</g>
</svg>
