<?xml version="1.0" encoding="utf-8"?>
<!-- Generator: Adobe Illustrator 24.0.2, SVG Export Plug-In . SVG Version: 6.00 Build 0)  -->
<svg version="1.1" id="Layer_1" xmlns="http://www.w3.org/2000/svg" xmlns:xlink="http://www.w3.org/1999/xlink" x="0px" y="0px"
	 viewBox="0 0 1924 1059" style="enable-background:new 0 0 1924 1059;" xml:space="preserve">
<style type="text/css">
	.st0{fill:none;stroke:#5D2B4B;stroke-width:35;stroke-miterlimit:10;}
	.st1{fill:none;stroke:#5D2B4B;stroke-width:68;stroke-miterlimit:10;}
	.st2{fill:#5D2B4B;}
	.st3{fill:#BDD657;}
	.st4{fill:#97B13D;}
	.st5{fill:#687831;}
	.st6{fill:#98B23E;}
	.st7{fill:#697B33;}
</style>
<image style="overflow:visible;" width="1920" height="1080" xlink:href="../../../Контент/1580484930_vsthemes_ru-45.jpg"  transform="matrix(1.001 0 0 1.001 2 -21)">
</image>
<path class="st0" d="M744,157c28,38,143,160,153,344"/>
<path class="st1" d="M957,121c-19,82-82,631-27,828"/>
<path class="st0" d="M1052.8,175.3C1036,222,968,304,939,377"/>
<path class="st0" d="M1125.4,176C1112,232,1042,422,921,564"/>
<path class="st0" d="M1307,216c-64.1,46.5-202,80-277.5,187.5"/>
<g>
	<path class="st2" d="M834,510c3.4,4.4,7.7,7.7,12.3,10.5c4.6,2.8,9.5,5.1,14.6,7.5c5,2.5,10.2,5.2,15.2,8.5
		c5,3.3,9.9,7.2,14.4,11.8c4.4,4.6,8.3,9.9,11.5,15.5c3.2,5.6,5.8,11.6,7.9,17.7c4,12.1,6.2,24.5,7.4,36.7l0.1,0.6
		c1.1,11.4-7.3,21.6-18.7,22.7c-11.4,1.1-21.6-7.3-22.7-18.7c-0.2-2.2,0-4.4,0.4-6.4c2.1-9.7,3.4-19.4,3.4-28.9
		c-0.2-9.4-1.7-18.6-5.8-27.1c-2-4.3-4.7-8.4-7.9-12.3c-3.2-4-6.9-7.8-10.9-11.6c-4-3.8-8.1-7.7-12-12c-1.9-2.1-3.7-4.4-5.2-6.8
		C836.2,515.2,835,512.6,834,510z"/>
</g>
<path class="st0" d="M899.5,615.5C886.5,688.5,843,898,735,931"/>
<path class="st0" d="M921.5,622.5c5,78,30.5,225.5,193.5,261.5"/>
<rect x="2" y="-21" class="st3" width="1922" height="197"/>
<g>
	<path class="st4" d="M1392.6,190.4c0-5.1,1.6-9.9,4.3-13.8c-0.6-2.5-1-5-1-7.7c0-16.7,13.6-30.3,30.3-30.3
		c9.9,0,18.8,4.8,24.3,12.2l0.3-0.1c-0.6-1.7-0.9-3.5-0.9-5.5c0-9.7,7.9-17.6,17.6-17.6c5,0,9.5,2.1,12.7,5.4
		c-0.4-1.6-0.6-3.2-0.6-4.9c0-11.9,9.6-21.5,21.5-21.5c7.7,0,14.5,4.1,18.2,10.2c5.3,1.1,9.5,5.3,10.6,10.6c1.8-0.6,3.8-1,5.8-1
		c6.1,0,11.5,3.1,14.7,7.9l3.6,0.9c2.3-9.4,10.7-16.4,20.9-16.4c4.9,0,9.5,1.7,13.1,4.5c4-7.9,12.2-13.3,21.6-13.3
		c10.8,0,20,7.1,23.1,17c2.5-3,6.3-4.8,10.5-4.8c6.9,0,12.6,5.1,13.6,11.7c2.3-1.8,5.2-2.9,8.4-2.9c7.6,0,13.8,6.2,13.8,13.8
		c0,1.1-0.2,2.2-0.4,3.3c1.9-1,4.1-1.6,6.5-1.6c4.9,0,9.3,2.6,11.7,6.5c1.6-0.3,3.2-0.5,4.8-0.5c13.4,0,24.2,10.8,24.2,24.2
		s-10.8,24.2-24.2,24.2c-5.6,0-10.8-1.9-14.9-5.1c0,0.2,0,0.5,0,0.7c0,11.9-9.6,21.5-21.5,21.5c-2.3,0-4.5-0.4-6.6-1l-17.1,16.5
		l-106.9,16.3c-1,12.4-11.4,22.2-24.1,22.2c-8.6,0-16.2-4.5-20.5-11.3c-5.4,8.1-14.7,13.5-25.2,13.5c-16.7,0-30.3-13.6-30.3-30.3
		c0-0.2,0-0.5,0-0.7c-15.4-1.4-27.5-14.3-27.5-30.1c0-0.2,0-0.3,0-0.5C1398.5,208.7,1392.6,200.2,1392.6,190.4z"/>
	<path class="st3" d="M1426.2,138.6c9.9,0,18.8,4.8,24.3,12.2l0.3-0.1c-0.6-1.7-0.9-3.5-0.9-5.5c0-9.7,7.9-17.6,17.6-17.6
		c5,0,9.5,2.1,12.7,5.4c-0.4-1.6-0.6-3.2-0.6-4.9c0-11.9,9.6-21.5,21.5-21.5c7.7,0,14.5,4.1,18.2,10.2c5.3,1.1,9.5,5.3,10.6,10.6
		c1.8-0.6,3.8-1,5.8-1c6.1,0,11.5,3.1,14.7,7.9l3.6,0.9c2.3-9.4,10.7-16.4,20.9-16.4c4.9,0,9.5,1.7,13.1,4.5
		c4-7.9,12.2-13.3,21.6-13.3c10.8,0,20,7.1,23.1,17c2.5-3,6.3-4.8,10.5-4.8c6.9,0,12.6,5.1,13.6,11.7c2.3-1.8,5.2-2.9,8.4-2.9
		c7.6,0,13.8,6.2,13.8,13.8c0,1.1-0.2,2.2-0.4,3.3c1.9-1,4.1-1.6,6.5-1.6c4.1,0,7.7,1.8,10.3,4.6c-0.8,3.2-2.9,5.8-8.6,5.3
		c-11-1.1-13.2-4.4-11-11c-2.2,4.4-4.4,4.4-8.8,1.1c0,9.9-5.5,14.3-14.3,15.4c-8.8,1.1-16.5-2.2-18.7-6.6c-5.5,4.4-20.9-4.4-18.7-11
		c-5.5,8.8-13.2,4.4-15.4-1.1c1.1,9.9-8.8,19.8-17.6,20.9c-8.8,1.1-25.3-4.4-23.1-17.6c-8.8,5.5-13.2,1.1-14.3-3.3
		c-6.6,3.3-23.1,4.4-22-11c-5.5,4.4-14.3,1.1-15.4-6.6c-7.7,7.7-6.6,13.2-18.7,11c-3.3,9.9-13.2,18.7-24.2,8.8
		c5.5,16.5-4.4,36.3-19.8,25.3c-9.9,12.1-26.4,2.2-25.3-7.7c-4.4,3.6-14.6,9.3-23,3.8C1397.2,151,1410.2,138.6,1426.2,138.6z"/>
	<path class="st5" d="M1392.6,190.4c0-2.4,0.4-4.7,1-6.9c6.7,0.5,13.1,8.1,12.2,15.7c13.2-4.4,20.9,4.4,22,12.1
		c4.4-4.4,8.8,0,13.2,4.4c11-6.6,16.5,3.3,15.4,11c5.5-1.1,8.8-1.1,12.1,11c4.4-4.4,8.8-6.6,16.5,0c-8.8-20.9,3.3-38.5,13.2-44
		c9.9-5.5,30.8,0,34.1,11c8.8-17.6,28.6-7.7,31.9,0c0-5.5,9.9-12.1,14.3-2.2c0-8.8,9.9-14.3,17.6-15.4s19.8,4.4,20.9,14.3
		c2.2-1.1,5.5-5.5,7.7,3.3c5.5-5.5,20.9-3.3,29.7,0c0-11,12.1-15.4,20.9-14.3c-2.2-23.1,22-19.8,27.5-14.3
		c-1.2-10.8,4.5-16.7,11.1-20c6.9,4.3,11.4,11.9,11.4,20.6c0,13.4-10.8,24.2-24.2,24.2c-5.6,0-10.8-1.9-14.9-5.1c0,0.2,0,0.5,0,0.7
		c0,11.9-9.6,21.5-21.5,21.5c-2.3,0-4.5-0.4-6.6-1l-17.1,16.5l-106.9,16.3c-1,12.4-11.4,22.2-24.1,22.2c-8.6,0-16.2-4.5-20.5-11.3
		c-5.4,8.1-14.7,13.5-25.2,13.5c-16.7,0-30.3-13.6-30.3-30.3c0-0.2,0-0.5,0-0.7c-15.4-1.4-27.5-14.3-27.5-30.1c0-0.2,0-0.3,0-0.5
		C1398.5,208.7,1392.6,200.2,1392.6,190.4z"/>
</g>
<path class="st6" d="M640.3,196.7c0.8-0.1,1.6-0.3,2.3-0.4c2.6,10.8,13,18.1,24.2,16.6c7.4-1,13.3-5.6,16.5-11.7
	c2.9,3.4,7.4,5.4,12.2,4.7c6.3-0.9,10.9-5.9,11.6-11.8c2.2,1.4,4.8,2,7.5,1.6c4.4-0.6,7.9-3.7,9.2-7.7c7.2,5.8,16.6,8.7,26.5,7.4
	c8-1.1,14.9-4.8,20.1-10.2c4.3,7.3,12.8,11.7,21.8,10.5c3.5-0.5,6.7-1.8,9.4-3.6c0,0,0,0.1,0,0.1c0.8,6.2,6.5,10.5,12.7,9.7
	c3.9-0.5,7.1-3,8.7-6.3c6,6,14.5,9.2,23.5,8c10.1-1.4,18.1-8,21.9-16.7c4.7,2.3,10.2,3.2,15.7,2.5c15.3-2.1,25.9-16.2,23.8-31.4
	c-0.9-6.3-3.8-11.8-8-15.9c8.9-5.7,14.2-16.2,12.7-27.3c-1.5-11.3-9.6-20-19.9-23c0,0,0-0.1,0-0.1c-0.1-0.9-0.3-1.9-0.5-2.8
	c-4.1,0-7.7,0.9-10,3.5c-1-7.5-9-21.6-24.7-13.4c-2.5-7.3-17.8-18.9-37.7-8.5s-19.1,16.3-20.2,19.5c-6.8-5.2-23.7,4.8-17.4,17.6
	c-10.7-0.1-15.1,0.6-13.7,11c-6.9-17.3-24.6-24-36.1-19.4S707.2,113,712.4,129c-10.5,1.4-15.8,6.7-13.3,14c-6.4-2.2-8.3-5-13,4.8
	c-1.4-21.1-38.3-13-29.5,7.1c-11.3-4.5-27.6,9.9-19.9,21c-7.9-1.5-17.2,1.5-19.5,13.3C623.1,194.8,631.5,197.9,640.3,196.7z"/>
<path class="st3" d="M779.3,193.4c3.9,2,8.4,2.9,13,2.3c3.5-0.5,6.7-1.8,9.4-3.6c0,0,0,0.1,0,0.1c0.8,6.2,6.5,10.5,12.7,9.7
	c3.9-0.5,7.1-3,8.7-6.3c6,6,14.5,9.2,23.5,8c10.1-1.4,18.1-8,21.9-16.7c4.7,2.3,10.2,3.2,15.7,2.5c15.3-2.1,25.9-16.2,23.8-31.4
	c-0.9-6.3-3.8-11.8-8-15.9c4.7-3,8.4-7.4,10.7-12.5c-4.5-1.3-10.1-1.3-15.4,2.1c-8.7-7.9-30.4-11-31,7.3c-10,4.4-9.6,7.4-8.8,13.4
	c-6,0.8-16.9,9.9-11.4,16.8c-6.6,7-12.6,7.8-9.9,16.6c-5.7-8.3-15.1-10.1-21.7-3.1C809.8,172.7,778.6,165.8,779.3,193.4z"/>
<path class="st3" d="M640.3,196.7c0.8-0.1,1.6-0.3,2.3-0.4c2.6,10.8,13,18.1,24.2,16.6c7.4-1,13.3-5.6,16.5-11.7
	c2.9,3.4,7.4,5.4,12.2,4.7c6.3-0.9,10.9-5.9,11.6-11.8c2.2,1.4,4.8,2,7.5,1.6c4.4-0.6,7.9-3.7,9.2-7.7c7.2,5.8,16.6,8.7,26.5,7.4
	c6.3-0.9,12-3.4,16.7-7.1c0.3-7.6-0.3-15.5-7.1-17.8c0.7-16.8-5.6-29.7-17.5-28s-23.1,9.2-21.8,18.2c-10.9-1.6-16.9,15.2-13.1,20.8
	c-1.1,3.2-12.4-1.4-10.9,9.1c-7.9-2-11.1-3-13,4.8c-3.8-5.6-12.3-12-18.5-2c-2.3-5.8-13.6-10.3-20.2-3.3c-1.1-8.3-18-18.2-22.3,3.1
	C627.6,196.1,633.8,197.5,640.3,196.7z"/>
<g>
	<path class="st7" d="M1062.8,149.2c-0.6-0.2-1.2-0.3-1.7-0.5c1.8-8.2-2.9-16.6-11.1-19.2c-5.3-1.7-10.9-0.6-15.1,2.6
		c-0.8-3.3-3.3-6.1-6.8-7.2c-4.5-1.5-9.3,0.4-11.8,4.3c-1-1.6-2.6-2.9-4.6-3.6c-3.2-1-6.6,0-8.8,2.2c-3-6.3-8.5-11.4-15.6-13.7
		c-5.8-1.9-11.7-1.6-17,0.3c-0.6-6.4-4.9-12.2-11.4-14.3c-2.5-0.8-5.1-1-7.6-0.6c0,0,0,0,0-0.1c1.4-4.5-1-9.3-5.5-10.7
		c-2.8-0.9-5.8-0.3-8,1.5c-2.1-6-6.9-11-13.4-13.1c-7.3-2.4-15-0.5-20.4,4.3c-2.5-3.1-5.9-5.5-9.9-6.8c-11.1-3.6-22.9,2.5-26.5,13.6
		c-1.5,4.6-1.3,9.3,0.2,13.5c-7.9,0.9-15,6.4-17.6,14.5c-2.6,8.2,0,16.8,6,22.2c0,0,0,0.1,0,0.1c-3.5,11,2.4,22.8,13.4,26.4
		c-2.6,2.8-4.7,6.2-6,10.1c-4.4,13.8,3.1,28.5,16.9,33c10.5,3.4,21.5-0.2,28.1-8.2c1.7,1.6,3.8,2.9,6.2,3.7c7,2.3,14.5-0.4,18.6-6.2
		c1.9,3.7,5.3,6.7,9.6,8.1c6.4,2.1,13.1,0,17.3-4.7c3.1,3.7,7.2,6.6,12.1,8.1c8.2,2.6,16.8,1,23.3-3.7c1,0.6,2,1,3.2,1.4
		c7.4,2.4,15.2-0.7,19.1-7.1c7.1,1.7,14.5-1.5,18.1-7.7c0.7,0.5,1.6,0.9,2.4,1.2c4.2,1.4,8.7-0.2,11.3-3.5c0,0,0,0,0,0
		c11.1,3.6,22.9-2.5,26.5-13.6C1079.9,164.6,1073.8,152.7,1062.8,149.2z"/>
	<path class="st6" d="M1062.8,149.2c-0.6-0.2-1.2-0.3-1.7-0.5c1.8-8.2-2.9-16.6-11.1-19.2c-5.3-1.7-10.9-0.6-15.1,2.6
		c-0.8-3.3-3.3-6.1-6.8-7.2c-4.5-1.5-9.3,0.4-11.8,4.3c-1-1.6-2.6-2.9-4.6-3.6c-3.2-1-6.6,0-8.8,2.2c-3-6.3-8.5-11.4-15.6-13.7
		c-5.8-1.9-11.7-1.6-17,0.3c-0.6-6.4-4.9-12.2-11.4-14.3c-2.5-0.8-5.1-1-7.6-0.6c0,0,0,0,0-0.1c1.4-4.5-1-9.3-5.5-10.7
		c-2.8-0.9-5.8-0.3-8,1.5c-2.1-6-6.9-11-13.4-13.1c-7.3-2.4-15-0.5-20.4,4.3c-2.5-3.1-5.9-5.5-9.9-6.8c-11.1-3.6-22.9,2.5-26.5,13.6
		c-1.5,4.6-1.3,9.3,0.2,13.5c-7.9,0.9-15,6.4-17.6,14.5c-2.6,8.2,0,16.8,6,22.2c0,0,0,0.1,0,0.1c-0.2,0.7-0.4,1.4-0.6,2.1
		c2.8,1.3,5.6,1.9,8,0.9c-1.7,5.4-0.9,17.7,12.4,17.2c-0.7,5.8,6,18.7,22.9,18.1s18.3-4.9,20.1-6.7c2.9,5.7,17.7,4.5,17.6-6.3
		c7.2,3.5,10.5,4.6,12.9-3c-0.9,14.1,8.9,24.4,18.3,25c9.4,0.6,22-1.3,23.6-13.9c7.6,2.4,13,0.6,13.6-5.2c3.6,3.6,4,6.1,10.5,1
		c-6,14.8,21.8,21.4,22.4,4.8c6.2,6.8,22,2.3,20.4-7.8c4.9,3.6,12.3,4.6,17.6-2.7C1073.9,156,1069.1,151.2,1062.8,149.2z"/>
	<path class="st3" d="M967,106c-2-2.6-4.8-4.7-8.1-5.8c-2.5-0.8-5.1-1-7.6-0.6c0,0,0,0,0-0.1c1.4-4.5-1-9.3-5.5-10.7
		c-2.8-0.9-5.8-0.3-8,1.5c-2.1-6-6.9-11-13.4-13.1c-7.3-2.4-15-0.5-20.4,4.3c-2.5-3.1-5.9-5.5-9.9-6.8c-11.1-3.6-22.9,2.5-26.5,13.6
		c-1.5,4.6-1.3,9.3,0.2,13.5c-4.2,0.5-8.2,2.3-11.4,5c2.7,2.4,6.4,4.2,11.2,3.6c3.3,8.2,17.1,17.5,23.5,5.2c8.3,0.3,9-1.9,10.4-6.2
		c4.3,1.4,14.8-1.2,13.2-7.7c6.8-2.6,11.2-1.2,12.2-8c1.2,7.6,7,11.8,13.8,9.2C939.5,110.1,958.5,125,967,106z"/>
	<path class="st3" d="M1062.8,149.2c-0.6-0.2-1.2-0.3-1.7-0.5c1.8-8.2-2.9-16.6-11.1-19.2c-5.3-1.7-10.9-0.6-15.1,2.6
		c-0.8-3.3-3.3-6.1-6.8-7.2c-4.5-1.5-9.3,0.4-11.8,4.3c-1-1.6-2.6-2.9-4.6-3.6c-3.2-1-6.6,0-8.8,2.2c-3-6.3-8.5-11.4-15.6-13.7
		c-4.6-1.5-9.3-1.6-13.7-0.6c-2.7,5.1-4.9,10.6-1,14.5c-6,11.2-5.9,22,2.8,24.8c8.7,2.8,18.7,1.2,20.8-5.3
		c6.9,4.6,16.5-4.9,15.7-9.9c1.8-1.8,8,5,10.4-2.6c4.7,3.9,6.5,5.7,10.5,1c0.8,5,4.4,12.2,12,7.4c-0.3,4.7,5.9,11.5,12.7,8.9
		c-1.9,6,6.3,18.3,16.2,5.2C1071.2,153.7,1067.4,150.7,1062.8,149.2z"/>
</g>
<g>
	<path class="st7" d="M172.2,170.9c-10.2-21.4-35.8-30.6-57.3-20.4c0,0,0,0,0,0c-6.1-6.1-15.6-8.1-23.8-4.2c-1.7,0.8-3.3,1.9-4.6,3
		c-9-11.5-24.7-16.1-38.7-10.6c-9.6-11.8-26.2-16-40.6-9.2c-2.2,1-4.2,2.3-6,3.7c-0.6-0.3-1.1-0.6-1.7-0.8v190.2
		c3-0.8,6.1-1.9,9-3.3c13.9-6.6,23.6-18.4,27.9-31.9c5,4.1,12.2,5.2,18.4,2.2c3.8-1.8,6.7-4.9,8.3-8.4c6,7.1,16.2,9.6,25,5.5
		c6.7-3.2,11-9.5,11.8-16.4c9.2,5.3,20.8,6.1,31.1,1.2c15.8-7.5,23.1-25.7,17.3-41.8c1.1-0.4,2.3-0.9,3.4-1.4
		C173.2,218,182.3,192.4,172.2,170.9z"/>
	<path class="st6" d="M138.9,198.3c0.4-20.8-32.7-25.6-43.4-10.2c-5.6-33.4-60-12.7-44,15.7c-14.4-8.6-14.5-3.4-20.9,4.8
		c-2.9-11.5-14.3-13.8-29-6.8c-0.6-2.1-1.3-4-2.1-5.7v126.6c3-0.8,6.1-1.9,9-3.3c13.9-6.6,23.6-18.4,27.9-31.9
		c5,4.1,12.2,5.2,18.4,2.2c3.8-1.8,6.7-4.9,8.3-8.4c6,7.1,16.2,9.6,25,5.5c6.7-3.2,11-9.5,11.8-16.4c9.2,5.3,20.8,6.1,31.1,1.2
		c15.8-7.5,23.1-25.7,17.3-41.8c1.1-0.4,2.3-0.9,3.4-1.4c12.4-5.9,20.6-16.9,23.4-29.2C162.4,185.8,147.7,189.8,138.9,198.3z"/>
	<path class="st3" d="M140.4,223.3c-14.5-3.4-25.2,12-23.3,21.3c-16.5-7.6-22,7.9-22.2,18.3c-9.2-8.5-12.4-4.4-20.9,4.8
		c-7-14.7-17.7,0.7-21.8-2.5c0.2-10.4-21.8-27-34.5-15.8c-3.1-6.4-10-9.7-18.2-10.3v83.6c3-0.8,6.1-1.9,9-3.3
		c13.9-6.6,23.6-18.4,27.9-31.9c5,4.1,12.2,5.2,18.4,2.2c3.8-1.8,6.7-4.9,8.3-8.4c6,7.1,16.2,9.6,25,5.5c6.7-3.2,11-9.5,11.8-16.4
		c9.2,5.3,20.8,6.1,31.1,1.2c15.8-7.5,23.1-25.7,17.3-41.8c1.1-0.4,2.3-0.9,3.4-1.4c9.1-4.3,15.9-11.4,20-19.7
		C148.3,184.6,134.9,211.7,140.4,223.3z"/>
</g>
<g>
	<path class="st7" d="M1926.1,299V114.7c-6,0.3-11.8,1.9-17,4.5c-6-13.3-18.6-23.3-34.2-25.1c-13.9-1.6-27,3.7-36,13.1
		c-2.6-5-7.5-8.7-13.5-9.4c-9.6-1.1-18.2,5.7-19.3,15.3c0,0,0,0.1,0,0.1c-4.3-2.8-9.2-4.7-14.6-5.3c-13.9-1.6-26.7,5.5-33.2,16.9
		c-8.2-8.1-19-13.6-31.3-15c-15.2-1.8-29.7,3.1-40.6,12.3c-2.1-6.1-7.6-10.8-14.4-11.6c-4.2-0.5-8.2,0.6-11.5,2.7
		c-1.3-9.2-8.6-16.8-18.3-17.9c-7.4-0.9-14.3,2.3-18.7,7.7c-5-9.4-14.4-16.2-25.8-17.5c-17.4-2-33.2,9.6-36.8,26.3
		c-1.2-0.2-2.4-0.5-3.6-0.6c-23.6-2.7-44.9,14.2-47.6,37.8s14.2,44.9,37.8,47.6c0,0,0,0,0.1,0c1.9,8.4,8.9,15.1,18,16.1
		c1.9,0.2,3.7,0.2,5.5-0.1c1.5,14.5,12.4,26.7,27.2,29.5c1.9,15.1,13.8,27.5,29.5,29.3c2.4,0.3,4.7,0.3,7,0.1
		c8.2,14.2,22.7,24.4,40.2,26.4c10.4,1.2,20.5-0.7,29.3-4.9c3.9,12.2,14.6,21.7,28.2,23.3c9.1,1.1,17.8-1.7,24.6-6.9
		c2.7,14.1,14.2,25.4,29.2,27.2c5.1,0.6,10.1,0,14.6-1.6c5.6,20.4,23.1,36.3,45.4,38.9c29.3,3.4,55.8-17.6,59.2-46.9
		c1-8.3,0-16.3-2.6-23.7C1911.1,304.1,1919.1,302.5,1926.1,299z"/>
	<path class="st6" d="M1926.1,114.7c-6,0.3-11.8,1.9-17,4.5c-6-13.3-18.6-23.3-34.2-25.1c-13.9-1.6-27,3.7-36,13.1
		c-2.6-5-7.5-8.7-13.5-9.4c-9.6-1.1-18.2,5.7-19.3,15.3c0,0,0,0.1,0,0.1c-4.3-2.8-9.2-4.7-14.6-5.3c-13.9-1.6-26.7,5.5-33.2,16.9
		c-8.2-8.1-19-13.6-31.3-15c-15.2-1.8-29.7,3.1-40.6,12.3c-2.1-6.1-7.6-10.8-14.4-11.6c-4.2-0.5-8.2,0.6-11.5,2.7
		c-1.3-9.2-8.6-16.8-18.3-17.9c-7.4-0.9-14.3,2.3-18.7,7.7c-5-9.4-14.4-16.2-25.8-17.5c-17.4-2-33.2,9.6-36.8,26.3
		c-1.2-0.2-2.4-0.5-3.6-0.6c-13.6-1.6-26.4,3.4-35.4,12.4c3.9,18,18.4,22.3,30.5,19.8c-11.4,17.4,14.2,39.1,31.4,31.7
		c-13,31.2,44.2,42.5,45.6,10c7.6,14.9,10.5,10.6,20.2,7c-3.6,11.3,4.8,19.3,20.9,21.1c-7.6,24.9,14.2,39.1,32.1,45.8
		s44.9-4.2,55.1-31.1c-1.9,16.2,5.1,17,21.5,16.5c-9.3,20,17,34.7,27.3,26.6c1.8,4.9,0.7,14.1,31.7,29.4c31,15.3,54.2-3.1,57.8-14.4
		c14.1,7.1,24,2.6,30.1-4.6V114.7z"/>
	<path class="st3" d="M1926.1,114.7c-6,0.3-11.8,1.9-17,4.5c-6-13.3-18.6-23.3-34.2-25.1c-13.9-1.6-27,3.7-36,13.1
		c-2.6-5-7.5-8.7-13.5-9.4c-9.6-1.1-18.2,5.7-19.3,15.3c0,0,0,0.1,0,0.1c-4.3-2.8-9.2-4.7-14.6-5.3c-7.2-0.8-14.1,0.7-20,3.9
		c-0.1,42.5,47.7,30.9,51.6,16.1c10.5,10.6,24.9,7.6,33.4-5.5c-3.9,13.6,5.3,14.7,15.8,25.2c-8.3,10.7,8.9,24.4,18.1,25.5
		c-1.1,9.2-1.6,13.9,14,20.3c0.8,15.1,10.7,20.6,21.8,20.4V114.7z"/>
	<path class="st3" d="M1557.2,111.2c1.2,0.1,2.4,0.4,3.6,0.6c3.6-16.8,19.4-28.3,36.8-26.3c11.4,1.3,20.7,8.2,25.8,17.5
		c4.4-5.4,11.3-8.5,18.7-7.7c9.7,1.1,17,8.7,18.3,17.9c3.3-2.2,7.3-3.2,11.5-2.7c6.9,0.8,12.3,5.5,14.4,11.6
		c10.9-9.2,25.4-14,40.6-12.3c9.8,1.1,18.6,4.9,25.9,10.4c0.7,11.8,0.1,23.9-10.4,27.7c1.7,25.9-7.6,45.9-26.1,43.8
		c-18.5-2.1-35.9-13.5-34.3-27.4c-16.7,2.7-26.6-23-20.9-31.7c-1.8-4.9-19,2.5-17.1-13.7c-12.1,3.3-17,5.1-20.2-7
		c-5.7,8.7-18.6,18.9-28.5,3.7c-3.4,9-20.6,16.3-31.1,5.8c-1.5,12.8-27.1,28.6-34.4-4.1C1537.7,112.4,1547.2,110,1557.2,111.2z"/>
</g>
<g>
	<path class="st7" d="M1024.1,151.6c0.6-0.2,1.2-0.3,1.9-0.4c-1.6-8.9,3.8-17.7,12.6-20.1c5.8-1.6,11.7-0.2,16,3.4
		c1-3.5,3.8-6.4,7.6-7.5c4.9-1.4,10,0.8,12.5,5c1.2-1.7,2.9-3,5.1-3.6c3.5-1,7.1,0.2,9.3,2.8c3.5-6.6,9.5-11.9,17.3-14.1
		c6.3-1.8,12.6-1.2,18.2,1c0.9-6.8,5.7-12.8,12.8-14.8c2.8-0.8,5.5-0.8,8.2-0.3c0,0,0,0,0-0.1c-1.4-4.9,1.5-9.9,6.3-11.3
		c3.1-0.9,6.2,0,8.5,1.9c2.5-6.4,7.8-11.5,14.9-13.5c7.9-2.2,16.1,0.1,21.6,5.4c2.8-3.2,6.5-5.7,10.9-6.9c12-3.4,24.5,3.6,27.9,15.6
		c1.4,5,1,10-0.8,14.4c8.4,1.3,15.8,7.4,18.2,16.2c2.5,8.9-0.7,18-7.4,23.5c0,0,0,0.1,0,0.1c3.4,11.9-3.5,24.3-15.4,27.8
		c2.7,3.1,4.8,6.8,6,11c4.2,14.9-4.5,30.4-19.4,34.6c-11.4,3.2-23-1.1-29.8-9.9c-1.9,1.7-4.2,2.9-6.8,3.7
		c-7.6,2.1-15.5-1.1-19.6-7.4c-2.2,3.9-5.9,6.9-10.6,8.3c-6.9,1.9-14-0.5-18.4-5.7c-3.4,3.8-8,6.7-13.3,8.2
		c-8.9,2.5-18,0.4-24.8-4.8c-1.1,0.6-2.2,1-3.4,1.4c-8,2.3-16.3-1.4-20.2-8.3c-7.7,1.6-15.4-2.2-19.1-8.9c-0.8,0.5-1.7,0.9-2.7,1.2
		c-4.6,1.3-9.3-0.6-11.9-4.3c0,0,0,0,0,0c-12,3.4-24.5-3.6-27.9-15.6C1005.1,167.5,1012.1,155,1024.1,151.6z"/>
	<path class="st6" d="M1024.1,151.6c0.6-0.2,1.2-0.3,1.9-0.4c-1.6-8.9,3.8-17.7,12.6-20.1c5.8-1.6,11.7-0.2,16,3.4
		c1-3.5,3.8-6.4,7.6-7.5c4.9-1.4,10,0.8,12.5,5c1.2-1.7,2.9-3,5.1-3.6c3.5-1,7.1,0.2,9.3,2.8c3.5-6.6,9.5-11.9,17.3-14.1
		c6.3-1.8,12.6-1.2,18.2,1c0.9-6.8,5.7-12.8,12.8-14.8c2.8-0.8,5.5-0.8,8.2-0.3c0,0,0,0,0-0.1c-1.4-4.9,1.5-9.9,6.3-11.3
		c3.1-0.9,6.2,0,8.5,1.9c2.5-6.4,7.8-11.5,14.9-13.5c7.9-2.2,16.1,0.1,21.6,5.4c2.8-3.2,6.5-5.7,10.9-6.9c12-3.4,24.5,3.6,27.9,15.6
		c1.4,5,1,10-0.8,14.4c8.4,1.3,15.8,7.4,18.2,16.2c2.5,8.9-0.7,18-7.4,23.5c0,0,0,0.1,0,0.1c0.2,0.7,0.4,1.5,0.5,2.2
		c-3,1.3-6,1.8-8.6,0.7c1.7,5.9,0.3,19-14,17.9c0.5,6.2-7.1,19.8-25.2,18.5c-18.1-1.3-19.4-6-21.3-8c-3.4,6-19.1,4.1-18.6-7.5
		c-7.9,3.5-11.4,4.5-13.7-3.8c0.4,15.1-10.5,25.8-20.6,26.1s-23.5-2.3-24.8-15.9c-8.2,2.3-13.9,0.1-14.4-6.1
		c-4,3.7-4.6,6.4-11.2,0.6c5.8,16.1-24.3,22-24.2,4.3c-6.9,7-23.7,1.6-21.6-9.2c-5.4,3.6-13.3,4.4-18.8-3.6
		C1012,158.6,1017.2,153.6,1024.1,151.6z"/>
	<path class="st3" d="M1128.5,109.2c2.2-2.7,5.3-4.9,8.9-5.9c2.8-0.8,5.5-0.8,8.2-0.3c0,0,0,0,0-0.1c-1.4-4.9,1.5-9.9,6.3-11.3
		c3.1-0.9,6.2,0,8.5,1.9c2.5-6.4,7.8-11.5,14.9-13.5c7.9-2.2,16.1,0.1,21.6,5.4c2.8-3.2,6.5-5.7,10.9-6.9c12-3.4,24.5,3.6,27.9,15.6
		c1.4,5,1,10-0.8,14.4c4.5,0.7,8.7,2.8,12,5.9c-2.9,2.4-7.1,4.2-12.1,3.5c-3.9,8.7-19,18-25.3,4.6c-8.9,0-9.6-2.4-10.9-7.1
		c-4.7,1.3-15.8-1.9-13.9-8.8c-7.2-3.1-11.9-1.7-12.7-9.1c-1.5,8-7.9,12.4-15.1,9.3C1157.8,114.7,1136.9,129.9,1128.5,109.2z"/>
	<path class="st3" d="M1024.1,151.6c0.6-0.2,1.2-0.3,1.9-0.4c-1.6-8.9,3.8-17.7,12.6-20.1c5.8-1.6,11.7-0.2,16,3.4
		c1-3.5,3.8-6.4,7.6-7.5c4.9-1.4,10,0.8,12.5,5c1.2-1.7,2.9-3,5.1-3.6c3.5-1,7.1,0.2,9.3,2.8c3.5-6.6,9.5-11.9,17.3-14.1
		c5-1.4,10-1.3,14.7-0.1c2.7,5.6,4.8,11.6,0.5,15.5c6,12.3,5.4,23.8-4,26.5c-9.4,2.6-20.1,0.6-22.1-6.5c-7.6,4.7-17.5-5.9-16.5-11.2
		c-1.8-2-8.7,5-11.1-3.2c-5.2,4-7.2,5.8-11.2,0.6c-1,5.4-5.3,12.9-13.1,7.5c0.1,5-6.8,12-14,9c1.8,6.5-7.5,19.3-17.5,4.9
		C1014.9,156.1,1019.1,153.1,1024.1,151.6z"/>
</g>
<g>
	<path class="st7" d="M627.5,130.2c-1.2-0.1-2.4-0.1-3.7-0.1c-0.4-17.1-13.7-31.5-31.1-32.9c-11.4-0.9-21.9,4.1-28.6,12.3
		c-3.2-6.1-9.5-10.5-16.9-11.1c-9.7-0.7-18.3,5.3-21.4,14.1c-2.8-2.7-6.6-4.6-10.8-4.9c-6.9-0.5-13.1,3-16.4,8.6
		c-8.9-11.1-22.2-18.6-37.5-19.8c-12.4-0.9-24,2.4-33.6,8.8c-4.2-12.5-15.5-21.8-29.4-22.9c-5.4-0.4-10.6,0.5-15.3,2.4
		c0,0,0-0.1,0-0.1c0.7-9.6-6.4-18-16-18.7c-6.1-0.5-11.6,2.2-15.1,6.7c-7-10.9-18.9-18.6-32.9-19.7c-15.6-1.2-29.9,6.2-38.4,18.1
		c-6.4-4.9-14.3-8.2-22.9-8.8c-23.7-1.8-44.3,15.9-46.1,39.6c-0.7,9.8,1.9,19,6.8,26.6c-15.3,5.6-26.7,19.7-28,37
		c-1.3,17.5,8,33.3,22.5,41.1c0,0.1,0,0.1,0,0.2c-1.8,23.5,15.7,44,39.1,46.1c-3.9,6.8-6.4,14.5-7.1,22.8
		c-2.3,29.4,19.8,55.1,49.2,57.4c22.4,1.7,42.6-10.6,52-29.6c4.2,2.4,8.9,3.9,14.1,4.3c15.1,1.2,28.6-7.8,33.9-21.1
		c5.6,6.4,13.6,10.7,22.8,11.5c13.6,1,26-6.2,32.1-17.5c7.8,5.8,17.4,9.6,27.8,10.4c17.6,1.3,33.8-6,44.5-18.3
		c2.2,0.6,4.5,1.1,6.9,1.3c15.8,1.2,29.8-8.7,34.6-23.1c15,0.1,28-9.8,32.3-23.8c1.7,0.6,3.5,1,5.4,1.2c9.1,0.7,17.2-4.5,20.7-12.4
		c0,0,0,0,0.1,0c23.7,1.8,44.3-15.9,46.1-39.6C668.9,152.7,651.2,132,627.5,130.2z"/>
	<path class="st6" d="M627.5,130.2c-1.2-0.1-2.4-0.1-3.7-0.1c-0.4-17.1-13.7-31.5-31.1-32.9c-11.4-0.9-21.9,4.1-28.6,12.3
		c-3.2-6.1-9.5-10.5-16.9-11.1c-9.7-0.7-18.3,5.3-21.4,14.1c-2.8-2.7-6.6-4.6-10.8-4.9c-6.9-0.5-13.1,3-16.4,8.6
		c-8.9-11.1-22.2-18.6-37.5-19.8c-12.4-0.9-24,2.4-33.6,8.8c-4.2-12.5-15.5-21.8-29.4-22.9c-5.4-0.4-10.6,0.5-15.3,2.4
		c0,0,0-0.1,0-0.1c0.7-9.6-6.4-18-16-18.7c-6.1-0.5-11.6,2.2-15.1,6.7c-7-10.9-18.9-18.6-32.9-19.7c-15.6-1.2-29.9,6.2-38.4,18.1
		c-6.4-4.9-14.3-8.2-22.9-8.8c-23.7-1.8-44.3,15.9-46.1,39.6c-0.7,9.8,1.9,19,6.8,26.6c-15.3,5.6-26.7,19.7-28,37
		c-1.3,17.5,8,33.3,22.5,41.1c0,0.1,0,0.1,0,0.2c-0.1,1.5-0.1,2.9-0.1,4.4c6.1,1.3,12,1.1,16.2-2c-0.9,11.6,6.6,35.5,32.8,28.2
		c1.4,11.8,20.7,34.2,54,25.1c33.3-9.1,34-18.4,36.7-22.8c8.6,10,37.2,0.5,31.9-20.9c16,3.6,23,4.1,24.2-12.1
		c4.8,28.3,29.2,44.2,48.1,41c18.9-3.2,42.9-13,40.3-38.9c16.2,1.2,26-5,24.6-16.8c8.9,5.3,10.9,10.2,21.2-3
		c-4.8,32.3,53.5,32.1,46.7-1.1c15.5,10.5,44.7-5.9,36.9-25.1c11.4,4.8,26.5,3.3,33.7-13.6C652.8,138.6,641.2,131.3,627.5,130.2z"/>
	<path class="st3" d="M417,90c-5.2-4.3-11.7-7.1-18.9-7.6c-5.4-0.4-10.6,0.5-15.3,2.4c0,0,0-0.1,0-0.1c0.7-9.6-6.4-18-16-18.7
		c-6.1-0.5-11.6,2.2-15.1,6.7c-7-10.9-18.9-18.6-32.9-19.7c-15.6-1.2-29.9,6.2-38.4,18.1c-6.4-4.9-14.3-8.2-22.9-8.8
		c-23.7-1.8-44.3,15.9-46.1,39.6c-0.7,9.8,1.9,19,6.8,26.6c-8.1,3-15.1,8.4-20.1,15.4c6.4,3.4,14.8,5.2,23.9,1.9
		c10.5,14.8,42.2,26.5,49-0.9c16.6-3.4,16.9-8,17.6-17.3c9.3,0.7,28.7-9.5,22.6-21.6c12.3-8.4,21.6-7.7,20.3-21.7
		c5.9,14.4,19.4,20.1,31.7,11.8C364.3,111.2,409.1,131.8,417,90z"/>
	<path class="st3" d="M627.5,130.2c-1.2-0.1-2.4-0.1-3.7-0.1c-0.4-17.1-13.7-31.5-31.1-32.9c-11.4-0.9-21.9,4.1-28.6,12.3
		c-3.2-6.1-9.5-10.5-16.9-11.1c-9.7-0.7-18.3,5.3-21.4,14.1c-2.8-2.7-6.6-4.6-10.8-4.9c-6.9-0.5-13.1,3-16.4,8.6
		c-8.9-11.1-22.2-18.6-37.5-19.8c-9.8-0.8-19.2,1.2-27.4,5.2c-3,11.4-4.6,23.4,5,29.2c-6.6,25.1-1.2,46.5,17.3,47.9
		s37.8-6.4,38.8-20.3c15.9,5.9,30.5-17.5,26.5-27.1c2.7-4.5,18.2,6.1,19.4-10.2c11.2,5.5,15.7,8.2,21.2-3
		c3.9,9.6,14.6,22.1,27.3,9.1c1.6,9.4,17.1,20,29.4,11.6c-1,12.8,21.2,33.3,34.6,2.6C646.4,135.1,637.5,131,627.5,130.2z"/>
</g>
<g>
	<path class="st5" d="M262.4,286.4c-2.8-0.9-5.6-1.5-8.4-2c11.1-3.6,19.6-10.8,22.7-20.9c6-19.3-10.1-41.3-35.8-49.3
		s-51.4,1.2-57.4,20.5c-0.8,2.5-1.2,5.1-1.2,7.7c-6.2-5.9-14.3-10.7-23.7-13.6c-25.7-8-51.4,1.2-57.4,20.5c-0.7,2.2-1,4.5-1.2,6.7
		c-7.1-15.2-22.9-28.7-43.5-35.1c-21.3-6.6-42.6-4-57.1,5.2v68.1c0.5,0.4,0.9,0.8,1.4,1.2c-0.5,0.2-0.9,0.4-1.4,0.6v75.6
		c6.8,5,14.9,9.1,23.8,11.9c10.3,3.2,20.6,4.2,30.1,3.4c6.4,16.4,22.8,31.1,44.7,37.9c33.1,10.2,66.1-1.6,73.8-26.3
		c0.2-0.6,0.3-1.2,0.4-1.8c0.8,0.3,1.5,0.6,2.3,0.8c25.7,8,51.4-1.2,57.4-20.5c2.8-8.9,0.7-18.5-4.7-26.9c4.1,2.4,8.7,4.5,13.6,6
		c25.7,8,51.4-1.2,57.4-20.5C304.2,316.4,288.2,294.3,262.4,286.4z"/>
	<path class="st4" d="M241,214.2c-25.7-8-51.4,1.2-57.4,20.5c-0.8,2.5-1.2,5.1-1.2,7.7c-6.2-5.9-14.3-10.7-23.7-13.6
		c-25.7-8-51.4,1.2-57.4,20.5c-0.7,2.2-1,4.5-1.2,6.7c-7.1-15.2-22.9-28.7-43.5-35.1c-21.3-6.6-42.6-4-57.1,5.2v50.1
		c11.9,9.5,26.8,15.6,40.5,14.2c-9.6,15.2,4.1,34,36.2,40.3c14,33.4,65.5,23.9,65.2,9.2c16.7,8.8,31.1,9.6,50.9,8.4
		c19.8-1.2,44.4-33.6,35.2-51c10.8,1.9,23-3.4,34.1-11.3c-2.5-0.7-5-1.3-7.5-1.7c11.1-3.6,19.6-10.8,22.7-20.9
		C282.8,244.2,266.7,222.1,241,214.2z"/>
	<path class="st3" d="M183.6,234.7c-0.8,2.5-1.2,5.1-1.2,7.7c-6.2-5.9-14.3-10.7-23.7-13.6c-25.7-8-51.4,1.2-57.4,20.5
		c-0.7,2.2-1,4.5-1.2,6.7c-7.1-15.2-22.9-28.7-43.5-35.1c-15.7-4.8-31.3-4.7-44.3-0.6c-1.8,7.2-2,15.1,3.4,22.6
		C26,257,61.8,282.6,91.2,266.2c15.7,12.1,75.4,23.3,76.8-12.7c12.8,4,65-3.5,50.6-42.1C201.8,212.6,187.8,221.1,183.6,234.7z"/>
</g>
<g>
	<path class="st5" d="M215.1,188.7c-1.1-0.4-2.3-0.6-3.4-0.8c4.5-1.4,8-4.4,9.2-8.5c2.4-7.8-4.1-16.8-14.5-20
		c-10.4-3.2-20.8,0.5-23.3,8.3c-0.3,1-0.5,2.1-0.5,3.1c-2.5-2.4-5.8-4.3-9.6-5.5c-10.4-3.2-20.8,0.5-23.3,8.3
		c-0.3,0.9-0.4,1.8-0.5,2.7c-2.9-6.2-9.3-11.6-17.6-14.2c-13.4-4.1-26.8,0.6-29.9,10.7c-2.1,6.7,1,14.1,7.3,19.5
		c-4.7,2.1-8.2,5.5-9.6,10c-3.1,10,5.3,21.5,18.7,25.7c4.2,1.3,8.3,1.7,12.2,1.4c2.6,6.6,9.2,12.6,18.1,15.4
		c13.4,4.1,26.8-0.6,29.9-10.7c0.1-0.2,0.1-0.5,0.2-0.7c0.3,0.1,0.6,0.2,0.9,0.3c10.4,3.2,20.8-0.5,23.3-8.3
		c1.1-3.6,0.3-7.5-1.9-10.9c1.7,1,3.5,1.8,5.5,2.4c10.4,3.2,20.8-0.5,23.3-8.3C232,200.8,225.5,191.9,215.1,188.7z"/>
	<path class="st4" d="M211.7,187.9c4.5-1.4,8-4.4,9.2-8.5c2.4-7.8-4.1-16.8-14.5-20c-10.4-3.2-20.8,0.5-23.3,8.3
		c-0.3,1-0.5,2.1-0.5,3.1c-2.5-2.4-5.8-4.3-9.6-5.5c-10.4-3.2-20.8,0.5-23.3,8.3c-0.3,0.9-0.4,1.8-0.5,2.7
		c-2.9-6.2-9.3-11.6-17.6-14.2c-13.4-4.1-26.8,0.6-29.9,10.7c-0.3,1-0.5,2-0.6,3c4.1,8.2,14.6,15.5,23.7,14.5
		c-3.9,6.2,1.6,13.8,14.7,16.3c5.7,13.6,26.6,9.7,26.4,3.7c6.8,3.6,12.6,3.9,20.6,3.4s18-13.6,14.3-20.7c4.4,0.8,9.3-1.4,13.8-4.6
		C213.7,188.3,212.7,188.1,211.7,187.9z"/>
	<path class="st3" d="M183.1,167.7c-0.3,1-0.5,2.1-0.5,3.1c-2.5-2.4-5.8-4.3-9.6-5.5c-10.4-3.2-20.8,0.5-23.3,8.3
		c-0.3,0.9-0.4,1.8-0.5,2.7c-2.9-6.2-9.3-11.6-17.6-14.2c-6.4-2-12.7-1.9-17.9-0.3c-0.7,2.9-0.8,6.1,1.4,9.2
		c4.1,5.7,18.7,16.1,30.6,9.5c6.4,4.9,30.6,9.5,31.1-5.1c5.2,1.6,26.3-1.4,20.5-17C190.5,158.8,184.8,162.2,183.1,167.7z"/>
</g>
<g>
	<path class="st5" d="M1279.5,167.4c1.8,1.1,3.7,2.1,5.6,3c-8.5,0.4-16,4-20.1,10.6c-7.8,12.6-0.6,31.2,16.2,41.7
		c16.8,10.5,36.7,8.8,44.6-3.8c1-1.6,1.8-3.4,2.3-5.2c3.3,5.3,8.2,10.3,14.3,14.1c16.8,10.5,36.7,8.8,44.6-3.8
		c0.9-1.4,1.6-3,2.1-4.5c2.2,12.2,10.9,24.7,24.3,33.1c21.6,13.5,47.2,11.3,57.3-4.8c6.8-10.8,4.8-25.2-3.8-37.6
		c9.1-1.4,16.8-5.9,21.4-13.1c10.1-16.2,0.8-40.2-20.8-53.6c-6.7-4.2-13.8-6.9-20.7-8.1c-1.5-12.8-10.3-26.4-24.6-35.3
		c-21.6-13.5-47.2-11.3-57.3,4.8c-0.2,0.4-0.4,0.8-0.6,1.2c-0.5-0.3-1-0.7-1.5-1c-16.8-10.5-36.7-8.8-44.6,3.8c-3.6,5.8-4,13-1.7,20
		c-2.5-2.5-5.3-4.8-8.5-6.8c-16.8-10.5-36.7-8.8-44.6,3.8C1255.5,138.2,1262.8,156.9,1279.5,167.4z"/>
	<path class="st4" d="M1285.1,170.3c-8.5,0.4-16,4-20.1,10.6c-7.8,12.6-0.6,31.2,16.2,41.7c16.8,10.5,36.7,8.8,44.6-3.8
		c1-1.6,1.8-3.4,2.3-5.2c3.3,5.3,8.2,10.3,14.3,14.1c16.8,10.5,36.7,8.8,44.6-3.8c0.9-1.4,1.6-3,2.1-4.5
		c2.2,12.2,10.9,24.7,24.3,33.1c21.6,13.5,47.2,11.3,57.3-4.8c1-1.6,1.8-3.2,2.4-4.9c-3.3-16.2-18.4-33.9-34.8-36.5
		c9.7-9,3.5-24.9-18.1-35.4c-3.6-26.4-42-29.3-44.6-18.8c-10.2-9.4-20.2-12.7-34.5-15.5c-14.3-2.9-37.8,15.5-34.6,29.6
		c-7.3-3.4-17-1.9-26.4,1.6C1281.7,168.7,1283.4,169.6,1285.1,170.3z"/>
	<path class="st3" d="M1325.8,218.9c1-1.6,1.8-3.4,2.3-5.2c3.3,5.3,8.2,10.3,14.3,14.1c16.8,10.5,36.7,8.8,44.6-3.8
		c0.9-1.4,1.6-3,2.1-4.5c2.2,12.2,10.9,24.7,24.3,33.1c10.2,6.4,21.3,9.2,31.3,8.8c2.7-4.8,4.3-10.3,1.8-16.7
		c-4.6-11.9-25.2-36.9-49.2-30.7c-8.9-11.6-49.2-30.7-56.9-5.4c-8.3-5.2-46.8-9.7-43.8,20.4C1308.7,231.1,1320.3,227.7,1325.8,218.9
		z"/>
</g>
<g>
	<path class="st5" d="M1324.3,182.7c-1-0.5-2.1-0.9-3.1-1.3c4.5-0.7,8.3-3,10.1-6.8c3.5-7.2-1.4-16.7-11-21.4
		c-9.6-4.7-20.1-2.6-23.6,4.5c-0.5,0.9-0.8,1.9-0.9,2.9c-2.1-2.7-4.9-5-8.4-6.7c-9.6-4.7-20.1-2.6-23.6,4.5
		c-0.4,0.8-0.7,1.7-0.9,2.5c-1.8-6.4-7.2-12.6-14.9-16.3c-12.3-6-25.9-3.4-30.4,5.8c-3,6.2-1.1,13.8,4.1,19.9
		c-4.8,1.3-8.7,4.1-10.7,8.2c-4.5,9.2,1.8,21.5,14.1,27.5c3.8,1.9,7.8,2.9,11.5,3.2c1.5,6.8,7,13.5,15.1,17.5
		c12.3,6,25.9,3.4,30.4-5.8c0.1-0.2,0.2-0.4,0.3-0.7c0.3,0.2,0.6,0.3,0.9,0.5c9.6,4.7,20.1,2.6,23.6-4.5c1.6-3.3,1.4-7.2-0.2-10.8
		c1.5,1.2,3.1,2.3,5,3.2c9.6,4.7,20.1,2.6,23.6-4.5C1338.8,196.9,1333.9,187.3,1324.3,182.7z"/>
	<path class="st4" d="M1321.2,181.4c4.5-0.7,8.3-3,10.1-6.8c3.5-7.2-1.4-16.7-11-21.4c-9.6-4.7-20.1-2.6-23.6,4.5
		c-0.5,0.9-0.8,1.9-0.9,2.9c-2.1-2.7-4.9-5-8.4-6.7c-9.6-4.7-20.1-2.6-23.6,4.5c-0.4,0.8-0.7,1.7-0.9,2.5
		c-1.8-6.4-7.2-12.6-14.9-16.3c-12.3-6-25.9-3.4-30.4,5.8c-0.4,0.9-0.8,1.8-1,2.8c2.7,8.5,11.8,17.1,20.7,17.5
		c-4.7,5.4-0.5,13.5,11.7,17.9c3.4,13.9,24.1,13.3,24.9,7.6c6,4.5,11.5,5.6,19.3,6.4c7.8,0.7,19.4-10.4,16.8-17.8
		c4.1,1.4,9.2,0.1,14-2.3C1323.1,182.1,1322.1,181.7,1321.2,181.4z"/>
	<path class="st3" d="M1296.7,157.7c-0.5,0.9-0.8,1.9-0.9,2.9c-2.1-2.7-4.9-5-8.4-6.7c-9.6-4.7-20.1-2.6-23.6,4.5
		c-0.4,0.8-0.7,1.7-0.9,2.5c-1.8-6.4-7.2-12.6-14.9-16.3c-5.8-2.8-11.9-3.7-17.2-2.9c-1.2,2.7-1.7,5.8,0,9
		c3.1,6.1,15.6,18.3,28,13.7c5.4,5.7,28,13.7,30.7-0.3c4.8,2.3,25.6,2.6,22.3-13.3C1305.1,150.2,1299.2,152.7,1296.7,157.7z"/>
</g>
</svg>
