<?xml version="1.0" encoding="utf-8"?>
<!-- Generator: Adobe Illustrator 24.0.2, SVG Export Plug-In . SVG Version: 6.00 Build 0)  -->
<svg version="1.1" id="Layer_1" xmlns="http://www.w3.org/2000/svg" xmlns:xlink="http://www.w3.org/1999/xlink" x="0px" y="0px"
	 viewBox="0 0 6523 402" style="enable-background:new 0 0 6523 402;" xml:space="preserve">
<style type="text/css">
	.st0{opacity:0.5;fill:#F5F7FE;}
	.st1{fill:#FFFFFF;}
	.st2{opacity:0.5;fill:#FFFFFF;}
	.st3{opacity:0.5;fill:#B8D1F4;}
</style>
<g>
	<g>
		<g>
			<path class="st0" d="M3226.8,221.9c-116.7-24.2-137.9-12.1-180.3-36.3c-42.4-24.2-100.8-32.2-159.1,0
				c-58.3,32.2-95.5-8.1-169.7-8.1c-47.7,0-58.3,28.2-100.8,28.2c-42.4,0-180.3-52.4-371.2-20.1s-201.5,24.2-254.6,8.1
				s-122,8.1-164.4,8.1c68.9,12.1,145.7,1.4,153.8,44.3c5.3,28.2,37.1,20.1,47.7,12.1c10.6,28.2,68.9,112.8,196.2,64.4
				c5.3,28.2,53,52.4,106.1,24.2c37.1,48.3,206.8,84.6,291.7-12.1c31.8,20.1,148.5,12.1,164.4-40.3c21.2,28.2,116.7,56.4,175,8.1
				c42.4,12.1,53-8.1,53-24.2c21.2,8.1,84.9,4,100.8-28.2C3131.3,217.9,3210.9,217.9,3226.8,221.9z"/>
			<path class="st1" d="M3057.1,185.7c-46-20-82.2-30.2-140.5,2c-58.3,32.2-114-10.1-188.3-10.1c-47.7,0-76.9,42.3-119.3,42.3
				c-42.4,0-132.6-48.3-352.7-34.2c-235.3,15.1-153,180.1-29.2,126.9c120.3-51.8,133.7-32.2,180.3,16.1
				c43.6,45.1,143.2,96.7,249.3-24.2c31.8,20.1,116.7,24.2,132.6-28.2c21.2,28.2,116.7,60.4,175,12.1c42.4,12.1,63.6-12.1,63.6-28.2
				c21.2,8.1,68.6,13.2,79.6-20.1C3112.8,223.9,3094.2,201.8,3057.1,185.7z"/>
		</g>
		<path class="st2" d="M1282.7,5.1v234.2c124.9,34.3,289.7,120.1,408.9,131.7c154,15,239.5-35.3,309.9-95.2
			c13.9-11.8,28.6-24,50.2-30.9c58.5-18.8,126.3,9.2,187.8,24.5c170.1,42.3,392.2-37.8,402.4-145.1c96.3,60,230.5,136.4,367.9,155.3
			c243.7,33.6,459.5-181.9,706.5-205.9c150-14.6,203.3,69.6,353.9,82.5c118.1,10.1,243.5-0.1,353.1,27.3
			c102,25.5,173.5,79.4,236.8,132.4c63.4,53,134.4-38.8,238.9-35.8c139.6,4,244.9-210.9,317.2-274.9H1282.7z"/>
		<path class="st2" d="M5231.5,5.1h-11.3c-5.4,12.8-0.4-27.7,11.9-15.1L5231.5,5.1z"/>
		<path class="st1" d="M1282.7,5.1v53.4c90.4,24.8,238.5,170.1,307.5,214.5c94.8,61,216.7,99.8,271.3,55.6
			c22.9-18.5,37.7-42,72-53.1c46.8-15.1,104.1,0.4,157.6,0.9c83.6,0.8,161.2-42,163.9-90.6c63.2,55.6,216.1,66.5,300.6,21.5
			c33.6-17.9,57.5-42.9,98.6-54.5c108.5-30.6,213,51.5,332.3,62c83.4,7.3,163.8-22.4,221.5-58.1c57.7-35.7,102-78.6,165.6-110.8
			c36.6-18.5,79.1-32.1,124.6-40.8H1282.7z"/>
		<path class="st1" d="M5231.5,5.1H3765.3c72.1,13.5,137.5,38,184.4,72.9c47.5,35.3,77.6,78.8,135.3,108.7
			c92.3,47.7,248.6,45.5,336.6-4.9c20.7,51.7,57.9,104.8,132.7,135.4s177.6-10.1,220.9-58.2c140.5-156.2,153-39.4,219.9-76
			c131.7-72,102.7-159,237-178L5231.5,5.1z"/>
		<g>
			<path class="st3" d="M1831.3,299c-8.1-12.9-22.1-24-38-34.4c-3.2-1.2-6.5-2.4-9.7-3.6L1831.3,299z"/>
			<path class="st3" d="M1910.4,5.1c-34.7,11.7-67.7,25-98.3,40.3c-83.5,41.7-147.4,110.2-95.9,165.8c18.8,20.3,50.6,36,77.2,53.4
				c127.4,46.3,286.1,65,436,51.2c101.2-9.3,211.8-42.7,224.5-99.7c56,24.5,154.2-5.1,148.6-44.7c38.2,34.9,134.6,43.8,190.8,17.6
				c49.3-23,61.4-62.8,102.1-90.5c44.3-30.2,123.6-42.5,189.3-29.4c52.3,10.4,93.6,34.7,147,43.3c70.2,11.3,152.4-10.6,181.1-48.2
				c15.6,22.3,34,44.8,60.4,63.5V5.1H1910.4z"/>
			<path class="st3" d="M1928.9,305.9c-8.1-12.9-22.1-24-38-34.4c-3.2-1.2-6.5-2.4-9.7-3.6L1928.9,305.9z"/>
			<path class="st3" d="M2028.9,5.1c-42.5,13.3-82.6,28.8-119.3,47.1c-83.5,41.7-147.4,110.2-95.9,165.8
				c18.8,20.3,50.6,36,77.2,53.4c127.4,46.3,286.1,65,436,51.2c101.2-9.3,211.8-42.7,224.5-99.7c56,24.5,154.2-5.1,148.6-44.7
				c38.2,34.9,134.6,43.8,190.8,17.6c49.3-23,61.4-62.8,102.1-90.5c44.3-30.2,123.6-42.5,189.3-29.4c52.3,10.4,93.6,34.7,147,43.3
				c49.7,8,105.5-0.6,144-19.7V5.1H2028.9z"/>
		</g>
		<g>
			<path class="st0" d="M4912.5,218.3c-71.2-14.7-84.1-7.4-110-22.1c-25.9-14.7-61.5-19.7-97.1,0c-35.6,19.7-58.2-4.9-103.6-4.9
				c-29.1,0-35.6,17.2-61.5,17.2c-25.9,0-110-32-226.5-12.3c-116.5,19.7-123,14.7-155.3,4.9c-32.4-9.8-74.4,4.9-100.3,4.9
				c42.1,7.4,88.9,0.8,93.8,27c3.2,17.2,22.7,12.3,29.1,7.4c6.5,17.2,42.1,68.8,119.7,39.3c3.2,17.2,32.4,32,64.7,14.7
				c22.7,29.5,126.2,51.6,178-7.4c19.4,12.3,90.6,7.4,100.3-24.6c12.9,17.2,71.2,34.4,106.8,4.9c25.9,7.4,32.4-4.9,32.4-14.7
				c12.9,4.9,51.8,2.5,61.5-17.2S4902.8,215.9,4912.5,218.3z"/>
			<path class="st1" d="M4809,196.2c-28.1-12.2-50.2-18.4-85.8,1.2c-35.6,19.7-69.6-6.1-114.9-6.1c-29.1,0-46.9,25.8-72.8,25.8
				s-80.9-29.5-215.2-20.9c-143.6,9.2-93.4,109.9-17.8,77.4c73.4-31.6,81.6-19.6,110,9.8c26.6,27.5,87.4,59,152.1-14.7
				c19.4,12.3,71.2,14.7,80.9-17.2c12.9,17.2,71.2,36.9,106.8,7.4c25.9,7.4,38.8-7.4,38.8-17.2c12.9,4.9,41.8,8.1,48.5-12.3
				C4842.9,219.6,4831.6,206,4809,196.2z"/>
		</g>
		<g>
			<path class="st3" d="M4665.4,150.4C4508.6,95.5,4344,48.4,4175.9,5.1h-980.7v39.3c10,6.8,21,13.1,33.5,18.6
				c47.1,20.9,118.6,27.9,167.2,8.1c-29.3,35.7,11.4,79.8,72.1,99.5c60.6,19.7,134.5,20.9,204.6,19.3c70.1-1.6,142-5.2,208.9,6.4
				c71.2,12.4,114.9,30.8,137,61.4c22.1,30.5,80.3,48.2,137.7,41.2c20.8-2.5,38.6-7.2,50-16.1c-11.5,37.9,54,76.7,122.3,72.4
				s116.6-50.3,90.3-85.9c67.5,13.5,130.5,35.3,201.5,41c70.9,5.7,156.2-11.7,174-50.6C4815,214.3,4736.4,175.3,4665.4,150.4z"/>
			<path class="st3" d="M3195.2,5.1v8c4.8-2.5,9.3-5.2,13.5-8H3195.2z"/>
			<path class="st3" d="M4762.9,157.2c-165.1-57.8-338.8-107-516.1-152.1H3244c19.7,24.7,44.7,48.1,82.2,64.7
				c47.1,20.9,118.6,27.9,167.2,8.1c-29.3,35.7,11.4,79.8,72.1,99.5c60.6,19.7,134.5,20.9,204.6,19.3c70.1-1.6,142-5.2,208.9,6.4
				c71.2,12.4,114.9,30.8,137,61.4c22.1,30.5,80.3,48.2,137.7,41.2c20.8-2.5,38.6-7.2,50-16.1c-11.5,37.9,54,76.7,122.3,72.4
				s116.6-50.3,90.3-85.9c67.5,13.5,130.5,35.3,201.5,41c70.9,5.7,156.2-11.7,174-50.6C4912.6,221.2,4833.9,182.1,4762.9,157.2z"/>
		</g>
		<path class="st2" d="M5236-12l-17.2,17.1H3347.3c28.1,21.3,33.8,39.1,42.8,53.1c18.8,29.3,73.7,66.4,193.5,63
			c170.6-4.9,176.2,61.2,191.6,87.4c48.8,83.1,195,141.1,357.5,100.1c98.9-24.9,148.9-74.5,169.6-134.1c45.1,33,77,89.4,141.2,110.2
			c77.2,25,193-13.7,193-13.7s61.6,31.1,108.3,26.8c194.9-18,259.8-251.5,333.1-204c45.7,29.6,77.8-57.1,153.5-88.1L5236-12z"/>
		<path class="st1" d="M5231.5,5.1h-31.7c-11.9,2-19.6,2.4-20.7,0H3057c103.5,51.7,249.1,113.9,318.6,87.1
			c91.2-35.1,115.6-13,180.4,14c46.1,19.3,140.4-17.5,176.9,7.4c19.5,13.3,24.2,31.3,32.2,47.9c30.6,63.4,127.3,117.3,243.3,126.4
			c116,9.1,242.1-32.7,271.3-96.3c55.5,32.1,113.3,74.2,191.6,77.3c103.7,4.1,178-62.6,197.2-105.9c46.1,50,83.6,62.5,144.8,64
			c81.6,2,135.9-47.7,164.6-73c105.3-93,176.4-123,254.1-149L5231.5,5.1z"/>
		<path class="st2" d="M3659.1,128.9l-366.5-94.1l-1.2,2.7L3165.4,5.1H1282.7v248.6c84.7-15.2,181.4-16.3,276.3-6.3
			c95.4,10.1,190.4,28.5,285.8,38.3c244.6,25,239-75.5,239-75.5s64.5,9.3,129.4,14.2c58.2,4.3,113.4-6.1,158.2-23
			c51.4-19.4,88-49.7,139.4-69.2c93.4-35.4,234.3-28.7,342.1,16.3c81.9,34.2,160.6,91.2,249.5,86c32.4-1.9,58.9-13.3,89.9-17
			c197.7-23.7,203.1,123.3,325,77.5c50.1-18.8,47.6-76,18.9-111.3c38.7,36.2,51.5,22.7,101.8,2.4
			C3674.2,171.5,3664.8,150.7,3659.1,128.9z"/>
		<path class="st1" d="M3292.6,34.8l-1.2,2.7L3165.4,5.1H1282.7v218.2c203.3-34.9,550.9,64.6,710.5,29.1
			c57.7-12.8,73-58.1,50.8-107.2c63.6,24.3,111.5,44.8,178.5,40c67-4.8,110.1-40.2,118.8-85.1c17.3,49.1,111.5,97.5,183.5,92.4
			c84.2-6,104.3-51.3,149.7-88.3c26.4-21.5,116.3-63.8,218.6,7.5c46.4,32.3,55.2,59.8,120.8,85.1c75.1,28.9,156.1,3.4,181.3-28.3
			c107.8,77.3,231.6-18,368.4-26.3c79.4-4.9,96.7-0.4,239.6,25.5c8,1.5,15.5,2.8,22.6,4.2L3292.6,34.8z"/>
		<g>
			<path class="st2" d="M3418.3,47.7c-131.6-14.7-157.7,80.4-97.7,106.3c25.5,11,59.5,11,84.9,0c-4.2,55,106.2,179.6,229.3,73.3
				c76.4,88,216.6,62.3,242.1-51.3c89.2,66,140.1-3.7,127.4-51.3c29.7,36.7,127.4,22,127.4-36.7c29.7,22,12.7-29.3,118.9-40.3
				c-76.4,0-229.3,11-373.7-11s-212.3-40.3-254.8,0C3579.7,77.1,3486.2,55.3,3418.3,47.7z"/>
			<path class="st1" d="M3452.3,29.4c-182.6-3.7-151.7,114.2-55.2,117.3c114.7,3.7,178.4,165,280.3,62.3
				c21.2,62.3,169.2,74.1,182.6-7.3c97.7,36.7,199.6-25.7,165.6-106.3c29.7,22,51-25.7,225.7-48.4c-76.4,0-255.5,26.4-399.9,4.4
				S3665.3-4.4,3622.8,36S3520.7,30.8,3452.3,29.4z"/>
		</g>
	</g>
	<g>
		<path class="st2" d="M46.6,5.1L46,5C190.3-6.1,203.9,143.5,351.9,156.1c118.1,10.1,243.5-0.1,353.1,27.3
			c102,25.5,173.5,79.4,236.8,132.4c63.4,53,131.8,89.3,235,76.2C1364,368.2,1425.7,69.1,1498,5.1H46.6z"/>
		<path class="st2" d="M1513.3,5.1H1502c-5.4,12.8-0.9,25.5,11.3,38.1V5.1z"/>
		<path class="st1" d="M1513.3,5.1H47.1c72.1,13.5,137.5,38,184.4,72.9c47.5,35.3,77.6,78.8,135.3,108.7
			c92.3,47.7,248.6,45.5,336.6-4.9c20.7,51.7,57.9,104.8,132.7,135.4c74.8,30.6,194.6,28.2,243.6-16.7
			C1226.8,391,1350.6,340,1402,291c67.8-64.7,39.4-46.8,111.4-101.1V5.1z"/>
		<g>
			<path class="st0" d="M1194.3,218.3c-71.2-14.7-84.1-7.4-110-22.1c-25.9-14.7-61.5-19.7-97.1,0s-58.2-4.9-103.6-4.9
				c-29.1,0-35.6,17.2-61.5,17.2s-110-32-226.5-12.3s-123,14.7-155.3,4.9C408,191.3,365.9,206,340,206c42.1,7.4,88.9,0.8,93.8,27
				c3.2,17.2,22.7,12.3,29.1,7.4c6.5,17.2,42.1,68.8,119.7,39.3c3.2,17.2,32.4,32,64.7,14.7c22.7,29.5,126.2,51.6,178-7.4
				c19.4,12.3,90.6,7.4,100.3-24.6c12.9,17.2,71.2,34.4,106.8,4.9c25.9,7.4,32.4-4.9,32.4-14.7c12.9,4.9,51.8,2.5,61.5-17.2
				S1184.6,215.9,1194.3,218.3z"/>
			<path class="st1" d="M1090.8,196.2c-28.1-12.2-50.2-18.4-85.8,1.2s-69.6-6.1-114.9-6.1c-29.1,0-46.9,25.8-72.8,25.8
				s-80.9-29.5-215.2-20.9c-143.6,9.2-93.4,109.9-17.8,77.4c73.4-31.6,81.6-19.6,110,9.8c26.6,27.5,87.4,59,152.1-14.7
				c19.4,12.3,71.2,14.7,80.9-17.2c12.9,17.2,71.2,36.9,106.8,7.4c25.9,7.4,38.8-7.4,38.8-17.2c12.9,4.9,41.8,8.1,48.5-12.3
				C1124.8,219.6,1113.4,206,1090.8,196.2z"/>
		</g>
		<g>
			<path class="st3" d="M947.2,150.4C790.4,95.5,625.8,48.4,457.7,5.1H46.6L47,36c-70,50,65.6,151.5,116.3,160.4
				c71.2,12.4,114.9,30.8,137,61.4c22.1,30.5,80.3,48.2,137.7,41.2c20.8-2.5,38.6-7.2,50-16.1c-11.5,37.9,54,76.7,122.3,72.4
				c68.3-4.3,116.6-50.3,90.3-85.9c67.5,13.5,130.5,35.3,201.5,41c70.9,5.7,156.2-11.7,174-50.6
				C1096.9,214.3,1018.2,175.3,947.2,150.4z"/>
			<path class="st3" d="M1044.7,157.2C879.6,99.5,705.9,50.3,528.6,5.1H46.6L46,5c15.5,0.1-2.3,47.3,13,47
				c70.1-1.6,134.9,139.5,201.8,151.2c71.2,12.4,114.9,30.8,137,61.4c22.1,30.5,80.3,48.2,137.7,41.2c20.8-2.5,38.6-7.2,50-16.1
				c-11.5,37.9,54,76.7,122.3,72.4s116.6-50.3,90.3-85.9c67.5,13.5,130.5,35.3,201.5,41c70.9,5.7,156.2-11.7,174-50.6
				C1194.4,221.2,1115.7,182.1,1044.7,157.2z"/>
		</g>
		<path class="st2" d="M1500.6,5.1H46.6L79,5c-44,39-2.5,153.3,5,169c40.8,85,162.1,90.6,341,64c67.1-10,82.9,76,159.2-63.4
			c45.1,33,77,89.4,141.2,110.2c77.2,25,193-13.7,193-13.7s52.6,64.3,99.1,69.8c176.4,21,229.5-141.5,302.8-94
			c45.7,29.6,117.3-20.1,193-51.1V24.8L1500.6,5.1z"/>
		<path class="st1" d="M1481.7,5.1c-11.9,2-19.6,2.4-20.7,0H46.6L46,5c3.3,1.2,172,77.1,256.6,167c52.7,56,185.6,93,259,19.6
			c55.5,32.1,114.8,65.4,191.6,77.3c76.8,11.9,175.1-7.5,194.3-50.8c5.8,35.5,81.9,89.1,142.5,95.9c89.5,10,142.2-27.6,167.2-55
			c103.9,63.2,187.8,25.8,256.2-39.6V5.1H1481.7z"/>
		<g>
			<path class="st2" d="M158.8,36.7C93.8,26.8,111.7,3.4,73,0L29,5c-85,55,112.6,247.6,129.8,171c89.2,66,140.1-3.7,127.4-51.3
				c29.7,36.7,127.4,22,127.4-36.7c29.7,22,12.7-29.3,118.9-40.3C456,47.7,303.2,58.7,158.8,36.7z"/>
			<path class="st1" d="M533.1,47c-76.4,0-262.6-14-407-36C70.2,2.5,97.5,4,87,4l5,10c-45,25-56.5,138.2,49.8,187.7
				C234.6,245,341.4,176,307.4,95.4C337.1,117.4,358.4,69.7,533.1,47z"/>
		</g>
	</g>
	<g>
		<g>
			<path class="st0" d="M4513.8,221.9c-116.7-24.2-137.9-12.1-180.3-36.3c-42.4-24.2-100.8-32.2-159.1,0s-95.5-8.1-169.7-8.1
				c-47.7,0-58.3,28.2-100.8,28.2c-42.4,0-180.3-52.4-371.2-20.1s-201.5,24.2-254.6,8.1s-122,8.1-164.4,8.1
				c68.9,12.1,145.7,1.4,153.8,44.3c5.3,28.2,37.1,20.1,47.7,12.1c10.6,28.2,68.9,112.8,196.2,64.4c5.3,28.2,53,52.4,106.1,24.2
				c37.1,48.3,206.8,84.6,291.7-12.1c31.8,20.1,148.5,12.1,164.4-40.3c21.2,28.2,116.7,56.4,175,8.1c42.4,12.1,53-8.1,53-24.2
				c21.2,8.1,84.9,4,100.8-28.2S4497.9,217.9,4513.8,221.9z"/>
			<path class="st1" d="M4344.1,185.7c-46-20-82.2-30.2-140.5,2s-114-10.1-188.3-10.1c-47.7,0-76.9,42.3-119.3,42.3
				c-42.4,0-132.6-48.3-352.7-34.2c-235.3,15.1-153,180.1-29.2,126.9c120.3-51.8,133.7-32.2,180.3,16.1
				c43.6,45.1,143.2,96.7,249.3-24.2c31.8,20.1,116.7,24.2,132.6-28.2c21.2,28.2,116.7,60.4,175,12.1c42.4,12.1,63.6-12.1,63.6-28.2
				c21.2,8.1,68.6,13.2,79.6-20.1C4399.8,223.9,4381.2,201.8,4344.1,185.7z"/>
		</g>
		<path class="st2" d="M2569.7,5.1v234.2c124.9,34.3,289.7,120.1,408.9,131.7c154,15,239.5-35.3,309.9-95.2
			c13.9-11.8,28.6-24,50.2-30.9c58.5-18.8,126.3,9.2,187.8,24.5c170.1,42.3,392.2-37.8,402.4-145.1c96.3,60,230.5,136.4,367.9,155.3
			c243.7,33.6,459.5-181.9,706.5-205.9c150-14.6,203.3,69.6,353.9,82.5c118.1,10.1,243.5-0.1,353.1,27.3
			c102,25.5,173.5,79.4,236.8,132.4c63.4,53,136.5-96.7,241-99.8c301-9,383-147,205-216L2569.7,5.1z"/>
		<path class="st2" d="M6518.5,5.1"/>
		<path class="st1" d="M2569.7,5.1v53.4c90.4,24.8,238.5,170.1,307.5,214.5c94.8,61,216.7,99.8,271.3,55.6
			c22.9-18.5,37.7-42,72-53.1c46.8-15.1,104.1,0.4,157.6,0.9c83.6,0.8,161.2-42,163.9-90.6c63.2,55.6,216.1,66.5,300.6,21.5
			c33.6-17.9,57.5-42.9,98.6-54.5c108.5-30.6,213,51.5,332.3,62c83.4,7.3,163.8-22.4,221.5-58.1c57.7-35.7,102-78.6,165.6-110.8
			c36.6-18.5,79.1-32.1,124.6-40.8H2569.7z"/>
		<path class="st1" d="M6393.5,0H4927.3c197.1,18.6,262.5,43.1,309.4,78c47.5,35.3,77.6,78.8,135.3,108.7
			c92.3,47.7,248.6,45.5,336.6-4.9c20.7,51.7,57.9,104.8,132.7,135.4s177.6-10.1,220.9-58.2c140.5-156.2,145-90.5,219.9-76
			C6375,201,6396,13,6271,0H6393.5z"/>
		<g>
			<path class="st3" d="M3118.3,299c-8.1-12.9-22.1-24-38-34.4c-3.2-1.2-6.5-2.4-9.7-3.6L3118.3,299z"/>
			<path class="st3" d="M3197.4,5.1c-34.7,11.7-67.7,25-98.3,40.3c-83.5,41.7-147.4,110.2-95.9,165.8c18.8,20.3,50.6,36,77.2,53.4
				c127.4,46.3,286.1,65,436,51.2c101.2-9.3,211.8-42.7,224.5-99.7c56,24.5,154.2-5.1,148.6-44.7c38.2,34.9,134.6,43.8,190.8,17.6
				c49.3-23,61.4-62.8,102.1-90.5c44.3-30.2,123.6-42.5,189.3-29.4c52.3,10.4,93.6,34.7,147,43.3c70.2,11.3,152.4-10.6,181.1-48.2
				c15.6,22.3,34,44.8,60.4,63.5V5.1H3197.4z"/>
			<path class="st3" d="M3215.9,305.9c-8.1-12.9-22.1-24-38-34.4c-3.2-1.2-6.5-2.4-9.7-3.6L3215.9,305.9z"/>
			<path class="st3" d="M3315.9,5.1c-42.5,13.3-82.6,28.8-119.3,47.1c-83.5,41.7-147.4,110.2-95.9,165.8
				c18.8,20.3,50.6,36,77.2,53.4c127.4,46.3,286.1,65,436,51.2c101.2-9.3,211.8-42.7,224.5-99.7c56,24.5,154.2-5.1,148.6-44.7
				c38.2,34.9,134.6,43.8,190.8,17.6c49.3-23,61.4-62.8,102.1-90.5c44.3-30.2,123.6-42.5,189.3-29.4c52.3,10.4,93.6,34.7,147,43.3
				c49.7,8,105.5-0.6,144-19.7V5.1H3315.9z"/>
		</g>
		<g>
			<path class="st0" d="M6199.5,218.3c-71.2-14.7-84.1-7.4-110-22.1c-25.9-14.7-61.5-19.7-97.1,0c-35.6,19.7-58.2-4.9-103.6-4.9
				c-29.1,0-35.6,17.2-61.5,17.2c-25.9,0-110-32-226.5-12.3c-116.5,19.7-123,14.7-155.3,4.9c-32.4-9.8-74.4,4.9-100.3,4.9
				c42.1,7.4,88.9,0.8,93.8,27c3.2,17.2,22.7,12.3,29.1,7.4c6.5,17.2,42.1,68.8,119.7,39.3c3.2,17.2,32.4,32,64.7,14.7
				c22.7,29.5,126.2,51.6,178-7.4c19.4,12.3,90.6,7.4,100.3-24.6c12.9,17.2,71.2,34.4,106.8,4.9c25.9,7.4,32.4-4.9,32.4-14.7
				c12.9,4.9,51.8,2.5,61.5-17.2S6189.8,215.9,6199.5,218.3z"/>
			<path class="st1" d="M6096,196.2c-28.1-12.2-50.2-18.4-85.8,1.2c-35.6,19.7-69.6-6.1-114.9-6.1c-29.1,0-46.9,25.8-72.8,25.8
				s-80.9-29.5-215.2-20.9c-143.6,9.2-93.4,109.9-17.8,77.4c73.4-31.6,81.6-19.6,110,9.8c26.6,27.5,87.4,59,152.1-14.7
				c19.4,12.3,71.2,14.7,80.9-17.2c12.9,17.2,71.2,36.9,106.8,7.4c25.9,7.4,38.8-7.4,38.8-17.2c12.9,4.9,41.8,8.1,48.5-12.3
				C6129.9,219.6,6118.6,206,6096,196.2z"/>
		</g>
		<g>
			<path class="st3" d="M5952.4,150.4C5795.6,95.5,5631,48.4,5462.9,5.1h-980.7v39.3c10,6.8,21,13.1,33.5,18.6
				c47.1,20.9,118.6,27.9,167.2,8.1c-29.3,35.7,11.4,79.8,72.1,99.5s134.5,20.9,204.6,19.3c70.1-1.6,142-5.2,208.9,6.4
				c71.2,12.4,114.9,30.8,137,61.4c22.1,30.5,80.3,48.2,137.7,41.2c20.8-2.5,38.6-7.2,50-16.1c-11.5,37.9,54,76.7,122.3,72.4
				s116.6-50.3,90.3-85.9c67.5,13.5,130.5,35.3,201.5,41c70.9,5.7,156.2-11.7,174-50.6C6102,214.3,6023.4,175.3,5952.4,150.4z"/>
			<path class="st3" d="M4482.2,5.1v8c4.8-2.5,9.3-5.2,13.5-8H4482.2z"/>
			<path class="st3" d="M6049.9,157.2c-165.1-57.8-338.8-107-516.1-152.1H4531c19.7,24.7,44.7,48.1,82.2,64.7
				c47.1,20.9,118.6,27.9,167.2,8.1c-29.3,35.7,11.4,79.8,72.1,99.5s134.5,20.9,204.6,19.3c70.1-1.6,142-5.2,208.9,6.4
				c71.2,12.4,114.9,30.8,137,61.4c22.1,30.5,80.3,48.2,137.7,41.2c20.8-2.5,38.6-7.2,50-16.1c-11.5,37.9,54,76.7,122.3,72.4
				s116.6-50.3,90.3-85.9c67.5,13.5,130.5,35.3,201.5,41c70.9,5.7,156.2-11.7,174-50.6C6199.6,221.2,6120.9,182.1,6049.9,157.2z"/>
		</g>
		<path class="st2" d="M4634.3,5.1c28.1,21.3,33.8,39.1,42.8,53.1c18.8,29.3,73.7,66.4,193.5,63c170.6-4.9,176.2,61.2,191.6,87.4
			c48.8,83.1,195,141.1,357.5,100.1c98.9-24.9,148.9-74.5,169.6-134.1c45.1,33,77,89.4,141.2,110.2c77.2,25,193-13.7,193-13.7
			s61.6,31.1,108.3,26.8c194.9-18,259.8-251.5,333.1-204c45.7,29.6,61-77-59-89L4634.3,5.1z"/>
		<path class="st1" d="M6328.9,5.1c146.1,2,138.4,2.4,137.3,0H4344c103.5,51.7,249.1,113.9,318.6,87.1c91.2-35.1,115.6-13,180.4,14
			c46.1,19.3,140.4-17.5,176.9,7.4c19.5,13.3,24.2,31.3,32.2,47.9c30.6,63.4,127.3,117.3,243.3,126.4s242.1-32.7,271.3-96.3
			c55.5,32.1,113.3,74.2,191.6,77.3c103.7,4.1,178-62.6,197.2-105.9c46.1,50,83.6,62.5,144.8,64c81.6,2,135.9-47.7,164.6-73
			c105.3-93,176.4-123,96.1-149L6328.9,5.1z"/>
		<path class="st2" d="M4946.1,128.9l-366.5-94.1l-1.2,2.7L4452.4,5.1H2569.7v248.6c84.7-15.2,181.4-16.3,276.3-6.3
			c95.4,10.1,190.4,28.5,285.8,38.3c244.6,25,239-75.5,239-75.5s64.5,9.3,129.4,14.2c58.2,4.3,113.4-6.1,158.2-23
			c51.4-19.4,88-49.7,139.4-69.2c93.4-35.4,234.3-28.7,342.1,16.3c81.9,34.2,160.6,91.2,249.5,86c32.4-1.9,58.9-13.3,89.9-17
			c197.7-23.7,203.1,123.3,325,77.5c50.1-18.8,47.6-76,18.9-111.3c38.7,36.2,51.5,22.7,101.8,2.4
			C4961.2,171.5,4951.8,150.7,4946.1,128.9z"/>
		<path class="st1" d="M4579.6,34.8l-1.2,2.7L4452.4,5.1H2569.7v218.2c203.3-34.9,550.9,64.6,710.5,29.1
			c57.7-12.8,73-58.1,50.8-107.2c63.6,24.3,111.5,44.8,178.5,40c67-4.8,110.1-40.2,118.8-85.1c17.3,49.1,111.5,97.5,183.5,92.4
			c84.2-6,104.3-51.3,149.7-88.3c26.4-21.5,116.3-63.8,218.6,7.5c46.4,32.3,55.2,59.8,120.8,85.1c75.1,28.9,156.1,3.4,181.3-28.3
			c107.8,77.3,231.6-18,368.4-26.3c79.4-4.9,96.7-0.4,239.6,25.5c8,1.5,15.5,2.8,22.6,4.2L4579.6,34.8z"/>
		<g>
			<path class="st2" d="M4705.3,47.7c-131.6-14.7-157.7,80.4-97.7,106.3c25.5,11,59.5,11,84.9,0c-4.2,55,106.2,179.6,229.3,73.3
				c76.4,88,216.6,62.3,242.1-51.3c89.2,66,140.1-3.7,127.4-51.3c29.7,36.7,127.4,22,127.4-36.7c29.7,22,12.7-29.3,118.9-40.3
				c-76.4,0-229.3,11-373.7-11c-144.4-22-212.3-40.3-254.8,0C4866.7,77.1,4773.2,55.3,4705.3,47.7z"/>
			<path class="st1" d="M4739.3,29.4c-182.6-3.7-151.7,114.2-55.2,117.3c114.7,3.7,178.4,165,280.3,62.3
				c21.2,62.3,169.2,74.1,182.6-7.3c97.7,36.7,199.6-25.7,165.6-106.3c29.7,22,51-25.7,225.7-48.4c-76.4,0-255.5,26.4-399.9,4.4
				S4952.3-4.4,4909.8,36C4867.4,76.3,4807.7,30.8,4739.3,29.4z"/>
		</g>
	</g>
	<g>
		<path class="st2" d="M1292.6,5.1L1292,5c144.3-11.1,198.9,138.5,346.9,151.1c118.1,10.1,243.5-0.1,353.1,27.3
			c102,25.5,173.5,79.4,236.8,132.4c63.4,53,131.8,89.3,235,76.2C2651,368.2,2712.7,69.1,2785,5.1H1292.6z"/>
		<path class="st2" d="M2800.3,5.1H2789c-5.4,12.8-0.9,25.5,11.3,38.1V5.1z"/>
		<path class="st1" d="M2800.3,5.1H1334.1c72.1,13.5,137.5,38,184.4,72.9c47.5,35.3,77.6,78.8,135.3,108.7
			c92.3,47.7,248.6,45.5,336.6-4.9c20.7,51.7,57.9,104.8,132.7,135.4c74.8,30.6,194.6,28.2,243.6-16.7
			C2513.8,391,2637.6,340,2689,291c67.8-64.7,39.4-46.8,111.4-101.1V5.1z"/>
		<g>
			<path class="st0" d="M2481.3,218.3c-71.2-14.7-84.1-7.4-110-22.1c-25.9-14.7-61.5-19.7-97.1,0s-58.2-4.9-103.6-4.9
				c-29.1,0-35.6,17.2-61.5,17.2s-110-32-226.5-12.3c-116.5,19.7-123,14.7-155.3,4.9c-32.4-9.8-74.4,4.9-100.3,4.9
				c42.1,7.4,88.9,0.8,93.8,27c3.2,17.2,22.7,12.3,29.1,7.4c6.5,17.2,42.1,68.8,119.7,39.3c3.2,17.2,32.4,32,64.7,14.7
				c22.7,29.5,126.2,51.6,178-7.4c19.4,12.3,90.6,7.4,100.3-24.6c12.9,17.2,71.2,34.4,106.8,4.9c25.9,7.4,32.4-4.9,32.4-14.7
				c12.9,4.9,51.8,2.5,61.5-17.2C2423.1,215.9,2471.6,215.9,2481.3,218.3z"/>
			<path class="st1" d="M2377.8,196.2c-28.1-12.2-50.2-18.4-85.8,1.2c-35.6,19.7-69.6-6.1-114.9-6.1c-29.1,0-46.9,25.8-72.8,25.8
				c-25.9,0-80.9-29.5-215.2-20.9c-143.6,9.2-93.4,109.9-17.8,77.4c73.4-31.6,81.6-19.6,110,9.8c26.6,27.5,87.4,59,152.1-14.7
				c19.4,12.3,71.2,14.7,80.9-17.2c12.9,17.2,71.2,36.9,106.8,7.4c25.9,7.4,38.8-7.4,38.8-17.2c12.9,4.9,41.8,8.1,48.5-12.3
				C2411.8,219.6,2400.4,206,2377.8,196.2z"/>
		</g>
		<g>
			<path class="st3" d="M2234.2,150.4c-156.8-54.9-321.4-102-489.5-145.3h-452.1v42.5c53.4-1.2,107,139.9,157.7,148.7
				c71.2,12.4,114.9,30.8,137,61.4c22.1,30.5,80.3,48.2,137.7,41.2c20.8-2.5,38.6-7.2,50-16.1c-11.5,37.9,54,76.7,122.3,72.4
				c68.3-4.3,116.6-50.3,90.3-85.9c67.5,13.5,130.5,35.3,201.5,41c70.9,5.7,156.2-11.7,174-50.6
				C2383.9,214.3,2305.2,175.3,2234.2,150.4z"/>
			<path class="st3" d="M2331.7,157.2c-165.1-57.8-338.8-107-516.1-152.1h-522.9L1292,5c15.5,0.1,38.7,47.3,54,47
				c70.1-1.6,134.9,139.5,201.8,151.2c71.2,12.4,114.9,30.8,137,61.4c22.1,30.5,80.3,48.2,137.7,41.2c20.8-2.5,38.6-7.2,50-16.1
				c-11.5,37.9,54,76.7,122.3,72.4s116.6-50.3,90.3-85.9c67.5,13.5,130.5,35.3,201.5,41c70.9,5.7,156.2-11.7,174-50.6
				C2481.4,221.2,2402.7,182.1,2331.7,157.2z"/>
		</g>
		<path class="st2" d="M2787.6,5.1H1292.6L1292,20c36.9,20.4,71.5,138.3,79,154c40.8,85,162.1,90.6,341,64
			c67.1-10,82.9,76,159.2-63.4c45.1,33,77,89.4,141.2,110.2c77.2,25,193-13.7,193-13.7s52.6,64.3,99.1,69.8
			c176.4,21,229.5-141.5,302.8-94c45.7,29.6,117.3-20.1,193-51.1V24.8L2787.6,5.1z"/>
		<path class="st1" d="M2768.7,5.1c-11.9,2-19.6,2.4-20.7,0H1292.6L1292,5c3.3,1.2,213,77.1,297.6,167c52.7,56,185.6,93,259,19.6
			c55.5,32.1,114.8,65.4,191.6,77.3c76.8,11.9,175.1-7.5,194.3-50.8c5.8,35.5,81.9,89.1,142.5,95.9c89.5,10,142.2-27.6,167.2-55
			c103.9,63.2,187.8,25.8,256.2-39.6V5.1H2768.7z"/>
		<g>
			<path class="st2" d="M1445.8,36.7c-65-9.9-114.5-19.1-153.1-22.5v24.8c66.7,11.2,136,213.6,153.1,137
				c89.2,66,140.1-3.7,127.4-51.3c29.7,36.7,127.4,22,127.4-36.7c29.7,22,12.7-29.3,118.9-40.3C1743,47.7,1590.2,58.7,1445.8,36.7z"
				/>
			<path class="st1" d="M1820.1,47c-76.4,0-262.6-14-407-36c-56-8.5-110.6-5-121.1-5l0.6,5.4c51.6,19.6,29.8,140.8,136.1,190.3
				c92.9,43.3,199.6-25.7,165.6-106.3C1624.1,117.4,1645.4,69.7,1820.1,47z"/>
		</g>
	</g>
</g>
</svg>
