<?xml version="1.0" encoding="utf-8"?>
<!-- Generator: Adobe Illustrator 24.0.2, SVG Export Plug-In . SVG Version: 6.00 Build 0)  -->
<svg version="1.1" id="Layer_1" xmlns="http://www.w3.org/2000/svg" xmlns:xlink="http://www.w3.org/1999/xlink" x="0px" y="0px"
	 viewBox="0 0 55 87" style="enable-background:new 0 0 55 87;" xml:space="preserve">
<style type="text/css">
	.st0{fill:url(#SVGID_1_);}
	.st1{fill:url(#SVGID_2_);}
	.st2{fill:url(#SVGID_3_);}
	.st3{fill:url(#SVGID_4_);}
	.st4{fill:url(#SVGID_5_);}
	.st5{fill:#171516;}
	.st6{fill:#FFFFFF;}
	.st7{fill:url(#SVGID_6_);}
</style>
<g>
	
		<linearGradient id="SVGID_1_" gradientUnits="userSpaceOnUse" x1="3597.3191" y1="83.5513" x2="3573.0605" y2="49.2082" gradientTransform="matrix(-0.9994 -3.581569e-02 -3.581569e-02 0.9994 3623.8904 81.8141)">
		<stop  offset="0.1043" style="stop-color:#FFFFFF"/>
		<stop  offset="0.4078" style="stop-color:#FFD540"/>
		<stop  offset="0.8531" style="stop-color:#E36D15"/>
	</linearGradient>
	<path class="st0" d="M35.7,43.9c-5-10-6-14-3-19c4.3-7.1,12.3-10.7,14-13c3.2-2.9,4.7-2.3,7-4c0.8-0.6,2-2,1-2
		C54,5.9,55,5.8,55,5.8S25.7,7.9,23.7,20.9C21.9,32.2,25.7,33.9,35.7,43.9z"/>
	
		<linearGradient id="SVGID_2_" gradientUnits="userSpaceOnUse" x1="109.1984" y1="-99.3291" x2="129.6835" y2="-99.3291" gradientTransform="matrix(0.9656 -0.2599 0.2599 0.9656 -73.6289 137.6993)">
		<stop  offset="0.1469" style="stop-color:#E36D15"/>
		<stop  offset="0.5922" style="stop-color:#FFD540"/>
		<stop  offset="0.8957" style="stop-color:#FFFFFF"/>
	</linearGradient>
	<path class="st1" d="M25.3,6.3c-2,2-12.4,10.1-19.1,7.8C7.8,9,25.3,6.3,25.3,6.3z"/>
	
		<linearGradient id="SVGID_3_" gradientUnits="userSpaceOnUse" x1="3466.553" y1="-77.4263" x2="3486.345" y2="-77.4263" gradientTransform="matrix(-0.9563 0.2923 0.2923 0.9563 3364.1768 -928.0464)">
		<stop  offset="0.1043" style="stop-color:#FFFFFF"/>
		<stop  offset="0.4078" style="stop-color:#FFD540"/>
		<stop  offset="0.8531" style="stop-color:#E36D15"/>
	</linearGradient>
	<path class="st2" d="M24.9,6.4c-1,2.6-8.9,14.7-16,15.3C8.3,16.3,24.9,6.4,24.9,6.4z"/>
	
		<linearGradient id="SVGID_4_" gradientUnits="userSpaceOnUse" x1="3596.1912" y1="53.7758" x2="3616.7944" y2="53.7758" gradientTransform="matrix(-0.9994 -3.581569e-02 -3.581569e-02 0.9994 3623.8904 81.8141)">
		<stop  offset="9.380475e-03" style="stop-color:#FFFFFF"/>
		<stop  offset="0.3087" style="stop-color:#FFD540"/>
		<stop  offset="0.8531" style="stop-color:#E36D15"/>
	</linearGradient>
	<path class="st3" d="M28.1,5.7c-2.5,1.2-15.2,5.1-20.6,0.5C10.8,2,28.1,5.7,28.1,5.7z"/>
	
		<linearGradient id="SVGID_5_" gradientUnits="userSpaceOnUse" x1="4020.7268" y1="391.7017" x2="4041.3301" y2="391.7017" gradientTransform="matrix(-0.9751 -0.2219 -0.2219 0.9751 4039.2351 515.9472)">
		<stop  offset="0.1026" style="stop-color:#FFFFFF"/>
		<stop  offset="0.5187" style="stop-color:#FFD540"/>
		<stop  offset="0.8531" style="stop-color:#E36D15"/>
	</linearGradient>
	<path class="st4" d="M32.1,4.7c-2.7,0.7-15.9,2.2-20.4-3.4C15.7-2.3,32.1,4.7,32.1,4.7z"/>
	<path class="st5" d="M35.5,9.8c1.7-1.7,3.3-3.9,8.2-1.9c-1,0.7-2.7,2.9-4.8,1.9C36.7,8.7,34.5,10.8,35.5,9.8z"/>
	<g>
		<path class="st6" d="M24.5,6.1c1.7-1.1,3.4-2.2,5.4-2.9c2-0.7,4.1-1,6.2-1c2.1,0,4.1,0.5,6.1,1.1c2,0.6,3.8,1.5,5.5,2.6
			c-2-0.3-4-0.8-5.9-1c-1.9-0.3-3.9-0.6-5.8-0.6c-1.9-0.1-3.8,0.1-5.7,0.5C28.4,5.1,26.5,5.7,24.5,6.1z"/>
	</g>
	<linearGradient id="SVGID_6_" gradientUnits="userSpaceOnUse" x1="-0.3243" y1="50.9254" x2="32.7111" y2="50.9254">
		<stop  offset="0.1043" style="stop-color:#FFFFFF"/>
		<stop  offset="0.4078" style="stop-color:#FFD540"/>
		<stop  offset="0.8531" style="stop-color:#E36D15"/>
	</linearGradient>
	<path class="st7" d="M17.7,14.9c-5,6-3.3,13.9,0,19c4.5,7,6,17,2,21c-3.3,3.3-10.5,0.6-20,2c16.1,2.1,15,13,23,9c-6,8,0,5-4,21
		c6-7,27-28,2.3-54.2C18.1,29.8,13.7,21.9,17.7,14.9z"/>
</g>
</svg>
