<?xml version="1.0" encoding="utf-8"?>
<!-- Generator: Adobe Illustrator 24.0.2, SVG Export Plug-In . SVG Version: 6.00 Build 0)  -->
<svg version="1.1" id="Layer_1" xmlns="http://www.w3.org/2000/svg" xmlns:xlink="http://www.w3.org/1999/xlink" x="0px" y="0px"
	 viewBox="0 0 277 42" style="enable-background:new 0 0 277 42;" xml:space="preserve">
<style type="text/css">
	.st0{opacity:0.5;fill:#FFFFFF;}
	.st1{fill:#FFFFFF;}
</style>
<g>
	<g>
		<path class="st0" d="M85.5,44.5c19.5,2.5,23.4-13.8,14.5-18.2c-3.8-1.9-8.8-1.9-12.6,0c0.6-9.4-15.7-30.8-34-12.6
			C42.1-1.4,21.3,3,17.5,22.5C4.3,11.2-3.2,23.2-1.3,31.3c-4.4-6.3-18.9-3.8-18.9,6.3c-4.4-3.8-1.9,5-17.6,6.9
			c11.3,0,34-1.9,55.3,1.9c21.4,3.8,31.4,6.9,37.7,0S75.4,43.2,85.5,44.5z"/>
		<path class="st1" d="M80.4,47.7c27,0.6,22.5-19.6,8.2-20.1c-17-0.6-26.4-28.3-41.5-10.7C43.9,6.2,22,4.2,20,18.1
			C5.6,11.8-9.5,22.5-4.5,36.4c-4.4-3.8-7.5,4.4-33.4,8.3c11.3,0,37.8-4.5,59.2-0.8s27.6,9.6,33.9,2.6S70.3,47.4,80.4,47.7z"/>
	</g>
	<g>
		<path class="st0" d="M287.5,57.5c19.5,2.5,23.4-13.8,14.5-18.2c-3.8-1.9-8.8-1.9-12.6,0c0.6-9.4-15.7-30.8-34-12.6
			c-11.3-15.1-32.1-10.7-35.8,8.8c-13.2-11.3-20.8,0.6-18.9,8.8c-4.4-6.3-18.9-3.8-18.9,6.3c-4.4-3.8-1.9,5-17.6,6.9
			c11.3,0,34-1.9,55.3,1.9c21.4,3.8,31.4,6.9,37.7,0C263.6,52.5,277.4,56.2,287.5,57.5z"/>
		<path class="st1" d="M282.4,60.7c27,0.6,22.5-19.6,8.2-20.1c-17-0.6-26.4-28.3-41.5-10.7c-3.1-10.7-25.1-12.7-27,1.3
			c-14.5-6.3-29.6,4.4-24.5,18.2c-4.4-3.8-7.5,4.4-33.4,8.3c11.3,0,37.8-4.5,59.2-0.8s27.6,9.6,33.9,2.6
			C263.5,52.6,272.3,60.4,282.4,60.7z"/>
	</g>
	<g>
		<path class="st0" d="M238.4,58.3c-13.9,3.3-26.9,13.8-46,5.7s-36.4-11.4-53.8-5.7S84,77,51.1,52.6c21.7-8.1,17.3-29.3,34.7-20.3
			c0-21.1,21.7-22,29.5-14.6c13.9-18.7,31.9-3.5,31.6,4.3c9.7-6.3,20.5,2.2,17,14.4c3.5-7.3,11.3-8.1,15.6-2.4
			c12.1-14.6,31.2-3.3,26,11.4C215.8,42,215,54.2,238.4,58.3z"/>
		<path class="st1" d="M238.4,58.3c-31.2,2.4-26.9,13.8-46,5.7s-34.7-17.1-52-11.4S84,77,51.1,52.6c25.1-5.7,24.3-28.5,41.6-19.5
			c0-21.1,17.3-22,25.1-14.6c19.1-16.3,33.8,1.6,31.2,9.8c9.7-6.3,18.2-4.1,14.7,8.1c3.5-7.3,13.9-6.5,18.2-0.8
			c12.1-14.6,31.2,0,26,14.6C218.4,46.9,215,54.2,238.4,58.3z"/>
	</g>
</g>
</svg>
